ISO-10303-21;
HEADER;
FILE_DESCRIPTION(('FreeCAD Model'),'2;1');
FILE_NAME('Open CASCADE Shape Model','2026-09-22T19:53:14',('FreeCAD'),(
    'FreeCAD'),'Open CASCADE STEP processor 7.8','FreeCAD','Unknown');
FILE_SCHEMA(('AUTOMOTIVE_DESIGN { 1 0 10303 214 1 1 1 1 }'));
ENDSEC;
DATA;
#1 = APPLICATION_PROTOCOL_DEFINITION('international standard',
  'automotive_design',2000,#2);
#2 = APPLICATION_CONTEXT(
  'core data for automotive mechanical design processes');
#3 = SHAPE_DEFINITION_REPRESENTATION(#4,#10);
#4 = PRODUCT_DEFINITION_SHAPE('','',#5);
#5 = PRODUCT_DEFINITION('design','',#6,#9);
#6 = PRODUCT_DEFINITION_FORMATION('','',#7);
#7 = PRODUCT('Open CASCADE STEP translator 7.8 25',
  'Open CASCADE STEP translator 7.8 25','',(#8));
#8 = PRODUCT_CONTEXT('',#2,'mechanical');
#9 = PRODUCT_DEFINITION_CONTEXT('part definition',#2,'design');
#10 = ADVANCED_BREP_SHAPE_REPRESENTATION('',(#11,#15),#1607);
#11 = AXIS2_PLACEMENT_3D('',#12,#13,#14);
#12 = CARTESIAN_POINT('',(0.,0.,0.));
#13 = DIRECTION('',(0.,0.,1.));
#14 = DIRECTION('',(1.,0.,-0.));
#15 = MANIFOLD_SOLID_BREP('',#16);
#16 = CLOSED_SHELL('',(#17,#57,#176,#202,#296,#478,#538,#571,#583,#616,
    #655,#712,#729,#761,#809,#833,#877,#910,#927,#944,#975,#999,#1023,
    #1047,#1071,#1088,#1119,#1143,#1167,#1191,#1215,#1232,#1249,#1282,
    #1314,#1339,#1351,#1375,#1392,#1409,#1443,#1467,#1491,#1510,#1535,
    #1552,#1569,#1581,#1593));
#17 = ADVANCED_FACE('',(#18),#52,.F.);
#18 = FACE_BOUND('',#19,.F.);
#19 = EDGE_LOOP('',(#20,#30,#38,#46));
#20 = ORIENTED_EDGE('',*,*,#21,.F.);
#21 = EDGE_CURVE('',#22,#24,#26,.T.);
#22 = VERTEX_POINT('',#23);
#23 = CARTESIAN_POINT('',(96.5,65.,-29.41742430504));
#24 = VERTEX_POINT('',#25);
#25 = CARTESIAN_POINT('',(99.,65.,-29.41742430504));
#26 = LINE('',#27,#28);
#27 = CARTESIAN_POINT('',(96.5,65.,-29.41742430504));
#28 = VECTOR('',#29,1.);
#29 = DIRECTION('',(1.,0.,0.));
#30 = ORIENTED_EDGE('',*,*,#31,.T.);
#31 = EDGE_CURVE('',#22,#32,#34,.T.);
#32 = VERTEX_POINT('',#33);
#33 = CARTESIAN_POINT('',(96.5,65.,21.417424305044));
#34 = LINE('',#35,#36);
#35 = CARTESIAN_POINT('',(96.5,65.,-34.));
#36 = VECTOR('',#37,1.);
#37 = DIRECTION('',(0.,0.,1.));
#38 = ORIENTED_EDGE('',*,*,#39,.T.);
#39 = EDGE_CURVE('',#32,#40,#42,.T.);
#40 = VERTEX_POINT('',#41);
#41 = CARTESIAN_POINT('',(99.,65.,21.417424305044));
#42 = LINE('',#43,#44);
#43 = CARTESIAN_POINT('',(96.5,65.,21.417424305044));
#44 = VECTOR('',#45,1.);
#45 = DIRECTION('',(1.,0.,0.));
#46 = ORIENTED_EDGE('',*,*,#47,.F.);
#47 = EDGE_CURVE('',#24,#40,#48,.T.);
#48 = LINE('',#49,#50);
#49 = CARTESIAN_POINT('',(99.,65.,-34.));
#50 = VECTOR('',#51,1.);
#51 = DIRECTION('',(0.,0.,1.));
#52 = PLANE('',#53);
#53 = AXIS2_PLACEMENT_3D('',#54,#55,#56);
#54 = CARTESIAN_POINT('',(96.5,65.,-34.));
#55 = DIRECTION('',(-0.,1.,0.));
#56 = DIRECTION('',(0.,0.,1.));
#57 = ADVANCED_FACE('',(#58),#171,.T.);
#58 = FACE_BOUND('',#59,.T.);
#59 = EDGE_LOOP('',(#60,#71,#79,#88,#96,#105,#113,#122,#130,#139,#146,
    #147,#156,#164));
#60 = ORIENTED_EDGE('',*,*,#61,.F.);
#61 = EDGE_CURVE('',#62,#64,#66,.T.);
#62 = VERTEX_POINT('',#63);
#63 = CARTESIAN_POINT('',(114.,64.5,-38.33012701892));
#64 = VERTEX_POINT('',#65);
#65 = CARTESIAN_POINT('',(114.,67.,-29.));
#66 = CIRCLE('',#67,5.);
#67 = AXIS2_PLACEMENT_3D('',#68,#69,#70);
#68 = CARTESIAN_POINT('',(114.,67.,-34.));
#69 = DIRECTION('',(1.,0.,0.));
#70 = DIRECTION('',(-0.,0.,1.));
#71 = ORIENTED_EDGE('',*,*,#72,.F.);
#72 = EDGE_CURVE('',#73,#62,#75,.T.);
#73 = VERTEX_POINT('',#74);
#74 = CARTESIAN_POINT('',(99.,64.5,-38.33012701892));
#75 = LINE('',#76,#77);
#76 = CARTESIAN_POINT('',(96.5,64.5,-38.33012701892));
#77 = VECTOR('',#78,1.);
#78 = DIRECTION('',(1.,0.,0.));
#79 = ORIENTED_EDGE('',*,*,#80,.F.);
#80 = EDGE_CURVE('',#81,#73,#83,.T.);
#81 = VERTEX_POINT('',#82);
#82 = CARTESIAN_POINT('',(99.,64.,-38.));
#83 = CIRCLE('',#84,5.);
#84 = AXIS2_PLACEMENT_3D('',#85,#86,#87);
#85 = CARTESIAN_POINT('',(99.,67.,-34.));
#86 = DIRECTION('',(1.,0.,0.));
#87 = DIRECTION('',(-0.,0.,1.));
#88 = ORIENTED_EDGE('',*,*,#89,.F.);
#89 = EDGE_CURVE('',#90,#81,#92,.T.);
#90 = VERTEX_POINT('',#91);
#91 = CARTESIAN_POINT('',(97.3,64.,-38.));
#92 = LINE('',#93,#94);
#93 = CARTESIAN_POINT('',(96.5,64.,-38.));
#94 = VECTOR('',#95,1.);
#95 = DIRECTION('',(1.,0.,0.));
#96 = ORIENTED_EDGE('',*,*,#97,.T.);
#97 = EDGE_CURVE('',#90,#98,#100,.T.);
#98 = VERTEX_POINT('',#99);
#99 = CARTESIAN_POINT('',(97.3,64.669207049288,-38.4235058744));
#100 = CIRCLE('',#101,5.);
#101 = AXIS2_PLACEMENT_3D('',#102,#103,#104);
#102 = CARTESIAN_POINT('',(97.3,67.,-34.));
#103 = DIRECTION('',(1.,0.,0.));
#104 = DIRECTION('',(-0.,0.,1.));
#105 = ORIENTED_EDGE('',*,*,#106,.F.);
#106 = EDGE_CURVE('',#107,#98,#109,.T.);
#107 = VERTEX_POINT('',#108);
#108 = CARTESIAN_POINT('',(96.5,64.669207049289,-38.4235058744));
#109 = LINE('',#110,#111);
#110 = CARTESIAN_POINT('',(96.5,64.669207049288,-38.4235058744));
#111 = VECTOR('',#112,1.);
#112 = DIRECTION('',(1.,0.,0.));
#113 = ORIENTED_EDGE('',*,*,#114,.T.);
#114 = EDGE_CURVE('',#107,#115,#117,.T.);
#115 = VERTEX_POINT('',#116);
#116 = CARTESIAN_POINT('',(96.5,69.,-29.41742430504));
#117 = CIRCLE('',#118,5.);
#118 = AXIS2_PLACEMENT_3D('',#119,#120,#121);
#119 = CARTESIAN_POINT('',(96.5,67.,-34.));
#120 = DIRECTION('',(1.,0.,0.));
#121 = DIRECTION('',(-0.,0.,1.));
#122 = ORIENTED_EDGE('',*,*,#123,.T.);
#123 = EDGE_CURVE('',#115,#124,#126,.T.);
#124 = VERTEX_POINT('',#125);
#125 = CARTESIAN_POINT('',(99.,69.,-29.41742430504));
#126 = LINE('',#127,#128);
#127 = CARTESIAN_POINT('',(96.5,69.,-29.41742430504));
#128 = VECTOR('',#129,1.);
#129 = DIRECTION('',(1.,0.,0.));
#130 = ORIENTED_EDGE('',*,*,#131,.T.);
#131 = EDGE_CURVE('',#124,#132,#134,.T.);
#132 = VERTEX_POINT('',#133);
#133 = CARTESIAN_POINT('',(99.,67.,-29.));
#134 = CIRCLE('',#135,5.);
#135 = AXIS2_PLACEMENT_3D('',#136,#137,#138);
#136 = CARTESIAN_POINT('',(99.,67.,-34.));
#137 = DIRECTION('',(1.,0.,0.));
#138 = DIRECTION('',(-0.,0.,1.));
#139 = ORIENTED_EDGE('',*,*,#140,.T.);
#140 = EDGE_CURVE('',#132,#24,#141,.T.);
#141 = CIRCLE('',#142,5.);
#142 = AXIS2_PLACEMENT_3D('',#143,#144,#145);
#143 = CARTESIAN_POINT('',(99.,67.,-34.));
#144 = DIRECTION('',(1.,0.,0.));
#145 = DIRECTION('',(-0.,0.,1.));
#146 = ORIENTED_EDGE('',*,*,#21,.F.);
#147 = ORIENTED_EDGE('',*,*,#148,.T.);
#148 = EDGE_CURVE('',#22,#149,#151,.T.);
#149 = VERTEX_POINT('',#150);
#150 = CARTESIAN_POINT('',(96.5,64.,-30.));
#151 = CIRCLE('',#152,5.);
#152 = AXIS2_PLACEMENT_3D('',#153,#154,#155);
#153 = CARTESIAN_POINT('',(96.5,67.,-34.));
#154 = DIRECTION('',(1.,0.,0.));
#155 = DIRECTION('',(-0.,0.,1.));
#156 = ORIENTED_EDGE('',*,*,#157,.T.);
#157 = EDGE_CURVE('',#149,#158,#160,.T.);
#158 = VERTEX_POINT('',#159);
#159 = CARTESIAN_POINT('',(114.,64.,-30.));
#160 = LINE('',#161,#162);
#161 = CARTESIAN_POINT('',(96.5,64.,-30.));
#162 = VECTOR('',#163,1.);
#163 = DIRECTION('',(1.,0.,0.));
#164 = ORIENTED_EDGE('',*,*,#165,.F.);
#165 = EDGE_CURVE('',#64,#158,#166,.T.);
#166 = CIRCLE('',#167,5.);
#167 = AXIS2_PLACEMENT_3D('',#168,#169,#170);
#168 = CARTESIAN_POINT('',(114.,67.,-34.));
#169 = DIRECTION('',(1.,0.,0.));
#170 = DIRECTION('',(-0.,0.,1.));
#171 = CYLINDRICAL_SURFACE('',#172,5.);
#172 = AXIS2_PLACEMENT_3D('',#173,#174,#175);
#173 = CARTESIAN_POINT('',(96.5,67.,-34.));
#174 = DIRECTION('',(1.,0.,0.));
#175 = DIRECTION('',(-0.,0.,1.));
#176 = ADVANCED_FACE('',(#177),#197,.T.);
#177 = FACE_BOUND('',#178,.T.);
#178 = EDGE_LOOP('',(#179,#180,#181,#182,#190));
#179 = ORIENTED_EDGE('',*,*,#47,.F.);
#180 = ORIENTED_EDGE('',*,*,#140,.F.);
#181 = ORIENTED_EDGE('',*,*,#131,.F.);
#182 = ORIENTED_EDGE('',*,*,#183,.T.);
#183 = EDGE_CURVE('',#124,#184,#186,.T.);
#184 = VERTEX_POINT('',#185);
#185 = CARTESIAN_POINT('',(99.,69.,21.417424305044));
#186 = LINE('',#187,#188);
#187 = CARTESIAN_POINT('',(99.,69.,-34.));
#188 = VECTOR('',#189,1.);
#189 = DIRECTION('',(0.,0.,1.));
#190 = ORIENTED_EDGE('',*,*,#191,.F.);
#191 = EDGE_CURVE('',#40,#184,#192,.T.);
#192 = CIRCLE('',#193,5.);
#193 = AXIS2_PLACEMENT_3D('',#194,#195,#196);
#194 = CARTESIAN_POINT('',(99.,67.,26.));
#195 = DIRECTION('',(1.,0.,0.));
#196 = DIRECTION('',(-0.,0.,1.));
#197 = PLANE('',#198);
#198 = AXIS2_PLACEMENT_3D('',#199,#200,#201);
#199 = CARTESIAN_POINT('',(99.,65.,-34.));
#200 = DIRECTION('',(1.,0.,-0.));
#201 = DIRECTION('',(0.,0.,1.));
#202 = ADVANCED_FACE('',(#203),#291,.T.);
#203 = FACE_BOUND('',#204,.T.);
#204 = EDGE_LOOP('',(#205,#216,#224,#233,#241,#250,#259,#267,#274,#275,
    #276,#284));
#205 = ORIENTED_EDGE('',*,*,#206,.T.);
#206 = EDGE_CURVE('',#207,#209,#211,.T.);
#207 = VERTEX_POINT('',#208);
#208 = CARTESIAN_POINT('',(96.5,67.,31.));
#209 = VERTEX_POINT('',#210);
#210 = CARTESIAN_POINT('',(96.5,64.,30.));
#211 = CIRCLE('',#212,5.);
#212 = AXIS2_PLACEMENT_3D('',#213,#214,#215);
#213 = CARTESIAN_POINT('',(96.5,67.,26.));
#214 = DIRECTION('',(1.,0.,0.));
#215 = DIRECTION('',(-0.,0.,1.));
#216 = ORIENTED_EDGE('',*,*,#217,.T.);
#217 = EDGE_CURVE('',#209,#218,#220,.T.);
#218 = VERTEX_POINT('',#219);
#219 = CARTESIAN_POINT('',(99.,64.,30.));
#220 = LINE('',#221,#222);
#221 = CARTESIAN_POINT('',(96.5,64.,30.));
#222 = VECTOR('',#223,1.);
#223 = DIRECTION('',(1.,0.,0.));
#224 = ORIENTED_EDGE('',*,*,#225,.F.);
#225 = EDGE_CURVE('',#226,#218,#228,.T.);
#226 = VERTEX_POINT('',#227);
#227 = CARTESIAN_POINT('',(99.,64.5,30.330127018922));
#228 = CIRCLE('',#229,5.);
#229 = AXIS2_PLACEMENT_3D('',#230,#231,#232);
#230 = CARTESIAN_POINT('',(99.,67.,26.));
#231 = DIRECTION('',(1.,0.,0.));
#232 = DIRECTION('',(-0.,0.,1.));
#233 = ORIENTED_EDGE('',*,*,#234,.T.);
#234 = EDGE_CURVE('',#226,#235,#237,.T.);
#235 = VERTEX_POINT('',#236);
#236 = CARTESIAN_POINT('',(114.,64.5,30.330127018922));
#237 = LINE('',#238,#239);
#238 = CARTESIAN_POINT('',(96.5,64.5,30.330127018922));
#239 = VECTOR('',#240,1.);
#240 = DIRECTION('',(1.,0.,0.));
#241 = ORIENTED_EDGE('',*,*,#242,.F.);
#242 = EDGE_CURVE('',#243,#235,#245,.T.);
#243 = VERTEX_POINT('',#244);
#244 = CARTESIAN_POINT('',(114.,67.,31.));
#245 = CIRCLE('',#246,5.);
#246 = AXIS2_PLACEMENT_3D('',#247,#248,#249);
#247 = CARTESIAN_POINT('',(114.,67.,26.));
#248 = DIRECTION('',(1.,0.,0.));
#249 = DIRECTION('',(-0.,0.,1.));
#250 = ORIENTED_EDGE('',*,*,#251,.F.);
#251 = EDGE_CURVE('',#252,#243,#254,.T.);
#252 = VERTEX_POINT('',#253);
#253 = CARTESIAN_POINT('',(114.,64.,22.));
#254 = CIRCLE('',#255,5.);
#255 = AXIS2_PLACEMENT_3D('',#256,#257,#258);
#256 = CARTESIAN_POINT('',(114.,67.,26.));
#257 = DIRECTION('',(1.,0.,0.));
#258 = DIRECTION('',(-0.,0.,1.));
#259 = ORIENTED_EDGE('',*,*,#260,.F.);
#260 = EDGE_CURVE('',#261,#252,#263,.T.);
#261 = VERTEX_POINT('',#262);
#262 = CARTESIAN_POINT('',(96.5,64.,22.));
#263 = LINE('',#264,#265);
#264 = CARTESIAN_POINT('',(96.5,64.,22.));
#265 = VECTOR('',#266,1.);
#266 = DIRECTION('',(1.,0.,0.));
#267 = ORIENTED_EDGE('',*,*,#268,.T.);
#268 = EDGE_CURVE('',#261,#32,#269,.T.);
#269 = CIRCLE('',#270,5.);
#270 = AXIS2_PLACEMENT_3D('',#271,#272,#273);
#271 = CARTESIAN_POINT('',(96.5,67.,26.));
#272 = DIRECTION('',(1.,0.,0.));
#273 = DIRECTION('',(-0.,0.,1.));
#274 = ORIENTED_EDGE('',*,*,#39,.T.);
#275 = ORIENTED_EDGE('',*,*,#191,.T.);
#276 = ORIENTED_EDGE('',*,*,#277,.F.);
#277 = EDGE_CURVE('',#278,#184,#280,.T.);
#278 = VERTEX_POINT('',#279);
#279 = CARTESIAN_POINT('',(96.5,69.,21.417424305044));
#280 = LINE('',#281,#282);
#281 = CARTESIAN_POINT('',(96.5,69.,21.417424305044));
#282 = VECTOR('',#283,1.);
#283 = DIRECTION('',(1.,0.,0.));
#284 = ORIENTED_EDGE('',*,*,#285,.T.);
#285 = EDGE_CURVE('',#278,#207,#286,.T.);
#286 = CIRCLE('',#287,5.);
#287 = AXIS2_PLACEMENT_3D('',#288,#289,#290);
#288 = CARTESIAN_POINT('',(96.5,67.,26.));
#289 = DIRECTION('',(1.,0.,0.));
#290 = DIRECTION('',(-0.,0.,1.));
#291 = CYLINDRICAL_SURFACE('',#292,5.);
#292 = AXIS2_PLACEMENT_3D('',#293,#294,#295);
#293 = CARTESIAN_POINT('',(96.5,67.,26.));
#294 = DIRECTION('',(1.,0.,0.));
#295 = DIRECTION('',(-0.,0.,1.));
#296 = ADVANCED_FACE('',(#297,#373,#423),#473,.T.);
#297 = FACE_BOUND('',#298,.T.);
#298 = EDGE_LOOP('',(#299,#300,#301,#302,#310,#318,#324,#325,#326,#332,
    #333,#342,#351,#359,#367));
#299 = ORIENTED_EDGE('',*,*,#148,.F.);
#300 = ORIENTED_EDGE('',*,*,#31,.T.);
#301 = ORIENTED_EDGE('',*,*,#268,.F.);
#302 = ORIENTED_EDGE('',*,*,#303,.F.);
#303 = EDGE_CURVE('',#304,#261,#306,.T.);
#304 = VERTEX_POINT('',#305);
#305 = CARTESIAN_POINT('',(96.5,56.,22.));
#306 = LINE('',#307,#308);
#307 = CARTESIAN_POINT('',(96.5,56.,22.));
#308 = VECTOR('',#309,1.);
#309 = DIRECTION('',(-0.,1.,0.));
#310 = ORIENTED_EDGE('',*,*,#311,.T.);
#311 = EDGE_CURVE('',#304,#312,#314,.T.);
#312 = VERTEX_POINT('',#313);
#313 = CARTESIAN_POINT('',(96.5,56.,30.));
#314 = LINE('',#315,#316);
#315 = CARTESIAN_POINT('',(96.5,56.,22.));
#316 = VECTOR('',#317,1.);
#317 = DIRECTION('',(0.,0.,1.));
#318 = ORIENTED_EDGE('',*,*,#319,.T.);
#319 = EDGE_CURVE('',#312,#209,#320,.T.);
#320 = LINE('',#321,#322);
#321 = CARTESIAN_POINT('',(96.5,56.,30.));
#322 = VECTOR('',#323,1.);
#323 = DIRECTION('',(-0.,1.,0.));
#324 = ORIENTED_EDGE('',*,*,#206,.F.);
#325 = ORIENTED_EDGE('',*,*,#285,.F.);
#326 = ORIENTED_EDGE('',*,*,#327,.F.);
#327 = EDGE_CURVE('',#115,#278,#328,.T.);
#328 = LINE('',#329,#330);
#329 = CARTESIAN_POINT('',(96.5,69.,-34.));
#330 = VECTOR('',#331,1.);
#331 = DIRECTION('',(0.,0.,1.));
#332 = ORIENTED_EDGE('',*,*,#114,.F.);
#333 = ORIENTED_EDGE('',*,*,#334,.T.);
#334 = EDGE_CURVE('',#107,#335,#337,.T.);
#335 = VERTEX_POINT('',#336);
#336 = CARTESIAN_POINT('',(96.5,62.,-36.9));
#337 = CIRCLE('',#338,3.1);
#338 = AXIS2_PLACEMENT_3D('',#339,#340,#341);
#339 = CARTESIAN_POINT('',(96.5,62.,-40.));
#340 = DIRECTION('',(1.,0.,0.));
#341 = DIRECTION('',(-0.,0.,1.));
#342 = ORIENTED_EDGE('',*,*,#343,.T.);
#343 = EDGE_CURVE('',#335,#344,#346,.T.);
#344 = VERTEX_POINT('',#345);
#345 = CARTESIAN_POINT('',(96.5,59.631456143534,-38.));
#346 = CIRCLE('',#347,3.1);
#347 = AXIS2_PLACEMENT_3D('',#348,#349,#350);
#348 = CARTESIAN_POINT('',(96.5,62.,-40.));
#349 = DIRECTION('',(1.,0.,0.));
#350 = DIRECTION('',(-0.,0.,1.));
#351 = ORIENTED_EDGE('',*,*,#352,.F.);
#352 = EDGE_CURVE('',#353,#344,#355,.T.);
#353 = VERTEX_POINT('',#354);
#354 = CARTESIAN_POINT('',(96.5,56.,-38.));
#355 = LINE('',#356,#357);
#356 = CARTESIAN_POINT('',(96.5,56.,-38.));
#357 = VECTOR('',#358,1.);
#358 = DIRECTION('',(-0.,1.,0.));
#359 = ORIENTED_EDGE('',*,*,#360,.T.);
#360 = EDGE_CURVE('',#353,#361,#363,.T.);
#361 = VERTEX_POINT('',#362);
#362 = CARTESIAN_POINT('',(96.5,56.,-30.));
#363 = LINE('',#364,#365);
#364 = CARTESIAN_POINT('',(96.5,56.,-38.));
#365 = VECTOR('',#366,1.);
#366 = DIRECTION('',(0.,0.,1.));
#367 = ORIENTED_EDGE('',*,*,#368,.T.);
#368 = EDGE_CURVE('',#361,#149,#369,.T.);
#369 = LINE('',#370,#371);
#370 = CARTESIAN_POINT('',(96.5,56.,-30.));
#371 = VECTOR('',#372,1.);
#372 = DIRECTION('',(-0.,1.,0.));
#373 = FACE_BOUND('',#374,.T.);
#374 = EDGE_LOOP('',(#375,#385,#393,#401,#409,#417));
#375 = ORIENTED_EDGE('',*,*,#376,.T.);
#376 = EDGE_CURVE('',#377,#379,#381,.T.);
#377 = VERTEX_POINT('',#378);
#378 = CARTESIAN_POINT('',(96.5,69.9,-35.67431578065));
#379 = VERTEX_POINT('',#380);
#380 = CARTESIAN_POINT('',(96.5,69.9,-32.32568421935));
#381 = LINE('',#382,#383);
#382 = CARTESIAN_POINT('',(96.5,69.9,-19.79696917602));
#383 = VECTOR('',#384,1.);
#384 = DIRECTION('',(-0.,0.,1.));
#385 = ORIENTED_EDGE('',*,*,#386,.T.);
#386 = EDGE_CURVE('',#379,#387,#389,.T.);
#387 = VERTEX_POINT('',#388);
#388 = CARTESIAN_POINT('',(96.5,67.,-30.6513684387));
#389 = LINE('',#390,#391);
#390 = CARTESIAN_POINT('',(96.5,61.988284751784,-27.75785329104));
#391 = VECTOR('',#392,1.);
#392 = DIRECTION('',(0.,-0.866025403784,0.5));
#393 = ORIENTED_EDGE('',*,*,#394,.T.);
#394 = EDGE_CURVE('',#387,#395,#397,.T.);
#395 = VERTEX_POINT('',#396);
#396 = CARTESIAN_POINT('',(96.5,64.1,-32.32568421935));
#397 = LINE('',#398,#399);
#398 = CARTESIAN_POINT('',(96.5,72.113470256084,-27.69910500985));
#399 = VECTOR('',#400,1.);
#400 = DIRECTION('',(0.,-0.866025403784,-0.5));
#401 = ORIENTED_EDGE('',*,*,#402,.T.);
#402 = EDGE_CURVE('',#395,#403,#405,.T.);
#403 = VERTEX_POINT('',#404);
#404 = CARTESIAN_POINT('',(96.5,64.1,-35.67431578065));
#405 = LINE('',#406,#407);
#406 = CARTESIAN_POINT('',(96.5,64.1,-18.12265339537));
#407 = VECTOR('',#408,1.);
#408 = DIRECTION('',(0.,0.,-1.));
#409 = ORIENTED_EDGE('',*,*,#410,.T.);
#410 = EDGE_CURVE('',#403,#411,#413,.T.);
#411 = VERTEX_POINT('',#412);
#412 = CARTESIAN_POINT('',(96.5,67.,-37.3486315613));
#413 = LINE('',#414,#415);
#414 = CARTESIAN_POINT('',(96.5,57.638284751784,-31.94364274266));
#415 = VECTOR('',#416,1.);
#416 = DIRECTION('',(0.,0.866025403784,-0.5));
#417 = ORIENTED_EDGE('',*,*,#418,.T.);
#418 = EDGE_CURVE('',#411,#377,#419,.T.);
#419 = LINE('',#420,#421);
#420 = CARTESIAN_POINT('',(96.5,73.563470256084,-33.55921024213));
#421 = VECTOR('',#422,1.);
#422 = DIRECTION('',(-0.,0.866025403784,0.5));
#423 = FACE_BOUND('',#424,.T.);
#424 = EDGE_LOOP('',(#425,#435,#443,#451,#459,#467));
#425 = ORIENTED_EDGE('',*,*,#426,.T.);
#426 = EDGE_CURVE('',#427,#429,#431,.T.);
#427 = VERTEX_POINT('',#428);
#428 = CARTESIAN_POINT('',(96.5,69.9,24.32568421935));
#429 = VERTEX_POINT('',#430);
#430 = CARTESIAN_POINT('',(96.5,69.9,27.67431578065));
#431 = LINE('',#432,#433);
#432 = CARTESIAN_POINT('',(96.5,69.9,10.20303082398));
#433 = VECTOR('',#434,1.);
#434 = DIRECTION('',(-0.,0.,1.));
#435 = ORIENTED_EDGE('',*,*,#436,.T.);
#436 = EDGE_CURVE('',#429,#437,#439,.T.);
#437 = VERTEX_POINT('',#438);
#438 = CARTESIAN_POINT('',(96.5,67.,29.3486315613));
#439 = LINE('',#440,#441);
#440 = CARTESIAN_POINT('',(96.5,74.97866580855,24.742146708959));
#441 = VECTOR('',#442,1.);
#442 = DIRECTION('',(0.,-0.866025403784,0.5));
#443 = ORIENTED_EDGE('',*,*,#444,.T.);
#444 = EDGE_CURVE('',#437,#445,#447,.T.);
#445 = VERTEX_POINT('',#446);
#446 = CARTESIAN_POINT('',(96.5,64.1,27.67431578065));
#447 = LINE('',#448,#449);
#448 = CARTESIAN_POINT('',(96.5,59.123089199317,24.800894990143));
#449 = VECTOR('',#450,1.);
#450 = DIRECTION('',(0.,-0.866025403784,-0.5));
#451 = ORIENTED_EDGE('',*,*,#452,.T.);
#452 = EDGE_CURVE('',#445,#453,#455,.T.);
#453 = VERTEX_POINT('',#454);
#454 = CARTESIAN_POINT('',(96.5,64.1,24.32568421935));
#455 = LINE('',#456,#457);
#456 = CARTESIAN_POINT('',(96.5,64.1,11.87734660463));
#457 = VECTOR('',#458,1.);
#458 = DIRECTION('',(0.,0.,-1.));
#459 = ORIENTED_EDGE('',*,*,#460,.T.);
#460 = EDGE_CURVE('',#453,#461,#463,.T.);
#461 = VERTEX_POINT('',#462);
#462 = CARTESIAN_POINT('',(96.5,67.,22.6513684387));
#463 = LINE('',#464,#465);
#464 = CARTESIAN_POINT('',(96.5,70.62866580855,20.556357257334));
#465 = VECTOR('',#466,1.);
#466 = DIRECTION('',(0.,0.866025403784,-0.5));
#467 = ORIENTED_EDGE('',*,*,#468,.T.);
#468 = EDGE_CURVE('',#461,#427,#469,.T.);
#469 = LINE('',#470,#471);
#470 = CARTESIAN_POINT('',(96.5,60.573089199317,18.940789757868));
#471 = VECTOR('',#472,1.);
#472 = DIRECTION('',(-0.,0.866025403784,0.5));
#473 = PLANE('',#474);
#474 = AXIS2_PLACEMENT_3D('',#475,#476,#477);
#475 = CARTESIAN_POINT('',(96.5,65.20234001049,-3.91962257139));
#476 = DIRECTION('',(-1.,-0.,-0.));
#477 = DIRECTION('',(0.,0.,-1.));
#478 = ADVANCED_FACE('',(#479,#522),#533,.T.);
#479 = FACE_BOUND('',#480,.T.);
#480 = EDGE_LOOP('',(#481,#489,#490,#491,#499,#507,#515));
#481 = ORIENTED_EDGE('',*,*,#482,.T.);
#482 = EDGE_CURVE('',#483,#62,#485,.T.);
#483 = VERTEX_POINT('',#484);
#484 = CARTESIAN_POINT('',(114.,64.5,-40.71518645886));
#485 = LINE('',#486,#487);
#486 = CARTESIAN_POINT('',(114.,64.5,-44.5));
#487 = VECTOR('',#488,1.);
#488 = DIRECTION('',(0.,0.,1.));
#489 = ORIENTED_EDGE('',*,*,#61,.T.);
#490 = ORIENTED_EDGE('',*,*,#165,.T.);
#491 = ORIENTED_EDGE('',*,*,#492,.F.);
#492 = EDGE_CURVE('',#493,#158,#495,.T.);
#493 = VERTEX_POINT('',#494);
#494 = CARTESIAN_POINT('',(114.,61.5,-30.));
#495 = LINE('',#496,#497);
#496 = CARTESIAN_POINT('',(114.,61.5,-30.));
#497 = VECTOR('',#498,1.);
#498 = DIRECTION('',(-0.,1.,0.));
#499 = ORIENTED_EDGE('',*,*,#500,.F.);
#500 = EDGE_CURVE('',#501,#493,#503,.T.);
#501 = VERTEX_POINT('',#502);
#502 = CARTESIAN_POINT('',(114.,61.5,-44.5));
#503 = LINE('',#504,#505);
#504 = CARTESIAN_POINT('',(114.,61.5,-44.5));
#505 = VECTOR('',#506,1.);
#506 = DIRECTION('',(0.,0.,1.));
#507 = ORIENTED_EDGE('',*,*,#508,.T.);
#508 = EDGE_CURVE('',#501,#509,#511,.T.);
#509 = VERTEX_POINT('',#510);
#510 = CARTESIAN_POINT('',(114.,63.226112695088,-44.5));
#511 = LINE('',#512,#513);
#512 = CARTESIAN_POINT('',(114.,61.5,-44.5));
#513 = VECTOR('',#514,1.);
#514 = DIRECTION('',(-0.,1.,0.));
#515 = ORIENTED_EDGE('',*,*,#516,.F.);
#516 = EDGE_CURVE('',#483,#509,#517,.T.);
#517 = CIRCLE('',#518,4.8);
#518 = AXIS2_PLACEMENT_3D('',#519,#520,#521);
#519 = CARTESIAN_POINT('',(114.,68.,-44.));
#520 = DIRECTION('',(1.,0.,0.));
#521 = DIRECTION('',(-0.,0.,1.));
#522 = FACE_BOUND('',#523,.T.);
#523 = EDGE_LOOP('',(#524));
#524 = ORIENTED_EDGE('',*,*,#525,.F.);
#525 = EDGE_CURVE('',#526,#526,#528,.T.);
#526 = VERTEX_POINT('',#527);
#527 = CARTESIAN_POINT('',(114.,67.,-32.3));
#528 = CIRCLE('',#529,1.7);
#529 = AXIS2_PLACEMENT_3D('',#530,#531,#532);
#530 = CARTESIAN_POINT('',(114.,67.,-34.));
#531 = DIRECTION('',(1.,0.,0.));
#532 = DIRECTION('',(-0.,0.,1.));
#533 = PLANE('',#534);
#534 = AXIS2_PLACEMENT_3D('',#535,#536,#537);
#535 = CARTESIAN_POINT('',(114.,65.185024675465,-36.35467059907));
#536 = DIRECTION('',(1.,0.,0.));
#537 = DIRECTION('',(-0.,0.,1.));
#538 = ADVANCED_FACE('',(#539),#566,.T.);
#539 = FACE_BOUND('',#540,.T.);
#540 = EDGE_LOOP('',(#541,#542,#550,#558,#564,#565));
#541 = ORIENTED_EDGE('',*,*,#368,.F.);
#542 = ORIENTED_EDGE('',*,*,#543,.T.);
#543 = EDGE_CURVE('',#361,#544,#546,.T.);
#544 = VERTEX_POINT('',#545);
#545 = CARTESIAN_POINT('',(99.,56.,-30.));
#546 = LINE('',#547,#548);
#547 = CARTESIAN_POINT('',(96.5,56.,-30.));
#548 = VECTOR('',#549,1.);
#549 = DIRECTION('',(1.,0.,-0.));
#550 = ORIENTED_EDGE('',*,*,#551,.T.);
#551 = EDGE_CURVE('',#544,#552,#554,.T.);
#552 = VERTEX_POINT('',#553);
#553 = CARTESIAN_POINT('',(99.,61.5,-30.));
#554 = LINE('',#555,#556);
#555 = CARTESIAN_POINT('',(99.,56.,-30.));
#556 = VECTOR('',#557,1.);
#557 = DIRECTION('',(-0.,1.,0.));
#558 = ORIENTED_EDGE('',*,*,#559,.T.);
#559 = EDGE_CURVE('',#552,#493,#560,.T.);
#560 = LINE('',#561,#562);
#561 = CARTESIAN_POINT('',(99.,61.5,-30.));
#562 = VECTOR('',#563,1.);
#563 = DIRECTION('',(1.,0.,-0.));
#564 = ORIENTED_EDGE('',*,*,#492,.T.);
#565 = ORIENTED_EDGE('',*,*,#157,.F.);
#566 = PLANE('',#567);
#567 = AXIS2_PLACEMENT_3D('',#568,#569,#570);
#568 = CARTESIAN_POINT('',(103.63235294117,61.617647058824,-30.));
#569 = DIRECTION('',(0.,0.,1.));
#570 = DIRECTION('',(1.,0.,-0.));
#571 = ADVANCED_FACE('',(#572),#578,.T.);
#572 = FACE_BOUND('',#573,.T.);
#573 = EDGE_LOOP('',(#574,#575,#576,#577));
#574 = ORIENTED_EDGE('',*,*,#123,.F.);
#575 = ORIENTED_EDGE('',*,*,#327,.T.);
#576 = ORIENTED_EDGE('',*,*,#277,.T.);
#577 = ORIENTED_EDGE('',*,*,#183,.F.);
#578 = PLANE('',#579);
#579 = AXIS2_PLACEMENT_3D('',#580,#581,#582);
#580 = CARTESIAN_POINT('',(96.5,69.,-34.));
#581 = DIRECTION('',(-0.,1.,0.));
#582 = DIRECTION('',(0.,0.,1.));
#583 = ADVANCED_FACE('',(#584),#611,.F.);
#584 = FACE_BOUND('',#585,.F.);
#585 = EDGE_LOOP('',(#586,#595,#604,#610));
#586 = ORIENTED_EDGE('',*,*,#587,.T.);
#587 = EDGE_CURVE('',#98,#588,#590,.T.);
#588 = VERTEX_POINT('',#589);
#589 = CARTESIAN_POINT('',(97.3,62.,-36.9));
#590 = CIRCLE('',#591,3.1);
#591 = AXIS2_PLACEMENT_3D('',#592,#593,#594);
#592 = CARTESIAN_POINT('',(97.3,62.,-40.));
#593 = DIRECTION('',(1.,0.,0.));
#594 = DIRECTION('',(-0.,0.,1.));
#595 = ORIENTED_EDGE('',*,*,#596,.T.);
#596 = EDGE_CURVE('',#588,#597,#599,.T.);
#597 = VERTEX_POINT('',#598);
#598 = CARTESIAN_POINT('',(97.3,59.631456143535,-38.));
#599 = CIRCLE('',#600,3.1);
#600 = AXIS2_PLACEMENT_3D('',#601,#602,#603);
#601 = CARTESIAN_POINT('',(97.3,62.,-40.));
#602 = DIRECTION('',(1.,0.,0.));
#603 = DIRECTION('',(-0.,0.,1.));
#604 = ORIENTED_EDGE('',*,*,#605,.T.);
#605 = EDGE_CURVE('',#597,#90,#606,.T.);
#606 = LINE('',#607,#608);
#607 = CARTESIAN_POINT('',(97.3,59.,-38.));
#608 = VECTOR('',#609,1.);
#609 = DIRECTION('',(0.,1.,0.));
#610 = ORIENTED_EDGE('',*,*,#97,.T.);
#611 = PLANE('',#612);
#612 = AXIS2_PLACEMENT_3D('',#613,#614,#615);
#613 = CARTESIAN_POINT('',(97.3,62.,-40.));
#614 = DIRECTION('',(1.,0.,0.));
#615 = DIRECTION('',(-0.,0.,1.));
#616 = ADVANCED_FACE('',(#617),#650,.F.);
#617 = FACE_BOUND('',#618,.F.);
#618 = EDGE_LOOP('',(#619,#620,#628,#636,#642,#643,#644));
#619 = ORIENTED_EDGE('',*,*,#352,.F.);
#620 = ORIENTED_EDGE('',*,*,#621,.T.);
#621 = EDGE_CURVE('',#353,#622,#624,.T.);
#622 = VERTEX_POINT('',#623);
#623 = CARTESIAN_POINT('',(99.,56.,-38.));
#624 = LINE('',#625,#626);
#625 = CARTESIAN_POINT('',(96.5,56.,-38.));
#626 = VECTOR('',#627,1.);
#627 = DIRECTION('',(1.,0.,-0.));
#628 = ORIENTED_EDGE('',*,*,#629,.T.);
#629 = EDGE_CURVE('',#622,#630,#632,.T.);
#630 = VERTEX_POINT('',#631);
#631 = CARTESIAN_POINT('',(99.,61.5,-38.));
#632 = LINE('',#633,#634);
#633 = CARTESIAN_POINT('',(99.,56.,-38.));
#634 = VECTOR('',#635,1.);
#635 = DIRECTION('',(-0.,1.,0.));
#636 = ORIENTED_EDGE('',*,*,#637,.T.);
#637 = EDGE_CURVE('',#630,#81,#638,.T.);
#638 = LINE('',#639,#640);
#639 = CARTESIAN_POINT('',(99.,56.,-38.));
#640 = VECTOR('',#641,1.);
#641 = DIRECTION('',(-0.,1.,0.));
#642 = ORIENTED_EDGE('',*,*,#89,.F.);
#643 = ORIENTED_EDGE('',*,*,#605,.F.);
#644 = ORIENTED_EDGE('',*,*,#645,.F.);
#645 = EDGE_CURVE('',#344,#597,#646,.T.);
#646 = LINE('',#647,#648);
#647 = CARTESIAN_POINT('',(96.3,59.631456143535,-38.));
#648 = VECTOR('',#649,1.);
#649 = DIRECTION('',(1.,0.,0.));
#650 = PLANE('',#651);
#651 = AXIS2_PLACEMENT_3D('',#652,#653,#654);
#652 = CARTESIAN_POINT('',(96.5,56.,-38.));
#653 = DIRECTION('',(0.,0.,1.));
#654 = DIRECTION('',(1.,0.,-0.));
#655 = ADVANCED_FACE('',(#656),#707,.T.);
#656 = FACE_BOUND('',#657,.T.);
#657 = EDGE_LOOP('',(#658,#668,#674,#675,#676,#684,#693,#701));
#658 = ORIENTED_EDGE('',*,*,#659,.T.);
#659 = EDGE_CURVE('',#660,#662,#664,.T.);
#660 = VERTEX_POINT('',#661);
#661 = CARTESIAN_POINT('',(99.,56.,-43.));
#662 = VERTEX_POINT('',#663);
#663 = CARTESIAN_POINT('',(99.,61.5,-43.));
#664 = LINE('',#665,#666);
#665 = CARTESIAN_POINT('',(99.,56.,-43.));
#666 = VECTOR('',#667,1.);
#667 = DIRECTION('',(-0.,1.,0.));
#668 = ORIENTED_EDGE('',*,*,#669,.T.);
#669 = EDGE_CURVE('',#662,#630,#670,.T.);
#670 = LINE('',#671,#672);
#671 = CARTESIAN_POINT('',(99.,61.5,-44.5));
#672 = VECTOR('',#673,1.);
#673 = DIRECTION('',(0.,0.,1.));
#674 = ORIENTED_EDGE('',*,*,#637,.T.);
#675 = ORIENTED_EDGE('',*,*,#80,.T.);
#676 = ORIENTED_EDGE('',*,*,#677,.F.);
#677 = EDGE_CURVE('',#678,#73,#680,.T.);
#678 = VERTEX_POINT('',#679);
#679 = CARTESIAN_POINT('',(99.,64.5,-40.71518645886));
#680 = LINE('',#681,#682);
#681 = CARTESIAN_POINT('',(99.,64.5,-44.5));
#682 = VECTOR('',#683,1.);
#683 = DIRECTION('',(0.,0.,1.));
#684 = ORIENTED_EDGE('',*,*,#685,.T.);
#685 = EDGE_CURVE('',#678,#686,#688,.T.);
#686 = VERTEX_POINT('',#687);
#687 = CARTESIAN_POINT('',(99.,63.226112695088,-44.5));
#688 = CIRCLE('',#689,4.8);
#689 = AXIS2_PLACEMENT_3D('',#690,#691,#692);
#690 = CARTESIAN_POINT('',(99.,68.,-44.));
#691 = DIRECTION('',(1.,0.,0.));
#692 = DIRECTION('',(-0.,0.,1.));
#693 = ORIENTED_EDGE('',*,*,#694,.F.);
#694 = EDGE_CURVE('',#695,#686,#697,.T.);
#695 = VERTEX_POINT('',#696);
#696 = CARTESIAN_POINT('',(99.,56.,-44.5));
#697 = LINE('',#698,#699);
#698 = CARTESIAN_POINT('',(99.,61.5,-44.5));
#699 = VECTOR('',#700,1.);
#700 = DIRECTION('',(-0.,1.,0.));
#701 = ORIENTED_EDGE('',*,*,#702,.T.);
#702 = EDGE_CURVE('',#695,#660,#703,.T.);
#703 = LINE('',#704,#705);
#704 = CARTESIAN_POINT('',(99.,56.,-44.5));
#705 = VECTOR('',#706,1.);
#706 = DIRECTION('',(0.,0.,1.));
#707 = PLANE('',#708);
#708 = AXIS2_PLACEMENT_3D('',#709,#710,#711);
#709 = CARTESIAN_POINT('',(99.,61.139945320928,-42.20053323033));
#710 = DIRECTION('',(-1.,-0.,-0.));
#711 = DIRECTION('',(0.,0.,-1.));
#712 = ADVANCED_FACE('',(#713),#724,.T.);
#713 = FACE_BOUND('',#714,.T.);
#714 = EDGE_LOOP('',(#715,#721,#722,#723));
#715 = ORIENTED_EDGE('',*,*,#716,.F.);
#716 = EDGE_CURVE('',#678,#483,#717,.T.);
#717 = LINE('',#718,#719);
#718 = CARTESIAN_POINT('',(96.3,64.5,-40.71518645886));
#719 = VECTOR('',#720,1.);
#720 = DIRECTION('',(1.,0.,0.));
#721 = ORIENTED_EDGE('',*,*,#677,.T.);
#722 = ORIENTED_EDGE('',*,*,#72,.T.);
#723 = ORIENTED_EDGE('',*,*,#482,.F.);
#724 = PLANE('',#725);
#725 = AXIS2_PLACEMENT_3D('',#726,#727,#728);
#726 = CARTESIAN_POINT('',(99.,64.5,-44.5));
#727 = DIRECTION('',(-0.,1.,0.));
#728 = DIRECTION('',(0.,0.,1.));
#729 = ADVANCED_FACE('',(#730),#756,.T.);
#730 = FACE_BOUND('',#731,.T.);
#731 = EDGE_LOOP('',(#732,#733,#741,#749,#755));
#732 = ORIENTED_EDGE('',*,*,#319,.F.);
#733 = ORIENTED_EDGE('',*,*,#734,.T.);
#734 = EDGE_CURVE('',#312,#735,#737,.T.);
#735 = VERTEX_POINT('',#736);
#736 = CARTESIAN_POINT('',(99.,56.,30.));
#737 = LINE('',#738,#739);
#738 = CARTESIAN_POINT('',(96.5,56.,30.));
#739 = VECTOR('',#740,1.);
#740 = DIRECTION('',(1.,0.,-0.));
#741 = ORIENTED_EDGE('',*,*,#742,.T.);
#742 = EDGE_CURVE('',#735,#743,#745,.T.);
#743 = VERTEX_POINT('',#744);
#744 = CARTESIAN_POINT('',(99.,61.5,30.));
#745 = LINE('',#746,#747);
#746 = CARTESIAN_POINT('',(99.,56.,30.));
#747 = VECTOR('',#748,1.);
#748 = DIRECTION('',(-0.,1.,0.));
#749 = ORIENTED_EDGE('',*,*,#750,.T.);
#750 = EDGE_CURVE('',#743,#218,#751,.T.);
#751 = LINE('',#752,#753);
#752 = CARTESIAN_POINT('',(99.,56.,30.));
#753 = VECTOR('',#754,1.);
#754 = DIRECTION('',(-0.,1.,0.));
#755 = ORIENTED_EDGE('',*,*,#217,.F.);
#756 = PLANE('',#757);
#757 = AXIS2_PLACEMENT_3D('',#758,#759,#760);
#758 = CARTESIAN_POINT('',(96.5,56.,30.));
#759 = DIRECTION('',(0.,0.,1.));
#760 = DIRECTION('',(1.,0.,-0.));
#761 = ADVANCED_FACE('',(#762),#804,.T.);
#762 = FACE_BOUND('',#763,.T.);
#763 = EDGE_LOOP('',(#764,#772,#780,#788,#796,#802,#803));
#764 = ORIENTED_EDGE('',*,*,#765,.T.);
#765 = EDGE_CURVE('',#743,#766,#768,.T.);
#766 = VERTEX_POINT('',#767);
#767 = CARTESIAN_POINT('',(99.,61.5,35.5));
#768 = LINE('',#769,#770);
#769 = CARTESIAN_POINT('',(99.,61.5,22.));
#770 = VECTOR('',#771,1.);
#771 = DIRECTION('',(0.,0.,1.));
#772 = ORIENTED_EDGE('',*,*,#773,.F.);
#773 = EDGE_CURVE('',#774,#766,#776,.T.);
#774 = VERTEX_POINT('',#775);
#775 = CARTESIAN_POINT('',(99.,56.,35.5));
#776 = LINE('',#777,#778);
#777 = CARTESIAN_POINT('',(99.,56.,35.5));
#778 = VECTOR('',#779,1.);
#779 = DIRECTION('',(-0.,1.,0.));
#780 = ORIENTED_EDGE('',*,*,#781,.T.);
#781 = EDGE_CURVE('',#774,#782,#784,.T.);
#782 = VERTEX_POINT('',#783);
#783 = CARTESIAN_POINT('',(99.,56.,37.));
#784 = LINE('',#785,#786);
#785 = CARTESIAN_POINT('',(99.,56.,35.5));
#786 = VECTOR('',#787,1.);
#787 = DIRECTION('',(0.,0.,1.));
#788 = ORIENTED_EDGE('',*,*,#789,.T.);
#789 = EDGE_CURVE('',#782,#790,#792,.T.);
#790 = VERTEX_POINT('',#791);
#791 = CARTESIAN_POINT('',(99.,64.5,37.));
#792 = LINE('',#793,#794);
#793 = CARTESIAN_POINT('',(99.,56.,37.));
#794 = VECTOR('',#795,1.);
#795 = DIRECTION('',(-0.,1.,0.));
#796 = ORIENTED_EDGE('',*,*,#797,.F.);
#797 = EDGE_CURVE('',#226,#790,#798,.T.);
#798 = LINE('',#799,#800);
#799 = CARTESIAN_POINT('',(99.,64.5,22.));
#800 = VECTOR('',#801,1.);
#801 = DIRECTION('',(0.,0.,1.));
#802 = ORIENTED_EDGE('',*,*,#225,.T.);
#803 = ORIENTED_EDGE('',*,*,#750,.F.);
#804 = PLANE('',#805);
#805 = AXIS2_PLACEMENT_3D('',#806,#807,#808);
#806 = CARTESIAN_POINT('',(99.,61.200396874071,34.510889750716));
#807 = DIRECTION('',(-1.,-0.,-0.));
#808 = DIRECTION('',(0.,0.,-1.));
#809 = ADVANCED_FACE('',(#810),#828,.T.);
#810 = FACE_BOUND('',#811,.T.);
#811 = EDGE_LOOP('',(#812,#820,#821,#822));
#812 = ORIENTED_EDGE('',*,*,#813,.F.);
#813 = EDGE_CURVE('',#235,#814,#816,.T.);
#814 = VERTEX_POINT('',#815);
#815 = CARTESIAN_POINT('',(114.,64.5,37.));
#816 = LINE('',#817,#818);
#817 = CARTESIAN_POINT('',(114.,64.5,22.));
#818 = VECTOR('',#819,1.);
#819 = DIRECTION('',(0.,0.,1.));
#820 = ORIENTED_EDGE('',*,*,#234,.F.);
#821 = ORIENTED_EDGE('',*,*,#797,.T.);
#822 = ORIENTED_EDGE('',*,*,#823,.T.);
#823 = EDGE_CURVE('',#790,#814,#824,.T.);
#824 = LINE('',#825,#826);
#825 = CARTESIAN_POINT('',(99.,64.5,37.));
#826 = VECTOR('',#827,1.);
#827 = DIRECTION('',(1.,0.,-0.));
#828 = PLANE('',#829);
#829 = AXIS2_PLACEMENT_3D('',#830,#831,#832);
#830 = CARTESIAN_POINT('',(99.,64.5,22.));
#831 = DIRECTION('',(-0.,1.,0.));
#832 = DIRECTION('',(0.,0.,1.));
#833 = ADVANCED_FACE('',(#834,#861),#872,.T.);
#834 = FACE_BOUND('',#835,.T.);
#835 = EDGE_LOOP('',(#836,#837,#838,#839,#847,#855));
#836 = ORIENTED_EDGE('',*,*,#251,.T.);
#837 = ORIENTED_EDGE('',*,*,#242,.T.);
#838 = ORIENTED_EDGE('',*,*,#813,.T.);
#839 = ORIENTED_EDGE('',*,*,#840,.F.);
#840 = EDGE_CURVE('',#841,#814,#843,.T.);
#841 = VERTEX_POINT('',#842);
#842 = CARTESIAN_POINT('',(114.,61.5,37.));
#843 = LINE('',#844,#845);
#844 = CARTESIAN_POINT('',(114.,61.5,37.));
#845 = VECTOR('',#846,1.);
#846 = DIRECTION('',(-0.,1.,0.));
#847 = ORIENTED_EDGE('',*,*,#848,.F.);
#848 = EDGE_CURVE('',#849,#841,#851,.T.);
#849 = VERTEX_POINT('',#850);
#850 = CARTESIAN_POINT('',(114.,61.5,22.));
#851 = LINE('',#852,#853);
#852 = CARTESIAN_POINT('',(114.,61.5,22.));
#853 = VECTOR('',#854,1.);
#854 = DIRECTION('',(0.,0.,1.));
#855 = ORIENTED_EDGE('',*,*,#856,.T.);
#856 = EDGE_CURVE('',#849,#252,#857,.T.);
#857 = LINE('',#858,#859);
#858 = CARTESIAN_POINT('',(114.,61.5,22.));
#859 = VECTOR('',#860,1.);
#860 = DIRECTION('',(-0.,1.,0.));
#861 = FACE_BOUND('',#862,.T.);
#862 = EDGE_LOOP('',(#863));
#863 = ORIENTED_EDGE('',*,*,#864,.F.);
#864 = EDGE_CURVE('',#865,#865,#867,.T.);
#865 = VERTEX_POINT('',#866);
#866 = CARTESIAN_POINT('',(114.,67.,27.7));
#867 = CIRCLE('',#868,1.7);
#868 = AXIS2_PLACEMENT_3D('',#869,#870,#871);
#869 = CARTESIAN_POINT('',(114.,67.,26.));
#870 = DIRECTION('',(1.,0.,0.));
#871 = DIRECTION('',(-0.,0.,1.));
#872 = PLANE('',#873);
#873 = AXIS2_PLACEMENT_3D('',#874,#875,#876);
#874 = CARTESIAN_POINT('',(114.,65.129768486184,28.674093699745));
#875 = DIRECTION('',(1.,0.,0.));
#876 = DIRECTION('',(-0.,0.,1.));
#877 = ADVANCED_FACE('',(#878),#905,.T.);
#878 = FACE_BOUND('',#879,.T.);
#879 = EDGE_LOOP('',(#880,#881,#882,#883,#891,#899));
#880 = ORIENTED_EDGE('',*,*,#303,.T.);
#881 = ORIENTED_EDGE('',*,*,#260,.T.);
#882 = ORIENTED_EDGE('',*,*,#856,.F.);
#883 = ORIENTED_EDGE('',*,*,#884,.F.);
#884 = EDGE_CURVE('',#885,#849,#887,.T.);
#885 = VERTEX_POINT('',#886);
#886 = CARTESIAN_POINT('',(99.,61.5,22.));
#887 = LINE('',#888,#889);
#888 = CARTESIAN_POINT('',(99.,61.5,22.));
#889 = VECTOR('',#890,1.);
#890 = DIRECTION('',(1.,0.,-0.));
#891 = ORIENTED_EDGE('',*,*,#892,.F.);
#892 = EDGE_CURVE('',#893,#885,#895,.T.);
#893 = VERTEX_POINT('',#894);
#894 = CARTESIAN_POINT('',(99.,56.,22.));
#895 = LINE('',#896,#897);
#896 = CARTESIAN_POINT('',(99.,56.,22.));
#897 = VECTOR('',#898,1.);
#898 = DIRECTION('',(-0.,1.,0.));
#899 = ORIENTED_EDGE('',*,*,#900,.F.);
#900 = EDGE_CURVE('',#304,#893,#901,.T.);
#901 = LINE('',#902,#903);
#902 = CARTESIAN_POINT('',(96.5,56.,22.));
#903 = VECTOR('',#904,1.);
#904 = DIRECTION('',(1.,0.,-0.));
#905 = PLANE('',#906);
#906 = AXIS2_PLACEMENT_3D('',#907,#908,#909);
#907 = CARTESIAN_POINT('',(103.63235294117,61.617647058824,22.));
#908 = DIRECTION('',(-0.,-0.,-1.));
#909 = DIRECTION('',(-1.,0.,0.));
#910 = ADVANCED_FACE('',(#911),#922,.F.);
#911 = FACE_BOUND('',#912,.F.);
#912 = EDGE_LOOP('',(#913,#914,#915,#916));
#913 = ORIENTED_EDGE('',*,*,#621,.F.);
#914 = ORIENTED_EDGE('',*,*,#360,.T.);
#915 = ORIENTED_EDGE('',*,*,#543,.T.);
#916 = ORIENTED_EDGE('',*,*,#917,.F.);
#917 = EDGE_CURVE('',#622,#544,#918,.T.);
#918 = LINE('',#919,#920);
#919 = CARTESIAN_POINT('',(99.,56.,-38.));
#920 = VECTOR('',#921,1.);
#921 = DIRECTION('',(0.,0.,1.));
#922 = PLANE('',#923);
#923 = AXIS2_PLACEMENT_3D('',#924,#925,#926);
#924 = CARTESIAN_POINT('',(96.5,56.,-38.));
#925 = DIRECTION('',(-0.,1.,0.));
#926 = DIRECTION('',(0.,0.,1.));
#927 = ADVANCED_FACE('',(#928),#939,.F.);
#928 = FACE_BOUND('',#929,.F.);
#929 = EDGE_LOOP('',(#930,#931,#932,#933));
#930 = ORIENTED_EDGE('',*,*,#900,.F.);
#931 = ORIENTED_EDGE('',*,*,#311,.T.);
#932 = ORIENTED_EDGE('',*,*,#734,.T.);
#933 = ORIENTED_EDGE('',*,*,#934,.F.);
#934 = EDGE_CURVE('',#893,#735,#935,.T.);
#935 = LINE('',#936,#937);
#936 = CARTESIAN_POINT('',(99.,56.,22.));
#937 = VECTOR('',#938,1.);
#938 = DIRECTION('',(0.,0.,1.));
#939 = PLANE('',#940);
#940 = AXIS2_PLACEMENT_3D('',#941,#942,#943);
#941 = CARTESIAN_POINT('',(96.5,56.,22.));
#942 = DIRECTION('',(-0.,1.,0.));
#943 = DIRECTION('',(0.,0.,1.));
#944 = ADVANCED_FACE('',(#945),#970,.T.);
#945 = FACE_BOUND('',#946,.T.);
#946 = EDGE_LOOP('',(#947,#948,#956,#964));
#947 = ORIENTED_EDGE('',*,*,#376,.F.);
#948 = ORIENTED_EDGE('',*,*,#949,.T.);
#949 = EDGE_CURVE('',#377,#950,#952,.T.);
#950 = VERTEX_POINT('',#951);
#951 = CARTESIAN_POINT('',(99.,69.9,-35.67431578065));
#952 = LINE('',#953,#954);
#953 = CARTESIAN_POINT('',(96.3,69.9,-35.67431578065));
#954 = VECTOR('',#955,1.);
#955 = DIRECTION('',(1.,0.,0.));
#956 = ORIENTED_EDGE('',*,*,#957,.T.);
#957 = EDGE_CURVE('',#950,#958,#960,.T.);
#958 = VERTEX_POINT('',#959);
#959 = CARTESIAN_POINT('',(99.,69.9,-32.32568421935));
#960 = LINE('',#961,#962);
#961 = CARTESIAN_POINT('',(99.,69.9,-35.67431578065));
#962 = VECTOR('',#963,1.);
#963 = DIRECTION('',(0.,0.,1.));
#964 = ORIENTED_EDGE('',*,*,#965,.F.);
#965 = EDGE_CURVE('',#379,#958,#966,.T.);
#966 = LINE('',#967,#968);
#967 = CARTESIAN_POINT('',(96.3,69.9,-32.32568421935));
#968 = VECTOR('',#969,1.);
#969 = DIRECTION('',(1.,0.,0.));
#970 = PLANE('',#971);
#971 = AXIS2_PLACEMENT_3D('',#972,#973,#974);
#972 = CARTESIAN_POINT('',(96.3,69.9,-35.67431578065));
#973 = DIRECTION('',(0.,-1.,0.));
#974 = DIRECTION('',(0.,0.,1.));
#975 = ADVANCED_FACE('',(#976),#994,.T.);
#976 = FACE_BOUND('',#977,.T.);
#977 = EDGE_LOOP('',(#978,#979,#987,#993));
#978 = ORIENTED_EDGE('',*,*,#418,.F.);
#979 = ORIENTED_EDGE('',*,*,#980,.T.);
#980 = EDGE_CURVE('',#411,#981,#983,.T.);
#981 = VERTEX_POINT('',#982);
#982 = CARTESIAN_POINT('',(99.,67.,-37.3486315613));
#983 = LINE('',#984,#985);
#984 = CARTESIAN_POINT('',(96.3,67.,-37.3486315613));
#985 = VECTOR('',#986,1.);
#986 = DIRECTION('',(1.,0.,0.));
#987 = ORIENTED_EDGE('',*,*,#988,.T.);
#988 = EDGE_CURVE('',#981,#950,#989,.T.);
#989 = LINE('',#990,#991);
#990 = CARTESIAN_POINT('',(99.,67.,-37.3486315613));
#991 = VECTOR('',#992,1.);
#992 = DIRECTION('',(0.,0.866025403784,0.5));
#993 = ORIENTED_EDGE('',*,*,#949,.F.);
#994 = PLANE('',#995);
#995 = AXIS2_PLACEMENT_3D('',#996,#997,#998);
#996 = CARTESIAN_POINT('',(96.3,67.,-37.3486315613));
#997 = DIRECTION('',(0.,-0.5,0.866025403784));
#998 = DIRECTION('',(0.,0.866025403784,0.5));
#999 = ADVANCED_FACE('',(#1000),#1018,.T.);
#1000 = FACE_BOUND('',#1001,.T.);
#1001 = EDGE_LOOP('',(#1002,#1003,#1011,#1017));
#1002 = ORIENTED_EDGE('',*,*,#410,.F.);
#1003 = ORIENTED_EDGE('',*,*,#1004,.T.);
#1004 = EDGE_CURVE('',#403,#1005,#1007,.T.);
#1005 = VERTEX_POINT('',#1006);
#1006 = CARTESIAN_POINT('',(99.,64.1,-35.67431578065));
#1007 = LINE('',#1008,#1009);
#1008 = CARTESIAN_POINT('',(96.3,64.1,-35.67431578065));
#1009 = VECTOR('',#1010,1.);
#1010 = DIRECTION('',(1.,0.,0.));
#1011 = ORIENTED_EDGE('',*,*,#1012,.T.);
#1012 = EDGE_CURVE('',#1005,#981,#1013,.T.);
#1013 = LINE('',#1014,#1015);
#1014 = CARTESIAN_POINT('',(99.,64.1,-35.67431578065));
#1015 = VECTOR('',#1016,1.);
#1016 = DIRECTION('',(0.,0.866025403784,-0.5));
#1017 = ORIENTED_EDGE('',*,*,#980,.F.);
#1018 = PLANE('',#1019);
#1019 = AXIS2_PLACEMENT_3D('',#1020,#1021,#1022);
#1020 = CARTESIAN_POINT('',(96.3,64.1,-35.67431578065));
#1021 = DIRECTION('',(-0.,0.5,0.866025403784));
#1022 = DIRECTION('',(0.,0.866025403784,-0.5));
#1023 = ADVANCED_FACE('',(#1024),#1042,.T.);
#1024 = FACE_BOUND('',#1025,.T.);
#1025 = EDGE_LOOP('',(#1026,#1027,#1035,#1041));
#1026 = ORIENTED_EDGE('',*,*,#402,.F.);
#1027 = ORIENTED_EDGE('',*,*,#1028,.T.);
#1028 = EDGE_CURVE('',#395,#1029,#1031,.T.);
#1029 = VERTEX_POINT('',#1030);
#1030 = CARTESIAN_POINT('',(99.,64.1,-32.32568421935));
#1031 = LINE('',#1032,#1033);
#1032 = CARTESIAN_POINT('',(96.3,64.1,-32.32568421935));
#1033 = VECTOR('',#1034,1.);
#1034 = DIRECTION('',(1.,0.,0.));
#1035 = ORIENTED_EDGE('',*,*,#1036,.T.);
#1036 = EDGE_CURVE('',#1029,#1005,#1037,.T.);
#1037 = LINE('',#1038,#1039);
#1038 = CARTESIAN_POINT('',(99.,64.1,-32.32568421935));
#1039 = VECTOR('',#1040,1.);
#1040 = DIRECTION('',(0.,0.,-1.));
#1041 = ORIENTED_EDGE('',*,*,#1004,.F.);
#1042 = PLANE('',#1043);
#1043 = AXIS2_PLACEMENT_3D('',#1044,#1045,#1046);
#1044 = CARTESIAN_POINT('',(96.3,64.1,-32.32568421935));
#1045 = DIRECTION('',(-0.,1.,0.));
#1046 = DIRECTION('',(0.,0.,-1.));
#1047 = ADVANCED_FACE('',(#1048),#1066,.T.);
#1048 = FACE_BOUND('',#1049,.T.);
#1049 = EDGE_LOOP('',(#1050,#1051,#1059,#1065));
#1050 = ORIENTED_EDGE('',*,*,#394,.F.);
#1051 = ORIENTED_EDGE('',*,*,#1052,.T.);
#1052 = EDGE_CURVE('',#387,#1053,#1055,.T.);
#1053 = VERTEX_POINT('',#1054);
#1054 = CARTESIAN_POINT('',(99.,67.,-30.6513684387));
#1055 = LINE('',#1056,#1057);
#1056 = CARTESIAN_POINT('',(96.3,67.,-30.6513684387));
#1057 = VECTOR('',#1058,1.);
#1058 = DIRECTION('',(1.,0.,0.));
#1059 = ORIENTED_EDGE('',*,*,#1060,.T.);
#1060 = EDGE_CURVE('',#1053,#1029,#1061,.T.);
#1061 = LINE('',#1062,#1063);
#1062 = CARTESIAN_POINT('',(99.,67.,-30.6513684387));
#1063 = VECTOR('',#1064,1.);
#1064 = DIRECTION('',(0.,-0.866025403784,-0.5));
#1065 = ORIENTED_EDGE('',*,*,#1028,.F.);
#1066 = PLANE('',#1067);
#1067 = AXIS2_PLACEMENT_3D('',#1068,#1069,#1070);
#1068 = CARTESIAN_POINT('',(96.3,67.,-30.6513684387));
#1069 = DIRECTION('',(0.,0.5,-0.866025403784));
#1070 = DIRECTION('',(0.,-0.866025403784,-0.5));
#1071 = ADVANCED_FACE('',(#1072),#1083,.T.);
#1072 = FACE_BOUND('',#1073,.T.);
#1073 = EDGE_LOOP('',(#1074,#1075,#1076,#1082));
#1074 = ORIENTED_EDGE('',*,*,#386,.F.);
#1075 = ORIENTED_EDGE('',*,*,#965,.T.);
#1076 = ORIENTED_EDGE('',*,*,#1077,.T.);
#1077 = EDGE_CURVE('',#958,#1053,#1078,.T.);
#1078 = LINE('',#1079,#1080);
#1079 = CARTESIAN_POINT('',(99.,69.9,-32.32568421935));
#1080 = VECTOR('',#1081,1.);
#1081 = DIRECTION('',(0.,-0.866025403784,0.5));
#1082 = ORIENTED_EDGE('',*,*,#1052,.F.);
#1083 = PLANE('',#1084);
#1084 = AXIS2_PLACEMENT_3D('',#1085,#1086,#1087);
#1085 = CARTESIAN_POINT('',(96.3,69.9,-32.32568421935));
#1086 = DIRECTION('',(0.,-0.5,-0.866025403784));
#1087 = DIRECTION('',(0.,-0.866025403784,0.5));
#1088 = ADVANCED_FACE('',(#1089),#1114,.T.);
#1089 = FACE_BOUND('',#1090,.T.);
#1090 = EDGE_LOOP('',(#1091,#1092,#1100,#1108));
#1091 = ORIENTED_EDGE('',*,*,#426,.F.);
#1092 = ORIENTED_EDGE('',*,*,#1093,.T.);
#1093 = EDGE_CURVE('',#427,#1094,#1096,.T.);
#1094 = VERTEX_POINT('',#1095);
#1095 = CARTESIAN_POINT('',(99.,69.9,24.32568421935));
#1096 = LINE('',#1097,#1098);
#1097 = CARTESIAN_POINT('',(96.3,69.9,24.32568421935));
#1098 = VECTOR('',#1099,1.);
#1099 = DIRECTION('',(1.,0.,0.));
#1100 = ORIENTED_EDGE('',*,*,#1101,.T.);
#1101 = EDGE_CURVE('',#1094,#1102,#1104,.T.);
#1102 = VERTEX_POINT('',#1103);
#1103 = CARTESIAN_POINT('',(99.,69.9,27.67431578065));
#1104 = LINE('',#1105,#1106);
#1105 = CARTESIAN_POINT('',(99.,69.9,24.32568421935));
#1106 = VECTOR('',#1107,1.);
#1107 = DIRECTION('',(0.,0.,1.));
#1108 = ORIENTED_EDGE('',*,*,#1109,.F.);
#1109 = EDGE_CURVE('',#429,#1102,#1110,.T.);
#1110 = LINE('',#1111,#1112);
#1111 = CARTESIAN_POINT('',(96.3,69.9,27.67431578065));
#1112 = VECTOR('',#1113,1.);
#1113 = DIRECTION('',(1.,0.,0.));
#1114 = PLANE('',#1115);
#1115 = AXIS2_PLACEMENT_3D('',#1116,#1117,#1118);
#1116 = CARTESIAN_POINT('',(96.3,69.9,24.32568421935));
#1117 = DIRECTION('',(0.,-1.,0.));
#1118 = DIRECTION('',(0.,0.,1.));
#1119 = ADVANCED_FACE('',(#1120),#1138,.T.);
#1120 = FACE_BOUND('',#1121,.T.);
#1121 = EDGE_LOOP('',(#1122,#1123,#1131,#1137));
#1122 = ORIENTED_EDGE('',*,*,#468,.F.);
#1123 = ORIENTED_EDGE('',*,*,#1124,.T.);
#1124 = EDGE_CURVE('',#461,#1125,#1127,.T.);
#1125 = VERTEX_POINT('',#1126);
#1126 = CARTESIAN_POINT('',(99.,67.,22.6513684387));
#1127 = LINE('',#1128,#1129);
#1128 = CARTESIAN_POINT('',(96.3,67.,22.6513684387));
#1129 = VECTOR('',#1130,1.);
#1130 = DIRECTION('',(1.,0.,0.));
#1131 = ORIENTED_EDGE('',*,*,#1132,.T.);
#1132 = EDGE_CURVE('',#1125,#1094,#1133,.T.);
#1133 = LINE('',#1134,#1135);
#1134 = CARTESIAN_POINT('',(99.,67.,22.6513684387));
#1135 = VECTOR('',#1136,1.);
#1136 = DIRECTION('',(0.,0.866025403784,0.5));
#1137 = ORIENTED_EDGE('',*,*,#1093,.F.);
#1138 = PLANE('',#1139);
#1139 = AXIS2_PLACEMENT_3D('',#1140,#1141,#1142);
#1140 = CARTESIAN_POINT('',(96.3,67.,22.6513684387));
#1141 = DIRECTION('',(0.,-0.5,0.866025403784));
#1142 = DIRECTION('',(0.,0.866025403784,0.5));
#1143 = ADVANCED_FACE('',(#1144),#1162,.T.);
#1144 = FACE_BOUND('',#1145,.T.);
#1145 = EDGE_LOOP('',(#1146,#1147,#1155,#1161));
#1146 = ORIENTED_EDGE('',*,*,#460,.F.);
#1147 = ORIENTED_EDGE('',*,*,#1148,.T.);
#1148 = EDGE_CURVE('',#453,#1149,#1151,.T.);
#1149 = VERTEX_POINT('',#1150);
#1150 = CARTESIAN_POINT('',(99.,64.1,24.32568421935));
#1151 = LINE('',#1152,#1153);
#1152 = CARTESIAN_POINT('',(96.3,64.1,24.32568421935));
#1153 = VECTOR('',#1154,1.);
#1154 = DIRECTION('',(1.,0.,0.));
#1155 = ORIENTED_EDGE('',*,*,#1156,.T.);
#1156 = EDGE_CURVE('',#1149,#1125,#1157,.T.);
#1157 = LINE('',#1158,#1159);
#1158 = CARTESIAN_POINT('',(99.,64.1,24.32568421935));
#1159 = VECTOR('',#1160,1.);
#1160 = DIRECTION('',(0.,0.866025403784,-0.5));
#1161 = ORIENTED_EDGE('',*,*,#1124,.F.);
#1162 = PLANE('',#1163);
#1163 = AXIS2_PLACEMENT_3D('',#1164,#1165,#1166);
#1164 = CARTESIAN_POINT('',(96.3,64.1,24.32568421935));
#1165 = DIRECTION('',(-0.,0.5,0.866025403784));
#1166 = DIRECTION('',(0.,0.866025403784,-0.5));
#1167 = ADVANCED_FACE('',(#1168),#1186,.T.);
#1168 = FACE_BOUND('',#1169,.T.);
#1169 = EDGE_LOOP('',(#1170,#1171,#1179,#1185));
#1170 = ORIENTED_EDGE('',*,*,#452,.F.);
#1171 = ORIENTED_EDGE('',*,*,#1172,.T.);
#1172 = EDGE_CURVE('',#445,#1173,#1175,.T.);
#1173 = VERTEX_POINT('',#1174);
#1174 = CARTESIAN_POINT('',(99.,64.1,27.67431578065));
#1175 = LINE('',#1176,#1177);
#1176 = CARTESIAN_POINT('',(96.3,64.1,27.67431578065));
#1177 = VECTOR('',#1178,1.);
#1178 = DIRECTION('',(1.,0.,0.));
#1179 = ORIENTED_EDGE('',*,*,#1180,.T.);
#1180 = EDGE_CURVE('',#1173,#1149,#1181,.T.);
#1181 = LINE('',#1182,#1183);
#1182 = CARTESIAN_POINT('',(99.,64.1,27.67431578065));
#1183 = VECTOR('',#1184,1.);
#1184 = DIRECTION('',(0.,0.,-1.));
#1185 = ORIENTED_EDGE('',*,*,#1148,.F.);
#1186 = PLANE('',#1187);
#1187 = AXIS2_PLACEMENT_3D('',#1188,#1189,#1190);
#1188 = CARTESIAN_POINT('',(96.3,64.1,27.67431578065));
#1189 = DIRECTION('',(-0.,1.,0.));
#1190 = DIRECTION('',(0.,0.,-1.));
#1191 = ADVANCED_FACE('',(#1192),#1210,.T.);
#1192 = FACE_BOUND('',#1193,.T.);
#1193 = EDGE_LOOP('',(#1194,#1195,#1203,#1209));
#1194 = ORIENTED_EDGE('',*,*,#444,.F.);
#1195 = ORIENTED_EDGE('',*,*,#1196,.T.);
#1196 = EDGE_CURVE('',#437,#1197,#1199,.T.);
#1197 = VERTEX_POINT('',#1198);
#1198 = CARTESIAN_POINT('',(99.,67.,29.3486315613));
#1199 = LINE('',#1200,#1201);
#1200 = CARTESIAN_POINT('',(96.3,67.,29.3486315613));
#1201 = VECTOR('',#1202,1.);
#1202 = DIRECTION('',(1.,0.,0.));
#1203 = ORIENTED_EDGE('',*,*,#1204,.T.);
#1204 = EDGE_CURVE('',#1197,#1173,#1205,.T.);
#1205 = LINE('',#1206,#1207);
#1206 = CARTESIAN_POINT('',(99.,67.,29.3486315613));
#1207 = VECTOR('',#1208,1.);
#1208 = DIRECTION('',(0.,-0.866025403784,-0.5));
#1209 = ORIENTED_EDGE('',*,*,#1172,.F.);
#1210 = PLANE('',#1211);
#1211 = AXIS2_PLACEMENT_3D('',#1212,#1213,#1214);
#1212 = CARTESIAN_POINT('',(96.3,67.,29.3486315613));
#1213 = DIRECTION('',(0.,0.5,-0.866025403784));
#1214 = DIRECTION('',(0.,-0.866025403784,-0.5));
#1215 = ADVANCED_FACE('',(#1216),#1227,.T.);
#1216 = FACE_BOUND('',#1217,.T.);
#1217 = EDGE_LOOP('',(#1218,#1219,#1220,#1226));
#1218 = ORIENTED_EDGE('',*,*,#436,.F.);
#1219 = ORIENTED_EDGE('',*,*,#1109,.T.);
#1220 = ORIENTED_EDGE('',*,*,#1221,.T.);
#1221 = EDGE_CURVE('',#1102,#1197,#1222,.T.);
#1222 = LINE('',#1223,#1224);
#1223 = CARTESIAN_POINT('',(99.,69.9,27.67431578065));
#1224 = VECTOR('',#1225,1.);
#1225 = DIRECTION('',(0.,-0.866025403784,0.5));
#1226 = ORIENTED_EDGE('',*,*,#1196,.F.);
#1227 = PLANE('',#1228);
#1228 = AXIS2_PLACEMENT_3D('',#1229,#1230,#1231);
#1229 = CARTESIAN_POINT('',(96.3,69.9,27.67431578065));
#1230 = DIRECTION('',(0.,-0.5,-0.866025403784));
#1231 = DIRECTION('',(0.,-0.866025403784,0.5));
#1232 = ADVANCED_FACE('',(#1233),#1244,.F.);
#1233 = FACE_BOUND('',#1234,.F.);
#1234 = EDGE_LOOP('',(#1235,#1236,#1237,#1238));
#1235 = ORIENTED_EDGE('',*,*,#516,.F.);
#1236 = ORIENTED_EDGE('',*,*,#716,.F.);
#1237 = ORIENTED_EDGE('',*,*,#685,.T.);
#1238 = ORIENTED_EDGE('',*,*,#1239,.T.);
#1239 = EDGE_CURVE('',#686,#509,#1240,.T.);
#1240 = LINE('',#1241,#1242);
#1241 = CARTESIAN_POINT('',(96.3,63.226112695088,-44.5));
#1242 = VECTOR('',#1243,1.);
#1243 = DIRECTION('',(1.,0.,0.));
#1244 = CYLINDRICAL_SURFACE('',#1245,4.8);
#1245 = AXIS2_PLACEMENT_3D('',#1246,#1247,#1248);
#1246 = CARTESIAN_POINT('',(96.3,68.,-44.));
#1247 = DIRECTION('',(1.,0.,0.));
#1248 = DIRECTION('',(-0.,0.,1.));
#1249 = ADVANCED_FACE('',(#1250),#1277,.T.);
#1250 = FACE_BOUND('',#1251,.T.);
#1251 = EDGE_LOOP('',(#1252,#1253,#1254,#1255,#1263,#1271));
#1252 = ORIENTED_EDGE('',*,*,#694,.T.);
#1253 = ORIENTED_EDGE('',*,*,#1239,.T.);
#1254 = ORIENTED_EDGE('',*,*,#508,.F.);
#1255 = ORIENTED_EDGE('',*,*,#1256,.F.);
#1256 = EDGE_CURVE('',#1257,#501,#1259,.T.);
#1257 = VERTEX_POINT('',#1258);
#1258 = CARTESIAN_POINT('',(113.8,61.5,-44.5));
#1259 = LINE('',#1260,#1261);
#1260 = CARTESIAN_POINT('',(99.,61.5,-44.5));
#1261 = VECTOR('',#1262,1.);
#1262 = DIRECTION('',(1.,0.,-0.));
#1263 = ORIENTED_EDGE('',*,*,#1264,.F.);
#1264 = EDGE_CURVE('',#1265,#1257,#1267,.T.);
#1265 = VERTEX_POINT('',#1266);
#1266 = CARTESIAN_POINT('',(113.8,56.,-44.5));
#1267 = LINE('',#1268,#1269);
#1268 = CARTESIAN_POINT('',(113.8,56.,-44.5));
#1269 = VECTOR('',#1270,1.);
#1270 = DIRECTION('',(-0.,1.,0.));
#1271 = ORIENTED_EDGE('',*,*,#1272,.F.);
#1272 = EDGE_CURVE('',#695,#1265,#1273,.T.);
#1273 = LINE('',#1274,#1275);
#1274 = CARTESIAN_POINT('',(99.,56.,-44.5));
#1275 = VECTOR('',#1276,1.);
#1276 = DIRECTION('',(1.,0.,-0.));
#1277 = PLANE('',#1278);
#1278 = AXIS2_PLACEMENT_3D('',#1279,#1280,#1281);
#1279 = CARTESIAN_POINT('',(106.47659574468,60.273404255319,-44.5));
#1280 = DIRECTION('',(-0.,-0.,-1.));
#1281 = DIRECTION('',(-1.,0.,0.));
#1282 = ADVANCED_FACE('',(#1283),#1309,.F.);
#1283 = FACE_BOUND('',#1284,.F.);
#1284 = EDGE_LOOP('',(#1285,#1286,#1294,#1300,#1301,#1307,#1308));
#1285 = ORIENTED_EDGE('',*,*,#1256,.F.);
#1286 = ORIENTED_EDGE('',*,*,#1287,.F.);
#1287 = EDGE_CURVE('',#1288,#1257,#1290,.T.);
#1288 = VERTEX_POINT('',#1289);
#1289 = CARTESIAN_POINT('',(113.8,61.5,-43.));
#1290 = LINE('',#1291,#1292);
#1291 = CARTESIAN_POINT('',(113.8,61.5,-44.5));
#1292 = VECTOR('',#1293,1.);
#1293 = DIRECTION('',(-0.,0.,-1.));
#1294 = ORIENTED_EDGE('',*,*,#1295,.F.);
#1295 = EDGE_CURVE('',#662,#1288,#1296,.T.);
#1296 = LINE('',#1297,#1298);
#1297 = CARTESIAN_POINT('',(99.,61.5,-43.));
#1298 = VECTOR('',#1299,1.);
#1299 = DIRECTION('',(1.,0.,-0.));
#1300 = ORIENTED_EDGE('',*,*,#669,.T.);
#1301 = ORIENTED_EDGE('',*,*,#1302,.T.);
#1302 = EDGE_CURVE('',#630,#552,#1303,.T.);
#1303 = LINE('',#1304,#1305);
#1304 = CARTESIAN_POINT('',(99.,61.5,-44.5));
#1305 = VECTOR('',#1306,1.);
#1306 = DIRECTION('',(0.,0.,1.));
#1307 = ORIENTED_EDGE('',*,*,#559,.T.);
#1308 = ORIENTED_EDGE('',*,*,#500,.F.);
#1309 = PLANE('',#1310);
#1310 = AXIS2_PLACEMENT_3D('',#1311,#1312,#1313);
#1311 = CARTESIAN_POINT('',(99.,61.5,-44.5));
#1312 = DIRECTION('',(-0.,1.,0.));
#1313 = DIRECTION('',(0.,0.,1.));
#1314 = ADVANCED_FACE('',(#1315),#1334,.F.);
#1315 = FACE_BOUND('',#1316,.F.);
#1316 = EDGE_LOOP('',(#1317,#1318,#1326,#1333));
#1317 = ORIENTED_EDGE('',*,*,#525,.F.);
#1318 = ORIENTED_EDGE('',*,*,#1319,.F.);
#1319 = EDGE_CURVE('',#1320,#526,#1322,.T.);
#1320 = VERTEX_POINT('',#1321);
#1321 = CARTESIAN_POINT('',(99.,67.,-32.3));
#1322 = LINE('',#1323,#1324);
#1323 = CARTESIAN_POINT('',(96.3,67.,-32.3));
#1324 = VECTOR('',#1325,1.);
#1325 = DIRECTION('',(1.,0.,0.));
#1326 = ORIENTED_EDGE('',*,*,#1327,.T.);
#1327 = EDGE_CURVE('',#1320,#1320,#1328,.T.);
#1328 = CIRCLE('',#1329,1.7);
#1329 = AXIS2_PLACEMENT_3D('',#1330,#1331,#1332);
#1330 = CARTESIAN_POINT('',(99.,67.,-34.));
#1331 = DIRECTION('',(1.,0.,0.));
#1332 = DIRECTION('',(-0.,0.,1.));
#1333 = ORIENTED_EDGE('',*,*,#1319,.T.);
#1334 = CYLINDRICAL_SURFACE('',#1335,1.7);
#1335 = AXIS2_PLACEMENT_3D('',#1336,#1337,#1338);
#1336 = CARTESIAN_POINT('',(96.3,67.,-34.));
#1337 = DIRECTION('',(1.,0.,0.));
#1338 = DIRECTION('',(-0.,0.,1.));
#1339 = ADVANCED_FACE('',(#1340),#1346,.T.);
#1340 = FACE_BOUND('',#1341,.T.);
#1341 = EDGE_LOOP('',(#1342,#1343,#1344,#1345));
#1342 = ORIENTED_EDGE('',*,*,#551,.F.);
#1343 = ORIENTED_EDGE('',*,*,#917,.F.);
#1344 = ORIENTED_EDGE('',*,*,#629,.T.);
#1345 = ORIENTED_EDGE('',*,*,#1302,.T.);
#1346 = PLANE('',#1347);
#1347 = AXIS2_PLACEMENT_3D('',#1348,#1349,#1350);
#1348 = CARTESIAN_POINT('',(99.,56.,-38.));
#1349 = DIRECTION('',(1.,0.,-0.));
#1350 = DIRECTION('',(0.,0.,1.));
#1351 = ADVANCED_FACE('',(#1352),#1370,.T.);
#1352 = FACE_BOUND('',#1353,.T.);
#1353 = EDGE_LOOP('',(#1354,#1355,#1363,#1369));
#1354 = ORIENTED_EDGE('',*,*,#659,.F.);
#1355 = ORIENTED_EDGE('',*,*,#1356,.T.);
#1356 = EDGE_CURVE('',#660,#1357,#1359,.T.);
#1357 = VERTEX_POINT('',#1358);
#1358 = CARTESIAN_POINT('',(113.8,56.,-43.));
#1359 = LINE('',#1360,#1361);
#1360 = CARTESIAN_POINT('',(99.,56.,-43.));
#1361 = VECTOR('',#1362,1.);
#1362 = DIRECTION('',(1.,0.,-0.));
#1363 = ORIENTED_EDGE('',*,*,#1364,.T.);
#1364 = EDGE_CURVE('',#1357,#1288,#1365,.T.);
#1365 = LINE('',#1366,#1367);
#1366 = CARTESIAN_POINT('',(113.8,56.,-43.));
#1367 = VECTOR('',#1368,1.);
#1368 = DIRECTION('',(-0.,1.,0.));
#1369 = ORIENTED_EDGE('',*,*,#1295,.F.);
#1370 = PLANE('',#1371);
#1371 = AXIS2_PLACEMENT_3D('',#1372,#1373,#1374);
#1372 = CARTESIAN_POINT('',(99.,56.,-43.));
#1373 = DIRECTION('',(0.,0.,1.));
#1374 = DIRECTION('',(1.,0.,-0.));
#1375 = ADVANCED_FACE('',(#1376),#1387,.F.);
#1376 = FACE_BOUND('',#1377,.F.);
#1377 = EDGE_LOOP('',(#1378,#1379,#1380,#1381));
#1378 = ORIENTED_EDGE('',*,*,#1272,.F.);
#1379 = ORIENTED_EDGE('',*,*,#702,.T.);
#1380 = ORIENTED_EDGE('',*,*,#1356,.T.);
#1381 = ORIENTED_EDGE('',*,*,#1382,.F.);
#1382 = EDGE_CURVE('',#1265,#1357,#1383,.T.);
#1383 = LINE('',#1384,#1385);
#1384 = CARTESIAN_POINT('',(113.8,56.,-44.5));
#1385 = VECTOR('',#1386,1.);
#1386 = DIRECTION('',(0.,0.,1.));
#1387 = PLANE('',#1388);
#1388 = AXIS2_PLACEMENT_3D('',#1389,#1390,#1391);
#1389 = CARTESIAN_POINT('',(99.,56.,-44.5));
#1390 = DIRECTION('',(-0.,1.,0.));
#1391 = DIRECTION('',(0.,0.,1.));
#1392 = ADVANCED_FACE('',(#1393),#1404,.T.);
#1393 = FACE_BOUND('',#1394,.T.);
#1394 = EDGE_LOOP('',(#1395,#1396,#1397,#1398));
#1395 = ORIENTED_EDGE('',*,*,#742,.F.);
#1396 = ORIENTED_EDGE('',*,*,#934,.F.);
#1397 = ORIENTED_EDGE('',*,*,#892,.T.);
#1398 = ORIENTED_EDGE('',*,*,#1399,.T.);
#1399 = EDGE_CURVE('',#885,#743,#1400,.T.);
#1400 = LINE('',#1401,#1402);
#1401 = CARTESIAN_POINT('',(99.,61.5,22.));
#1402 = VECTOR('',#1403,1.);
#1403 = DIRECTION('',(0.,0.,1.));
#1404 = PLANE('',#1405);
#1405 = AXIS2_PLACEMENT_3D('',#1406,#1407,#1408);
#1406 = CARTESIAN_POINT('',(99.,56.,22.));
#1407 = DIRECTION('',(1.,0.,-0.));
#1408 = DIRECTION('',(0.,0.,1.));
#1409 = ADVANCED_FACE('',(#1410),#1438,.F.);
#1410 = FACE_BOUND('',#1411,.F.);
#1411 = EDGE_LOOP('',(#1412,#1413,#1414,#1415,#1423,#1431,#1437));
#1412 = ORIENTED_EDGE('',*,*,#884,.F.);
#1413 = ORIENTED_EDGE('',*,*,#1399,.T.);
#1414 = ORIENTED_EDGE('',*,*,#765,.T.);
#1415 = ORIENTED_EDGE('',*,*,#1416,.T.);
#1416 = EDGE_CURVE('',#766,#1417,#1419,.T.);
#1417 = VERTEX_POINT('',#1418);
#1418 = CARTESIAN_POINT('',(113.8,61.5,35.5));
#1419 = LINE('',#1420,#1421);
#1420 = CARTESIAN_POINT('',(99.,61.5,35.5));
#1421 = VECTOR('',#1422,1.);
#1422 = DIRECTION('',(1.,0.,-0.));
#1423 = ORIENTED_EDGE('',*,*,#1424,.F.);
#1424 = EDGE_CURVE('',#1425,#1417,#1427,.T.);
#1425 = VERTEX_POINT('',#1426);
#1426 = CARTESIAN_POINT('',(113.8,61.5,37.));
#1427 = LINE('',#1428,#1429);
#1428 = CARTESIAN_POINT('',(113.8,61.5,28.75));
#1429 = VECTOR('',#1430,1.);
#1430 = DIRECTION('',(-0.,0.,-1.));
#1431 = ORIENTED_EDGE('',*,*,#1432,.T.);
#1432 = EDGE_CURVE('',#1425,#841,#1433,.T.);
#1433 = LINE('',#1434,#1435);
#1434 = CARTESIAN_POINT('',(99.,61.5,37.));
#1435 = VECTOR('',#1436,1.);
#1436 = DIRECTION('',(1.,0.,-0.));
#1437 = ORIENTED_EDGE('',*,*,#848,.F.);
#1438 = PLANE('',#1439);
#1439 = AXIS2_PLACEMENT_3D('',#1440,#1441,#1442);
#1440 = CARTESIAN_POINT('',(99.,61.5,22.));
#1441 = DIRECTION('',(-0.,1.,0.));
#1442 = DIRECTION('',(0.,0.,1.));
#1443 = ADVANCED_FACE('',(#1444),#1462,.F.);
#1444 = FACE_BOUND('',#1445,.F.);
#1445 = EDGE_LOOP('',(#1446,#1447,#1455,#1461));
#1446 = ORIENTED_EDGE('',*,*,#773,.F.);
#1447 = ORIENTED_EDGE('',*,*,#1448,.T.);
#1448 = EDGE_CURVE('',#774,#1449,#1451,.T.);
#1449 = VERTEX_POINT('',#1450);
#1450 = CARTESIAN_POINT('',(113.8,56.,35.5));
#1451 = LINE('',#1452,#1453);
#1452 = CARTESIAN_POINT('',(99.,56.,35.5));
#1453 = VECTOR('',#1454,1.);
#1454 = DIRECTION('',(1.,0.,-0.));
#1455 = ORIENTED_EDGE('',*,*,#1456,.T.);
#1456 = EDGE_CURVE('',#1449,#1417,#1457,.T.);
#1457 = LINE('',#1458,#1459);
#1458 = CARTESIAN_POINT('',(113.8,56.,35.5));
#1459 = VECTOR('',#1460,1.);
#1460 = DIRECTION('',(-0.,1.,0.));
#1461 = ORIENTED_EDGE('',*,*,#1416,.F.);
#1462 = PLANE('',#1463);
#1463 = AXIS2_PLACEMENT_3D('',#1464,#1465,#1466);
#1464 = CARTESIAN_POINT('',(99.,56.,35.5));
#1465 = DIRECTION('',(0.,0.,1.));
#1466 = DIRECTION('',(1.,0.,-0.));
#1467 = ADVANCED_FACE('',(#1468),#1486,.F.);
#1468 = FACE_BOUND('',#1469,.F.);
#1469 = EDGE_LOOP('',(#1470,#1471,#1472,#1480));
#1470 = ORIENTED_EDGE('',*,*,#1448,.F.);
#1471 = ORIENTED_EDGE('',*,*,#781,.T.);
#1472 = ORIENTED_EDGE('',*,*,#1473,.T.);
#1473 = EDGE_CURVE('',#782,#1474,#1476,.T.);
#1474 = VERTEX_POINT('',#1475);
#1475 = CARTESIAN_POINT('',(113.8,56.,37.));
#1476 = LINE('',#1477,#1478);
#1477 = CARTESIAN_POINT('',(99.,56.,37.));
#1478 = VECTOR('',#1479,1.);
#1479 = DIRECTION('',(1.,0.,-0.));
#1480 = ORIENTED_EDGE('',*,*,#1481,.F.);
#1481 = EDGE_CURVE('',#1449,#1474,#1482,.T.);
#1482 = LINE('',#1483,#1484);
#1483 = CARTESIAN_POINT('',(113.8,56.,35.5));
#1484 = VECTOR('',#1485,1.);
#1485 = DIRECTION('',(0.,0.,1.));
#1486 = PLANE('',#1487);
#1487 = AXIS2_PLACEMENT_3D('',#1488,#1489,#1490);
#1488 = CARTESIAN_POINT('',(99.,56.,35.5));
#1489 = DIRECTION('',(-0.,1.,0.));
#1490 = DIRECTION('',(0.,0.,1.));
#1491 = ADVANCED_FACE('',(#1492),#1505,.T.);
#1492 = FACE_BOUND('',#1493,.T.);
#1493 = EDGE_LOOP('',(#1494,#1495,#1496,#1497,#1503,#1504));
#1494 = ORIENTED_EDGE('',*,*,#823,.F.);
#1495 = ORIENTED_EDGE('',*,*,#789,.F.);
#1496 = ORIENTED_EDGE('',*,*,#1473,.T.);
#1497 = ORIENTED_EDGE('',*,*,#1498,.T.);
#1498 = EDGE_CURVE('',#1474,#1425,#1499,.T.);
#1499 = LINE('',#1500,#1501);
#1500 = CARTESIAN_POINT('',(113.8,56.,37.));
#1501 = VECTOR('',#1502,1.);
#1502 = DIRECTION('',(-0.,1.,0.));
#1503 = ORIENTED_EDGE('',*,*,#1432,.T.);
#1504 = ORIENTED_EDGE('',*,*,#840,.T.);
#1505 = PLANE('',#1506);
#1506 = AXIS2_PLACEMENT_3D('',#1507,#1508,#1509);
#1507 = CARTESIAN_POINT('',(106.47659574468,60.273404255319,37.));
#1508 = DIRECTION('',(0.,0.,1.));
#1509 = DIRECTION('',(1.,0.,-0.));
#1510 = ADVANCED_FACE('',(#1511),#1530,.F.);
#1511 = FACE_BOUND('',#1512,.F.);
#1512 = EDGE_LOOP('',(#1513,#1514,#1522,#1529));
#1513 = ORIENTED_EDGE('',*,*,#864,.F.);
#1514 = ORIENTED_EDGE('',*,*,#1515,.F.);
#1515 = EDGE_CURVE('',#1516,#865,#1518,.T.);
#1516 = VERTEX_POINT('',#1517);
#1517 = CARTESIAN_POINT('',(99.,67.,27.7));
#1518 = LINE('',#1519,#1520);
#1519 = CARTESIAN_POINT('',(96.3,67.,27.7));
#1520 = VECTOR('',#1521,1.);
#1521 = DIRECTION('',(1.,0.,0.));
#1522 = ORIENTED_EDGE('',*,*,#1523,.T.);
#1523 = EDGE_CURVE('',#1516,#1516,#1524,.T.);
#1524 = CIRCLE('',#1525,1.7);
#1525 = AXIS2_PLACEMENT_3D('',#1526,#1527,#1528);
#1526 = CARTESIAN_POINT('',(99.,67.,26.));
#1527 = DIRECTION('',(1.,0.,0.));
#1528 = DIRECTION('',(-0.,0.,1.));
#1529 = ORIENTED_EDGE('',*,*,#1515,.T.);
#1530 = CYLINDRICAL_SURFACE('',#1531,1.7);
#1531 = AXIS2_PLACEMENT_3D('',#1532,#1533,#1534);
#1532 = CARTESIAN_POINT('',(96.3,67.,26.));
#1533 = DIRECTION('',(1.,0.,0.));
#1534 = DIRECTION('',(-0.,0.,1.));
#1535 = ADVANCED_FACE('',(#1536,#1544),#1547,.F.);
#1536 = FACE_BOUND('',#1537,.F.);
#1537 = EDGE_LOOP('',(#1538,#1539,#1540,#1541,#1542,#1543));
#1538 = ORIENTED_EDGE('',*,*,#1077,.T.);
#1539 = ORIENTED_EDGE('',*,*,#1060,.T.);
#1540 = ORIENTED_EDGE('',*,*,#1036,.T.);
#1541 = ORIENTED_EDGE('',*,*,#1012,.T.);
#1542 = ORIENTED_EDGE('',*,*,#988,.T.);
#1543 = ORIENTED_EDGE('',*,*,#957,.T.);
#1544 = FACE_BOUND('',#1545,.F.);
#1545 = EDGE_LOOP('',(#1546));
#1546 = ORIENTED_EDGE('',*,*,#1327,.F.);
#1547 = PLANE('',#1548);
#1548 = AXIS2_PLACEMENT_3D('',#1549,#1550,#1551);
#1549 = CARTESIAN_POINT('',(99.,67.,-34.));
#1550 = DIRECTION('',(1.,0.,0.));
#1551 = DIRECTION('',(-0.,0.,1.));
#1552 = ADVANCED_FACE('',(#1553,#1561),#1564,.F.);
#1553 = FACE_BOUND('',#1554,.F.);
#1554 = EDGE_LOOP('',(#1555,#1556,#1557,#1558,#1559,#1560));
#1555 = ORIENTED_EDGE('',*,*,#1221,.T.);
#1556 = ORIENTED_EDGE('',*,*,#1204,.T.);
#1557 = ORIENTED_EDGE('',*,*,#1180,.T.);
#1558 = ORIENTED_EDGE('',*,*,#1156,.T.);
#1559 = ORIENTED_EDGE('',*,*,#1132,.T.);
#1560 = ORIENTED_EDGE('',*,*,#1101,.T.);
#1561 = FACE_BOUND('',#1562,.F.);
#1562 = EDGE_LOOP('',(#1563));
#1563 = ORIENTED_EDGE('',*,*,#1523,.F.);
#1564 = PLANE('',#1565);
#1565 = AXIS2_PLACEMENT_3D('',#1566,#1567,#1568);
#1566 = CARTESIAN_POINT('',(99.,67.,26.));
#1567 = DIRECTION('',(1.,0.,0.));
#1568 = DIRECTION('',(-0.,0.,1.));
#1569 = ADVANCED_FACE('',(#1570),#1576,.T.);
#1570 = FACE_BOUND('',#1571,.T.);
#1571 = EDGE_LOOP('',(#1572,#1573,#1574,#1575));
#1572 = ORIENTED_EDGE('',*,*,#1364,.F.);
#1573 = ORIENTED_EDGE('',*,*,#1382,.F.);
#1574 = ORIENTED_EDGE('',*,*,#1264,.T.);
#1575 = ORIENTED_EDGE('',*,*,#1287,.F.);
#1576 = PLANE('',#1577);
#1577 = AXIS2_PLACEMENT_3D('',#1578,#1579,#1580);
#1578 = CARTESIAN_POINT('',(113.8,56.,-44.5));
#1579 = DIRECTION('',(1.,0.,-0.));
#1580 = DIRECTION('',(0.,0.,1.));
#1581 = ADVANCED_FACE('',(#1582),#1588,.T.);
#1582 = FACE_BOUND('',#1583,.T.);
#1583 = EDGE_LOOP('',(#1584,#1585,#1586,#1587));
#1584 = ORIENTED_EDGE('',*,*,#1498,.F.);
#1585 = ORIENTED_EDGE('',*,*,#1481,.F.);
#1586 = ORIENTED_EDGE('',*,*,#1456,.T.);
#1587 = ORIENTED_EDGE('',*,*,#1424,.F.);
#1588 = PLANE('',#1589);
#1589 = AXIS2_PLACEMENT_3D('',#1590,#1591,#1592);
#1590 = CARTESIAN_POINT('',(113.8,56.,35.5));
#1591 = DIRECTION('',(1.,0.,-0.));
#1592 = DIRECTION('',(0.,0.,1.));
#1593 = ADVANCED_FACE('',(#1594),#1602,.F.);
#1594 = FACE_BOUND('',#1595,.F.);
#1595 = EDGE_LOOP('',(#1596,#1597,#1598,#1599,#1600,#1601));
#1596 = ORIENTED_EDGE('',*,*,#645,.T.);
#1597 = ORIENTED_EDGE('',*,*,#596,.F.);
#1598 = ORIENTED_EDGE('',*,*,#587,.F.);
#1599 = ORIENTED_EDGE('',*,*,#106,.F.);
#1600 = ORIENTED_EDGE('',*,*,#334,.T.);
#1601 = ORIENTED_EDGE('',*,*,#343,.T.);
#1602 = CYLINDRICAL_SURFACE('',#1603,3.1);
#1603 = AXIS2_PLACEMENT_3D('',#1604,#1605,#1606);
#1604 = CARTESIAN_POINT('',(96.3,62.,-40.));
#1605 = DIRECTION('',(1.,0.,0.));
#1606 = DIRECTION('',(-0.,0.,1.));
#1607 = ( GEOMETRIC_REPRESENTATION_CONTEXT(3) 
GLOBAL_UNCERTAINTY_ASSIGNED_CONTEXT((#1611)) 
GLOBAL_UNIT_ASSIGNED_CONTEXT((#1608,#1609,#1610)) REPRESENTATION_CONTEXT
('Context #1','3D Context with UNIT and UNCERTAINTY') );
#1608 = ( LENGTH_UNIT() NAMED_UNIT(*) SI_UNIT(.MILLI.,.METRE.) );
#1609 = ( NAMED_UNIT(*) PLANE_ANGLE_UNIT() SI_UNIT($,.RADIAN.) );
#1610 = ( NAMED_UNIT(*) SI_UNIT($,.STERADIAN.) SOLID_ANGLE_UNIT() );
#1611 = UNCERTAINTY_MEASURE_WITH_UNIT(LENGTH_MEASURE(1.E-07),#1608,
  'distance_accuracy_value','confusion accuracy');
#1612 = PRODUCT_RELATED_PRODUCT_CATEGORY('part',$,(#7));
ENDSEC;
END-ISO-10303-21;
