ISO-10303-21;
HEADER;
FILE_DESCRIPTION(('FreeCAD Model'),'2;1');
FILE_NAME('Open CASCADE Shape Model','2026-09-28T10:09:22',('FreeCAD'),(
    'FreeCAD'),'Open CASCADE STEP processor 7.8','FreeCAD','Unknown');
FILE_SCHEMA(('AUTOMOTIVE_DESIGN { 1 0 10303 214 1 1 1 1 }'));
ENDSEC;
DATA;
#1 = APPLICATION_PROTOCOL_DEFINITION('international standard',
  'automotive_design',2000,#2);
#2 = APPLICATION_CONTEXT(
  'core data for automotive mechanical design processes');
#3 = SHAPE_DEFINITION_REPRESENTATION(#4,#10);
#4 = PRODUCT_DEFINITION_SHAPE('','',#5);
#5 = PRODUCT_DEFINITION('design','',#6,#9);
#6 = PRODUCT_DEFINITION_FORMATION('','',#7);
#7 = PRODUCT('Open CASCADE STEP translator 7.8 42',
  'Open CASCADE STEP translator 7.8 42','',(#8));
#8 = PRODUCT_CONTEXT('',#2,'mechanical');
#9 = PRODUCT_DEFINITION_CONTEXT('part definition',#2,'design');
#10 = ADVANCED_BREP_SHAPE_REPRESENTATION('',(#11,#15),#2287);
#11 = AXIS2_PLACEMENT_3D('',#12,#13,#14);
#12 = CARTESIAN_POINT('',(0.,0.,0.));
#13 = DIRECTION('',(0.,0.,1.));
#14 = DIRECTION('',(1.,0.,-0.));
#15 = MANIFOLD_SOLID_BREP('',#16);
#16 = CLOSED_SHELL('',(#17,#49,#69,#170,#195,#321,#346,#371,#395,#419,
    #444,#469,#497,#522,#575,#664,#693,#718,#809,#826,#1070,#1098,#1334,
    #1354,#1374,#1399,#1424,#1449,#1474,#1491,#1508,#1527,#1544,#1556,
    #1581,#1598,#1623,#1647,#1667,#1687,#1699,#1724,#1746,#1763,#1780,
    #1797,#1814,#1826,#1848,#1865,#1882,#1899,#1916,#1928,#1953,#1978,
    #2000,#2017,#2034,#2051,#2068,#2080,#2105,#2130,#2155,#2164,#2184,
    #2193,#2202,#2214,#2234,#2246,#2258,#2270));
#17 = ADVANCED_FACE('',(#18),#44,.F.);
#18 = FACE_BOUND('',#19,.T.);
#19 = EDGE_LOOP('',(#20,#29,#36,#43));
#20 = ORIENTED_EDGE('',*,*,#21,.T.);
#21 = EDGE_CURVE('',#22,#22,#24,.T.);
#22 = VERTEX_POINT('',#23);
#23 = CARTESIAN_POINT('',(0.,-148.3,9.5));
#24 = CIRCLE('',#25,9.5);
#25 = AXIS2_PLACEMENT_3D('',#26,#27,#28);
#26 = CARTESIAN_POINT('',(0.,-148.3,0.));
#27 = DIRECTION('',(0.,1.,0.));
#28 = DIRECTION('',(-0.,-0.,1.));
#29 = ORIENTED_EDGE('',*,*,#30,.T.);
#30 = EDGE_CURVE('',#22,#31,#33,.T.);
#31 = VERTEX_POINT('',#32);
#32 = CARTESIAN_POINT('',(-2.32682891838E-15,-151.6,9.5));
#33 = B_SPLINE_CURVE_WITH_KNOTS('',1,(#34,#35),.UNSPECIFIED.,.F.,.F.,(2,
    2),(0.5,4.),.PIECEWISE_BEZIER_KNOTS.);
#34 = CARTESIAN_POINT('',(0.,-148.1,9.5));
#35 = CARTESIAN_POINT('',(0.,-151.6,9.5));
#36 = ORIENTED_EDGE('',*,*,#37,.F.);
#37 = EDGE_CURVE('',#31,#31,#38,.T.);
#38 = CIRCLE('',#39,9.5);
#39 = AXIS2_PLACEMENT_3D('',#40,#41,#42);
#40 = CARTESIAN_POINT('',(0.,-151.6,0.));
#41 = DIRECTION('',(0.,1.,0.));
#42 = DIRECTION('',(-0.,-0.,1.));
#43 = ORIENTED_EDGE('',*,*,#30,.F.);
#44 = CYLINDRICAL_SURFACE('',#45,9.5);
#45 = AXIS2_PLACEMENT_3D('',#46,#47,#48);
#46 = CARTESIAN_POINT('',(0.,-147.6,0.));
#47 = DIRECTION('',(-0.,-1.,-0.));
#48 = DIRECTION('',(-0.,-0.,1.));
#49 = ADVANCED_FACE('',(#50,#61),#64,.F.);
#50 = FACE_BOUND('',#51,.T.);
#51 = EDGE_LOOP('',(#52));
#52 = ORIENTED_EDGE('',*,*,#53,.T.);
#53 = EDGE_CURVE('',#54,#54,#56,.T.);
#54 = VERTEX_POINT('',#55);
#55 = CARTESIAN_POINT('',(-3.453503973596E-15,-148.3,14.1));
#56 = CIRCLE('',#57,14.1);
#57 = AXIS2_PLACEMENT_3D('',#58,#59,#60);
#58 = CARTESIAN_POINT('',(0.,-148.3,0.));
#59 = DIRECTION('',(0.,1.,0.));
#60 = DIRECTION('',(-0.,-0.,1.));
#61 = FACE_BOUND('',#62,.T.);
#62 = EDGE_LOOP('',(#63));
#63 = ORIENTED_EDGE('',*,*,#21,.F.);
#64 = PLANE('',#65);
#65 = AXIS2_PLACEMENT_3D('',#66,#67,#68);
#66 = CARTESIAN_POINT('',(0.,-148.3,0.));
#67 = DIRECTION('',(-0.,-1.,-0.));
#68 = DIRECTION('',(0.,0.,-1.));
#69 = ADVANCED_FACE('',(#70,#151,#154),#165,.T.);
#70 = FACE_BOUND('',#71,.F.);
#71 = EDGE_LOOP('',(#72,#83,#92,#100,#109,#118,#127,#136,#144));
#72 = ORIENTED_EDGE('',*,*,#73,.T.);
#73 = EDGE_CURVE('',#74,#76,#78,.T.);
#74 = VERTEX_POINT('',#75);
#75 = CARTESIAN_POINT('',(10.2,-151.6,13.6));
#76 = VERTEX_POINT('',#77);
#77 = CARTESIAN_POINT('',(-10.2,-151.6,13.6));
#78 = CIRCLE('',#79,17.);
#79 = AXIS2_PLACEMENT_3D('',#80,#81,#82);
#80 = CARTESIAN_POINT('',(0.,-151.6,0.));
#81 = DIRECTION('',(0.,1.,0.));
#82 = DIRECTION('',(-0.,-0.,1.));
#83 = ORIENTED_EDGE('',*,*,#84,.T.);
#84 = EDGE_CURVE('',#76,#85,#87,.T.);
#85 = VERTEX_POINT('',#86);
#86 = CARTESIAN_POINT('',(-9.,-151.6,16.));
#87 = CIRCLE('',#88,3.);
#88 = AXIS2_PLACEMENT_3D('',#89,#90,#91);
#89 = CARTESIAN_POINT('',(-12.,-151.6,16.));
#90 = DIRECTION('',(0.,-1.,0.));
#91 = DIRECTION('',(-0.,-0.,1.));
#92 = ORIENTED_EDGE('',*,*,#93,.T.);
#93 = EDGE_CURVE('',#85,#94,#96,.T.);
#94 = VERTEX_POINT('',#95);
#95 = CARTESIAN_POINT('',(-9.,-151.6,34.416994755742));
#96 = LINE('',#97,#98);
#97 = CARTESIAN_POINT('',(-9.,-151.6,0.));
#98 = VECTOR('',#99,1.);
#99 = DIRECTION('',(-0.,-0.,1.));
#100 = ORIENTED_EDGE('',*,*,#101,.T.);
#101 = EDGE_CURVE('',#94,#102,#104,.T.);
#102 = VERTEX_POINT('',#103);
#103 = CARTESIAN_POINT('',(-9.75,-151.6,36.40130823904));
#104 = CIRCLE('',#105,3.);
#105 = AXIS2_PLACEMENT_3D('',#106,#107,#108);
#106 = CARTESIAN_POINT('',(-12.,-151.6,34.416994755742));
#107 = DIRECTION('',(0.,-1.,0.));
#108 = DIRECTION('',(-0.,-0.,1.));
#109 = ORIENTED_EDGE('',*,*,#110,.T.);
#110 = EDGE_CURVE('',#102,#111,#113,.T.);
#111 = VERTEX_POINT('',#112);
#112 = CARTESIAN_POINT('',(-3.184081677783E-15,-151.6,58.));
#113 = CIRCLE('',#114,13.);
#114 = AXIS2_PLACEMENT_3D('',#115,#116,#117);
#115 = CARTESIAN_POINT('',(0.,-151.6,45.));
#116 = DIRECTION('',(0.,1.,0.));
#117 = DIRECTION('',(-0.,-0.,1.));
#118 = ORIENTED_EDGE('',*,*,#119,.T.);
#119 = EDGE_CURVE('',#111,#120,#122,.T.);
#120 = VERTEX_POINT('',#121);
#121 = CARTESIAN_POINT('',(9.75,-151.6,36.40130823904));
#122 = CIRCLE('',#123,13.);
#123 = AXIS2_PLACEMENT_3D('',#124,#125,#126);
#124 = CARTESIAN_POINT('',(0.,-151.6,45.));
#125 = DIRECTION('',(0.,1.,0.));
#126 = DIRECTION('',(-0.,-0.,1.));
#127 = ORIENTED_EDGE('',*,*,#128,.F.);
#128 = EDGE_CURVE('',#129,#120,#131,.T.);
#129 = VERTEX_POINT('',#130);
#130 = CARTESIAN_POINT('',(9.,-151.6,34.416994755742));
#131 = CIRCLE('',#132,3.);
#132 = AXIS2_PLACEMENT_3D('',#133,#134,#135);
#133 = CARTESIAN_POINT('',(12.,-151.6,34.416994755742));
#134 = DIRECTION('',(0.,1.,0.));
#135 = DIRECTION('',(-0.,-0.,1.));
#136 = ORIENTED_EDGE('',*,*,#137,.F.);
#137 = EDGE_CURVE('',#138,#129,#140,.T.);
#138 = VERTEX_POINT('',#139);
#139 = CARTESIAN_POINT('',(9.,-151.6,16.));
#140 = LINE('',#141,#142);
#141 = CARTESIAN_POINT('',(9.,-151.6,0.));
#142 = VECTOR('',#143,1.);
#143 = DIRECTION('',(-0.,-0.,1.));
#144 = ORIENTED_EDGE('',*,*,#145,.F.);
#145 = EDGE_CURVE('',#74,#138,#146,.T.);
#146 = CIRCLE('',#147,3.);
#147 = AXIS2_PLACEMENT_3D('',#148,#149,#150);
#148 = CARTESIAN_POINT('',(12.,-151.6,16.));
#149 = DIRECTION('',(0.,1.,0.));
#150 = DIRECTION('',(-0.,-0.,1.));
#151 = FACE_BOUND('',#152,.F.);
#152 = EDGE_LOOP('',(#153));
#153 = ORIENTED_EDGE('',*,*,#37,.F.);
#154 = FACE_BOUND('',#155,.F.);
#155 = EDGE_LOOP('',(#156));
#156 = ORIENTED_EDGE('',*,*,#157,.F.);
#157 = EDGE_CURVE('',#158,#158,#160,.T.);
#158 = VERTEX_POINT('',#159);
#159 = CARTESIAN_POINT('',(-1.126675055216E-15,-151.6,49.6));
#160 = CIRCLE('',#161,4.6);
#161 = AXIS2_PLACEMENT_3D('',#162,#163,#164);
#162 = CARTESIAN_POINT('',(0.,-151.6,45.));
#163 = DIRECTION('',(0.,1.,0.));
#164 = DIRECTION('',(-0.,-0.,1.));
#165 = PLANE('',#166);
#166 = AXIS2_PLACEMENT_3D('',#167,#168,#169);
#167 = CARTESIAN_POINT('',(4.737703237291E-16,-151.6,21.036982346671));
#168 = DIRECTION('',(-0.,-1.,-0.));
#169 = DIRECTION('',(0.,0.,-1.));
#170 = ADVANCED_FACE('',(#171),#190,.F.);
#171 = FACE_BOUND('',#172,.T.);
#172 = EDGE_LOOP('',(#173,#174,#182,#189));
#173 = ORIENTED_EDGE('',*,*,#53,.F.);
#174 = ORIENTED_EDGE('',*,*,#175,.F.);
#175 = EDGE_CURVE('',#176,#54,#178,.T.);
#176 = VERTEX_POINT('',#177);
#177 = CARTESIAN_POINT('',(-3.453503973596E-15,-146.9,14.1));
#178 = LINE('',#179,#180);
#179 = CARTESIAN_POINT('',(-3.453503973596E-15,-146.9,14.1));
#180 = VECTOR('',#181,1.);
#181 = DIRECTION('',(-0.,-1.,-0.));
#182 = ORIENTED_EDGE('',*,*,#183,.T.);
#183 = EDGE_CURVE('',#176,#176,#184,.T.);
#184 = CIRCLE('',#185,14.1);
#185 = AXIS2_PLACEMENT_3D('',#186,#187,#188);
#186 = CARTESIAN_POINT('',(0.,-146.9,0.));
#187 = DIRECTION('',(0.,1.,0.));
#188 = DIRECTION('',(-0.,-0.,1.));
#189 = ORIENTED_EDGE('',*,*,#175,.T.);
#190 = CYLINDRICAL_SURFACE('',#191,14.1);
#191 = AXIS2_PLACEMENT_3D('',#192,#193,#194);
#192 = CARTESIAN_POINT('',(0.,-146.9,0.));
#193 = DIRECTION('',(-0.,-1.,-0.));
#194 = DIRECTION('',(-0.,-0.,1.));
#195 = ADVANCED_FACE('',(#196,#280),#316,.T.);
#196 = FACE_BOUND('',#197,.T.);
#197 = EDGE_LOOP('',(#198,#209,#218,#225,#234,#243,#249,#250,#256,#257,
    #265,#274));
#198 = ORIENTED_EDGE('',*,*,#199,.F.);
#199 = EDGE_CURVE('',#200,#202,#204,.T.);
#200 = VERTEX_POINT('',#201);
#201 = CARTESIAN_POINT('',(-4.163799117101E-15,-139.6,17.));
#202 = VERTEX_POINT('',#203);
#203 = CARTESIAN_POINT('',(10.2,-139.6,13.6));
#204 = CIRCLE('',#205,17.);
#205 = AXIS2_PLACEMENT_3D('',#206,#207,#208);
#206 = CARTESIAN_POINT('',(0.,-139.6,0.));
#207 = DIRECTION('',(0.,1.,0.));
#208 = DIRECTION('',(-0.,-0.,1.));
#209 = ORIENTED_EDGE('',*,*,#210,.F.);
#210 = EDGE_CURVE('',#211,#200,#213,.T.);
#211 = VERTEX_POINT('',#212);
#212 = CARTESIAN_POINT('',(-10.2,-139.6,13.6));
#213 = CIRCLE('',#214,17.);
#214 = AXIS2_PLACEMENT_3D('',#215,#216,#217);
#215 = CARTESIAN_POINT('',(0.,-139.6,0.));
#216 = DIRECTION('',(0.,1.,0.));
#217 = DIRECTION('',(-0.,-0.,1.));
#218 = ORIENTED_EDGE('',*,*,#219,.F.);
#219 = EDGE_CURVE('',#220,#211,#222,.T.);
#220 = VERTEX_POINT('',#221);
#221 = CARTESIAN_POINT('',(-10.2,-148.6,13.6));
#222 = B_SPLINE_CURVE_WITH_KNOTS('',1,(#223,#224),.UNSPECIFIED.,.F.,.F.,
  (2,2),(-8.5,0.5),.PIECEWISE_BEZIER_KNOTS.);
#223 = CARTESIAN_POINT('',(-10.2,-148.6,13.6));
#224 = CARTESIAN_POINT('',(-10.2,-139.6,13.6));
#225 = ORIENTED_EDGE('',*,*,#226,.T.);
#226 = EDGE_CURVE('',#220,#227,#229,.T.);
#227 = VERTEX_POINT('',#228);
#228 = CARTESIAN_POINT('',(-4.163799117101E-15,-148.6,17.));
#229 = CIRCLE('',#230,17.);
#230 = AXIS2_PLACEMENT_3D('',#231,#232,#233);
#231 = CARTESIAN_POINT('',(0.,-148.6,0.));
#232 = DIRECTION('',(0.,1.,0.));
#233 = DIRECTION('',(-0.,-0.,1.));
#234 = ORIENTED_EDGE('',*,*,#235,.T.);
#235 = EDGE_CURVE('',#227,#236,#238,.T.);
#236 = VERTEX_POINT('',#237);
#237 = CARTESIAN_POINT('',(10.2,-148.6,13.6));
#238 = CIRCLE('',#239,17.);
#239 = AXIS2_PLACEMENT_3D('',#240,#241,#242);
#240 = CARTESIAN_POINT('',(0.,-148.6,0.));
#241 = DIRECTION('',(0.,1.,0.));
#242 = DIRECTION('',(-0.,-0.,1.));
#243 = ORIENTED_EDGE('',*,*,#244,.T.);
#244 = EDGE_CURVE('',#236,#74,#245,.T.);
#245 = LINE('',#246,#247);
#246 = CARTESIAN_POINT('',(10.2,-148.6,13.6));
#247 = VECTOR('',#248,1.);
#248 = DIRECTION('',(-0.,-1.,-0.));
#249 = ORIENTED_EDGE('',*,*,#73,.T.);
#250 = ORIENTED_EDGE('',*,*,#251,.F.);
#251 = EDGE_CURVE('',#220,#76,#252,.T.);
#252 = LINE('',#253,#254);
#253 = CARTESIAN_POINT('',(-10.2,-148.6,13.6));
#254 = VECTOR('',#255,1.);
#255 = DIRECTION('',(-0.,-1.,-0.));
#256 = ORIENTED_EDGE('',*,*,#219,.T.);
#257 = ORIENTED_EDGE('',*,*,#258,.F.);
#258 = EDGE_CURVE('',#259,#211,#261,.T.);
#259 = VERTEX_POINT('',#260);
#260 = CARTESIAN_POINT('',(-10.2,-136.6,13.6));
#261 = LINE('',#262,#263);
#262 = CARTESIAN_POINT('',(-10.2,-136.6,13.6));
#263 = VECTOR('',#264,1.);
#264 = DIRECTION('',(-0.,-1.,-0.));
#265 = ORIENTED_EDGE('',*,*,#266,.F.);
#266 = EDGE_CURVE('',#267,#259,#269,.T.);
#267 = VERTEX_POINT('',#268);
#268 = CARTESIAN_POINT('',(10.2,-136.6,13.6));
#269 = CIRCLE('',#270,17.);
#270 = AXIS2_PLACEMENT_3D('',#271,#272,#273);
#271 = CARTESIAN_POINT('',(0.,-136.6,0.));
#272 = DIRECTION('',(0.,1.,0.));
#273 = DIRECTION('',(-0.,-0.,1.));
#274 = ORIENTED_EDGE('',*,*,#275,.T.);
#275 = EDGE_CURVE('',#267,#202,#276,.T.);
#276 = LINE('',#277,#278);
#277 = CARTESIAN_POINT('',(10.2,-136.6,13.6));
#278 = VECTOR('',#279,1.);
#279 = DIRECTION('',(-0.,-1.,-0.));
#280 = FACE_BOUND('',#281,.T.);
#281 = EDGE_LOOP('',(#282,#293,#301,#310));
#282 = ORIENTED_EDGE('',*,*,#283,.F.);
#283 = EDGE_CURVE('',#284,#286,#288,.T.);
#284 = VERTEX_POINT('',#285);
#285 = CARTESIAN_POINT('',(17.,-148.1,-3.566515622377E-16));
#286 = VERTEX_POINT('',#287);
#287 = CARTESIAN_POINT('',(-17.,-148.1,0.));
#288 = CIRCLE('',#289,17.);
#289 = AXIS2_PLACEMENT_3D('',#290,#291,#292);
#290 = CARTESIAN_POINT('',(0.,-148.1,0.));
#291 = DIRECTION('',(0.,1.,0.));
#292 = DIRECTION('',(-0.,-0.,1.));
#293 = ORIENTED_EDGE('',*,*,#294,.F.);
#294 = EDGE_CURVE('',#295,#284,#297,.T.);
#295 = VERTEX_POINT('',#296);
#296 = CARTESIAN_POINT('',(17.,-140.1,-3.566515622377E-16));
#297 = LINE('',#298,#299);
#298 = CARTESIAN_POINT('',(17.,-140.1,-3.566515622377E-16));
#299 = VECTOR('',#300,1.);
#300 = DIRECTION('',(-0.,-1.,-0.));
#301 = ORIENTED_EDGE('',*,*,#302,.T.);
#302 = EDGE_CURVE('',#295,#303,#305,.T.);
#303 = VERTEX_POINT('',#304);
#304 = CARTESIAN_POINT('',(-17.,-140.1,0.));
#305 = CIRCLE('',#306,17.);
#306 = AXIS2_PLACEMENT_3D('',#307,#308,#309);
#307 = CARTESIAN_POINT('',(0.,-140.1,0.));
#308 = DIRECTION('',(0.,1.,0.));
#309 = DIRECTION('',(-0.,-0.,1.));
#310 = ORIENTED_EDGE('',*,*,#311,.T.);
#311 = EDGE_CURVE('',#303,#286,#312,.T.);
#312 = LINE('',#313,#314);
#313 = CARTESIAN_POINT('',(-17.,-140.1,0.));
#314 = VECTOR('',#315,1.);
#315 = DIRECTION('',(-0.,-1.,-0.));
#316 = CYLINDRICAL_SURFACE('',#317,17.);
#317 = AXIS2_PLACEMENT_3D('',#318,#319,#320);
#318 = CARTESIAN_POINT('',(0.,-140.1,-1.397601340605E-15));
#319 = DIRECTION('',(0.,1.,-0.));
#320 = DIRECTION('',(-1.,-0.,8.221184356501E-17));
#321 = ADVANCED_FACE('',(#322),#341,.F.);
#322 = FACE_BOUND('',#323,.T.);
#323 = EDGE_LOOP('',(#324,#333,#339,#340));
#324 = ORIENTED_EDGE('',*,*,#325,.T.);
#325 = EDGE_CURVE('',#236,#326,#328,.T.);
#326 = VERTEX_POINT('',#327);
#327 = CARTESIAN_POINT('',(9.,-148.6,16.));
#328 = CIRCLE('',#329,3.);
#329 = AXIS2_PLACEMENT_3D('',#330,#331,#332);
#330 = CARTESIAN_POINT('',(12.,-148.6,16.));
#331 = DIRECTION('',(0.,1.,0.));
#332 = DIRECTION('',(-0.,-0.,1.));
#333 = ORIENTED_EDGE('',*,*,#334,.T.);
#334 = EDGE_CURVE('',#326,#138,#335,.T.);
#335 = LINE('',#336,#337);
#336 = CARTESIAN_POINT('',(9.,-148.6,16.));
#337 = VECTOR('',#338,1.);
#338 = DIRECTION('',(-0.,-1.,-0.));
#339 = ORIENTED_EDGE('',*,*,#145,.F.);
#340 = ORIENTED_EDGE('',*,*,#244,.F.);
#341 = CYLINDRICAL_SURFACE('',#342,3.);
#342 = AXIS2_PLACEMENT_3D('',#343,#344,#345);
#343 = CARTESIAN_POINT('',(12.,-148.6,16.));
#344 = DIRECTION('',(-0.,-1.,-0.));
#345 = DIRECTION('',(-0.6,-0.,-0.8));
#346 = ADVANCED_FACE('',(#347),#366,.F.);
#347 = FACE_BOUND('',#348,.F.);
#348 = EDGE_LOOP('',(#349,#358,#364,#365));
#349 = ORIENTED_EDGE('',*,*,#350,.T.);
#350 = EDGE_CURVE('',#220,#351,#353,.T.);
#351 = VERTEX_POINT('',#352);
#352 = CARTESIAN_POINT('',(-9.,-148.6,16.));
#353 = CIRCLE('',#354,3.);
#354 = AXIS2_PLACEMENT_3D('',#355,#356,#357);
#355 = CARTESIAN_POINT('',(-12.,-148.6,16.));
#356 = DIRECTION('',(0.,-1.,0.));
#357 = DIRECTION('',(-0.,-0.,1.));
#358 = ORIENTED_EDGE('',*,*,#359,.T.);
#359 = EDGE_CURVE('',#351,#85,#360,.T.);
#360 = LINE('',#361,#362);
#361 = CARTESIAN_POINT('',(-9.,-148.6,16.));
#362 = VECTOR('',#363,1.);
#363 = DIRECTION('',(-0.,-1.,-0.));
#364 = ORIENTED_EDGE('',*,*,#84,.F.);
#365 = ORIENTED_EDGE('',*,*,#251,.F.);
#366 = CYLINDRICAL_SURFACE('',#367,3.);
#367 = AXIS2_PLACEMENT_3D('',#368,#369,#370);
#368 = CARTESIAN_POINT('',(-12.,-148.6,16.));
#369 = DIRECTION('',(-0.,-1.,-0.));
#370 = DIRECTION('',(0.6,-0.,-0.8));
#371 = ADVANCED_FACE('',(#372),#390,.T.);
#372 = FACE_BOUND('',#373,.F.);
#373 = EDGE_LOOP('',(#374,#382,#383,#384));
#374 = ORIENTED_EDGE('',*,*,#375,.F.);
#375 = EDGE_CURVE('',#326,#376,#378,.T.);
#376 = VERTEX_POINT('',#377);
#377 = CARTESIAN_POINT('',(9.,-148.6,34.416994755742));
#378 = LINE('',#379,#380);
#379 = CARTESIAN_POINT('',(9.,-148.6,0.));
#380 = VECTOR('',#381,1.);
#381 = DIRECTION('',(-0.,-0.,1.));
#382 = ORIENTED_EDGE('',*,*,#334,.T.);
#383 = ORIENTED_EDGE('',*,*,#137,.T.);
#384 = ORIENTED_EDGE('',*,*,#385,.F.);
#385 = EDGE_CURVE('',#376,#129,#386,.T.);
#386 = LINE('',#387,#388);
#387 = CARTESIAN_POINT('',(9.,-148.6,34.416994755742));
#388 = VECTOR('',#389,1.);
#389 = DIRECTION('',(-0.,-1.,-0.));
#390 = PLANE('',#391);
#391 = AXIS2_PLACEMENT_3D('',#392,#393,#394);
#392 = CARTESIAN_POINT('',(9.,-148.6,0.));
#393 = DIRECTION('',(1.,-0.,-0.));
#394 = DIRECTION('',(0.,0.,-1.));
#395 = ADVANCED_FACE('',(#396),#414,.F.);
#396 = FACE_BOUND('',#397,.T.);
#397 = EDGE_LOOP('',(#398,#406,#407,#408));
#398 = ORIENTED_EDGE('',*,*,#399,.F.);
#399 = EDGE_CURVE('',#351,#400,#402,.T.);
#400 = VERTEX_POINT('',#401);
#401 = CARTESIAN_POINT('',(-9.,-148.6,34.416994755742));
#402 = LINE('',#403,#404);
#403 = CARTESIAN_POINT('',(-9.,-148.6,0.));
#404 = VECTOR('',#405,1.);
#405 = DIRECTION('',(-0.,-0.,1.));
#406 = ORIENTED_EDGE('',*,*,#359,.T.);
#407 = ORIENTED_EDGE('',*,*,#93,.T.);
#408 = ORIENTED_EDGE('',*,*,#409,.F.);
#409 = EDGE_CURVE('',#400,#94,#410,.T.);
#410 = LINE('',#411,#412);
#411 = CARTESIAN_POINT('',(-9.,-148.6,34.416994755742));
#412 = VECTOR('',#413,1.);
#413 = DIRECTION('',(-0.,-1.,-0.));
#414 = PLANE('',#415);
#415 = AXIS2_PLACEMENT_3D('',#416,#417,#418);
#416 = CARTESIAN_POINT('',(-9.,-148.6,0.));
#417 = DIRECTION('',(1.,-0.,-0.));
#418 = DIRECTION('',(0.,0.,-1.));
#419 = ADVANCED_FACE('',(#420),#439,.F.);
#420 = FACE_BOUND('',#421,.T.);
#421 = EDGE_LOOP('',(#422,#431,#437,#438));
#422 = ORIENTED_EDGE('',*,*,#423,.T.);
#423 = EDGE_CURVE('',#376,#424,#426,.T.);
#424 = VERTEX_POINT('',#425);
#425 = CARTESIAN_POINT('',(9.75,-148.6,36.40130823904));
#426 = CIRCLE('',#427,3.);
#427 = AXIS2_PLACEMENT_3D('',#428,#429,#430);
#428 = CARTESIAN_POINT('',(12.,-148.6,34.416994755742));
#429 = DIRECTION('',(0.,1.,0.));
#430 = DIRECTION('',(-0.,-0.,1.));
#431 = ORIENTED_EDGE('',*,*,#432,.T.);
#432 = EDGE_CURVE('',#424,#120,#433,.T.);
#433 = LINE('',#434,#435);
#434 = CARTESIAN_POINT('',(9.75,-148.6,36.40130823904));
#435 = VECTOR('',#436,1.);
#436 = DIRECTION('',(-0.,-1.,-0.));
#437 = ORIENTED_EDGE('',*,*,#128,.F.);
#438 = ORIENTED_EDGE('',*,*,#385,.F.);
#439 = CYLINDRICAL_SURFACE('',#440,3.);
#440 = AXIS2_PLACEMENT_3D('',#441,#442,#443);
#441 = CARTESIAN_POINT('',(12.,-148.6,34.416994755742));
#442 = DIRECTION('',(-0.,-1.,-0.));
#443 = DIRECTION('',(-1.,-0.,-0.));
#444 = ADVANCED_FACE('',(#445),#464,.F.);
#445 = FACE_BOUND('',#446,.F.);
#446 = EDGE_LOOP('',(#447,#456,#462,#463));
#447 = ORIENTED_EDGE('',*,*,#448,.T.);
#448 = EDGE_CURVE('',#400,#449,#451,.T.);
#449 = VERTEX_POINT('',#450);
#450 = CARTESIAN_POINT('',(-9.75,-148.6,36.40130823904));
#451 = CIRCLE('',#452,3.);
#452 = AXIS2_PLACEMENT_3D('',#453,#454,#455);
#453 = CARTESIAN_POINT('',(-12.,-148.6,34.416994755742));
#454 = DIRECTION('',(0.,-1.,0.));
#455 = DIRECTION('',(-0.,-0.,1.));
#456 = ORIENTED_EDGE('',*,*,#457,.T.);
#457 = EDGE_CURVE('',#449,#102,#458,.T.);
#458 = LINE('',#459,#460);
#459 = CARTESIAN_POINT('',(-9.75,-148.6,36.40130823904));
#460 = VECTOR('',#461,1.);
#461 = DIRECTION('',(-0.,-1.,-0.));
#462 = ORIENTED_EDGE('',*,*,#101,.F.);
#463 = ORIENTED_EDGE('',*,*,#409,.F.);
#464 = CYLINDRICAL_SURFACE('',#465,3.);
#465 = AXIS2_PLACEMENT_3D('',#466,#467,#468);
#466 = CARTESIAN_POINT('',(-12.,-148.6,34.416994755742));
#467 = DIRECTION('',(-0.,-1.,-0.));
#468 = DIRECTION('',(1.,-0.,-0.));
#469 = ADVANCED_FACE('',(#470),#492,.T.);
#470 = FACE_BOUND('',#471,.F.);
#471 = EDGE_LOOP('',(#472,#481,#482,#483,#484,#485));
#472 = ORIENTED_EDGE('',*,*,#473,.T.);
#473 = EDGE_CURVE('',#474,#424,#476,.T.);
#474 = VERTEX_POINT('',#475);
#475 = CARTESIAN_POINT('',(-3.184081677783E-15,-148.6,58.));
#476 = CIRCLE('',#477,13.);
#477 = AXIS2_PLACEMENT_3D('',#478,#479,#480);
#478 = CARTESIAN_POINT('',(0.,-148.6,45.));
#479 = DIRECTION('',(0.,1.,0.));
#480 = DIRECTION('',(-0.,-0.,1.));
#481 = ORIENTED_EDGE('',*,*,#432,.T.);
#482 = ORIENTED_EDGE('',*,*,#119,.F.);
#483 = ORIENTED_EDGE('',*,*,#110,.F.);
#484 = ORIENTED_EDGE('',*,*,#457,.F.);
#485 = ORIENTED_EDGE('',*,*,#486,.T.);
#486 = EDGE_CURVE('',#449,#474,#487,.T.);
#487 = CIRCLE('',#488,13.);
#488 = AXIS2_PLACEMENT_3D('',#489,#490,#491);
#489 = CARTESIAN_POINT('',(0.,-148.6,45.));
#490 = DIRECTION('',(0.,1.,0.));
#491 = DIRECTION('',(-0.,-0.,1.));
#492 = CYLINDRICAL_SURFACE('',#493,13.);
#493 = AXIS2_PLACEMENT_3D('',#494,#495,#496);
#494 = CARTESIAN_POINT('',(0.,-148.6,45.));
#495 = DIRECTION('',(-0.,-1.,-0.));
#496 = DIRECTION('',(-0.,-0.,1.));
#497 = ADVANCED_FACE('',(#498),#517,.F.);
#498 = FACE_BOUND('',#499,.T.);
#499 = EDGE_LOOP('',(#500,#501,#509,#516));
#500 = ORIENTED_EDGE('',*,*,#157,.F.);
#501 = ORIENTED_EDGE('',*,*,#502,.F.);
#502 = EDGE_CURVE('',#503,#158,#505,.T.);
#503 = VERTEX_POINT('',#504);
#504 = CARTESIAN_POINT('',(-1.126675055216E-15,-151.1,49.6));
#505 = LINE('',#506,#507);
#506 = CARTESIAN_POINT('',(-1.126675055216E-15,-151.1,49.6));
#507 = VECTOR('',#508,1.);
#508 = DIRECTION('',(-0.,-1.,-0.));
#509 = ORIENTED_EDGE('',*,*,#510,.T.);
#510 = EDGE_CURVE('',#503,#503,#511,.T.);
#511 = CIRCLE('',#512,4.6);
#512 = AXIS2_PLACEMENT_3D('',#513,#514,#515);
#513 = CARTESIAN_POINT('',(0.,-151.1,45.));
#514 = DIRECTION('',(0.,1.,0.));
#515 = DIRECTION('',(-0.,-0.,1.));
#516 = ORIENTED_EDGE('',*,*,#502,.T.);
#517 = CYLINDRICAL_SURFACE('',#518,4.6);
#518 = AXIS2_PLACEMENT_3D('',#519,#520,#521);
#519 = CARTESIAN_POINT('',(0.,-151.1,45.));
#520 = DIRECTION('',(-0.,-1.,-0.));
#521 = DIRECTION('',(-0.,-0.,1.));
#522 = ADVANCED_FACE('',(#523,#526,#537,#548,#559),#570,.T.);
#523 = FACE_BOUND('',#524,.F.);
#524 = EDGE_LOOP('',(#525));
#525 = ORIENTED_EDGE('',*,*,#183,.T.);
#526 = FACE_BOUND('',#527,.F.);
#527 = EDGE_LOOP('',(#528));
#528 = ORIENTED_EDGE('',*,*,#529,.F.);
#529 = EDGE_CURVE('',#530,#530,#532,.T.);
#530 = VERTEX_POINT('',#531);
#531 = CARTESIAN_POINT('',(-6.,-146.9,-9.592304845413));
#532 = CIRCLE('',#533,0.8);
#533 = AXIS2_PLACEMENT_3D('',#534,#535,#536);
#534 = CARTESIAN_POINT('',(-6.,-146.9,-10.39230484541));
#535 = DIRECTION('',(0.,1.,0.));
#536 = DIRECTION('',(-0.,-0.,1.));
#537 = FACE_BOUND('',#538,.F.);
#538 = EDGE_LOOP('',(#539));
#539 = ORIENTED_EDGE('',*,*,#540,.F.);
#540 = EDGE_CURVE('',#541,#541,#543,.T.);
#541 = VERTEX_POINT('',#542);
#542 = CARTESIAN_POINT('',(-2.32682891838E-15,-146.9,9.5));
#543 = CIRCLE('',#544,9.5);
#544 = AXIS2_PLACEMENT_3D('',#545,#546,#547);
#545 = CARTESIAN_POINT('',(0.,-146.9,0.));
#546 = DIRECTION('',(0.,1.,0.));
#547 = DIRECTION('',(-0.,-0.,1.));
#548 = FACE_BOUND('',#549,.F.);
#549 = EDGE_LOOP('',(#550));
#550 = ORIENTED_EDGE('',*,*,#551,.F.);
#551 = EDGE_CURVE('',#552,#552,#554,.T.);
#552 = VERTEX_POINT('',#553);
#553 = CARTESIAN_POINT('',(-6.,-146.9,11.192304845413));
#554 = CIRCLE('',#555,0.8);
#555 = AXIS2_PLACEMENT_3D('',#556,#557,#558);
#556 = CARTESIAN_POINT('',(-6.,-146.9,10.392304845413));
#557 = DIRECTION('',(0.,1.,0.));
#558 = DIRECTION('',(-0.,-0.,1.));
#559 = FACE_BOUND('',#560,.F.);
#560 = EDGE_LOOP('',(#561));
#561 = ORIENTED_EDGE('',*,*,#562,.F.);
#562 = EDGE_CURVE('',#563,#563,#565,.T.);
#563 = VERTEX_POINT('',#564);
#564 = CARTESIAN_POINT('',(12.,-146.9,0.8));
#565 = CIRCLE('',#566,0.8);
#566 = AXIS2_PLACEMENT_3D('',#567,#568,#569);
#567 = CARTESIAN_POINT('',(12.,-146.9,0.));
#568 = DIRECTION('',(0.,1.,0.));
#569 = DIRECTION('',(-0.,-0.,1.));
#570 = PLANE('',#571);
#571 = AXIS2_PLACEMENT_3D('',#572,#573,#574);
#572 = CARTESIAN_POINT('',(0.,-146.9,0.));
#573 = DIRECTION('',(-0.,-1.,-0.));
#574 = DIRECTION('',(0.,0.,-1.));
#575 = ADVANCED_FACE('',(#576,#648),#659,.T.);
#576 = FACE_BOUND('',#577,.F.);
#577 = EDGE_LOOP('',(#578,#587,#588,#589,#598,#606,#615,#624,#633,#642)
  );
#578 = ORIENTED_EDGE('',*,*,#579,.F.);
#579 = EDGE_CURVE('',#202,#580,#582,.T.);
#580 = VERTEX_POINT('',#581);
#581 = CARTESIAN_POINT('',(9.,-139.6,16.));
#582 = CIRCLE('',#583,3.);
#583 = AXIS2_PLACEMENT_3D('',#584,#585,#586);
#584 = CARTESIAN_POINT('',(12.,-139.6,16.));
#585 = DIRECTION('',(0.,1.,0.));
#586 = DIRECTION('',(-0.,-0.,1.));
#587 = ORIENTED_EDGE('',*,*,#199,.F.);
#588 = ORIENTED_EDGE('',*,*,#210,.F.);
#589 = ORIENTED_EDGE('',*,*,#590,.T.);
#590 = EDGE_CURVE('',#211,#591,#593,.T.);
#591 = VERTEX_POINT('',#592);
#592 = CARTESIAN_POINT('',(-9.,-139.6,16.));
#593 = CIRCLE('',#594,3.);
#594 = AXIS2_PLACEMENT_3D('',#595,#596,#597);
#595 = CARTESIAN_POINT('',(-12.,-139.6,16.));
#596 = DIRECTION('',(0.,-1.,0.));
#597 = DIRECTION('',(-0.,-0.,1.));
#598 = ORIENTED_EDGE('',*,*,#599,.T.);
#599 = EDGE_CURVE('',#591,#600,#602,.T.);
#600 = VERTEX_POINT('',#601);
#601 = CARTESIAN_POINT('',(-9.,-139.6,34.416994755742));
#602 = LINE('',#603,#604);
#603 = CARTESIAN_POINT('',(-9.,-139.6,0.));
#604 = VECTOR('',#605,1.);
#605 = DIRECTION('',(-0.,-0.,1.));
#606 = ORIENTED_EDGE('',*,*,#607,.T.);
#607 = EDGE_CURVE('',#600,#608,#610,.T.);
#608 = VERTEX_POINT('',#609);
#609 = CARTESIAN_POINT('',(-9.75,-139.6,36.40130823904));
#610 = CIRCLE('',#611,3.);
#611 = AXIS2_PLACEMENT_3D('',#612,#613,#614);
#612 = CARTESIAN_POINT('',(-12.,-139.6,34.416994755742));
#613 = DIRECTION('',(0.,-1.,0.));
#614 = DIRECTION('',(-0.,-0.,1.));
#615 = ORIENTED_EDGE('',*,*,#616,.T.);
#616 = EDGE_CURVE('',#608,#617,#619,.T.);
#617 = VERTEX_POINT('',#618);
#618 = CARTESIAN_POINT('',(-3.184081677783E-15,-139.6,58.));
#619 = CIRCLE('',#620,13.);
#620 = AXIS2_PLACEMENT_3D('',#621,#622,#623);
#621 = CARTESIAN_POINT('',(0.,-139.6,45.));
#622 = DIRECTION('',(0.,1.,0.));
#623 = DIRECTION('',(-0.,-0.,1.));
#624 = ORIENTED_EDGE('',*,*,#625,.T.);
#625 = EDGE_CURVE('',#617,#626,#628,.T.);
#626 = VERTEX_POINT('',#627);
#627 = CARTESIAN_POINT('',(9.75,-139.6,36.40130823904));
#628 = CIRCLE('',#629,13.);
#629 = AXIS2_PLACEMENT_3D('',#630,#631,#632);
#630 = CARTESIAN_POINT('',(0.,-139.6,45.));
#631 = DIRECTION('',(0.,1.,0.));
#632 = DIRECTION('',(-0.,-0.,1.));
#633 = ORIENTED_EDGE('',*,*,#634,.F.);
#634 = EDGE_CURVE('',#635,#626,#637,.T.);
#635 = VERTEX_POINT('',#636);
#636 = CARTESIAN_POINT('',(9.,-139.6,34.416994755742));
#637 = CIRCLE('',#638,3.);
#638 = AXIS2_PLACEMENT_3D('',#639,#640,#641);
#639 = CARTESIAN_POINT('',(12.,-139.6,34.416994755742));
#640 = DIRECTION('',(0.,1.,0.));
#641 = DIRECTION('',(-0.,-0.,1.));
#642 = ORIENTED_EDGE('',*,*,#643,.F.);
#643 = EDGE_CURVE('',#580,#635,#644,.T.);
#644 = LINE('',#645,#646);
#645 = CARTESIAN_POINT('',(9.,-139.6,0.));
#646 = VECTOR('',#647,1.);
#647 = DIRECTION('',(-0.,-0.,1.));
#648 = FACE_BOUND('',#649,.F.);
#649 = EDGE_LOOP('',(#650));
#650 = ORIENTED_EDGE('',*,*,#651,.F.);
#651 = EDGE_CURVE('',#652,#652,#654,.T.);
#652 = VERTEX_POINT('',#653);
#653 = CARTESIAN_POINT('',(-9.797174393179E-16,-139.6,49.));
#654 = CIRCLE('',#655,4.);
#655 = AXIS2_PLACEMENT_3D('',#656,#657,#658);
#656 = CARTESIAN_POINT('',(0.,-139.6,45.));
#657 = DIRECTION('',(0.,1.,0.));
#658 = DIRECTION('',(-0.,-0.,1.));
#659 = PLANE('',#660);
#660 = AXIS2_PLACEMENT_3D('',#661,#662,#663);
#661 = CARTESIAN_POINT('',(4.737703237291E-16,-139.6,21.036982346671));
#662 = DIRECTION('',(-0.,-1.,-0.));
#663 = DIRECTION('',(0.,0.,-1.));
#664 = ADVANCED_FACE('',(#665,#677),#688,.T.);
#665 = FACE_BOUND('',#666,.F.);
#666 = EDGE_LOOP('',(#667,#668,#669,#670,#671,#672,#673,#674,#675,#676)
  );
#667 = ORIENTED_EDGE('',*,*,#235,.T.);
#668 = ORIENTED_EDGE('',*,*,#325,.T.);
#669 = ORIENTED_EDGE('',*,*,#375,.T.);
#670 = ORIENTED_EDGE('',*,*,#423,.T.);
#671 = ORIENTED_EDGE('',*,*,#473,.F.);
#672 = ORIENTED_EDGE('',*,*,#486,.F.);
#673 = ORIENTED_EDGE('',*,*,#448,.F.);
#674 = ORIENTED_EDGE('',*,*,#399,.F.);
#675 = ORIENTED_EDGE('',*,*,#350,.F.);
#676 = ORIENTED_EDGE('',*,*,#226,.T.);
#677 = FACE_BOUND('',#678,.F.);
#678 = EDGE_LOOP('',(#679));
#679 = ORIENTED_EDGE('',*,*,#680,.T.);
#680 = EDGE_CURVE('',#681,#681,#683,.T.);
#681 = VERTEX_POINT('',#682);
#682 = CARTESIAN_POINT('',(-9.797174393179E-16,-148.6,49.));
#683 = CIRCLE('',#684,4.);
#684 = AXIS2_PLACEMENT_3D('',#685,#686,#687);
#685 = CARTESIAN_POINT('',(0.,-148.6,45.));
#686 = DIRECTION('',(0.,1.,0.));
#687 = DIRECTION('',(-0.,-0.,1.));
#688 = PLANE('',#689);
#689 = AXIS2_PLACEMENT_3D('',#690,#691,#692);
#690 = CARTESIAN_POINT('',(0.,-148.6,21.036982346671));
#691 = DIRECTION('',(-0.,1.,-0.));
#692 = DIRECTION('',(0.,0.,1.));
#693 = ADVANCED_FACE('',(#694),#713,.F.);
#694 = FACE_BOUND('',#695,.F.);
#695 = EDGE_LOOP('',(#696,#705,#711,#712));
#696 = ORIENTED_EDGE('',*,*,#697,.T.);
#697 = EDGE_CURVE('',#259,#698,#700,.T.);
#698 = VERTEX_POINT('',#699);
#699 = CARTESIAN_POINT('',(-9.,-136.6,16.));
#700 = CIRCLE('',#701,3.);
#701 = AXIS2_PLACEMENT_3D('',#702,#703,#704);
#702 = CARTESIAN_POINT('',(-12.,-136.6,16.));
#703 = DIRECTION('',(0.,-1.,0.));
#704 = DIRECTION('',(-0.,-0.,1.));
#705 = ORIENTED_EDGE('',*,*,#706,.T.);
#706 = EDGE_CURVE('',#698,#591,#707,.T.);
#707 = LINE('',#708,#709);
#708 = CARTESIAN_POINT('',(-9.,-136.6,16.));
#709 = VECTOR('',#710,1.);
#710 = DIRECTION('',(-0.,-1.,-0.));
#711 = ORIENTED_EDGE('',*,*,#590,.F.);
#712 = ORIENTED_EDGE('',*,*,#258,.F.);
#713 = CYLINDRICAL_SURFACE('',#714,3.);
#714 = AXIS2_PLACEMENT_3D('',#715,#716,#717);
#715 = CARTESIAN_POINT('',(-12.,-136.6,16.));
#716 = DIRECTION('',(-0.,-1.,-0.));
#717 = DIRECTION('',(0.6,-0.,-0.8));
#718 = ADVANCED_FACE('',(#719,#782,#793),#804,.T.);
#719 = FACE_BOUND('',#720,.F.);
#720 = EDGE_LOOP('',(#721,#722,#731,#739,#748,#757,#766,#775,#781));
#721 = ORIENTED_EDGE('',*,*,#266,.F.);
#722 = ORIENTED_EDGE('',*,*,#723,.T.);
#723 = EDGE_CURVE('',#267,#724,#726,.T.);
#724 = VERTEX_POINT('',#725);
#725 = CARTESIAN_POINT('',(9.,-136.6,16.));
#726 = CIRCLE('',#727,3.);
#727 = AXIS2_PLACEMENT_3D('',#728,#729,#730);
#728 = CARTESIAN_POINT('',(12.,-136.6,16.));
#729 = DIRECTION('',(0.,1.,0.));
#730 = DIRECTION('',(-0.,-0.,1.));
#731 = ORIENTED_EDGE('',*,*,#732,.T.);
#732 = EDGE_CURVE('',#724,#733,#735,.T.);
#733 = VERTEX_POINT('',#734);
#734 = CARTESIAN_POINT('',(9.,-136.6,34.416994755742));
#735 = LINE('',#736,#737);
#736 = CARTESIAN_POINT('',(9.,-136.6,0.));
#737 = VECTOR('',#738,1.);
#738 = DIRECTION('',(-0.,-0.,1.));
#739 = ORIENTED_EDGE('',*,*,#740,.T.);
#740 = EDGE_CURVE('',#733,#741,#743,.T.);
#741 = VERTEX_POINT('',#742);
#742 = CARTESIAN_POINT('',(9.75,-136.6,36.40130823904));
#743 = CIRCLE('',#744,3.);
#744 = AXIS2_PLACEMENT_3D('',#745,#746,#747);
#745 = CARTESIAN_POINT('',(12.,-136.6,34.416994755742));
#746 = DIRECTION('',(0.,1.,0.));
#747 = DIRECTION('',(-0.,-0.,1.));
#748 = ORIENTED_EDGE('',*,*,#749,.F.);
#749 = EDGE_CURVE('',#750,#741,#752,.T.);
#750 = VERTEX_POINT('',#751);
#751 = CARTESIAN_POINT('',(-3.184081677783E-15,-136.6,58.));
#752 = CIRCLE('',#753,13.);
#753 = AXIS2_PLACEMENT_3D('',#754,#755,#756);
#754 = CARTESIAN_POINT('',(0.,-136.6,45.));
#755 = DIRECTION('',(0.,1.,0.));
#756 = DIRECTION('',(-0.,-0.,1.));
#757 = ORIENTED_EDGE('',*,*,#758,.F.);
#758 = EDGE_CURVE('',#759,#750,#761,.T.);
#759 = VERTEX_POINT('',#760);
#760 = CARTESIAN_POINT('',(-9.75,-136.6,36.40130823904));
#761 = CIRCLE('',#762,13.);
#762 = AXIS2_PLACEMENT_3D('',#763,#764,#765);
#763 = CARTESIAN_POINT('',(0.,-136.6,45.));
#764 = DIRECTION('',(0.,1.,0.));
#765 = DIRECTION('',(-0.,-0.,1.));
#766 = ORIENTED_EDGE('',*,*,#767,.F.);
#767 = EDGE_CURVE('',#768,#759,#770,.T.);
#768 = VERTEX_POINT('',#769);
#769 = CARTESIAN_POINT('',(-9.,-136.6,34.416994755742));
#770 = CIRCLE('',#771,3.);
#771 = AXIS2_PLACEMENT_3D('',#772,#773,#774);
#772 = CARTESIAN_POINT('',(-12.,-136.6,34.416994755742));
#773 = DIRECTION('',(0.,-1.,0.));
#774 = DIRECTION('',(-0.,-0.,1.));
#775 = ORIENTED_EDGE('',*,*,#776,.F.);
#776 = EDGE_CURVE('',#698,#768,#777,.T.);
#777 = LINE('',#778,#779);
#778 = CARTESIAN_POINT('',(-9.,-136.6,0.));
#779 = VECTOR('',#780,1.);
#780 = DIRECTION('',(-0.,-0.,1.));
#781 = ORIENTED_EDGE('',*,*,#697,.F.);
#782 = FACE_BOUND('',#783,.F.);
#783 = EDGE_LOOP('',(#784));
#784 = ORIENTED_EDGE('',*,*,#785,.T.);
#785 = EDGE_CURVE('',#786,#786,#788,.T.);
#786 = VERTEX_POINT('',#787);
#787 = CARTESIAN_POINT('',(-1.126675055216E-15,-136.6,49.6));
#788 = CIRCLE('',#789,4.6);
#789 = AXIS2_PLACEMENT_3D('',#790,#791,#792);
#790 = CARTESIAN_POINT('',(0.,-136.6,45.));
#791 = DIRECTION('',(0.,1.,0.));
#792 = DIRECTION('',(-0.,-0.,1.));
#793 = FACE_BOUND('',#794,.F.);
#794 = EDGE_LOOP('',(#795));
#795 = ORIENTED_EDGE('',*,*,#796,.T.);
#796 = EDGE_CURVE('',#797,#797,#799,.T.);
#797 = VERTEX_POINT('',#798);
#798 = CARTESIAN_POINT('',(-2.32682891838E-15,-136.6,9.5));
#799 = CIRCLE('',#800,9.5);
#800 = AXIS2_PLACEMENT_3D('',#801,#802,#803);
#801 = CARTESIAN_POINT('',(0.,-136.6,0.));
#802 = DIRECTION('',(0.,1.,0.));
#803 = DIRECTION('',(-0.,-0.,1.));
#804 = PLANE('',#805);
#805 = AXIS2_PLACEMENT_3D('',#806,#807,#808);
#806 = CARTESIAN_POINT('',(0.,-136.6,21.036982346671));
#807 = DIRECTION('',(-0.,1.,-0.));
#808 = DIRECTION('',(0.,0.,1.));
#809 = ADVANCED_FACE('',(#810),#821,.F.);
#810 = FACE_BOUND('',#811,.T.);
#811 = EDGE_LOOP('',(#812,#813,#819,#820));
#812 = ORIENTED_EDGE('',*,*,#723,.T.);
#813 = ORIENTED_EDGE('',*,*,#814,.T.);
#814 = EDGE_CURVE('',#724,#580,#815,.T.);
#815 = LINE('',#816,#817);
#816 = CARTESIAN_POINT('',(9.,-136.6,16.));
#817 = VECTOR('',#818,1.);
#818 = DIRECTION('',(-0.,-1.,-0.));
#819 = ORIENTED_EDGE('',*,*,#579,.F.);
#820 = ORIENTED_EDGE('',*,*,#275,.F.);
#821 = CYLINDRICAL_SURFACE('',#822,3.);
#822 = AXIS2_PLACEMENT_3D('',#823,#824,#825);
#823 = CARTESIAN_POINT('',(12.,-136.6,16.));
#824 = DIRECTION('',(-0.,-1.,-0.));
#825 = DIRECTION('',(-0.6,-0.,-0.8));
#826 = ADVANCED_FACE('',(#827,#873,#884,#937,#990,#1001,#1012),#1065,.T.
  );
#827 = FACE_BOUND('',#828,.F.);
#828 = EDGE_LOOP('',(#829,#830,#839,#848,#857,#866));
#829 = ORIENTED_EDGE('',*,*,#283,.F.);
#830 = ORIENTED_EDGE('',*,*,#831,.T.);
#831 = EDGE_CURVE('',#284,#832,#834,.T.);
#832 = VERTEX_POINT('',#833);
#833 = CARTESIAN_POINT('',(18.,-148.1,-77.));
#834 = B_SPLINE_CURVE_WITH_KNOTS('',3,(#835,#836,#837,#838),
  .UNSPECIFIED.,.F.,.F.,(4,4),(0.,1.),.PIECEWISE_BEZIER_KNOTS.);
#835 = CARTESIAN_POINT('',(17.,-148.1,0.));
#836 = CARTESIAN_POINT('',(17.,-148.1,-26.));
#837 = CARTESIAN_POINT('',(16.,-148.1,-52.));
#838 = CARTESIAN_POINT('',(18.,-148.1,-77.));
#839 = ORIENTED_EDGE('',*,*,#840,.T.);
#840 = EDGE_CURVE('',#832,#841,#843,.T.);
#841 = VERTEX_POINT('',#842);
#842 = CARTESIAN_POINT('',(22.,-148.1,-105.));
#843 = B_SPLINE_CURVE_WITH_KNOTS('',3,(#844,#845,#846,#847),
  .UNSPECIFIED.,.F.,.F.,(4,4),(0.,1.),.PIECEWISE_BEZIER_KNOTS.);
#844 = CARTESIAN_POINT('',(18.,-148.1,-77.));
#845 = CARTESIAN_POINT('',(19.,-148.1,-91.));
#846 = CARTESIAN_POINT('',(22.,-148.1,-92.));
#847 = CARTESIAN_POINT('',(22.,-148.1,-105.));
#848 = ORIENTED_EDGE('',*,*,#849,.T.);
#849 = EDGE_CURVE('',#841,#850,#852,.T.);
#850 = VERTEX_POINT('',#851);
#851 = CARTESIAN_POINT('',(-22.,-148.1,-105.));
#852 = CIRCLE('',#853,22.);
#853 = AXIS2_PLACEMENT_3D('',#854,#855,#856);
#854 = CARTESIAN_POINT('',(0.,-148.1,-105.));
#855 = DIRECTION('',(0.,1.,-0.));
#856 = DIRECTION('',(1.,-0.,-0.));
#857 = ORIENTED_EDGE('',*,*,#858,.T.);
#858 = EDGE_CURVE('',#850,#859,#861,.T.);
#859 = VERTEX_POINT('',#860);
#860 = CARTESIAN_POINT('',(-15.,-148.1,-77.));
#861 = B_SPLINE_CURVE_WITH_KNOTS('',3,(#862,#863,#864,#865),
  .UNSPECIFIED.,.F.,.F.,(4,4),(0.,1.),.PIECEWISE_BEZIER_KNOTS.);
#862 = CARTESIAN_POINT('',(-22.,-148.1,-105.));
#863 = CARTESIAN_POINT('',(-22.,-148.1,-92.));
#864 = CARTESIAN_POINT('',(-15.,-148.1,-89.));
#865 = CARTESIAN_POINT('',(-15.,-148.1,-77.));
#866 = ORIENTED_EDGE('',*,*,#867,.T.);
#867 = EDGE_CURVE('',#859,#286,#868,.T.);
#868 = B_SPLINE_CURVE_WITH_KNOTS('',3,(#869,#870,#871,#872),
  .UNSPECIFIED.,.F.,.F.,(4,4),(0.,1.),.PIECEWISE_BEZIER_KNOTS.);
#869 = CARTESIAN_POINT('',(-15.,-148.1,-77.));
#870 = CARTESIAN_POINT('',(-15.,-148.1,-52.));
#871 = CARTESIAN_POINT('',(-17.,-148.1,-26.));
#872 = CARTESIAN_POINT('',(-17.,-148.1,0.));
#873 = FACE_BOUND('',#874,.F.);
#874 = EDGE_LOOP('',(#875));
#875 = ORIENTED_EDGE('',*,*,#876,.F.);
#876 = EDGE_CURVE('',#877,#877,#879,.T.);
#877 = VERTEX_POINT('',#878);
#878 = CARTESIAN_POINT('',(-7.577722283114,-148.1,-107.675));
#879 = CIRCLE('',#880,1.7);
#880 = AXIS2_PLACEMENT_3D('',#881,#882,#883);
#881 = CARTESIAN_POINT('',(-7.577722283114,-148.1,-109.375));
#882 = DIRECTION('',(0.,1.,0.));
#883 = DIRECTION('',(-0.,-0.,1.));
#884 = FACE_BOUND('',#885,.F.);
#885 = EDGE_LOOP('',(#886,#896,#905,#913,#922,#930));
#886 = ORIENTED_EDGE('',*,*,#887,.T.);
#887 = EDGE_CURVE('',#888,#890,#892,.T.);
#888 = VERTEX_POINT('',#889);
#889 = CARTESIAN_POINT('',(3.171572875254,-148.1,-66.));
#890 = VERTEX_POINT('',#891);
#891 = CARTESIAN_POINT('',(-4.,-148.1,-66.));
#892 = LINE('',#893,#894);
#893 = CARTESIAN_POINT('',(-1.826929761958,-148.1,-66.));
#894 = VECTOR('',#895,1.);
#895 = DIRECTION('',(-1.,-0.,-0.));
#896 = ORIENTED_EDGE('',*,*,#897,.T.);
#897 = EDGE_CURVE('',#890,#898,#900,.T.);
#898 = VERTEX_POINT('',#899);
#899 = CARTESIAN_POINT('',(-6.,-148.1,-68.));
#900 = CIRCLE('',#901,2.);
#901 = AXIS2_PLACEMENT_3D('',#902,#903,#904);
#902 = CARTESIAN_POINT('',(-4.,-148.1,-68.));
#903 = DIRECTION('',(0.,-1.,0.));
#904 = DIRECTION('',(-1.,-0.,-0.));
#905 = ORIENTED_EDGE('',*,*,#906,.T.);
#906 = EDGE_CURVE('',#898,#907,#909,.T.);
#907 = VERTEX_POINT('',#908);
#908 = CARTESIAN_POINT('',(-6.,-148.1,-75.17157287525));
#909 = LINE('',#910,#911);
#910 = CARTESIAN_POINT('',(-6.,-148.1,-65.62608092916));
#911 = VECTOR('',#912,1.);
#912 = DIRECTION('',(-0.,-0.,-1.));
#913 = ORIENTED_EDGE('',*,*,#914,.T.);
#914 = EDGE_CURVE('',#907,#915,#917,.T.);
#915 = VERTEX_POINT('',#916);
#916 = CARTESIAN_POINT('',(-2.585786437627,-148.1,-76.58578643762));
#917 = CIRCLE('',#918,2.);
#918 = AXIS2_PLACEMENT_3D('',#919,#920,#921);
#919 = CARTESIAN_POINT('',(-4.,-148.1,-75.17157287525));
#920 = DIRECTION('',(-0.,-1.,0.));
#921 = DIRECTION('',(0.707106781187,-0.,-0.707106781187));
#922 = ORIENTED_EDGE('',*,*,#923,.T.);
#923 = EDGE_CURVE('',#915,#924,#926,.T.);
#924 = VERTEX_POINT('',#925);
#925 = CARTESIAN_POINT('',(4.585786437627,-148.1,-69.41421356237));
#926 = LINE('',#927,#928);
#927 = CARTESIAN_POINT('',(6.859281092065,-148.1,-67.14071890793));
#928 = VECTOR('',#929,1.);
#929 = DIRECTION('',(0.707106781187,-0.,0.707106781187));
#930 = ORIENTED_EDGE('',*,*,#931,.T.);
#931 = EDGE_CURVE('',#924,#888,#932,.T.);
#932 = CIRCLE('',#933,2.);
#933 = AXIS2_PLACEMENT_3D('',#934,#935,#936);
#934 = CARTESIAN_POINT('',(3.171572875254,-148.1,-68.));
#935 = DIRECTION('',(0.,-1.,-0.));
#936 = DIRECTION('',(4.440892098501E-16,-0.,1.));
#937 = FACE_BOUND('',#938,.F.);
#938 = EDGE_LOOP('',(#939,#949,#958,#966,#975,#983));
#939 = ORIENTED_EDGE('',*,*,#940,.T.);
#940 = EDGE_CURVE('',#941,#943,#945,.T.);
#941 = VERTEX_POINT('',#942);
#942 = CARTESIAN_POINT('',(2.171572875254,-148.1,-26.));
#943 = VERTEX_POINT('',#944);
#944 = CARTESIAN_POINT('',(-5.,-148.1,-26.));
#945 = LINE('',#946,#947);
#946 = CARTESIAN_POINT('',(-2.326929761958,-148.1,-26.));
#947 = VECTOR('',#948,1.);
#948 = DIRECTION('',(-1.,-0.,-0.));
#949 = ORIENTED_EDGE('',*,*,#950,.T.);
#950 = EDGE_CURVE('',#943,#951,#953,.T.);
#951 = VERTEX_POINT('',#952);
#952 = CARTESIAN_POINT('',(-7.,-148.1,-28.));
#953 = CIRCLE('',#954,2.);
#954 = AXIS2_PLACEMENT_3D('',#955,#956,#957);
#955 = CARTESIAN_POINT('',(-5.,-148.1,-28.));
#956 = DIRECTION('',(0.,-1.,0.));
#957 = DIRECTION('',(-1.,-0.,-0.));
#958 = ORIENTED_EDGE('',*,*,#959,.T.);
#959 = EDGE_CURVE('',#951,#960,#962,.T.);
#960 = VERTEX_POINT('',#961);
#961 = CARTESIAN_POINT('',(-7.,-148.1,-35.17157287525));
#962 = LINE('',#963,#964);
#963 = CARTESIAN_POINT('',(-7.,-148.1,-45.62608092916));
#964 = VECTOR('',#965,1.);
#965 = DIRECTION('',(-0.,-0.,-1.));
#966 = ORIENTED_EDGE('',*,*,#967,.T.);
#967 = EDGE_CURVE('',#960,#968,#970,.T.);
#968 = VERTEX_POINT('',#969);
#969 = CARTESIAN_POINT('',(-3.585786437627,-148.1,-36.58578643762));
#970 = CIRCLE('',#971,2.);
#971 = AXIS2_PLACEMENT_3D('',#972,#973,#974);
#972 = CARTESIAN_POINT('',(-5.,-148.1,-35.17157287525));
#973 = DIRECTION('',(-0.,-1.,0.));
#974 = DIRECTION('',(0.707106781187,-0.,-0.707106781187));
#975 = ORIENTED_EDGE('',*,*,#976,.T.);
#976 = EDGE_CURVE('',#968,#977,#979,.T.);
#977 = VERTEX_POINT('',#978);
#978 = CARTESIAN_POINT('',(3.585786437627,-148.1,-29.41421356237));
#979 = LINE('',#980,#981);
#980 = CARTESIAN_POINT('',(-3.890718907935,-148.1,-36.89071890793));
#981 = VECTOR('',#982,1.);
#982 = DIRECTION('',(0.707106781187,-0.,0.707106781187));
#983 = ORIENTED_EDGE('',*,*,#984,.T.);
#984 = EDGE_CURVE('',#977,#941,#985,.T.);
#985 = CIRCLE('',#986,2.);
#986 = AXIS2_PLACEMENT_3D('',#987,#988,#989);
#987 = CARTESIAN_POINT('',(2.171572875254,-148.1,-28.));
#988 = DIRECTION('',(0.,-1.,-0.));
#989 = DIRECTION('',(4.440892098501E-16,-0.,1.));
#990 = FACE_BOUND('',#991,.F.);
#991 = EDGE_LOOP('',(#992));
#992 = ORIENTED_EDGE('',*,*,#993,.F.);
#993 = EDGE_CURVE('',#994,#994,#996,.T.);
#994 = VERTEX_POINT('',#995);
#995 = CARTESIAN_POINT('',(1.194030629169E-16,-148.1,-94.55));
#996 = CIRCLE('',#997,1.7);
#997 = AXIS2_PLACEMENT_3D('',#998,#999,#1000);
#998 = CARTESIAN_POINT('',(5.35782974627E-16,-148.1,-96.25));
#999 = DIRECTION('',(0.,1.,0.));
#1000 = DIRECTION('',(-0.,-0.,1.));
#1001 = FACE_BOUND('',#1002,.F.);
#1002 = EDGE_LOOP('',(#1003));
#1003 = ORIENTED_EDGE('',*,*,#1004,.F.);
#1004 = EDGE_CURVE('',#1005,#1005,#1007,.T.);
#1005 = VERTEX_POINT('',#1006);
#1006 = CARTESIAN_POINT('',(7.577722283114,-148.1,-107.675));
#1007 = CIRCLE('',#1008,1.7);
#1008 = AXIS2_PLACEMENT_3D('',#1009,#1010,#1011);
#1009 = CARTESIAN_POINT('',(7.577722283114,-148.1,-109.375));
#1010 = DIRECTION('',(0.,1.,0.));
#1011 = DIRECTION('',(-0.,-0.,1.));
#1012 = FACE_BOUND('',#1013,.F.);
#1013 = EDGE_LOOP('',(#1014,#1024,#1033,#1041,#1050,#1058));
#1014 = ORIENTED_EDGE('',*,*,#1015,.T.);
#1015 = EDGE_CURVE('',#1016,#1018,#1020,.T.);
#1016 = VERTEX_POINT('',#1017);
#1017 = CARTESIAN_POINT('',(7.,-148.1,-57.));
#1018 = VERTEX_POINT('',#1019);
#1019 = CARTESIAN_POINT('',(7.,-148.1,-47.57467364936));
#1020 = LINE('',#1021,#1022);
#1021 = CARTESIAN_POINT('',(7.,-148.1,-51.82763131622));
#1022 = VECTOR('',#1023,1.);
#1023 = DIRECTION('',(-0.,-0.,1.));
#1024 = ORIENTED_EDGE('',*,*,#1025,.T.);
#1025 = EDGE_CURVE('',#1018,#1026,#1028,.T.);
#1026 = VERTEX_POINT('',#1027);
#1027 = CARTESIAN_POINT('',(3.456139528766,-148.1,-46.30325914364));
#1028 = CIRCLE('',#1029,2.);
#1029 = AXIS2_PLACEMENT_3D('',#1030,#1031,#1032);
#1030 = CARTESIAN_POINT('',(5.,-148.1,-47.57467364936));
#1031 = DIRECTION('',(0.,-1.,0.));
#1032 = DIRECTION('',(-0.771930235617,-0.,0.635707252861));
#1033 = ORIENTED_EDGE('',*,*,#1034,.T.);
#1034 = EDGE_CURVE('',#1026,#1035,#1037,.T.);
#1035 = VERTEX_POINT('',#1036);
#1036 = CARTESIAN_POINT('',(-4.305893936464,-148.1,-55.72858549427));
#1037 = LINE('',#1038,#1039);
#1038 = CARTESIAN_POINT('',(-3.452263096748,-148.1,-54.69203376033));
#1039 = VECTOR('',#1040,1.);
#1040 = DIRECTION('',(-0.635707252861,-0.,-0.771930235617));
#1041 = ORIENTED_EDGE('',*,*,#1042,.T.);
#1042 = EDGE_CURVE('',#1035,#1043,#1045,.T.);
#1043 = VERTEX_POINT('',#1044);
#1044 = CARTESIAN_POINT('',(-2.76203346523,-148.1,-59.));
#1045 = CIRCLE('',#1046,2.);
#1046 = AXIS2_PLACEMENT_3D('',#1047,#1048,#1049);
#1047 = CARTESIAN_POINT('',(-2.76203346523,-148.1,-57.));
#1048 = DIRECTION('',(-0.,-1.,0.));
#1049 = DIRECTION('',(4.440892098501E-16,-0.,-1.));
#1050 = ORIENTED_EDGE('',*,*,#1051,.T.);
#1051 = EDGE_CURVE('',#1043,#1052,#1054,.T.);
#1052 = VERTEX_POINT('',#1053);
#1053 = CARTESIAN_POINT('',(5.,-148.1,-59.));
#1054 = LINE('',#1055,#1056);
#1055 = CARTESIAN_POINT('',(2.673070238042,-148.1,-59.));
#1056 = VECTOR('',#1057,1.);
#1057 = DIRECTION('',(1.,-0.,-0.));
#1058 = ORIENTED_EDGE('',*,*,#1059,.T.);
#1059 = EDGE_CURVE('',#1052,#1016,#1060,.T.);
#1060 = CIRCLE('',#1061,2.);
#1061 = AXIS2_PLACEMENT_3D('',#1062,#1063,#1064);
#1062 = CARTESIAN_POINT('',(5.,-148.1,-57.));
#1063 = DIRECTION('',(-0.,-1.,0.));
#1064 = DIRECTION('',(1.,-0.,-3.5527136788E-15));
#1065 = PLANE('',#1066);
#1066 = AXIS2_PLACEMENT_3D('',#1067,#1068,#1069);
#1067 = CARTESIAN_POINT('',(0.346140476083,-148.1,-56.08058898307));
#1068 = DIRECTION('',(-0.,-1.,-0.));
#1069 = DIRECTION('',(0.,0.,-1.));
#1070 = ADVANCED_FACE('',(#1071),#1090,.T.);
#1071 = FACE_BOUND('',#1072,.T.);
#1072 = EDGE_LOOP('',(#1073,#1074,#1075,#1083));
#1073 = ORIENTED_EDGE('',*,*,#294,.T.);
#1074 = ORIENTED_EDGE('',*,*,#831,.T.);
#1075 = ORIENTED_EDGE('',*,*,#1076,.F.);
#1076 = EDGE_CURVE('',#1077,#832,#1079,.T.);
#1077 = VERTEX_POINT('',#1078);
#1078 = CARTESIAN_POINT('',(18.,-140.1,-77.));
#1079 = LINE('',#1080,#1081);
#1080 = CARTESIAN_POINT('',(18.,-140.1,-77.));
#1081 = VECTOR('',#1082,1.);
#1082 = DIRECTION('',(-0.,-1.,-0.));
#1083 = ORIENTED_EDGE('',*,*,#1084,.F.);
#1084 = EDGE_CURVE('',#295,#1077,#1085,.T.);
#1085 = B_SPLINE_CURVE_WITH_KNOTS('',3,(#1086,#1087,#1088,#1089),
  .UNSPECIFIED.,.F.,.F.,(4,4),(0.,1.),.PIECEWISE_BEZIER_KNOTS.);
#1086 = CARTESIAN_POINT('',(17.,-140.1,0.));
#1087 = CARTESIAN_POINT('',(17.,-140.1,-26.));
#1088 = CARTESIAN_POINT('',(16.,-140.1,-52.));
#1089 = CARTESIAN_POINT('',(18.,-140.1,-77.));
#1090 = SURFACE_OF_LINEAR_EXTRUSION('',#1091,#1096);
#1091 = B_SPLINE_CURVE_WITH_KNOTS('',3,(#1092,#1093,#1094,#1095),
  .UNSPECIFIED.,.F.,.F.,(4,4),(0.,1.),.PIECEWISE_BEZIER_KNOTS.);
#1092 = CARTESIAN_POINT('',(17.,-140.1,0.));
#1093 = CARTESIAN_POINT('',(17.,-140.1,-26.));
#1094 = CARTESIAN_POINT('',(16.,-140.1,-52.));
#1095 = CARTESIAN_POINT('',(18.,-140.1,-77.));
#1096 = VECTOR('',#1097,1.);
#1097 = DIRECTION('',(-0.,1.,-0.));
#1098 = ADVANCED_FACE('',(#1099,#1137,#1148,#1201,#1254,#1265,#1276),
  #1329,.F.);
#1099 = FACE_BOUND('',#1100,.T.);
#1100 = EDGE_LOOP('',(#1101,#1102,#1103,#1112,#1121,#1130));
#1101 = ORIENTED_EDGE('',*,*,#302,.F.);
#1102 = ORIENTED_EDGE('',*,*,#1084,.T.);
#1103 = ORIENTED_EDGE('',*,*,#1104,.T.);
#1104 = EDGE_CURVE('',#1077,#1105,#1107,.T.);
#1105 = VERTEX_POINT('',#1106);
#1106 = CARTESIAN_POINT('',(22.,-140.1,-105.));
#1107 = B_SPLINE_CURVE_WITH_KNOTS('',3,(#1108,#1109,#1110,#1111),
  .UNSPECIFIED.,.F.,.F.,(4,4),(0.,1.),.PIECEWISE_BEZIER_KNOTS.);
#1108 = CARTESIAN_POINT('',(18.,-140.1,-77.));
#1109 = CARTESIAN_POINT('',(19.,-140.1,-91.));
#1110 = CARTESIAN_POINT('',(22.,-140.1,-92.));
#1111 = CARTESIAN_POINT('',(22.,-140.1,-105.));
#1112 = ORIENTED_EDGE('',*,*,#1113,.T.);
#1113 = EDGE_CURVE('',#1105,#1114,#1116,.T.);
#1114 = VERTEX_POINT('',#1115);
#1115 = CARTESIAN_POINT('',(-22.,-140.1,-105.));
#1116 = CIRCLE('',#1117,22.);
#1117 = AXIS2_PLACEMENT_3D('',#1118,#1119,#1120);
#1118 = CARTESIAN_POINT('',(0.,-140.1,-105.));
#1119 = DIRECTION('',(0.,1.,-0.));
#1120 = DIRECTION('',(1.,-0.,-0.));
#1121 = ORIENTED_EDGE('',*,*,#1122,.T.);
#1122 = EDGE_CURVE('',#1114,#1123,#1125,.T.);
#1123 = VERTEX_POINT('',#1124);
#1124 = CARTESIAN_POINT('',(-15.,-140.1,-77.));
#1125 = B_SPLINE_CURVE_WITH_KNOTS('',3,(#1126,#1127,#1128,#1129),
  .UNSPECIFIED.,.F.,.F.,(4,4),(0.,1.),.PIECEWISE_BEZIER_KNOTS.);
#1126 = CARTESIAN_POINT('',(-22.,-140.1,-105.));
#1127 = CARTESIAN_POINT('',(-22.,-140.1,-92.));
#1128 = CARTESIAN_POINT('',(-15.,-140.1,-89.));
#1129 = CARTESIAN_POINT('',(-15.,-140.1,-77.));
#1130 = ORIENTED_EDGE('',*,*,#1131,.T.);
#1131 = EDGE_CURVE('',#1123,#303,#1132,.T.);
#1132 = B_SPLINE_CURVE_WITH_KNOTS('',3,(#1133,#1134,#1135,#1136),
  .UNSPECIFIED.,.F.,.F.,(4,4),(0.,1.),.PIECEWISE_BEZIER_KNOTS.);
#1133 = CARTESIAN_POINT('',(-15.,-140.1,-77.));
#1134 = CARTESIAN_POINT('',(-15.,-140.1,-52.));
#1135 = CARTESIAN_POINT('',(-17.,-140.1,-26.));
#1136 = CARTESIAN_POINT('',(-17.,-140.1,0.));
#1137 = FACE_BOUND('',#1138,.T.);
#1138 = EDGE_LOOP('',(#1139));
#1139 = ORIENTED_EDGE('',*,*,#1140,.F.);
#1140 = EDGE_CURVE('',#1141,#1141,#1143,.T.);
#1141 = VERTEX_POINT('',#1142);
#1142 = CARTESIAN_POINT('',(-7.577722283114,-140.1,-106.475));
#1143 = CIRCLE('',#1144,2.9);
#1144 = AXIS2_PLACEMENT_3D('',#1145,#1146,#1147);
#1145 = CARTESIAN_POINT('',(-7.577722283114,-140.1,-109.375));
#1146 = DIRECTION('',(0.,1.,0.));
#1147 = DIRECTION('',(-0.,-0.,1.));
#1148 = FACE_BOUND('',#1149,.T.);
#1149 = EDGE_LOOP('',(#1150,#1160,#1169,#1177,#1186,#1194));
#1150 = ORIENTED_EDGE('',*,*,#1151,.T.);
#1151 = EDGE_CURVE('',#1152,#1154,#1156,.T.);
#1152 = VERTEX_POINT('',#1153);
#1153 = CARTESIAN_POINT('',(3.171572875254,-140.1,-66.));
#1154 = VERTEX_POINT('',#1155);
#1155 = CARTESIAN_POINT('',(-4.,-140.1,-66.));
#1156 = LINE('',#1157,#1158);
#1157 = CARTESIAN_POINT('',(-1.826929761958,-140.1,-66.));
#1158 = VECTOR('',#1159,1.);
#1159 = DIRECTION('',(-1.,-0.,-0.));
#1160 = ORIENTED_EDGE('',*,*,#1161,.T.);
#1161 = EDGE_CURVE('',#1154,#1162,#1164,.T.);
#1162 = VERTEX_POINT('',#1163);
#1163 = CARTESIAN_POINT('',(-6.,-140.1,-68.));
#1164 = CIRCLE('',#1165,2.);
#1165 = AXIS2_PLACEMENT_3D('',#1166,#1167,#1168);
#1166 = CARTESIAN_POINT('',(-4.,-140.1,-68.));
#1167 = DIRECTION('',(0.,-1.,0.));
#1168 = DIRECTION('',(-1.,-0.,-0.));
#1169 = ORIENTED_EDGE('',*,*,#1170,.T.);
#1170 = EDGE_CURVE('',#1162,#1171,#1173,.T.);
#1171 = VERTEX_POINT('',#1172);
#1172 = CARTESIAN_POINT('',(-6.,-140.1,-75.17157287525));
#1173 = LINE('',#1174,#1175);
#1174 = CARTESIAN_POINT('',(-6.,-140.1,-65.62608092916));
#1175 = VECTOR('',#1176,1.);
#1176 = DIRECTION('',(-0.,-0.,-1.));
#1177 = ORIENTED_EDGE('',*,*,#1178,.T.);
#1178 = EDGE_CURVE('',#1171,#1179,#1181,.T.);
#1179 = VERTEX_POINT('',#1180);
#1180 = CARTESIAN_POINT('',(-2.585786437627,-140.1,-76.58578643762));
#1181 = CIRCLE('',#1182,2.);
#1182 = AXIS2_PLACEMENT_3D('',#1183,#1184,#1185);
#1183 = CARTESIAN_POINT('',(-4.,-140.1,-75.17157287525));
#1184 = DIRECTION('',(-0.,-1.,0.));
#1185 = DIRECTION('',(0.707106781187,-0.,-0.707106781187));
#1186 = ORIENTED_EDGE('',*,*,#1187,.T.);
#1187 = EDGE_CURVE('',#1179,#1188,#1190,.T.);
#1188 = VERTEX_POINT('',#1189);
#1189 = CARTESIAN_POINT('',(4.585786437627,-140.1,-69.41421356237));
#1190 = LINE('',#1191,#1192);
#1191 = CARTESIAN_POINT('',(6.859281092065,-140.1,-67.14071890793));
#1192 = VECTOR('',#1193,1.);
#1193 = DIRECTION('',(0.707106781187,-0.,0.707106781187));
#1194 = ORIENTED_EDGE('',*,*,#1195,.T.);
#1195 = EDGE_CURVE('',#1188,#1152,#1196,.T.);
#1196 = CIRCLE('',#1197,2.);
#1197 = AXIS2_PLACEMENT_3D('',#1198,#1199,#1200);
#1198 = CARTESIAN_POINT('',(3.171572875254,-140.1,-68.));
#1199 = DIRECTION('',(0.,-1.,-0.));
#1200 = DIRECTION('',(4.440892098501E-16,-0.,1.));
#1201 = FACE_BOUND('',#1202,.T.);
#1202 = EDGE_LOOP('',(#1203,#1213,#1222,#1230,#1239,#1247));
#1203 = ORIENTED_EDGE('',*,*,#1204,.T.);
#1204 = EDGE_CURVE('',#1205,#1207,#1209,.T.);
#1205 = VERTEX_POINT('',#1206);
#1206 = CARTESIAN_POINT('',(2.171572875254,-140.1,-26.));
#1207 = VERTEX_POINT('',#1208);
#1208 = CARTESIAN_POINT('',(-5.,-140.1,-26.));
#1209 = LINE('',#1210,#1211);
#1210 = CARTESIAN_POINT('',(-2.326929761958,-140.1,-26.));
#1211 = VECTOR('',#1212,1.);
#1212 = DIRECTION('',(-1.,-0.,-0.));
#1213 = ORIENTED_EDGE('',*,*,#1214,.T.);
#1214 = EDGE_CURVE('',#1207,#1215,#1217,.T.);
#1215 = VERTEX_POINT('',#1216);
#1216 = CARTESIAN_POINT('',(-7.,-140.1,-28.));
#1217 = CIRCLE('',#1218,2.);
#1218 = AXIS2_PLACEMENT_3D('',#1219,#1220,#1221);
#1219 = CARTESIAN_POINT('',(-5.,-140.1,-28.));
#1220 = DIRECTION('',(0.,-1.,0.));
#1221 = DIRECTION('',(-1.,-0.,-0.));
#1222 = ORIENTED_EDGE('',*,*,#1223,.T.);
#1223 = EDGE_CURVE('',#1215,#1224,#1226,.T.);
#1224 = VERTEX_POINT('',#1225);
#1225 = CARTESIAN_POINT('',(-7.,-140.1,-35.17157287525));
#1226 = LINE('',#1227,#1228);
#1227 = CARTESIAN_POINT('',(-7.,-140.1,-45.62608092916));
#1228 = VECTOR('',#1229,1.);
#1229 = DIRECTION('',(-0.,-0.,-1.));
#1230 = ORIENTED_EDGE('',*,*,#1231,.T.);
#1231 = EDGE_CURVE('',#1224,#1232,#1234,.T.);
#1232 = VERTEX_POINT('',#1233);
#1233 = CARTESIAN_POINT('',(-3.585786437627,-140.1,-36.58578643762));
#1234 = CIRCLE('',#1235,2.);
#1235 = AXIS2_PLACEMENT_3D('',#1236,#1237,#1238);
#1236 = CARTESIAN_POINT('',(-5.,-140.1,-35.17157287525));
#1237 = DIRECTION('',(-0.,-1.,0.));
#1238 = DIRECTION('',(0.707106781187,-0.,-0.707106781187));
#1239 = ORIENTED_EDGE('',*,*,#1240,.T.);
#1240 = EDGE_CURVE('',#1232,#1241,#1243,.T.);
#1241 = VERTEX_POINT('',#1242);
#1242 = CARTESIAN_POINT('',(3.585786437627,-140.1,-29.41421356237));
#1243 = LINE('',#1244,#1245);
#1244 = CARTESIAN_POINT('',(-3.890718907935,-140.1,-36.89071890793));
#1245 = VECTOR('',#1246,1.);
#1246 = DIRECTION('',(0.707106781187,-0.,0.707106781187));
#1247 = ORIENTED_EDGE('',*,*,#1248,.T.);
#1248 = EDGE_CURVE('',#1241,#1205,#1249,.T.);
#1249 = CIRCLE('',#1250,2.);
#1250 = AXIS2_PLACEMENT_3D('',#1251,#1252,#1253);
#1251 = CARTESIAN_POINT('',(2.171572875254,-140.1,-28.));
#1252 = DIRECTION('',(0.,-1.,-0.));
#1253 = DIRECTION('',(4.440892098501E-16,-0.,1.));
#1254 = FACE_BOUND('',#1255,.T.);
#1255 = EDGE_LOOP('',(#1256));
#1256 = ORIENTED_EDGE('',*,*,#1257,.F.);
#1257 = EDGE_CURVE('',#1258,#1258,#1260,.T.);
#1258 = VERTEX_POINT('',#1259);
#1259 = CARTESIAN_POINT('',(-1.745121688785E-16,-140.1,-93.35));
#1260 = CIRCLE('',#1261,2.9);
#1261 = AXIS2_PLACEMENT_3D('',#1262,#1263,#1264);
#1262 = CARTESIAN_POINT('',(5.35782974627E-16,-140.1,-96.25));
#1263 = DIRECTION('',(0.,1.,0.));
#1264 = DIRECTION('',(-0.,-0.,1.));
#1265 = FACE_BOUND('',#1266,.T.);
#1266 = EDGE_LOOP('',(#1267));
#1267 = ORIENTED_EDGE('',*,*,#1268,.F.);
#1268 = EDGE_CURVE('',#1269,#1269,#1271,.T.);
#1269 = VERTEX_POINT('',#1270);
#1270 = CARTESIAN_POINT('',(7.577722283114,-140.1,-106.475));
#1271 = CIRCLE('',#1272,2.9);
#1272 = AXIS2_PLACEMENT_3D('',#1273,#1274,#1275);
#1273 = CARTESIAN_POINT('',(7.577722283114,-140.1,-109.375));
#1274 = DIRECTION('',(0.,1.,0.));
#1275 = DIRECTION('',(-0.,-0.,1.));
#1276 = FACE_BOUND('',#1277,.T.);
#1277 = EDGE_LOOP('',(#1278,#1288,#1297,#1305,#1314,#1322));
#1278 = ORIENTED_EDGE('',*,*,#1279,.T.);
#1279 = EDGE_CURVE('',#1280,#1282,#1284,.T.);
#1280 = VERTEX_POINT('',#1281);
#1281 = CARTESIAN_POINT('',(7.,-140.1,-57.));
#1282 = VERTEX_POINT('',#1283);
#1283 = CARTESIAN_POINT('',(7.,-140.1,-47.57467364936));
#1284 = LINE('',#1285,#1286);
#1285 = CARTESIAN_POINT('',(7.,-140.1,-51.82763131622));
#1286 = VECTOR('',#1287,1.);
#1287 = DIRECTION('',(-0.,-0.,1.));
#1288 = ORIENTED_EDGE('',*,*,#1289,.T.);
#1289 = EDGE_CURVE('',#1282,#1290,#1292,.T.);
#1290 = VERTEX_POINT('',#1291);
#1291 = CARTESIAN_POINT('',(3.456139528766,-140.1,-46.30325914364));
#1292 = CIRCLE('',#1293,2.);
#1293 = AXIS2_PLACEMENT_3D('',#1294,#1295,#1296);
#1294 = CARTESIAN_POINT('',(5.,-140.1,-47.57467364936));
#1295 = DIRECTION('',(0.,-1.,0.));
#1296 = DIRECTION('',(-0.771930235617,-0.,0.635707252861));
#1297 = ORIENTED_EDGE('',*,*,#1298,.T.);
#1298 = EDGE_CURVE('',#1290,#1299,#1301,.T.);
#1299 = VERTEX_POINT('',#1300);
#1300 = CARTESIAN_POINT('',(-4.305893936464,-140.1,-55.72858549427));
#1301 = LINE('',#1302,#1303);
#1302 = CARTESIAN_POINT('',(-3.452263096748,-140.1,-54.69203376033));
#1303 = VECTOR('',#1304,1.);
#1304 = DIRECTION('',(-0.635707252861,-0.,-0.771930235617));
#1305 = ORIENTED_EDGE('',*,*,#1306,.T.);
#1306 = EDGE_CURVE('',#1299,#1307,#1309,.T.);
#1307 = VERTEX_POINT('',#1308);
#1308 = CARTESIAN_POINT('',(-2.76203346523,-140.1,-59.));
#1309 = CIRCLE('',#1310,2.);
#1310 = AXIS2_PLACEMENT_3D('',#1311,#1312,#1313);
#1311 = CARTESIAN_POINT('',(-2.76203346523,-140.1,-57.));
#1312 = DIRECTION('',(-0.,-1.,0.));
#1313 = DIRECTION('',(4.440892098501E-16,-0.,-1.));
#1314 = ORIENTED_EDGE('',*,*,#1315,.T.);
#1315 = EDGE_CURVE('',#1307,#1316,#1318,.T.);
#1316 = VERTEX_POINT('',#1317);
#1317 = CARTESIAN_POINT('',(5.,-140.1,-59.));
#1318 = LINE('',#1319,#1320);
#1319 = CARTESIAN_POINT('',(2.673070238042,-140.1,-59.));
#1320 = VECTOR('',#1321,1.);
#1321 = DIRECTION('',(1.,-0.,-0.));
#1322 = ORIENTED_EDGE('',*,*,#1323,.T.);
#1323 = EDGE_CURVE('',#1316,#1280,#1324,.T.);
#1324 = CIRCLE('',#1325,2.);
#1325 = AXIS2_PLACEMENT_3D('',#1326,#1327,#1328);
#1326 = CARTESIAN_POINT('',(5.,-140.1,-57.));
#1327 = DIRECTION('',(-0.,-1.,0.));
#1328 = DIRECTION('',(1.,-0.,-3.5527136788E-15));
#1329 = PLANE('',#1330);
#1330 = AXIS2_PLACEMENT_3D('',#1331,#1332,#1333);
#1331 = CARTESIAN_POINT('',(0.346140476083,-140.1,-56.08058898307));
#1332 = DIRECTION('',(-0.,-1.,-0.));
#1333 = DIRECTION('',(0.,0.,-1.));
#1334 = ADVANCED_FACE('',(#1335),#1346,.T.);
#1335 = FACE_BOUND('',#1336,.T.);
#1336 = EDGE_LOOP('',(#1337,#1343,#1344,#1345));
#1337 = ORIENTED_EDGE('',*,*,#1338,.T.);
#1338 = EDGE_CURVE('',#1123,#859,#1339,.T.);
#1339 = LINE('',#1340,#1341);
#1340 = CARTESIAN_POINT('',(-15.,-140.1,-77.));
#1341 = VECTOR('',#1342,1.);
#1342 = DIRECTION('',(-0.,-1.,-0.));
#1343 = ORIENTED_EDGE('',*,*,#867,.T.);
#1344 = ORIENTED_EDGE('',*,*,#311,.F.);
#1345 = ORIENTED_EDGE('',*,*,#1131,.F.);
#1346 = SURFACE_OF_LINEAR_EXTRUSION('',#1347,#1352);
#1347 = B_SPLINE_CURVE_WITH_KNOTS('',3,(#1348,#1349,#1350,#1351),
  .UNSPECIFIED.,.F.,.F.,(4,4),(0.,1.),.PIECEWISE_BEZIER_KNOTS.);
#1348 = CARTESIAN_POINT('',(-15.,-140.1,-77.));
#1349 = CARTESIAN_POINT('',(-15.,-140.1,-52.));
#1350 = CARTESIAN_POINT('',(-17.,-140.1,-26.));
#1351 = CARTESIAN_POINT('',(-17.,-140.1,0.));
#1352 = VECTOR('',#1353,1.);
#1353 = DIRECTION('',(-0.,1.,-0.));
#1354 = ADVANCED_FACE('',(#1355,#1358),#1369,.T.);
#1355 = FACE_BOUND('',#1356,.F.);
#1356 = EDGE_LOOP('',(#1357));
#1357 = ORIENTED_EDGE('',*,*,#510,.T.);
#1358 = FACE_BOUND('',#1359,.F.);
#1359 = EDGE_LOOP('',(#1360));
#1360 = ORIENTED_EDGE('',*,*,#1361,.F.);
#1361 = EDGE_CURVE('',#1362,#1362,#1364,.T.);
#1362 = VERTEX_POINT('',#1363);
#1363 = CARTESIAN_POINT('',(-9.797174393179E-16,-151.1,49.));
#1364 = CIRCLE('',#1365,4.);
#1365 = AXIS2_PLACEMENT_3D('',#1366,#1367,#1368);
#1366 = CARTESIAN_POINT('',(0.,-151.1,45.));
#1367 = DIRECTION('',(0.,1.,0.));
#1368 = DIRECTION('',(-0.,-0.,1.));
#1369 = PLANE('',#1370);
#1370 = AXIS2_PLACEMENT_3D('',#1371,#1372,#1373);
#1371 = CARTESIAN_POINT('',(0.,-151.1,45.));
#1372 = DIRECTION('',(-0.,-1.,-0.));
#1373 = DIRECTION('',(0.,0.,-1.));
#1374 = ADVANCED_FACE('',(#1375),#1394,.F.);
#1375 = FACE_BOUND('',#1376,.T.);
#1376 = EDGE_LOOP('',(#1377,#1378,#1386,#1393));
#1377 = ORIENTED_EDGE('',*,*,#529,.F.);
#1378 = ORIENTED_EDGE('',*,*,#1379,.F.);
#1379 = EDGE_CURVE('',#1380,#530,#1382,.T.);
#1380 = VERTEX_POINT('',#1381);
#1381 = CARTESIAN_POINT('',(-6.,-143.1,-9.592304845413));
#1382 = LINE('',#1383,#1384);
#1383 = CARTESIAN_POINT('',(-6.,-143.1,-9.592304845413));
#1384 = VECTOR('',#1385,1.);
#1385 = DIRECTION('',(-0.,-1.,-0.));
#1386 = ORIENTED_EDGE('',*,*,#1387,.T.);
#1387 = EDGE_CURVE('',#1380,#1380,#1388,.T.);
#1388 = CIRCLE('',#1389,0.8);
#1389 = AXIS2_PLACEMENT_3D('',#1390,#1391,#1392);
#1390 = CARTESIAN_POINT('',(-6.,-143.1,-10.39230484541));
#1391 = DIRECTION('',(0.,1.,0.));
#1392 = DIRECTION('',(-0.,-0.,1.));
#1393 = ORIENTED_EDGE('',*,*,#1379,.T.);
#1394 = CYLINDRICAL_SURFACE('',#1395,0.8);
#1395 = AXIS2_PLACEMENT_3D('',#1396,#1397,#1398);
#1396 = CARTESIAN_POINT('',(-6.,-143.1,-10.39230484541));
#1397 = DIRECTION('',(-0.,-1.,-0.));
#1398 = DIRECTION('',(-0.,-0.,1.));
#1399 = ADVANCED_FACE('',(#1400),#1419,.F.);
#1400 = FACE_BOUND('',#1401,.T.);
#1401 = EDGE_LOOP('',(#1402,#1403,#1411,#1418));
#1402 = ORIENTED_EDGE('',*,*,#540,.F.);
#1403 = ORIENTED_EDGE('',*,*,#1404,.F.);
#1404 = EDGE_CURVE('',#1405,#541,#1407,.T.);
#1405 = VERTEX_POINT('',#1406);
#1406 = CARTESIAN_POINT('',(-2.32682891838E-15,-140.85,9.5));
#1407 = LINE('',#1408,#1409);
#1408 = CARTESIAN_POINT('',(-2.32682891838E-15,-140.85,9.5));
#1409 = VECTOR('',#1410,1.);
#1410 = DIRECTION('',(-0.,-1.,-0.));
#1411 = ORIENTED_EDGE('',*,*,#1412,.T.);
#1412 = EDGE_CURVE('',#1405,#1405,#1413,.T.);
#1413 = CIRCLE('',#1414,9.5);
#1414 = AXIS2_PLACEMENT_3D('',#1415,#1416,#1417);
#1415 = CARTESIAN_POINT('',(0.,-140.85,0.));
#1416 = DIRECTION('',(0.,1.,0.));
#1417 = DIRECTION('',(-0.,-0.,1.));
#1418 = ORIENTED_EDGE('',*,*,#1404,.T.);
#1419 = CYLINDRICAL_SURFACE('',#1420,9.5);
#1420 = AXIS2_PLACEMENT_3D('',#1421,#1422,#1423);
#1421 = CARTESIAN_POINT('',(0.,-140.85,0.));
#1422 = DIRECTION('',(-0.,-1.,-0.));
#1423 = DIRECTION('',(-0.,-0.,1.));
#1424 = ADVANCED_FACE('',(#1425),#1444,.F.);
#1425 = FACE_BOUND('',#1426,.T.);
#1426 = EDGE_LOOP('',(#1427,#1428,#1436,#1443));
#1427 = ORIENTED_EDGE('',*,*,#551,.F.);
#1428 = ORIENTED_EDGE('',*,*,#1429,.F.);
#1429 = EDGE_CURVE('',#1430,#552,#1432,.T.);
#1430 = VERTEX_POINT('',#1431);
#1431 = CARTESIAN_POINT('',(-6.,-143.1,11.192304845413));
#1432 = LINE('',#1433,#1434);
#1433 = CARTESIAN_POINT('',(-6.,-143.1,11.192304845413));
#1434 = VECTOR('',#1435,1.);
#1435 = DIRECTION('',(-0.,-1.,-0.));
#1436 = ORIENTED_EDGE('',*,*,#1437,.T.);
#1437 = EDGE_CURVE('',#1430,#1430,#1438,.T.);
#1438 = CIRCLE('',#1439,0.8);
#1439 = AXIS2_PLACEMENT_3D('',#1440,#1441,#1442);
#1440 = CARTESIAN_POINT('',(-6.,-143.1,10.392304845413));
#1441 = DIRECTION('',(0.,1.,0.));
#1442 = DIRECTION('',(-0.,-0.,1.));
#1443 = ORIENTED_EDGE('',*,*,#1429,.T.);
#1444 = CYLINDRICAL_SURFACE('',#1445,0.8);
#1445 = AXIS2_PLACEMENT_3D('',#1446,#1447,#1448);
#1446 = CARTESIAN_POINT('',(-6.,-143.1,10.392304845413));
#1447 = DIRECTION('',(-0.,-1.,-0.));
#1448 = DIRECTION('',(-0.,-0.,1.));
#1449 = ADVANCED_FACE('',(#1450),#1469,.F.);
#1450 = FACE_BOUND('',#1451,.T.);
#1451 = EDGE_LOOP('',(#1452,#1453,#1461,#1468));
#1452 = ORIENTED_EDGE('',*,*,#562,.F.);
#1453 = ORIENTED_EDGE('',*,*,#1454,.F.);
#1454 = EDGE_CURVE('',#1455,#563,#1457,.T.);
#1455 = VERTEX_POINT('',#1456);
#1456 = CARTESIAN_POINT('',(12.,-143.1,0.8));
#1457 = LINE('',#1458,#1459);
#1458 = CARTESIAN_POINT('',(12.,-143.1,0.8));
#1459 = VECTOR('',#1460,1.);
#1460 = DIRECTION('',(-0.,-1.,-0.));
#1461 = ORIENTED_EDGE('',*,*,#1462,.T.);
#1462 = EDGE_CURVE('',#1455,#1455,#1463,.T.);
#1463 = CIRCLE('',#1464,0.8);
#1464 = AXIS2_PLACEMENT_3D('',#1465,#1466,#1467);
#1465 = CARTESIAN_POINT('',(12.,-143.1,0.));
#1466 = DIRECTION('',(0.,1.,0.));
#1467 = DIRECTION('',(-0.,-0.,1.));
#1468 = ORIENTED_EDGE('',*,*,#1454,.T.);
#1469 = CYLINDRICAL_SURFACE('',#1470,0.8);
#1470 = AXIS2_PLACEMENT_3D('',#1471,#1472,#1473);
#1471 = CARTESIAN_POINT('',(12.,-143.1,0.));
#1472 = DIRECTION('',(-0.,-1.,-0.));
#1473 = DIRECTION('',(-0.,-0.,1.));
#1474 = ADVANCED_FACE('',(#1475),#1486,.T.);
#1475 = FACE_BOUND('',#1476,.F.);
#1476 = EDGE_LOOP('',(#1477,#1478,#1479,#1480));
#1477 = ORIENTED_EDGE('',*,*,#732,.F.);
#1478 = ORIENTED_EDGE('',*,*,#814,.T.);
#1479 = ORIENTED_EDGE('',*,*,#643,.T.);
#1480 = ORIENTED_EDGE('',*,*,#1481,.F.);
#1481 = EDGE_CURVE('',#733,#635,#1482,.T.);
#1482 = LINE('',#1483,#1484);
#1483 = CARTESIAN_POINT('',(9.,-136.6,34.416994755742));
#1484 = VECTOR('',#1485,1.);
#1485 = DIRECTION('',(-0.,-1.,-0.));
#1486 = PLANE('',#1487);
#1487 = AXIS2_PLACEMENT_3D('',#1488,#1489,#1490);
#1488 = CARTESIAN_POINT('',(9.,-136.6,0.));
#1489 = DIRECTION('',(1.,-0.,-0.));
#1490 = DIRECTION('',(0.,0.,-1.));
#1491 = ADVANCED_FACE('',(#1492),#1503,.F.);
#1492 = FACE_BOUND('',#1493,.T.);
#1493 = EDGE_LOOP('',(#1494,#1495,#1501,#1502));
#1494 = ORIENTED_EDGE('',*,*,#740,.T.);
#1495 = ORIENTED_EDGE('',*,*,#1496,.T.);
#1496 = EDGE_CURVE('',#741,#626,#1497,.T.);
#1497 = LINE('',#1498,#1499);
#1498 = CARTESIAN_POINT('',(9.75,-136.6,36.40130823904));
#1499 = VECTOR('',#1500,1.);
#1500 = DIRECTION('',(-0.,-1.,-0.));
#1501 = ORIENTED_EDGE('',*,*,#634,.F.);
#1502 = ORIENTED_EDGE('',*,*,#1481,.F.);
#1503 = CYLINDRICAL_SURFACE('',#1504,3.);
#1504 = AXIS2_PLACEMENT_3D('',#1505,#1506,#1507);
#1505 = CARTESIAN_POINT('',(12.,-136.6,34.416994755742));
#1506 = DIRECTION('',(-0.,-1.,-0.));
#1507 = DIRECTION('',(-1.,-0.,-0.));
#1508 = ADVANCED_FACE('',(#1509),#1522,.T.);
#1509 = FACE_BOUND('',#1510,.F.);
#1510 = EDGE_LOOP('',(#1511,#1512,#1513,#1514,#1515,#1521));
#1511 = ORIENTED_EDGE('',*,*,#749,.T.);
#1512 = ORIENTED_EDGE('',*,*,#1496,.T.);
#1513 = ORIENTED_EDGE('',*,*,#625,.F.);
#1514 = ORIENTED_EDGE('',*,*,#616,.F.);
#1515 = ORIENTED_EDGE('',*,*,#1516,.F.);
#1516 = EDGE_CURVE('',#759,#608,#1517,.T.);
#1517 = LINE('',#1518,#1519);
#1518 = CARTESIAN_POINT('',(-9.75,-136.6,36.40130823904));
#1519 = VECTOR('',#1520,1.);
#1520 = DIRECTION('',(-0.,-1.,-0.));
#1521 = ORIENTED_EDGE('',*,*,#758,.T.);
#1522 = CYLINDRICAL_SURFACE('',#1523,13.);
#1523 = AXIS2_PLACEMENT_3D('',#1524,#1525,#1526);
#1524 = CARTESIAN_POINT('',(0.,-136.6,45.));
#1525 = DIRECTION('',(-0.,-1.,-0.));
#1526 = DIRECTION('',(-0.,-0.,1.));
#1527 = ADVANCED_FACE('',(#1528),#1539,.F.);
#1528 = FACE_BOUND('',#1529,.F.);
#1529 = EDGE_LOOP('',(#1530,#1531,#1532,#1533));
#1530 = ORIENTED_EDGE('',*,*,#767,.T.);
#1531 = ORIENTED_EDGE('',*,*,#1516,.T.);
#1532 = ORIENTED_EDGE('',*,*,#607,.F.);
#1533 = ORIENTED_EDGE('',*,*,#1534,.F.);
#1534 = EDGE_CURVE('',#768,#600,#1535,.T.);
#1535 = LINE('',#1536,#1537);
#1536 = CARTESIAN_POINT('',(-9.,-136.6,34.416994755742));
#1537 = VECTOR('',#1538,1.);
#1538 = DIRECTION('',(-0.,-1.,-0.));
#1539 = CYLINDRICAL_SURFACE('',#1540,3.);
#1540 = AXIS2_PLACEMENT_3D('',#1541,#1542,#1543);
#1541 = CARTESIAN_POINT('',(-12.,-136.6,34.416994755742));
#1542 = DIRECTION('',(-0.,-1.,-0.));
#1543 = DIRECTION('',(1.,-0.,-0.));
#1544 = ADVANCED_FACE('',(#1545),#1551,.F.);
#1545 = FACE_BOUND('',#1546,.T.);
#1546 = EDGE_LOOP('',(#1547,#1548,#1549,#1550));
#1547 = ORIENTED_EDGE('',*,*,#776,.F.);
#1548 = ORIENTED_EDGE('',*,*,#706,.T.);
#1549 = ORIENTED_EDGE('',*,*,#599,.T.);
#1550 = ORIENTED_EDGE('',*,*,#1534,.F.);
#1551 = PLANE('',#1552);
#1552 = AXIS2_PLACEMENT_3D('',#1553,#1554,#1555);
#1553 = CARTESIAN_POINT('',(-9.,-136.6,0.));
#1554 = DIRECTION('',(1.,-0.,-0.));
#1555 = DIRECTION('',(0.,0.,-1.));
#1556 = ADVANCED_FACE('',(#1557),#1576,.F.);
#1557 = FACE_BOUND('',#1558,.T.);
#1558 = EDGE_LOOP('',(#1559,#1567,#1568,#1569));
#1559 = ORIENTED_EDGE('',*,*,#1560,.T.);
#1560 = EDGE_CURVE('',#1561,#652,#1563,.T.);
#1561 = VERTEX_POINT('',#1562);
#1562 = CARTESIAN_POINT('',(-9.797174393179E-16,-137.1,49.));
#1563 = LINE('',#1564,#1565);
#1564 = CARTESIAN_POINT('',(-9.797174393179E-16,-135.6,49.));
#1565 = VECTOR('',#1566,1.);
#1566 = DIRECTION('',(-0.,-1.,-0.));
#1567 = ORIENTED_EDGE('',*,*,#651,.F.);
#1568 = ORIENTED_EDGE('',*,*,#1560,.F.);
#1569 = ORIENTED_EDGE('',*,*,#1570,.T.);
#1570 = EDGE_CURVE('',#1561,#1561,#1571,.T.);
#1571 = CIRCLE('',#1572,4.);
#1572 = AXIS2_PLACEMENT_3D('',#1573,#1574,#1575);
#1573 = CARTESIAN_POINT('',(0.,-137.1,45.));
#1574 = DIRECTION('',(0.,1.,0.));
#1575 = DIRECTION('',(-0.,-0.,1.));
#1576 = CYLINDRICAL_SURFACE('',#1577,4.);
#1577 = AXIS2_PLACEMENT_3D('',#1578,#1579,#1580);
#1578 = CARTESIAN_POINT('',(0.,-135.6,45.));
#1579 = DIRECTION('',(-0.,-1.,-0.));
#1580 = DIRECTION('',(-0.,-0.,1.));
#1581 = ADVANCED_FACE('',(#1582),#1593,.F.);
#1582 = FACE_BOUND('',#1583,.T.);
#1583 = EDGE_LOOP('',(#1584,#1585,#1591,#1592));
#1584 = ORIENTED_EDGE('',*,*,#1361,.F.);
#1585 = ORIENTED_EDGE('',*,*,#1586,.F.);
#1586 = EDGE_CURVE('',#681,#1362,#1587,.T.);
#1587 = LINE('',#1588,#1589);
#1588 = CARTESIAN_POINT('',(-9.797174393179E-16,-147.6,49.));
#1589 = VECTOR('',#1590,1.);
#1590 = DIRECTION('',(-0.,-1.,-0.));
#1591 = ORIENTED_EDGE('',*,*,#680,.T.);
#1592 = ORIENTED_EDGE('',*,*,#1586,.T.);
#1593 = CYLINDRICAL_SURFACE('',#1594,4.);
#1594 = AXIS2_PLACEMENT_3D('',#1595,#1596,#1597);
#1595 = CARTESIAN_POINT('',(0.,-147.6,45.));
#1596 = DIRECTION('',(-0.,-1.,-0.));
#1597 = DIRECTION('',(-0.,-0.,1.));
#1598 = ADVANCED_FACE('',(#1599),#1618,.F.);
#1599 = FACE_BOUND('',#1600,.T.);
#1600 = EDGE_LOOP('',(#1601,#1609,#1616,#1617));
#1601 = ORIENTED_EDGE('',*,*,#1602,.T.);
#1602 = EDGE_CURVE('',#786,#1603,#1605,.T.);
#1603 = VERTEX_POINT('',#1604);
#1604 = CARTESIAN_POINT('',(-1.126675055216E-15,-137.1,49.6));
#1605 = LINE('',#1606,#1607);
#1606 = CARTESIAN_POINT('',(-1.126675055216E-15,-131.1,49.6));
#1607 = VECTOR('',#1608,1.);
#1608 = DIRECTION('',(-0.,-1.,-0.));
#1609 = ORIENTED_EDGE('',*,*,#1610,.F.);
#1610 = EDGE_CURVE('',#1603,#1603,#1611,.T.);
#1611 = CIRCLE('',#1612,4.6);
#1612 = AXIS2_PLACEMENT_3D('',#1613,#1614,#1615);
#1613 = CARTESIAN_POINT('',(0.,-137.1,45.));
#1614 = DIRECTION('',(0.,1.,0.));
#1615 = DIRECTION('',(-0.,-0.,1.));
#1616 = ORIENTED_EDGE('',*,*,#1602,.F.);
#1617 = ORIENTED_EDGE('',*,*,#785,.T.);
#1618 = CYLINDRICAL_SURFACE('',#1619,4.6);
#1619 = AXIS2_PLACEMENT_3D('',#1620,#1621,#1622);
#1620 = CARTESIAN_POINT('',(0.,-131.1,45.));
#1621 = DIRECTION('',(-0.,-1.,-0.));
#1622 = DIRECTION('',(-0.,-0.,1.));
#1623 = ADVANCED_FACE('',(#1624),#1642,.F.);
#1624 = FACE_BOUND('',#1625,.T.);
#1625 = EDGE_LOOP('',(#1626,#1635,#1640,#1641));
#1626 = ORIENTED_EDGE('',*,*,#1627,.F.);
#1627 = EDGE_CURVE('',#1628,#1628,#1630,.T.);
#1628 = VERTEX_POINT('',#1629);
#1629 = CARTESIAN_POINT('',(-2.32682891838E-15,-140.1,9.5));
#1630 = CIRCLE('',#1631,9.5);
#1631 = AXIS2_PLACEMENT_3D('',#1632,#1633,#1634);
#1632 = CARTESIAN_POINT('',(0.,-140.1,0.));
#1633 = DIRECTION('',(0.,1.,0.));
#1634 = DIRECTION('',(-0.,-0.,1.));
#1635 = ORIENTED_EDGE('',*,*,#1636,.F.);
#1636 = EDGE_CURVE('',#797,#1628,#1637,.T.);
#1637 = B_SPLINE_CURVE_WITH_KNOTS('',1,(#1638,#1639),.UNSPECIFIED.,.F.,
  .F.,(2,2),(1.,4.5),.PIECEWISE_BEZIER_KNOTS.);
#1638 = CARTESIAN_POINT('',(-2.32682891838E-15,-136.6,9.5));
#1639 = CARTESIAN_POINT('',(-2.32682891838E-15,-140.1,9.5));
#1640 = ORIENTED_EDGE('',*,*,#796,.T.);
#1641 = ORIENTED_EDGE('',*,*,#1636,.T.);
#1642 = CYLINDRICAL_SURFACE('',#1643,9.5);
#1643 = AXIS2_PLACEMENT_3D('',#1644,#1645,#1646);
#1644 = CARTESIAN_POINT('',(0.,-135.6,0.));
#1645 = DIRECTION('',(-0.,-1.,-0.));
#1646 = DIRECTION('',(-0.,-0.,1.));
#1647 = ADVANCED_FACE('',(#1648),#1659,.T.);
#1648 = FACE_BOUND('',#1649,.T.);
#1649 = EDGE_LOOP('',(#1650,#1651,#1652,#1658));
#1650 = ORIENTED_EDGE('',*,*,#1076,.T.);
#1651 = ORIENTED_EDGE('',*,*,#840,.T.);
#1652 = ORIENTED_EDGE('',*,*,#1653,.F.);
#1653 = EDGE_CURVE('',#1105,#841,#1654,.T.);
#1654 = LINE('',#1655,#1656);
#1655 = CARTESIAN_POINT('',(22.,-140.1,-105.));
#1656 = VECTOR('',#1657,1.);
#1657 = DIRECTION('',(-0.,-1.,-0.));
#1658 = ORIENTED_EDGE('',*,*,#1104,.F.);
#1659 = SURFACE_OF_LINEAR_EXTRUSION('',#1660,#1665);
#1660 = B_SPLINE_CURVE_WITH_KNOTS('',3,(#1661,#1662,#1663,#1664),
  .UNSPECIFIED.,.F.,.F.,(4,4),(0.,1.),.PIECEWISE_BEZIER_KNOTS.);
#1661 = CARTESIAN_POINT('',(18.,-140.1,-77.));
#1662 = CARTESIAN_POINT('',(19.,-140.1,-91.));
#1663 = CARTESIAN_POINT('',(22.,-140.1,-92.));
#1664 = CARTESIAN_POINT('',(22.,-140.1,-105.));
#1665 = VECTOR('',#1666,1.);
#1666 = DIRECTION('',(-0.,1.,-0.));
#1667 = ADVANCED_FACE('',(#1668),#1679,.T.);
#1668 = FACE_BOUND('',#1669,.T.);
#1669 = EDGE_LOOP('',(#1670,#1676,#1677,#1678));
#1670 = ORIENTED_EDGE('',*,*,#1671,.T.);
#1671 = EDGE_CURVE('',#1114,#850,#1672,.T.);
#1672 = LINE('',#1673,#1674);
#1673 = CARTESIAN_POINT('',(-22.,-140.1,-105.));
#1674 = VECTOR('',#1675,1.);
#1675 = DIRECTION('',(-0.,-1.,-0.));
#1676 = ORIENTED_EDGE('',*,*,#858,.T.);
#1677 = ORIENTED_EDGE('',*,*,#1338,.F.);
#1678 = ORIENTED_EDGE('',*,*,#1122,.F.);
#1679 = SURFACE_OF_LINEAR_EXTRUSION('',#1680,#1685);
#1680 = B_SPLINE_CURVE_WITH_KNOTS('',3,(#1681,#1682,#1683,#1684),
  .UNSPECIFIED.,.F.,.F.,(4,4),(0.,1.),.PIECEWISE_BEZIER_KNOTS.);
#1681 = CARTESIAN_POINT('',(-22.,-140.1,-105.));
#1682 = CARTESIAN_POINT('',(-22.,-140.1,-92.));
#1683 = CARTESIAN_POINT('',(-15.,-140.1,-89.));
#1684 = CARTESIAN_POINT('',(-15.,-140.1,-77.));
#1685 = VECTOR('',#1686,1.);
#1686 = DIRECTION('',(-0.,1.,-0.));
#1687 = ADVANCED_FACE('',(#1688),#1694,.T.);
#1688 = FACE_BOUND('',#1689,.T.);
#1689 = EDGE_LOOP('',(#1690,#1691,#1692,#1693));
#1690 = ORIENTED_EDGE('',*,*,#1653,.T.);
#1691 = ORIENTED_EDGE('',*,*,#849,.T.);
#1692 = ORIENTED_EDGE('',*,*,#1671,.F.);
#1693 = ORIENTED_EDGE('',*,*,#1113,.F.);
#1694 = CYLINDRICAL_SURFACE('',#1695,22.);
#1695 = AXIS2_PLACEMENT_3D('',#1696,#1697,#1698);
#1696 = CARTESIAN_POINT('',(0.,-140.1,-105.));
#1697 = DIRECTION('',(0.,1.,-0.));
#1698 = DIRECTION('',(1.,-0.,-0.));
#1699 = ADVANCED_FACE('',(#1700),#1719,.F.);
#1700 = FACE_BOUND('',#1701,.T.);
#1701 = EDGE_LOOP('',(#1702,#1703,#1711,#1718));
#1702 = ORIENTED_EDGE('',*,*,#876,.F.);
#1703 = ORIENTED_EDGE('',*,*,#1704,.F.);
#1704 = EDGE_CURVE('',#1705,#877,#1707,.T.);
#1705 = VERTEX_POINT('',#1706);
#1706 = CARTESIAN_POINT('',(-7.577722283114,-143.1,-107.675));
#1707 = LINE('',#1708,#1709);
#1708 = CARTESIAN_POINT('',(-7.577722283114,-139.1,-107.675));
#1709 = VECTOR('',#1710,1.);
#1710 = DIRECTION('',(-0.,-1.,-0.));
#1711 = ORIENTED_EDGE('',*,*,#1712,.T.);
#1712 = EDGE_CURVE('',#1705,#1705,#1713,.T.);
#1713 = CIRCLE('',#1714,1.7);
#1714 = AXIS2_PLACEMENT_3D('',#1715,#1716,#1717);
#1715 = CARTESIAN_POINT('',(-7.577722283114,-143.1,-109.375));
#1716 = DIRECTION('',(0.,1.,0.));
#1717 = DIRECTION('',(-0.,-0.,1.));
#1718 = ORIENTED_EDGE('',*,*,#1704,.T.);
#1719 = CYLINDRICAL_SURFACE('',#1720,1.7);
#1720 = AXIS2_PLACEMENT_3D('',#1721,#1722,#1723);
#1721 = CARTESIAN_POINT('',(-7.577722283114,-139.1,-109.375));
#1722 = DIRECTION('',(-0.,-1.,-0.));
#1723 = DIRECTION('',(-0.,-0.,1.));
#1724 = ADVANCED_FACE('',(#1725),#1741,.T.);
#1725 = FACE_BOUND('',#1726,.F.);
#1726 = EDGE_LOOP('',(#1727,#1728,#1734,#1735));
#1727 = ORIENTED_EDGE('',*,*,#1151,.T.);
#1728 = ORIENTED_EDGE('',*,*,#1729,.T.);
#1729 = EDGE_CURVE('',#1154,#890,#1730,.T.);
#1730 = LINE('',#1731,#1732);
#1731 = CARTESIAN_POINT('',(-4.,-139.1,-66.));
#1732 = VECTOR('',#1733,1.);
#1733 = DIRECTION('',(-0.,-1.,-0.));
#1734 = ORIENTED_EDGE('',*,*,#887,.F.);
#1735 = ORIENTED_EDGE('',*,*,#1736,.F.);
#1736 = EDGE_CURVE('',#1152,#888,#1737,.T.);
#1737 = LINE('',#1738,#1739);
#1738 = CARTESIAN_POINT('',(3.171572875254,-139.1,-66.));
#1739 = VECTOR('',#1740,1.);
#1740 = DIRECTION('',(-0.,-1.,-0.));
#1741 = PLANE('',#1742);
#1742 = AXIS2_PLACEMENT_3D('',#1743,#1744,#1745);
#1743 = CARTESIAN_POINT('',(-4.,-139.1,-66.));
#1744 = DIRECTION('',(-0.,-0.,-1.));
#1745 = DIRECTION('',(-1.,0.,0.));
#1746 = ADVANCED_FACE('',(#1747),#1758,.F.);
#1747 = FACE_BOUND('',#1748,.F.);
#1748 = EDGE_LOOP('',(#1749,#1750,#1751,#1752));
#1749 = ORIENTED_EDGE('',*,*,#1195,.T.);
#1750 = ORIENTED_EDGE('',*,*,#1736,.T.);
#1751 = ORIENTED_EDGE('',*,*,#931,.F.);
#1752 = ORIENTED_EDGE('',*,*,#1753,.F.);
#1753 = EDGE_CURVE('',#1188,#924,#1754,.T.);
#1754 = LINE('',#1755,#1756);
#1755 = CARTESIAN_POINT('',(4.585786437627,-139.1,-69.41421356237));
#1756 = VECTOR('',#1757,1.);
#1757 = DIRECTION('',(-0.,-1.,-0.));
#1758 = CYLINDRICAL_SURFACE('',#1759,2.);
#1759 = AXIS2_PLACEMENT_3D('',#1760,#1761,#1762);
#1760 = CARTESIAN_POINT('',(3.171572875254,-139.1,-68.));
#1761 = DIRECTION('',(-0.,1.,-0.));
#1762 = DIRECTION('',(4.440892098501E-16,-0.,1.));
#1763 = ADVANCED_FACE('',(#1764),#1775,.F.);
#1764 = FACE_BOUND('',#1765,.F.);
#1765 = EDGE_LOOP('',(#1766,#1767,#1773,#1774));
#1766 = ORIENTED_EDGE('',*,*,#1161,.T.);
#1767 = ORIENTED_EDGE('',*,*,#1768,.T.);
#1768 = EDGE_CURVE('',#1162,#898,#1769,.T.);
#1769 = LINE('',#1770,#1771);
#1770 = CARTESIAN_POINT('',(-6.,-139.1,-68.));
#1771 = VECTOR('',#1772,1.);
#1772 = DIRECTION('',(-0.,-1.,-0.));
#1773 = ORIENTED_EDGE('',*,*,#897,.F.);
#1774 = ORIENTED_EDGE('',*,*,#1729,.F.);
#1775 = CYLINDRICAL_SURFACE('',#1776,2.);
#1776 = AXIS2_PLACEMENT_3D('',#1777,#1778,#1779);
#1777 = CARTESIAN_POINT('',(-4.,-139.1,-68.));
#1778 = DIRECTION('',(-0.,1.,-0.));
#1779 = DIRECTION('',(-1.,-0.,-0.));
#1780 = ADVANCED_FACE('',(#1781),#1792,.T.);
#1781 = FACE_BOUND('',#1782,.F.);
#1782 = EDGE_LOOP('',(#1783,#1784,#1785,#1786));
#1783 = ORIENTED_EDGE('',*,*,#1187,.T.);
#1784 = ORIENTED_EDGE('',*,*,#1753,.T.);
#1785 = ORIENTED_EDGE('',*,*,#923,.F.);
#1786 = ORIENTED_EDGE('',*,*,#1787,.F.);
#1787 = EDGE_CURVE('',#1179,#915,#1788,.T.);
#1788 = LINE('',#1789,#1790);
#1789 = CARTESIAN_POINT('',(-2.585786437627,-139.1,-76.58578643762));
#1790 = VECTOR('',#1791,1.);
#1791 = DIRECTION('',(-0.,-1.,-0.));
#1792 = PLANE('',#1793);
#1793 = AXIS2_PLACEMENT_3D('',#1794,#1795,#1796);
#1794 = CARTESIAN_POINT('',(4.585786437627,-139.1,-69.41421356237));
#1795 = DIRECTION('',(-0.707106781187,-0.,0.707106781187));
#1796 = DIRECTION('',(0.707106781187,0.,0.707106781187));
#1797 = ADVANCED_FACE('',(#1798),#1809,.T.);
#1798 = FACE_BOUND('',#1799,.F.);
#1799 = EDGE_LOOP('',(#1800,#1801,#1807,#1808));
#1800 = ORIENTED_EDGE('',*,*,#1170,.T.);
#1801 = ORIENTED_EDGE('',*,*,#1802,.T.);
#1802 = EDGE_CURVE('',#1171,#907,#1803,.T.);
#1803 = LINE('',#1804,#1805);
#1804 = CARTESIAN_POINT('',(-6.,-139.1,-75.17157287525));
#1805 = VECTOR('',#1806,1.);
#1806 = DIRECTION('',(-0.,-1.,-0.));
#1807 = ORIENTED_EDGE('',*,*,#906,.F.);
#1808 = ORIENTED_EDGE('',*,*,#1768,.F.);
#1809 = PLANE('',#1810);
#1810 = AXIS2_PLACEMENT_3D('',#1811,#1812,#1813);
#1811 = CARTESIAN_POINT('',(-6.,-139.1,-75.17157287525));
#1812 = DIRECTION('',(1.,-0.,-0.));
#1813 = DIRECTION('',(0.,0.,-1.));
#1814 = ADVANCED_FACE('',(#1815),#1821,.F.);
#1815 = FACE_BOUND('',#1816,.F.);
#1816 = EDGE_LOOP('',(#1817,#1818,#1819,#1820));
#1817 = ORIENTED_EDGE('',*,*,#1178,.T.);
#1818 = ORIENTED_EDGE('',*,*,#1787,.T.);
#1819 = ORIENTED_EDGE('',*,*,#914,.F.);
#1820 = ORIENTED_EDGE('',*,*,#1802,.F.);
#1821 = CYLINDRICAL_SURFACE('',#1822,2.);
#1822 = AXIS2_PLACEMENT_3D('',#1823,#1824,#1825);
#1823 = CARTESIAN_POINT('',(-4.,-139.1,-75.17157287525));
#1824 = DIRECTION('',(-0.,1.,-0.));
#1825 = DIRECTION('',(0.707106781187,-0.,-0.707106781187));
#1826 = ADVANCED_FACE('',(#1827),#1843,.T.);
#1827 = FACE_BOUND('',#1828,.F.);
#1828 = EDGE_LOOP('',(#1829,#1830,#1836,#1837));
#1829 = ORIENTED_EDGE('',*,*,#1204,.T.);
#1830 = ORIENTED_EDGE('',*,*,#1831,.T.);
#1831 = EDGE_CURVE('',#1207,#943,#1832,.T.);
#1832 = LINE('',#1833,#1834);
#1833 = CARTESIAN_POINT('',(-5.,-139.1,-26.));
#1834 = VECTOR('',#1835,1.);
#1835 = DIRECTION('',(-0.,-1.,-0.));
#1836 = ORIENTED_EDGE('',*,*,#940,.F.);
#1837 = ORIENTED_EDGE('',*,*,#1838,.F.);
#1838 = EDGE_CURVE('',#1205,#941,#1839,.T.);
#1839 = LINE('',#1840,#1841);
#1840 = CARTESIAN_POINT('',(2.171572875254,-139.1,-26.));
#1841 = VECTOR('',#1842,1.);
#1842 = DIRECTION('',(-0.,-1.,-0.));
#1843 = PLANE('',#1844);
#1844 = AXIS2_PLACEMENT_3D('',#1845,#1846,#1847);
#1845 = CARTESIAN_POINT('',(-5.,-139.1,-26.));
#1846 = DIRECTION('',(-0.,-0.,-1.));
#1847 = DIRECTION('',(-1.,0.,0.));
#1848 = ADVANCED_FACE('',(#1849),#1860,.F.);
#1849 = FACE_BOUND('',#1850,.F.);
#1850 = EDGE_LOOP('',(#1851,#1852,#1853,#1854));
#1851 = ORIENTED_EDGE('',*,*,#1248,.T.);
#1852 = ORIENTED_EDGE('',*,*,#1838,.T.);
#1853 = ORIENTED_EDGE('',*,*,#984,.F.);
#1854 = ORIENTED_EDGE('',*,*,#1855,.F.);
#1855 = EDGE_CURVE('',#1241,#977,#1856,.T.);
#1856 = LINE('',#1857,#1858);
#1857 = CARTESIAN_POINT('',(3.585786437627,-139.1,-29.41421356237));
#1858 = VECTOR('',#1859,1.);
#1859 = DIRECTION('',(-0.,-1.,-0.));
#1860 = CYLINDRICAL_SURFACE('',#1861,2.);
#1861 = AXIS2_PLACEMENT_3D('',#1862,#1863,#1864);
#1862 = CARTESIAN_POINT('',(2.171572875254,-139.1,-28.));
#1863 = DIRECTION('',(-0.,1.,-0.));
#1864 = DIRECTION('',(4.440892098501E-16,-0.,1.));
#1865 = ADVANCED_FACE('',(#1866),#1877,.F.);
#1866 = FACE_BOUND('',#1867,.F.);
#1867 = EDGE_LOOP('',(#1868,#1869,#1875,#1876));
#1868 = ORIENTED_EDGE('',*,*,#1214,.T.);
#1869 = ORIENTED_EDGE('',*,*,#1870,.T.);
#1870 = EDGE_CURVE('',#1215,#951,#1871,.T.);
#1871 = LINE('',#1872,#1873);
#1872 = CARTESIAN_POINT('',(-7.,-139.1,-28.));
#1873 = VECTOR('',#1874,1.);
#1874 = DIRECTION('',(-0.,-1.,-0.));
#1875 = ORIENTED_EDGE('',*,*,#950,.F.);
#1876 = ORIENTED_EDGE('',*,*,#1831,.F.);
#1877 = CYLINDRICAL_SURFACE('',#1878,2.);
#1878 = AXIS2_PLACEMENT_3D('',#1879,#1880,#1881);
#1879 = CARTESIAN_POINT('',(-5.,-139.1,-28.));
#1880 = DIRECTION('',(-0.,1.,-0.));
#1881 = DIRECTION('',(-1.,-0.,-0.));
#1882 = ADVANCED_FACE('',(#1883),#1894,.T.);
#1883 = FACE_BOUND('',#1884,.F.);
#1884 = EDGE_LOOP('',(#1885,#1886,#1887,#1888));
#1885 = ORIENTED_EDGE('',*,*,#1240,.T.);
#1886 = ORIENTED_EDGE('',*,*,#1855,.T.);
#1887 = ORIENTED_EDGE('',*,*,#976,.F.);
#1888 = ORIENTED_EDGE('',*,*,#1889,.F.);
#1889 = EDGE_CURVE('',#1232,#968,#1890,.T.);
#1890 = LINE('',#1891,#1892);
#1891 = CARTESIAN_POINT('',(-3.585786437627,-139.1,-36.58578643762));
#1892 = VECTOR('',#1893,1.);
#1893 = DIRECTION('',(-0.,-1.,-0.));
#1894 = PLANE('',#1895);
#1895 = AXIS2_PLACEMENT_3D('',#1896,#1897,#1898);
#1896 = CARTESIAN_POINT('',(3.585786437627,-139.1,-29.41421356237));
#1897 = DIRECTION('',(-0.707106781187,-0.,0.707106781187));
#1898 = DIRECTION('',(0.707106781187,0.,0.707106781187));
#1899 = ADVANCED_FACE('',(#1900),#1911,.T.);
#1900 = FACE_BOUND('',#1901,.F.);
#1901 = EDGE_LOOP('',(#1902,#1903,#1909,#1910));
#1902 = ORIENTED_EDGE('',*,*,#1223,.T.);
#1903 = ORIENTED_EDGE('',*,*,#1904,.T.);
#1904 = EDGE_CURVE('',#1224,#960,#1905,.T.);
#1905 = LINE('',#1906,#1907);
#1906 = CARTESIAN_POINT('',(-7.,-139.1,-35.17157287525));
#1907 = VECTOR('',#1908,1.);
#1908 = DIRECTION('',(-0.,-1.,-0.));
#1909 = ORIENTED_EDGE('',*,*,#959,.F.);
#1910 = ORIENTED_EDGE('',*,*,#1870,.F.);
#1911 = PLANE('',#1912);
#1912 = AXIS2_PLACEMENT_3D('',#1913,#1914,#1915);
#1913 = CARTESIAN_POINT('',(-7.,-139.1,-35.17157287525));
#1914 = DIRECTION('',(1.,-0.,-0.));
#1915 = DIRECTION('',(0.,0.,-1.));
#1916 = ADVANCED_FACE('',(#1917),#1923,.F.);
#1917 = FACE_BOUND('',#1918,.F.);
#1918 = EDGE_LOOP('',(#1919,#1920,#1921,#1922));
#1919 = ORIENTED_EDGE('',*,*,#1231,.T.);
#1920 = ORIENTED_EDGE('',*,*,#1889,.T.);
#1921 = ORIENTED_EDGE('',*,*,#967,.F.);
#1922 = ORIENTED_EDGE('',*,*,#1904,.F.);
#1923 = CYLINDRICAL_SURFACE('',#1924,2.);
#1924 = AXIS2_PLACEMENT_3D('',#1925,#1926,#1927);
#1925 = CARTESIAN_POINT('',(-5.,-139.1,-35.17157287525));
#1926 = DIRECTION('',(-0.,1.,-0.));
#1927 = DIRECTION('',(0.707106781187,-0.,-0.707106781187));
#1928 = ADVANCED_FACE('',(#1929),#1948,.F.);
#1929 = FACE_BOUND('',#1930,.T.);
#1930 = EDGE_LOOP('',(#1931,#1932,#1940,#1947));
#1931 = ORIENTED_EDGE('',*,*,#993,.F.);
#1932 = ORIENTED_EDGE('',*,*,#1933,.F.);
#1933 = EDGE_CURVE('',#1934,#994,#1936,.T.);
#1934 = VERTEX_POINT('',#1935);
#1935 = CARTESIAN_POINT('',(1.194030629169E-16,-143.1,-94.55));
#1936 = LINE('',#1937,#1938);
#1937 = CARTESIAN_POINT('',(1.194030629169E-16,-139.1,-94.55));
#1938 = VECTOR('',#1939,1.);
#1939 = DIRECTION('',(-0.,-1.,-0.));
#1940 = ORIENTED_EDGE('',*,*,#1941,.T.);
#1941 = EDGE_CURVE('',#1934,#1934,#1942,.T.);
#1942 = CIRCLE('',#1943,1.7);
#1943 = AXIS2_PLACEMENT_3D('',#1944,#1945,#1946);
#1944 = CARTESIAN_POINT('',(5.35782974627E-16,-143.1,-96.25));
#1945 = DIRECTION('',(0.,1.,0.));
#1946 = DIRECTION('',(-0.,-0.,1.));
#1947 = ORIENTED_EDGE('',*,*,#1933,.T.);
#1948 = CYLINDRICAL_SURFACE('',#1949,1.7);
#1949 = AXIS2_PLACEMENT_3D('',#1950,#1951,#1952);
#1950 = CARTESIAN_POINT('',(5.35782974627E-16,-139.1,-96.25));
#1951 = DIRECTION('',(-0.,-1.,-0.));
#1952 = DIRECTION('',(-0.,-0.,1.));
#1953 = ADVANCED_FACE('',(#1954),#1973,.F.);
#1954 = FACE_BOUND('',#1955,.T.);
#1955 = EDGE_LOOP('',(#1956,#1957,#1965,#1972));
#1956 = ORIENTED_EDGE('',*,*,#1004,.F.);
#1957 = ORIENTED_EDGE('',*,*,#1958,.F.);
#1958 = EDGE_CURVE('',#1959,#1005,#1961,.T.);
#1959 = VERTEX_POINT('',#1960);
#1960 = CARTESIAN_POINT('',(7.577722283114,-143.1,-107.675));
#1961 = LINE('',#1962,#1963);
#1962 = CARTESIAN_POINT('',(7.577722283114,-139.1,-107.675));
#1963 = VECTOR('',#1964,1.);
#1964 = DIRECTION('',(-0.,-1.,-0.));
#1965 = ORIENTED_EDGE('',*,*,#1966,.T.);
#1966 = EDGE_CURVE('',#1959,#1959,#1967,.T.);
#1967 = CIRCLE('',#1968,1.7);
#1968 = AXIS2_PLACEMENT_3D('',#1969,#1970,#1971);
#1969 = CARTESIAN_POINT('',(7.577722283114,-143.1,-109.375));
#1970 = DIRECTION('',(0.,1.,0.));
#1971 = DIRECTION('',(-0.,-0.,1.));
#1972 = ORIENTED_EDGE('',*,*,#1958,.T.);
#1973 = CYLINDRICAL_SURFACE('',#1974,1.7);
#1974 = AXIS2_PLACEMENT_3D('',#1975,#1976,#1977);
#1975 = CARTESIAN_POINT('',(7.577722283114,-139.1,-109.375));
#1976 = DIRECTION('',(-0.,-1.,-0.));
#1977 = DIRECTION('',(-0.,-0.,1.));
#1978 = ADVANCED_FACE('',(#1979),#1995,.T.);
#1979 = FACE_BOUND('',#1980,.F.);
#1980 = EDGE_LOOP('',(#1981,#1982,#1988,#1989));
#1981 = ORIENTED_EDGE('',*,*,#1279,.T.);
#1982 = ORIENTED_EDGE('',*,*,#1983,.T.);
#1983 = EDGE_CURVE('',#1282,#1018,#1984,.T.);
#1984 = LINE('',#1985,#1986);
#1985 = CARTESIAN_POINT('',(7.,-139.1,-47.57467364936));
#1986 = VECTOR('',#1987,1.);
#1987 = DIRECTION('',(-0.,-1.,-0.));
#1988 = ORIENTED_EDGE('',*,*,#1015,.F.);
#1989 = ORIENTED_EDGE('',*,*,#1990,.F.);
#1990 = EDGE_CURVE('',#1280,#1016,#1991,.T.);
#1991 = LINE('',#1992,#1993);
#1992 = CARTESIAN_POINT('',(7.,-139.1,-57.));
#1993 = VECTOR('',#1994,1.);
#1994 = DIRECTION('',(-0.,-1.,-0.));
#1995 = PLANE('',#1996);
#1996 = AXIS2_PLACEMENT_3D('',#1997,#1998,#1999);
#1997 = CARTESIAN_POINT('',(7.,-139.1,-47.57467364936));
#1998 = DIRECTION('',(-1.,-0.,-0.));
#1999 = DIRECTION('',(0.,0.,1.));
#2000 = ADVANCED_FACE('',(#2001),#2012,.F.);
#2001 = FACE_BOUND('',#2002,.F.);
#2002 = EDGE_LOOP('',(#2003,#2004,#2005,#2006));
#2003 = ORIENTED_EDGE('',*,*,#1323,.T.);
#2004 = ORIENTED_EDGE('',*,*,#1990,.T.);
#2005 = ORIENTED_EDGE('',*,*,#1059,.F.);
#2006 = ORIENTED_EDGE('',*,*,#2007,.F.);
#2007 = EDGE_CURVE('',#1316,#1052,#2008,.T.);
#2008 = LINE('',#2009,#2010);
#2009 = CARTESIAN_POINT('',(5.,-139.1,-59.));
#2010 = VECTOR('',#2011,1.);
#2011 = DIRECTION('',(-0.,-1.,-0.));
#2012 = CYLINDRICAL_SURFACE('',#2013,2.);
#2013 = AXIS2_PLACEMENT_3D('',#2014,#2015,#2016);
#2014 = CARTESIAN_POINT('',(5.,-139.1,-57.));
#2015 = DIRECTION('',(-0.,1.,-0.));
#2016 = DIRECTION('',(1.,-0.,-3.5527136788E-15));
#2017 = ADVANCED_FACE('',(#2018),#2029,.F.);
#2018 = FACE_BOUND('',#2019,.F.);
#2019 = EDGE_LOOP('',(#2020,#2021,#2027,#2028));
#2020 = ORIENTED_EDGE('',*,*,#1289,.T.);
#2021 = ORIENTED_EDGE('',*,*,#2022,.T.);
#2022 = EDGE_CURVE('',#1290,#1026,#2023,.T.);
#2023 = LINE('',#2024,#2025);
#2024 = CARTESIAN_POINT('',(3.456139528766,-139.1,-46.30325914364));
#2025 = VECTOR('',#2026,1.);
#2026 = DIRECTION('',(-0.,-1.,-0.));
#2027 = ORIENTED_EDGE('',*,*,#1025,.F.);
#2028 = ORIENTED_EDGE('',*,*,#1983,.F.);
#2029 = CYLINDRICAL_SURFACE('',#2030,2.);
#2030 = AXIS2_PLACEMENT_3D('',#2031,#2032,#2033);
#2031 = CARTESIAN_POINT('',(5.,-139.1,-47.57467364936));
#2032 = DIRECTION('',(0.,1.,-0.));
#2033 = DIRECTION('',(-0.771930235617,-0.,0.635707252861));
#2034 = ADVANCED_FACE('',(#2035),#2046,.T.);
#2035 = FACE_BOUND('',#2036,.F.);
#2036 = EDGE_LOOP('',(#2037,#2038,#2039,#2040));
#2037 = ORIENTED_EDGE('',*,*,#1315,.T.);
#2038 = ORIENTED_EDGE('',*,*,#2007,.T.);
#2039 = ORIENTED_EDGE('',*,*,#1051,.F.);
#2040 = ORIENTED_EDGE('',*,*,#2041,.F.);
#2041 = EDGE_CURVE('',#1307,#1043,#2042,.T.);
#2042 = LINE('',#2043,#2044);
#2043 = CARTESIAN_POINT('',(-2.76203346523,-139.1,-59.));
#2044 = VECTOR('',#2045,1.);
#2045 = DIRECTION('',(-0.,-1.,-0.));
#2046 = PLANE('',#2047);
#2047 = AXIS2_PLACEMENT_3D('',#2048,#2049,#2050);
#2048 = CARTESIAN_POINT('',(5.,-139.1,-59.));
#2049 = DIRECTION('',(-0.,-0.,1.));
#2050 = DIRECTION('',(1.,0.,0.));
#2051 = ADVANCED_FACE('',(#2052),#2063,.T.);
#2052 = FACE_BOUND('',#2053,.F.);
#2053 = EDGE_LOOP('',(#2054,#2055,#2061,#2062));
#2054 = ORIENTED_EDGE('',*,*,#1298,.T.);
#2055 = ORIENTED_EDGE('',*,*,#2056,.T.);
#2056 = EDGE_CURVE('',#1299,#1035,#2057,.T.);
#2057 = LINE('',#2058,#2059);
#2058 = CARTESIAN_POINT('',(-4.305893936464,-139.1,-55.72858549427));
#2059 = VECTOR('',#2060,1.);
#2060 = DIRECTION('',(-0.,-1.,-0.));
#2061 = ORIENTED_EDGE('',*,*,#1034,.F.);
#2062 = ORIENTED_EDGE('',*,*,#2022,.F.);
#2063 = PLANE('',#2064);
#2064 = AXIS2_PLACEMENT_3D('',#2065,#2066,#2067);
#2065 = CARTESIAN_POINT('',(-4.305893936464,-139.1,-55.72858549427));
#2066 = DIRECTION('',(0.771930235617,-0.,-0.635707252861));
#2067 = DIRECTION('',(-0.635707252861,0.,-0.771930235617));
#2068 = ADVANCED_FACE('',(#2069),#2075,.F.);
#2069 = FACE_BOUND('',#2070,.F.);
#2070 = EDGE_LOOP('',(#2071,#2072,#2073,#2074));
#2071 = ORIENTED_EDGE('',*,*,#1306,.T.);
#2072 = ORIENTED_EDGE('',*,*,#2041,.T.);
#2073 = ORIENTED_EDGE('',*,*,#1042,.F.);
#2074 = ORIENTED_EDGE('',*,*,#2056,.F.);
#2075 = CYLINDRICAL_SURFACE('',#2076,2.);
#2076 = AXIS2_PLACEMENT_3D('',#2077,#2078,#2079);
#2077 = CARTESIAN_POINT('',(-2.76203346523,-139.1,-57.));
#2078 = DIRECTION('',(-0.,1.,-0.));
#2079 = DIRECTION('',(4.440892098501E-16,-0.,-1.));
#2080 = ADVANCED_FACE('',(#2081),#2100,.F.);
#2081 = FACE_BOUND('',#2082,.T.);
#2082 = EDGE_LOOP('',(#2083,#2091,#2098,#2099));
#2083 = ORIENTED_EDGE('',*,*,#2084,.T.);
#2084 = EDGE_CURVE('',#1141,#2085,#2087,.T.);
#2085 = VERTEX_POINT('',#2086);
#2086 = CARTESIAN_POINT('',(-7.577722283114,-143.1,-106.475));
#2087 = LINE('',#2088,#2089);
#2088 = CARTESIAN_POINT('',(-7.577722283114,-140.,-106.475));
#2089 = VECTOR('',#2090,1.);
#2090 = DIRECTION('',(-0.,-1.,-0.));
#2091 = ORIENTED_EDGE('',*,*,#2092,.F.);
#2092 = EDGE_CURVE('',#2085,#2085,#2093,.T.);
#2093 = CIRCLE('',#2094,2.9);
#2094 = AXIS2_PLACEMENT_3D('',#2095,#2096,#2097);
#2095 = CARTESIAN_POINT('',(-7.577722283114,-143.1,-109.375));
#2096 = DIRECTION('',(0.,1.,0.));
#2097 = DIRECTION('',(-0.,-0.,1.));
#2098 = ORIENTED_EDGE('',*,*,#2084,.F.);
#2099 = ORIENTED_EDGE('',*,*,#1140,.T.);
#2100 = CYLINDRICAL_SURFACE('',#2101,2.9);
#2101 = AXIS2_PLACEMENT_3D('',#2102,#2103,#2104);
#2102 = CARTESIAN_POINT('',(-7.577722283114,-140.,-109.375));
#2103 = DIRECTION('',(-0.,-1.,-0.));
#2104 = DIRECTION('',(-0.,-0.,1.));
#2105 = ADVANCED_FACE('',(#2106),#2125,.F.);
#2106 = FACE_BOUND('',#2107,.T.);
#2107 = EDGE_LOOP('',(#2108,#2116,#2123,#2124));
#2108 = ORIENTED_EDGE('',*,*,#2109,.T.);
#2109 = EDGE_CURVE('',#1258,#2110,#2112,.T.);
#2110 = VERTEX_POINT('',#2111);
#2111 = CARTESIAN_POINT('',(-1.745121688785E-16,-143.1,-93.35));
#2112 = LINE('',#2113,#2114);
#2113 = CARTESIAN_POINT('',(-1.745121688785E-16,-140.,-93.35));
#2114 = VECTOR('',#2115,1.);
#2115 = DIRECTION('',(-0.,-1.,-0.));
#2116 = ORIENTED_EDGE('',*,*,#2117,.F.);
#2117 = EDGE_CURVE('',#2110,#2110,#2118,.T.);
#2118 = CIRCLE('',#2119,2.9);
#2119 = AXIS2_PLACEMENT_3D('',#2120,#2121,#2122);
#2120 = CARTESIAN_POINT('',(5.35782974627E-16,-143.1,-96.25));
#2121 = DIRECTION('',(0.,1.,0.));
#2122 = DIRECTION('',(-0.,-0.,1.));
#2123 = ORIENTED_EDGE('',*,*,#2109,.F.);
#2124 = ORIENTED_EDGE('',*,*,#1257,.T.);
#2125 = CYLINDRICAL_SURFACE('',#2126,2.9);
#2126 = AXIS2_PLACEMENT_3D('',#2127,#2128,#2129);
#2127 = CARTESIAN_POINT('',(5.35782974627E-16,-140.,-96.25));
#2128 = DIRECTION('',(-0.,-1.,-0.));
#2129 = DIRECTION('',(-0.,-0.,1.));
#2130 = ADVANCED_FACE('',(#2131),#2150,.F.);
#2131 = FACE_BOUND('',#2132,.T.);
#2132 = EDGE_LOOP('',(#2133,#2141,#2148,#2149));
#2133 = ORIENTED_EDGE('',*,*,#2134,.T.);
#2134 = EDGE_CURVE('',#1269,#2135,#2137,.T.);
#2135 = VERTEX_POINT('',#2136);
#2136 = CARTESIAN_POINT('',(7.577722283114,-143.1,-106.475));
#2137 = LINE('',#2138,#2139);
#2138 = CARTESIAN_POINT('',(7.577722283114,-140.,-106.475));
#2139 = VECTOR('',#2140,1.);
#2140 = DIRECTION('',(-0.,-1.,-0.));
#2141 = ORIENTED_EDGE('',*,*,#2142,.F.);
#2142 = EDGE_CURVE('',#2135,#2135,#2143,.T.);
#2143 = CIRCLE('',#2144,2.9);
#2144 = AXIS2_PLACEMENT_3D('',#2145,#2146,#2147);
#2145 = CARTESIAN_POINT('',(7.577722283114,-143.1,-109.375));
#2146 = DIRECTION('',(0.,1.,0.));
#2147 = DIRECTION('',(-0.,-0.,1.));
#2148 = ORIENTED_EDGE('',*,*,#2134,.F.);
#2149 = ORIENTED_EDGE('',*,*,#1268,.T.);
#2150 = CYLINDRICAL_SURFACE('',#2151,2.9);
#2151 = AXIS2_PLACEMENT_3D('',#2152,#2153,#2154);
#2152 = CARTESIAN_POINT('',(7.577722283114,-140.,-109.375));
#2153 = DIRECTION('',(-0.,-1.,-0.));
#2154 = DIRECTION('',(-0.,-0.,1.));
#2155 = ADVANCED_FACE('',(#2156),#2159,.T.);
#2156 = FACE_BOUND('',#2157,.T.);
#2157 = EDGE_LOOP('',(#2158));
#2158 = ORIENTED_EDGE('',*,*,#1387,.F.);
#2159 = PLANE('',#2160);
#2160 = AXIS2_PLACEMENT_3D('',#2161,#2162,#2163);
#2161 = CARTESIAN_POINT('',(-6.,-143.1,-10.39230484541));
#2162 = DIRECTION('',(-0.,-1.,-0.));
#2163 = DIRECTION('',(0.,0.,-1.));
#2164 = ADVANCED_FACE('',(#2165,#2168),#2179,.T.);
#2165 = FACE_BOUND('',#2166,.F.);
#2166 = EDGE_LOOP('',(#2167));
#2167 = ORIENTED_EDGE('',*,*,#1412,.T.);
#2168 = FACE_BOUND('',#2169,.F.);
#2169 = EDGE_LOOP('',(#2170));
#2170 = ORIENTED_EDGE('',*,*,#2171,.F.);
#2171 = EDGE_CURVE('',#2172,#2172,#2174,.T.);
#2172 = VERTEX_POINT('',#2173);
#2173 = CARTESIAN_POINT('',(-2.057406622568E-15,-140.85,8.4));
#2174 = CIRCLE('',#2175,8.4);
#2175 = AXIS2_PLACEMENT_3D('',#2176,#2177,#2178);
#2176 = CARTESIAN_POINT('',(0.,-140.85,0.));
#2177 = DIRECTION('',(0.,1.,0.));
#2178 = DIRECTION('',(-0.,-0.,1.));
#2179 = PLANE('',#2180);
#2180 = AXIS2_PLACEMENT_3D('',#2181,#2182,#2183);
#2181 = CARTESIAN_POINT('',(0.,-140.85,0.));
#2182 = DIRECTION('',(-0.,-1.,-0.));
#2183 = DIRECTION('',(0.,0.,-1.));
#2184 = ADVANCED_FACE('',(#2185),#2188,.T.);
#2185 = FACE_BOUND('',#2186,.T.);
#2186 = EDGE_LOOP('',(#2187));
#2187 = ORIENTED_EDGE('',*,*,#1437,.F.);
#2188 = PLANE('',#2189);
#2189 = AXIS2_PLACEMENT_3D('',#2190,#2191,#2192);
#2190 = CARTESIAN_POINT('',(-6.,-143.1,10.392304845413));
#2191 = DIRECTION('',(-0.,-1.,-0.));
#2192 = DIRECTION('',(0.,0.,-1.));
#2193 = ADVANCED_FACE('',(#2194),#2197,.T.);
#2194 = FACE_BOUND('',#2195,.T.);
#2195 = EDGE_LOOP('',(#2196));
#2196 = ORIENTED_EDGE('',*,*,#1462,.F.);
#2197 = PLANE('',#2198);
#2198 = AXIS2_PLACEMENT_3D('',#2199,#2200,#2201);
#2199 = CARTESIAN_POINT('',(12.,-143.1,0.));
#2200 = DIRECTION('',(-0.,-1.,-0.));
#2201 = DIRECTION('',(0.,0.,-1.));
#2202 = ADVANCED_FACE('',(#2203,#2206),#2209,.F.);
#2203 = FACE_BOUND('',#2204,.T.);
#2204 = EDGE_LOOP('',(#2205));
#2205 = ORIENTED_EDGE('',*,*,#1610,.T.);
#2206 = FACE_BOUND('',#2207,.T.);
#2207 = EDGE_LOOP('',(#2208));
#2208 = ORIENTED_EDGE('',*,*,#1570,.F.);
#2209 = PLANE('',#2210);
#2210 = AXIS2_PLACEMENT_3D('',#2211,#2212,#2213);
#2211 = CARTESIAN_POINT('',(0.,-137.1,45.));
#2212 = DIRECTION('',(-0.,-1.,-0.));
#2213 = DIRECTION('',(0.,0.,-1.));
#2214 = ADVANCED_FACE('',(#2215,#2218),#2229,.F.);
#2215 = FACE_BOUND('',#2216,.T.);
#2216 = EDGE_LOOP('',(#2217));
#2217 = ORIENTED_EDGE('',*,*,#1627,.T.);
#2218 = FACE_BOUND('',#2219,.T.);
#2219 = EDGE_LOOP('',(#2220));
#2220 = ORIENTED_EDGE('',*,*,#2221,.F.);
#2221 = EDGE_CURVE('',#2222,#2222,#2224,.T.);
#2222 = VERTEX_POINT('',#2223);
#2223 = CARTESIAN_POINT('',(-2.057406622568E-15,-140.1,8.4));
#2224 = CIRCLE('',#2225,8.4);
#2225 = AXIS2_PLACEMENT_3D('',#2226,#2227,#2228);
#2226 = CARTESIAN_POINT('',(0.,-140.1,0.));
#2227 = DIRECTION('',(0.,1.,0.));
#2228 = DIRECTION('',(-0.,-0.,1.));
#2229 = PLANE('',#2230);
#2230 = AXIS2_PLACEMENT_3D('',#2231,#2232,#2233);
#2231 = CARTESIAN_POINT('',(0.346140476083,-140.1,-56.08058898307));
#2232 = DIRECTION('',(-0.,-1.,-0.));
#2233 = DIRECTION('',(0.,0.,-1.));
#2234 = ADVANCED_FACE('',(#2235,#2238),#2241,.F.);
#2235 = FACE_BOUND('',#2236,.T.);
#2236 = EDGE_LOOP('',(#2237));
#2237 = ORIENTED_EDGE('',*,*,#2092,.T.);
#2238 = FACE_BOUND('',#2239,.T.);
#2239 = EDGE_LOOP('',(#2240));
#2240 = ORIENTED_EDGE('',*,*,#1712,.F.);
#2241 = PLANE('',#2242);
#2242 = AXIS2_PLACEMENT_3D('',#2243,#2244,#2245);
#2243 = CARTESIAN_POINT('',(-7.577722283114,-143.1,-109.375));
#2244 = DIRECTION('',(-0.,-1.,-0.));
#2245 = DIRECTION('',(0.,0.,-1.));
#2246 = ADVANCED_FACE('',(#2247,#2250),#2253,.F.);
#2247 = FACE_BOUND('',#2248,.T.);
#2248 = EDGE_LOOP('',(#2249));
#2249 = ORIENTED_EDGE('',*,*,#2117,.T.);
#2250 = FACE_BOUND('',#2251,.T.);
#2251 = EDGE_LOOP('',(#2252));
#2252 = ORIENTED_EDGE('',*,*,#1941,.F.);
#2253 = PLANE('',#2254);
#2254 = AXIS2_PLACEMENT_3D('',#2255,#2256,#2257);
#2255 = CARTESIAN_POINT('',(5.35782974627E-16,-143.1,-96.25));
#2256 = DIRECTION('',(-0.,-1.,-0.));
#2257 = DIRECTION('',(0.,0.,-1.));
#2258 = ADVANCED_FACE('',(#2259,#2262),#2265,.F.);
#2259 = FACE_BOUND('',#2260,.T.);
#2260 = EDGE_LOOP('',(#2261));
#2261 = ORIENTED_EDGE('',*,*,#2142,.T.);
#2262 = FACE_BOUND('',#2263,.T.);
#2263 = EDGE_LOOP('',(#2264));
#2264 = ORIENTED_EDGE('',*,*,#1966,.F.);
#2265 = PLANE('',#2266);
#2266 = AXIS2_PLACEMENT_3D('',#2267,#2268,#2269);
#2267 = CARTESIAN_POINT('',(7.577722283114,-143.1,-109.375));
#2268 = DIRECTION('',(-0.,-1.,-0.));
#2269 = DIRECTION('',(0.,0.,-1.));
#2270 = ADVANCED_FACE('',(#2271),#2282,.F.);
#2271 = FACE_BOUND('',#2272,.T.);
#2272 = EDGE_LOOP('',(#2273,#2274,#2280,#2281));
#2273 = ORIENTED_EDGE('',*,*,#2171,.F.);
#2274 = ORIENTED_EDGE('',*,*,#2275,.F.);
#2275 = EDGE_CURVE('',#2222,#2172,#2276,.T.);
#2276 = LINE('',#2277,#2278);
#2277 = CARTESIAN_POINT('',(-2.057406622568E-15,-140.,8.4));
#2278 = VECTOR('',#2279,1.);
#2279 = DIRECTION('',(-0.,-1.,-0.));
#2280 = ORIENTED_EDGE('',*,*,#2221,.T.);
#2281 = ORIENTED_EDGE('',*,*,#2275,.T.);
#2282 = CYLINDRICAL_SURFACE('',#2283,8.4);
#2283 = AXIS2_PLACEMENT_3D('',#2284,#2285,#2286);
#2284 = CARTESIAN_POINT('',(0.,-140.,0.));
#2285 = DIRECTION('',(-0.,-1.,-0.));
#2286 = DIRECTION('',(-0.,-0.,1.));
#2287 = ( GEOMETRIC_REPRESENTATION_CONTEXT(3) 
GLOBAL_UNCERTAINTY_ASSIGNED_CONTEXT((#2291)) 
GLOBAL_UNIT_ASSIGNED_CONTEXT((#2288,#2289,#2290)) REPRESENTATION_CONTEXT
('Context #1','3D Context with UNIT and UNCERTAINTY') );
#2288 = ( LENGTH_UNIT() NAMED_UNIT(*) SI_UNIT(.MILLI.,.METRE.) );
#2289 = ( NAMED_UNIT(*) PLANE_ANGLE_UNIT() SI_UNIT($,.RADIAN.) );
#2290 = ( NAMED_UNIT(*) SI_UNIT($,.STERADIAN.) SOLID_ANGLE_UNIT() );
#2291 = UNCERTAINTY_MEASURE_WITH_UNIT(LENGTH_MEASURE(1.E-06),#2288,
  'distance_accuracy_value','confusion accuracy');
#2292 = PRODUCT_RELATED_PRODUCT_CATEGORY('part',$,(#7));
ENDSEC;
END-ISO-10303-21;
