ISO-10303-21;
HEADER;
FILE_DESCRIPTION(('FreeCAD Model'),'2;1');
FILE_NAME('Open CASCADE Shape Model','2026-09-22T12:05:11',('FreeCAD'),(
    'FreeCAD'),'Open CASCADE STEP processor 7.8','FreeCAD','Unknown');
FILE_SCHEMA(('AUTOMOTIVE_DESIGN { 1 0 10303 214 1 1 1 1 }'));
ENDSEC;
DATA;
#1 = APPLICATION_PROTOCOL_DEFINITION('international standard',
  'automotive_design',2000,#2);
#2 = APPLICATION_CONTEXT(
  'core data for automotive mechanical design processes');
#3 = SHAPE_DEFINITION_REPRESENTATION(#4,#10);
#4 = PRODUCT_DEFINITION_SHAPE('','',#5);
#5 = PRODUCT_DEFINITION('design','',#6,#9);
#6 = PRODUCT_DEFINITION_FORMATION('','',#7);
#7 = PRODUCT('Open CASCADE STEP translator 7.8 8',
  'Open CASCADE STEP translator 7.8 8','',(#8));
#8 = PRODUCT_CONTEXT('',#2,'mechanical');
#9 = PRODUCT_DEFINITION_CONTEXT('part definition',#2,'design');
#10 = ADVANCED_BREP_SHAPE_REPRESENTATION('',(#11,#15),#2046);
#11 = AXIS2_PLACEMENT_3D('',#12,#13,#14);
#12 = CARTESIAN_POINT('',(0.,0.,0.));
#13 = DIRECTION('',(0.,0.,1.));
#14 = DIRECTION('',(1.,0.,-0.));
#15 = MANIFOLD_SOLID_BREP('',#16);
#16 = CLOSED_SHELL('',(#17,#360,#476,#501,#525,#550,#659,#676,#701,#726,
    #743,#760,#785,#810,#841,#866,#890,#915,#939,#964,#988,#1006,#1031,
    #1056,#1081,#1106,#1131,#1156,#1187,#1212,#1236,#1261,#1285,#1310,
    #1334,#1352,#1377,#1401,#1472,#1496,#1513,#1538,#1563,#1588,#1613,
    #1625,#1649,#1673,#1690,#1715,#1740,#1765,#1790,#1802,#1819,#1835,
    #1852,#1869,#1885,#1902,#1920,#1938,#1956,#1974,#1992,#2010,#2028));
#17 = ADVANCED_FACE('',(#18,#116,#127,#138,#208,#219,#230,#241,#252,#263
    ,#274,#344),#355,.F.);
#18 = FACE_BOUND('',#19,.F.);
#19 = EDGE_LOOP('',(#20,#30,#38,#46,#54,#62,#70,#78,#86,#94,#102,#110));
#20 = ORIENTED_EDGE('',*,*,#21,.F.);
#21 = EDGE_CURVE('',#22,#24,#26,.T.);
#22 = VERTEX_POINT('',#23);
#23 = CARTESIAN_POINT('',(-97.,72.,-47.));
#24 = VERTEX_POINT('',#25);
#25 = CARTESIAN_POINT('',(-88.,72.,-47.));
#26 = LINE('',#27,#28);
#27 = CARTESIAN_POINT('',(-97.,72.,-47.));
#28 = VECTOR('',#29,1.);
#29 = DIRECTION('',(1.,0.,-0.));
#30 = ORIENTED_EDGE('',*,*,#31,.T.);
#31 = EDGE_CURVE('',#22,#32,#34,.T.);
#32 = VERTEX_POINT('',#33);
#33 = CARTESIAN_POINT('',(-97.,72.,47.));
#34 = LINE('',#35,#36);
#35 = CARTESIAN_POINT('',(-97.,72.,-47.));
#36 = VECTOR('',#37,1.);
#37 = DIRECTION('',(0.,0.,1.));
#38 = ORIENTED_EDGE('',*,*,#39,.T.);
#39 = EDGE_CURVE('',#32,#40,#42,.T.);
#40 = VERTEX_POINT('',#41);
#41 = CARTESIAN_POINT('',(-88.,72.,47.));
#42 = LINE('',#43,#44);
#43 = CARTESIAN_POINT('',(-97.,72.,47.));
#44 = VECTOR('',#45,1.);
#45 = DIRECTION('',(1.,0.,-0.));
#46 = ORIENTED_EDGE('',*,*,#47,.F.);
#47 = EDGE_CURVE('',#48,#40,#50,.T.);
#48 = VERTEX_POINT('',#49);
#49 = CARTESIAN_POINT('',(-88.,72.,37.));
#50 = LINE('',#51,#52);
#51 = CARTESIAN_POINT('',(-88.,72.,39.));
#52 = VECTOR('',#53,1.);
#53 = DIRECTION('',(0.,0.,1.));
#54 = ORIENTED_EDGE('',*,*,#55,.T.);
#55 = EDGE_CURVE('',#48,#56,#58,.T.);
#56 = VERTEX_POINT('',#57);
#57 = CARTESIAN_POINT('',(88.,72.,37.));
#58 = LINE('',#59,#60);
#59 = CARTESIAN_POINT('',(-86.,72.,37.));
#60 = VECTOR('',#61,1.);
#61 = DIRECTION('',(1.,0.,-0.));
#62 = ORIENTED_EDGE('',*,*,#63,.T.);
#63 = EDGE_CURVE('',#56,#64,#66,.T.);
#64 = VERTEX_POINT('',#65);
#65 = CARTESIAN_POINT('',(88.,72.,47.));
#66 = LINE('',#67,#68);
#67 = CARTESIAN_POINT('',(88.,72.,39.));
#68 = VECTOR('',#69,1.);
#69 = DIRECTION('',(0.,0.,1.));
#70 = ORIENTED_EDGE('',*,*,#71,.T.);
#71 = EDGE_CURVE('',#64,#72,#74,.T.);
#72 = VERTEX_POINT('',#73);
#73 = CARTESIAN_POINT('',(97.,72.,47.));
#74 = LINE('',#75,#76);
#75 = CARTESIAN_POINT('',(-97.,72.,47.));
#76 = VECTOR('',#77,1.);
#77 = DIRECTION('',(1.,0.,-0.));
#78 = ORIENTED_EDGE('',*,*,#79,.F.);
#79 = EDGE_CURVE('',#80,#72,#82,.T.);
#80 = VERTEX_POINT('',#81);
#81 = CARTESIAN_POINT('',(97.,72.,-47.));
#82 = LINE('',#83,#84);
#83 = CARTESIAN_POINT('',(97.,72.,-47.));
#84 = VECTOR('',#85,1.);
#85 = DIRECTION('',(0.,0.,1.));
#86 = ORIENTED_EDGE('',*,*,#87,.F.);
#87 = EDGE_CURVE('',#88,#80,#90,.T.);
#88 = VERTEX_POINT('',#89);
#89 = CARTESIAN_POINT('',(88.,72.,-47.));
#90 = LINE('',#91,#92);
#91 = CARTESIAN_POINT('',(-97.,72.,-47.));
#92 = VECTOR('',#93,1.);
#93 = DIRECTION('',(1.,0.,-0.));
#94 = ORIENTED_EDGE('',*,*,#95,.T.);
#95 = EDGE_CURVE('',#88,#96,#98,.T.);
#96 = VERTEX_POINT('',#97);
#97 = CARTESIAN_POINT('',(88.,72.,-37.));
#98 = LINE('',#99,#100);
#99 = CARTESIAN_POINT('',(88.,72.,-47.));
#100 = VECTOR('',#101,1.);
#101 = DIRECTION('',(0.,0.,1.));
#102 = ORIENTED_EDGE('',*,*,#103,.F.);
#103 = EDGE_CURVE('',#104,#96,#106,.T.);
#104 = VERTEX_POINT('',#105);
#105 = CARTESIAN_POINT('',(-88.,72.,-37.));
#106 = LINE('',#107,#108);
#107 = CARTESIAN_POINT('',(-86.,72.,-37.));
#108 = VECTOR('',#109,1.);
#109 = DIRECTION('',(1.,0.,-0.));
#110 = ORIENTED_EDGE('',*,*,#111,.F.);
#111 = EDGE_CURVE('',#24,#104,#112,.T.);
#112 = LINE('',#113,#114);
#113 = CARTESIAN_POINT('',(-88.,72.,-47.));
#114 = VECTOR('',#115,1.);
#115 = DIRECTION('',(0.,0.,1.));
#116 = FACE_BOUND('',#117,.F.);
#117 = EDGE_LOOP('',(#118));
#118 = ORIENTED_EDGE('',*,*,#119,.T.);
#119 = EDGE_CURVE('',#120,#120,#122,.T.);
#120 = VERTEX_POINT('',#121);
#121 = CARTESIAN_POINT('',(-92.5,72.,-26.7));
#122 = CIRCLE('',#123,1.7);
#123 = AXIS2_PLACEMENT_3D('',#124,#125,#126);
#124 = CARTESIAN_POINT('',(-92.5,72.,-25.));
#125 = DIRECTION('',(0.,-1.,0.));
#126 = DIRECTION('',(0.,-0.,-1.));
#127 = FACE_BOUND('',#128,.F.);
#128 = EDGE_LOOP('',(#129));
#129 = ORIENTED_EDGE('',*,*,#130,.F.);
#130 = EDGE_CURVE('',#131,#131,#133,.T.);
#131 = VERTEX_POINT('',#132);
#132 = CARTESIAN_POINT('',(-30.,72.,-27.8));
#133 = CIRCLE('',#134,2.2);
#134 = AXIS2_PLACEMENT_3D('',#135,#136,#137);
#135 = CARTESIAN_POINT('',(-30.,72.,-30.));
#136 = DIRECTION('',(0.,1.,0.));
#137 = DIRECTION('',(0.,-0.,1.));
#138 = FACE_BOUND('',#139,.F.);
#139 = EDGE_LOOP('',(#140,#150,#159,#167,#176,#184,#193,#201));
#140 = ORIENTED_EDGE('',*,*,#141,.T.);
#141 = EDGE_CURVE('',#142,#144,#146,.T.);
#142 = VERTEX_POINT('',#143);
#143 = CARTESIAN_POINT('',(-87.,72.,33.));
#144 = VERTEX_POINT('',#145);
#145 = CARTESIAN_POINT('',(-87.,72.,-33.));
#146 = LINE('',#147,#148);
#147 = CARTESIAN_POINT('',(-87.,72.,-40.));
#148 = VECTOR('',#149,1.);
#149 = DIRECTION('',(0.,0.,-1.));
#150 = ORIENTED_EDGE('',*,*,#151,.T.);
#151 = EDGE_CURVE('',#144,#152,#154,.T.);
#152 = VERTEX_POINT('',#153);
#153 = CARTESIAN_POINT('',(-84.,72.,-36.));
#154 = CIRCLE('',#155,3.);
#155 = AXIS2_PLACEMENT_3D('',#156,#157,#158);
#156 = CARTESIAN_POINT('',(-84.,72.,-33.));
#157 = DIRECTION('',(0.,-1.,1.110223024625E-16));
#158 = DIRECTION('',(1.,0.,0.));
#159 = ORIENTED_EDGE('',*,*,#160,.T.);
#160 = EDGE_CURVE('',#152,#161,#163,.T.);
#161 = VERTEX_POINT('',#162);
#162 = CARTESIAN_POINT('',(-43.,72.,-36.));
#163 = LINE('',#164,#165);
#164 = CARTESIAN_POINT('',(-90.5,72.,-36.));
#165 = VECTOR('',#166,1.);
#166 = DIRECTION('',(1.,0.,-0.));
#167 = ORIENTED_EDGE('',*,*,#168,.T.);
#168 = EDGE_CURVE('',#161,#169,#171,.T.);
#169 = VERTEX_POINT('',#170);
#170 = CARTESIAN_POINT('',(-40.,72.,-33.));
#171 = CIRCLE('',#172,3.);
#172 = AXIS2_PLACEMENT_3D('',#173,#174,#175);
#173 = CARTESIAN_POINT('',(-43.,72.,-33.));
#174 = DIRECTION('',(0.,-1.,1.110223024625E-16));
#175 = DIRECTION('',(1.,0.,0.));
#176 = ORIENTED_EDGE('',*,*,#177,.F.);
#177 = EDGE_CURVE('',#178,#169,#180,.T.);
#178 = VERTEX_POINT('',#179);
#179 = CARTESIAN_POINT('',(-40.,72.,33.));
#180 = LINE('',#181,#182);
#181 = CARTESIAN_POINT('',(-40.,72.,-40.));
#182 = VECTOR('',#183,1.);
#183 = DIRECTION('',(0.,0.,-1.));
#184 = ORIENTED_EDGE('',*,*,#185,.T.);
#185 = EDGE_CURVE('',#178,#186,#188,.T.);
#186 = VERTEX_POINT('',#187);
#187 = CARTESIAN_POINT('',(-43.,72.,36.));
#188 = CIRCLE('',#189,3.);
#189 = AXIS2_PLACEMENT_3D('',#190,#191,#192);
#190 = CARTESIAN_POINT('',(-43.,72.,33.));
#191 = DIRECTION('',(0.,-1.,1.110223024625E-16));
#192 = DIRECTION('',(1.,0.,0.));
#193 = ORIENTED_EDGE('',*,*,#194,.F.);
#194 = EDGE_CURVE('',#195,#186,#197,.T.);
#195 = VERTEX_POINT('',#196);
#196 = CARTESIAN_POINT('',(-84.,72.,36.));
#197 = LINE('',#198,#199);
#198 = CARTESIAN_POINT('',(-90.5,72.,36.));
#199 = VECTOR('',#200,1.);
#200 = DIRECTION('',(1.,0.,-0.));
#201 = ORIENTED_EDGE('',*,*,#202,.T.);
#202 = EDGE_CURVE('',#195,#142,#203,.T.);
#203 = CIRCLE('',#204,3.);
#204 = AXIS2_PLACEMENT_3D('',#205,#206,#207);
#205 = CARTESIAN_POINT('',(-84.,72.,33.));
#206 = DIRECTION('',(0.,-1.,1.110223024625E-16));
#207 = DIRECTION('',(1.,0.,0.));
#208 = FACE_BOUND('',#209,.F.);
#209 = EDGE_LOOP('',(#210));
#210 = ORIENTED_EDGE('',*,*,#211,.T.);
#211 = EDGE_CURVE('',#212,#212,#214,.T.);
#212 = VERTEX_POINT('',#213);
#213 = CARTESIAN_POINT('',(-92.5,72.,23.3));
#214 = CIRCLE('',#215,1.7);
#215 = AXIS2_PLACEMENT_3D('',#216,#217,#218);
#216 = CARTESIAN_POINT('',(-92.5,72.,25.));
#217 = DIRECTION('',(0.,-1.,0.));
#218 = DIRECTION('',(0.,-0.,-1.));
#219 = FACE_BOUND('',#220,.F.);
#220 = EDGE_LOOP('',(#221));
#221 = ORIENTED_EDGE('',*,*,#222,.F.);
#222 = EDGE_CURVE('',#223,#223,#225,.T.);
#223 = VERTEX_POINT('',#224);
#224 = CARTESIAN_POINT('',(-30.,72.,32.2));
#225 = CIRCLE('',#226,2.2);
#226 = AXIS2_PLACEMENT_3D('',#227,#228,#229);
#227 = CARTESIAN_POINT('',(-30.,72.,30.));
#228 = DIRECTION('',(0.,1.,0.));
#229 = DIRECTION('',(0.,-0.,1.));
#230 = FACE_BOUND('',#231,.F.);
#231 = EDGE_LOOP('',(#232));
#232 = ORIENTED_EDGE('',*,*,#233,.F.);
#233 = EDGE_CURVE('',#234,#234,#236,.T.);
#234 = VERTEX_POINT('',#235);
#235 = CARTESIAN_POINT('',(30.,72.,-27.8));
#236 = CIRCLE('',#237,2.2);
#237 = AXIS2_PLACEMENT_3D('',#238,#239,#240);
#238 = CARTESIAN_POINT('',(30.,72.,-30.));
#239 = DIRECTION('',(0.,1.,0.));
#240 = DIRECTION('',(0.,-0.,1.));
#241 = FACE_BOUND('',#242,.F.);
#242 = EDGE_LOOP('',(#243));
#243 = ORIENTED_EDGE('',*,*,#244,.T.);
#244 = EDGE_CURVE('',#245,#245,#247,.T.);
#245 = VERTEX_POINT('',#246);
#246 = CARTESIAN_POINT('',(92.5,72.,-26.7));
#247 = CIRCLE('',#248,1.7);
#248 = AXIS2_PLACEMENT_3D('',#249,#250,#251);
#249 = CARTESIAN_POINT('',(92.5,72.,-25.));
#250 = DIRECTION('',(0.,-1.,0.));
#251 = DIRECTION('',(0.,-0.,-1.));
#252 = FACE_BOUND('',#253,.F.);
#253 = EDGE_LOOP('',(#254));
#254 = ORIENTED_EDGE('',*,*,#255,.F.);
#255 = EDGE_CURVE('',#256,#256,#258,.T.);
#256 = VERTEX_POINT('',#257);
#257 = CARTESIAN_POINT('',(-8.082668874373E-15,72.,33.));
#258 = CIRCLE('',#259,33.);
#259 = AXIS2_PLACEMENT_3D('',#260,#261,#262);
#260 = CARTESIAN_POINT('',(0.,72.,0.));
#261 = DIRECTION('',(0.,1.,0.));
#262 = DIRECTION('',(0.,-0.,1.));
#263 = FACE_BOUND('',#264,.F.);
#264 = EDGE_LOOP('',(#265));
#265 = ORIENTED_EDGE('',*,*,#266,.F.);
#266 = EDGE_CURVE('',#267,#267,#269,.T.);
#267 = VERTEX_POINT('',#268);
#268 = CARTESIAN_POINT('',(30.,72.,32.2));
#269 = CIRCLE('',#270,2.2);
#270 = AXIS2_PLACEMENT_3D('',#271,#272,#273);
#271 = CARTESIAN_POINT('',(30.,72.,30.));
#272 = DIRECTION('',(0.,1.,0.));
#273 = DIRECTION('',(0.,-0.,1.));
#274 = FACE_BOUND('',#275,.F.);
#275 = EDGE_LOOP('',(#276,#286,#295,#303,#312,#320,#329,#337));
#276 = ORIENTED_EDGE('',*,*,#277,.T.);
#277 = EDGE_CURVE('',#278,#280,#282,.T.);
#278 = VERTEX_POINT('',#279);
#279 = CARTESIAN_POINT('',(40.,72.,33.));
#280 = VERTEX_POINT('',#281);
#281 = CARTESIAN_POINT('',(40.,72.,-33.));
#282 = LINE('',#283,#284);
#283 = CARTESIAN_POINT('',(40.,72.,-40.));
#284 = VECTOR('',#285,1.);
#285 = DIRECTION('',(0.,0.,-1.));
#286 = ORIENTED_EDGE('',*,*,#287,.T.);
#287 = EDGE_CURVE('',#280,#288,#290,.T.);
#288 = VERTEX_POINT('',#289);
#289 = CARTESIAN_POINT('',(43.,72.,-36.));
#290 = CIRCLE('',#291,3.);
#291 = AXIS2_PLACEMENT_3D('',#292,#293,#294);
#292 = CARTESIAN_POINT('',(43.,72.,-33.));
#293 = DIRECTION('',(0.,-1.,1.110223024625E-16));
#294 = DIRECTION('',(1.,0.,0.));
#295 = ORIENTED_EDGE('',*,*,#296,.T.);
#296 = EDGE_CURVE('',#288,#297,#299,.T.);
#297 = VERTEX_POINT('',#298);
#298 = CARTESIAN_POINT('',(84.,72.,-36.));
#299 = LINE('',#300,#301);
#300 = CARTESIAN_POINT('',(-27.,72.,-36.));
#301 = VECTOR('',#302,1.);
#302 = DIRECTION('',(1.,0.,-0.));
#303 = ORIENTED_EDGE('',*,*,#304,.T.);
#304 = EDGE_CURVE('',#297,#305,#307,.T.);
#305 = VERTEX_POINT('',#306);
#306 = CARTESIAN_POINT('',(87.,72.,-33.));
#307 = CIRCLE('',#308,3.);
#308 = AXIS2_PLACEMENT_3D('',#309,#310,#311);
#309 = CARTESIAN_POINT('',(84.,72.,-33.));
#310 = DIRECTION('',(0.,-1.,1.110223024625E-16));
#311 = DIRECTION('',(1.,0.,0.));
#312 = ORIENTED_EDGE('',*,*,#313,.F.);
#313 = EDGE_CURVE('',#314,#305,#316,.T.);
#314 = VERTEX_POINT('',#315);
#315 = CARTESIAN_POINT('',(87.,72.,33.));
#316 = LINE('',#317,#318);
#317 = CARTESIAN_POINT('',(87.,72.,-40.));
#318 = VECTOR('',#319,1.);
#319 = DIRECTION('',(0.,0.,-1.));
#320 = ORIENTED_EDGE('',*,*,#321,.T.);
#321 = EDGE_CURVE('',#314,#322,#324,.T.);
#322 = VERTEX_POINT('',#323);
#323 = CARTESIAN_POINT('',(84.,72.,36.));
#324 = CIRCLE('',#325,3.);
#325 = AXIS2_PLACEMENT_3D('',#326,#327,#328);
#326 = CARTESIAN_POINT('',(84.,72.,33.));
#327 = DIRECTION('',(0.,-1.,1.110223024625E-16));
#328 = DIRECTION('',(1.,0.,0.));
#329 = ORIENTED_EDGE('',*,*,#330,.F.);
#330 = EDGE_CURVE('',#331,#322,#333,.T.);
#331 = VERTEX_POINT('',#332);
#332 = CARTESIAN_POINT('',(43.,72.,36.));
#333 = LINE('',#334,#335);
#334 = CARTESIAN_POINT('',(-27.,72.,36.));
#335 = VECTOR('',#336,1.);
#336 = DIRECTION('',(1.,0.,-0.));
#337 = ORIENTED_EDGE('',*,*,#338,.T.);
#338 = EDGE_CURVE('',#331,#278,#339,.T.);
#339 = CIRCLE('',#340,3.);
#340 = AXIS2_PLACEMENT_3D('',#341,#342,#343);
#341 = CARTESIAN_POINT('',(43.,72.,33.));
#342 = DIRECTION('',(0.,-1.,1.110223024625E-16));
#343 = DIRECTION('',(1.,0.,0.));
#344 = FACE_BOUND('',#345,.F.);
#345 = EDGE_LOOP('',(#346));
#346 = ORIENTED_EDGE('',*,*,#347,.T.);
#347 = EDGE_CURVE('',#348,#348,#350,.T.);
#348 = VERTEX_POINT('',#349);
#349 = CARTESIAN_POINT('',(92.5,72.,23.3));
#350 = CIRCLE('',#351,1.7);
#351 = AXIS2_PLACEMENT_3D('',#352,#353,#354);
#352 = CARTESIAN_POINT('',(92.5,72.,25.));
#353 = DIRECTION('',(0.,-1.,0.));
#354 = DIRECTION('',(0.,-0.,-1.));
#355 = PLANE('',#356);
#356 = AXIS2_PLACEMENT_3D('',#357,#358,#359);
#357 = CARTESIAN_POINT('',(-97.,72.,-47.));
#358 = DIRECTION('',(-0.,1.,0.));
#359 = DIRECTION('',(0.,0.,1.));
#360 = ADVANCED_FACE('',(#361,#427,#438,#449,#460),#471,.T.);
#361 = FACE_BOUND('',#362,.T.);
#362 = EDGE_LOOP('',(#363,#364,#373,#381,#389,#397,#404,#405,#413,#421)
  );
#363 = ORIENTED_EDGE('',*,*,#87,.F.);
#364 = ORIENTED_EDGE('',*,*,#365,.T.);
#365 = EDGE_CURVE('',#88,#366,#368,.T.);
#366 = VERTEX_POINT('',#367);
#367 = CARTESIAN_POINT('',(86.,70.,-47.));
#368 = CIRCLE('',#369,2.);
#369 = AXIS2_PLACEMENT_3D('',#370,#371,#372);
#370 = CARTESIAN_POINT('',(88.,70.,-47.));
#371 = DIRECTION('',(0.,0.,1.));
#372 = DIRECTION('',(0.,-1.,0.));
#373 = ORIENTED_EDGE('',*,*,#374,.F.);
#374 = EDGE_CURVE('',#375,#366,#377,.T.);
#375 = VERTEX_POINT('',#376);
#376 = CARTESIAN_POINT('',(86.,61.,-47.));
#377 = LINE('',#378,#379);
#378 = CARTESIAN_POINT('',(86.,61.,-47.));
#379 = VECTOR('',#380,1.);
#380 = DIRECTION('',(-0.,1.,0.));
#381 = ORIENTED_EDGE('',*,*,#382,.F.);
#382 = EDGE_CURVE('',#383,#375,#385,.T.);
#383 = VERTEX_POINT('',#384);
#384 = CARTESIAN_POINT('',(-86.,61.,-47.));
#385 = LINE('',#386,#387);
#386 = CARTESIAN_POINT('',(-86.,61.,-47.));
#387 = VECTOR('',#388,1.);
#388 = DIRECTION('',(1.,0.,-0.));
#389 = ORIENTED_EDGE('',*,*,#390,.T.);
#390 = EDGE_CURVE('',#383,#391,#393,.T.);
#391 = VERTEX_POINT('',#392);
#392 = CARTESIAN_POINT('',(-86.,70.,-47.));
#393 = LINE('',#394,#395);
#394 = CARTESIAN_POINT('',(-86.,61.,-47.));
#395 = VECTOR('',#396,1.);
#396 = DIRECTION('',(-0.,1.,0.));
#397 = ORIENTED_EDGE('',*,*,#398,.F.);
#398 = EDGE_CURVE('',#24,#391,#399,.T.);
#399 = CIRCLE('',#400,2.);
#400 = AXIS2_PLACEMENT_3D('',#401,#402,#403);
#401 = CARTESIAN_POINT('',(-88.,70.,-47.));
#402 = DIRECTION('',(-0.,-0.,-1.));
#403 = DIRECTION('',(0.,-1.,0.));
#404 = ORIENTED_EDGE('',*,*,#21,.F.);
#405 = ORIENTED_EDGE('',*,*,#406,.T.);
#406 = EDGE_CURVE('',#22,#407,#409,.T.);
#407 = VERTEX_POINT('',#408);
#408 = CARTESIAN_POINT('',(-97.,75.,-47.));
#409 = LINE('',#410,#411);
#410 = CARTESIAN_POINT('',(-97.,72.,-47.));
#411 = VECTOR('',#412,1.);
#412 = DIRECTION('',(-0.,1.,0.));
#413 = ORIENTED_EDGE('',*,*,#414,.T.);
#414 = EDGE_CURVE('',#407,#415,#417,.T.);
#415 = VERTEX_POINT('',#416);
#416 = CARTESIAN_POINT('',(97.,75.,-47.));
#417 = LINE('',#418,#419);
#418 = CARTESIAN_POINT('',(-97.,75.,-47.));
#419 = VECTOR('',#420,1.);
#420 = DIRECTION('',(1.,0.,-0.));
#421 = ORIENTED_EDGE('',*,*,#422,.F.);
#422 = EDGE_CURVE('',#80,#415,#423,.T.);
#423 = LINE('',#424,#425);
#424 = CARTESIAN_POINT('',(97.,72.,-47.));
#425 = VECTOR('',#426,1.);
#426 = DIRECTION('',(-0.,1.,0.));
#427 = FACE_BOUND('',#428,.T.);
#428 = EDGE_LOOP('',(#429));
#429 = ORIENTED_EDGE('',*,*,#430,.T.);
#430 = EDGE_CURVE('',#431,#431,#433,.T.);
#431 = VERTEX_POINT('',#432);
#432 = CARTESIAN_POINT('',(81.25,67.,-47.));
#433 = CIRCLE('',#434,1.25);
#434 = AXIS2_PLACEMENT_3D('',#435,#436,#437);
#435 = CARTESIAN_POINT('',(80.,67.,-47.));
#436 = DIRECTION('',(0.,0.,1.));
#437 = DIRECTION('',(1.,0.,-0.));
#438 = FACE_BOUND('',#439,.T.);
#439 = EDGE_LOOP('',(#440));
#440 = ORIENTED_EDGE('',*,*,#441,.T.);
#441 = EDGE_CURVE('',#442,#442,#444,.T.);
#442 = VERTEX_POINT('',#443);
#443 = CARTESIAN_POINT('',(41.25,67.,-47.));
#444 = CIRCLE('',#445,1.25);
#445 = AXIS2_PLACEMENT_3D('',#446,#447,#448);
#446 = CARTESIAN_POINT('',(40.,67.,-47.));
#447 = DIRECTION('',(0.,0.,1.));
#448 = DIRECTION('',(1.,0.,-0.));
#449 = FACE_BOUND('',#450,.T.);
#450 = EDGE_LOOP('',(#451));
#451 = ORIENTED_EDGE('',*,*,#452,.T.);
#452 = EDGE_CURVE('',#453,#453,#455,.T.);
#453 = VERTEX_POINT('',#454);
#454 = CARTESIAN_POINT('',(-38.75,67.,-47.));
#455 = CIRCLE('',#456,1.25);
#456 = AXIS2_PLACEMENT_3D('',#457,#458,#459);
#457 = CARTESIAN_POINT('',(-40.,67.,-47.));
#458 = DIRECTION('',(0.,0.,1.));
#459 = DIRECTION('',(1.,0.,-0.));
#460 = FACE_BOUND('',#461,.T.);
#461 = EDGE_LOOP('',(#462));
#462 = ORIENTED_EDGE('',*,*,#463,.T.);
#463 = EDGE_CURVE('',#464,#464,#466,.T.);
#464 = VERTEX_POINT('',#465);
#465 = CARTESIAN_POINT('',(-78.75,67.,-47.));
#466 = CIRCLE('',#467,1.25);
#467 = AXIS2_PLACEMENT_3D('',#468,#469,#470);
#468 = CARTESIAN_POINT('',(-80.,67.,-47.));
#469 = DIRECTION('',(0.,0.,1.));
#470 = DIRECTION('',(1.,0.,-0.));
#471 = PLANE('',#472);
#472 = AXIS2_PLACEMENT_3D('',#473,#474,#475);
#473 = CARTESIAN_POINT('',(0.,68.581730769231,-47.));
#474 = DIRECTION('',(-0.,-0.,-1.));
#475 = DIRECTION('',(-1.,0.,0.));
#476 = ADVANCED_FACE('',(#477),#496,.F.);
#477 = FACE_BOUND('',#478,.T.);
#478 = EDGE_LOOP('',(#479,#480,#488,#495));
#479 = ORIENTED_EDGE('',*,*,#398,.T.);
#480 = ORIENTED_EDGE('',*,*,#481,.T.);
#481 = EDGE_CURVE('',#391,#482,#484,.T.);
#482 = VERTEX_POINT('',#483);
#483 = CARTESIAN_POINT('',(-86.,70.,-39.));
#484 = LINE('',#485,#486);
#485 = CARTESIAN_POINT('',(-86.,70.,-47.));
#486 = VECTOR('',#487,1.);
#487 = DIRECTION('',(0.,0.,1.));
#488 = ORIENTED_EDGE('',*,*,#489,.F.);
#489 = EDGE_CURVE('',#104,#482,#490,.T.);
#490 = ELLIPSE('',#491,2.828427124746,2.);
#491 = AXIS2_PLACEMENT_3D('',#492,#493,#494);
#492 = CARTESIAN_POINT('',(-88.,70.,-37.));
#493 = DIRECTION('',(-0.707106781187,0.,-0.707106781187));
#494 = DIRECTION('',(-0.707106781187,0.,0.707106781187));
#495 = ORIENTED_EDGE('',*,*,#111,.F.);
#496 = CYLINDRICAL_SURFACE('',#497,2.);
#497 = AXIS2_PLACEMENT_3D('',#498,#499,#500);
#498 = CARTESIAN_POINT('',(-88.,70.,-47.));
#499 = DIRECTION('',(0.,0.,1.));
#500 = DIRECTION('',(-0.,1.,0.));
#501 = ADVANCED_FACE('',(#502),#520,.F.);
#502 = FACE_BOUND('',#503,.F.);
#503 = EDGE_LOOP('',(#504,#505,#506,#514));
#504 = ORIENTED_EDGE('',*,*,#31,.F.);
#505 = ORIENTED_EDGE('',*,*,#406,.T.);
#506 = ORIENTED_EDGE('',*,*,#507,.T.);
#507 = EDGE_CURVE('',#407,#508,#510,.T.);
#508 = VERTEX_POINT('',#509);
#509 = CARTESIAN_POINT('',(-97.,75.,47.));
#510 = LINE('',#511,#512);
#511 = CARTESIAN_POINT('',(-97.,75.,-47.));
#512 = VECTOR('',#513,1.);
#513 = DIRECTION('',(0.,0.,1.));
#514 = ORIENTED_EDGE('',*,*,#515,.F.);
#515 = EDGE_CURVE('',#32,#508,#516,.T.);
#516 = LINE('',#517,#518);
#517 = CARTESIAN_POINT('',(-97.,72.,47.));
#518 = VECTOR('',#519,1.);
#519 = DIRECTION('',(-0.,1.,0.));
#520 = PLANE('',#521);
#521 = AXIS2_PLACEMENT_3D('',#522,#523,#524);
#522 = CARTESIAN_POINT('',(-97.,72.,-47.));
#523 = DIRECTION('',(1.,0.,-0.));
#524 = DIRECTION('',(0.,0.,1.));
#525 = ADVANCED_FACE('',(#526),#545,.F.);
#526 = FACE_BOUND('',#527,.T.);
#527 = EDGE_LOOP('',(#528,#529,#537,#544));
#528 = ORIENTED_EDGE('',*,*,#489,.T.);
#529 = ORIENTED_EDGE('',*,*,#530,.T.);
#530 = EDGE_CURVE('',#482,#531,#533,.T.);
#531 = VERTEX_POINT('',#532);
#532 = CARTESIAN_POINT('',(86.,70.,-39.));
#533 = LINE('',#534,#535);
#534 = CARTESIAN_POINT('',(-86.,70.,-39.));
#535 = VECTOR('',#536,1.);
#536 = DIRECTION('',(1.,0.,-0.));
#537 = ORIENTED_EDGE('',*,*,#538,.F.);
#538 = EDGE_CURVE('',#96,#531,#539,.T.);
#539 = ELLIPSE('',#540,2.828427124746,2.);
#540 = AXIS2_PLACEMENT_3D('',#541,#542,#543);
#541 = CARTESIAN_POINT('',(88.,70.,-37.));
#542 = DIRECTION('',(-0.707106781187,-0.,0.707106781187));
#543 = DIRECTION('',(0.707106781187,0.,0.707106781187));
#544 = ORIENTED_EDGE('',*,*,#103,.F.);
#545 = CYLINDRICAL_SURFACE('',#546,2.);
#546 = AXIS2_PLACEMENT_3D('',#547,#548,#549);
#547 = CARTESIAN_POINT('',(-86.,70.,-37.));
#548 = DIRECTION('',(1.,0.,-0.));
#549 = DIRECTION('',(0.,1.,0.));
#550 = ADVANCED_FACE('',(#551,#610,#621,#632,#643),#654,.T.);
#551 = FACE_BOUND('',#552,.T.);
#552 = EDGE_LOOP('',(#553,#554,#563,#571,#579,#587,#594,#595,#603,#609)
  );
#553 = ORIENTED_EDGE('',*,*,#39,.T.);
#554 = ORIENTED_EDGE('',*,*,#555,.T.);
#555 = EDGE_CURVE('',#40,#556,#558,.T.);
#556 = VERTEX_POINT('',#557);
#557 = CARTESIAN_POINT('',(-86.,70.,47.));
#558 = CIRCLE('',#559,2.);
#559 = AXIS2_PLACEMENT_3D('',#560,#561,#562);
#560 = CARTESIAN_POINT('',(-88.,70.,47.));
#561 = DIRECTION('',(-0.,-0.,-1.));
#562 = DIRECTION('',(0.,-1.,0.));
#563 = ORIENTED_EDGE('',*,*,#564,.F.);
#564 = EDGE_CURVE('',#565,#556,#567,.T.);
#565 = VERTEX_POINT('',#566);
#566 = CARTESIAN_POINT('',(-86.,61.,47.));
#567 = LINE('',#568,#569);
#568 = CARTESIAN_POINT('',(-86.,61.,47.));
#569 = VECTOR('',#570,1.);
#570 = DIRECTION('',(-0.,1.,0.));
#571 = ORIENTED_EDGE('',*,*,#572,.T.);
#572 = EDGE_CURVE('',#565,#573,#575,.T.);
#573 = VERTEX_POINT('',#574);
#574 = CARTESIAN_POINT('',(86.,61.,47.));
#575 = LINE('',#576,#577);
#576 = CARTESIAN_POINT('',(-86.,61.,47.));
#577 = VECTOR('',#578,1.);
#578 = DIRECTION('',(1.,0.,-0.));
#579 = ORIENTED_EDGE('',*,*,#580,.T.);
#580 = EDGE_CURVE('',#573,#581,#583,.T.);
#581 = VERTEX_POINT('',#582);
#582 = CARTESIAN_POINT('',(86.,70.,47.));
#583 = LINE('',#584,#585);
#584 = CARTESIAN_POINT('',(86.,61.,47.));
#585 = VECTOR('',#586,1.);
#586 = DIRECTION('',(-0.,1.,0.));
#587 = ORIENTED_EDGE('',*,*,#588,.F.);
#588 = EDGE_CURVE('',#64,#581,#589,.T.);
#589 = CIRCLE('',#590,2.);
#590 = AXIS2_PLACEMENT_3D('',#591,#592,#593);
#591 = CARTESIAN_POINT('',(88.,70.,47.));
#592 = DIRECTION('',(0.,0.,1.));
#593 = DIRECTION('',(0.,-1.,0.));
#594 = ORIENTED_EDGE('',*,*,#71,.T.);
#595 = ORIENTED_EDGE('',*,*,#596,.T.);
#596 = EDGE_CURVE('',#72,#597,#599,.T.);
#597 = VERTEX_POINT('',#598);
#598 = CARTESIAN_POINT('',(97.,75.,47.));
#599 = LINE('',#600,#601);
#600 = CARTESIAN_POINT('',(97.,72.,47.));
#601 = VECTOR('',#602,1.);
#602 = DIRECTION('',(-0.,1.,0.));
#603 = ORIENTED_EDGE('',*,*,#604,.F.);
#604 = EDGE_CURVE('',#508,#597,#605,.T.);
#605 = LINE('',#606,#607);
#606 = CARTESIAN_POINT('',(-97.,75.,47.));
#607 = VECTOR('',#608,1.);
#608 = DIRECTION('',(1.,0.,-0.));
#609 = ORIENTED_EDGE('',*,*,#515,.F.);
#610 = FACE_BOUND('',#611,.T.);
#611 = EDGE_LOOP('',(#612));
#612 = ORIENTED_EDGE('',*,*,#613,.T.);
#613 = EDGE_CURVE('',#614,#614,#616,.T.);
#614 = VERTEX_POINT('',#615);
#615 = CARTESIAN_POINT('',(-81.25,67.,47.));
#616 = CIRCLE('',#617,1.25);
#617 = AXIS2_PLACEMENT_3D('',#618,#619,#620);
#618 = CARTESIAN_POINT('',(-80.,67.,47.));
#619 = DIRECTION('',(0.,0.,-1.));
#620 = DIRECTION('',(-1.,0.,-0.));
#621 = FACE_BOUND('',#622,.T.);
#622 = EDGE_LOOP('',(#623));
#623 = ORIENTED_EDGE('',*,*,#624,.T.);
#624 = EDGE_CURVE('',#625,#625,#627,.T.);
#625 = VERTEX_POINT('',#626);
#626 = CARTESIAN_POINT('',(-41.25,67.,47.));
#627 = CIRCLE('',#628,1.25);
#628 = AXIS2_PLACEMENT_3D('',#629,#630,#631);
#629 = CARTESIAN_POINT('',(-40.,67.,47.));
#630 = DIRECTION('',(0.,0.,-1.));
#631 = DIRECTION('',(-1.,0.,-0.));
#632 = FACE_BOUND('',#633,.T.);
#633 = EDGE_LOOP('',(#634));
#634 = ORIENTED_EDGE('',*,*,#635,.T.);
#635 = EDGE_CURVE('',#636,#636,#638,.T.);
#636 = VERTEX_POINT('',#637);
#637 = CARTESIAN_POINT('',(38.75,67.,47.));
#638 = CIRCLE('',#639,1.25);
#639 = AXIS2_PLACEMENT_3D('',#640,#641,#642);
#640 = CARTESIAN_POINT('',(40.,67.,47.));
#641 = DIRECTION('',(0.,0.,-1.));
#642 = DIRECTION('',(-1.,0.,-0.));
#643 = FACE_BOUND('',#644,.T.);
#644 = EDGE_LOOP('',(#645));
#645 = ORIENTED_EDGE('',*,*,#646,.T.);
#646 = EDGE_CURVE('',#647,#647,#649,.T.);
#647 = VERTEX_POINT('',#648);
#648 = CARTESIAN_POINT('',(78.75,67.,47.));
#649 = CIRCLE('',#650,1.25);
#650 = AXIS2_PLACEMENT_3D('',#651,#652,#653);
#651 = CARTESIAN_POINT('',(80.,67.,47.));
#652 = DIRECTION('',(0.,0.,-1.));
#653 = DIRECTION('',(-1.,0.,-0.));
#654 = PLANE('',#655);
#655 = AXIS2_PLACEMENT_3D('',#656,#657,#658);
#656 = CARTESIAN_POINT('',(0.,68.581730769231,47.));
#657 = DIRECTION('',(0.,0.,1.));
#658 = DIRECTION('',(1.,0.,-0.));
#659 = ADVANCED_FACE('',(#660),#671,.F.);
#660 = FACE_BOUND('',#661,.F.);
#661 = EDGE_LOOP('',(#662,#663,#669,#670));
#662 = ORIENTED_EDGE('',*,*,#365,.T.);
#663 = ORIENTED_EDGE('',*,*,#664,.T.);
#664 = EDGE_CURVE('',#366,#531,#665,.T.);
#665 = LINE('',#666,#667);
#666 = CARTESIAN_POINT('',(86.,70.,-47.));
#667 = VECTOR('',#668,1.);
#668 = DIRECTION('',(0.,0.,1.));
#669 = ORIENTED_EDGE('',*,*,#538,.F.);
#670 = ORIENTED_EDGE('',*,*,#95,.F.);
#671 = CYLINDRICAL_SURFACE('',#672,2.);
#672 = AXIS2_PLACEMENT_3D('',#673,#674,#675);
#673 = CARTESIAN_POINT('',(88.,70.,-47.));
#674 = DIRECTION('',(0.,0.,1.));
#675 = DIRECTION('',(-0.,1.,0.));
#676 = ADVANCED_FACE('',(#677),#696,.F.);
#677 = FACE_BOUND('',#678,.T.);
#678 = EDGE_LOOP('',(#679,#688,#694,#695));
#679 = ORIENTED_EDGE('',*,*,#680,.T.);
#680 = EDGE_CURVE('',#48,#681,#683,.T.);
#681 = VERTEX_POINT('',#682);
#682 = CARTESIAN_POINT('',(-86.,70.,39.));
#683 = ELLIPSE('',#684,2.828427124746,2.);
#684 = AXIS2_PLACEMENT_3D('',#685,#686,#687);
#685 = CARTESIAN_POINT('',(-88.,70.,37.));
#686 = DIRECTION('',(0.707106781187,0.,-0.707106781187));
#687 = DIRECTION('',(0.707106781187,0.,0.707106781187));
#688 = ORIENTED_EDGE('',*,*,#689,.T.);
#689 = EDGE_CURVE('',#681,#556,#690,.T.);
#690 = LINE('',#691,#692);
#691 = CARTESIAN_POINT('',(-86.,70.,39.));
#692 = VECTOR('',#693,1.);
#693 = DIRECTION('',(0.,0.,1.));
#694 = ORIENTED_EDGE('',*,*,#555,.F.);
#695 = ORIENTED_EDGE('',*,*,#47,.F.);
#696 = CYLINDRICAL_SURFACE('',#697,2.);
#697 = AXIS2_PLACEMENT_3D('',#698,#699,#700);
#698 = CARTESIAN_POINT('',(-88.,70.,39.));
#699 = DIRECTION('',(0.,0.,1.));
#700 = DIRECTION('',(-0.,1.,0.));
#701 = ADVANCED_FACE('',(#702),#721,.F.);
#702 = FACE_BOUND('',#703,.F.);
#703 = EDGE_LOOP('',(#704,#705,#713,#720));
#704 = ORIENTED_EDGE('',*,*,#680,.T.);
#705 = ORIENTED_EDGE('',*,*,#706,.T.);
#706 = EDGE_CURVE('',#681,#707,#709,.T.);
#707 = VERTEX_POINT('',#708);
#708 = CARTESIAN_POINT('',(86.,70.,39.));
#709 = LINE('',#710,#711);
#710 = CARTESIAN_POINT('',(-86.,70.,39.));
#711 = VECTOR('',#712,1.);
#712 = DIRECTION('',(1.,0.,-0.));
#713 = ORIENTED_EDGE('',*,*,#714,.F.);
#714 = EDGE_CURVE('',#56,#707,#715,.T.);
#715 = ELLIPSE('',#716,2.828427124746,2.);
#716 = AXIS2_PLACEMENT_3D('',#717,#718,#719);
#717 = CARTESIAN_POINT('',(88.,70.,37.));
#718 = DIRECTION('',(0.707106781187,0.,0.707106781187));
#719 = DIRECTION('',(-0.707106781187,0.,0.707106781187));
#720 = ORIENTED_EDGE('',*,*,#55,.F.);
#721 = CYLINDRICAL_SURFACE('',#722,2.);
#722 = AXIS2_PLACEMENT_3D('',#723,#724,#725);
#723 = CARTESIAN_POINT('',(-86.,70.,37.));
#724 = DIRECTION('',(1.,0.,-0.));
#725 = DIRECTION('',(0.,1.,0.));
#726 = ADVANCED_FACE('',(#727),#738,.T.);
#727 = FACE_BOUND('',#728,.T.);
#728 = EDGE_LOOP('',(#729,#730,#731,#737));
#729 = ORIENTED_EDGE('',*,*,#79,.F.);
#730 = ORIENTED_EDGE('',*,*,#422,.T.);
#731 = ORIENTED_EDGE('',*,*,#732,.T.);
#732 = EDGE_CURVE('',#415,#597,#733,.T.);
#733 = LINE('',#734,#735);
#734 = CARTESIAN_POINT('',(97.,75.,-47.));
#735 = VECTOR('',#736,1.);
#736 = DIRECTION('',(0.,0.,1.));
#737 = ORIENTED_EDGE('',*,*,#596,.F.);
#738 = PLANE('',#739);
#739 = AXIS2_PLACEMENT_3D('',#740,#741,#742);
#740 = CARTESIAN_POINT('',(97.,72.,-47.));
#741 = DIRECTION('',(1.,0.,-0.));
#742 = DIRECTION('',(0.,0.,1.));
#743 = ADVANCED_FACE('',(#744),#755,.F.);
#744 = FACE_BOUND('',#745,.F.);
#745 = EDGE_LOOP('',(#746,#747,#753,#754));
#746 = ORIENTED_EDGE('',*,*,#714,.T.);
#747 = ORIENTED_EDGE('',*,*,#748,.T.);
#748 = EDGE_CURVE('',#707,#581,#749,.T.);
#749 = LINE('',#750,#751);
#750 = CARTESIAN_POINT('',(86.,70.,39.));
#751 = VECTOR('',#752,1.);
#752 = DIRECTION('',(0.,0.,1.));
#753 = ORIENTED_EDGE('',*,*,#588,.F.);
#754 = ORIENTED_EDGE('',*,*,#63,.F.);
#755 = CYLINDRICAL_SURFACE('',#756,2.);
#756 = AXIS2_PLACEMENT_3D('',#757,#758,#759);
#757 = CARTESIAN_POINT('',(88.,70.,39.));
#758 = DIRECTION('',(0.,0.,1.));
#759 = DIRECTION('',(-0.,1.,0.));
#760 = ADVANCED_FACE('',(#761),#780,.F.);
#761 = FACE_BOUND('',#762,.F.);
#762 = EDGE_LOOP('',(#763,#772,#778,#779));
#763 = ORIENTED_EDGE('',*,*,#764,.T.);
#764 = EDGE_CURVE('',#765,#765,#767,.T.);
#765 = VERTEX_POINT('',#766);
#766 = CARTESIAN_POINT('',(-92.5,73.5,-26.7));
#767 = CIRCLE('',#768,1.7);
#768 = AXIS2_PLACEMENT_3D('',#769,#770,#771);
#769 = CARTESIAN_POINT('',(-92.5,73.5,-25.));
#770 = DIRECTION('',(0.,-1.,0.));
#771 = DIRECTION('',(0.,-0.,-1.));
#772 = ORIENTED_EDGE('',*,*,#773,.T.);
#773 = EDGE_CURVE('',#765,#120,#774,.T.);
#774 = LINE('',#775,#776);
#775 = CARTESIAN_POINT('',(-92.5,75.1,-26.7));
#776 = VECTOR('',#777,1.);
#777 = DIRECTION('',(0.,-1.,0.));
#778 = ORIENTED_EDGE('',*,*,#119,.F.);
#779 = ORIENTED_EDGE('',*,*,#773,.F.);
#780 = CYLINDRICAL_SURFACE('',#781,1.7);
#781 = AXIS2_PLACEMENT_3D('',#782,#783,#784);
#782 = CARTESIAN_POINT('',(-92.5,75.1,-25.));
#783 = DIRECTION('',(0.,-1.,0.));
#784 = DIRECTION('',(0.,-0.,-1.));
#785 = ADVANCED_FACE('',(#786),#805,.F.);
#786 = FACE_BOUND('',#787,.F.);
#787 = EDGE_LOOP('',(#788,#797,#803,#804));
#788 = ORIENTED_EDGE('',*,*,#789,.F.);
#789 = EDGE_CURVE('',#790,#790,#792,.T.);
#790 = VERTEX_POINT('',#791);
#791 = CARTESIAN_POINT('',(-30.,75.,-27.8));
#792 = CIRCLE('',#793,2.2);
#793 = AXIS2_PLACEMENT_3D('',#794,#795,#796);
#794 = CARTESIAN_POINT('',(-30.,75.,-30.));
#795 = DIRECTION('',(0.,1.,0.));
#796 = DIRECTION('',(0.,-0.,1.));
#797 = ORIENTED_EDGE('',*,*,#798,.F.);
#798 = EDGE_CURVE('',#131,#790,#799,.T.);
#799 = LINE('',#800,#801);
#800 = CARTESIAN_POINT('',(-30.,71.,-27.8));
#801 = VECTOR('',#802,1.);
#802 = DIRECTION('',(0.,1.,0.));
#803 = ORIENTED_EDGE('',*,*,#130,.T.);
#804 = ORIENTED_EDGE('',*,*,#798,.T.);
#805 = CYLINDRICAL_SURFACE('',#806,2.2);
#806 = AXIS2_PLACEMENT_3D('',#807,#808,#809);
#807 = CARTESIAN_POINT('',(-30.,71.,-30.));
#808 = DIRECTION('',(0.,1.,0.));
#809 = DIRECTION('',(0.,-0.,1.));
#810 = ADVANCED_FACE('',(#811),#836,.T.);
#811 = FACE_BOUND('',#812,.T.);
#812 = EDGE_LOOP('',(#813,#821,#829,#835));
#813 = ORIENTED_EDGE('',*,*,#814,.F.);
#814 = EDGE_CURVE('',#815,#144,#817,.T.);
#815 = VERTEX_POINT('',#816);
#816 = CARTESIAN_POINT('',(-87.,73.5,-33.));
#817 = LINE('',#818,#819);
#818 = CARTESIAN_POINT('',(-87.,73.5,-33.));
#819 = VECTOR('',#820,1.);
#820 = DIRECTION('',(0.,-1.,1.110223024625E-16));
#821 = ORIENTED_EDGE('',*,*,#822,.T.);
#822 = EDGE_CURVE('',#815,#823,#825,.T.);
#823 = VERTEX_POINT('',#824);
#824 = CARTESIAN_POINT('',(-87.,73.5,33.));
#825 = LINE('',#826,#827);
#826 = CARTESIAN_POINT('',(-87.,73.5,-33.));
#827 = VECTOR('',#828,1.);
#828 = DIRECTION('',(0.,1.110223024625E-16,1.));
#829 = ORIENTED_EDGE('',*,*,#830,.T.);
#830 = EDGE_CURVE('',#823,#142,#831,.T.);
#831 = LINE('',#832,#833);
#832 = CARTESIAN_POINT('',(-87.,73.5,33.));
#833 = VECTOR('',#834,1.);
#834 = DIRECTION('',(0.,-1.,1.110223024625E-16));
#835 = ORIENTED_EDGE('',*,*,#141,.T.);
#836 = PLANE('',#837);
#837 = AXIS2_PLACEMENT_3D('',#838,#839,#840);
#838 = CARTESIAN_POINT('',(-87.,73.5,-33.));
#839 = DIRECTION('',(1.,0.,0.));
#840 = DIRECTION('',(0.,-1.,1.110223024625E-16));
#841 = ADVANCED_FACE('',(#842),#861,.F.);
#842 = FACE_BOUND('',#843,.F.);
#843 = EDGE_LOOP('',(#844,#845,#853,#860));
#844 = ORIENTED_EDGE('',*,*,#202,.F.);
#845 = ORIENTED_EDGE('',*,*,#846,.F.);
#846 = EDGE_CURVE('',#847,#195,#849,.T.);
#847 = VERTEX_POINT('',#848);
#848 = CARTESIAN_POINT('',(-84.,73.5,36.));
#849 = LINE('',#850,#851);
#850 = CARTESIAN_POINT('',(-84.,73.5,36.));
#851 = VECTOR('',#852,1.);
#852 = DIRECTION('',(0.,-1.,1.110223024625E-16));
#853 = ORIENTED_EDGE('',*,*,#854,.T.);
#854 = EDGE_CURVE('',#847,#823,#855,.T.);
#855 = CIRCLE('',#856,3.);
#856 = AXIS2_PLACEMENT_3D('',#857,#858,#859);
#857 = CARTESIAN_POINT('',(-84.,73.5,33.));
#858 = DIRECTION('',(0.,-1.,1.110223024625E-16));
#859 = DIRECTION('',(1.,0.,0.));
#860 = ORIENTED_EDGE('',*,*,#830,.T.);
#861 = CYLINDRICAL_SURFACE('',#862,3.);
#862 = AXIS2_PLACEMENT_3D('',#863,#864,#865);
#863 = CARTESIAN_POINT('',(-84.,73.5,33.));
#864 = DIRECTION('',(0.,-1.,1.110223024625E-16));
#865 = DIRECTION('',(1.,0.,0.));
#866 = ADVANCED_FACE('',(#867),#885,.F.);
#867 = FACE_BOUND('',#868,.F.);
#868 = EDGE_LOOP('',(#869,#877,#878,#879));
#869 = ORIENTED_EDGE('',*,*,#870,.F.);
#870 = EDGE_CURVE('',#847,#871,#873,.T.);
#871 = VERTEX_POINT('',#872);
#872 = CARTESIAN_POINT('',(-43.,73.5,36.));
#873 = LINE('',#874,#875);
#874 = CARTESIAN_POINT('',(-84.,73.5,36.));
#875 = VECTOR('',#876,1.);
#876 = DIRECTION('',(1.,0.,0.));
#877 = ORIENTED_EDGE('',*,*,#846,.T.);
#878 = ORIENTED_EDGE('',*,*,#194,.T.);
#879 = ORIENTED_EDGE('',*,*,#880,.F.);
#880 = EDGE_CURVE('',#871,#186,#881,.T.);
#881 = LINE('',#882,#883);
#882 = CARTESIAN_POINT('',(-43.,73.5,36.));
#883 = VECTOR('',#884,1.);
#884 = DIRECTION('',(0.,-1.,1.110223024625E-16));
#885 = PLANE('',#886);
#886 = AXIS2_PLACEMENT_3D('',#887,#888,#889);
#887 = CARTESIAN_POINT('',(-84.,73.5,36.));
#888 = DIRECTION('',(0.,1.110223024625E-16,1.));
#889 = DIRECTION('',(0.,-1.,1.110223024625E-16));
#890 = ADVANCED_FACE('',(#891),#910,.F.);
#891 = FACE_BOUND('',#892,.F.);
#892 = EDGE_LOOP('',(#893,#894,#902,#909));
#893 = ORIENTED_EDGE('',*,*,#185,.F.);
#894 = ORIENTED_EDGE('',*,*,#895,.F.);
#895 = EDGE_CURVE('',#896,#178,#898,.T.);
#896 = VERTEX_POINT('',#897);
#897 = CARTESIAN_POINT('',(-40.,73.5,33.));
#898 = LINE('',#899,#900);
#899 = CARTESIAN_POINT('',(-40.,73.5,33.));
#900 = VECTOR('',#901,1.);
#901 = DIRECTION('',(0.,-1.,1.110223024625E-16));
#902 = ORIENTED_EDGE('',*,*,#903,.T.);
#903 = EDGE_CURVE('',#896,#871,#904,.T.);
#904 = CIRCLE('',#905,3.);
#905 = AXIS2_PLACEMENT_3D('',#906,#907,#908);
#906 = CARTESIAN_POINT('',(-43.,73.5,33.));
#907 = DIRECTION('',(0.,-1.,1.110223024625E-16));
#908 = DIRECTION('',(1.,0.,0.));
#909 = ORIENTED_EDGE('',*,*,#880,.T.);
#910 = CYLINDRICAL_SURFACE('',#911,3.);
#911 = AXIS2_PLACEMENT_3D('',#912,#913,#914);
#912 = CARTESIAN_POINT('',(-43.,73.5,33.));
#913 = DIRECTION('',(0.,-1.,1.110223024625E-16));
#914 = DIRECTION('',(1.,0.,0.));
#915 = ADVANCED_FACE('',(#916),#934,.F.);
#916 = FACE_BOUND('',#917,.F.);
#917 = EDGE_LOOP('',(#918,#926,#932,#933));
#918 = ORIENTED_EDGE('',*,*,#919,.F.);
#919 = EDGE_CURVE('',#920,#169,#922,.T.);
#920 = VERTEX_POINT('',#921);
#921 = CARTESIAN_POINT('',(-40.,73.5,-33.));
#922 = LINE('',#923,#924);
#923 = CARTESIAN_POINT('',(-40.,73.5,-33.));
#924 = VECTOR('',#925,1.);
#925 = DIRECTION('',(0.,-1.,1.110223024625E-16));
#926 = ORIENTED_EDGE('',*,*,#927,.T.);
#927 = EDGE_CURVE('',#920,#896,#928,.T.);
#928 = LINE('',#929,#930);
#929 = CARTESIAN_POINT('',(-40.,73.5,-33.));
#930 = VECTOR('',#931,1.);
#931 = DIRECTION('',(0.,1.110223024625E-16,1.));
#932 = ORIENTED_EDGE('',*,*,#895,.T.);
#933 = ORIENTED_EDGE('',*,*,#177,.T.);
#934 = PLANE('',#935);
#935 = AXIS2_PLACEMENT_3D('',#936,#937,#938);
#936 = CARTESIAN_POINT('',(-40.,73.5,-33.));
#937 = DIRECTION('',(1.,0.,0.));
#938 = DIRECTION('',(0.,-1.,1.110223024625E-16));
#939 = ADVANCED_FACE('',(#940),#959,.F.);
#940 = FACE_BOUND('',#941,.F.);
#941 = EDGE_LOOP('',(#942,#951,#952,#953));
#942 = ORIENTED_EDGE('',*,*,#943,.T.);
#943 = EDGE_CURVE('',#944,#920,#946,.T.);
#944 = VERTEX_POINT('',#945);
#945 = CARTESIAN_POINT('',(-43.,73.5,-36.));
#946 = CIRCLE('',#947,3.);
#947 = AXIS2_PLACEMENT_3D('',#948,#949,#950);
#948 = CARTESIAN_POINT('',(-43.,73.5,-33.));
#949 = DIRECTION('',(0.,-1.,1.110223024625E-16));
#950 = DIRECTION('',(1.,0.,0.));
#951 = ORIENTED_EDGE('',*,*,#919,.T.);
#952 = ORIENTED_EDGE('',*,*,#168,.F.);
#953 = ORIENTED_EDGE('',*,*,#954,.F.);
#954 = EDGE_CURVE('',#944,#161,#955,.T.);
#955 = LINE('',#956,#957);
#956 = CARTESIAN_POINT('',(-43.,73.5,-36.));
#957 = VECTOR('',#958,1.);
#958 = DIRECTION('',(0.,-1.,1.110223024625E-16));
#959 = CYLINDRICAL_SURFACE('',#960,3.);
#960 = AXIS2_PLACEMENT_3D('',#961,#962,#963);
#961 = CARTESIAN_POINT('',(-43.,73.5,-33.));
#962 = DIRECTION('',(0.,-1.,1.110223024625E-16));
#963 = DIRECTION('',(1.,0.,0.));
#964 = ADVANCED_FACE('',(#965),#983,.T.);
#965 = FACE_BOUND('',#966,.T.);
#966 = EDGE_LOOP('',(#967,#975,#981,#982));
#967 = ORIENTED_EDGE('',*,*,#968,.F.);
#968 = EDGE_CURVE('',#969,#944,#971,.T.);
#969 = VERTEX_POINT('',#970);
#970 = CARTESIAN_POINT('',(-84.,73.5,-36.));
#971 = LINE('',#972,#973);
#972 = CARTESIAN_POINT('',(-84.,73.5,-36.));
#973 = VECTOR('',#974,1.);
#974 = DIRECTION('',(1.,0.,0.));
#975 = ORIENTED_EDGE('',*,*,#976,.T.);
#976 = EDGE_CURVE('',#969,#152,#977,.T.);
#977 = LINE('',#978,#979);
#978 = CARTESIAN_POINT('',(-84.,73.5,-36.));
#979 = VECTOR('',#980,1.);
#980 = DIRECTION('',(0.,-1.,1.110223024625E-16));
#981 = ORIENTED_EDGE('',*,*,#160,.T.);
#982 = ORIENTED_EDGE('',*,*,#954,.F.);
#983 = PLANE('',#984);
#984 = AXIS2_PLACEMENT_3D('',#985,#986,#987);
#985 = CARTESIAN_POINT('',(-84.,73.5,-36.));
#986 = DIRECTION('',(0.,1.110223024625E-16,1.));
#987 = DIRECTION('',(0.,-1.,1.110223024625E-16));
#988 = ADVANCED_FACE('',(#989),#1001,.F.);
#989 = FACE_BOUND('',#990,.F.);
#990 = EDGE_LOOP('',(#991,#992,#993,#1000));
#991 = ORIENTED_EDGE('',*,*,#151,.F.);
#992 = ORIENTED_EDGE('',*,*,#814,.F.);
#993 = ORIENTED_EDGE('',*,*,#994,.T.);
#994 = EDGE_CURVE('',#815,#969,#995,.T.);
#995 = CIRCLE('',#996,3.);
#996 = AXIS2_PLACEMENT_3D('',#997,#998,#999);
#997 = CARTESIAN_POINT('',(-84.,73.5,-33.));
#998 = DIRECTION('',(0.,-1.,1.110223024625E-16));
#999 = DIRECTION('',(1.,0.,0.));
#1000 = ORIENTED_EDGE('',*,*,#976,.T.);
#1001 = CYLINDRICAL_SURFACE('',#1002,3.);
#1002 = AXIS2_PLACEMENT_3D('',#1003,#1004,#1005);
#1003 = CARTESIAN_POINT('',(-84.,73.5,-33.));
#1004 = DIRECTION('',(0.,-1.,1.110223024625E-16));
#1005 = DIRECTION('',(1.,0.,0.));
#1006 = ADVANCED_FACE('',(#1007),#1026,.F.);
#1007 = FACE_BOUND('',#1008,.F.);
#1008 = EDGE_LOOP('',(#1009,#1018,#1024,#1025));
#1009 = ORIENTED_EDGE('',*,*,#1010,.T.);
#1010 = EDGE_CURVE('',#1011,#1011,#1013,.T.);
#1011 = VERTEX_POINT('',#1012);
#1012 = CARTESIAN_POINT('',(-92.5,73.5,23.3));
#1013 = CIRCLE('',#1014,1.7);
#1014 = AXIS2_PLACEMENT_3D('',#1015,#1016,#1017);
#1015 = CARTESIAN_POINT('',(-92.5,73.5,25.));
#1016 = DIRECTION('',(0.,-1.,0.));
#1017 = DIRECTION('',(0.,-0.,-1.));
#1018 = ORIENTED_EDGE('',*,*,#1019,.T.);
#1019 = EDGE_CURVE('',#1011,#212,#1020,.T.);
#1020 = LINE('',#1021,#1022);
#1021 = CARTESIAN_POINT('',(-92.5,75.1,23.3));
#1022 = VECTOR('',#1023,1.);
#1023 = DIRECTION('',(0.,-1.,0.));
#1024 = ORIENTED_EDGE('',*,*,#211,.F.);
#1025 = ORIENTED_EDGE('',*,*,#1019,.F.);
#1026 = CYLINDRICAL_SURFACE('',#1027,1.7);
#1027 = AXIS2_PLACEMENT_3D('',#1028,#1029,#1030);
#1028 = CARTESIAN_POINT('',(-92.5,75.1,25.));
#1029 = DIRECTION('',(0.,-1.,0.));
#1030 = DIRECTION('',(0.,-0.,-1.));
#1031 = ADVANCED_FACE('',(#1032),#1051,.F.);
#1032 = FACE_BOUND('',#1033,.F.);
#1033 = EDGE_LOOP('',(#1034,#1043,#1049,#1050));
#1034 = ORIENTED_EDGE('',*,*,#1035,.F.);
#1035 = EDGE_CURVE('',#1036,#1036,#1038,.T.);
#1036 = VERTEX_POINT('',#1037);
#1037 = CARTESIAN_POINT('',(-30.,75.,32.2));
#1038 = CIRCLE('',#1039,2.2);
#1039 = AXIS2_PLACEMENT_3D('',#1040,#1041,#1042);
#1040 = CARTESIAN_POINT('',(-30.,75.,30.));
#1041 = DIRECTION('',(0.,1.,0.));
#1042 = DIRECTION('',(0.,-0.,1.));
#1043 = ORIENTED_EDGE('',*,*,#1044,.F.);
#1044 = EDGE_CURVE('',#223,#1036,#1045,.T.);
#1045 = LINE('',#1046,#1047);
#1046 = CARTESIAN_POINT('',(-30.,71.,32.2));
#1047 = VECTOR('',#1048,1.);
#1048 = DIRECTION('',(0.,1.,0.));
#1049 = ORIENTED_EDGE('',*,*,#222,.T.);
#1050 = ORIENTED_EDGE('',*,*,#1044,.T.);
#1051 = CYLINDRICAL_SURFACE('',#1052,2.2);
#1052 = AXIS2_PLACEMENT_3D('',#1053,#1054,#1055);
#1053 = CARTESIAN_POINT('',(-30.,71.,30.));
#1054 = DIRECTION('',(0.,1.,0.));
#1055 = DIRECTION('',(0.,-0.,1.));
#1056 = ADVANCED_FACE('',(#1057),#1076,.F.);
#1057 = FACE_BOUND('',#1058,.F.);
#1058 = EDGE_LOOP('',(#1059,#1068,#1074,#1075));
#1059 = ORIENTED_EDGE('',*,*,#1060,.F.);
#1060 = EDGE_CURVE('',#1061,#1061,#1063,.T.);
#1061 = VERTEX_POINT('',#1062);
#1062 = CARTESIAN_POINT('',(30.,75.,-27.8));
#1063 = CIRCLE('',#1064,2.2);
#1064 = AXIS2_PLACEMENT_3D('',#1065,#1066,#1067);
#1065 = CARTESIAN_POINT('',(30.,75.,-30.));
#1066 = DIRECTION('',(0.,1.,0.));
#1067 = DIRECTION('',(0.,-0.,1.));
#1068 = ORIENTED_EDGE('',*,*,#1069,.F.);
#1069 = EDGE_CURVE('',#234,#1061,#1070,.T.);
#1070 = LINE('',#1071,#1072);
#1071 = CARTESIAN_POINT('',(30.,71.,-27.8));
#1072 = VECTOR('',#1073,1.);
#1073 = DIRECTION('',(0.,1.,0.));
#1074 = ORIENTED_EDGE('',*,*,#233,.T.);
#1075 = ORIENTED_EDGE('',*,*,#1069,.T.);
#1076 = CYLINDRICAL_SURFACE('',#1077,2.2);
#1077 = AXIS2_PLACEMENT_3D('',#1078,#1079,#1080);
#1078 = CARTESIAN_POINT('',(30.,71.,-30.));
#1079 = DIRECTION('',(0.,1.,0.));
#1080 = DIRECTION('',(0.,-0.,1.));
#1081 = ADVANCED_FACE('',(#1082),#1101,.F.);
#1082 = FACE_BOUND('',#1083,.F.);
#1083 = EDGE_LOOP('',(#1084,#1093,#1099,#1100));
#1084 = ORIENTED_EDGE('',*,*,#1085,.T.);
#1085 = EDGE_CURVE('',#1086,#1086,#1088,.T.);
#1086 = VERTEX_POINT('',#1087);
#1087 = CARTESIAN_POINT('',(92.5,73.5,-26.7));
#1088 = CIRCLE('',#1089,1.7);
#1089 = AXIS2_PLACEMENT_3D('',#1090,#1091,#1092);
#1090 = CARTESIAN_POINT('',(92.5,73.5,-25.));
#1091 = DIRECTION('',(0.,-1.,0.));
#1092 = DIRECTION('',(0.,-0.,-1.));
#1093 = ORIENTED_EDGE('',*,*,#1094,.T.);
#1094 = EDGE_CURVE('',#1086,#245,#1095,.T.);
#1095 = LINE('',#1096,#1097);
#1096 = CARTESIAN_POINT('',(92.5,75.1,-26.7));
#1097 = VECTOR('',#1098,1.);
#1098 = DIRECTION('',(0.,-1.,0.));
#1099 = ORIENTED_EDGE('',*,*,#244,.F.);
#1100 = ORIENTED_EDGE('',*,*,#1094,.F.);
#1101 = CYLINDRICAL_SURFACE('',#1102,1.7);
#1102 = AXIS2_PLACEMENT_3D('',#1103,#1104,#1105);
#1103 = CARTESIAN_POINT('',(92.5,75.1,-25.));
#1104 = DIRECTION('',(0.,-1.,0.));
#1105 = DIRECTION('',(0.,-0.,-1.));
#1106 = ADVANCED_FACE('',(#1107),#1126,.F.);
#1107 = FACE_BOUND('',#1108,.F.);
#1108 = EDGE_LOOP('',(#1109,#1118,#1124,#1125));
#1109 = ORIENTED_EDGE('',*,*,#1110,.F.);
#1110 = EDGE_CURVE('',#1111,#1111,#1113,.T.);
#1111 = VERTEX_POINT('',#1112);
#1112 = CARTESIAN_POINT('',(-8.082668874373E-15,75.,33.));
#1113 = CIRCLE('',#1114,33.);
#1114 = AXIS2_PLACEMENT_3D('',#1115,#1116,#1117);
#1115 = CARTESIAN_POINT('',(0.,75.,0.));
#1116 = DIRECTION('',(0.,1.,0.));
#1117 = DIRECTION('',(0.,-0.,1.));
#1118 = ORIENTED_EDGE('',*,*,#1119,.F.);
#1119 = EDGE_CURVE('',#256,#1111,#1120,.T.);
#1120 = LINE('',#1121,#1122);
#1121 = CARTESIAN_POINT('',(-8.082668874373E-15,71.,33.));
#1122 = VECTOR('',#1123,1.);
#1123 = DIRECTION('',(0.,1.,0.));
#1124 = ORIENTED_EDGE('',*,*,#255,.T.);
#1125 = ORIENTED_EDGE('',*,*,#1119,.T.);
#1126 = CYLINDRICAL_SURFACE('',#1127,33.);
#1127 = AXIS2_PLACEMENT_3D('',#1128,#1129,#1130);
#1128 = CARTESIAN_POINT('',(0.,71.,0.));
#1129 = DIRECTION('',(0.,1.,0.));
#1130 = DIRECTION('',(0.,-0.,1.));
#1131 = ADVANCED_FACE('',(#1132),#1151,.F.);
#1132 = FACE_BOUND('',#1133,.F.);
#1133 = EDGE_LOOP('',(#1134,#1143,#1149,#1150));
#1134 = ORIENTED_EDGE('',*,*,#1135,.F.);
#1135 = EDGE_CURVE('',#1136,#1136,#1138,.T.);
#1136 = VERTEX_POINT('',#1137);
#1137 = CARTESIAN_POINT('',(30.,75.,32.2));
#1138 = CIRCLE('',#1139,2.2);
#1139 = AXIS2_PLACEMENT_3D('',#1140,#1141,#1142);
#1140 = CARTESIAN_POINT('',(30.,75.,30.));
#1141 = DIRECTION('',(0.,1.,0.));
#1142 = DIRECTION('',(0.,-0.,1.));
#1143 = ORIENTED_EDGE('',*,*,#1144,.F.);
#1144 = EDGE_CURVE('',#267,#1136,#1145,.T.);
#1145 = LINE('',#1146,#1147);
#1146 = CARTESIAN_POINT('',(30.,71.,32.2));
#1147 = VECTOR('',#1148,1.);
#1148 = DIRECTION('',(0.,1.,0.));
#1149 = ORIENTED_EDGE('',*,*,#266,.T.);
#1150 = ORIENTED_EDGE('',*,*,#1144,.T.);
#1151 = CYLINDRICAL_SURFACE('',#1152,2.2);
#1152 = AXIS2_PLACEMENT_3D('',#1153,#1154,#1155);
#1153 = CARTESIAN_POINT('',(30.,71.,30.));
#1154 = DIRECTION('',(0.,1.,0.));
#1155 = DIRECTION('',(0.,-0.,1.));
#1156 = ADVANCED_FACE('',(#1157),#1182,.T.);
#1157 = FACE_BOUND('',#1158,.T.);
#1158 = EDGE_LOOP('',(#1159,#1167,#1175,#1181));
#1159 = ORIENTED_EDGE('',*,*,#1160,.F.);
#1160 = EDGE_CURVE('',#1161,#280,#1163,.T.);
#1161 = VERTEX_POINT('',#1162);
#1162 = CARTESIAN_POINT('',(40.,73.5,-33.));
#1163 = LINE('',#1164,#1165);
#1164 = CARTESIAN_POINT('',(40.,73.5,-33.));
#1165 = VECTOR('',#1166,1.);
#1166 = DIRECTION('',(0.,-1.,1.110223024625E-16));
#1167 = ORIENTED_EDGE('',*,*,#1168,.T.);
#1168 = EDGE_CURVE('',#1161,#1169,#1171,.T.);
#1169 = VERTEX_POINT('',#1170);
#1170 = CARTESIAN_POINT('',(40.,73.5,33.));
#1171 = LINE('',#1172,#1173);
#1172 = CARTESIAN_POINT('',(40.,73.5,-33.));
#1173 = VECTOR('',#1174,1.);
#1174 = DIRECTION('',(0.,1.110223024625E-16,1.));
#1175 = ORIENTED_EDGE('',*,*,#1176,.T.);
#1176 = EDGE_CURVE('',#1169,#278,#1177,.T.);
#1177 = LINE('',#1178,#1179);
#1178 = CARTESIAN_POINT('',(40.,73.5,33.));
#1179 = VECTOR('',#1180,1.);
#1180 = DIRECTION('',(0.,-1.,1.110223024625E-16));
#1181 = ORIENTED_EDGE('',*,*,#277,.T.);
#1182 = PLANE('',#1183);
#1183 = AXIS2_PLACEMENT_3D('',#1184,#1185,#1186);
#1184 = CARTESIAN_POINT('',(40.,73.5,-33.));
#1185 = DIRECTION('',(1.,0.,0.));
#1186 = DIRECTION('',(0.,-1.,1.110223024625E-16));
#1187 = ADVANCED_FACE('',(#1188),#1207,.F.);
#1188 = FACE_BOUND('',#1189,.F.);
#1189 = EDGE_LOOP('',(#1190,#1191,#1199,#1206));
#1190 = ORIENTED_EDGE('',*,*,#338,.F.);
#1191 = ORIENTED_EDGE('',*,*,#1192,.F.);
#1192 = EDGE_CURVE('',#1193,#331,#1195,.T.);
#1193 = VERTEX_POINT('',#1194);
#1194 = CARTESIAN_POINT('',(43.,73.5,36.));
#1195 = LINE('',#1196,#1197);
#1196 = CARTESIAN_POINT('',(43.,73.5,36.));
#1197 = VECTOR('',#1198,1.);
#1198 = DIRECTION('',(0.,-1.,1.110223024625E-16));
#1199 = ORIENTED_EDGE('',*,*,#1200,.T.);
#1200 = EDGE_CURVE('',#1193,#1169,#1201,.T.);
#1201 = CIRCLE('',#1202,3.);
#1202 = AXIS2_PLACEMENT_3D('',#1203,#1204,#1205);
#1203 = CARTESIAN_POINT('',(43.,73.5,33.));
#1204 = DIRECTION('',(0.,-1.,1.110223024625E-16));
#1205 = DIRECTION('',(1.,0.,0.));
#1206 = ORIENTED_EDGE('',*,*,#1176,.T.);
#1207 = CYLINDRICAL_SURFACE('',#1208,3.);
#1208 = AXIS2_PLACEMENT_3D('',#1209,#1210,#1211);
#1209 = CARTESIAN_POINT('',(43.,73.5,33.));
#1210 = DIRECTION('',(0.,-1.,1.110223024625E-16));
#1211 = DIRECTION('',(1.,0.,0.));
#1212 = ADVANCED_FACE('',(#1213),#1231,.F.);
#1213 = FACE_BOUND('',#1214,.F.);
#1214 = EDGE_LOOP('',(#1215,#1223,#1224,#1225));
#1215 = ORIENTED_EDGE('',*,*,#1216,.F.);
#1216 = EDGE_CURVE('',#1193,#1217,#1219,.T.);
#1217 = VERTEX_POINT('',#1218);
#1218 = CARTESIAN_POINT('',(84.,73.5,36.));
#1219 = LINE('',#1220,#1221);
#1220 = CARTESIAN_POINT('',(43.,73.5,36.));
#1221 = VECTOR('',#1222,1.);
#1222 = DIRECTION('',(1.,0.,0.));
#1223 = ORIENTED_EDGE('',*,*,#1192,.T.);
#1224 = ORIENTED_EDGE('',*,*,#330,.T.);
#1225 = ORIENTED_EDGE('',*,*,#1226,.F.);
#1226 = EDGE_CURVE('',#1217,#322,#1227,.T.);
#1227 = LINE('',#1228,#1229);
#1228 = CARTESIAN_POINT('',(84.,73.5,36.));
#1229 = VECTOR('',#1230,1.);
#1230 = DIRECTION('',(0.,-1.,1.110223024625E-16));
#1231 = PLANE('',#1232);
#1232 = AXIS2_PLACEMENT_3D('',#1233,#1234,#1235);
#1233 = CARTESIAN_POINT('',(43.,73.5,36.));
#1234 = DIRECTION('',(0.,1.110223024625E-16,1.));
#1235 = DIRECTION('',(0.,-1.,1.110223024625E-16));
#1236 = ADVANCED_FACE('',(#1237),#1256,.F.);
#1237 = FACE_BOUND('',#1238,.F.);
#1238 = EDGE_LOOP('',(#1239,#1240,#1248,#1255));
#1239 = ORIENTED_EDGE('',*,*,#321,.F.);
#1240 = ORIENTED_EDGE('',*,*,#1241,.F.);
#1241 = EDGE_CURVE('',#1242,#314,#1244,.T.);
#1242 = VERTEX_POINT('',#1243);
#1243 = CARTESIAN_POINT('',(87.,73.5,33.));
#1244 = LINE('',#1245,#1246);
#1245 = CARTESIAN_POINT('',(87.,73.5,33.));
#1246 = VECTOR('',#1247,1.);
#1247 = DIRECTION('',(0.,-1.,1.110223024625E-16));
#1248 = ORIENTED_EDGE('',*,*,#1249,.T.);
#1249 = EDGE_CURVE('',#1242,#1217,#1250,.T.);
#1250 = CIRCLE('',#1251,3.);
#1251 = AXIS2_PLACEMENT_3D('',#1252,#1253,#1254);
#1252 = CARTESIAN_POINT('',(84.,73.5,33.));
#1253 = DIRECTION('',(0.,-1.,1.110223024625E-16));
#1254 = DIRECTION('',(1.,0.,0.));
#1255 = ORIENTED_EDGE('',*,*,#1226,.T.);
#1256 = CYLINDRICAL_SURFACE('',#1257,3.);
#1257 = AXIS2_PLACEMENT_3D('',#1258,#1259,#1260);
#1258 = CARTESIAN_POINT('',(84.,73.5,33.));
#1259 = DIRECTION('',(0.,-1.,1.110223024625E-16));
#1260 = DIRECTION('',(1.,0.,0.));
#1261 = ADVANCED_FACE('',(#1262),#1280,.F.);
#1262 = FACE_BOUND('',#1263,.F.);
#1263 = EDGE_LOOP('',(#1264,#1272,#1278,#1279));
#1264 = ORIENTED_EDGE('',*,*,#1265,.F.);
#1265 = EDGE_CURVE('',#1266,#305,#1268,.T.);
#1266 = VERTEX_POINT('',#1267);
#1267 = CARTESIAN_POINT('',(87.,73.5,-33.));
#1268 = LINE('',#1269,#1270);
#1269 = CARTESIAN_POINT('',(87.,73.5,-33.));
#1270 = VECTOR('',#1271,1.);
#1271 = DIRECTION('',(0.,-1.,1.110223024625E-16));
#1272 = ORIENTED_EDGE('',*,*,#1273,.T.);
#1273 = EDGE_CURVE('',#1266,#1242,#1274,.T.);
#1274 = LINE('',#1275,#1276);
#1275 = CARTESIAN_POINT('',(87.,73.5,-33.));
#1276 = VECTOR('',#1277,1.);
#1277 = DIRECTION('',(0.,1.110223024625E-16,1.));
#1278 = ORIENTED_EDGE('',*,*,#1241,.T.);
#1279 = ORIENTED_EDGE('',*,*,#313,.T.);
#1280 = PLANE('',#1281);
#1281 = AXIS2_PLACEMENT_3D('',#1282,#1283,#1284);
#1282 = CARTESIAN_POINT('',(87.,73.5,-33.));
#1283 = DIRECTION('',(1.,0.,0.));
#1284 = DIRECTION('',(0.,-1.,1.110223024625E-16));
#1285 = ADVANCED_FACE('',(#1286),#1305,.F.);
#1286 = FACE_BOUND('',#1287,.F.);
#1287 = EDGE_LOOP('',(#1288,#1297,#1298,#1299));
#1288 = ORIENTED_EDGE('',*,*,#1289,.T.);
#1289 = EDGE_CURVE('',#1290,#1266,#1292,.T.);
#1290 = VERTEX_POINT('',#1291);
#1291 = CARTESIAN_POINT('',(84.,73.5,-36.));
#1292 = CIRCLE('',#1293,3.);
#1293 = AXIS2_PLACEMENT_3D('',#1294,#1295,#1296);
#1294 = CARTESIAN_POINT('',(84.,73.5,-33.));
#1295 = DIRECTION('',(0.,-1.,1.110223024625E-16));
#1296 = DIRECTION('',(1.,0.,0.));
#1297 = ORIENTED_EDGE('',*,*,#1265,.T.);
#1298 = ORIENTED_EDGE('',*,*,#304,.F.);
#1299 = ORIENTED_EDGE('',*,*,#1300,.F.);
#1300 = EDGE_CURVE('',#1290,#297,#1301,.T.);
#1301 = LINE('',#1302,#1303);
#1302 = CARTESIAN_POINT('',(84.,73.5,-36.));
#1303 = VECTOR('',#1304,1.);
#1304 = DIRECTION('',(0.,-1.,1.110223024625E-16));
#1305 = CYLINDRICAL_SURFACE('',#1306,3.);
#1306 = AXIS2_PLACEMENT_3D('',#1307,#1308,#1309);
#1307 = CARTESIAN_POINT('',(84.,73.5,-33.));
#1308 = DIRECTION('',(0.,-1.,1.110223024625E-16));
#1309 = DIRECTION('',(1.,0.,0.));
#1310 = ADVANCED_FACE('',(#1311),#1329,.T.);
#1311 = FACE_BOUND('',#1312,.T.);
#1312 = EDGE_LOOP('',(#1313,#1321,#1327,#1328));
#1313 = ORIENTED_EDGE('',*,*,#1314,.F.);
#1314 = EDGE_CURVE('',#1315,#1290,#1317,.T.);
#1315 = VERTEX_POINT('',#1316);
#1316 = CARTESIAN_POINT('',(43.,73.5,-36.));
#1317 = LINE('',#1318,#1319);
#1318 = CARTESIAN_POINT('',(43.,73.5,-36.));
#1319 = VECTOR('',#1320,1.);
#1320 = DIRECTION('',(1.,0.,0.));
#1321 = ORIENTED_EDGE('',*,*,#1322,.T.);
#1322 = EDGE_CURVE('',#1315,#288,#1323,.T.);
#1323 = LINE('',#1324,#1325);
#1324 = CARTESIAN_POINT('',(43.,73.5,-36.));
#1325 = VECTOR('',#1326,1.);
#1326 = DIRECTION('',(0.,-1.,1.110223024625E-16));
#1327 = ORIENTED_EDGE('',*,*,#296,.T.);
#1328 = ORIENTED_EDGE('',*,*,#1300,.F.);
#1329 = PLANE('',#1330);
#1330 = AXIS2_PLACEMENT_3D('',#1331,#1332,#1333);
#1331 = CARTESIAN_POINT('',(43.,73.5,-36.));
#1332 = DIRECTION('',(0.,1.110223024625E-16,1.));
#1333 = DIRECTION('',(0.,-1.,1.110223024625E-16));
#1334 = ADVANCED_FACE('',(#1335),#1347,.F.);
#1335 = FACE_BOUND('',#1336,.F.);
#1336 = EDGE_LOOP('',(#1337,#1338,#1339,#1346));
#1337 = ORIENTED_EDGE('',*,*,#287,.F.);
#1338 = ORIENTED_EDGE('',*,*,#1160,.F.);
#1339 = ORIENTED_EDGE('',*,*,#1340,.T.);
#1340 = EDGE_CURVE('',#1161,#1315,#1341,.T.);
#1341 = CIRCLE('',#1342,3.);
#1342 = AXIS2_PLACEMENT_3D('',#1343,#1344,#1345);
#1343 = CARTESIAN_POINT('',(43.,73.5,-33.));
#1344 = DIRECTION('',(0.,-1.,1.110223024625E-16));
#1345 = DIRECTION('',(1.,0.,0.));
#1346 = ORIENTED_EDGE('',*,*,#1322,.T.);
#1347 = CYLINDRICAL_SURFACE('',#1348,3.);
#1348 = AXIS2_PLACEMENT_3D('',#1349,#1350,#1351);
#1349 = CARTESIAN_POINT('',(43.,73.5,-33.));
#1350 = DIRECTION('',(0.,-1.,1.110223024625E-16));
#1351 = DIRECTION('',(1.,0.,0.));
#1352 = ADVANCED_FACE('',(#1353),#1372,.F.);
#1353 = FACE_BOUND('',#1354,.F.);
#1354 = EDGE_LOOP('',(#1355,#1364,#1370,#1371));
#1355 = ORIENTED_EDGE('',*,*,#1356,.T.);
#1356 = EDGE_CURVE('',#1357,#1357,#1359,.T.);
#1357 = VERTEX_POINT('',#1358);
#1358 = CARTESIAN_POINT('',(92.5,73.5,23.3));
#1359 = CIRCLE('',#1360,1.7);
#1360 = AXIS2_PLACEMENT_3D('',#1361,#1362,#1363);
#1361 = CARTESIAN_POINT('',(92.5,73.5,25.));
#1362 = DIRECTION('',(0.,-1.,0.));
#1363 = DIRECTION('',(0.,-0.,-1.));
#1364 = ORIENTED_EDGE('',*,*,#1365,.T.);
#1365 = EDGE_CURVE('',#1357,#348,#1366,.T.);
#1366 = LINE('',#1367,#1368);
#1367 = CARTESIAN_POINT('',(92.5,75.1,23.3));
#1368 = VECTOR('',#1369,1.);
#1369 = DIRECTION('',(0.,-1.,0.));
#1370 = ORIENTED_EDGE('',*,*,#347,.F.);
#1371 = ORIENTED_EDGE('',*,*,#1365,.F.);
#1372 = CYLINDRICAL_SURFACE('',#1373,1.7);
#1373 = AXIS2_PLACEMENT_3D('',#1374,#1375,#1376);
#1374 = CARTESIAN_POINT('',(92.5,75.1,25.));
#1375 = DIRECTION('',(0.,-1.,0.));
#1376 = DIRECTION('',(0.,-0.,-1.));
#1377 = ADVANCED_FACE('',(#1378),#1396,.T.);
#1378 = FACE_BOUND('',#1379,.T.);
#1379 = EDGE_LOOP('',(#1380,#1388,#1394,#1395));
#1380 = ORIENTED_EDGE('',*,*,#1381,.F.);
#1381 = EDGE_CURVE('',#1382,#531,#1384,.T.);
#1382 = VERTEX_POINT('',#1383);
#1383 = CARTESIAN_POINT('',(86.,61.,-39.));
#1384 = LINE('',#1385,#1386);
#1385 = CARTESIAN_POINT('',(86.,61.,-39.));
#1386 = VECTOR('',#1387,1.);
#1387 = DIRECTION('',(-0.,1.,0.));
#1388 = ORIENTED_EDGE('',*,*,#1389,.F.);
#1389 = EDGE_CURVE('',#375,#1382,#1390,.T.);
#1390 = LINE('',#1391,#1392);
#1391 = CARTESIAN_POINT('',(86.,61.,-47.));
#1392 = VECTOR('',#1393,1.);
#1393 = DIRECTION('',(0.,0.,1.));
#1394 = ORIENTED_EDGE('',*,*,#374,.T.);
#1395 = ORIENTED_EDGE('',*,*,#664,.T.);
#1396 = PLANE('',#1397);
#1397 = AXIS2_PLACEMENT_3D('',#1398,#1399,#1400);
#1398 = CARTESIAN_POINT('',(86.,61.,-47.));
#1399 = DIRECTION('',(1.,0.,-0.));
#1400 = DIRECTION('',(0.,0.,1.));
#1401 = ADVANCED_FACE('',(#1402,#1408,#1419,#1422,#1433,#1436,#1439,
    #1450,#1453,#1456),#1467,.T.);
#1402 = FACE_BOUND('',#1403,.T.);
#1403 = EDGE_LOOP('',(#1404,#1405,#1406,#1407));
#1404 = ORIENTED_EDGE('',*,*,#414,.F.);
#1405 = ORIENTED_EDGE('',*,*,#507,.T.);
#1406 = ORIENTED_EDGE('',*,*,#604,.T.);
#1407 = ORIENTED_EDGE('',*,*,#732,.F.);
#1408 = FACE_BOUND('',#1409,.T.);
#1409 = EDGE_LOOP('',(#1410));
#1410 = ORIENTED_EDGE('',*,*,#1411,.T.);
#1411 = EDGE_CURVE('',#1412,#1412,#1414,.T.);
#1412 = VERTEX_POINT('',#1413);
#1413 = CARTESIAN_POINT('',(-92.5,75.,-28.2));
#1414 = CIRCLE('',#1415,3.2);
#1415 = AXIS2_PLACEMENT_3D('',#1416,#1417,#1418);
#1416 = CARTESIAN_POINT('',(-92.5,75.,-25.));
#1417 = DIRECTION('',(0.,-1.,0.));
#1418 = DIRECTION('',(0.,-0.,-1.));
#1419 = FACE_BOUND('',#1420,.T.);
#1420 = EDGE_LOOP('',(#1421));
#1421 = ORIENTED_EDGE('',*,*,#789,.F.);
#1422 = FACE_BOUND('',#1423,.T.);
#1423 = EDGE_LOOP('',(#1424));
#1424 = ORIENTED_EDGE('',*,*,#1425,.T.);
#1425 = EDGE_CURVE('',#1426,#1426,#1428,.T.);
#1426 = VERTEX_POINT('',#1427);
#1427 = CARTESIAN_POINT('',(-92.5,75.,21.8));
#1428 = CIRCLE('',#1429,3.2);
#1429 = AXIS2_PLACEMENT_3D('',#1430,#1431,#1432);
#1430 = CARTESIAN_POINT('',(-92.5,75.,25.));
#1431 = DIRECTION('',(0.,-1.,0.));
#1432 = DIRECTION('',(0.,-0.,-1.));
#1433 = FACE_BOUND('',#1434,.T.);
#1434 = EDGE_LOOP('',(#1435));
#1435 = ORIENTED_EDGE('',*,*,#1035,.F.);
#1436 = FACE_BOUND('',#1437,.T.);
#1437 = EDGE_LOOP('',(#1438));
#1438 = ORIENTED_EDGE('',*,*,#1060,.F.);
#1439 = FACE_BOUND('',#1440,.T.);
#1440 = EDGE_LOOP('',(#1441));
#1441 = ORIENTED_EDGE('',*,*,#1442,.T.);
#1442 = EDGE_CURVE('',#1443,#1443,#1445,.T.);
#1443 = VERTEX_POINT('',#1444);
#1444 = CARTESIAN_POINT('',(92.5,75.,-28.2));
#1445 = CIRCLE('',#1446,3.2);
#1446 = AXIS2_PLACEMENT_3D('',#1447,#1448,#1449);
#1447 = CARTESIAN_POINT('',(92.5,75.,-25.));
#1448 = DIRECTION('',(0.,-1.,0.));
#1449 = DIRECTION('',(0.,-0.,-1.));
#1450 = FACE_BOUND('',#1451,.T.);
#1451 = EDGE_LOOP('',(#1452));
#1452 = ORIENTED_EDGE('',*,*,#1110,.F.);
#1453 = FACE_BOUND('',#1454,.T.);
#1454 = EDGE_LOOP('',(#1455));
#1455 = ORIENTED_EDGE('',*,*,#1135,.F.);
#1456 = FACE_BOUND('',#1457,.T.);
#1457 = EDGE_LOOP('',(#1458));
#1458 = ORIENTED_EDGE('',*,*,#1459,.T.);
#1459 = EDGE_CURVE('',#1460,#1460,#1462,.T.);
#1460 = VERTEX_POINT('',#1461);
#1461 = CARTESIAN_POINT('',(92.5,75.,21.8));
#1462 = CIRCLE('',#1463,3.2);
#1463 = AXIS2_PLACEMENT_3D('',#1464,#1465,#1466);
#1464 = CARTESIAN_POINT('',(92.5,75.,25.));
#1465 = DIRECTION('',(0.,-1.,0.));
#1466 = DIRECTION('',(0.,-0.,-1.));
#1467 = PLANE('',#1468);
#1468 = AXIS2_PLACEMENT_3D('',#1469,#1470,#1471);
#1469 = CARTESIAN_POINT('',(-97.,75.,-47.));
#1470 = DIRECTION('',(-0.,1.,0.));
#1471 = DIRECTION('',(0.,0.,1.));
#1472 = ADVANCED_FACE('',(#1473),#1491,.F.);
#1473 = FACE_BOUND('',#1474,.F.);
#1474 = EDGE_LOOP('',(#1475,#1476,#1484,#1490));
#1475 = ORIENTED_EDGE('',*,*,#382,.F.);
#1476 = ORIENTED_EDGE('',*,*,#1477,.T.);
#1477 = EDGE_CURVE('',#383,#1478,#1480,.T.);
#1478 = VERTEX_POINT('',#1479);
#1479 = CARTESIAN_POINT('',(-86.,61.,-39.));
#1480 = LINE('',#1481,#1482);
#1481 = CARTESIAN_POINT('',(-86.,61.,-47.));
#1482 = VECTOR('',#1483,1.);
#1483 = DIRECTION('',(0.,0.,1.));
#1484 = ORIENTED_EDGE('',*,*,#1485,.T.);
#1485 = EDGE_CURVE('',#1478,#1382,#1486,.T.);
#1486 = LINE('',#1487,#1488);
#1487 = CARTESIAN_POINT('',(-86.,61.,-39.));
#1488 = VECTOR('',#1489,1.);
#1489 = DIRECTION('',(1.,0.,-0.));
#1490 = ORIENTED_EDGE('',*,*,#1389,.F.);
#1491 = PLANE('',#1492);
#1492 = AXIS2_PLACEMENT_3D('',#1493,#1494,#1495);
#1493 = CARTESIAN_POINT('',(-86.,61.,-47.));
#1494 = DIRECTION('',(-0.,1.,0.));
#1495 = DIRECTION('',(0.,0.,1.));
#1496 = ADVANCED_FACE('',(#1497),#1508,.F.);
#1497 = FACE_BOUND('',#1498,.F.);
#1498 = EDGE_LOOP('',(#1499,#1505,#1506,#1507));
#1499 = ORIENTED_EDGE('',*,*,#1500,.F.);
#1500 = EDGE_CURVE('',#1478,#482,#1501,.T.);
#1501 = LINE('',#1502,#1503);
#1502 = CARTESIAN_POINT('',(-86.,61.,-39.));
#1503 = VECTOR('',#1504,1.);
#1504 = DIRECTION('',(-0.,1.,0.));
#1505 = ORIENTED_EDGE('',*,*,#1477,.F.);
#1506 = ORIENTED_EDGE('',*,*,#390,.T.);
#1507 = ORIENTED_EDGE('',*,*,#481,.T.);
#1508 = PLANE('',#1509);
#1509 = AXIS2_PLACEMENT_3D('',#1510,#1511,#1512);
#1510 = CARTESIAN_POINT('',(-86.,61.,-47.));
#1511 = DIRECTION('',(1.,0.,-0.));
#1512 = DIRECTION('',(0.,0.,1.));
#1513 = ADVANCED_FACE('',(#1514),#1533,.F.);
#1514 = FACE_BOUND('',#1515,.F.);
#1515 = EDGE_LOOP('',(#1516,#1524,#1531,#1532));
#1516 = ORIENTED_EDGE('',*,*,#1517,.T.);
#1517 = EDGE_CURVE('',#431,#1518,#1520,.T.);
#1518 = VERTEX_POINT('',#1519);
#1519 = CARTESIAN_POINT('',(81.25,67.,-40.5));
#1520 = LINE('',#1521,#1522);
#1521 = CARTESIAN_POINT('',(81.25,67.,-47.1));
#1522 = VECTOR('',#1523,1.);
#1523 = DIRECTION('',(0.,0.,1.));
#1524 = ORIENTED_EDGE('',*,*,#1525,.F.);
#1525 = EDGE_CURVE('',#1518,#1518,#1526,.T.);
#1526 = CIRCLE('',#1527,1.25);
#1527 = AXIS2_PLACEMENT_3D('',#1528,#1529,#1530);
#1528 = CARTESIAN_POINT('',(80.,67.,-40.5));
#1529 = DIRECTION('',(0.,0.,1.));
#1530 = DIRECTION('',(1.,0.,-0.));
#1531 = ORIENTED_EDGE('',*,*,#1517,.F.);
#1532 = ORIENTED_EDGE('',*,*,#430,.T.);
#1533 = CYLINDRICAL_SURFACE('',#1534,1.25);
#1534 = AXIS2_PLACEMENT_3D('',#1535,#1536,#1537);
#1535 = CARTESIAN_POINT('',(80.,67.,-47.1));
#1536 = DIRECTION('',(0.,0.,1.));
#1537 = DIRECTION('',(1.,0.,-0.));
#1538 = ADVANCED_FACE('',(#1539),#1558,.F.);
#1539 = FACE_BOUND('',#1540,.F.);
#1540 = EDGE_LOOP('',(#1541,#1549,#1556,#1557));
#1541 = ORIENTED_EDGE('',*,*,#1542,.T.);
#1542 = EDGE_CURVE('',#442,#1543,#1545,.T.);
#1543 = VERTEX_POINT('',#1544);
#1544 = CARTESIAN_POINT('',(41.25,67.,-40.5));
#1545 = LINE('',#1546,#1547);
#1546 = CARTESIAN_POINT('',(41.25,67.,-47.1));
#1547 = VECTOR('',#1548,1.);
#1548 = DIRECTION('',(0.,0.,1.));
#1549 = ORIENTED_EDGE('',*,*,#1550,.F.);
#1550 = EDGE_CURVE('',#1543,#1543,#1551,.T.);
#1551 = CIRCLE('',#1552,1.25);
#1552 = AXIS2_PLACEMENT_3D('',#1553,#1554,#1555);
#1553 = CARTESIAN_POINT('',(40.,67.,-40.5));
#1554 = DIRECTION('',(0.,0.,1.));
#1555 = DIRECTION('',(1.,0.,-0.));
#1556 = ORIENTED_EDGE('',*,*,#1542,.F.);
#1557 = ORIENTED_EDGE('',*,*,#441,.T.);
#1558 = CYLINDRICAL_SURFACE('',#1559,1.25);
#1559 = AXIS2_PLACEMENT_3D('',#1560,#1561,#1562);
#1560 = CARTESIAN_POINT('',(40.,67.,-47.1));
#1561 = DIRECTION('',(0.,0.,1.));
#1562 = DIRECTION('',(1.,0.,-0.));
#1563 = ADVANCED_FACE('',(#1564),#1583,.F.);
#1564 = FACE_BOUND('',#1565,.F.);
#1565 = EDGE_LOOP('',(#1566,#1574,#1581,#1582));
#1566 = ORIENTED_EDGE('',*,*,#1567,.T.);
#1567 = EDGE_CURVE('',#453,#1568,#1570,.T.);
#1568 = VERTEX_POINT('',#1569);
#1569 = CARTESIAN_POINT('',(-38.75,67.,-40.5));
#1570 = LINE('',#1571,#1572);
#1571 = CARTESIAN_POINT('',(-38.75,67.,-47.1));
#1572 = VECTOR('',#1573,1.);
#1573 = DIRECTION('',(0.,0.,1.));
#1574 = ORIENTED_EDGE('',*,*,#1575,.F.);
#1575 = EDGE_CURVE('',#1568,#1568,#1576,.T.);
#1576 = CIRCLE('',#1577,1.25);
#1577 = AXIS2_PLACEMENT_3D('',#1578,#1579,#1580);
#1578 = CARTESIAN_POINT('',(-40.,67.,-40.5));
#1579 = DIRECTION('',(0.,0.,1.));
#1580 = DIRECTION('',(1.,0.,-0.));
#1581 = ORIENTED_EDGE('',*,*,#1567,.F.);
#1582 = ORIENTED_EDGE('',*,*,#452,.T.);
#1583 = CYLINDRICAL_SURFACE('',#1584,1.25);
#1584 = AXIS2_PLACEMENT_3D('',#1585,#1586,#1587);
#1585 = CARTESIAN_POINT('',(-40.,67.,-47.1));
#1586 = DIRECTION('',(0.,0.,1.));
#1587 = DIRECTION('',(1.,0.,-0.));
#1588 = ADVANCED_FACE('',(#1589),#1608,.F.);
#1589 = FACE_BOUND('',#1590,.F.);
#1590 = EDGE_LOOP('',(#1591,#1599,#1606,#1607));
#1591 = ORIENTED_EDGE('',*,*,#1592,.T.);
#1592 = EDGE_CURVE('',#464,#1593,#1595,.T.);
#1593 = VERTEX_POINT('',#1594);
#1594 = CARTESIAN_POINT('',(-78.75,67.,-40.5));
#1595 = LINE('',#1596,#1597);
#1596 = CARTESIAN_POINT('',(-78.75,67.,-47.1));
#1597 = VECTOR('',#1598,1.);
#1598 = DIRECTION('',(0.,0.,1.));
#1599 = ORIENTED_EDGE('',*,*,#1600,.F.);
#1600 = EDGE_CURVE('',#1593,#1593,#1601,.T.);
#1601 = CIRCLE('',#1602,1.25);
#1602 = AXIS2_PLACEMENT_3D('',#1603,#1604,#1605);
#1603 = CARTESIAN_POINT('',(-80.,67.,-40.5));
#1604 = DIRECTION('',(0.,0.,1.));
#1605 = DIRECTION('',(1.,0.,-0.));
#1606 = ORIENTED_EDGE('',*,*,#1592,.F.);
#1607 = ORIENTED_EDGE('',*,*,#463,.T.);
#1608 = CYLINDRICAL_SURFACE('',#1609,1.25);
#1609 = AXIS2_PLACEMENT_3D('',#1610,#1611,#1612);
#1610 = CARTESIAN_POINT('',(-80.,67.,-47.1));
#1611 = DIRECTION('',(0.,0.,1.));
#1612 = DIRECTION('',(1.,0.,-0.));
#1613 = ADVANCED_FACE('',(#1614),#1620,.T.);
#1614 = FACE_BOUND('',#1615,.T.);
#1615 = EDGE_LOOP('',(#1616,#1617,#1618,#1619));
#1616 = ORIENTED_EDGE('',*,*,#1500,.F.);
#1617 = ORIENTED_EDGE('',*,*,#1485,.T.);
#1618 = ORIENTED_EDGE('',*,*,#1381,.T.);
#1619 = ORIENTED_EDGE('',*,*,#530,.F.);
#1620 = PLANE('',#1621);
#1621 = AXIS2_PLACEMENT_3D('',#1622,#1623,#1624);
#1622 = CARTESIAN_POINT('',(-86.,61.,-39.));
#1623 = DIRECTION('',(0.,0.,1.));
#1624 = DIRECTION('',(1.,0.,-0.));
#1625 = ADVANCED_FACE('',(#1626),#1644,.F.);
#1626 = FACE_BOUND('',#1627,.F.);
#1627 = EDGE_LOOP('',(#1628,#1629,#1637,#1643));
#1628 = ORIENTED_EDGE('',*,*,#564,.F.);
#1629 = ORIENTED_EDGE('',*,*,#1630,.F.);
#1630 = EDGE_CURVE('',#1631,#565,#1633,.T.);
#1631 = VERTEX_POINT('',#1632);
#1632 = CARTESIAN_POINT('',(-86.,61.,39.));
#1633 = LINE('',#1634,#1635);
#1634 = CARTESIAN_POINT('',(-86.,61.,39.));
#1635 = VECTOR('',#1636,1.);
#1636 = DIRECTION('',(0.,0.,1.));
#1637 = ORIENTED_EDGE('',*,*,#1638,.T.);
#1638 = EDGE_CURVE('',#1631,#681,#1639,.T.);
#1639 = LINE('',#1640,#1641);
#1640 = CARTESIAN_POINT('',(-86.,61.,39.));
#1641 = VECTOR('',#1642,1.);
#1642 = DIRECTION('',(-0.,1.,0.));
#1643 = ORIENTED_EDGE('',*,*,#689,.T.);
#1644 = PLANE('',#1645);
#1645 = AXIS2_PLACEMENT_3D('',#1646,#1647,#1648);
#1646 = CARTESIAN_POINT('',(-86.,61.,39.));
#1647 = DIRECTION('',(1.,0.,-0.));
#1648 = DIRECTION('',(0.,0.,1.));
#1649 = ADVANCED_FACE('',(#1650),#1668,.F.);
#1650 = FACE_BOUND('',#1651,.F.);
#1651 = EDGE_LOOP('',(#1652,#1660,#1661,#1662));
#1652 = ORIENTED_EDGE('',*,*,#1653,.F.);
#1653 = EDGE_CURVE('',#1631,#1654,#1656,.T.);
#1654 = VERTEX_POINT('',#1655);
#1655 = CARTESIAN_POINT('',(86.,61.,39.));
#1656 = LINE('',#1657,#1658);
#1657 = CARTESIAN_POINT('',(-86.,61.,39.));
#1658 = VECTOR('',#1659,1.);
#1659 = DIRECTION('',(1.,0.,-0.));
#1660 = ORIENTED_EDGE('',*,*,#1630,.T.);
#1661 = ORIENTED_EDGE('',*,*,#572,.T.);
#1662 = ORIENTED_EDGE('',*,*,#1663,.F.);
#1663 = EDGE_CURVE('',#1654,#573,#1664,.T.);
#1664 = LINE('',#1665,#1666);
#1665 = CARTESIAN_POINT('',(86.,61.,39.));
#1666 = VECTOR('',#1667,1.);
#1667 = DIRECTION('',(0.,0.,1.));
#1668 = PLANE('',#1669);
#1669 = AXIS2_PLACEMENT_3D('',#1670,#1671,#1672);
#1670 = CARTESIAN_POINT('',(-86.,61.,39.));
#1671 = DIRECTION('',(-0.,1.,0.));
#1672 = DIRECTION('',(0.,0.,1.));
#1673 = ADVANCED_FACE('',(#1674),#1685,.T.);
#1674 = FACE_BOUND('',#1675,.T.);
#1675 = EDGE_LOOP('',(#1676,#1677,#1678,#1684));
#1676 = ORIENTED_EDGE('',*,*,#580,.F.);
#1677 = ORIENTED_EDGE('',*,*,#1663,.F.);
#1678 = ORIENTED_EDGE('',*,*,#1679,.T.);
#1679 = EDGE_CURVE('',#1654,#707,#1680,.T.);
#1680 = LINE('',#1681,#1682);
#1681 = CARTESIAN_POINT('',(86.,61.,39.));
#1682 = VECTOR('',#1683,1.);
#1683 = DIRECTION('',(-0.,1.,0.));
#1684 = ORIENTED_EDGE('',*,*,#748,.T.);
#1685 = PLANE('',#1686);
#1686 = AXIS2_PLACEMENT_3D('',#1687,#1688,#1689);
#1687 = CARTESIAN_POINT('',(86.,61.,39.));
#1688 = DIRECTION('',(1.,0.,-0.));
#1689 = DIRECTION('',(0.,0.,1.));
#1690 = ADVANCED_FACE('',(#1691),#1710,.F.);
#1691 = FACE_BOUND('',#1692,.F.);
#1692 = EDGE_LOOP('',(#1693,#1701,#1708,#1709));
#1693 = ORIENTED_EDGE('',*,*,#1694,.T.);
#1694 = EDGE_CURVE('',#614,#1695,#1697,.T.);
#1695 = VERTEX_POINT('',#1696);
#1696 = CARTESIAN_POINT('',(-81.25,67.,40.5));
#1697 = LINE('',#1698,#1699);
#1698 = CARTESIAN_POINT('',(-81.25,67.,47.1));
#1699 = VECTOR('',#1700,1.);
#1700 = DIRECTION('',(0.,0.,-1.));
#1701 = ORIENTED_EDGE('',*,*,#1702,.F.);
#1702 = EDGE_CURVE('',#1695,#1695,#1703,.T.);
#1703 = CIRCLE('',#1704,1.25);
#1704 = AXIS2_PLACEMENT_3D('',#1705,#1706,#1707);
#1705 = CARTESIAN_POINT('',(-80.,67.,40.5));
#1706 = DIRECTION('',(0.,0.,-1.));
#1707 = DIRECTION('',(-1.,0.,-0.));
#1708 = ORIENTED_EDGE('',*,*,#1694,.F.);
#1709 = ORIENTED_EDGE('',*,*,#613,.T.);
#1710 = CYLINDRICAL_SURFACE('',#1711,1.25);
#1711 = AXIS2_PLACEMENT_3D('',#1712,#1713,#1714);
#1712 = CARTESIAN_POINT('',(-80.,67.,47.1));
#1713 = DIRECTION('',(0.,0.,-1.));
#1714 = DIRECTION('',(-1.,0.,-0.));
#1715 = ADVANCED_FACE('',(#1716),#1735,.F.);
#1716 = FACE_BOUND('',#1717,.F.);
#1717 = EDGE_LOOP('',(#1718,#1726,#1733,#1734));
#1718 = ORIENTED_EDGE('',*,*,#1719,.T.);
#1719 = EDGE_CURVE('',#625,#1720,#1722,.T.);
#1720 = VERTEX_POINT('',#1721);
#1721 = CARTESIAN_POINT('',(-41.25,67.,40.5));
#1722 = LINE('',#1723,#1724);
#1723 = CARTESIAN_POINT('',(-41.25,67.,47.1));
#1724 = VECTOR('',#1725,1.);
#1725 = DIRECTION('',(0.,0.,-1.));
#1726 = ORIENTED_EDGE('',*,*,#1727,.F.);
#1727 = EDGE_CURVE('',#1720,#1720,#1728,.T.);
#1728 = CIRCLE('',#1729,1.25);
#1729 = AXIS2_PLACEMENT_3D('',#1730,#1731,#1732);
#1730 = CARTESIAN_POINT('',(-40.,67.,40.5));
#1731 = DIRECTION('',(0.,0.,-1.));
#1732 = DIRECTION('',(-1.,0.,-0.));
#1733 = ORIENTED_EDGE('',*,*,#1719,.F.);
#1734 = ORIENTED_EDGE('',*,*,#624,.T.);
#1735 = CYLINDRICAL_SURFACE('',#1736,1.25);
#1736 = AXIS2_PLACEMENT_3D('',#1737,#1738,#1739);
#1737 = CARTESIAN_POINT('',(-40.,67.,47.1));
#1738 = DIRECTION('',(0.,0.,-1.));
#1739 = DIRECTION('',(-1.,0.,-0.));
#1740 = ADVANCED_FACE('',(#1741),#1760,.F.);
#1741 = FACE_BOUND('',#1742,.F.);
#1742 = EDGE_LOOP('',(#1743,#1751,#1758,#1759));
#1743 = ORIENTED_EDGE('',*,*,#1744,.T.);
#1744 = EDGE_CURVE('',#636,#1745,#1747,.T.);
#1745 = VERTEX_POINT('',#1746);
#1746 = CARTESIAN_POINT('',(38.75,67.,40.5));
#1747 = LINE('',#1748,#1749);
#1748 = CARTESIAN_POINT('',(38.75,67.,47.1));
#1749 = VECTOR('',#1750,1.);
#1750 = DIRECTION('',(0.,0.,-1.));
#1751 = ORIENTED_EDGE('',*,*,#1752,.F.);
#1752 = EDGE_CURVE('',#1745,#1745,#1753,.T.);
#1753 = CIRCLE('',#1754,1.25);
#1754 = AXIS2_PLACEMENT_3D('',#1755,#1756,#1757);
#1755 = CARTESIAN_POINT('',(40.,67.,40.5));
#1756 = DIRECTION('',(0.,0.,-1.));
#1757 = DIRECTION('',(-1.,0.,-0.));
#1758 = ORIENTED_EDGE('',*,*,#1744,.F.);
#1759 = ORIENTED_EDGE('',*,*,#635,.T.);
#1760 = CYLINDRICAL_SURFACE('',#1761,1.25);
#1761 = AXIS2_PLACEMENT_3D('',#1762,#1763,#1764);
#1762 = CARTESIAN_POINT('',(40.,67.,47.1));
#1763 = DIRECTION('',(0.,0.,-1.));
#1764 = DIRECTION('',(-1.,0.,-0.));
#1765 = ADVANCED_FACE('',(#1766),#1785,.F.);
#1766 = FACE_BOUND('',#1767,.F.);
#1767 = EDGE_LOOP('',(#1768,#1776,#1783,#1784));
#1768 = ORIENTED_EDGE('',*,*,#1769,.T.);
#1769 = EDGE_CURVE('',#647,#1770,#1772,.T.);
#1770 = VERTEX_POINT('',#1771);
#1771 = CARTESIAN_POINT('',(78.75,67.,40.5));
#1772 = LINE('',#1773,#1774);
#1773 = CARTESIAN_POINT('',(78.75,67.,47.1));
#1774 = VECTOR('',#1775,1.);
#1775 = DIRECTION('',(0.,0.,-1.));
#1776 = ORIENTED_EDGE('',*,*,#1777,.F.);
#1777 = EDGE_CURVE('',#1770,#1770,#1778,.T.);
#1778 = CIRCLE('',#1779,1.25);
#1779 = AXIS2_PLACEMENT_3D('',#1780,#1781,#1782);
#1780 = CARTESIAN_POINT('',(80.,67.,40.5));
#1781 = DIRECTION('',(0.,0.,-1.));
#1782 = DIRECTION('',(-1.,0.,-0.));
#1783 = ORIENTED_EDGE('',*,*,#1769,.F.);
#1784 = ORIENTED_EDGE('',*,*,#646,.T.);
#1785 = CYLINDRICAL_SURFACE('',#1786,1.25);
#1786 = AXIS2_PLACEMENT_3D('',#1787,#1788,#1789);
#1787 = CARTESIAN_POINT('',(80.,67.,47.1));
#1788 = DIRECTION('',(0.,0.,-1.));
#1789 = DIRECTION('',(-1.,0.,-0.));
#1790 = ADVANCED_FACE('',(#1791),#1797,.F.);
#1791 = FACE_BOUND('',#1792,.F.);
#1792 = EDGE_LOOP('',(#1793,#1794,#1795,#1796));
#1793 = ORIENTED_EDGE('',*,*,#1638,.F.);
#1794 = ORIENTED_EDGE('',*,*,#1653,.T.);
#1795 = ORIENTED_EDGE('',*,*,#1679,.T.);
#1796 = ORIENTED_EDGE('',*,*,#706,.F.);
#1797 = PLANE('',#1798);
#1798 = AXIS2_PLACEMENT_3D('',#1799,#1800,#1801);
#1799 = CARTESIAN_POINT('',(-86.,61.,39.));
#1800 = DIRECTION('',(0.,0.,1.));
#1801 = DIRECTION('',(1.,0.,-0.));
#1802 = ADVANCED_FACE('',(#1803),#1814,.F.);
#1803 = FACE_BOUND('',#1804,.F.);
#1804 = EDGE_LOOP('',(#1805,#1806,#1812,#1813));
#1805 = ORIENTED_EDGE('',*,*,#764,.F.);
#1806 = ORIENTED_EDGE('',*,*,#1807,.F.);
#1807 = EDGE_CURVE('',#1412,#765,#1808,.T.);
#1808 = LINE('',#1809,#1810);
#1809 = CARTESIAN_POINT('',(-92.5,75.,-28.2));
#1810 = VECTOR('',#1811,1.);
#1811 = DIRECTION('',(1.731912112471E-16,-0.707106781187,0.707106781187)
  );
#1812 = ORIENTED_EDGE('',*,*,#1411,.T.);
#1813 = ORIENTED_EDGE('',*,*,#1807,.T.);
#1814 = CONICAL_SURFACE('',#1815,3.2,0.785398163397);
#1815 = AXIS2_PLACEMENT_3D('',#1816,#1817,#1818);
#1816 = CARTESIAN_POINT('',(-92.5,75.,-25.));
#1817 = DIRECTION('',(-0.,1.,-0.));
#1818 = DIRECTION('',(0.,-0.,-1.));
#1819 = ADVANCED_FACE('',(#1820),#1830,.F.);
#1820 = FACE_BOUND('',#1821,.F.);
#1821 = EDGE_LOOP('',(#1822,#1823,#1824,#1825,#1826,#1827,#1828,#1829));
#1822 = ORIENTED_EDGE('',*,*,#994,.F.);
#1823 = ORIENTED_EDGE('',*,*,#822,.T.);
#1824 = ORIENTED_EDGE('',*,*,#854,.F.);
#1825 = ORIENTED_EDGE('',*,*,#870,.T.);
#1826 = ORIENTED_EDGE('',*,*,#903,.F.);
#1827 = ORIENTED_EDGE('',*,*,#927,.F.);
#1828 = ORIENTED_EDGE('',*,*,#943,.F.);
#1829 = ORIENTED_EDGE('',*,*,#968,.F.);
#1830 = PLANE('',#1831);
#1831 = AXIS2_PLACEMENT_3D('',#1832,#1833,#1834);
#1832 = CARTESIAN_POINT('',(-63.5,73.5,0.));
#1833 = DIRECTION('',(-0.,1.,-1.110223024625E-16));
#1834 = DIRECTION('',(-1.,0.,0.));
#1835 = ADVANCED_FACE('',(#1836),#1847,.F.);
#1836 = FACE_BOUND('',#1837,.F.);
#1837 = EDGE_LOOP('',(#1838,#1839,#1845,#1846));
#1838 = ORIENTED_EDGE('',*,*,#1010,.F.);
#1839 = ORIENTED_EDGE('',*,*,#1840,.F.);
#1840 = EDGE_CURVE('',#1426,#1011,#1841,.T.);
#1841 = LINE('',#1842,#1843);
#1842 = CARTESIAN_POINT('',(-92.5,75.,21.8));
#1843 = VECTOR('',#1844,1.);
#1844 = DIRECTION('',(1.731912112471E-16,-0.707106781187,0.707106781187)
  );
#1845 = ORIENTED_EDGE('',*,*,#1425,.T.);
#1846 = ORIENTED_EDGE('',*,*,#1840,.T.);
#1847 = CONICAL_SURFACE('',#1848,3.2,0.785398163397);
#1848 = AXIS2_PLACEMENT_3D('',#1849,#1850,#1851);
#1849 = CARTESIAN_POINT('',(-92.5,75.,25.));
#1850 = DIRECTION('',(-0.,1.,-0.));
#1851 = DIRECTION('',(0.,-0.,-1.));
#1852 = ADVANCED_FACE('',(#1853),#1864,.F.);
#1853 = FACE_BOUND('',#1854,.F.);
#1854 = EDGE_LOOP('',(#1855,#1856,#1862,#1863));
#1855 = ORIENTED_EDGE('',*,*,#1085,.F.);
#1856 = ORIENTED_EDGE('',*,*,#1857,.F.);
#1857 = EDGE_CURVE('',#1443,#1086,#1858,.T.);
#1858 = LINE('',#1859,#1860);
#1859 = CARTESIAN_POINT('',(92.5,75.,-28.2));
#1860 = VECTOR('',#1861,1.);
#1861 = DIRECTION('',(1.731912112471E-16,-0.707106781187,0.707106781187)
  );
#1862 = ORIENTED_EDGE('',*,*,#1442,.T.);
#1863 = ORIENTED_EDGE('',*,*,#1857,.T.);
#1864 = CONICAL_SURFACE('',#1865,3.2,0.785398163397);
#1865 = AXIS2_PLACEMENT_3D('',#1866,#1867,#1868);
#1866 = CARTESIAN_POINT('',(92.5,75.,-25.));
#1867 = DIRECTION('',(-0.,1.,-0.));
#1868 = DIRECTION('',(0.,-0.,-1.));
#1869 = ADVANCED_FACE('',(#1870),#1880,.F.);
#1870 = FACE_BOUND('',#1871,.F.);
#1871 = EDGE_LOOP('',(#1872,#1873,#1874,#1875,#1876,#1877,#1878,#1879));
#1872 = ORIENTED_EDGE('',*,*,#1340,.F.);
#1873 = ORIENTED_EDGE('',*,*,#1168,.T.);
#1874 = ORIENTED_EDGE('',*,*,#1200,.F.);
#1875 = ORIENTED_EDGE('',*,*,#1216,.T.);
#1876 = ORIENTED_EDGE('',*,*,#1249,.F.);
#1877 = ORIENTED_EDGE('',*,*,#1273,.F.);
#1878 = ORIENTED_EDGE('',*,*,#1289,.F.);
#1879 = ORIENTED_EDGE('',*,*,#1314,.F.);
#1880 = PLANE('',#1881);
#1881 = AXIS2_PLACEMENT_3D('',#1882,#1883,#1884);
#1882 = CARTESIAN_POINT('',(63.5,73.5,0.));
#1883 = DIRECTION('',(-0.,1.,-1.110223024625E-16));
#1884 = DIRECTION('',(-1.,0.,0.));
#1885 = ADVANCED_FACE('',(#1886),#1897,.F.);
#1886 = FACE_BOUND('',#1887,.F.);
#1887 = EDGE_LOOP('',(#1888,#1889,#1895,#1896));
#1888 = ORIENTED_EDGE('',*,*,#1356,.F.);
#1889 = ORIENTED_EDGE('',*,*,#1890,.F.);
#1890 = EDGE_CURVE('',#1460,#1357,#1891,.T.);
#1891 = LINE('',#1892,#1893);
#1892 = CARTESIAN_POINT('',(92.5,75.,21.8));
#1893 = VECTOR('',#1894,1.);
#1894 = DIRECTION('',(1.731912112471E-16,-0.707106781187,0.707106781187)
  );
#1895 = ORIENTED_EDGE('',*,*,#1459,.T.);
#1896 = ORIENTED_EDGE('',*,*,#1890,.T.);
#1897 = CONICAL_SURFACE('',#1898,3.2,0.785398163397);
#1898 = AXIS2_PLACEMENT_3D('',#1899,#1900,#1901);
#1899 = CARTESIAN_POINT('',(92.5,75.,25.));
#1900 = DIRECTION('',(-0.,1.,-0.));
#1901 = DIRECTION('',(0.,-0.,-1.));
#1902 = ADVANCED_FACE('',(#1903),#1915,.F.);
#1903 = FACE_BOUND('',#1904,.F.);
#1904 = EDGE_LOOP('',(#1905,#1913,#1914));
#1905 = ORIENTED_EDGE('',*,*,#1906,.F.);
#1906 = EDGE_CURVE('',#1518,#1907,#1909,.T.);
#1907 = VERTEX_POINT('',#1908);
#1908 = CARTESIAN_POINT('',(80.,67.,-39.74892422621));
#1909 = LINE('',#1910,#1911);
#1910 = CARTESIAN_POINT('',(81.25,67.,-40.5));
#1911 = VECTOR('',#1912,1.);
#1912 = DIRECTION('',(-0.857167300702,2.099454382277E-16,0.51503807491)
  );
#1913 = ORIENTED_EDGE('',*,*,#1525,.T.);
#1914 = ORIENTED_EDGE('',*,*,#1906,.T.);
#1915 = CONICAL_SURFACE('',#1916,1.25,1.029744258677);
#1916 = AXIS2_PLACEMENT_3D('',#1917,#1918,#1919);
#1917 = CARTESIAN_POINT('',(80.,67.,-40.5));
#1918 = DIRECTION('',(-0.,-0.,-1.));
#1919 = DIRECTION('',(1.,0.,-0.));
#1920 = ADVANCED_FACE('',(#1921),#1933,.F.);
#1921 = FACE_BOUND('',#1922,.F.);
#1922 = EDGE_LOOP('',(#1923,#1931,#1932));
#1923 = ORIENTED_EDGE('',*,*,#1924,.F.);
#1924 = EDGE_CURVE('',#1543,#1925,#1927,.T.);
#1925 = VERTEX_POINT('',#1926);
#1926 = CARTESIAN_POINT('',(40.,67.,-39.74892422621));
#1927 = LINE('',#1928,#1929);
#1928 = CARTESIAN_POINT('',(41.25,67.,-40.5));
#1929 = VECTOR('',#1930,1.);
#1930 = DIRECTION('',(-0.857167300702,2.099454382277E-16,0.51503807491)
  );
#1931 = ORIENTED_EDGE('',*,*,#1550,.T.);
#1932 = ORIENTED_EDGE('',*,*,#1924,.T.);
#1933 = CONICAL_SURFACE('',#1934,1.25,1.029744258677);
#1934 = AXIS2_PLACEMENT_3D('',#1935,#1936,#1937);
#1935 = CARTESIAN_POINT('',(40.,67.,-40.5));
#1936 = DIRECTION('',(-0.,-0.,-1.));
#1937 = DIRECTION('',(1.,0.,-0.));
#1938 = ADVANCED_FACE('',(#1939),#1951,.F.);
#1939 = FACE_BOUND('',#1940,.F.);
#1940 = EDGE_LOOP('',(#1941,#1949,#1950));
#1941 = ORIENTED_EDGE('',*,*,#1942,.F.);
#1942 = EDGE_CURVE('',#1568,#1943,#1945,.T.);
#1943 = VERTEX_POINT('',#1944);
#1944 = CARTESIAN_POINT('',(-40.,67.,-39.74892422621));
#1945 = LINE('',#1946,#1947);
#1946 = CARTESIAN_POINT('',(-38.75,67.,-40.5));
#1947 = VECTOR('',#1948,1.);
#1948 = DIRECTION('',(-0.857167300702,2.099454382277E-16,0.51503807491)
  );
#1949 = ORIENTED_EDGE('',*,*,#1575,.T.);
#1950 = ORIENTED_EDGE('',*,*,#1942,.T.);
#1951 = CONICAL_SURFACE('',#1952,1.25,1.029744258677);
#1952 = AXIS2_PLACEMENT_3D('',#1953,#1954,#1955);
#1953 = CARTESIAN_POINT('',(-40.,67.,-40.5));
#1954 = DIRECTION('',(-0.,-0.,-1.));
#1955 = DIRECTION('',(1.,0.,-0.));
#1956 = ADVANCED_FACE('',(#1957),#1969,.F.);
#1957 = FACE_BOUND('',#1958,.F.);
#1958 = EDGE_LOOP('',(#1959,#1967,#1968));
#1959 = ORIENTED_EDGE('',*,*,#1960,.F.);
#1960 = EDGE_CURVE('',#1593,#1961,#1963,.T.);
#1961 = VERTEX_POINT('',#1962);
#1962 = CARTESIAN_POINT('',(-80.,67.,-39.74892422621));
#1963 = LINE('',#1964,#1965);
#1964 = CARTESIAN_POINT('',(-78.75,67.,-40.5));
#1965 = VECTOR('',#1966,1.);
#1966 = DIRECTION('',(-0.857167300702,2.099454382277E-16,0.51503807491)
  );
#1967 = ORIENTED_EDGE('',*,*,#1600,.T.);
#1968 = ORIENTED_EDGE('',*,*,#1960,.T.);
#1969 = CONICAL_SURFACE('',#1970,1.25,1.029744258677);
#1970 = AXIS2_PLACEMENT_3D('',#1971,#1972,#1973);
#1971 = CARTESIAN_POINT('',(-80.,67.,-40.5));
#1972 = DIRECTION('',(-0.,-0.,-1.));
#1973 = DIRECTION('',(1.,0.,-0.));
#1974 = ADVANCED_FACE('',(#1975),#1987,.F.);
#1975 = FACE_BOUND('',#1976,.F.);
#1976 = EDGE_LOOP('',(#1977,#1985,#1986));
#1977 = ORIENTED_EDGE('',*,*,#1978,.F.);
#1978 = EDGE_CURVE('',#1695,#1979,#1981,.T.);
#1979 = VERTEX_POINT('',#1980);
#1980 = CARTESIAN_POINT('',(-80.,67.,39.748924226216));
#1981 = LINE('',#1982,#1983);
#1982 = CARTESIAN_POINT('',(-81.25,67.,40.5));
#1983 = VECTOR('',#1984,1.);
#1984 = DIRECTION('',(0.857167300702,2.099454382277E-16,-0.51503807491)
  );
#1985 = ORIENTED_EDGE('',*,*,#1702,.T.);
#1986 = ORIENTED_EDGE('',*,*,#1978,.T.);
#1987 = CONICAL_SURFACE('',#1988,1.25,1.029744258677);
#1988 = AXIS2_PLACEMENT_3D('',#1989,#1990,#1991);
#1989 = CARTESIAN_POINT('',(-80.,67.,40.5));
#1990 = DIRECTION('',(-0.,-0.,1.));
#1991 = DIRECTION('',(-1.,0.,-0.));
#1992 = ADVANCED_FACE('',(#1993),#2005,.F.);
#1993 = FACE_BOUND('',#1994,.F.);
#1994 = EDGE_LOOP('',(#1995,#2003,#2004));
#1995 = ORIENTED_EDGE('',*,*,#1996,.F.);
#1996 = EDGE_CURVE('',#1720,#1997,#1999,.T.);
#1997 = VERTEX_POINT('',#1998);
#1998 = CARTESIAN_POINT('',(-40.,67.,39.748924226216));
#1999 = LINE('',#2000,#2001);
#2000 = CARTESIAN_POINT('',(-41.25,67.,40.5));
#2001 = VECTOR('',#2002,1.);
#2002 = DIRECTION('',(0.857167300702,2.099454382277E-16,-0.51503807491)
  );
#2003 = ORIENTED_EDGE('',*,*,#1727,.T.);
#2004 = ORIENTED_EDGE('',*,*,#1996,.T.);
#2005 = CONICAL_SURFACE('',#2006,1.25,1.029744258677);
#2006 = AXIS2_PLACEMENT_3D('',#2007,#2008,#2009);
#2007 = CARTESIAN_POINT('',(-40.,67.,40.5));
#2008 = DIRECTION('',(-0.,-0.,1.));
#2009 = DIRECTION('',(-1.,0.,-0.));
#2010 = ADVANCED_FACE('',(#2011),#2023,.F.);
#2011 = FACE_BOUND('',#2012,.F.);
#2012 = EDGE_LOOP('',(#2013,#2021,#2022));
#2013 = ORIENTED_EDGE('',*,*,#2014,.F.);
#2014 = EDGE_CURVE('',#1745,#2015,#2017,.T.);
#2015 = VERTEX_POINT('',#2016);
#2016 = CARTESIAN_POINT('',(40.,67.,39.748924226216));
#2017 = LINE('',#2018,#2019);
#2018 = CARTESIAN_POINT('',(38.75,67.,40.5));
#2019 = VECTOR('',#2020,1.);
#2020 = DIRECTION('',(0.857167300702,2.099454382277E-16,-0.51503807491)
  );
#2021 = ORIENTED_EDGE('',*,*,#1752,.T.);
#2022 = ORIENTED_EDGE('',*,*,#2014,.T.);
#2023 = CONICAL_SURFACE('',#2024,1.25,1.029744258677);
#2024 = AXIS2_PLACEMENT_3D('',#2025,#2026,#2027);
#2025 = CARTESIAN_POINT('',(40.,67.,40.5));
#2026 = DIRECTION('',(-0.,-0.,1.));
#2027 = DIRECTION('',(-1.,0.,-0.));
#2028 = ADVANCED_FACE('',(#2029),#2041,.F.);
#2029 = FACE_BOUND('',#2030,.F.);
#2030 = EDGE_LOOP('',(#2031,#2039,#2040));
#2031 = ORIENTED_EDGE('',*,*,#2032,.F.);
#2032 = EDGE_CURVE('',#1770,#2033,#2035,.T.);
#2033 = VERTEX_POINT('',#2034);
#2034 = CARTESIAN_POINT('',(80.,67.,39.748924226216));
#2035 = LINE('',#2036,#2037);
#2036 = CARTESIAN_POINT('',(78.75,67.,40.5));
#2037 = VECTOR('',#2038,1.);
#2038 = DIRECTION('',(0.857167300702,2.099454382277E-16,-0.51503807491)
  );
#2039 = ORIENTED_EDGE('',*,*,#1777,.T.);
#2040 = ORIENTED_EDGE('',*,*,#2032,.T.);
#2041 = CONICAL_SURFACE('',#2042,1.25,1.029744258677);
#2042 = AXIS2_PLACEMENT_3D('',#2043,#2044,#2045);
#2043 = CARTESIAN_POINT('',(80.,67.,40.5));
#2044 = DIRECTION('',(-0.,-0.,1.));
#2045 = DIRECTION('',(-1.,0.,-0.));
#2046 = ( GEOMETRIC_REPRESENTATION_CONTEXT(3) 
GLOBAL_UNCERTAINTY_ASSIGNED_CONTEXT((#2050)) 
GLOBAL_UNIT_ASSIGNED_CONTEXT((#2047,#2048,#2049)) REPRESENTATION_CONTEXT
('Context #1','3D Context with UNIT and UNCERTAINTY') );
#2047 = ( LENGTH_UNIT() NAMED_UNIT(*) SI_UNIT(.MILLI.,.METRE.) );
#2048 = ( NAMED_UNIT(*) PLANE_ANGLE_UNIT() SI_UNIT($,.RADIAN.) );
#2049 = ( NAMED_UNIT(*) SI_UNIT($,.STERADIAN.) SOLID_ANGLE_UNIT() );
#2050 = UNCERTAINTY_MEASURE_WITH_UNIT(LENGTH_MEASURE(1.E-07),#2047,
  'distance_accuracy_value','confusion accuracy');
#2051 = PRODUCT_RELATED_PRODUCT_CATEGORY('part',$,(#7));
ENDSEC;
END-ISO-10303-21;
