ISO-10303-21;
HEADER;
FILE_DESCRIPTION(('FreeCAD Model'),'2;1');
FILE_NAME('Open CASCADE Shape Model','2026-09-22T12:05:13',('FreeCAD'),(
    'FreeCAD'),'Open CASCADE STEP processor 7.8','FreeCAD','Unknown');
FILE_SCHEMA(('AUTOMOTIVE_DESIGN { 1 0 10303 214 1 1 1 1 }'));
ENDSEC;
DATA;
#1 = APPLICATION_PROTOCOL_DEFINITION('international standard',
  'automotive_design',2000,#2);
#2 = APPLICATION_CONTEXT(
  'core data for automotive mechanical design processes');
#3 = SHAPE_DEFINITION_REPRESENTATION(#4,#10);
#4 = PRODUCT_DEFINITION_SHAPE('','',#5);
#5 = PRODUCT_DEFINITION('design','',#6,#9);
#6 = PRODUCT_DEFINITION_FORMATION('','',#7);
#7 = PRODUCT('Open CASCADE STEP translator 7.8 21',
  'Open CASCADE STEP translator 7.8 21','',(#8));
#8 = PRODUCT_CONTEXT('',#2,'mechanical');
#9 = PRODUCT_DEFINITION_CONTEXT('part definition',#2,'design');
#10 = ADVANCED_BREP_SHAPE_REPRESENTATION('',(#11,#15),#1133);
#11 = AXIS2_PLACEMENT_3D('',#12,#13,#14);
#12 = CARTESIAN_POINT('',(0.,0.,0.));
#13 = DIRECTION('',(0.,0.,1.));
#14 = DIRECTION('',(1.,0.,-0.));
#15 = MANIFOLD_SOLID_BREP('',#16);
#16 = CLOSED_SHELL('',(#17,#282,#335,#355,#380,#405,#430,#455,#480,#505,
    #530,#555,#784,#804,#824,#844,#864,#884,#904,#924,#944,#997,#1014,
    #1031,#1048,#1065,#1082,#1099,#1116));
#17 = ADVANCED_FACE('',(#18,#45,#103,#161,#219),#277,.T.);
#18 = FACE_BOUND('',#19,.T.);
#19 = EDGE_LOOP('',(#20,#29,#37,#44));
#20 = ORIENTED_EDGE('',*,*,#21,.F.);
#21 = EDGE_CURVE('',#22,#22,#24,.T.);
#22 = VERTEX_POINT('',#23);
#23 = CARTESIAN_POINT('',(-6.98048675514E-15,87.1,28.5));
#24 = CIRCLE('',#25,28.5);
#25 = AXIS2_PLACEMENT_3D('',#26,#27,#28);
#26 = CARTESIAN_POINT('',(0.,87.1,0.));
#27 = DIRECTION('',(0.,1.,0.));
#28 = DIRECTION('',(0.,-0.,1.));
#29 = ORIENTED_EDGE('',*,*,#30,.F.);
#30 = EDGE_CURVE('',#31,#22,#33,.T.);
#31 = VERTEX_POINT('',#32);
#32 = CARTESIAN_POINT('',(-6.98048675514E-15,75.5,28.5));
#33 = LINE('',#34,#35);
#34 = CARTESIAN_POINT('',(-6.98048675514E-15,75.5,28.5));
#35 = VECTOR('',#36,1.);
#36 = DIRECTION('',(0.,1.,0.));
#37 = ORIENTED_EDGE('',*,*,#38,.T.);
#38 = EDGE_CURVE('',#31,#31,#39,.T.);
#39 = CIRCLE('',#40,28.5);
#40 = AXIS2_PLACEMENT_3D('',#41,#42,#43);
#41 = CARTESIAN_POINT('',(0.,75.5,0.));
#42 = DIRECTION('',(0.,1.,0.));
#43 = DIRECTION('',(0.,-0.,1.));
#44 = ORIENTED_EDGE('',*,*,#30,.T.);
#45 = FACE_BOUND('',#46,.T.);
#46 = EDGE_LOOP('',(#47));
#47 = ORIENTED_EDGE('',*,*,#48,.F.);
#48 = EDGE_CURVE('',#49,#49,#51,.T.);
#49 = VERTEX_POINT('',#50);
#50 = CARTESIAN_POINT('',(5.031919923764,79.5,-28.05226874748));
#51 = B_SPLINE_CURVE_WITH_KNOTS('',8,(#52,#53,#54,#55,#56,#57,#58,#59,
    #60,#61,#62,#63,#64,#65,#66,#67,#68,#69,#70,#71,#72,#73,#74,#75,#76,
    #77,#78,#79,#80,#81,#82,#83,#84,#85,#86,#87,#88,#89,#90,#91,#92,#93,
    #94,#95,#96,#97,#98,#99,#100,#101,#102),.UNSPECIFIED.,.T.,.F.,(9,7,7
    ,7,7,7,7,9),(0.,0.154781020995,0.286386932247,0.411479845713,
    0.56904601437,0.707431811466,0.827801762014,1.),.UNSPECIFIED.);
#52 = CARTESIAN_POINT('',(5.031919923764,79.5,-28.05226874748));
#53 = CARTESIAN_POINT('',(5.031919923764,79.750152879144,-28.05226874748
    ));
#54 = CARTESIAN_POINT('',(5.06135491667,79.999934089128,-28.04698862778)
  );
#55 = CARTESIAN_POINT('',(5.120070068945,80.247496587228,-28.03645716103
    ));
#56 = CARTESIAN_POINT('',(5.208702219597,80.490788004228,-28.02037916369
    ));
#57 = CARTESIAN_POINT('',(5.328400041463,80.727080837397,-27.99819891243
    ));
#58 = CARTESIAN_POINT('',(5.480621092918,80.95267734292,-27.96907213429)
  );
#59 = CARTESIAN_POINT('',(5.666842006259,81.162494170479,-27.93184565308
    ));
#60 = CARTESIAN_POINT('',(6.076077782362,81.508009476841,-27.84543449237
    ));
#61 = CARTESIAN_POINT('',(6.296509752999,81.65609794438,-27.79737571787)
  );
#62 = CARTESIAN_POINT('',(6.545854605183,81.780556519065,-27.7407763188)
  );
#63 = CARTESIAN_POINT('',(6.817804452476,81.871674677435,-27.67597363527
    ));
#64 = CARTESIAN_POINT('',(7.10379799559,81.922979040193,-27.60400163755)
  );
#65 = CARTESIAN_POINT('',(7.394276961479,81.931357836157,-27.52684395336
    ));
#66 = CARTESIAN_POINT('',(7.679634523009,81.89720447235,-27.44728058867)
  );
#67 = CARTESIAN_POINT('',(8.209410746989,81.755587818238,-27.29336643282
    ));
#68 = CARTESIAN_POINT('',(8.447233982607,81.653955264602,-27.22125422053
    ));
#69 = CARTESIAN_POINT('',(8.662550972594,81.525887767557,-27.15346227813
    ));
#70 = CARTESIAN_POINT('',(8.854346648804,81.376724333086,-27.09115278078
    ));
#71 = CARTESIAN_POINT('',(9.022338276051,81.211178804595,-27.03518253868
    ));
#72 = CARTESIAN_POINT('',(9.166750989932,81.033465006233,-26.98610721952
    ));
#73 = CARTESIAN_POINT('',(9.288213583138,80.847356089697,-26.94420515742
    ));
#74 = CARTESIAN_POINT('',(9.513022582659,80.415441036196,-26.86577780913
    ));
#75 = CARTESIAN_POINT('',(9.604822349267,80.164100993646,-26.83300422226
    ));
#76 = CARTESIAN_POINT('',(9.66489030691,79.906398715249,-26.81124785774)
  );
#77 = CARTESIAN_POINT('',(9.694439017956,79.645325416479,-26.80047045016
    ));
#78 = CARTESIAN_POINT('',(9.694056448672,79.38333830584,-26.80062581479)
  );
#79 = CARTESIAN_POINT('',(9.663676217287,79.122734966311,-26.81171094717
    ));
#80 = CARTESIAN_POINT('',(9.602540368232,78.866011806649,-26.83376674637
    ));
#81 = CARTESIAN_POINT('',(9.427083421315,78.397363031571,-26.89586719924
    ));
#82 = CARTESIAN_POINT('',(9.319714710558,78.182647520647,-26.93354629991
    ));
#83 = CARTESIAN_POINT('',(9.185815157225,77.975452632368,-26.97994828257
    ));
#84 = CARTESIAN_POINT('',(9.024198307971,77.779551042012,-27.03496806841
    ));
#85 = CARTESIAN_POINT('',(8.833918171164,77.599561984648,-27.09822404911
    ));
#86 = CARTESIAN_POINT('',(8.614429109379,77.441070362918,-27.1689632652)
  );
#87 = CARTESIAN_POINT('',(8.365939485511,77.3108645387,-27.24598582505)
  );
#88 = CARTESIAN_POINT('',(7.850385579051,77.136223547023,-27.3986132018)
  );
#89 = CARTESIAN_POINT('',(7.593615470724,77.084070780208,-27.47201253938
    ));
#90 = CARTESIAN_POINT('',(7.326862372373,77.066715350888,-27.54513152184
    ));
#91 = CARTESIAN_POINT('',(7.058313133145,77.086537234524,-27.61530180425
    ));
#92 = CARTESIAN_POINT('',(6.796583184695,77.142685168621,-27.68033932248
    ));
#93 = CARTESIAN_POINT('',(6.549881817318,77.231161388947,-27.7388338034)
  );
#94 = CARTESIAN_POINT('',(6.324989417669,77.344870298828,-27.79002964093
    ));
#95 = CARTESIAN_POINT('',(5.842945401564,77.657789033891,-27.89613567553
    ));
#96 = CARTESIAN_POINT('',(5.603870218227,77.879047022341,-27.94529469096
    ));
#97 = CARTESIAN_POINT('',(5.408989572076,78.124813287749,-27.98320089908
    ));
#98 = CARTESIAN_POINT('',(5.256314667755,78.386738566807,-28.01173229337
    ));
#99 = CARTESIAN_POINT('',(5.143671358947,78.658899522279,-28.0322225604)
  );
#100 = CARTESIAN_POINT('',(5.069232743564,78.937107685809,
    -28.04557582289));
#101 = CARTESIAN_POINT('',(5.031919923764,79.218354794634,
    -28.05226874748));
#102 = CARTESIAN_POINT('',(5.031919923764,79.5,-28.05226874748));
#103 = FACE_BOUND('',#104,.T.);
#104 = EDGE_LOOP('',(#105));
#105 = ORIENTED_EDGE('',*,*,#106,.F.);
#106 = EDGE_CURVE('',#107,#107,#109,.T.);
#107 = VERTEX_POINT('',#108);
#108 = CARTESIAN_POINT('',(-5.031919923764,79.5,28.05226874748));
#109 = B_SPLINE_CURVE_WITH_KNOTS('',8,(#110,#111,#112,#113,#114,#115,
    #116,#117,#118,#119,#120,#121,#122,#123,#124,#125,#126,#127,#128,
    #129,#130,#131,#132,#133,#134,#135,#136,#137,#138,#139,#140,#141,
    #142,#143,#144,#145,#146,#147,#148,#149,#150,#151,#152,#153,#154,
    #155,#156,#157,#158,#159,#160),.UNSPECIFIED.,.T.,.F.,(9,7,7,7,7,7,7,
    9),(0.,0.154781023498,0.286386934347,0.411479847445,0.569046015639,
    0.707431812327,0.827801762521,1.),.UNSPECIFIED.);
#110 = CARTESIAN_POINT('',(-5.031919923764,79.5,28.05226874748));
#111 = CARTESIAN_POINT('',(-5.031919923764,79.750152883822,
    28.05226874748));
#112 = CARTESIAN_POINT('',(-5.061354913434,79.999934075558,
    28.046988628442));
#113 = CARTESIAN_POINT('',(-5.120070076118,80.247496601255,
    28.036457159555));
#114 = CARTESIAN_POINT('',(-5.208702216641,80.490788004966,
    28.020379164316));
#115 = CARTESIAN_POINT('',(-5.328400034442,80.727080823315,
    27.998198913882));
#116 = CARTESIAN_POINT('',(-5.480621102638,80.952677354853,
    27.969072132267));
#117 = CARTESIAN_POINT('',(-5.666842002036,81.162494166913,
    27.931845653979));
#118 = CARTESIAN_POINT('',(-6.076077782337,81.50800947682,
    27.845434492383));
#119 = CARTESIAN_POINT('',(-6.296509753011,81.656097944401,
    27.797375717869));
#120 = CARTESIAN_POINT('',(-6.545854605216,81.780556519076,
    27.740776318798));
#121 = CARTESIAN_POINT('',(-6.817804452475,81.87167467742,
    27.675973635271));
#122 = CARTESIAN_POINT('',(-7.103797995559,81.922979040189,
    27.604001637565));
#123 = CARTESIAN_POINT('',(-7.394276961462,81.931357836171,
    27.526843953366));
#124 = CARTESIAN_POINT('',(-7.67963452304,81.897204472341,27.44728058867
    ));
#125 = CARTESIAN_POINT('',(-8.209410746989,81.755587818238,
    27.293366432829));
#126 = CARTESIAN_POINT('',(-8.447233982608,81.653955264602,
    27.221254220535));
#127 = CARTESIAN_POINT('',(-8.662550972594,81.525887767557,
    27.153462278133));
#128 = CARTESIAN_POINT('',(-8.854346648804,81.376724333086,
    27.091152780788));
#129 = CARTESIAN_POINT('',(-9.022338276051,81.211178804595,
    27.035182538682));
#130 = CARTESIAN_POINT('',(-9.166750989932,81.033465006233,
    26.986107219527));
#131 = CARTESIAN_POINT('',(-9.288213583138,80.847356089697,
    26.944205157429));
#132 = CARTESIAN_POINT('',(-9.513022582659,80.415441036196,
    26.865777809137));
#133 = CARTESIAN_POINT('',(-9.604822349267,80.164100993646,
    26.833004222264));
#134 = CARTESIAN_POINT('',(-9.66489030691,79.906398715249,
    26.811247857744));
#135 = CARTESIAN_POINT('',(-9.694439017956,79.645325416479,
    26.80047045016));
#136 = CARTESIAN_POINT('',(-9.694056448672,79.38333830584,
    26.800625814794));
#137 = CARTESIAN_POINT('',(-9.663676217287,79.122734966312,
    26.811710947177));
#138 = CARTESIAN_POINT('',(-9.602540368232,78.866011806648,
    26.833766746374));
#139 = CARTESIAN_POINT('',(-9.427083421315,78.397363031571,
    26.895867199248));
#140 = CARTESIAN_POINT('',(-9.319714710558,78.182647520647,
    26.933546299913));
#141 = CARTESIAN_POINT('',(-9.185815157225,77.975452632368,
    26.979948282572));
#142 = CARTESIAN_POINT('',(-9.024198307971,77.779551042012,
    27.034968068412));
#143 = CARTESIAN_POINT('',(-8.833918171164,77.599561984648,
    27.098224049112));
#144 = CARTESIAN_POINT('',(-8.614429109379,77.441070362918,
    27.168963265207));
#145 = CARTESIAN_POINT('',(-8.365939485512,77.3108645387,27.245985825051
    ));
#146 = CARTESIAN_POINT('',(-7.850385579051,77.136223547023,
    27.398613201806));
#147 = CARTESIAN_POINT('',(-7.593615470723,77.084070780208,
    27.472012539389));
#148 = CARTESIAN_POINT('',(-7.326862372375,77.066715350888,
    27.545131521847));
#149 = CARTESIAN_POINT('',(-7.058313133141,77.086537234524,
    27.615301804255));
#150 = CARTESIAN_POINT('',(-6.796583184697,77.142685168621,
    27.680339322482));
#151 = CARTESIAN_POINT('',(-6.549881817317,77.231161388947,27.7388338034
    ));
#152 = CARTESIAN_POINT('',(-6.324989417669,77.344870298828,
    27.790029640931));
#153 = CARTESIAN_POINT('',(-5.842945401564,77.657789033891,
    27.896135675535));
#154 = CARTESIAN_POINT('',(-5.603870218227,77.879047022342,
    27.945294690967));
#155 = CARTESIAN_POINT('',(-5.408989572077,78.124813287748,
    27.983200899088));
#156 = CARTESIAN_POINT('',(-5.256314667753,78.386738566808,
    28.011732293379));
#157 = CARTESIAN_POINT('',(-5.143671358949,78.658899522278,
    28.032222560401));
#158 = CARTESIAN_POINT('',(-5.069232743563,78.937107685809,
    28.045575822894));
#159 = CARTESIAN_POINT('',(-5.031919923764,79.218354794634,
    28.05226874748));
#160 = CARTESIAN_POINT('',(-5.031919923764,79.5,28.05226874748));
#161 = FACE_BOUND('',#162,.T.);
#162 = EDGE_LOOP('',(#163));
#163 = ORIENTED_EDGE('',*,*,#164,.F.);
#164 = EDGE_CURVE('',#165,#165,#167,.T.);
#165 = VERTEX_POINT('',#166);
#166 = CARTESIAN_POINT('',(26.809937330988,79.5,9.668363889951));
#167 = B_SPLINE_CURVE_WITH_KNOTS('',8,(#168,#169,#170,#171,#172,#173,
    #174,#175,#176,#177,#178,#179,#180,#181,#182,#183,#184,#185,#186,
    #187,#188,#189,#190,#191,#192,#193,#194,#195,#196,#197,#198,#199,
    #200,#201,#202,#203,#204,#205,#206,#207,#208,#209,#210,#211,#212,
    #213,#214,#215,#216,#217,#218),.UNSPECIFIED.,.T.,.F.,(9,7,7,7,7,7,7,
    9),(0.,0.154781023931,0.286386935149,0.411479848596,0.569046014459,
    0.707431811526,0.827801762049,1.),.UNSPECIFIED.);
#168 = CARTESIAN_POINT('',(26.809937330988,79.5,9.668363889951));
#169 = CARTESIAN_POINT('',(26.809937330988,79.249847116178,
    9.668363889951));
#170 = CARTESIAN_POINT('',(26.820082108601,79.000065924441,
    9.640232381618));
#171 = CARTESIAN_POINT('',(26.840319170348,78.752503398746,
    9.584117824703));
#172 = CARTESIAN_POINT('',(26.870711288291,78.509211995034,
    9.499321141798));
#173 = CARTESIAN_POINT('',(26.911351536853,78.272919176684,
    9.384569665588));
#174 = CARTESIAN_POINT('',(26.962237538142,78.047322645147,
    9.238178962731));
#175 = CARTESIAN_POINT('',(27.023108911949,77.837505833087,
    9.058293693994));
#176 = CARTESIAN_POINT('',(27.152892540988,77.49199052318,8.660679531317
    ));
#177 = CARTESIAN_POINT('',(27.22148840672,77.343902055599,8.445750457649
    ));
#178 = CARTESIAN_POINT('',(27.297144315389,77.219443480924,
    8.201511781806));
#179 = CARTESIAN_POINT('',(27.376998468851,77.128325322581,
    7.933594963753));
#180 = CARTESIAN_POINT('',(27.457665662017,77.077020959811,7.64993129128
    ));
#181 = CARTESIAN_POINT('',(27.536084630356,77.06864216383,7.359790285437
    ));
#182 = CARTESIAN_POINT('',(27.609859516108,77.102795527659,
    7.072881705603));
#183 = CARTESIAN_POINT('',(27.741454059122,77.244412181762,
    6.537124959421));
#184 = CARTESIAN_POINT('',(27.797914669162,77.346044735398,
    6.295107889618));
#185 = CARTESIAN_POINT('',(27.846863619863,77.474112232443,
    6.074741935222));
#186 = CARTESIAN_POINT('',(27.88879985037,77.623275666914,5.877487258616
    ));
#187 = CARTESIAN_POINT('',(27.924324012474,77.788821195405,
    5.704017120744));
#188 = CARTESIAN_POINT('',(27.954029896327,77.966534993767,
    5.554414382316));
#189 = CARTESIAN_POINT('',(27.978472942682,78.152643910303,
    5.428273659941));
#190 = CARTESIAN_POINT('',(28.022957366034,78.584558959569,
    5.194369683504));
#191 = CARTESIAN_POINT('',(28.040474491722,78.8358990195,5.098481953878)
  );
#192 = CARTESIAN_POINT('',(28.051666905243,79.093601270188,
    5.035583399201));
#193 = CARTESIAN_POINT('',(28.057107751668,79.354674583612,
    5.004604762874));
#194 = CARTESIAN_POINT('',(28.057051017476,79.616661708716,
    5.005013756074));
#195 = CARTESIAN_POINT('',(28.05146090822,79.877265020341,5.036866373308
    ));
#196 = CARTESIAN_POINT('',(28.039993865385,80.133988197726,5.10083947514
    ));
#197 = CARTESIAN_POINT('',(28.006045962019,80.60263696843,5.28383987317)
  );
#198 = CARTESIAN_POINT('',(27.984992665008,80.817352479353,5.39566345459
    ));
#199 = CARTESIAN_POINT('',(27.95822818411,81.024547367632,5.53482486066)
  );
#200 = CARTESIAN_POINT('',(27.925068291732,81.220448957989,
    5.702299050715));
#201 = CARTESIAN_POINT('',(27.884709509556,81.400438015352,
    5.898714473375));
#202 = CARTESIAN_POINT('',(27.836226936845,81.558929637082,
    6.124167184781));
#203 = CARTESIAN_POINT('',(27.7786856184,81.6891354613,6.377876791549));
#204 = CARTESIAN_POINT('',(27.653087850753,81.863776452978,
    6.900673259942));
#205 = CARTESIAN_POINT('',(27.588268487558,81.915929219792,
    7.159742365477));
#206 = CARTESIAN_POINT('',(27.51821483469,81.933284649112,7.427316816415
    ));
#207 = CARTESIAN_POINT('',(27.444709462231,81.913462765477,
    7.694972420961));
#208 = CARTESIAN_POINT('',(27.370168630991,81.857314831378,7.95415596436
    ));
#209 = CARTESIAN_POINT('',(27.297475653758,81.768838611054,
    8.197052856117));
#210 = CARTESIAN_POINT('',(27.229366349803,81.655129701172,
    8.417413306096));
#211 = CARTESIAN_POINT('',(27.080234863213,81.342210966108,
    8.887928687088));
#212 = CARTESIAN_POINT('',(27.003270227734,81.120952977659,
    9.119553376986));
#213 = CARTESIAN_POINT('',(26.938657643852,80.875186712251,
    9.307278071324));
#214 = CARTESIAN_POINT('',(26.887029103952,80.613261433193,
    9.453764114126));
#215 = CARTESIAN_POINT('',(26.84845254132,80.341100477721,9.561561214635
    ));
#216 = CARTESIAN_POINT('',(26.82279749817,80.062892314191,9.632703577824
    ));
#217 = CARTESIAN_POINT('',(26.809937330988,79.781645205366,
    9.668363889951));
#218 = CARTESIAN_POINT('',(26.809937330988,79.5,9.668363889951));
#219 = FACE_BOUND('',#220,.T.);
#220 = EDGE_LOOP('',(#221));
#221 = ORIENTED_EDGE('',*,*,#222,.F.);
#222 = EDGE_CURVE('',#223,#223,#225,.T.);
#223 = VERTEX_POINT('',#224);
#224 = CARTESIAN_POINT('',(-26.80993733098,79.5,-9.668363889951));
#225 = B_SPLINE_CURVE_WITH_KNOTS('',8,(#226,#227,#228,#229,#230,#231,
    #232,#233,#234,#235,#236,#237,#238,#239,#240,#241,#242,#243,#244,
    #245,#246,#247,#248,#249,#250,#251,#252,#253,#254,#255,#256,#257,
    #258,#259,#260,#261,#262,#263,#264,#265,#266,#267,#268,#269,#270,
    #271,#272,#273,#274,#275,#276),.UNSPECIFIED.,.T.,.F.,(9,7,7,7,7,7,7,
    9),(0.,0.154781023925,0.286386935158,0.411479848604,0.569046014465,
    0.70743181153,0.827801762052,1.),.UNSPECIFIED.);
#226 = CARTESIAN_POINT('',(-26.80993733098,79.5,-9.668363889951));
#227 = CARTESIAN_POINT('',(-26.80993733098,79.249847116178,
    -9.668363889951));
#228 = CARTESIAN_POINT('',(-26.8200821086,79.000065924441,
    -9.640232381618));
#229 = CARTESIAN_POINT('',(-26.84031917034,78.752503398746,
    -9.584117824703));
#230 = CARTESIAN_POINT('',(-26.87071128829,78.509211995034,
    -9.499321141798));
#231 = CARTESIAN_POINT('',(-26.91135153685,78.272919176684,
    -9.384569665588));
#232 = CARTESIAN_POINT('',(-26.96223753814,78.047322645147,
    -9.238178962731));
#233 = CARTESIAN_POINT('',(-27.02310891195,77.837505833087,
    -9.058293693994));
#234 = CARTESIAN_POINT('',(-27.15289254099,77.491990523156,
    -8.66067953129));
#235 = CARTESIAN_POINT('',(-27.22148840671,77.343902055624,
    -8.445750457665));
#236 = CARTESIAN_POINT('',(-27.29714431537,77.219443480933,
    -8.201511781835));
#237 = CARTESIAN_POINT('',(-27.37699846885,77.128325322566,
    -7.93359496376));
#238 = CARTESIAN_POINT('',(-27.45766566202,77.077020959804,
    -7.649931291238));
#239 = CARTESIAN_POINT('',(-27.53608463035,77.068642163845,
    -7.359790285421));
#240 = CARTESIAN_POINT('',(-27.6098595161,77.10279552765,-7.072881705637
    ));
#241 = CARTESIAN_POINT('',(-27.74145405912,77.244412181762,
    -6.537124959421));
#242 = CARTESIAN_POINT('',(-27.79791466916,77.346044735398,
    -6.295107889618));
#243 = CARTESIAN_POINT('',(-27.84686361986,77.474112232443,
    -6.074741935222));
#244 = CARTESIAN_POINT('',(-27.88879985037,77.623275666914,
    -5.877487258616));
#245 = CARTESIAN_POINT('',(-27.92432401247,77.788821195405,
    -5.704017120744));
#246 = CARTESIAN_POINT('',(-27.95402989632,77.966534993767,
    -5.554414382316));
#247 = CARTESIAN_POINT('',(-27.97847294268,78.152643910303,
    -5.428273659941));
#248 = CARTESIAN_POINT('',(-28.02295736603,78.584558959569,
    -5.194369683504));
#249 = CARTESIAN_POINT('',(-28.04047449172,78.8358990195,-5.098481953878
    ));
#250 = CARTESIAN_POINT('',(-28.05166690524,79.093601270188,
    -5.035583399201));
#251 = CARTESIAN_POINT('',(-28.05710775166,79.354674583612,
    -5.004604762874));
#252 = CARTESIAN_POINT('',(-28.05705101747,79.616661708716,
    -5.005013756074));
#253 = CARTESIAN_POINT('',(-28.05146090822,79.877265020341,
    -5.036866373308));
#254 = CARTESIAN_POINT('',(-28.03999386538,80.133988197725,
    -5.10083947514));
#255 = CARTESIAN_POINT('',(-28.00604596201,80.602636968429,
    -5.28383987317));
#256 = CARTESIAN_POINT('',(-27.984992665,80.817352479353,-5.39566345459)
  );
#257 = CARTESIAN_POINT('',(-27.95822818411,81.024547367632,
    -5.534824860661));
#258 = CARTESIAN_POINT('',(-27.92506829173,81.220448957988,
    -5.702299050715));
#259 = CARTESIAN_POINT('',(-27.88470950955,81.400438015352,
    -5.898714473375));
#260 = CARTESIAN_POINT('',(-27.83622693684,81.558929637082,
    -6.124167184782));
#261 = CARTESIAN_POINT('',(-27.7786856184,81.6891354613,-6.377876791549)
  );
#262 = CARTESIAN_POINT('',(-27.65308785075,81.863776452977,
    -6.900673259942));
#263 = CARTESIAN_POINT('',(-27.58826848755,81.915929219792,
    -7.159742365478));
#264 = CARTESIAN_POINT('',(-27.51821483469,81.933284649113,
    -7.427316816413));
#265 = CARTESIAN_POINT('',(-27.44470946223,81.913462765475,
    -7.694972420964));
#266 = CARTESIAN_POINT('',(-27.37016863099,81.857314831379,
    -7.954155964357));
#267 = CARTESIAN_POINT('',(-27.29747565375,81.768838611053,
    -8.197052856119));
#268 = CARTESIAN_POINT('',(-27.2293663498,81.655129701172,
    -8.417413306096));
#269 = CARTESIAN_POINT('',(-27.08023486321,81.342210966109,
    -8.887928687087));
#270 = CARTESIAN_POINT('',(-27.00327022773,81.120952977657,
    -9.119553376989));
#271 = CARTESIAN_POINT('',(-26.93865764385,80.875186712255,
    -9.307278071319));
#272 = CARTESIAN_POINT('',(-26.88702910395,80.613261433187,
    -9.453764114131));
#273 = CARTESIAN_POINT('',(-26.84845254132,80.341100477726,
    -9.561561214632));
#274 = CARTESIAN_POINT('',(-26.82279749817,80.062892314189,
    -9.632703577825));
#275 = CARTESIAN_POINT('',(-26.80993733098,79.781645205367,
    -9.668363889951));
#276 = CARTESIAN_POINT('',(-26.80993733098,79.5,-9.668363889951));
#277 = CYLINDRICAL_SURFACE('',#278,28.5);
#278 = AXIS2_PLACEMENT_3D('',#279,#280,#281);
#279 = CARTESIAN_POINT('',(0.,75.5,0.));
#280 = DIRECTION('',(0.,1.,0.));
#281 = DIRECTION('',(0.,-0.,1.));
#282 = ADVANCED_FACE('',(#283,#286,#297,#308,#319),#330,.T.);
#283 = FACE_BOUND('',#284,.T.);
#284 = EDGE_LOOP('',(#285));
#285 = ORIENTED_EDGE('',*,*,#21,.T.);
#286 = FACE_BOUND('',#287,.T.);
#287 = EDGE_LOOP('',(#288));
#288 = ORIENTED_EDGE('',*,*,#289,.F.);
#289 = EDGE_CURVE('',#290,#290,#292,.T.);
#290 = VERTEX_POINT('',#291);
#291 = CARTESIAN_POINT('',(-13.43502884254,87.1,-11.73502884254));
#292 = CIRCLE('',#293,1.7);
#293 = AXIS2_PLACEMENT_3D('',#294,#295,#296);
#294 = CARTESIAN_POINT('',(-13.43502884254,87.1,-13.43502884254));
#295 = DIRECTION('',(0.,1.,0.));
#296 = DIRECTION('',(0.,-0.,1.));
#297 = FACE_BOUND('',#298,.T.);
#298 = EDGE_LOOP('',(#299));
#299 = ORIENTED_EDGE('',*,*,#300,.F.);
#300 = EDGE_CURVE('',#301,#301,#303,.T.);
#301 = VERTEX_POINT('',#302);
#302 = CARTESIAN_POINT('',(-13.43502884254,87.1,15.135028842544));
#303 = CIRCLE('',#304,1.7);
#304 = AXIS2_PLACEMENT_3D('',#305,#306,#307);
#305 = CARTESIAN_POINT('',(-13.43502884254,87.1,13.435028842544));
#306 = DIRECTION('',(0.,1.,0.));
#307 = DIRECTION('',(0.,-0.,1.));
#308 = FACE_BOUND('',#309,.T.);
#309 = EDGE_LOOP('',(#310));
#310 = ORIENTED_EDGE('',*,*,#311,.F.);
#311 = EDGE_CURVE('',#312,#312,#314,.T.);
#312 = VERTEX_POINT('',#313);
#313 = CARTESIAN_POINT('',(13.435028842544,87.1,-11.73502884254));
#314 = CIRCLE('',#315,1.7);
#315 = AXIS2_PLACEMENT_3D('',#316,#317,#318);
#316 = CARTESIAN_POINT('',(13.435028842544,87.1,-13.43502884254));
#317 = DIRECTION('',(0.,1.,0.));
#318 = DIRECTION('',(0.,-0.,1.));
#319 = FACE_BOUND('',#320,.T.);
#320 = EDGE_LOOP('',(#321));
#321 = ORIENTED_EDGE('',*,*,#322,.F.);
#322 = EDGE_CURVE('',#323,#323,#325,.T.);
#323 = VERTEX_POINT('',#324);
#324 = CARTESIAN_POINT('',(13.435028842544,87.1,15.135028842544));
#325 = CIRCLE('',#326,1.7);
#326 = AXIS2_PLACEMENT_3D('',#327,#328,#329);
#327 = CARTESIAN_POINT('',(13.435028842544,87.1,13.435028842544));
#328 = DIRECTION('',(0.,1.,0.));
#329 = DIRECTION('',(0.,-0.,1.));
#330 = PLANE('',#331);
#331 = AXIS2_PLACEMENT_3D('',#332,#333,#334);
#332 = CARTESIAN_POINT('',(0.,87.1,0.));
#333 = DIRECTION('',(0.,1.,0.));
#334 = DIRECTION('',(0.,-0.,1.));
#335 = ADVANCED_FACE('',(#336,#339),#350,.F.);
#336 = FACE_BOUND('',#337,.F.);
#337 = EDGE_LOOP('',(#338));
#338 = ORIENTED_EDGE('',*,*,#38,.T.);
#339 = FACE_BOUND('',#340,.F.);
#340 = EDGE_LOOP('',(#341));
#341 = ORIENTED_EDGE('',*,*,#342,.F.);
#342 = EDGE_CURVE('',#343,#343,#345,.T.);
#343 = VERTEX_POINT('',#344);
#344 = CARTESIAN_POINT('',(-5.272104470329E-15,75.5,21.525));
#345 = CIRCLE('',#346,21.525);
#346 = AXIS2_PLACEMENT_3D('',#347,#348,#349);
#347 = CARTESIAN_POINT('',(0.,75.5,0.));
#348 = DIRECTION('',(0.,1.,0.));
#349 = DIRECTION('',(0.,-0.,1.));
#350 = PLANE('',#351);
#351 = AXIS2_PLACEMENT_3D('',#352,#353,#354);
#352 = CARTESIAN_POINT('',(0.,75.5,0.));
#353 = DIRECTION('',(0.,1.,0.));
#354 = DIRECTION('',(0.,-0.,1.));
#355 = ADVANCED_FACE('',(#356),#375,.F.);
#356 = FACE_BOUND('',#357,.F.);
#357 = EDGE_LOOP('',(#358,#359,#367,#374));
#358 = ORIENTED_EDGE('',*,*,#48,.F.);
#359 = ORIENTED_EDGE('',*,*,#360,.F.);
#360 = EDGE_CURVE('',#361,#49,#363,.T.);
#361 = VERTEX_POINT('',#362);
#362 = CARTESIAN_POINT('',(4.488718903103,79.5,-26.02501493964));
#363 = LINE('',#364,#365);
#364 = CARTESIAN_POINT('',(4.488718903103,79.5,-26.02501493964));
#365 = VECTOR('',#366,1.);
#366 = DIRECTION('',(0.258819045103,-1.229901607214E-32,-0.965925826289)
  );
#367 = ORIENTED_EDGE('',*,*,#368,.T.);
#368 = EDGE_CURVE('',#361,#361,#369,.T.);
#369 = CIRCLE('',#370,2.4);
#370 = AXIS2_PLACEMENT_3D('',#371,#372,#373);
#371 = CARTESIAN_POINT('',(6.806940886196,79.5,-25.4038492314));
#372 = DIRECTION('',(0.258819045103,0.,-0.965925826289));
#373 = DIRECTION('',(-0.965925826289,0.,-0.258819045103));
#374 = ORIENTED_EDGE('',*,*,#360,.T.);
#375 = CYLINDRICAL_SURFACE('',#376,2.4);
#376 = AXIS2_PLACEMENT_3D('',#377,#378,#379);
#377 = CARTESIAN_POINT('',(6.806940886196,79.5,-25.4038492314));
#378 = DIRECTION('',(0.258819045103,0.,-0.965925826289));
#379 = DIRECTION('',(-0.965925826289,0.,-0.258819045103));
#380 = ADVANCED_FACE('',(#381),#400,.F.);
#381 = FACE_BOUND('',#382,.F.);
#382 = EDGE_LOOP('',(#383,#384,#392,#399));
#383 = ORIENTED_EDGE('',*,*,#106,.F.);
#384 = ORIENTED_EDGE('',*,*,#385,.F.);
#385 = EDGE_CURVE('',#386,#107,#388,.T.);
#386 = VERTEX_POINT('',#387);
#387 = CARTESIAN_POINT('',(-4.488718903103,79.5,26.025014939649));
#388 = LINE('',#389,#390);
#389 = CARTESIAN_POINT('',(-4.488718903103,79.5,26.025014939649));
#390 = VECTOR('',#391,1.);
#391 = DIRECTION('',(-0.258819045103,-6.410849575098E-34,0.965925826289)
  );
#392 = ORIENTED_EDGE('',*,*,#393,.T.);
#393 = EDGE_CURVE('',#386,#386,#394,.T.);
#394 = CIRCLE('',#395,2.4);
#395 = AXIS2_PLACEMENT_3D('',#396,#397,#398);
#396 = CARTESIAN_POINT('',(-6.806940886196,79.5,25.403849231402));
#397 = DIRECTION('',(-0.258819045103,0.,0.965925826289));
#398 = DIRECTION('',(0.965925826289,0.,0.258819045103));
#399 = ORIENTED_EDGE('',*,*,#385,.T.);
#400 = CYLINDRICAL_SURFACE('',#401,2.4);
#401 = AXIS2_PLACEMENT_3D('',#402,#403,#404);
#402 = CARTESIAN_POINT('',(-6.806940886196,79.5,25.403849231402));
#403 = DIRECTION('',(-0.258819045103,0.,0.965925826289));
#404 = DIRECTION('',(0.965925826289,0.,0.258819045103));
#405 = ADVANCED_FACE('',(#406),#425,.F.);
#406 = FACE_BOUND('',#407,.F.);
#407 = EDGE_LOOP('',(#408,#409,#417,#424));
#408 = ORIENTED_EDGE('',*,*,#164,.F.);
#409 = ORIENTED_EDGE('',*,*,#410,.F.);
#410 = EDGE_CURVE('',#411,#165,#413,.T.);
#411 = VERTEX_POINT('',#412);
#412 = CARTESIAN_POINT('',(24.782683523156,79.5,9.12516286929));
#413 = LINE('',#414,#415);
#414 = CARTESIAN_POINT('',(24.782683523156,79.5,9.12516286929));
#415 = VECTOR('',#416,1.);
#416 = DIRECTION('',(0.965925826289,-2.9722835542E-33,0.258819045103));
#417 = ORIENTED_EDGE('',*,*,#418,.T.);
#418 = EDGE_CURVE('',#411,#411,#419,.T.);
#419 = CIRCLE('',#420,2.4);
#420 = AXIS2_PLACEMENT_3D('',#421,#422,#423);
#421 = CARTESIAN_POINT('',(25.403849231402,79.5,6.806940886196));
#422 = DIRECTION('',(0.965925826289,0.,0.258819045103));
#423 = DIRECTION('',(-0.258819045103,0.,0.965925826289));
#424 = ORIENTED_EDGE('',*,*,#410,.T.);
#425 = CYLINDRICAL_SURFACE('',#426,2.4);
#426 = AXIS2_PLACEMENT_3D('',#427,#428,#429);
#427 = CARTESIAN_POINT('',(25.403849231402,79.5,6.806940886196));
#428 = DIRECTION('',(0.965925826289,0.,0.258819045103));
#429 = DIRECTION('',(-0.258819045103,0.,0.965925826289));
#430 = ADVANCED_FACE('',(#431),#450,.F.);
#431 = FACE_BOUND('',#432,.F.);
#432 = EDGE_LOOP('',(#433,#434,#442,#449));
#433 = ORIENTED_EDGE('',*,*,#222,.F.);
#434 = ORIENTED_EDGE('',*,*,#435,.F.);
#435 = EDGE_CURVE('',#436,#223,#438,.T.);
#436 = VERTEX_POINT('',#437);
#437 = CARTESIAN_POINT('',(-24.78268352315,79.5,-9.12516286929));
#438 = LINE('',#439,#440);
#439 = CARTESIAN_POINT('',(-24.78268352315,79.5,-9.12516286929));
#440 = VECTOR('',#441,1.);
#441 = DIRECTION('',(-0.965925826289,-2.165207517603E-33,-0.258819045103
    ));
#442 = ORIENTED_EDGE('',*,*,#443,.T.);
#443 = EDGE_CURVE('',#436,#436,#444,.T.);
#444 = CIRCLE('',#445,2.4);
#445 = AXIS2_PLACEMENT_3D('',#446,#447,#448);
#446 = CARTESIAN_POINT('',(-25.4038492314,79.5,-6.806940886196));
#447 = DIRECTION('',(-0.965925826289,0.,-0.258819045103));
#448 = DIRECTION('',(0.258819045103,0.,-0.965925826289));
#449 = ORIENTED_EDGE('',*,*,#435,.T.);
#450 = CYLINDRICAL_SURFACE('',#451,2.4);
#451 = AXIS2_PLACEMENT_3D('',#452,#453,#454);
#452 = CARTESIAN_POINT('',(-25.4038492314,79.5,-6.806940886196));
#453 = DIRECTION('',(-0.965925826289,0.,-0.258819045103));
#454 = DIRECTION('',(0.258819045103,0.,-0.965925826289));
#455 = ADVANCED_FACE('',(#456),#475,.F.);
#456 = FACE_BOUND('',#457,.F.);
#457 = EDGE_LOOP('',(#458,#459,#467,#474));
#458 = ORIENTED_EDGE('',*,*,#289,.F.);
#459 = ORIENTED_EDGE('',*,*,#460,.F.);
#460 = EDGE_CURVE('',#461,#290,#463,.T.);
#461 = VERTEX_POINT('',#462);
#462 = CARTESIAN_POINT('',(-13.43502884254,84.6,-11.73502884254));
#463 = LINE('',#464,#465);
#464 = CARTESIAN_POINT('',(-13.43502884254,82.4,-11.73502884254));
#465 = VECTOR('',#466,1.);
#466 = DIRECTION('',(0.,1.,0.));
#467 = ORIENTED_EDGE('',*,*,#468,.T.);
#468 = EDGE_CURVE('',#461,#461,#469,.T.);
#469 = CIRCLE('',#470,1.7);
#470 = AXIS2_PLACEMENT_3D('',#471,#472,#473);
#471 = CARTESIAN_POINT('',(-13.43502884254,84.6,-13.43502884254));
#472 = DIRECTION('',(0.,1.,0.));
#473 = DIRECTION('',(0.,-0.,1.));
#474 = ORIENTED_EDGE('',*,*,#460,.T.);
#475 = CYLINDRICAL_SURFACE('',#476,1.7);
#476 = AXIS2_PLACEMENT_3D('',#477,#478,#479);
#477 = CARTESIAN_POINT('',(-13.43502884254,82.4,-13.43502884254));
#478 = DIRECTION('',(0.,1.,0.));
#479 = DIRECTION('',(0.,-0.,1.));
#480 = ADVANCED_FACE('',(#481),#500,.F.);
#481 = FACE_BOUND('',#482,.F.);
#482 = EDGE_LOOP('',(#483,#484,#492,#499));
#483 = ORIENTED_EDGE('',*,*,#300,.F.);
#484 = ORIENTED_EDGE('',*,*,#485,.F.);
#485 = EDGE_CURVE('',#486,#301,#488,.T.);
#486 = VERTEX_POINT('',#487);
#487 = CARTESIAN_POINT('',(-13.43502884254,84.6,15.135028842544));
#488 = LINE('',#489,#490);
#489 = CARTESIAN_POINT('',(-13.43502884254,82.4,15.135028842544));
#490 = VECTOR('',#491,1.);
#491 = DIRECTION('',(0.,1.,0.));
#492 = ORIENTED_EDGE('',*,*,#493,.T.);
#493 = EDGE_CURVE('',#486,#486,#494,.T.);
#494 = CIRCLE('',#495,1.7);
#495 = AXIS2_PLACEMENT_3D('',#496,#497,#498);
#496 = CARTESIAN_POINT('',(-13.43502884254,84.6,13.435028842544));
#497 = DIRECTION('',(0.,1.,0.));
#498 = DIRECTION('',(0.,-0.,1.));
#499 = ORIENTED_EDGE('',*,*,#485,.T.);
#500 = CYLINDRICAL_SURFACE('',#501,1.7);
#501 = AXIS2_PLACEMENT_3D('',#502,#503,#504);
#502 = CARTESIAN_POINT('',(-13.43502884254,82.4,13.435028842544));
#503 = DIRECTION('',(0.,1.,0.));
#504 = DIRECTION('',(0.,-0.,1.));
#505 = ADVANCED_FACE('',(#506),#525,.F.);
#506 = FACE_BOUND('',#507,.F.);
#507 = EDGE_LOOP('',(#508,#509,#517,#524));
#508 = ORIENTED_EDGE('',*,*,#311,.F.);
#509 = ORIENTED_EDGE('',*,*,#510,.F.);
#510 = EDGE_CURVE('',#511,#312,#513,.T.);
#511 = VERTEX_POINT('',#512);
#512 = CARTESIAN_POINT('',(13.435028842544,84.6,-11.73502884254));
#513 = LINE('',#514,#515);
#514 = CARTESIAN_POINT('',(13.435028842544,82.4,-11.73502884254));
#515 = VECTOR('',#516,1.);
#516 = DIRECTION('',(0.,1.,0.));
#517 = ORIENTED_EDGE('',*,*,#518,.T.);
#518 = EDGE_CURVE('',#511,#511,#519,.T.);
#519 = CIRCLE('',#520,1.7);
#520 = AXIS2_PLACEMENT_3D('',#521,#522,#523);
#521 = CARTESIAN_POINT('',(13.435028842544,84.6,-13.43502884254));
#522 = DIRECTION('',(0.,1.,0.));
#523 = DIRECTION('',(0.,-0.,1.));
#524 = ORIENTED_EDGE('',*,*,#510,.T.);
#525 = CYLINDRICAL_SURFACE('',#526,1.7);
#526 = AXIS2_PLACEMENT_3D('',#527,#528,#529);
#527 = CARTESIAN_POINT('',(13.435028842544,82.4,-13.43502884254));
#528 = DIRECTION('',(0.,1.,0.));
#529 = DIRECTION('',(0.,-0.,1.));
#530 = ADVANCED_FACE('',(#531),#550,.F.);
#531 = FACE_BOUND('',#532,.F.);
#532 = EDGE_LOOP('',(#533,#534,#542,#549));
#533 = ORIENTED_EDGE('',*,*,#322,.F.);
#534 = ORIENTED_EDGE('',*,*,#535,.F.);
#535 = EDGE_CURVE('',#536,#323,#538,.T.);
#536 = VERTEX_POINT('',#537);
#537 = CARTESIAN_POINT('',(13.435028842544,84.6,15.135028842544));
#538 = LINE('',#539,#540);
#539 = CARTESIAN_POINT('',(13.435028842544,82.4,15.135028842544));
#540 = VECTOR('',#541,1.);
#541 = DIRECTION('',(0.,1.,0.));
#542 = ORIENTED_EDGE('',*,*,#543,.T.);
#543 = EDGE_CURVE('',#536,#536,#544,.T.);
#544 = CIRCLE('',#545,1.7);
#545 = AXIS2_PLACEMENT_3D('',#546,#547,#548);
#546 = CARTESIAN_POINT('',(13.435028842544,84.6,13.435028842544));
#547 = DIRECTION('',(0.,1.,0.));
#548 = DIRECTION('',(0.,-0.,1.));
#549 = ORIENTED_EDGE('',*,*,#535,.T.);
#550 = CYLINDRICAL_SURFACE('',#551,1.7);
#551 = AXIS2_PLACEMENT_3D('',#552,#553,#554);
#552 = CARTESIAN_POINT('',(13.435028842544,82.4,13.435028842544));
#553 = DIRECTION('',(0.,1.,0.));
#554 = DIRECTION('',(0.,-0.,1.));
#555 = ADVANCED_FACE('',(#556,#575,#626,#677,#728),#779,.F.);
#556 = FACE_BOUND('',#557,.F.);
#557 = EDGE_LOOP('',(#558,#566,#567,#568));
#558 = ORIENTED_EDGE('',*,*,#559,.F.);
#559 = EDGE_CURVE('',#343,#560,#562,.T.);
#560 = VERTEX_POINT('',#561);
#561 = CARTESIAN_POINT('',(-5.272104470329E-15,82.5,21.525));
#562 = LINE('',#563,#564);
#563 = CARTESIAN_POINT('',(-5.272104470329E-15,75.4,21.525));
#564 = VECTOR('',#565,1.);
#565 = DIRECTION('',(0.,1.,0.));
#566 = ORIENTED_EDGE('',*,*,#342,.T.);
#567 = ORIENTED_EDGE('',*,*,#559,.T.);
#568 = ORIENTED_EDGE('',*,*,#569,.F.);
#569 = EDGE_CURVE('',#560,#560,#570,.T.);
#570 = CIRCLE('',#571,21.525);
#571 = AXIS2_PLACEMENT_3D('',#572,#573,#574);
#572 = CARTESIAN_POINT('',(0.,82.5,0.));
#573 = DIRECTION('',(0.,1.,0.));
#574 = DIRECTION('',(0.,-0.,1.));
#575 = FACE_BOUND('',#576,.F.);
#576 = EDGE_LOOP('',(#577));
#577 = ORIENTED_EDGE('',*,*,#578,.F.);
#578 = EDGE_CURVE('',#579,#579,#581,.T.);
#579 = VERTEX_POINT('',#580);
#580 = CARTESIAN_POINT('',(20.286615800466,79.5,7.195751827592));
#581 = B_SPLINE_CURVE_WITH_KNOTS('',7,(#582,#583,#584,#585,#586,#587,
    #588,#589,#590,#591,#592,#593,#594,#595,#596,#597,#598,#599,#600,
    #601,#602,#603,#604,#605,#606,#607,#608,#609,#610,#611,#612,#613,
    #614,#615,#616,#617,#618,#619,#620,#621,#622,#623,#624,#625),
  .UNSPECIFIED.,.T.,.F.,(8,6,6,6,6,6,6,8),(0.,0.152745660748,
    0.285760713845,0.42197087546,0.588690971367,0.714472258718,
    0.837892367605,1.),.UNSPECIFIED.);
#582 = CARTESIAN_POINT('',(20.286615800466,79.5,7.195751827592));
#583 = CARTESIAN_POINT('',(20.286615800466,79.296773232037,
    7.195751827592));
#584 = CARTESIAN_POINT('',(20.296120268021,79.093642455112,
    7.168956033286));
#585 = CARTESIAN_POINT('',(20.31511672725,78.893092005244,7.115402019724
    ));
#586 = CARTESIAN_POINT('',(20.343648287758,78.697938875515,
    7.034252237098));
#587 = CARTESIAN_POINT('',(20.38171200417,78.511865726686,6.924123890112
    ));
#588 = CARTESIAN_POINT('',(20.429016816682,78.340005280181,
    6.783347497992));
#589 = CARTESIAN_POINT('',(20.533243475733,78.059609851081,
    6.460378594039));
#590 = CARTESIAN_POINT('',(20.589854056081,77.941132696005,
    6.280551789585));
#591 = CARTESIAN_POINT('',(20.652491857646,77.848272130716,
    6.074594606731));
#592 = CARTESIAN_POINT('',(20.717757214306,77.790363591265,
    5.849658843179));
#593 = CARTESIAN_POINT('',(20.781952000159,77.772419808509,
    5.615520882397));
#594 = CARTESIAN_POINT('',(20.842308297421,77.794898511556,
    5.382913710421));
#595 = CARTESIAN_POINT('',(20.952933187665,77.913324191802,
    4.935047288642));
#596 = CARTESIAN_POINT('',(21.00096565558,78.008923219115,4.728273770741
    ));
#597 = CARTESIAN_POINT('',(21.041100079003,78.132095610298,
    4.545180406424));
#598 = CARTESIAN_POINT('',(21.074014866906,78.276051649016,
    4.387653378403));
#599 = CARTESIAN_POINT('',(21.100442613811,78.434815117438,
    4.256412208079));
#600 = CARTESIAN_POINT('',(21.121069480482,78.60308082084,4.151230840206
    ));
#601 = CARTESIAN_POINT('',(21.155418113183,78.988041278616,
    3.972895655347));
#602 = CARTESIAN_POINT('',(21.166811259993,79.209975409546,3.91088053957
    ));
#603 = CARTESIAN_POINT('',(21.171741776873,79.436985837068,
    3.883359898329));
#604 = CARTESIAN_POINT('',(21.170571911478,79.665561281557,
    3.889845386682));
#605 = CARTESIAN_POINT('',(21.16321420208,79.891946988578,3.930678564918
    ));
#606 = CARTESIAN_POINT('',(21.149116888956,80.111774063573,
    4.006684223635));
#607 = CARTESIAN_POINT('',(21.110783276094,80.475307848407,
    4.203317251965));
#608 = CARTESIAN_POINT('',(21.089672020351,80.626487051822,
    4.309505441562));
#609 = CARTESIAN_POINT('',(21.063415249237,80.768411326614,
    4.438044034985));
#610 = CARTESIAN_POINT('',(21.031472967686,80.896574838637,
    4.588887186037));
#611 = CARTESIAN_POINT('',(20.993302990811,81.006062660675,
    4.761186892729));
#612 = CARTESIAN_POINT('',(20.948457611537,81.091466982646,
    4.953166721454));
#613 = CARTESIAN_POINT('',(20.846437637798,81.200680964798,5.36619601791
    ));
#614 = CARTESIAN_POINT('',(20.790835504811,81.224196655,5.581264420444)
  );
#615 = CARTESIAN_POINT('',(20.731679845516,81.213088620411,
    5.798744290527));
#616 = CARTESIAN_POINT('',(20.671217018303,81.167242730716,
    6.009689747798));
#617 = CARTESIAN_POINT('',(20.612429789773,81.090279555399,6.20575436167
    ));
#618 = CARTESIAN_POINT('',(20.558200612007,80.989398904161,
    6.380494969726));
#619 = CARTESIAN_POINT('',(20.447887114527,80.725502253442,
    6.726972241308));
#620 = CARTESIAN_POINT('',(20.394379575674,80.547727446349,
    6.887415925449));
#621 = CARTESIAN_POINT('',(20.351238353034,80.352251183703,
    7.012650184823));
#622 = CARTESIAN_POINT('',(20.318897115245,80.145591656585,
    7.104745954132));
#623 = CARTESIAN_POINT('',(20.297381222842,79.932480131074,
    7.165400633126));
#624 = CARTESIAN_POINT('',(20.286615800466,79.716283053614,
    7.195751827592));
#625 = CARTESIAN_POINT('',(20.286615800466,79.5,7.195751827592));
#626 = FACE_BOUND('',#627,.F.);
#627 = EDGE_LOOP('',(#628));
#628 = ORIENTED_EDGE('',*,*,#629,.F.);
#629 = EDGE_CURVE('',#630,#630,#632,.T.);
#630 = VERTEX_POINT('',#631);
#631 = CARTESIAN_POINT('',(-20.28661580046,79.5,-7.195751827592));
#632 = B_SPLINE_CURVE_WITH_KNOTS('',7,(#633,#634,#635,#636,#637,#638,
    #639,#640,#641,#642,#643,#644,#645,#646,#647,#648,#649,#650,#651,
    #652,#653,#654,#655,#656,#657,#658,#659,#660,#661,#662,#663,#664,
    #665,#666,#667,#668,#669,#670,#671,#672,#673,#674,#675,#676),
  .UNSPECIFIED.,.T.,.F.,(8,6,6,6,6,6,6,8),(0.,0.152745660851,
    0.285760714038,0.421970875683,0.588690971525,0.714472258828,
    0.837892367667,1.),.UNSPECIFIED.);
#633 = CARTESIAN_POINT('',(-20.28661580046,79.5,-7.195751827592));
#634 = CARTESIAN_POINT('',(-20.28661580046,79.296773232037,
    -7.195751827592));
#635 = CARTESIAN_POINT('',(-20.29612026802,79.093642455112,
    -7.168956033286));
#636 = CARTESIAN_POINT('',(-20.31511672725,78.893092005244,
    -7.115402019724));
#637 = CARTESIAN_POINT('',(-20.34364828775,78.697938875515,
    -7.034252237098));
#638 = CARTESIAN_POINT('',(-20.38171200417,78.511865726686,
    -6.924123890112));
#639 = CARTESIAN_POINT('',(-20.42901681668,78.340005280181,
    -6.783347497992));
#640 = CARTESIAN_POINT('',(-20.53324347573,78.059609851081,
    -6.460378594039));
#641 = CARTESIAN_POINT('',(-20.58985405608,77.941132696005,
    -6.280551789585));
#642 = CARTESIAN_POINT('',(-20.65249185764,77.848272130716,
    -6.074594606731));
#643 = CARTESIAN_POINT('',(-20.7177572143,77.790363591265,
    -5.849658843179));
#644 = CARTESIAN_POINT('',(-20.78195200015,77.772419808509,
    -5.615520882397));
#645 = CARTESIAN_POINT('',(-20.84230829742,77.794898511555,
    -5.382913710421));
#646 = CARTESIAN_POINT('',(-20.95293318763,77.913324191775,
    -4.935047288746));
#647 = CARTESIAN_POINT('',(-21.00096565558,78.008923219075,
    -4.72827377075));
#648 = CARTESIAN_POINT('',(-21.04110007902,78.132095610332,
    -4.545180406345));
#649 = CARTESIAN_POINT('',(-21.07401486691,78.2760516491,-4.387653378344
    ));
#650 = CARTESIAN_POINT('',(-21.1004426138,78.434815117454,
    -4.256412208105));
#651 = CARTESIAN_POINT('',(-21.12106948047,78.603080820736,
    -4.151230840255));
#652 = CARTESIAN_POINT('',(-21.15541811318,78.988041278615,
    -3.972895655347));
#653 = CARTESIAN_POINT('',(-21.16681125999,79.209975409544,
    -3.910880539571));
#654 = CARTESIAN_POINT('',(-21.17174177687,79.436985837068,
    -3.883359898328));
#655 = CARTESIAN_POINT('',(-21.17057191147,79.665561281558,
    -3.889845386683));
#656 = CARTESIAN_POINT('',(-21.16321420208,79.891946988578,
    -3.930678564918));
#657 = CARTESIAN_POINT('',(-21.14911688895,80.111774063574,
    -4.006684223636));
#658 = CARTESIAN_POINT('',(-21.11078327609,80.475307848407,
    -4.203317251965));
#659 = CARTESIAN_POINT('',(-21.08967202035,80.626487051822,
    -4.309505441561));
#660 = CARTESIAN_POINT('',(-21.06341524923,80.768411326614,
    -4.438044034985));
#661 = CARTESIAN_POINT('',(-21.03147296768,80.896574838637,
    -4.588887186037));
#662 = CARTESIAN_POINT('',(-20.99330299081,81.006062660675,
    -4.761186892729));
#663 = CARTESIAN_POINT('',(-20.94845761153,81.091466982646,
    -4.953166721454));
#664 = CARTESIAN_POINT('',(-20.84643763779,81.200680964798,
    -5.36619601791));
#665 = CARTESIAN_POINT('',(-20.79083550481,81.224196655,-5.581264420445)
  );
#666 = CARTESIAN_POINT('',(-20.73167984551,81.21308862041,
    -5.798744290526));
#667 = CARTESIAN_POINT('',(-20.6712170183,81.167242730717,
    -6.009689747798));
#668 = CARTESIAN_POINT('',(-20.61242978977,81.090279555398,
    -6.205754361669));
#669 = CARTESIAN_POINT('',(-20.558200612,80.989398904161,-6.380494969726
    ));
#670 = CARTESIAN_POINT('',(-20.44788711452,80.725502253442,
    -6.726972241308));
#671 = CARTESIAN_POINT('',(-20.39437957567,80.547727446348,
    -6.887415925449));
#672 = CARTESIAN_POINT('',(-20.35123835303,80.352251183705,
    -7.012650184823));
#673 = CARTESIAN_POINT('',(-20.31889711524,80.145591656583,
    -7.104745954132));
#674 = CARTESIAN_POINT('',(-20.29738122284,79.932480131074,
    -7.165400633126));
#675 = CARTESIAN_POINT('',(-20.28661580046,79.716283053614,
    -7.195751827592));
#676 = CARTESIAN_POINT('',(-20.28661580046,79.5,-7.195751827592));
#677 = FACE_BOUND('',#678,.F.);
#678 = EDGE_LOOP('',(#679));
#679 = ORIENTED_EDGE('',*,*,#680,.F.);
#680 = EDGE_CURVE('',#681,#681,#683,.T.);
#681 = VERTEX_POINT('',#682);
#682 = CARTESIAN_POINT('',(3.91160401821,79.5,-21.16660055381));
#683 = B_SPLINE_CURVE_WITH_KNOTS('',7,(#684,#685,#686,#687,#688,#689,
    #690,#691,#692,#693,#694,#695,#696,#697,#698,#699,#700,#701,#702,
    #703,#704,#705,#706,#707,#708,#709,#710,#711,#712,#713,#714,#715,
    #716,#717,#718,#719,#720,#721,#722,#723,#724,#725,#726,#727),
  .UNSPECIFIED.,.T.,.F.,(8,6,6,6,6,6,6,8),(0.,0.15274566131,
    0.285760714897,0.421970876951,0.588690970382,0.714472258034,
    0.837892367216,1.),.UNSPECIFIED.);
#684 = CARTESIAN_POINT('',(3.91160401821,79.5,-21.16660055381));
#685 = CARTESIAN_POINT('',(3.91160401821,79.703226767963,-21.16660055381
    ));
#686 = CARTESIAN_POINT('',(3.939562090571,79.906357544888,
    -21.16143376701));
#687 = CARTESIAN_POINT('',(3.995439456405,80.106907994756,-21.1511081765
    ));
#688 = CARTESIAN_POINT('',(4.079983009925,80.302061124485,-21.1352423414
    ));
#689 = CARTESIAN_POINT('',(4.194388814297,80.488134273314,
    -21.11314231328));
#690 = CARTESIAN_POINT('',(4.339957152382,80.659994719819,
    -21.08372128658));
#691 = CARTESIAN_POINT('',(4.671769757363,80.940390148919,
    -21.01249976909));
#692 = CARTESIAN_POINT('',(4.855809628476,81.058867303995,
    -20.97161256757));
#693 = CARTESIAN_POINT('',(5.065492681702,81.151727869284,
    -20.92287990353));
#694 = CARTESIAN_POINT('',(5.292925445488,81.209636408735,
    -20.86693347861));
#695 = CARTESIAN_POINT('',(5.527792260441,81.227580191491,
    -20.80545881356));
#696 = CARTESIAN_POINT('',(5.759414129106,81.205101488444,
    -20.74142531428));
#697 = CARTESIAN_POINT('',(6.202590272888,81.086675808225,
    -20.61329606866));
#698 = CARTESIAN_POINT('',(6.405677626272,80.991076780925,
    -20.55150664711));
#699 = CARTESIAN_POINT('',(6.584308342833,80.867904389667,
    -20.49471739517));
#700 = CARTESIAN_POINT('',(6.737188144812,80.723948350901,
    -20.44445892365));
#701 = CARTESIAN_POINT('',(6.864060205706,80.565184882545,-20.4017254387
    ));
#702 = CARTESIAN_POINT('',(6.965463375602,80.396919179265,
    -20.36699814531));
#703 = CARTESIAN_POINT('',(7.137080490826,80.011958725086,
    -20.30757734194));
#704 = CARTESIAN_POINT('',(7.196483734856,79.790024575928,-20.2864365369
    ));
#705 = CARTESIAN_POINT('',(7.222782563088,79.563014189093,
    -20.27694617078));
#706 = CARTESIAN_POINT('',(7.21658103115,79.334438692444,-20.27917578232
    ));
#707 = CARTESIAN_POINT('',(7.177539613862,79.10805302567,-20.29322040576
    ));
#708 = CARTESIAN_POINT('',(7.104668120005,78.888225932853,-20.3190146059
    ));
#709 = CARTESIAN_POINT('',(6.915212117679,78.524692151593,
    -20.38413323686));
#710 = CARTESIAN_POINT('',(6.812694820036,78.373512948178,
    -20.41894444788));
#711 = CARTESIAN_POINT('',(6.688248747207,78.231588673385,
    -20.46047471379));
#712 = CARTESIAN_POINT('',(6.541643605634,78.103425161364,
    -20.50823346204));
#713 = CARTESIAN_POINT('',(6.373342694137,77.993937339325,
    -20.56132714575));
#714 = CARTESIAN_POINT('',(6.18466059581,77.908533017354,-20.61847982241
    ));
#715 = CARTESIAN_POINT('',(5.775956745702,77.799319035202,
    -20.73664258169));
#716 = CARTESIAN_POINT('',(5.561900979062,77.775803345,-20.79602392329)
  );
#717 = CARTESIAN_POINT('',(5.343980057112,77.786911379589,-20.8535335546
    ));
#718 = CARTESIAN_POINT('',(5.131064518695,77.832757269283,
    -20.90664393889));
#719 = CARTESIAN_POINT('',(4.931873968034,77.909720444601,-20.9537650125
    ));
#720 = CARTESIAN_POINT('',(4.753429573502,78.010601095839,
    -20.99417147095));
#721 = CARTESIAN_POINT('',(4.398214705738,78.274497746558,
    -21.07187581555));
#722 = CARTESIAN_POINT('',(4.232512629969,78.452272553652,
    -21.10575876968));
#723 = CARTESIAN_POINT('',(4.102485968607,78.647748816296,
    -21.13101450461));
#724 = CARTESIAN_POINT('',(4.006558073909,78.854408343416,
    -21.14905405575));
#725 = CARTESIAN_POINT('',(3.943271634841,79.067519868926,
    -21.16074808584));
#726 = CARTESIAN_POINT('',(3.91160401821,79.283716946386,-21.16660055381
    ));
#727 = CARTESIAN_POINT('',(3.91160401821,79.5,-21.16660055381));
#728 = FACE_BOUND('',#729,.F.);
#729 = EDGE_LOOP('',(#730));
#730 = ORIENTED_EDGE('',*,*,#731,.F.);
#731 = EDGE_CURVE('',#732,#732,#734,.T.);
#732 = VERTEX_POINT('',#733);
#733 = CARTESIAN_POINT('',(-3.91160401821,79.5,21.166600553814));
#734 = B_SPLINE_CURVE_WITH_KNOTS('',7,(#735,#736,#737,#738,#739,#740,
    #741,#742,#743,#744,#745,#746,#747,#748,#749,#750,#751,#752,#753,
    #754,#755,#756,#757,#758,#759,#760,#761,#762,#763,#764,#765,#766,
    #767,#768,#769,#770,#771,#772,#773,#774,#775,#776,#777,#778),
  .UNSPECIFIED.,.T.,.F.,(8,6,6,6,6,6,6,8),(0.,0.152745661339,
    0.28576071495,0.42197087703,0.588690970491,0.71447225813,
    0.837892367271,1.),.UNSPECIFIED.);
#735 = CARTESIAN_POINT('',(-3.91160401821,79.5,21.166600553814));
#736 = CARTESIAN_POINT('',(-3.91160401821,79.703226767963,
    21.166600553814));
#737 = CARTESIAN_POINT('',(-3.939562090571,79.906357544888,
    21.161433767013));
#738 = CARTESIAN_POINT('',(-3.995439456405,80.106907994756,
    21.151108176507));
#739 = CARTESIAN_POINT('',(-4.079983009925,80.302061124485,
    21.135242341403));
#740 = CARTESIAN_POINT('',(-4.194388814297,80.488134273314,
    21.113142313285));
#741 = CARTESIAN_POINT('',(-4.339957152382,80.659994719819,
    21.083721286582));
#742 = CARTESIAN_POINT('',(-4.671769757363,80.940390148919,
    21.012499769095));
#743 = CARTESIAN_POINT('',(-4.855809628476,81.058867303995,
    20.971612567572));
#744 = CARTESIAN_POINT('',(-5.065492681702,81.151727869284,
    20.922879903538));
#745 = CARTESIAN_POINT('',(-5.292925445487,81.209636408735,
    20.866933478616));
#746 = CARTESIAN_POINT('',(-5.527792260442,81.227580191491,
    20.805458813565));
#747 = CARTESIAN_POINT('',(-5.759414129106,81.205101488444,
    20.741425314284));
#748 = CARTESIAN_POINT('',(-6.202590272888,81.086675808225,
    20.613296068667));
#749 = CARTESIAN_POINT('',(-6.405677626273,80.991076780925,
    20.551506647112));
#750 = CARTESIAN_POINT('',(-6.584308342833,80.867904389667,
    20.494717395175));
#751 = CARTESIAN_POINT('',(-6.737188144812,80.7239483509,20.444458923653
    ));
#752 = CARTESIAN_POINT('',(-6.864060205706,80.565184882545,
    20.401725438704));
#753 = CARTESIAN_POINT('',(-6.965463375602,80.396919179265,
    20.366998145313));
#754 = CARTESIAN_POINT('',(-7.137080490826,80.011958725087,
    20.307577341943));
#755 = CARTESIAN_POINT('',(-7.196483734856,79.790024575928,
    20.286436536905));
#756 = CARTESIAN_POINT('',(-7.222782563089,79.563014189093,
    20.276946170781));
#757 = CARTESIAN_POINT('',(-7.21658103115,79.334438692444,
    20.279175782327));
#758 = CARTESIAN_POINT('',(-7.177539613862,79.10805302567,
    20.293220405765));
#759 = CARTESIAN_POINT('',(-7.104668120005,78.888225932853,20.3190146059
    ));
#760 = CARTESIAN_POINT('',(-6.915212117703,78.524692151639,
    20.384133236859));
#761 = CARTESIAN_POINT('',(-6.812694820046,78.373512948171,
    20.418944447883));
#762 = CARTESIAN_POINT('',(-6.688248747181,78.23158867335,
    20.460474713802));
#763 = CARTESIAN_POINT('',(-6.541643605598,78.103425161348,
    20.508233462051));
#764 = CARTESIAN_POINT('',(-6.373342694141,77.993937339342,
    20.561327145749));
#765 = CARTESIAN_POINT('',(-6.184660595856,77.908533017366,
    20.618479822406));
#766 = CARTESIAN_POINT('',(-5.775956745702,77.799319035202,
    20.736642581696));
#767 = CARTESIAN_POINT('',(-5.561900979062,77.775803345,20.796023923292)
  );
#768 = CARTESIAN_POINT('',(-5.343980057112,77.78691137959,
    20.853533554606));
#769 = CARTESIAN_POINT('',(-5.131064518696,77.832757269283,
    20.906643938891));
#770 = CARTESIAN_POINT('',(-4.931873968034,77.909720444602,
    20.953765012501));
#771 = CARTESIAN_POINT('',(-4.753429573503,78.010601095838,
    20.994171470957));
#772 = CARTESIAN_POINT('',(-4.398214705738,78.274497746558,
    21.071875815551));
#773 = CARTESIAN_POINT('',(-4.232512629969,78.452272553651,
    21.10575876968));
#774 = CARTESIAN_POINT('',(-4.102485968606,78.647748816296,
    21.131014504611));
#775 = CARTESIAN_POINT('',(-4.00655807391,78.854408343417,
    21.149054055751));
#776 = CARTESIAN_POINT('',(-3.943271634841,79.067519868925,
    21.160748085842));
#777 = CARTESIAN_POINT('',(-3.91160401821,79.283716946387,
    21.166600553814));
#778 = CARTESIAN_POINT('',(-3.91160401821,79.5,21.166600553814));
#779 = CYLINDRICAL_SURFACE('',#780,21.525);
#780 = AXIS2_PLACEMENT_3D('',#781,#782,#783);
#781 = CARTESIAN_POINT('',(0.,75.4,0.));
#782 = DIRECTION('',(0.,1.,0.));
#783 = DIRECTION('',(0.,-0.,1.));
#784 = ADVANCED_FACE('',(#785,#788),#799,.T.);
#785 = FACE_BOUND('',#786,.T.);
#786 = EDGE_LOOP('',(#787));
#787 = ORIENTED_EDGE('',*,*,#368,.T.);
#788 = FACE_BOUND('',#789,.T.);
#789 = EDGE_LOOP('',(#790));
#790 = ORIENTED_EDGE('',*,*,#791,.F.);
#791 = EDGE_CURVE('',#792,#792,#794,.T.);
#792 = VERTEX_POINT('',#793);
#793 = CARTESIAN_POINT('',(5.164866981505,79.5,-25.84384160807));
#794 = CIRCLE('',#795,1.7);
#795 = AXIS2_PLACEMENT_3D('',#796,#797,#798);
#796 = CARTESIAN_POINT('',(6.806940886196,79.5,-25.4038492314));
#797 = DIRECTION('',(0.258819045103,0.,-0.965925826289));
#798 = DIRECTION('',(-0.965925826289,0.,-0.258819045103));
#799 = PLANE('',#800);
#800 = AXIS2_PLACEMENT_3D('',#801,#802,#803);
#801 = CARTESIAN_POINT('',(6.806940886196,79.5,-25.4038492314));
#802 = DIRECTION('',(0.258819045103,0.,-0.965925826289));
#803 = DIRECTION('',(-0.965925826289,0.,-0.258819045103));
#804 = ADVANCED_FACE('',(#805,#808),#819,.T.);
#805 = FACE_BOUND('',#806,.T.);
#806 = EDGE_LOOP('',(#807));
#807 = ORIENTED_EDGE('',*,*,#393,.T.);
#808 = FACE_BOUND('',#809,.T.);
#809 = EDGE_LOOP('',(#810));
#810 = ORIENTED_EDGE('',*,*,#811,.F.);
#811 = EDGE_CURVE('',#812,#812,#814,.T.);
#812 = VERTEX_POINT('',#813);
#813 = CARTESIAN_POINT('',(-5.164866981505,79.5,25.843841608077));
#814 = CIRCLE('',#815,1.7);
#815 = AXIS2_PLACEMENT_3D('',#816,#817,#818);
#816 = CARTESIAN_POINT('',(-6.806940886196,79.5,25.403849231402));
#817 = DIRECTION('',(-0.258819045103,0.,0.965925826289));
#818 = DIRECTION('',(0.965925826289,0.,0.258819045103));
#819 = PLANE('',#820);
#820 = AXIS2_PLACEMENT_3D('',#821,#822,#823);
#821 = CARTESIAN_POINT('',(-6.806940886196,79.5,25.403849231402));
#822 = DIRECTION('',(-0.258819045103,0.,0.965925826289));
#823 = DIRECTION('',(0.965925826289,0.,0.258819045103));
#824 = ADVANCED_FACE('',(#825,#828),#839,.T.);
#825 = FACE_BOUND('',#826,.T.);
#826 = EDGE_LOOP('',(#827));
#827 = ORIENTED_EDGE('',*,*,#418,.T.);
#828 = FACE_BOUND('',#829,.T.);
#829 = EDGE_LOOP('',(#830));
#830 = ORIENTED_EDGE('',*,*,#831,.F.);
#831 = EDGE_CURVE('',#832,#832,#834,.T.);
#832 = VERTEX_POINT('',#833);
#833 = CARTESIAN_POINT('',(24.963856854728,79.5,8.449014790888));
#834 = CIRCLE('',#835,1.7);
#835 = AXIS2_PLACEMENT_3D('',#836,#837,#838);
#836 = CARTESIAN_POINT('',(25.403849231402,79.5,6.806940886196));
#837 = DIRECTION('',(0.965925826289,0.,0.258819045103));
#838 = DIRECTION('',(-0.258819045103,0.,0.965925826289));
#839 = PLANE('',#840);
#840 = AXIS2_PLACEMENT_3D('',#841,#842,#843);
#841 = CARTESIAN_POINT('',(25.403849231402,79.5,6.806940886196));
#842 = DIRECTION('',(0.965925826289,0.,0.258819045103));
#843 = DIRECTION('',(-0.258819045103,0.,0.965925826289));
#844 = ADVANCED_FACE('',(#845,#848),#859,.T.);
#845 = FACE_BOUND('',#846,.T.);
#846 = EDGE_LOOP('',(#847));
#847 = ORIENTED_EDGE('',*,*,#443,.T.);
#848 = FACE_BOUND('',#849,.T.);
#849 = EDGE_LOOP('',(#850));
#850 = ORIENTED_EDGE('',*,*,#851,.F.);
#851 = EDGE_CURVE('',#852,#852,#854,.T.);
#852 = VERTEX_POINT('',#853);
#853 = CARTESIAN_POINT('',(-24.96385685472,79.5,-8.449014790888));
#854 = CIRCLE('',#855,1.7);
#855 = AXIS2_PLACEMENT_3D('',#856,#857,#858);
#856 = CARTESIAN_POINT('',(-25.4038492314,79.5,-6.806940886196));
#857 = DIRECTION('',(-0.965925826289,0.,-0.258819045103));
#858 = DIRECTION('',(0.258819045103,0.,-0.965925826289));
#859 = PLANE('',#860);
#860 = AXIS2_PLACEMENT_3D('',#861,#862,#863);
#861 = CARTESIAN_POINT('',(-25.4038492314,79.5,-6.806940886196));
#862 = DIRECTION('',(-0.965925826289,0.,-0.258819045103));
#863 = DIRECTION('',(0.258819045103,0.,-0.965925826289));
#864 = ADVANCED_FACE('',(#865,#876),#879,.F.);
#865 = FACE_BOUND('',#866,.F.);
#866 = EDGE_LOOP('',(#867));
#867 = ORIENTED_EDGE('',*,*,#868,.T.);
#868 = EDGE_CURVE('',#869,#869,#871,.T.);
#869 = VERTEX_POINT('',#870);
#870 = CARTESIAN_POINT('',(-13.43502884254,84.6,-11.03502884254));
#871 = CIRCLE('',#872,2.4);
#872 = AXIS2_PLACEMENT_3D('',#873,#874,#875);
#873 = CARTESIAN_POINT('',(-13.43502884254,84.6,-13.43502884254));
#874 = DIRECTION('',(0.,1.,0.));
#875 = DIRECTION('',(0.,-0.,1.));
#876 = FACE_BOUND('',#877,.F.);
#877 = EDGE_LOOP('',(#878));
#878 = ORIENTED_EDGE('',*,*,#468,.F.);
#879 = PLANE('',#880);
#880 = AXIS2_PLACEMENT_3D('',#881,#882,#883);
#881 = CARTESIAN_POINT('',(-13.43502884254,84.6,-13.43502884254));
#882 = DIRECTION('',(0.,1.,0.));
#883 = DIRECTION('',(0.,-0.,1.));
#884 = ADVANCED_FACE('',(#885,#896),#899,.F.);
#885 = FACE_BOUND('',#886,.F.);
#886 = EDGE_LOOP('',(#887));
#887 = ORIENTED_EDGE('',*,*,#888,.T.);
#888 = EDGE_CURVE('',#889,#889,#891,.T.);
#889 = VERTEX_POINT('',#890);
#890 = CARTESIAN_POINT('',(-13.43502884254,84.6,15.835028842544));
#891 = CIRCLE('',#892,2.4);
#892 = AXIS2_PLACEMENT_3D('',#893,#894,#895);
#893 = CARTESIAN_POINT('',(-13.43502884254,84.6,13.435028842544));
#894 = DIRECTION('',(0.,1.,0.));
#895 = DIRECTION('',(0.,-0.,1.));
#896 = FACE_BOUND('',#897,.F.);
#897 = EDGE_LOOP('',(#898));
#898 = ORIENTED_EDGE('',*,*,#493,.F.);
#899 = PLANE('',#900);
#900 = AXIS2_PLACEMENT_3D('',#901,#902,#903);
#901 = CARTESIAN_POINT('',(-13.43502884254,84.6,13.435028842544));
#902 = DIRECTION('',(0.,1.,0.));
#903 = DIRECTION('',(0.,-0.,1.));
#904 = ADVANCED_FACE('',(#905,#916),#919,.F.);
#905 = FACE_BOUND('',#906,.F.);
#906 = EDGE_LOOP('',(#907));
#907 = ORIENTED_EDGE('',*,*,#908,.T.);
#908 = EDGE_CURVE('',#909,#909,#911,.T.);
#909 = VERTEX_POINT('',#910);
#910 = CARTESIAN_POINT('',(13.435028842544,84.6,-11.03502884254));
#911 = CIRCLE('',#912,2.4);
#912 = AXIS2_PLACEMENT_3D('',#913,#914,#915);
#913 = CARTESIAN_POINT('',(13.435028842544,84.6,-13.43502884254));
#914 = DIRECTION('',(0.,1.,0.));
#915 = DIRECTION('',(0.,-0.,1.));
#916 = FACE_BOUND('',#917,.F.);
#917 = EDGE_LOOP('',(#918));
#918 = ORIENTED_EDGE('',*,*,#518,.F.);
#919 = PLANE('',#920);
#920 = AXIS2_PLACEMENT_3D('',#921,#922,#923);
#921 = CARTESIAN_POINT('',(13.435028842544,84.6,-13.43502884254));
#922 = DIRECTION('',(0.,1.,0.));
#923 = DIRECTION('',(0.,-0.,1.));
#924 = ADVANCED_FACE('',(#925,#936),#939,.F.);
#925 = FACE_BOUND('',#926,.F.);
#926 = EDGE_LOOP('',(#927));
#927 = ORIENTED_EDGE('',*,*,#928,.T.);
#928 = EDGE_CURVE('',#929,#929,#931,.T.);
#929 = VERTEX_POINT('',#930);
#930 = CARTESIAN_POINT('',(13.435028842544,84.6,15.835028842544));
#931 = CIRCLE('',#932,2.4);
#932 = AXIS2_PLACEMENT_3D('',#933,#934,#935);
#933 = CARTESIAN_POINT('',(13.435028842544,84.6,13.435028842544));
#934 = DIRECTION('',(0.,1.,0.));
#935 = DIRECTION('',(0.,-0.,1.));
#936 = FACE_BOUND('',#937,.F.);
#937 = EDGE_LOOP('',(#938));
#938 = ORIENTED_EDGE('',*,*,#543,.F.);
#939 = PLANE('',#940);
#940 = AXIS2_PLACEMENT_3D('',#941,#942,#943);
#941 = CARTESIAN_POINT('',(13.435028842544,84.6,13.435028842544));
#942 = DIRECTION('',(0.,1.,0.));
#943 = DIRECTION('',(0.,-0.,1.));
#944 = ADVANCED_FACE('',(#945,#948,#959,#970,#981),#992,.F.);
#945 = FACE_BOUND('',#946,.F.);
#946 = EDGE_LOOP('',(#947));
#947 = ORIENTED_EDGE('',*,*,#569,.T.);
#948 = FACE_BOUND('',#949,.F.);
#949 = EDGE_LOOP('',(#950));
#950 = ORIENTED_EDGE('',*,*,#951,.F.);
#951 = EDGE_CURVE('',#952,#952,#954,.T.);
#952 = VERTEX_POINT('',#953);
#953 = CARTESIAN_POINT('',(-13.43502884254,82.5,-11.03502884254));
#954 = CIRCLE('',#955,2.4);
#955 = AXIS2_PLACEMENT_3D('',#956,#957,#958);
#956 = CARTESIAN_POINT('',(-13.43502884254,82.5,-13.43502884254));
#957 = DIRECTION('',(0.,1.,0.));
#958 = DIRECTION('',(0.,-0.,1.));
#959 = FACE_BOUND('',#960,.F.);
#960 = EDGE_LOOP('',(#961));
#961 = ORIENTED_EDGE('',*,*,#962,.F.);
#962 = EDGE_CURVE('',#963,#963,#965,.T.);
#963 = VERTEX_POINT('',#964);
#964 = CARTESIAN_POINT('',(-13.43502884254,82.5,15.835028842544));
#965 = CIRCLE('',#966,2.4);
#966 = AXIS2_PLACEMENT_3D('',#967,#968,#969);
#967 = CARTESIAN_POINT('',(-13.43502884254,82.5,13.435028842544));
#968 = DIRECTION('',(0.,1.,0.));
#969 = DIRECTION('',(0.,-0.,1.));
#970 = FACE_BOUND('',#971,.F.);
#971 = EDGE_LOOP('',(#972));
#972 = ORIENTED_EDGE('',*,*,#973,.F.);
#973 = EDGE_CURVE('',#974,#974,#976,.T.);
#974 = VERTEX_POINT('',#975);
#975 = CARTESIAN_POINT('',(13.435028842544,82.5,-11.03502884254));
#976 = CIRCLE('',#977,2.4);
#977 = AXIS2_PLACEMENT_3D('',#978,#979,#980);
#978 = CARTESIAN_POINT('',(13.435028842544,82.5,-13.43502884254));
#979 = DIRECTION('',(0.,1.,0.));
#980 = DIRECTION('',(0.,-0.,1.));
#981 = FACE_BOUND('',#982,.F.);
#982 = EDGE_LOOP('',(#983));
#983 = ORIENTED_EDGE('',*,*,#984,.F.);
#984 = EDGE_CURVE('',#985,#985,#987,.T.);
#985 = VERTEX_POINT('',#986);
#986 = CARTESIAN_POINT('',(13.435028842544,82.5,15.835028842544));
#987 = CIRCLE('',#988,2.4);
#988 = AXIS2_PLACEMENT_3D('',#989,#990,#991);
#989 = CARTESIAN_POINT('',(13.435028842544,82.5,13.435028842544));
#990 = DIRECTION('',(0.,1.,0.));
#991 = DIRECTION('',(0.,-0.,1.));
#992 = PLANE('',#993);
#993 = AXIS2_PLACEMENT_3D('',#994,#995,#996);
#994 = CARTESIAN_POINT('',(0.,82.5,0.));
#995 = DIRECTION('',(0.,1.,0.));
#996 = DIRECTION('',(0.,-0.,1.));
#997 = ADVANCED_FACE('',(#998),#1009,.F.);
#998 = FACE_BOUND('',#999,.F.);
#999 = EDGE_LOOP('',(#1000,#1001,#1007,#1008));
#1000 = ORIENTED_EDGE('',*,*,#831,.F.);
#1001 = ORIENTED_EDGE('',*,*,#1002,.F.);
#1002 = EDGE_CURVE('',#579,#832,#1003,.T.);
#1003 = LINE('',#1004,#1005);
#1004 = CARTESIAN_POINT('',(20.230820305912,79.5,7.180801469885));
#1005 = VECTOR('',#1006,1.);
#1006 = DIRECTION('',(0.965925826289,-2.9722835542E-33,0.258819045103));
#1007 = ORIENTED_EDGE('',*,*,#578,.T.);
#1008 = ORIENTED_EDGE('',*,*,#1002,.T.);
#1009 = CYLINDRICAL_SURFACE('',#1010,1.7);
#1010 = AXIS2_PLACEMENT_3D('',#1011,#1012,#1013);
#1011 = CARTESIAN_POINT('',(20.670812682586,79.5,5.538727565194));
#1012 = DIRECTION('',(0.965925826289,0.,0.258819045103));
#1013 = DIRECTION('',(-0.258819045103,0.,0.965925826289));
#1014 = ADVANCED_FACE('',(#1015),#1026,.F.);
#1015 = FACE_BOUND('',#1016,.F.);
#1016 = EDGE_LOOP('',(#1017,#1018,#1024,#1025));
#1017 = ORIENTED_EDGE('',*,*,#851,.F.);
#1018 = ORIENTED_EDGE('',*,*,#1019,.F.);
#1019 = EDGE_CURVE('',#630,#852,#1020,.T.);
#1020 = LINE('',#1021,#1022);
#1021 = CARTESIAN_POINT('',(-20.23082030591,79.5,-7.180801469885));
#1022 = VECTOR('',#1023,1.);
#1023 = DIRECTION('',(-0.965925826289,-2.165207517603E-33,
    -0.258819045103));
#1024 = ORIENTED_EDGE('',*,*,#629,.T.);
#1025 = ORIENTED_EDGE('',*,*,#1019,.T.);
#1026 = CYLINDRICAL_SURFACE('',#1027,1.7);
#1027 = AXIS2_PLACEMENT_3D('',#1028,#1029,#1030);
#1028 = CARTESIAN_POINT('',(-20.67081268258,79.5,-5.538727565194));
#1029 = DIRECTION('',(-0.965925826289,0.,-0.258819045103));
#1030 = DIRECTION('',(0.258819045103,0.,-0.965925826289));
#1031 = ADVANCED_FACE('',(#1032),#1043,.F.);
#1032 = FACE_BOUND('',#1033,.F.);
#1033 = EDGE_LOOP('',(#1034,#1035,#1041,#1042));
#1034 = ORIENTED_EDGE('',*,*,#791,.F.);
#1035 = ORIENTED_EDGE('',*,*,#1036,.F.);
#1036 = EDGE_CURVE('',#681,#792,#1037,.T.);
#1037 = LINE('',#1038,#1039);
#1038 = CARTESIAN_POINT('',(3.896653660503,79.5,-21.11080505926));
#1039 = VECTOR('',#1040,1.);
#1040 = DIRECTION('',(0.258819045103,-1.229901607214E-32,-0.965925826289
    ));
#1041 = ORIENTED_EDGE('',*,*,#680,.T.);
#1042 = ORIENTED_EDGE('',*,*,#1036,.T.);
#1043 = CYLINDRICAL_SURFACE('',#1044,1.7);
#1044 = AXIS2_PLACEMENT_3D('',#1045,#1046,#1047);
#1045 = CARTESIAN_POINT('',(5.538727565194,79.5,-20.67081268258));
#1046 = DIRECTION('',(0.258819045103,0.,-0.965925826289));
#1047 = DIRECTION('',(-0.965925826289,0.,-0.258819045103));
#1048 = ADVANCED_FACE('',(#1049),#1060,.F.);
#1049 = FACE_BOUND('',#1050,.F.);
#1050 = EDGE_LOOP('',(#1051,#1052,#1058,#1059));
#1051 = ORIENTED_EDGE('',*,*,#811,.F.);
#1052 = ORIENTED_EDGE('',*,*,#1053,.F.);
#1053 = EDGE_CURVE('',#732,#812,#1054,.T.);
#1054 = LINE('',#1055,#1056);
#1055 = CARTESIAN_POINT('',(-3.896653660503,79.5,21.11080505926));
#1056 = VECTOR('',#1057,1.);
#1057 = DIRECTION('',(-0.258819045103,-6.410849575098E-34,0.965925826289
    ));
#1058 = ORIENTED_EDGE('',*,*,#731,.T.);
#1059 = ORIENTED_EDGE('',*,*,#1053,.T.);
#1060 = CYLINDRICAL_SURFACE('',#1061,1.7);
#1061 = AXIS2_PLACEMENT_3D('',#1062,#1063,#1064);
#1062 = CARTESIAN_POINT('',(-5.538727565194,79.5,20.670812682586));
#1063 = DIRECTION('',(-0.258819045103,0.,0.965925826289));
#1064 = DIRECTION('',(0.965925826289,0.,0.258819045103));
#1065 = ADVANCED_FACE('',(#1066),#1077,.F.);
#1066 = FACE_BOUND('',#1067,.F.);
#1067 = EDGE_LOOP('',(#1068,#1074,#1075,#1076));
#1068 = ORIENTED_EDGE('',*,*,#1069,.T.);
#1069 = EDGE_CURVE('',#952,#869,#1070,.T.);
#1070 = LINE('',#1071,#1072);
#1071 = CARTESIAN_POINT('',(-13.43502884254,75.4,-11.03502884254));
#1072 = VECTOR('',#1073,1.);
#1073 = DIRECTION('',(0.,1.,0.));
#1074 = ORIENTED_EDGE('',*,*,#868,.F.);
#1075 = ORIENTED_EDGE('',*,*,#1069,.F.);
#1076 = ORIENTED_EDGE('',*,*,#951,.T.);
#1077 = CYLINDRICAL_SURFACE('',#1078,2.4);
#1078 = AXIS2_PLACEMENT_3D('',#1079,#1080,#1081);
#1079 = CARTESIAN_POINT('',(-13.43502884254,75.4,-13.43502884254));
#1080 = DIRECTION('',(0.,1.,0.));
#1081 = DIRECTION('',(0.,-0.,1.));
#1082 = ADVANCED_FACE('',(#1083),#1094,.F.);
#1083 = FACE_BOUND('',#1084,.F.);
#1084 = EDGE_LOOP('',(#1085,#1091,#1092,#1093));
#1085 = ORIENTED_EDGE('',*,*,#1086,.T.);
#1086 = EDGE_CURVE('',#963,#889,#1087,.T.);
#1087 = LINE('',#1088,#1089);
#1088 = CARTESIAN_POINT('',(-13.43502884254,75.4,15.835028842544));
#1089 = VECTOR('',#1090,1.);
#1090 = DIRECTION('',(0.,1.,0.));
#1091 = ORIENTED_EDGE('',*,*,#888,.F.);
#1092 = ORIENTED_EDGE('',*,*,#1086,.F.);
#1093 = ORIENTED_EDGE('',*,*,#962,.T.);
#1094 = CYLINDRICAL_SURFACE('',#1095,2.4);
#1095 = AXIS2_PLACEMENT_3D('',#1096,#1097,#1098);
#1096 = CARTESIAN_POINT('',(-13.43502884254,75.4,13.435028842544));
#1097 = DIRECTION('',(0.,1.,0.));
#1098 = DIRECTION('',(0.,-0.,1.));
#1099 = ADVANCED_FACE('',(#1100),#1111,.F.);
#1100 = FACE_BOUND('',#1101,.F.);
#1101 = EDGE_LOOP('',(#1102,#1108,#1109,#1110));
#1102 = ORIENTED_EDGE('',*,*,#1103,.T.);
#1103 = EDGE_CURVE('',#974,#909,#1104,.T.);
#1104 = LINE('',#1105,#1106);
#1105 = CARTESIAN_POINT('',(13.435028842544,75.4,-11.03502884254));
#1106 = VECTOR('',#1107,1.);
#1107 = DIRECTION('',(0.,1.,0.));
#1108 = ORIENTED_EDGE('',*,*,#908,.F.);
#1109 = ORIENTED_EDGE('',*,*,#1103,.F.);
#1110 = ORIENTED_EDGE('',*,*,#973,.T.);
#1111 = CYLINDRICAL_SURFACE('',#1112,2.4);
#1112 = AXIS2_PLACEMENT_3D('',#1113,#1114,#1115);
#1113 = CARTESIAN_POINT('',(13.435028842544,75.4,-13.43502884254));
#1114 = DIRECTION('',(0.,1.,0.));
#1115 = DIRECTION('',(0.,-0.,1.));
#1116 = ADVANCED_FACE('',(#1117),#1128,.F.);
#1117 = FACE_BOUND('',#1118,.F.);
#1118 = EDGE_LOOP('',(#1119,#1125,#1126,#1127));
#1119 = ORIENTED_EDGE('',*,*,#1120,.T.);
#1120 = EDGE_CURVE('',#985,#929,#1121,.T.);
#1121 = LINE('',#1122,#1123);
#1122 = CARTESIAN_POINT('',(13.435028842544,75.4,15.835028842544));
#1123 = VECTOR('',#1124,1.);
#1124 = DIRECTION('',(0.,1.,0.));
#1125 = ORIENTED_EDGE('',*,*,#928,.F.);
#1126 = ORIENTED_EDGE('',*,*,#1120,.F.);
#1127 = ORIENTED_EDGE('',*,*,#984,.T.);
#1128 = CYLINDRICAL_SURFACE('',#1129,2.4);
#1129 = AXIS2_PLACEMENT_3D('',#1130,#1131,#1132);
#1130 = CARTESIAN_POINT('',(13.435028842544,75.4,13.435028842544));
#1131 = DIRECTION('',(0.,1.,0.));
#1132 = DIRECTION('',(0.,-0.,1.));
#1133 = ( GEOMETRIC_REPRESENTATION_CONTEXT(3) 
GLOBAL_UNCERTAINTY_ASSIGNED_CONTEXT((#1137)) 
GLOBAL_UNIT_ASSIGNED_CONTEXT((#1134,#1135,#1136)) REPRESENTATION_CONTEXT
('Context #1','3D Context with UNIT and UNCERTAINTY') );
#1134 = ( LENGTH_UNIT() NAMED_UNIT(*) SI_UNIT(.MILLI.,.METRE.) );
#1135 = ( NAMED_UNIT(*) PLANE_ANGLE_UNIT() SI_UNIT($,.RADIAN.) );
#1136 = ( NAMED_UNIT(*) SI_UNIT($,.STERADIAN.) SOLID_ANGLE_UNIT() );
#1137 = UNCERTAINTY_MEASURE_WITH_UNIT(LENGTH_MEASURE(1.E-07),#1134,
  'distance_accuracy_value','confusion accuracy');
#1138 = PRODUCT_RELATED_PRODUCT_CATEGORY('part',$,(#7));
ENDSEC;
END-ISO-10303-21;
