ISO-10303-21;
HEADER;
FILE_DESCRIPTION(('FreeCAD Model'),'2;1');
FILE_NAME('Open CASCADE Shape Model','2026-09-22T12:05:13',('FreeCAD'),(
    'FreeCAD'),'Open CASCADE STEP processor 7.8','FreeCAD','Unknown');
FILE_SCHEMA(('AUTOMOTIVE_DESIGN { 1 0 10303 214 1 1 1 1 }'));
ENDSEC;
DATA;
#1 = APPLICATION_PROTOCOL_DEFINITION('international standard',
  'automotive_design',2000,#2);
#2 = APPLICATION_CONTEXT(
  'core data for automotive mechanical design processes');
#3 = SHAPE_DEFINITION_REPRESENTATION(#4,#10);
#4 = PRODUCT_DEFINITION_SHAPE('','',#5);
#5 = PRODUCT_DEFINITION('design','',#6,#9);
#6 = PRODUCT_DEFINITION_FORMATION('','',#7);
#7 = PRODUCT('Open CASCADE STEP translator 7.8 24',
  'Open CASCADE STEP translator 7.8 24','',(#8));
#8 = PRODUCT_CONTEXT('',#2,'mechanical');
#9 = PRODUCT_DEFINITION_CONTEXT('part definition',#2,'design');
#10 = ADVANCED_BREP_SHAPE_REPRESENTATION('',(#11,#15),#1815);
#11 = AXIS2_PLACEMENT_3D('',#12,#13,#14);
#12 = CARTESIAN_POINT('',(0.,0.,0.));
#13 = DIRECTION('',(0.,0.,1.));
#14 = DIRECTION('',(1.,0.,-0.));
#15 = MANIFOLD_SOLID_BREP('',#16);
#16 = CLOSED_SHELL('',(#17,#64,#372,#409,#745,#765,#785,#805,#817,#842,
    #867,#892,#914,#931,#948,#965,#982,#994,#1016,#1033,#1050,#1067,
    #1084,#1096,#1121,#1138,#1163,#1188,#1210,#1227,#1244,#1261,#1278,
    #1290,#1315,#1340,#1365,#1390,#1407,#1424,#1441,#1458,#1475,#1492,
    #1517,#1542,#1562,#1582,#1602,#1622,#1642,#1662,#1679,#1704,#1729,
    #1754,#1779,#1788,#1797,#1806));
#17 = ADVANCED_FACE('',(#18),#56,.F.);
#18 = FACE_BOUND('',#19,.F.);
#19 = EDGE_LOOP('',(#20,#31,#39,#48));
#20 = ORIENTED_EDGE('',*,*,#21,.F.);
#21 = EDGE_CURVE('',#22,#24,#26,.T.);
#22 = VERTEX_POINT('',#23);
#23 = CARTESIAN_POINT('',(18.,-132.1,-55.));
#24 = VERTEX_POINT('',#25);
#25 = CARTESIAN_POINT('',(18.43419168727,-132.1,-47.01521643933));
#26 = B_SPLINE_CURVE_WITH_KNOTS('',3,(#27,#28,#29,#30),.UNSPECIFIED.,.F.
  ,.F.,(4,4),(0.,1.),.PIECEWISE_BEZIER_KNOTS.);
#27 = CARTESIAN_POINT('',(18.,-132.1,-55.));
#28 = CARTESIAN_POINT('',(18.,-132.1,-42.));
#29 = CARTESIAN_POINT('',(20.5,-132.1,-36.06854249492));
#30 = CARTESIAN_POINT('',(28.284271247462,-132.1,-28.28427124746));
#31 = ORIENTED_EDGE('',*,*,#32,.T.);
#32 = EDGE_CURVE('',#22,#33,#35,.T.);
#33 = VERTEX_POINT('',#34);
#34 = CARTESIAN_POINT('',(18.,-135.1,-55.));
#35 = LINE('',#36,#37);
#36 = CARTESIAN_POINT('',(18.,-132.1,-55.));
#37 = VECTOR('',#38,1.);
#38 = DIRECTION('',(-0.,-1.,-0.));
#39 = ORIENTED_EDGE('',*,*,#40,.T.);
#40 = EDGE_CURVE('',#33,#41,#43,.T.);
#41 = VERTEX_POINT('',#42);
#42 = CARTESIAN_POINT('',(18.43419168727,-135.1,-47.01521643933));
#43 = B_SPLINE_CURVE_WITH_KNOTS('',3,(#44,#45,#46,#47),.UNSPECIFIED.,.F.
  ,.F.,(4,4),(0.,1.),.PIECEWISE_BEZIER_KNOTS.);
#44 = CARTESIAN_POINT('',(18.,-135.1,-55.));
#45 = CARTESIAN_POINT('',(18.,-135.1,-42.));
#46 = CARTESIAN_POINT('',(20.5,-135.1,-36.06854249492));
#47 = CARTESIAN_POINT('',(28.284271247462,-135.1,-28.28427124746));
#48 = ORIENTED_EDGE('',*,*,#49,.T.);
#49 = EDGE_CURVE('',#41,#24,#50,.T.);
#50 = B_SPLINE_CURVE_WITH_KNOTS('',4,(#51,#52,#53,#54,#55),
  .UNSPECIFIED.,.F.,.F.,(5,5),(0.,1.),.PIECEWISE_BEZIER_KNOTS.);
#51 = CARTESIAN_POINT('',(18.434191687271,-135.1000006,-47.01521643932)
  );
#52 = CARTESIAN_POINT('',(18.434191687271,-134.3500003,-47.01521643932)
  );
#53 = CARTESIAN_POINT('',(18.434191687271,-133.6,-47.01521643932));
#54 = CARTESIAN_POINT('',(18.434191687271,-132.8499997,-47.01521643932)
  );
#55 = CARTESIAN_POINT('',(18.434191687271,-132.0999994,-47.01521643932)
  );
#56 = SURFACE_OF_LINEAR_EXTRUSION('',#57,#62);
#57 = B_SPLINE_CURVE_WITH_KNOTS('',3,(#58,#59,#60,#61),.UNSPECIFIED.,.F.
  ,.F.,(4,4),(0.,1.),.PIECEWISE_BEZIER_KNOTS.);
#58 = CARTESIAN_POINT('',(18.,-132.1,-55.));
#59 = CARTESIAN_POINT('',(18.,-132.1,-42.));
#60 = CARTESIAN_POINT('',(20.5,-132.1,-36.06854249492));
#61 = CARTESIAN_POINT('',(28.284271247462,-132.1,-28.28427124746));
#62 = VECTOR('',#63,1.);
#63 = DIRECTION('',(-0.,1.,-0.));
#64 = ADVANCED_FACE('',(#65,#120,#131,#142,#153,#206,#259,#270,#281,#292
    ,#303,#356),#367,.T.);
#65 = FACE_BOUND('',#66,.F.);
#66 = EDGE_LOOP('',(#67,#78,#87,#96,#105,#112,#113));
#67 = ORIENTED_EDGE('',*,*,#68,.F.);
#68 = EDGE_CURVE('',#69,#71,#73,.T.);
#69 = VERTEX_POINT('',#70);
#70 = CARTESIAN_POINT('',(-18.43419168727,-132.1,-47.01521643933));
#71 = VERTEX_POINT('',#72);
#72 = CARTESIAN_POINT('',(-1.236893267139E-14,-132.1,50.5));
#73 = CIRCLE('',#74,50.5);
#74 = AXIS2_PLACEMENT_3D('',#75,#76,#77);
#75 = CARTESIAN_POINT('',(0.,-132.1,0.));
#76 = DIRECTION('',(0.,1.,0.));
#77 = DIRECTION('',(-0.,-0.,1.));
#78 = ORIENTED_EDGE('',*,*,#79,.T.);
#79 = EDGE_CURVE('',#69,#80,#82,.T.);
#80 = VERTEX_POINT('',#81);
#81 = CARTESIAN_POINT('',(-18.,-132.1,-55.));
#82 = B_SPLINE_CURVE_WITH_KNOTS('',3,(#83,#84,#85,#86),.UNSPECIFIED.,.F.
  ,.F.,(4,4),(0.,1.),.PIECEWISE_BEZIER_KNOTS.);
#83 = CARTESIAN_POINT('',(-28.28427124746,-132.1,-28.28427124746));
#84 = CARTESIAN_POINT('',(-20.5,-132.1,-36.06854249492));
#85 = CARTESIAN_POINT('',(-18.,-132.1,-42.));
#86 = CARTESIAN_POINT('',(-18.,-132.1,-55.));
#87 = ORIENTED_EDGE('',*,*,#88,.T.);
#88 = EDGE_CURVE('',#80,#89,#91,.T.);
#89 = VERTEX_POINT('',#90);
#90 = CARTESIAN_POINT('',(-17.,-132.1,-130.));
#91 = B_SPLINE_CURVE_WITH_KNOTS('',3,(#92,#93,#94,#95),.UNSPECIFIED.,.F.
  ,.F.,(4,4),(0.,1.),.PIECEWISE_BEZIER_KNOTS.);
#92 = CARTESIAN_POINT('',(-18.,-132.1,-55.));
#93 = CARTESIAN_POINT('',(-18.,-132.1,-78.));
#94 = CARTESIAN_POINT('',(-17.,-132.1,-104.));
#95 = CARTESIAN_POINT('',(-17.,-132.1,-130.));
#96 = ORIENTED_EDGE('',*,*,#97,.T.);
#97 = EDGE_CURVE('',#89,#98,#100,.T.);
#98 = VERTEX_POINT('',#99);
#99 = CARTESIAN_POINT('',(17.,-132.1,-130.));
#100 = CIRCLE('',#101,17.);
#101 = AXIS2_PLACEMENT_3D('',#102,#103,#104);
#102 = CARTESIAN_POINT('',(0.,-132.1,-130.));
#103 = DIRECTION('',(0.,-1.,-0.));
#104 = DIRECTION('',(-1.,-0.,-0.));
#105 = ORIENTED_EDGE('',*,*,#106,.T.);
#106 = EDGE_CURVE('',#98,#22,#107,.T.);
#107 = B_SPLINE_CURVE_WITH_KNOTS('',3,(#108,#109,#110,#111),
  .UNSPECIFIED.,.F.,.F.,(4,4),(0.,1.),.PIECEWISE_BEZIER_KNOTS.);
#108 = CARTESIAN_POINT('',(17.,-132.1,-130.));
#109 = CARTESIAN_POINT('',(17.,-132.1,-104.));
#110 = CARTESIAN_POINT('',(18.,-132.1,-78.));
#111 = CARTESIAN_POINT('',(18.,-132.1,-55.));
#112 = ORIENTED_EDGE('',*,*,#21,.T.);
#113 = ORIENTED_EDGE('',*,*,#114,.F.);
#114 = EDGE_CURVE('',#71,#24,#115,.T.);
#115 = CIRCLE('',#116,50.5);
#116 = AXIS2_PLACEMENT_3D('',#117,#118,#119);
#117 = CARTESIAN_POINT('',(0.,-132.1,0.));
#118 = DIRECTION('',(0.,1.,0.));
#119 = DIRECTION('',(-0.,-0.,1.));
#120 = FACE_BOUND('',#121,.F.);
#121 = EDGE_LOOP('',(#122));
#122 = ORIENTED_EDGE('',*,*,#123,.T.);
#123 = EDGE_CURVE('',#124,#124,#126,.T.);
#124 = VERTEX_POINT('',#125);
#125 = CARTESIAN_POINT('',(-21.65063509461,-132.1,14.2));
#126 = CIRCLE('',#127,1.7);
#127 = AXIS2_PLACEMENT_3D('',#128,#129,#130);
#128 = CARTESIAN_POINT('',(-21.65063509461,-132.1,12.5));
#129 = DIRECTION('',(0.,1.,0.));
#130 = DIRECTION('',(-0.,-0.,1.));
#131 = FACE_BOUND('',#132,.F.);
#132 = EDGE_LOOP('',(#133));
#133 = ORIENTED_EDGE('',*,*,#134,.T.);
#134 = EDGE_CURVE('',#135,#135,#137,.T.);
#135 = VERTEX_POINT('',#136);
#136 = CARTESIAN_POINT('',(-21.65063509461,-132.1,-10.8));
#137 = CIRCLE('',#138,1.7);
#138 = AXIS2_PLACEMENT_3D('',#139,#140,#141);
#139 = CARTESIAN_POINT('',(-21.65063509461,-132.1,-12.5));
#140 = DIRECTION('',(0.,1.,0.));
#141 = DIRECTION('',(-0.,-0.,1.));
#142 = FACE_BOUND('',#143,.F.);
#143 = EDGE_LOOP('',(#144));
#144 = ORIENTED_EDGE('',*,*,#145,.T.);
#145 = EDGE_CURVE('',#146,#146,#148,.T.);
#146 = VERTEX_POINT('',#147);
#147 = CARTESIAN_POINT('',(-5.008805408513E-15,-132.1,-23.3));
#148 = CIRCLE('',#149,1.7);
#149 = AXIS2_PLACEMENT_3D('',#150,#151,#152);
#150 = CARTESIAN_POINT('',(-4.592425496803E-15,-132.1,-25.));
#151 = DIRECTION('',(0.,1.,0.));
#152 = DIRECTION('',(-0.,-0.,1.));
#153 = FACE_BOUND('',#154,.F.);
#154 = EDGE_LOOP('',(#155,#166,#174,#183,#191,#200));
#155 = ORIENTED_EDGE('',*,*,#156,.F.);
#156 = EDGE_CURVE('',#157,#159,#161,.T.);
#157 = VERTEX_POINT('',#158);
#158 = CARTESIAN_POINT('',(-8.,-132.1,-42.));
#159 = VERTEX_POINT('',#160);
#160 = CARTESIAN_POINT('',(-10.,-132.1,-44.));
#161 = CIRCLE('',#162,2.);
#162 = AXIS2_PLACEMENT_3D('',#163,#164,#165);
#163 = CARTESIAN_POINT('',(-8.,-132.1,-44.));
#164 = DIRECTION('',(0.,-1.,0.));
#165 = DIRECTION('',(-1.,-0.,3.5527136788E-15));
#166 = ORIENTED_EDGE('',*,*,#167,.T.);
#167 = EDGE_CURVE('',#157,#168,#170,.T.);
#168 = VERTEX_POINT('',#169);
#169 = CARTESIAN_POINT('',(3.253273710192,-132.1,-42.));
#170 = LINE('',#171,#172);
#171 = CARTESIAN_POINT('',(-4.,-132.1,-42.));
#172 = VECTOR('',#173,1.);
#173 = DIRECTION('',(1.,-0.,-0.));
#174 = ORIENTED_EDGE('',*,*,#175,.F.);
#175 = EDGE_CURVE('',#176,#168,#178,.T.);
#176 = VERTEX_POINT('',#177);
#177 = CARTESIAN_POINT('',(4.343250411383,-132.1,-45.6768872326));
#178 = CIRCLE('',#179,2.);
#179 = AXIS2_PLACEMENT_3D('',#180,#181,#182);
#180 = CARTESIAN_POINT('',(3.253273710192,-132.1,-44.));
#181 = DIRECTION('',(0.,-1.,-0.));
#182 = DIRECTION('',(1.33226762955E-15,-0.,1.));
#183 = ORIENTED_EDGE('',*,*,#184,.T.);
#184 = EDGE_CURVE('',#176,#185,#187,.T.);
#185 = VERTEX_POINT('',#186);
#186 = CARTESIAN_POINT('',(-6.910023298809,-132.1,-52.99151514422));
#187 = LINE('',#188,#189);
#188 = CARTESIAN_POINT('',(3.792034804768,-132.1,-46.0351773769));
#189 = VECTOR('',#190,1.);
#190 = DIRECTION('',(-0.838443616301,-0.,-0.544988350595));
#191 = ORIENTED_EDGE('',*,*,#192,.F.);
#192 = EDGE_CURVE('',#193,#185,#195,.T.);
#193 = VERTEX_POINT('',#194);
#194 = CARTESIAN_POINT('',(-10.,-132.1,-51.31462791162));
#195 = CIRCLE('',#196,2.);
#196 = AXIS2_PLACEMENT_3D('',#197,#198,#199);
#197 = CARTESIAN_POINT('',(-8.,-132.1,-51.31462791162));
#198 = DIRECTION('',(-0.,-1.,0.));
#199 = DIRECTION('',(0.544988350595,-0.,-0.838443616301));
#200 = ORIENTED_EDGE('',*,*,#201,.T.);
#201 = EDGE_CURVE('',#193,#159,#202,.T.);
#202 = LINE('',#203,#204);
#203 = CARTESIAN_POINT('',(-10.,-132.1,-46.36110987167));
#204 = VECTOR('',#205,1.);
#205 = DIRECTION('',(-0.,-0.,1.));
#206 = FACE_BOUND('',#207,.F.);
#207 = EDGE_LOOP('',(#208,#219,#227,#236,#244,#253));
#208 = ORIENTED_EDGE('',*,*,#209,.F.);
#209 = EDGE_CURVE('',#210,#212,#214,.T.);
#210 = VERTEX_POINT('',#211);
#211 = CARTESIAN_POINT('',(-8.,-132.1,-101.5));
#212 = VERTEX_POINT('',#213);
#213 = CARTESIAN_POINT('',(-10.,-132.1,-103.5));
#214 = CIRCLE('',#215,2.);
#215 = AXIS2_PLACEMENT_3D('',#216,#217,#218);
#216 = CARTESIAN_POINT('',(-8.,-132.1,-103.5));
#217 = DIRECTION('',(0.,-1.,0.));
#218 = DIRECTION('',(-1.,-0.,-0.));
#219 = ORIENTED_EDGE('',*,*,#220,.T.);
#220 = EDGE_CURVE('',#210,#221,#223,.T.);
#221 = VERTEX_POINT('',#222);
#222 = CARTESIAN_POINT('',(2.779365403436,-132.1,-101.5));
#223 = LINE('',#224,#225);
#224 = CARTESIAN_POINT('',(-4.,-132.1,-101.5));
#225 = VECTOR('',#226,1.);
#226 = DIRECTION('',(1.,-0.,-0.));
#227 = ORIENTED_EDGE('',*,*,#228,.F.);
#228 = EDGE_CURVE('',#229,#221,#231,.T.);
#229 = VERTEX_POINT('',#230);
#230 = CARTESIAN_POINT('',(3.808356914292,-132.1,-105.2149858514));
#231 = CIRCLE('',#232,2.);
#232 = AXIS2_PLACEMENT_3D('',#233,#234,#235);
#233 = CARTESIAN_POINT('',(2.779365403436,-132.1,-103.5));
#234 = DIRECTION('',(0.,-1.,0.));
#235 = DIRECTION('',(-2.886579864025E-15,-0.,1.));
#236 = ORIENTED_EDGE('',*,*,#237,.T.);
#237 = EDGE_CURVE('',#229,#238,#240,.T.);
#238 = VERTEX_POINT('',#239);
#239 = CARTESIAN_POINT('',(-6.971008489145,-132.1,-111.6826050934));
#240 = LINE('',#241,#242);
#241 = CARTESIAN_POINT('',(16.483386141322,-132.1,-97.6099683152));
#242 = VECTOR('',#243,1.);
#243 = DIRECTION('',(-0.857492925713,-0.,-0.514495755428));
#244 = ORIENTED_EDGE('',*,*,#245,.F.);
#245 = EDGE_CURVE('',#246,#238,#248,.T.);
#246 = VERTEX_POINT('',#247);
#247 = CARTESIAN_POINT('',(-10.,-132.1,-109.967619242));
#248 = CIRCLE('',#249,2.);
#249 = AXIS2_PLACEMENT_3D('',#250,#251,#252);
#250 = CARTESIAN_POINT('',(-8.,-132.1,-109.967619242));
#251 = DIRECTION('',(-0.,-1.,0.));
#252 = DIRECTION('',(0.514495755428,-0.,-0.857492925713));
#253 = ORIENTED_EDGE('',*,*,#254,.T.);
#254 = EDGE_CURVE('',#246,#212,#255,.T.);
#255 = LINE('',#256,#257);
#256 = CARTESIAN_POINT('',(-10.,-132.1,-75.68760553689));
#257 = VECTOR('',#258,1.);
#258 = DIRECTION('',(-0.,-0.,1.));
#259 = FACE_BOUND('',#260,.F.);
#260 = EDGE_LOOP('',(#261));
#261 = ORIENTED_EDGE('',*,*,#262,.T.);
#262 = EDGE_CURVE('',#263,#263,#265,.T.);
#263 = VERTEX_POINT('',#264);
#264 = CARTESIAN_POINT('',(1.114428587224E-15,-132.1,26.7));
#265 = CIRCLE('',#266,1.7);
#266 = AXIS2_PLACEMENT_3D('',#267,#268,#269);
#267 = CARTESIAN_POINT('',(1.530808498934E-15,-132.1,25.));
#268 = DIRECTION('',(0.,1.,0.));
#269 = DIRECTION('',(-0.,-0.,1.));
#270 = FACE_BOUND('',#271,.F.);
#271 = EDGE_LOOP('',(#272));
#272 = ORIENTED_EDGE('',*,*,#273,.T.);
#273 = EDGE_CURVE('',#274,#274,#276,.T.);
#274 = VERTEX_POINT('',#275);
#275 = CARTESIAN_POINT('',(-4.947573068555E-15,-132.1,20.2));
#276 = CIRCLE('',#277,20.2);
#277 = AXIS2_PLACEMENT_3D('',#278,#279,#280);
#278 = CARTESIAN_POINT('',(0.,-132.1,0.));
#279 = DIRECTION('',(0.,1.,0.));
#280 = DIRECTION('',(-0.,-0.,1.));
#281 = FACE_BOUND('',#282,.F.);
#282 = EDGE_LOOP('',(#283));
#283 = ORIENTED_EDGE('',*,*,#284,.T.);
#284 = EDGE_CURVE('',#285,#285,#287,.T.);
#285 = VERTEX_POINT('',#286);
#286 = CARTESIAN_POINT('',(21.650635094611,-132.1,14.2));
#287 = CIRCLE('',#288,1.7);
#288 = AXIS2_PLACEMENT_3D('',#289,#290,#291);
#289 = CARTESIAN_POINT('',(21.650635094611,-132.1,12.5));
#290 = DIRECTION('',(0.,1.,0.));
#291 = DIRECTION('',(-0.,-0.,1.));
#292 = FACE_BOUND('',#293,.F.);
#293 = EDGE_LOOP('',(#294));
#294 = ORIENTED_EDGE('',*,*,#295,.T.);
#295 = EDGE_CURVE('',#296,#296,#298,.T.);
#296 = VERTEX_POINT('',#297);
#297 = CARTESIAN_POINT('',(21.650635094611,-132.1,-10.8));
#298 = CIRCLE('',#299,1.7);
#299 = AXIS2_PLACEMENT_3D('',#300,#301,#302);
#300 = CARTESIAN_POINT('',(21.650635094611,-132.1,-12.5));
#301 = DIRECTION('',(0.,1.,0.));
#302 = DIRECTION('',(-0.,-0.,1.));
#303 = FACE_BOUND('',#304,.F.);
#304 = EDGE_LOOP('',(#305,#316,#324,#333,#341,#350));
#305 = ORIENTED_EDGE('',*,*,#306,.F.);
#306 = EDGE_CURVE('',#307,#309,#311,.T.);
#307 = VERTEX_POINT('',#308);
#308 = CARTESIAN_POINT('',(10.,-132.1,-73.84131112314));
#309 = VERTEX_POINT('',#310);
#310 = CARTESIAN_POINT('',(6.853075311273,-132.1,-72.2028472821));
#311 = CIRCLE('',#312,2.);
#312 = AXIS2_PLACEMENT_3D('',#313,#314,#315);
#313 = CARTESIAN_POINT('',(8.,-132.1,-73.84131112314));
#314 = DIRECTION('',(0.,-1.,0.));
#315 = DIRECTION('',(-0.573462344363,-0.,0.819231920519));
#316 = ORIENTED_EDGE('',*,*,#317,.T.);
#317 = EDGE_CURVE('',#307,#318,#320,.T.);
#318 = VERTEX_POINT('',#319);
#319 = CARTESIAN_POINT('',(10.,-132.1,-82.));
#320 = LINE('',#321,#322);
#321 = CARTESIAN_POINT('',(10.,-132.1,-57.62445147744));
#322 = VECTOR('',#323,1.);
#323 = DIRECTION('',(-0.,-0.,-1.));
#324 = ORIENTED_EDGE('',*,*,#325,.F.);
#325 = EDGE_CURVE('',#326,#318,#328,.T.);
#326 = VERTEX_POINT('',#327);
#327 = CARTESIAN_POINT('',(8.,-132.1,-84.));
#328 = CIRCLE('',#329,2.);
#329 = AXIS2_PLACEMENT_3D('',#330,#331,#332);
#330 = CARTESIAN_POINT('',(8.,-132.1,-82.));
#331 = DIRECTION('',(-0.,-1.,-0.));
#332 = DIRECTION('',(1.,-0.,-0.));
#333 = ORIENTED_EDGE('',*,*,#334,.T.);
#334 = EDGE_CURVE('',#326,#335,#337,.T.);
#335 = VERTEX_POINT('',#336);
#336 = CARTESIAN_POINT('',(-3.655269824076,-132.1,-84.));
#337 = LINE('',#338,#339);
#338 = CARTESIAN_POINT('',(4.,-132.1,-84.));
#339 = VECTOR('',#340,1.);
#340 = DIRECTION('',(-1.,-0.,-0.));
#341 = ORIENTED_EDGE('',*,*,#342,.F.);
#342 = EDGE_CURVE('',#343,#335,#345,.T.);
#343 = VERTEX_POINT('',#344);
#344 = CARTESIAN_POINT('',(-4.802194512803,-132.1,-80.36153615896));
#345 = CIRCLE('',#346,2.);
#346 = AXIS2_PLACEMENT_3D('',#347,#348,#349);
#347 = CARTESIAN_POINT('',(-3.655269824076,-132.1,-82.));
#348 = DIRECTION('',(0.,-1.,0.));
#349 = DIRECTION('',(-1.7763568394E-15,-0.,-1.));
#350 = ORIENTED_EDGE('',*,*,#351,.T.);
#351 = EDGE_CURVE('',#343,#309,#352,.T.);
#352 = LINE('',#353,#354);
#353 = CARTESIAN_POINT('',(5.959535534802,-132.1,-72.82832512563));
#354 = VECTOR('',#355,1.);
#355 = DIRECTION('',(0.819231920519,-0.,0.573462344363));
#356 = FACE_BOUND('',#357,.F.);
#357 = EDGE_LOOP('',(#358));
#358 = ORIENTED_EDGE('',*,*,#359,.T.);
#359 = EDGE_CURVE('',#360,#360,#362,.T.);
#360 = VERTEX_POINT('',#361);
#361 = CARTESIAN_POINT('',(-1.126675055216E-15,-132.1,-125.4));
#362 = CIRCLE('',#363,4.6);
#363 = AXIS2_PLACEMENT_3D('',#364,#365,#366);
#364 = CARTESIAN_POINT('',(0.,-132.1,-130.));
#365 = DIRECTION('',(0.,1.,0.));
#366 = DIRECTION('',(-0.,-0.,1.));
#367 = PLANE('',#368);
#368 = AXIS2_PLACEMENT_3D('',#369,#370,#371);
#369 = CARTESIAN_POINT('',(4.671192867417E-16,-132.1,-41.40759183173));
#370 = DIRECTION('',(-0.,1.,-0.));
#371 = DIRECTION('',(0.,0.,1.));
#372 = ADVANCED_FACE('',(#373),#404,.T.);
#373 = FACE_BOUND('',#374,.F.);
#374 = EDGE_LOOP('',(#375,#376,#377,#386,#395,#403));
#375 = ORIENTED_EDGE('',*,*,#114,.T.);
#376 = ORIENTED_EDGE('',*,*,#49,.F.);
#377 = ORIENTED_EDGE('',*,*,#378,.F.);
#378 = EDGE_CURVE('',#379,#41,#381,.T.);
#379 = VERTEX_POINT('',#380);
#380 = CARTESIAN_POINT('',(-1.236893267139E-14,-135.1,50.5));
#381 = CIRCLE('',#382,50.5);
#382 = AXIS2_PLACEMENT_3D('',#383,#384,#385);
#383 = CARTESIAN_POINT('',(0.,-135.1,0.));
#384 = DIRECTION('',(0.,1.,0.));
#385 = DIRECTION('',(-0.,-0.,1.));
#386 = ORIENTED_EDGE('',*,*,#387,.F.);
#387 = EDGE_CURVE('',#388,#379,#390,.T.);
#388 = VERTEX_POINT('',#389);
#389 = CARTESIAN_POINT('',(-18.43419168727,-135.1,-47.01521643933));
#390 = CIRCLE('',#391,50.5);
#391 = AXIS2_PLACEMENT_3D('',#392,#393,#394);
#392 = CARTESIAN_POINT('',(0.,-135.1,0.));
#393 = DIRECTION('',(0.,1.,0.));
#394 = DIRECTION('',(-0.,-0.,1.));
#395 = ORIENTED_EDGE('',*,*,#396,.T.);
#396 = EDGE_CURVE('',#388,#69,#397,.T.);
#397 = B_SPLINE_CURVE_WITH_KNOTS('',4,(#398,#399,#400,#401,#402),
  .UNSPECIFIED.,.F.,.F.,(5,5),(0.,1.),.PIECEWISE_BEZIER_KNOTS.);
#398 = CARTESIAN_POINT('',(-18.43419168727,-135.1000006,-47.01521643932)
  );
#399 = CARTESIAN_POINT('',(-18.43419168727,-134.3500003,-47.01521643932)
  );
#400 = CARTESIAN_POINT('',(-18.43419168727,-133.6,-47.01521643932));
#401 = CARTESIAN_POINT('',(-18.43419168727,-132.8499997,-47.01521643932)
  );
#402 = CARTESIAN_POINT('',(-18.43419168727,-132.0999994,-47.01521643932)
  );
#403 = ORIENTED_EDGE('',*,*,#68,.T.);
#404 = CYLINDRICAL_SURFACE('',#405,50.5);
#405 = AXIS2_PLACEMENT_3D('',#406,#407,#408);
#406 = CARTESIAN_POINT('',(0.,-132.1,0.));
#407 = DIRECTION('',(-0.,-1.,-0.));
#408 = DIRECTION('',(-0.,-0.,1.));
#409 = ADVANCED_FACE('',(#410,#449,#502,#513,#524,#577,#588,#599,#610,
    #663,#674,#685,#696,#707,#718,#729),#740,.T.);
#410 = FACE_BOUND('',#411,.F.);
#411 = EDGE_LOOP('',(#412,#413,#414,#415,#424,#433,#442));
#412 = ORIENTED_EDGE('',*,*,#387,.T.);
#413 = ORIENTED_EDGE('',*,*,#378,.T.);
#414 = ORIENTED_EDGE('',*,*,#40,.F.);
#415 = ORIENTED_EDGE('',*,*,#416,.F.);
#416 = EDGE_CURVE('',#417,#33,#419,.T.);
#417 = VERTEX_POINT('',#418);
#418 = CARTESIAN_POINT('',(17.,-135.1,-130.));
#419 = B_SPLINE_CURVE_WITH_KNOTS('',3,(#420,#421,#422,#423),
  .UNSPECIFIED.,.F.,.F.,(4,4),(0.,1.),.PIECEWISE_BEZIER_KNOTS.);
#420 = CARTESIAN_POINT('',(17.,-135.1,-130.));
#421 = CARTESIAN_POINT('',(17.,-135.1,-104.));
#422 = CARTESIAN_POINT('',(18.,-135.1,-78.));
#423 = CARTESIAN_POINT('',(18.,-135.1,-55.));
#424 = ORIENTED_EDGE('',*,*,#425,.F.);
#425 = EDGE_CURVE('',#426,#417,#428,.T.);
#426 = VERTEX_POINT('',#427);
#427 = CARTESIAN_POINT('',(-17.,-135.1,-130.));
#428 = CIRCLE('',#429,17.);
#429 = AXIS2_PLACEMENT_3D('',#430,#431,#432);
#430 = CARTESIAN_POINT('',(0.,-135.1,-130.));
#431 = DIRECTION('',(0.,-1.,-0.));
#432 = DIRECTION('',(-1.,-0.,-0.));
#433 = ORIENTED_EDGE('',*,*,#434,.F.);
#434 = EDGE_CURVE('',#435,#426,#437,.T.);
#435 = VERTEX_POINT('',#436);
#436 = CARTESIAN_POINT('',(-18.,-135.1,-55.));
#437 = B_SPLINE_CURVE_WITH_KNOTS('',3,(#438,#439,#440,#441),
  .UNSPECIFIED.,.F.,.F.,(4,4),(0.,1.),.PIECEWISE_BEZIER_KNOTS.);
#438 = CARTESIAN_POINT('',(-18.,-135.1,-55.));
#439 = CARTESIAN_POINT('',(-18.,-135.1,-78.));
#440 = CARTESIAN_POINT('',(-17.,-135.1,-104.));
#441 = CARTESIAN_POINT('',(-17.,-135.1,-130.));
#442 = ORIENTED_EDGE('',*,*,#443,.F.);
#443 = EDGE_CURVE('',#388,#435,#444,.T.);
#444 = B_SPLINE_CURVE_WITH_KNOTS('',3,(#445,#446,#447,#448),
  .UNSPECIFIED.,.F.,.F.,(4,4),(0.,1.),.PIECEWISE_BEZIER_KNOTS.);
#445 = CARTESIAN_POINT('',(-28.28427124746,-135.1,-28.28427124746));
#446 = CARTESIAN_POINT('',(-20.5,-135.1,-36.06854249492));
#447 = CARTESIAN_POINT('',(-18.,-135.1,-42.));
#448 = CARTESIAN_POINT('',(-18.,-135.1,-55.));
#449 = FACE_BOUND('',#450,.F.);
#450 = EDGE_LOOP('',(#451,#461,#470,#478,#487,#495));
#451 = ORIENTED_EDGE('',*,*,#452,.T.);
#452 = EDGE_CURVE('',#453,#455,#457,.T.);
#453 = VERTEX_POINT('',#454);
#454 = CARTESIAN_POINT('',(2.779365403436,-135.1,-101.5));
#455 = VERTEX_POINT('',#456);
#456 = CARTESIAN_POINT('',(-8.,-135.1,-101.5));
#457 = LINE('',#458,#459);
#458 = CARTESIAN_POINT('',(-4.,-135.1,-101.5));
#459 = VECTOR('',#460,1.);
#460 = DIRECTION('',(-1.,-0.,-0.));
#461 = ORIENTED_EDGE('',*,*,#462,.T.);
#462 = EDGE_CURVE('',#455,#463,#465,.T.);
#463 = VERTEX_POINT('',#464);
#464 = CARTESIAN_POINT('',(-10.,-135.1,-103.5));
#465 = CIRCLE('',#466,2.);
#466 = AXIS2_PLACEMENT_3D('',#467,#468,#469);
#467 = CARTESIAN_POINT('',(-8.,-135.1,-103.5));
#468 = DIRECTION('',(0.,-1.,0.));
#469 = DIRECTION('',(-1.,-0.,-0.));
#470 = ORIENTED_EDGE('',*,*,#471,.T.);
#471 = EDGE_CURVE('',#463,#472,#474,.T.);
#472 = VERTEX_POINT('',#473);
#473 = CARTESIAN_POINT('',(-10.,-135.1,-109.967619242));
#474 = LINE('',#475,#476);
#475 = CARTESIAN_POINT('',(-10.,-135.1,-75.68760553689));
#476 = VECTOR('',#477,1.);
#477 = DIRECTION('',(-0.,-0.,-1.));
#478 = ORIENTED_EDGE('',*,*,#479,.T.);
#479 = EDGE_CURVE('',#472,#480,#482,.T.);
#480 = VERTEX_POINT('',#481);
#481 = CARTESIAN_POINT('',(-6.971008489145,-135.1,-111.6826050934));
#482 = CIRCLE('',#483,2.);
#483 = AXIS2_PLACEMENT_3D('',#484,#485,#486);
#484 = CARTESIAN_POINT('',(-8.,-135.1,-109.967619242));
#485 = DIRECTION('',(-0.,-1.,0.));
#486 = DIRECTION('',(0.514495755428,-0.,-0.857492925713));
#487 = ORIENTED_EDGE('',*,*,#488,.T.);
#488 = EDGE_CURVE('',#480,#489,#491,.T.);
#489 = VERTEX_POINT('',#490);
#490 = CARTESIAN_POINT('',(3.808356914292,-135.1,-105.2149858514));
#491 = LINE('',#492,#493);
#492 = CARTESIAN_POINT('',(16.483386141322,-135.1,-97.6099683152));
#493 = VECTOR('',#494,1.);
#494 = DIRECTION('',(0.857492925713,-0.,0.514495755428));
#495 = ORIENTED_EDGE('',*,*,#496,.T.);
#496 = EDGE_CURVE('',#489,#453,#497,.T.);
#497 = CIRCLE('',#498,2.);
#498 = AXIS2_PLACEMENT_3D('',#499,#500,#501);
#499 = CARTESIAN_POINT('',(2.779365403436,-135.1,-103.5));
#500 = DIRECTION('',(0.,-1.,0.));
#501 = DIRECTION('',(-2.886579864025E-15,-0.,1.));
#502 = FACE_BOUND('',#503,.F.);
#503 = EDGE_LOOP('',(#504));
#504 = ORIENTED_EDGE('',*,*,#505,.F.);
#505 = EDGE_CURVE('',#506,#506,#508,.T.);
#506 = VERTEX_POINT('',#507);
#507 = CARTESIAN_POINT('',(-2.08189955855E-15,-135.1,-121.5));
#508 = CIRCLE('',#509,8.5);
#509 = AXIS2_PLACEMENT_3D('',#510,#511,#512);
#510 = CARTESIAN_POINT('',(0.,-135.1,-130.));
#511 = DIRECTION('',(0.,1.,0.));
#512 = DIRECTION('',(-0.,-0.,1.));
#513 = FACE_BOUND('',#514,.F.);
#514 = EDGE_LOOP('',(#515));
#515 = ORIENTED_EDGE('',*,*,#516,.F.);
#516 = EDGE_CURVE('',#517,#517,#519,.T.);
#517 = VERTEX_POINT('',#518);
#518 = CARTESIAN_POINT('',(-1.102182119233E-15,-135.1,-88.5));
#519 = CIRCLE('',#520,4.5);
#520 = AXIS2_PLACEMENT_3D('',#521,#522,#523);
#521 = CARTESIAN_POINT('',(0.,-135.1,-93.));
#522 = DIRECTION('',(0.,1.,0.));
#523 = DIRECTION('',(-0.,-0.,1.));
#524 = FACE_BOUND('',#525,.F.);
#525 = EDGE_LOOP('',(#526,#536,#545,#553,#562,#570));
#526 = ORIENTED_EDGE('',*,*,#527,.T.);
#527 = EDGE_CURVE('',#528,#530,#532,.T.);
#528 = VERTEX_POINT('',#529);
#529 = CARTESIAN_POINT('',(10.,-135.1,-82.));
#530 = VERTEX_POINT('',#531);
#531 = CARTESIAN_POINT('',(10.,-135.1,-73.84131112314));
#532 = LINE('',#533,#534);
#533 = CARTESIAN_POINT('',(10.,-135.1,-57.62445147744));
#534 = VECTOR('',#535,1.);
#535 = DIRECTION('',(-0.,-0.,1.));
#536 = ORIENTED_EDGE('',*,*,#537,.T.);
#537 = EDGE_CURVE('',#530,#538,#540,.T.);
#538 = VERTEX_POINT('',#539);
#539 = CARTESIAN_POINT('',(6.853075311273,-135.1,-72.2028472821));
#540 = CIRCLE('',#541,2.);
#541 = AXIS2_PLACEMENT_3D('',#542,#543,#544);
#542 = CARTESIAN_POINT('',(8.,-135.1,-73.84131112314));
#543 = DIRECTION('',(0.,-1.,0.));
#544 = DIRECTION('',(-0.573462344363,-0.,0.819231920519));
#545 = ORIENTED_EDGE('',*,*,#546,.T.);
#546 = EDGE_CURVE('',#538,#547,#549,.T.);
#547 = VERTEX_POINT('',#548);
#548 = CARTESIAN_POINT('',(-4.802194512803,-135.1,-80.36153615896));
#549 = LINE('',#550,#551);
#550 = CARTESIAN_POINT('',(5.959535534802,-135.1,-72.82832512563));
#551 = VECTOR('',#552,1.);
#552 = DIRECTION('',(-0.819231920519,-0.,-0.573462344363));
#553 = ORIENTED_EDGE('',*,*,#554,.T.);
#554 = EDGE_CURVE('',#547,#555,#557,.T.);
#555 = VERTEX_POINT('',#556);
#556 = CARTESIAN_POINT('',(-3.655269824076,-135.1,-84.));
#557 = CIRCLE('',#558,2.);
#558 = AXIS2_PLACEMENT_3D('',#559,#560,#561);
#559 = CARTESIAN_POINT('',(-3.655269824076,-135.1,-82.));
#560 = DIRECTION('',(0.,-1.,0.));
#561 = DIRECTION('',(-1.7763568394E-15,-0.,-1.));
#562 = ORIENTED_EDGE('',*,*,#563,.T.);
#563 = EDGE_CURVE('',#555,#564,#566,.T.);
#564 = VERTEX_POINT('',#565);
#565 = CARTESIAN_POINT('',(8.,-135.1,-84.));
#566 = LINE('',#567,#568);
#567 = CARTESIAN_POINT('',(4.,-135.1,-84.));
#568 = VECTOR('',#569,1.);
#569 = DIRECTION('',(1.,-0.,-0.));
#570 = ORIENTED_EDGE('',*,*,#571,.T.);
#571 = EDGE_CURVE('',#564,#528,#572,.T.);
#572 = CIRCLE('',#573,2.);
#573 = AXIS2_PLACEMENT_3D('',#574,#575,#576);
#574 = CARTESIAN_POINT('',(8.,-135.1,-82.));
#575 = DIRECTION('',(-0.,-1.,-0.));
#576 = DIRECTION('',(1.,-0.,-0.));
#577 = FACE_BOUND('',#578,.F.);
#578 = EDGE_LOOP('',(#579));
#579 = ORIENTED_EDGE('',*,*,#580,.F.);
#580 = EDGE_CURVE('',#581,#581,#583,.T.);
#581 = VERTEX_POINT('',#582);
#582 = CARTESIAN_POINT('',(-1.102182119233E-15,-135.1,-61.5));
#583 = CIRCLE('',#584,4.5);
#584 = AXIS2_PLACEMENT_3D('',#585,#586,#587);
#585 = CARTESIAN_POINT('',(0.,-135.1,-66.));
#586 = DIRECTION('',(0.,1.,0.));
#587 = DIRECTION('',(-0.,-0.,1.));
#588 = FACE_BOUND('',#589,.F.);
#589 = EDGE_LOOP('',(#590));
#590 = ORIENTED_EDGE('',*,*,#591,.F.);
#591 = EDGE_CURVE('',#592,#592,#594,.T.);
#592 = VERTEX_POINT('',#593);
#593 = CARTESIAN_POINT('',(-21.65063509461,-135.1,-9.3));
#594 = CIRCLE('',#595,3.2);
#595 = AXIS2_PLACEMENT_3D('',#596,#597,#598);
#596 = CARTESIAN_POINT('',(-21.65063509461,-135.1,-12.5));
#597 = DIRECTION('',(0.,1.,0.));
#598 = DIRECTION('',(-0.,-0.,1.));
#599 = FACE_BOUND('',#600,.F.);
#600 = EDGE_LOOP('',(#601));
#601 = ORIENTED_EDGE('',*,*,#602,.F.);
#602 = EDGE_CURVE('',#603,#603,#605,.T.);
#603 = VERTEX_POINT('',#604);
#604 = CARTESIAN_POINT('',(-21.65063509461,-135.1,15.7));
#605 = CIRCLE('',#606,3.2);
#606 = AXIS2_PLACEMENT_3D('',#607,#608,#609);
#607 = CARTESIAN_POINT('',(-21.65063509461,-135.1,12.5));
#608 = DIRECTION('',(0.,1.,0.));
#609 = DIRECTION('',(-0.,-0.,1.));
#610 = FACE_BOUND('',#611,.F.);
#611 = EDGE_LOOP('',(#612,#622,#631,#639,#648,#656));
#612 = ORIENTED_EDGE('',*,*,#613,.T.);
#613 = EDGE_CURVE('',#614,#616,#618,.T.);
#614 = VERTEX_POINT('',#615);
#615 = CARTESIAN_POINT('',(3.253273710192,-135.1,-42.));
#616 = VERTEX_POINT('',#617);
#617 = CARTESIAN_POINT('',(-8.,-135.1,-42.));
#618 = LINE('',#619,#620);
#619 = CARTESIAN_POINT('',(-4.,-135.1,-42.));
#620 = VECTOR('',#621,1.);
#621 = DIRECTION('',(-1.,-0.,-0.));
#622 = ORIENTED_EDGE('',*,*,#623,.T.);
#623 = EDGE_CURVE('',#616,#624,#626,.T.);
#624 = VERTEX_POINT('',#625);
#625 = CARTESIAN_POINT('',(-10.,-135.1,-44.));
#626 = CIRCLE('',#627,2.);
#627 = AXIS2_PLACEMENT_3D('',#628,#629,#630);
#628 = CARTESIAN_POINT('',(-8.,-135.1,-44.));
#629 = DIRECTION('',(0.,-1.,0.));
#630 = DIRECTION('',(-1.,-0.,3.5527136788E-15));
#631 = ORIENTED_EDGE('',*,*,#632,.T.);
#632 = EDGE_CURVE('',#624,#633,#635,.T.);
#633 = VERTEX_POINT('',#634);
#634 = CARTESIAN_POINT('',(-10.,-135.1,-51.31462791162));
#635 = LINE('',#636,#637);
#636 = CARTESIAN_POINT('',(-10.,-135.1,-46.36110987167));
#637 = VECTOR('',#638,1.);
#638 = DIRECTION('',(-0.,-0.,-1.));
#639 = ORIENTED_EDGE('',*,*,#640,.T.);
#640 = EDGE_CURVE('',#633,#641,#643,.T.);
#641 = VERTEX_POINT('',#642);
#642 = CARTESIAN_POINT('',(-6.910023298809,-135.1,-52.99151514422));
#643 = CIRCLE('',#644,2.);
#644 = AXIS2_PLACEMENT_3D('',#645,#646,#647);
#645 = CARTESIAN_POINT('',(-8.,-135.1,-51.31462791162));
#646 = DIRECTION('',(-0.,-1.,0.));
#647 = DIRECTION('',(0.544988350595,-0.,-0.838443616301));
#648 = ORIENTED_EDGE('',*,*,#649,.T.);
#649 = EDGE_CURVE('',#641,#650,#652,.T.);
#650 = VERTEX_POINT('',#651);
#651 = CARTESIAN_POINT('',(4.343250411383,-135.1,-45.6768872326));
#652 = LINE('',#653,#654);
#653 = CARTESIAN_POINT('',(3.792034804768,-135.1,-46.0351773769));
#654 = VECTOR('',#655,1.);
#655 = DIRECTION('',(0.838443616301,-0.,0.544988350595));
#656 = ORIENTED_EDGE('',*,*,#657,.T.);
#657 = EDGE_CURVE('',#650,#614,#658,.T.);
#658 = CIRCLE('',#659,2.);
#659 = AXIS2_PLACEMENT_3D('',#660,#661,#662);
#660 = CARTESIAN_POINT('',(3.253273710192,-135.1,-44.));
#661 = DIRECTION('',(0.,-1.,-0.));
#662 = DIRECTION('',(1.33226762955E-15,-0.,1.));
#663 = FACE_BOUND('',#664,.F.);
#664 = EDGE_LOOP('',(#665));
#665 = ORIENTED_EDGE('',*,*,#666,.F.);
#666 = EDGE_CURVE('',#667,#667,#669,.T.);
#667 = VERTEX_POINT('',#668);
#668 = CARTESIAN_POINT('',(-5.376199448257E-15,-135.1,-21.8));
#669 = CIRCLE('',#670,3.2);
#670 = AXIS2_PLACEMENT_3D('',#671,#672,#673);
#671 = CARTESIAN_POINT('',(-4.592425496803E-15,-135.1,-25.));
#672 = DIRECTION('',(0.,1.,0.));
#673 = DIRECTION('',(-0.,-0.,1.));
#674 = FACE_BOUND('',#675,.F.);
#675 = EDGE_LOOP('',(#676));
#676 = ORIENTED_EDGE('',*,*,#677,.F.);
#677 = EDGE_CURVE('',#678,#678,#680,.T.);
#678 = VERTEX_POINT('',#679);
#679 = CARTESIAN_POINT('',(-4.947573068555E-15,-135.1,20.2));
#680 = CIRCLE('',#681,20.2);
#681 = AXIS2_PLACEMENT_3D('',#682,#683,#684);
#682 = CARTESIAN_POINT('',(0.,-135.1,0.));
#683 = DIRECTION('',(0.,1.,0.));
#684 = DIRECTION('',(-0.,-0.,1.));
#685 = FACE_BOUND('',#686,.F.);
#686 = EDGE_LOOP('',(#687));
#687 = ORIENTED_EDGE('',*,*,#688,.F.);
#688 = EDGE_CURVE('',#689,#689,#691,.T.);
#689 = VERTEX_POINT('',#690);
#690 = CARTESIAN_POINT('',(7.470345474799E-16,-135.1,28.2));
#691 = CIRCLE('',#692,3.2);
#692 = AXIS2_PLACEMENT_3D('',#693,#694,#695);
#693 = CARTESIAN_POINT('',(1.530808498934E-15,-135.1,25.));
#694 = DIRECTION('',(0.,1.,0.));
#695 = DIRECTION('',(-0.,-0.,1.));
#696 = FACE_BOUND('',#697,.F.);
#697 = EDGE_LOOP('',(#698));
#698 = ORIENTED_EDGE('',*,*,#699,.F.);
#699 = EDGE_CURVE('',#700,#700,#702,.T.);
#700 = VERTEX_POINT('',#701);
#701 = CARTESIAN_POINT('',(21.650635094611,-135.1,-9.3));
#702 = CIRCLE('',#703,3.2);
#703 = AXIS2_PLACEMENT_3D('',#704,#705,#706);
#704 = CARTESIAN_POINT('',(21.650635094611,-135.1,-12.5));
#705 = DIRECTION('',(0.,1.,0.));
#706 = DIRECTION('',(-0.,-0.,1.));
#707 = FACE_BOUND('',#708,.F.);
#708 = EDGE_LOOP('',(#709));
#709 = ORIENTED_EDGE('',*,*,#710,.F.);
#710 = EDGE_CURVE('',#711,#711,#713,.T.);
#711 = VERTEX_POINT('',#712);
#712 = CARTESIAN_POINT('',(21.650635094611,-135.1,15.7));
#713 = CIRCLE('',#714,3.2);
#714 = AXIS2_PLACEMENT_3D('',#715,#716,#717);
#715 = CARTESIAN_POINT('',(21.650635094611,-135.1,12.5));
#716 = DIRECTION('',(0.,1.,0.));
#717 = DIRECTION('',(-0.,-0.,1.));
#718 = FACE_BOUND('',#719,.F.);
#719 = EDGE_LOOP('',(#720));
#720 = ORIENTED_EDGE('',*,*,#721,.F.);
#721 = EDGE_CURVE('',#722,#722,#724,.T.);
#722 = VERTEX_POINT('',#723);
#723 = CARTESIAN_POINT('',(31.,-135.1,-7.5));
#724 = CIRCLE('',#725,4.5);
#725 = AXIS2_PLACEMENT_3D('',#726,#727,#728);
#726 = CARTESIAN_POINT('',(31.,-135.1,-12.));
#727 = DIRECTION('',(0.,1.,0.));
#728 = DIRECTION('',(-0.,-0.,1.));
#729 = FACE_BOUND('',#730,.F.);
#730 = EDGE_LOOP('',(#731));
#731 = ORIENTED_EDGE('',*,*,#732,.F.);
#732 = EDGE_CURVE('',#733,#733,#735,.T.);
#733 = VERTEX_POINT('',#734);
#734 = CARTESIAN_POINT('',(31.,-135.1,16.5));
#735 = CIRCLE('',#736,4.5);
#736 = AXIS2_PLACEMENT_3D('',#737,#738,#739);
#737 = CARTESIAN_POINT('',(31.,-135.1,12.));
#738 = DIRECTION('',(0.,1.,0.));
#739 = DIRECTION('',(-0.,-0.,1.));
#740 = PLANE('',#741);
#741 = AXIS2_PLACEMENT_3D('',#742,#743,#744);
#742 = CARTESIAN_POINT('',(4.379243313203E-16,-135.1,-41.40759183173));
#743 = DIRECTION('',(-0.,-1.,-0.));
#744 = DIRECTION('',(0.,0.,-1.));
#745 = ADVANCED_FACE('',(#746),#757,.F.);
#746 = FACE_BOUND('',#747,.F.);
#747 = EDGE_LOOP('',(#748,#754,#755,#756));
#748 = ORIENTED_EDGE('',*,*,#749,.T.);
#749 = EDGE_CURVE('',#98,#417,#750,.T.);
#750 = LINE('',#751,#752);
#751 = CARTESIAN_POINT('',(17.,-132.1,-130.));
#752 = VECTOR('',#753,1.);
#753 = DIRECTION('',(-0.,-1.,-0.));
#754 = ORIENTED_EDGE('',*,*,#416,.T.);
#755 = ORIENTED_EDGE('',*,*,#32,.F.);
#756 = ORIENTED_EDGE('',*,*,#106,.F.);
#757 = SURFACE_OF_LINEAR_EXTRUSION('',#758,#763);
#758 = B_SPLINE_CURVE_WITH_KNOTS('',3,(#759,#760,#761,#762),
  .UNSPECIFIED.,.F.,.F.,(4,4),(0.,1.),.PIECEWISE_BEZIER_KNOTS.);
#759 = CARTESIAN_POINT('',(17.,-132.1,-130.));
#760 = CARTESIAN_POINT('',(17.,-132.1,-104.));
#761 = CARTESIAN_POINT('',(18.,-132.1,-78.));
#762 = CARTESIAN_POINT('',(18.,-132.1,-55.));
#763 = VECTOR('',#764,1.);
#764 = DIRECTION('',(-0.,1.,-0.));
#765 = ADVANCED_FACE('',(#766),#777,.F.);
#766 = FACE_BOUND('',#767,.F.);
#767 = EDGE_LOOP('',(#768,#769,#770,#771));
#768 = ORIENTED_EDGE('',*,*,#79,.F.);
#769 = ORIENTED_EDGE('',*,*,#396,.F.);
#770 = ORIENTED_EDGE('',*,*,#443,.T.);
#771 = ORIENTED_EDGE('',*,*,#772,.F.);
#772 = EDGE_CURVE('',#80,#435,#773,.T.);
#773 = LINE('',#774,#775);
#774 = CARTESIAN_POINT('',(-18.,-132.1,-55.));
#775 = VECTOR('',#776,1.);
#776 = DIRECTION('',(-0.,-1.,-0.));
#777 = SURFACE_OF_LINEAR_EXTRUSION('',#778,#783);
#778 = B_SPLINE_CURVE_WITH_KNOTS('',3,(#779,#780,#781,#782),
  .UNSPECIFIED.,.F.,.F.,(4,4),(0.,1.),.PIECEWISE_BEZIER_KNOTS.);
#779 = CARTESIAN_POINT('',(-28.28427124746,-132.1,-28.28427124746));
#780 = CARTESIAN_POINT('',(-20.5,-132.1,-36.06854249492));
#781 = CARTESIAN_POINT('',(-18.,-132.1,-42.));
#782 = CARTESIAN_POINT('',(-18.,-132.1,-55.));
#783 = VECTOR('',#784,1.);
#784 = DIRECTION('',(-0.,1.,-0.));
#785 = ADVANCED_FACE('',(#786),#797,.F.);
#786 = FACE_BOUND('',#787,.F.);
#787 = EDGE_LOOP('',(#788,#789,#790,#796));
#788 = ORIENTED_EDGE('',*,*,#772,.T.);
#789 = ORIENTED_EDGE('',*,*,#434,.T.);
#790 = ORIENTED_EDGE('',*,*,#791,.F.);
#791 = EDGE_CURVE('',#89,#426,#792,.T.);
#792 = LINE('',#793,#794);
#793 = CARTESIAN_POINT('',(-17.,-132.1,-130.));
#794 = VECTOR('',#795,1.);
#795 = DIRECTION('',(-0.,-1.,-0.));
#796 = ORIENTED_EDGE('',*,*,#88,.F.);
#797 = SURFACE_OF_LINEAR_EXTRUSION('',#798,#803);
#798 = B_SPLINE_CURVE_WITH_KNOTS('',3,(#799,#800,#801,#802),
  .UNSPECIFIED.,.F.,.F.,(4,4),(0.,1.),.PIECEWISE_BEZIER_KNOTS.);
#799 = CARTESIAN_POINT('',(-18.,-132.1,-55.));
#800 = CARTESIAN_POINT('',(-18.,-132.1,-78.));
#801 = CARTESIAN_POINT('',(-17.,-132.1,-104.));
#802 = CARTESIAN_POINT('',(-17.,-132.1,-130.));
#803 = VECTOR('',#804,1.);
#804 = DIRECTION('',(-0.,1.,-0.));
#805 = ADVANCED_FACE('',(#806),#812,.T.);
#806 = FACE_BOUND('',#807,.F.);
#807 = EDGE_LOOP('',(#808,#809,#810,#811));
#808 = ORIENTED_EDGE('',*,*,#791,.T.);
#809 = ORIENTED_EDGE('',*,*,#425,.T.);
#810 = ORIENTED_EDGE('',*,*,#749,.F.);
#811 = ORIENTED_EDGE('',*,*,#97,.F.);
#812 = CYLINDRICAL_SURFACE('',#813,17.);
#813 = AXIS2_PLACEMENT_3D('',#814,#815,#816);
#814 = CARTESIAN_POINT('',(0.,-132.1,-130.));
#815 = DIRECTION('',(-0.,1.,-0.));
#816 = DIRECTION('',(-1.,-0.,-0.));
#817 = ADVANCED_FACE('',(#818),#837,.F.);
#818 = FACE_BOUND('',#819,.T.);
#819 = EDGE_LOOP('',(#820,#829,#835,#836));
#820 = ORIENTED_EDGE('',*,*,#821,.F.);
#821 = EDGE_CURVE('',#822,#822,#824,.T.);
#822 = VERTEX_POINT('',#823);
#823 = CARTESIAN_POINT('',(-21.65063509461,-133.6,14.2));
#824 = CIRCLE('',#825,1.7);
#825 = AXIS2_PLACEMENT_3D('',#826,#827,#828);
#826 = CARTESIAN_POINT('',(-21.65063509461,-133.6,12.5));
#827 = DIRECTION('',(0.,1.,0.));
#828 = DIRECTION('',(-0.,-0.,1.));
#829 = ORIENTED_EDGE('',*,*,#830,.F.);
#830 = EDGE_CURVE('',#124,#822,#831,.T.);
#831 = LINE('',#832,#833);
#832 = CARTESIAN_POINT('',(-21.65063509461,-131.1,14.2));
#833 = VECTOR('',#834,1.);
#834 = DIRECTION('',(-0.,-1.,-0.));
#835 = ORIENTED_EDGE('',*,*,#123,.T.);
#836 = ORIENTED_EDGE('',*,*,#830,.T.);
#837 = CYLINDRICAL_SURFACE('',#838,1.7);
#838 = AXIS2_PLACEMENT_3D('',#839,#840,#841);
#839 = CARTESIAN_POINT('',(-21.65063509461,-131.1,12.5));
#840 = DIRECTION('',(-0.,-1.,-0.));
#841 = DIRECTION('',(-0.,-0.,1.));
#842 = ADVANCED_FACE('',(#843),#862,.F.);
#843 = FACE_BOUND('',#844,.T.);
#844 = EDGE_LOOP('',(#845,#854,#860,#861));
#845 = ORIENTED_EDGE('',*,*,#846,.F.);
#846 = EDGE_CURVE('',#847,#847,#849,.T.);
#847 = VERTEX_POINT('',#848);
#848 = CARTESIAN_POINT('',(-21.65063509461,-133.6,-10.8));
#849 = CIRCLE('',#850,1.7);
#850 = AXIS2_PLACEMENT_3D('',#851,#852,#853);
#851 = CARTESIAN_POINT('',(-21.65063509461,-133.6,-12.5));
#852 = DIRECTION('',(0.,1.,0.));
#853 = DIRECTION('',(-0.,-0.,1.));
#854 = ORIENTED_EDGE('',*,*,#855,.F.);
#855 = EDGE_CURVE('',#135,#847,#856,.T.);
#856 = LINE('',#857,#858);
#857 = CARTESIAN_POINT('',(-21.65063509461,-131.1,-10.8));
#858 = VECTOR('',#859,1.);
#859 = DIRECTION('',(-0.,-1.,-0.));
#860 = ORIENTED_EDGE('',*,*,#134,.T.);
#861 = ORIENTED_EDGE('',*,*,#855,.T.);
#862 = CYLINDRICAL_SURFACE('',#863,1.7);
#863 = AXIS2_PLACEMENT_3D('',#864,#865,#866);
#864 = CARTESIAN_POINT('',(-21.65063509461,-131.1,-12.5));
#865 = DIRECTION('',(-0.,-1.,-0.));
#866 = DIRECTION('',(-0.,-0.,1.));
#867 = ADVANCED_FACE('',(#868),#887,.F.);
#868 = FACE_BOUND('',#869,.T.);
#869 = EDGE_LOOP('',(#870,#879,#885,#886));
#870 = ORIENTED_EDGE('',*,*,#871,.F.);
#871 = EDGE_CURVE('',#872,#872,#874,.T.);
#872 = VERTEX_POINT('',#873);
#873 = CARTESIAN_POINT('',(-5.008805408513E-15,-133.6,-23.3));
#874 = CIRCLE('',#875,1.7);
#875 = AXIS2_PLACEMENT_3D('',#876,#877,#878);
#876 = CARTESIAN_POINT('',(-4.592425496803E-15,-133.6,-25.));
#877 = DIRECTION('',(0.,1.,0.));
#878 = DIRECTION('',(-0.,-0.,1.));
#879 = ORIENTED_EDGE('',*,*,#880,.F.);
#880 = EDGE_CURVE('',#146,#872,#881,.T.);
#881 = LINE('',#882,#883);
#882 = CARTESIAN_POINT('',(-5.008805408513E-15,-131.1,-23.3));
#883 = VECTOR('',#884,1.);
#884 = DIRECTION('',(-0.,-1.,-0.));
#885 = ORIENTED_EDGE('',*,*,#145,.T.);
#886 = ORIENTED_EDGE('',*,*,#880,.T.);
#887 = CYLINDRICAL_SURFACE('',#888,1.7);
#888 = AXIS2_PLACEMENT_3D('',#889,#890,#891);
#889 = CARTESIAN_POINT('',(-4.592425496803E-15,-131.1,-25.));
#890 = DIRECTION('',(-0.,-1.,-0.));
#891 = DIRECTION('',(-0.,-0.,1.));
#892 = ADVANCED_FACE('',(#893),#909,.F.);
#893 = FACE_BOUND('',#894,.F.);
#894 = EDGE_LOOP('',(#895,#896,#902,#903));
#895 = ORIENTED_EDGE('',*,*,#156,.T.);
#896 = ORIENTED_EDGE('',*,*,#897,.T.);
#897 = EDGE_CURVE('',#159,#624,#898,.T.);
#898 = LINE('',#899,#900);
#899 = CARTESIAN_POINT('',(-10.,-131.1,-44.));
#900 = VECTOR('',#901,1.);
#901 = DIRECTION('',(-0.,-1.,-0.));
#902 = ORIENTED_EDGE('',*,*,#623,.F.);
#903 = ORIENTED_EDGE('',*,*,#904,.F.);
#904 = EDGE_CURVE('',#157,#616,#905,.T.);
#905 = LINE('',#906,#907);
#906 = CARTESIAN_POINT('',(-8.,-131.1,-42.));
#907 = VECTOR('',#908,1.);
#908 = DIRECTION('',(-0.,-1.,-0.));
#909 = CYLINDRICAL_SURFACE('',#910,2.);
#910 = AXIS2_PLACEMENT_3D('',#911,#912,#913);
#911 = CARTESIAN_POINT('',(-8.,-131.1,-44.));
#912 = DIRECTION('',(-0.,1.,-0.));
#913 = DIRECTION('',(-1.,-0.,3.5527136788E-15));
#914 = ADVANCED_FACE('',(#915),#926,.T.);
#915 = FACE_BOUND('',#916,.F.);
#916 = EDGE_LOOP('',(#917,#918,#919,#920));
#917 = ORIENTED_EDGE('',*,*,#167,.F.);
#918 = ORIENTED_EDGE('',*,*,#904,.T.);
#919 = ORIENTED_EDGE('',*,*,#613,.F.);
#920 = ORIENTED_EDGE('',*,*,#921,.F.);
#921 = EDGE_CURVE('',#168,#614,#922,.T.);
#922 = LINE('',#923,#924);
#923 = CARTESIAN_POINT('',(3.253273710192,-131.1,-42.));
#924 = VECTOR('',#925,1.);
#925 = DIRECTION('',(-0.,-1.,-0.));
#926 = PLANE('',#927);
#927 = AXIS2_PLACEMENT_3D('',#928,#929,#930);
#928 = CARTESIAN_POINT('',(-8.,-131.1,-42.));
#929 = DIRECTION('',(-0.,-0.,-1.));
#930 = DIRECTION('',(-1.,0.,0.));
#931 = ADVANCED_FACE('',(#932),#943,.T.);
#932 = FACE_BOUND('',#933,.F.);
#933 = EDGE_LOOP('',(#934,#935,#941,#942));
#934 = ORIENTED_EDGE('',*,*,#201,.F.);
#935 = ORIENTED_EDGE('',*,*,#936,.T.);
#936 = EDGE_CURVE('',#193,#633,#937,.T.);
#937 = LINE('',#938,#939);
#938 = CARTESIAN_POINT('',(-10.,-131.1,-51.31462791162));
#939 = VECTOR('',#940,1.);
#940 = DIRECTION('',(-0.,-1.,-0.));
#941 = ORIENTED_EDGE('',*,*,#632,.F.);
#942 = ORIENTED_EDGE('',*,*,#897,.F.);
#943 = PLANE('',#944);
#944 = AXIS2_PLACEMENT_3D('',#945,#946,#947);
#945 = CARTESIAN_POINT('',(-10.,-131.1,-51.31462791162));
#946 = DIRECTION('',(1.,-0.,-0.));
#947 = DIRECTION('',(0.,0.,-1.));
#948 = ADVANCED_FACE('',(#949),#960,.F.);
#949 = FACE_BOUND('',#950,.F.);
#950 = EDGE_LOOP('',(#951,#952,#953,#954));
#951 = ORIENTED_EDGE('',*,*,#175,.T.);
#952 = ORIENTED_EDGE('',*,*,#921,.T.);
#953 = ORIENTED_EDGE('',*,*,#657,.F.);
#954 = ORIENTED_EDGE('',*,*,#955,.F.);
#955 = EDGE_CURVE('',#176,#650,#956,.T.);
#956 = LINE('',#957,#958);
#957 = CARTESIAN_POINT('',(4.343250411383,-131.1,-45.6768872326));
#958 = VECTOR('',#959,1.);
#959 = DIRECTION('',(-0.,-1.,-0.));
#960 = CYLINDRICAL_SURFACE('',#961,2.);
#961 = AXIS2_PLACEMENT_3D('',#962,#963,#964);
#962 = CARTESIAN_POINT('',(3.253273710192,-131.1,-44.));
#963 = DIRECTION('',(-0.,1.,-0.));
#964 = DIRECTION('',(1.33226762955E-15,-0.,1.));
#965 = ADVANCED_FACE('',(#966),#977,.F.);
#966 = FACE_BOUND('',#967,.F.);
#967 = EDGE_LOOP('',(#968,#969,#975,#976));
#968 = ORIENTED_EDGE('',*,*,#192,.T.);
#969 = ORIENTED_EDGE('',*,*,#970,.T.);
#970 = EDGE_CURVE('',#185,#641,#971,.T.);
#971 = LINE('',#972,#973);
#972 = CARTESIAN_POINT('',(-6.910023298809,-131.1,-52.99151514422));
#973 = VECTOR('',#974,1.);
#974 = DIRECTION('',(-0.,-1.,-0.));
#975 = ORIENTED_EDGE('',*,*,#640,.F.);
#976 = ORIENTED_EDGE('',*,*,#936,.F.);
#977 = CYLINDRICAL_SURFACE('',#978,2.);
#978 = AXIS2_PLACEMENT_3D('',#979,#980,#981);
#979 = CARTESIAN_POINT('',(-8.,-131.1,-51.31462791162));
#980 = DIRECTION('',(-0.,1.,-0.));
#981 = DIRECTION('',(0.544988350595,-0.,-0.838443616301));
#982 = ADVANCED_FACE('',(#983),#989,.T.);
#983 = FACE_BOUND('',#984,.F.);
#984 = EDGE_LOOP('',(#985,#986,#987,#988));
#985 = ORIENTED_EDGE('',*,*,#184,.F.);
#986 = ORIENTED_EDGE('',*,*,#955,.T.);
#987 = ORIENTED_EDGE('',*,*,#649,.F.);
#988 = ORIENTED_EDGE('',*,*,#970,.F.);
#989 = PLANE('',#990);
#990 = AXIS2_PLACEMENT_3D('',#991,#992,#993);
#991 = CARTESIAN_POINT('',(4.343250411383,-131.1,-45.6768872326));
#992 = DIRECTION('',(-0.544988350595,-0.,0.838443616301));
#993 = DIRECTION('',(0.838443616301,0.,0.544988350595));
#994 = ADVANCED_FACE('',(#995),#1011,.F.);
#995 = FACE_BOUND('',#996,.F.);
#996 = EDGE_LOOP('',(#997,#998,#1004,#1005));
#997 = ORIENTED_EDGE('',*,*,#209,.T.);
#998 = ORIENTED_EDGE('',*,*,#999,.T.);
#999 = EDGE_CURVE('',#212,#463,#1000,.T.);
#1000 = LINE('',#1001,#1002);
#1001 = CARTESIAN_POINT('',(-10.,-131.1,-103.5));
#1002 = VECTOR('',#1003,1.);
#1003 = DIRECTION('',(-0.,-1.,-0.));
#1004 = ORIENTED_EDGE('',*,*,#462,.F.);
#1005 = ORIENTED_EDGE('',*,*,#1006,.F.);
#1006 = EDGE_CURVE('',#210,#455,#1007,.T.);
#1007 = LINE('',#1008,#1009);
#1008 = CARTESIAN_POINT('',(-8.,-131.1,-101.5));
#1009 = VECTOR('',#1010,1.);
#1010 = DIRECTION('',(-0.,-1.,-0.));
#1011 = CYLINDRICAL_SURFACE('',#1012,2.);
#1012 = AXIS2_PLACEMENT_3D('',#1013,#1014,#1015);
#1013 = CARTESIAN_POINT('',(-8.,-131.1,-103.5));
#1014 = DIRECTION('',(-0.,1.,-0.));
#1015 = DIRECTION('',(-1.,-0.,-0.));
#1016 = ADVANCED_FACE('',(#1017),#1028,.T.);
#1017 = FACE_BOUND('',#1018,.F.);
#1018 = EDGE_LOOP('',(#1019,#1020,#1021,#1022));
#1019 = ORIENTED_EDGE('',*,*,#220,.F.);
#1020 = ORIENTED_EDGE('',*,*,#1006,.T.);
#1021 = ORIENTED_EDGE('',*,*,#452,.F.);
#1022 = ORIENTED_EDGE('',*,*,#1023,.F.);
#1023 = EDGE_CURVE('',#221,#453,#1024,.T.);
#1024 = LINE('',#1025,#1026);
#1025 = CARTESIAN_POINT('',(2.779365403436,-131.1,-101.5));
#1026 = VECTOR('',#1027,1.);
#1027 = DIRECTION('',(-0.,-1.,-0.));
#1028 = PLANE('',#1029);
#1029 = AXIS2_PLACEMENT_3D('',#1030,#1031,#1032);
#1030 = CARTESIAN_POINT('',(-8.,-131.1,-101.5));
#1031 = DIRECTION('',(-0.,-0.,-1.));
#1032 = DIRECTION('',(-1.,0.,0.));
#1033 = ADVANCED_FACE('',(#1034),#1045,.T.);
#1034 = FACE_BOUND('',#1035,.F.);
#1035 = EDGE_LOOP('',(#1036,#1037,#1043,#1044));
#1036 = ORIENTED_EDGE('',*,*,#254,.F.);
#1037 = ORIENTED_EDGE('',*,*,#1038,.T.);
#1038 = EDGE_CURVE('',#246,#472,#1039,.T.);
#1039 = LINE('',#1040,#1041);
#1040 = CARTESIAN_POINT('',(-10.,-131.1,-109.967619242));
#1041 = VECTOR('',#1042,1.);
#1042 = DIRECTION('',(-0.,-1.,-0.));
#1043 = ORIENTED_EDGE('',*,*,#471,.F.);
#1044 = ORIENTED_EDGE('',*,*,#999,.F.);
#1045 = PLANE('',#1046);
#1046 = AXIS2_PLACEMENT_3D('',#1047,#1048,#1049);
#1047 = CARTESIAN_POINT('',(-10.,-131.1,-109.967619242));
#1048 = DIRECTION('',(1.,-0.,-0.));
#1049 = DIRECTION('',(0.,0.,-1.));
#1050 = ADVANCED_FACE('',(#1051),#1062,.F.);
#1051 = FACE_BOUND('',#1052,.F.);
#1052 = EDGE_LOOP('',(#1053,#1054,#1055,#1056));
#1053 = ORIENTED_EDGE('',*,*,#228,.T.);
#1054 = ORIENTED_EDGE('',*,*,#1023,.T.);
#1055 = ORIENTED_EDGE('',*,*,#496,.F.);
#1056 = ORIENTED_EDGE('',*,*,#1057,.F.);
#1057 = EDGE_CURVE('',#229,#489,#1058,.T.);
#1058 = LINE('',#1059,#1060);
#1059 = CARTESIAN_POINT('',(3.808356914292,-131.1,-105.2149858514));
#1060 = VECTOR('',#1061,1.);
#1061 = DIRECTION('',(-0.,-1.,-0.));
#1062 = CYLINDRICAL_SURFACE('',#1063,2.);
#1063 = AXIS2_PLACEMENT_3D('',#1064,#1065,#1066);
#1064 = CARTESIAN_POINT('',(2.779365403436,-131.1,-103.5));
#1065 = DIRECTION('',(-0.,1.,-0.));
#1066 = DIRECTION('',(-2.886579864025E-15,-0.,1.));
#1067 = ADVANCED_FACE('',(#1068),#1079,.F.);
#1068 = FACE_BOUND('',#1069,.F.);
#1069 = EDGE_LOOP('',(#1070,#1071,#1077,#1078));
#1070 = ORIENTED_EDGE('',*,*,#245,.T.);
#1071 = ORIENTED_EDGE('',*,*,#1072,.T.);
#1072 = EDGE_CURVE('',#238,#480,#1073,.T.);
#1073 = LINE('',#1074,#1075);
#1074 = CARTESIAN_POINT('',(-6.971008489145,-131.1,-111.6826050934));
#1075 = VECTOR('',#1076,1.);
#1076 = DIRECTION('',(-0.,-1.,-0.));
#1077 = ORIENTED_EDGE('',*,*,#479,.F.);
#1078 = ORIENTED_EDGE('',*,*,#1038,.F.);
#1079 = CYLINDRICAL_SURFACE('',#1080,2.);
#1080 = AXIS2_PLACEMENT_3D('',#1081,#1082,#1083);
#1081 = CARTESIAN_POINT('',(-8.,-131.1,-109.967619242));
#1082 = DIRECTION('',(-0.,1.,-0.));
#1083 = DIRECTION('',(0.514495755428,-0.,-0.857492925713));
#1084 = ADVANCED_FACE('',(#1085),#1091,.T.);
#1085 = FACE_BOUND('',#1086,.F.);
#1086 = EDGE_LOOP('',(#1087,#1088,#1089,#1090));
#1087 = ORIENTED_EDGE('',*,*,#237,.F.);
#1088 = ORIENTED_EDGE('',*,*,#1057,.T.);
#1089 = ORIENTED_EDGE('',*,*,#488,.F.);
#1090 = ORIENTED_EDGE('',*,*,#1072,.F.);
#1091 = PLANE('',#1092);
#1092 = AXIS2_PLACEMENT_3D('',#1093,#1094,#1095);
#1093 = CARTESIAN_POINT('',(3.808356914292,-131.1,-105.2149858514));
#1094 = DIRECTION('',(-0.514495755428,-0.,0.857492925713));
#1095 = DIRECTION('',(0.857492925713,0.,0.514495755428));
#1096 = ADVANCED_FACE('',(#1097),#1116,.F.);
#1097 = FACE_BOUND('',#1098,.T.);
#1098 = EDGE_LOOP('',(#1099,#1108,#1114,#1115));
#1099 = ORIENTED_EDGE('',*,*,#1100,.F.);
#1100 = EDGE_CURVE('',#1101,#1101,#1103,.T.);
#1101 = VERTEX_POINT('',#1102);
#1102 = CARTESIAN_POINT('',(1.114428587224E-15,-133.6,26.7));
#1103 = CIRCLE('',#1104,1.7);
#1104 = AXIS2_PLACEMENT_3D('',#1105,#1106,#1107);
#1105 = CARTESIAN_POINT('',(1.530808498934E-15,-133.6,25.));
#1106 = DIRECTION('',(0.,1.,0.));
#1107 = DIRECTION('',(-0.,-0.,1.));
#1108 = ORIENTED_EDGE('',*,*,#1109,.F.);
#1109 = EDGE_CURVE('',#263,#1101,#1110,.T.);
#1110 = LINE('',#1111,#1112);
#1111 = CARTESIAN_POINT('',(1.114428587224E-15,-131.1,26.7));
#1112 = VECTOR('',#1113,1.);
#1113 = DIRECTION('',(-0.,-1.,-0.));
#1114 = ORIENTED_EDGE('',*,*,#262,.T.);
#1115 = ORIENTED_EDGE('',*,*,#1109,.T.);
#1116 = CYLINDRICAL_SURFACE('',#1117,1.7);
#1117 = AXIS2_PLACEMENT_3D('',#1118,#1119,#1120);
#1118 = CARTESIAN_POINT('',(1.530808498934E-15,-131.1,25.));
#1119 = DIRECTION('',(-0.,-1.,-0.));
#1120 = DIRECTION('',(-0.,-0.,1.));
#1121 = ADVANCED_FACE('',(#1122),#1133,.F.);
#1122 = FACE_BOUND('',#1123,.T.);
#1123 = EDGE_LOOP('',(#1124,#1125,#1131,#1132));
#1124 = ORIENTED_EDGE('',*,*,#677,.F.);
#1125 = ORIENTED_EDGE('',*,*,#1126,.F.);
#1126 = EDGE_CURVE('',#274,#678,#1127,.T.);
#1127 = LINE('',#1128,#1129);
#1128 = CARTESIAN_POINT('',(-4.947573068555E-15,-131.1,20.2));
#1129 = VECTOR('',#1130,1.);
#1130 = DIRECTION('',(-0.,-1.,-0.));
#1131 = ORIENTED_EDGE('',*,*,#273,.T.);
#1132 = ORIENTED_EDGE('',*,*,#1126,.T.);
#1133 = CYLINDRICAL_SURFACE('',#1134,20.2);
#1134 = AXIS2_PLACEMENT_3D('',#1135,#1136,#1137);
#1135 = CARTESIAN_POINT('',(0.,-131.1,0.));
#1136 = DIRECTION('',(-0.,-1.,-0.));
#1137 = DIRECTION('',(-0.,-0.,1.));
#1138 = ADVANCED_FACE('',(#1139),#1158,.F.);
#1139 = FACE_BOUND('',#1140,.T.);
#1140 = EDGE_LOOP('',(#1141,#1150,#1156,#1157));
#1141 = ORIENTED_EDGE('',*,*,#1142,.F.);
#1142 = EDGE_CURVE('',#1143,#1143,#1145,.T.);
#1143 = VERTEX_POINT('',#1144);
#1144 = CARTESIAN_POINT('',(21.650635094611,-133.6,14.2));
#1145 = CIRCLE('',#1146,1.7);
#1146 = AXIS2_PLACEMENT_3D('',#1147,#1148,#1149);
#1147 = CARTESIAN_POINT('',(21.650635094611,-133.6,12.5));
#1148 = DIRECTION('',(0.,1.,0.));
#1149 = DIRECTION('',(-0.,-0.,1.));
#1150 = ORIENTED_EDGE('',*,*,#1151,.F.);
#1151 = EDGE_CURVE('',#285,#1143,#1152,.T.);
#1152 = LINE('',#1153,#1154);
#1153 = CARTESIAN_POINT('',(21.650635094611,-131.1,14.2));
#1154 = VECTOR('',#1155,1.);
#1155 = DIRECTION('',(-0.,-1.,-0.));
#1156 = ORIENTED_EDGE('',*,*,#284,.T.);
#1157 = ORIENTED_EDGE('',*,*,#1151,.T.);
#1158 = CYLINDRICAL_SURFACE('',#1159,1.7);
#1159 = AXIS2_PLACEMENT_3D('',#1160,#1161,#1162);
#1160 = CARTESIAN_POINT('',(21.650635094611,-131.1,12.5));
#1161 = DIRECTION('',(-0.,-1.,-0.));
#1162 = DIRECTION('',(-0.,-0.,1.));
#1163 = ADVANCED_FACE('',(#1164),#1183,.F.);
#1164 = FACE_BOUND('',#1165,.T.);
#1165 = EDGE_LOOP('',(#1166,#1175,#1181,#1182));
#1166 = ORIENTED_EDGE('',*,*,#1167,.F.);
#1167 = EDGE_CURVE('',#1168,#1168,#1170,.T.);
#1168 = VERTEX_POINT('',#1169);
#1169 = CARTESIAN_POINT('',(21.650635094611,-133.6,-10.8));
#1170 = CIRCLE('',#1171,1.7);
#1171 = AXIS2_PLACEMENT_3D('',#1172,#1173,#1174);
#1172 = CARTESIAN_POINT('',(21.650635094611,-133.6,-12.5));
#1173 = DIRECTION('',(0.,1.,0.));
#1174 = DIRECTION('',(-0.,-0.,1.));
#1175 = ORIENTED_EDGE('',*,*,#1176,.F.);
#1176 = EDGE_CURVE('',#296,#1168,#1177,.T.);
#1177 = LINE('',#1178,#1179);
#1178 = CARTESIAN_POINT('',(21.650635094611,-131.1,-10.8));
#1179 = VECTOR('',#1180,1.);
#1180 = DIRECTION('',(-0.,-1.,-0.));
#1181 = ORIENTED_EDGE('',*,*,#295,.T.);
#1182 = ORIENTED_EDGE('',*,*,#1176,.T.);
#1183 = CYLINDRICAL_SURFACE('',#1184,1.7);
#1184 = AXIS2_PLACEMENT_3D('',#1185,#1186,#1187);
#1185 = CARTESIAN_POINT('',(21.650635094611,-131.1,-12.5));
#1186 = DIRECTION('',(-0.,-1.,-0.));
#1187 = DIRECTION('',(-0.,-0.,1.));
#1188 = ADVANCED_FACE('',(#1189),#1205,.F.);
#1189 = FACE_BOUND('',#1190,.F.);
#1190 = EDGE_LOOP('',(#1191,#1192,#1198,#1199));
#1191 = ORIENTED_EDGE('',*,*,#306,.T.);
#1192 = ORIENTED_EDGE('',*,*,#1193,.T.);
#1193 = EDGE_CURVE('',#309,#538,#1194,.T.);
#1194 = LINE('',#1195,#1196);
#1195 = CARTESIAN_POINT('',(6.853075311273,-131.1,-72.2028472821));
#1196 = VECTOR('',#1197,1.);
#1197 = DIRECTION('',(-0.,-1.,-0.));
#1198 = ORIENTED_EDGE('',*,*,#537,.F.);
#1199 = ORIENTED_EDGE('',*,*,#1200,.F.);
#1200 = EDGE_CURVE('',#307,#530,#1201,.T.);
#1201 = LINE('',#1202,#1203);
#1202 = CARTESIAN_POINT('',(10.,-131.1,-73.84131112314));
#1203 = VECTOR('',#1204,1.);
#1204 = DIRECTION('',(-0.,-1.,-0.));
#1205 = CYLINDRICAL_SURFACE('',#1206,2.);
#1206 = AXIS2_PLACEMENT_3D('',#1207,#1208,#1209);
#1207 = CARTESIAN_POINT('',(8.,-131.1,-73.84131112314));
#1208 = DIRECTION('',(0.,1.,-0.));
#1209 = DIRECTION('',(-0.573462344363,-0.,0.819231920519));
#1210 = ADVANCED_FACE('',(#1211),#1222,.T.);
#1211 = FACE_BOUND('',#1212,.F.);
#1212 = EDGE_LOOP('',(#1213,#1214,#1215,#1216));
#1213 = ORIENTED_EDGE('',*,*,#317,.F.);
#1214 = ORIENTED_EDGE('',*,*,#1200,.T.);
#1215 = ORIENTED_EDGE('',*,*,#527,.F.);
#1216 = ORIENTED_EDGE('',*,*,#1217,.F.);
#1217 = EDGE_CURVE('',#318,#528,#1218,.T.);
#1218 = LINE('',#1219,#1220);
#1219 = CARTESIAN_POINT('',(10.,-131.1,-82.));
#1220 = VECTOR('',#1221,1.);
#1221 = DIRECTION('',(-0.,-1.,-0.));
#1222 = PLANE('',#1223);
#1223 = AXIS2_PLACEMENT_3D('',#1224,#1225,#1226);
#1224 = CARTESIAN_POINT('',(10.,-131.1,-73.84131112314));
#1225 = DIRECTION('',(-1.,-0.,-0.));
#1226 = DIRECTION('',(0.,0.,1.));
#1227 = ADVANCED_FACE('',(#1228),#1239,.T.);
#1228 = FACE_BOUND('',#1229,.F.);
#1229 = EDGE_LOOP('',(#1230,#1231,#1237,#1238));
#1230 = ORIENTED_EDGE('',*,*,#351,.F.);
#1231 = ORIENTED_EDGE('',*,*,#1232,.T.);
#1232 = EDGE_CURVE('',#343,#547,#1233,.T.);
#1233 = LINE('',#1234,#1235);
#1234 = CARTESIAN_POINT('',(-4.802194512803,-131.1,-80.36153615896));
#1235 = VECTOR('',#1236,1.);
#1236 = DIRECTION('',(-0.,-1.,-0.));
#1237 = ORIENTED_EDGE('',*,*,#546,.F.);
#1238 = ORIENTED_EDGE('',*,*,#1193,.F.);
#1239 = PLANE('',#1240);
#1240 = AXIS2_PLACEMENT_3D('',#1241,#1242,#1243);
#1241 = CARTESIAN_POINT('',(-4.802194512803,-131.1,-80.36153615896));
#1242 = DIRECTION('',(0.573462344363,-0.,-0.819231920519));
#1243 = DIRECTION('',(-0.819231920519,0.,-0.573462344363));
#1244 = ADVANCED_FACE('',(#1245),#1256,.F.);
#1245 = FACE_BOUND('',#1246,.F.);
#1246 = EDGE_LOOP('',(#1247,#1248,#1249,#1250));
#1247 = ORIENTED_EDGE('',*,*,#325,.T.);
#1248 = ORIENTED_EDGE('',*,*,#1217,.T.);
#1249 = ORIENTED_EDGE('',*,*,#571,.F.);
#1250 = ORIENTED_EDGE('',*,*,#1251,.F.);
#1251 = EDGE_CURVE('',#326,#564,#1252,.T.);
#1252 = LINE('',#1253,#1254);
#1253 = CARTESIAN_POINT('',(8.,-131.1,-84.));
#1254 = VECTOR('',#1255,1.);
#1255 = DIRECTION('',(-0.,-1.,-0.));
#1256 = CYLINDRICAL_SURFACE('',#1257,2.);
#1257 = AXIS2_PLACEMENT_3D('',#1258,#1259,#1260);
#1258 = CARTESIAN_POINT('',(8.,-131.1,-82.));
#1259 = DIRECTION('',(0.,1.,-0.));
#1260 = DIRECTION('',(1.,-0.,-0.));
#1261 = ADVANCED_FACE('',(#1262),#1273,.F.);
#1262 = FACE_BOUND('',#1263,.F.);
#1263 = EDGE_LOOP('',(#1264,#1265,#1271,#1272));
#1264 = ORIENTED_EDGE('',*,*,#342,.T.);
#1265 = ORIENTED_EDGE('',*,*,#1266,.T.);
#1266 = EDGE_CURVE('',#335,#555,#1267,.T.);
#1267 = LINE('',#1268,#1269);
#1268 = CARTESIAN_POINT('',(-3.655269824076,-131.1,-84.));
#1269 = VECTOR('',#1270,1.);
#1270 = DIRECTION('',(-0.,-1.,-0.));
#1271 = ORIENTED_EDGE('',*,*,#554,.F.);
#1272 = ORIENTED_EDGE('',*,*,#1232,.F.);
#1273 = CYLINDRICAL_SURFACE('',#1274,2.);
#1274 = AXIS2_PLACEMENT_3D('',#1275,#1276,#1277);
#1275 = CARTESIAN_POINT('',(-3.655269824076,-131.1,-82.));
#1276 = DIRECTION('',(-0.,1.,-0.));
#1277 = DIRECTION('',(-1.7763568394E-15,-0.,-1.));
#1278 = ADVANCED_FACE('',(#1279),#1285,.T.);
#1279 = FACE_BOUND('',#1280,.F.);
#1280 = EDGE_LOOP('',(#1281,#1282,#1283,#1284));
#1281 = ORIENTED_EDGE('',*,*,#334,.F.);
#1282 = ORIENTED_EDGE('',*,*,#1251,.T.);
#1283 = ORIENTED_EDGE('',*,*,#563,.F.);
#1284 = ORIENTED_EDGE('',*,*,#1266,.F.);
#1285 = PLANE('',#1286);
#1286 = AXIS2_PLACEMENT_3D('',#1287,#1288,#1289);
#1287 = CARTESIAN_POINT('',(8.,-131.1,-84.));
#1288 = DIRECTION('',(-0.,-0.,1.));
#1289 = DIRECTION('',(1.,0.,0.));
#1290 = ADVANCED_FACE('',(#1291),#1310,.F.);
#1291 = FACE_BOUND('',#1292,.T.);
#1292 = EDGE_LOOP('',(#1293,#1301,#1308,#1309));
#1293 = ORIENTED_EDGE('',*,*,#1294,.T.);
#1294 = EDGE_CURVE('',#360,#1295,#1297,.T.);
#1295 = VERTEX_POINT('',#1296);
#1296 = CARTESIAN_POINT('',(-1.126675055216E-15,-136.1,-125.4));
#1297 = LINE('',#1298,#1299);
#1298 = CARTESIAN_POINT('',(-1.126675055216E-15,-131.1,-125.4));
#1299 = VECTOR('',#1300,1.);
#1300 = DIRECTION('',(-0.,-1.,-0.));
#1301 = ORIENTED_EDGE('',*,*,#1302,.F.);
#1302 = EDGE_CURVE('',#1295,#1295,#1303,.T.);
#1303 = CIRCLE('',#1304,4.6);
#1304 = AXIS2_PLACEMENT_3D('',#1305,#1306,#1307);
#1305 = CARTESIAN_POINT('',(0.,-136.1,-130.));
#1306 = DIRECTION('',(0.,1.,0.));
#1307 = DIRECTION('',(-0.,-0.,1.));
#1308 = ORIENTED_EDGE('',*,*,#1294,.F.);
#1309 = ORIENTED_EDGE('',*,*,#359,.T.);
#1310 = CYLINDRICAL_SURFACE('',#1311,4.6);
#1311 = AXIS2_PLACEMENT_3D('',#1312,#1313,#1314);
#1312 = CARTESIAN_POINT('',(0.,-131.1,-130.));
#1313 = DIRECTION('',(-0.,-1.,-0.));
#1314 = DIRECTION('',(-0.,-0.,1.));
#1315 = ADVANCED_FACE('',(#1316),#1335,.T.);
#1316 = FACE_BOUND('',#1317,.F.);
#1317 = EDGE_LOOP('',(#1318,#1326,#1333,#1334));
#1318 = ORIENTED_EDGE('',*,*,#1319,.T.);
#1319 = EDGE_CURVE('',#506,#1320,#1322,.T.);
#1320 = VERTEX_POINT('',#1321);
#1321 = CARTESIAN_POINT('',(-2.08189955855E-15,-138.6,-121.5));
#1322 = LINE('',#1323,#1324);
#1323 = CARTESIAN_POINT('',(-2.08189955855E-15,-135.,-121.5));
#1324 = VECTOR('',#1325,1.);
#1325 = DIRECTION('',(-0.,-1.,-0.));
#1326 = ORIENTED_EDGE('',*,*,#1327,.F.);
#1327 = EDGE_CURVE('',#1320,#1320,#1328,.T.);
#1328 = CIRCLE('',#1329,8.5);
#1329 = AXIS2_PLACEMENT_3D('',#1330,#1331,#1332);
#1330 = CARTESIAN_POINT('',(0.,-138.6,-130.));
#1331 = DIRECTION('',(0.,1.,0.));
#1332 = DIRECTION('',(-0.,-0.,1.));
#1333 = ORIENTED_EDGE('',*,*,#1319,.F.);
#1334 = ORIENTED_EDGE('',*,*,#505,.T.);
#1335 = CYLINDRICAL_SURFACE('',#1336,8.5);
#1336 = AXIS2_PLACEMENT_3D('',#1337,#1338,#1339);
#1337 = CARTESIAN_POINT('',(0.,-135.,-130.));
#1338 = DIRECTION('',(-0.,-1.,-0.));
#1339 = DIRECTION('',(-0.,-0.,1.));
#1340 = ADVANCED_FACE('',(#1341),#1360,.T.);
#1341 = FACE_BOUND('',#1342,.F.);
#1342 = EDGE_LOOP('',(#1343,#1351,#1358,#1359));
#1343 = ORIENTED_EDGE('',*,*,#1344,.T.);
#1344 = EDGE_CURVE('',#517,#1345,#1347,.T.);
#1345 = VERTEX_POINT('',#1346);
#1346 = CARTESIAN_POINT('',(-1.102182119233E-15,-151.1,-88.5));
#1347 = LINE('',#1348,#1349);
#1348 = CARTESIAN_POINT('',(-1.102182119233E-15,-135.,-88.5));
#1349 = VECTOR('',#1350,1.);
#1350 = DIRECTION('',(-0.,-1.,-0.));
#1351 = ORIENTED_EDGE('',*,*,#1352,.F.);
#1352 = EDGE_CURVE('',#1345,#1345,#1353,.T.);
#1353 = CIRCLE('',#1354,4.5);
#1354 = AXIS2_PLACEMENT_3D('',#1355,#1356,#1357);
#1355 = CARTESIAN_POINT('',(0.,-151.1,-93.));
#1356 = DIRECTION('',(0.,1.,0.));
#1357 = DIRECTION('',(-0.,-0.,1.));
#1358 = ORIENTED_EDGE('',*,*,#1344,.F.);
#1359 = ORIENTED_EDGE('',*,*,#516,.T.);
#1360 = CYLINDRICAL_SURFACE('',#1361,4.5);
#1361 = AXIS2_PLACEMENT_3D('',#1362,#1363,#1364);
#1362 = CARTESIAN_POINT('',(0.,-135.,-93.));
#1363 = DIRECTION('',(-0.,-1.,-0.));
#1364 = DIRECTION('',(-0.,-0.,1.));
#1365 = ADVANCED_FACE('',(#1366),#1385,.T.);
#1366 = FACE_BOUND('',#1367,.F.);
#1367 = EDGE_LOOP('',(#1368,#1376,#1383,#1384));
#1368 = ORIENTED_EDGE('',*,*,#1369,.T.);
#1369 = EDGE_CURVE('',#581,#1370,#1372,.T.);
#1370 = VERTEX_POINT('',#1371);
#1371 = CARTESIAN_POINT('',(-1.102182119233E-15,-151.1,-61.5));
#1372 = LINE('',#1373,#1374);
#1373 = CARTESIAN_POINT('',(-1.102182119233E-15,-135.,-61.5));
#1374 = VECTOR('',#1375,1.);
#1375 = DIRECTION('',(-0.,-1.,-0.));
#1376 = ORIENTED_EDGE('',*,*,#1377,.F.);
#1377 = EDGE_CURVE('',#1370,#1370,#1378,.T.);
#1378 = CIRCLE('',#1379,4.5);
#1379 = AXIS2_PLACEMENT_3D('',#1380,#1381,#1382);
#1380 = CARTESIAN_POINT('',(0.,-151.1,-66.));
#1381 = DIRECTION('',(0.,1.,0.));
#1382 = DIRECTION('',(-0.,-0.,1.));
#1383 = ORIENTED_EDGE('',*,*,#1369,.F.);
#1384 = ORIENTED_EDGE('',*,*,#580,.T.);
#1385 = CYLINDRICAL_SURFACE('',#1386,4.5);
#1386 = AXIS2_PLACEMENT_3D('',#1387,#1388,#1389);
#1387 = CARTESIAN_POINT('',(0.,-135.,-66.));
#1388 = DIRECTION('',(-0.,-1.,-0.));
#1389 = DIRECTION('',(-0.,-0.,1.));
#1390 = ADVANCED_FACE('',(#1391),#1402,.F.);
#1391 = FACE_BOUND('',#1392,.T.);
#1392 = EDGE_LOOP('',(#1393,#1394,#1400,#1401));
#1393 = ORIENTED_EDGE('',*,*,#591,.F.);
#1394 = ORIENTED_EDGE('',*,*,#1395,.F.);
#1395 = EDGE_CURVE('',#847,#592,#1396,.T.);
#1396 = LINE('',#1397,#1398);
#1397 = CARTESIAN_POINT('',(-21.65063509461,-133.6,-10.8));
#1398 = VECTOR('',#1399,1.);
#1399 = DIRECTION('',(-1.731912112471E-16,-0.707106781187,0.707106781187
    ));
#1400 = ORIENTED_EDGE('',*,*,#846,.T.);
#1401 = ORIENTED_EDGE('',*,*,#1395,.T.);
#1402 = CONICAL_SURFACE('',#1403,1.7,0.785398163397);
#1403 = AXIS2_PLACEMENT_3D('',#1404,#1405,#1406);
#1404 = CARTESIAN_POINT('',(-21.65063509461,-133.6,-12.5));
#1405 = DIRECTION('',(-0.,-1.,-0.));
#1406 = DIRECTION('',(-0.,-0.,1.));
#1407 = ADVANCED_FACE('',(#1408),#1419,.F.);
#1408 = FACE_BOUND('',#1409,.T.);
#1409 = EDGE_LOOP('',(#1410,#1411,#1417,#1418));
#1410 = ORIENTED_EDGE('',*,*,#602,.F.);
#1411 = ORIENTED_EDGE('',*,*,#1412,.F.);
#1412 = EDGE_CURVE('',#822,#603,#1413,.T.);
#1413 = LINE('',#1414,#1415);
#1414 = CARTESIAN_POINT('',(-21.65063509461,-133.6,14.2));
#1415 = VECTOR('',#1416,1.);
#1416 = DIRECTION('',(-1.731912112471E-16,-0.707106781187,0.707106781187
    ));
#1417 = ORIENTED_EDGE('',*,*,#821,.T.);
#1418 = ORIENTED_EDGE('',*,*,#1412,.T.);
#1419 = CONICAL_SURFACE('',#1420,1.7,0.785398163397);
#1420 = AXIS2_PLACEMENT_3D('',#1421,#1422,#1423);
#1421 = CARTESIAN_POINT('',(-21.65063509461,-133.6,12.5));
#1422 = DIRECTION('',(-0.,-1.,-0.));
#1423 = DIRECTION('',(-0.,-0.,1.));
#1424 = ADVANCED_FACE('',(#1425),#1436,.F.);
#1425 = FACE_BOUND('',#1426,.T.);
#1426 = EDGE_LOOP('',(#1427,#1428,#1434,#1435));
#1427 = ORIENTED_EDGE('',*,*,#666,.F.);
#1428 = ORIENTED_EDGE('',*,*,#1429,.F.);
#1429 = EDGE_CURVE('',#872,#667,#1430,.T.);
#1430 = LINE('',#1431,#1432);
#1431 = CARTESIAN_POINT('',(-5.008805408513E-15,-133.6,-23.3));
#1432 = VECTOR('',#1433,1.);
#1433 = DIRECTION('',(-1.731912112471E-16,-0.707106781187,0.707106781187
    ));
#1434 = ORIENTED_EDGE('',*,*,#871,.T.);
#1435 = ORIENTED_EDGE('',*,*,#1429,.T.);
#1436 = CONICAL_SURFACE('',#1437,1.7,0.785398163397);
#1437 = AXIS2_PLACEMENT_3D('',#1438,#1439,#1440);
#1438 = CARTESIAN_POINT('',(-4.592425496803E-15,-133.6,-25.));
#1439 = DIRECTION('',(-0.,-1.,-0.));
#1440 = DIRECTION('',(-0.,-0.,1.));
#1441 = ADVANCED_FACE('',(#1442),#1453,.F.);
#1442 = FACE_BOUND('',#1443,.T.);
#1443 = EDGE_LOOP('',(#1444,#1445,#1451,#1452));
#1444 = ORIENTED_EDGE('',*,*,#688,.F.);
#1445 = ORIENTED_EDGE('',*,*,#1446,.F.);
#1446 = EDGE_CURVE('',#1101,#689,#1447,.T.);
#1447 = LINE('',#1448,#1449);
#1448 = CARTESIAN_POINT('',(1.114428587224E-15,-133.6,26.7));
#1449 = VECTOR('',#1450,1.);
#1450 = DIRECTION('',(-1.731912112471E-16,-0.707106781187,0.707106781187
    ));
#1451 = ORIENTED_EDGE('',*,*,#1100,.T.);
#1452 = ORIENTED_EDGE('',*,*,#1446,.T.);
#1453 = CONICAL_SURFACE('',#1454,1.7,0.785398163397);
#1454 = AXIS2_PLACEMENT_3D('',#1455,#1456,#1457);
#1455 = CARTESIAN_POINT('',(1.530808498934E-15,-133.6,25.));
#1456 = DIRECTION('',(-0.,-1.,-0.));
#1457 = DIRECTION('',(-0.,-0.,1.));
#1458 = ADVANCED_FACE('',(#1459),#1470,.F.);
#1459 = FACE_BOUND('',#1460,.T.);
#1460 = EDGE_LOOP('',(#1461,#1462,#1468,#1469));
#1461 = ORIENTED_EDGE('',*,*,#699,.F.);
#1462 = ORIENTED_EDGE('',*,*,#1463,.F.);
#1463 = EDGE_CURVE('',#1168,#700,#1464,.T.);
#1464 = LINE('',#1465,#1466);
#1465 = CARTESIAN_POINT('',(21.650635094611,-133.6,-10.8));
#1466 = VECTOR('',#1467,1.);
#1467 = DIRECTION('',(-1.731912112471E-16,-0.707106781187,0.707106781187
    ));
#1468 = ORIENTED_EDGE('',*,*,#1167,.T.);
#1469 = ORIENTED_EDGE('',*,*,#1463,.T.);
#1470 = CONICAL_SURFACE('',#1471,1.7,0.785398163397);
#1471 = AXIS2_PLACEMENT_3D('',#1472,#1473,#1474);
#1472 = CARTESIAN_POINT('',(21.650635094611,-133.6,-12.5));
#1473 = DIRECTION('',(-0.,-1.,-0.));
#1474 = DIRECTION('',(-0.,-0.,1.));
#1475 = ADVANCED_FACE('',(#1476),#1487,.F.);
#1476 = FACE_BOUND('',#1477,.T.);
#1477 = EDGE_LOOP('',(#1478,#1479,#1485,#1486));
#1478 = ORIENTED_EDGE('',*,*,#710,.F.);
#1479 = ORIENTED_EDGE('',*,*,#1480,.F.);
#1480 = EDGE_CURVE('',#1143,#711,#1481,.T.);
#1481 = LINE('',#1482,#1483);
#1482 = CARTESIAN_POINT('',(21.650635094611,-133.6,14.2));
#1483 = VECTOR('',#1484,1.);
#1484 = DIRECTION('',(-1.731912112471E-16,-0.707106781187,0.707106781187
    ));
#1485 = ORIENTED_EDGE('',*,*,#1142,.T.);
#1486 = ORIENTED_EDGE('',*,*,#1480,.T.);
#1487 = CONICAL_SURFACE('',#1488,1.7,0.785398163397);
#1488 = AXIS2_PLACEMENT_3D('',#1489,#1490,#1491);
#1489 = CARTESIAN_POINT('',(21.650635094611,-133.6,12.5));
#1490 = DIRECTION('',(-0.,-1.,-0.));
#1491 = DIRECTION('',(-0.,-0.,1.));
#1492 = ADVANCED_FACE('',(#1493),#1512,.T.);
#1493 = FACE_BOUND('',#1494,.F.);
#1494 = EDGE_LOOP('',(#1495,#1503,#1510,#1511));
#1495 = ORIENTED_EDGE('',*,*,#1496,.T.);
#1496 = EDGE_CURVE('',#722,#1497,#1499,.T.);
#1497 = VERTEX_POINT('',#1498);
#1498 = CARTESIAN_POINT('',(31.,-151.1,-7.5));
#1499 = LINE('',#1500,#1501);
#1500 = CARTESIAN_POINT('',(31.,-135.,-7.5));
#1501 = VECTOR('',#1502,1.);
#1502 = DIRECTION('',(-0.,-1.,-0.));
#1503 = ORIENTED_EDGE('',*,*,#1504,.F.);
#1504 = EDGE_CURVE('',#1497,#1497,#1505,.T.);
#1505 = CIRCLE('',#1506,4.5);
#1506 = AXIS2_PLACEMENT_3D('',#1507,#1508,#1509);
#1507 = CARTESIAN_POINT('',(31.,-151.1,-12.));
#1508 = DIRECTION('',(0.,1.,0.));
#1509 = DIRECTION('',(-0.,-0.,1.));
#1510 = ORIENTED_EDGE('',*,*,#1496,.F.);
#1511 = ORIENTED_EDGE('',*,*,#721,.T.);
#1512 = CYLINDRICAL_SURFACE('',#1513,4.5);
#1513 = AXIS2_PLACEMENT_3D('',#1514,#1515,#1516);
#1514 = CARTESIAN_POINT('',(31.,-135.,-12.));
#1515 = DIRECTION('',(-0.,-1.,-0.));
#1516 = DIRECTION('',(-0.,-0.,1.));
#1517 = ADVANCED_FACE('',(#1518),#1537,.T.);
#1518 = FACE_BOUND('',#1519,.F.);
#1519 = EDGE_LOOP('',(#1520,#1528,#1535,#1536));
#1520 = ORIENTED_EDGE('',*,*,#1521,.T.);
#1521 = EDGE_CURVE('',#733,#1522,#1524,.T.);
#1522 = VERTEX_POINT('',#1523);
#1523 = CARTESIAN_POINT('',(31.,-151.1,16.5));
#1524 = LINE('',#1525,#1526);
#1525 = CARTESIAN_POINT('',(31.,-135.,16.5));
#1526 = VECTOR('',#1527,1.);
#1527 = DIRECTION('',(-0.,-1.,-0.));
#1528 = ORIENTED_EDGE('',*,*,#1529,.F.);
#1529 = EDGE_CURVE('',#1522,#1522,#1530,.T.);
#1530 = CIRCLE('',#1531,4.5);
#1531 = AXIS2_PLACEMENT_3D('',#1532,#1533,#1534);
#1532 = CARTESIAN_POINT('',(31.,-151.1,12.));
#1533 = DIRECTION('',(0.,1.,0.));
#1534 = DIRECTION('',(-0.,-0.,1.));
#1535 = ORIENTED_EDGE('',*,*,#1521,.F.);
#1536 = ORIENTED_EDGE('',*,*,#732,.T.);
#1537 = CYLINDRICAL_SURFACE('',#1538,4.5);
#1538 = AXIS2_PLACEMENT_3D('',#1539,#1540,#1541);
#1539 = CARTESIAN_POINT('',(31.,-135.,12.));
#1540 = DIRECTION('',(-0.,-1.,-0.));
#1541 = DIRECTION('',(-0.,-0.,1.));
#1542 = ADVANCED_FACE('',(#1543,#1546),#1557,.F.);
#1543 = FACE_BOUND('',#1544,.T.);
#1544 = EDGE_LOOP('',(#1545));
#1545 = ORIENTED_EDGE('',*,*,#1302,.T.);
#1546 = FACE_BOUND('',#1547,.T.);
#1547 = EDGE_LOOP('',(#1548));
#1548 = ORIENTED_EDGE('',*,*,#1549,.F.);
#1549 = EDGE_CURVE('',#1550,#1550,#1552,.T.);
#1550 = VERTEX_POINT('',#1551);
#1551 = CARTESIAN_POINT('',(-9.797174393179E-16,-136.1,-126.));
#1552 = CIRCLE('',#1553,4.);
#1553 = AXIS2_PLACEMENT_3D('',#1554,#1555,#1556);
#1554 = CARTESIAN_POINT('',(0.,-136.1,-130.));
#1555 = DIRECTION('',(0.,1.,0.));
#1556 = DIRECTION('',(-0.,-0.,1.));
#1557 = PLANE('',#1558);
#1558 = AXIS2_PLACEMENT_3D('',#1559,#1560,#1561);
#1559 = CARTESIAN_POINT('',(0.,-136.1,-130.));
#1560 = DIRECTION('',(-0.,-1.,-0.));
#1561 = DIRECTION('',(0.,0.,-1.));
#1562 = ADVANCED_FACE('',(#1563,#1566),#1577,.T.);
#1563 = FACE_BOUND('',#1564,.F.);
#1564 = EDGE_LOOP('',(#1565));
#1565 = ORIENTED_EDGE('',*,*,#1327,.T.);
#1566 = FACE_BOUND('',#1567,.F.);
#1567 = EDGE_LOOP('',(#1568));
#1568 = ORIENTED_EDGE('',*,*,#1569,.F.);
#1569 = EDGE_CURVE('',#1570,#1570,#1572,.T.);
#1570 = VERTEX_POINT('',#1571);
#1571 = CARTESIAN_POINT('',(-9.797174393179E-16,-138.6,-126.));
#1572 = CIRCLE('',#1573,4.);
#1573 = AXIS2_PLACEMENT_3D('',#1574,#1575,#1576);
#1574 = CARTESIAN_POINT('',(0.,-138.6,-130.));
#1575 = DIRECTION('',(0.,1.,0.));
#1576 = DIRECTION('',(-0.,-0.,1.));
#1577 = PLANE('',#1578);
#1578 = AXIS2_PLACEMENT_3D('',#1579,#1580,#1581);
#1579 = CARTESIAN_POINT('',(0.,-138.6,-130.));
#1580 = DIRECTION('',(-0.,-1.,-0.));
#1581 = DIRECTION('',(0.,0.,-1.));
#1582 = ADVANCED_FACE('',(#1583,#1586),#1597,.T.);
#1583 = FACE_BOUND('',#1584,.F.);
#1584 = EDGE_LOOP('',(#1585));
#1585 = ORIENTED_EDGE('',*,*,#1352,.T.);
#1586 = FACE_BOUND('',#1587,.F.);
#1587 = EDGE_LOOP('',(#1588));
#1588 = ORIENTED_EDGE('',*,*,#1589,.F.);
#1589 = EDGE_CURVE('',#1590,#1590,#1592,.T.);
#1590 = VERTEX_POINT('',#1591);
#1591 = CARTESIAN_POINT('',(-3.061616997868E-16,-151.1,-91.75));
#1592 = CIRCLE('',#1593,1.25);
#1593 = AXIS2_PLACEMENT_3D('',#1594,#1595,#1596);
#1594 = CARTESIAN_POINT('',(0.,-151.1,-93.));
#1595 = DIRECTION('',(0.,1.,0.));
#1596 = DIRECTION('',(-0.,-0.,1.));
#1597 = PLANE('',#1598);
#1598 = AXIS2_PLACEMENT_3D('',#1599,#1600,#1601);
#1599 = CARTESIAN_POINT('',(0.,-151.1,-93.));
#1600 = DIRECTION('',(-0.,-1.,-0.));
#1601 = DIRECTION('',(0.,0.,-1.));
#1602 = ADVANCED_FACE('',(#1603,#1606),#1617,.T.);
#1603 = FACE_BOUND('',#1604,.F.);
#1604 = EDGE_LOOP('',(#1605));
#1605 = ORIENTED_EDGE('',*,*,#1377,.T.);
#1606 = FACE_BOUND('',#1607,.F.);
#1607 = EDGE_LOOP('',(#1608));
#1608 = ORIENTED_EDGE('',*,*,#1609,.F.);
#1609 = EDGE_CURVE('',#1610,#1610,#1612,.T.);
#1610 = VERTEX_POINT('',#1611);
#1611 = CARTESIAN_POINT('',(-3.061616997868E-16,-151.1,-64.75));
#1612 = CIRCLE('',#1613,1.25);
#1613 = AXIS2_PLACEMENT_3D('',#1614,#1615,#1616);
#1614 = CARTESIAN_POINT('',(0.,-151.1,-66.));
#1615 = DIRECTION('',(0.,1.,0.));
#1616 = DIRECTION('',(-0.,-0.,1.));
#1617 = PLANE('',#1618);
#1618 = AXIS2_PLACEMENT_3D('',#1619,#1620,#1621);
#1619 = CARTESIAN_POINT('',(0.,-151.1,-66.));
#1620 = DIRECTION('',(-0.,-1.,-0.));
#1621 = DIRECTION('',(0.,0.,-1.));
#1622 = ADVANCED_FACE('',(#1623,#1626),#1637,.T.);
#1623 = FACE_BOUND('',#1624,.F.);
#1624 = EDGE_LOOP('',(#1625));
#1625 = ORIENTED_EDGE('',*,*,#1504,.T.);
#1626 = FACE_BOUND('',#1627,.F.);
#1627 = EDGE_LOOP('',(#1628));
#1628 = ORIENTED_EDGE('',*,*,#1629,.F.);
#1629 = EDGE_CURVE('',#1630,#1630,#1632,.T.);
#1630 = VERTEX_POINT('',#1631);
#1631 = CARTESIAN_POINT('',(31.,-151.1,-10.75));
#1632 = CIRCLE('',#1633,1.25);
#1633 = AXIS2_PLACEMENT_3D('',#1634,#1635,#1636);
#1634 = CARTESIAN_POINT('',(31.,-151.1,-12.));
#1635 = DIRECTION('',(0.,1.,0.));
#1636 = DIRECTION('',(-0.,-0.,1.));
#1637 = PLANE('',#1638);
#1638 = AXIS2_PLACEMENT_3D('',#1639,#1640,#1641);
#1639 = CARTESIAN_POINT('',(31.,-151.1,-12.));
#1640 = DIRECTION('',(-0.,-1.,-0.));
#1641 = DIRECTION('',(0.,0.,-1.));
#1642 = ADVANCED_FACE('',(#1643,#1646),#1657,.T.);
#1643 = FACE_BOUND('',#1644,.F.);
#1644 = EDGE_LOOP('',(#1645));
#1645 = ORIENTED_EDGE('',*,*,#1529,.T.);
#1646 = FACE_BOUND('',#1647,.F.);
#1647 = EDGE_LOOP('',(#1648));
#1648 = ORIENTED_EDGE('',*,*,#1649,.F.);
#1649 = EDGE_CURVE('',#1650,#1650,#1652,.T.);
#1650 = VERTEX_POINT('',#1651);
#1651 = CARTESIAN_POINT('',(31.,-151.1,13.25));
#1652 = CIRCLE('',#1653,1.25);
#1653 = AXIS2_PLACEMENT_3D('',#1654,#1655,#1656);
#1654 = CARTESIAN_POINT('',(31.,-151.1,12.));
#1655 = DIRECTION('',(0.,1.,0.));
#1656 = DIRECTION('',(-0.,-0.,1.));
#1657 = PLANE('',#1658);
#1658 = AXIS2_PLACEMENT_3D('',#1659,#1660,#1661);
#1659 = CARTESIAN_POINT('',(31.,-151.1,12.));
#1660 = DIRECTION('',(-0.,-1.,-0.));
#1661 = DIRECTION('',(0.,0.,-1.));
#1662 = ADVANCED_FACE('',(#1663),#1674,.F.);
#1663 = FACE_BOUND('',#1664,.T.);
#1664 = EDGE_LOOP('',(#1665,#1671,#1672,#1673));
#1665 = ORIENTED_EDGE('',*,*,#1666,.T.);
#1666 = EDGE_CURVE('',#1550,#1570,#1667,.T.);
#1667 = LINE('',#1668,#1669);
#1668 = CARTESIAN_POINT('',(-9.797174393179E-16,-131.1,-126.));
#1669 = VECTOR('',#1670,1.);
#1670 = DIRECTION('',(-0.,-1.,-0.));
#1671 = ORIENTED_EDGE('',*,*,#1569,.F.);
#1672 = ORIENTED_EDGE('',*,*,#1666,.F.);
#1673 = ORIENTED_EDGE('',*,*,#1549,.T.);
#1674 = CYLINDRICAL_SURFACE('',#1675,4.);
#1675 = AXIS2_PLACEMENT_3D('',#1676,#1677,#1678);
#1676 = CARTESIAN_POINT('',(0.,-131.1,-130.));
#1677 = DIRECTION('',(-0.,-1.,-0.));
#1678 = DIRECTION('',(-0.,-0.,1.));
#1679 = ADVANCED_FACE('',(#1680),#1699,.F.);
#1680 = FACE_BOUND('',#1681,.T.);
#1681 = EDGE_LOOP('',(#1682,#1683,#1691,#1698));
#1682 = ORIENTED_EDGE('',*,*,#1589,.F.);
#1683 = ORIENTED_EDGE('',*,*,#1684,.F.);
#1684 = EDGE_CURVE('',#1685,#1590,#1687,.T.);
#1685 = VERTEX_POINT('',#1686);
#1686 = CARTESIAN_POINT('',(-3.061616997868E-16,-145.1,-91.75));
#1687 = LINE('',#1688,#1689);
#1688 = CARTESIAN_POINT('',(-3.061616997868E-16,-145.1,-91.75));
#1689 = VECTOR('',#1690,1.);
#1690 = DIRECTION('',(-0.,-1.,-0.));
#1691 = ORIENTED_EDGE('',*,*,#1692,.T.);
#1692 = EDGE_CURVE('',#1685,#1685,#1693,.T.);
#1693 = CIRCLE('',#1694,1.25);
#1694 = AXIS2_PLACEMENT_3D('',#1695,#1696,#1697);
#1695 = CARTESIAN_POINT('',(0.,-145.1,-93.));
#1696 = DIRECTION('',(0.,1.,0.));
#1697 = DIRECTION('',(-0.,-0.,1.));
#1698 = ORIENTED_EDGE('',*,*,#1684,.T.);
#1699 = CYLINDRICAL_SURFACE('',#1700,1.25);
#1700 = AXIS2_PLACEMENT_3D('',#1701,#1702,#1703);
#1701 = CARTESIAN_POINT('',(0.,-145.1,-93.));
#1702 = DIRECTION('',(-0.,-1.,-0.));
#1703 = DIRECTION('',(-0.,-0.,1.));
#1704 = ADVANCED_FACE('',(#1705),#1724,.F.);
#1705 = FACE_BOUND('',#1706,.T.);
#1706 = EDGE_LOOP('',(#1707,#1708,#1716,#1723));
#1707 = ORIENTED_EDGE('',*,*,#1609,.F.);
#1708 = ORIENTED_EDGE('',*,*,#1709,.F.);
#1709 = EDGE_CURVE('',#1710,#1610,#1712,.T.);
#1710 = VERTEX_POINT('',#1711);
#1711 = CARTESIAN_POINT('',(-3.061616997868E-16,-145.1,-64.75));
#1712 = LINE('',#1713,#1714);
#1713 = CARTESIAN_POINT('',(-3.061616997868E-16,-145.1,-64.75));
#1714 = VECTOR('',#1715,1.);
#1715 = DIRECTION('',(-0.,-1.,-0.));
#1716 = ORIENTED_EDGE('',*,*,#1717,.T.);
#1717 = EDGE_CURVE('',#1710,#1710,#1718,.T.);
#1718 = CIRCLE('',#1719,1.25);
#1719 = AXIS2_PLACEMENT_3D('',#1720,#1721,#1722);
#1720 = CARTESIAN_POINT('',(0.,-145.1,-66.));
#1721 = DIRECTION('',(0.,1.,0.));
#1722 = DIRECTION('',(-0.,-0.,1.));
#1723 = ORIENTED_EDGE('',*,*,#1709,.T.);
#1724 = CYLINDRICAL_SURFACE('',#1725,1.25);
#1725 = AXIS2_PLACEMENT_3D('',#1726,#1727,#1728);
#1726 = CARTESIAN_POINT('',(0.,-145.1,-66.));
#1727 = DIRECTION('',(-0.,-1.,-0.));
#1728 = DIRECTION('',(-0.,-0.,1.));
#1729 = ADVANCED_FACE('',(#1730),#1749,.F.);
#1730 = FACE_BOUND('',#1731,.T.);
#1731 = EDGE_LOOP('',(#1732,#1733,#1741,#1748));
#1732 = ORIENTED_EDGE('',*,*,#1629,.F.);
#1733 = ORIENTED_EDGE('',*,*,#1734,.F.);
#1734 = EDGE_CURVE('',#1735,#1630,#1737,.T.);
#1735 = VERTEX_POINT('',#1736);
#1736 = CARTESIAN_POINT('',(31.,-145.1,-10.75));
#1737 = LINE('',#1738,#1739);
#1738 = CARTESIAN_POINT('',(31.,-145.1,-10.75));
#1739 = VECTOR('',#1740,1.);
#1740 = DIRECTION('',(-0.,-1.,-0.));
#1741 = ORIENTED_EDGE('',*,*,#1742,.T.);
#1742 = EDGE_CURVE('',#1735,#1735,#1743,.T.);
#1743 = CIRCLE('',#1744,1.25);
#1744 = AXIS2_PLACEMENT_3D('',#1745,#1746,#1747);
#1745 = CARTESIAN_POINT('',(31.,-145.1,-12.));
#1746 = DIRECTION('',(0.,1.,0.));
#1747 = DIRECTION('',(-0.,-0.,1.));
#1748 = ORIENTED_EDGE('',*,*,#1734,.T.);
#1749 = CYLINDRICAL_SURFACE('',#1750,1.25);
#1750 = AXIS2_PLACEMENT_3D('',#1751,#1752,#1753);
#1751 = CARTESIAN_POINT('',(31.,-145.1,-12.));
#1752 = DIRECTION('',(-0.,-1.,-0.));
#1753 = DIRECTION('',(-0.,-0.,1.));
#1754 = ADVANCED_FACE('',(#1755),#1774,.F.);
#1755 = FACE_BOUND('',#1756,.T.);
#1756 = EDGE_LOOP('',(#1757,#1758,#1766,#1773));
#1757 = ORIENTED_EDGE('',*,*,#1649,.F.);
#1758 = ORIENTED_EDGE('',*,*,#1759,.F.);
#1759 = EDGE_CURVE('',#1760,#1650,#1762,.T.);
#1760 = VERTEX_POINT('',#1761);
#1761 = CARTESIAN_POINT('',(31.,-145.1,13.25));
#1762 = LINE('',#1763,#1764);
#1763 = CARTESIAN_POINT('',(31.,-145.1,13.25));
#1764 = VECTOR('',#1765,1.);
#1765 = DIRECTION('',(-0.,-1.,-0.));
#1766 = ORIENTED_EDGE('',*,*,#1767,.T.);
#1767 = EDGE_CURVE('',#1760,#1760,#1768,.T.);
#1768 = CIRCLE('',#1769,1.25);
#1769 = AXIS2_PLACEMENT_3D('',#1770,#1771,#1772);
#1770 = CARTESIAN_POINT('',(31.,-145.1,12.));
#1771 = DIRECTION('',(0.,1.,0.));
#1772 = DIRECTION('',(-0.,-0.,1.));
#1773 = ORIENTED_EDGE('',*,*,#1759,.T.);
#1774 = CYLINDRICAL_SURFACE('',#1775,1.25);
#1775 = AXIS2_PLACEMENT_3D('',#1776,#1777,#1778);
#1776 = CARTESIAN_POINT('',(31.,-145.1,12.));
#1777 = DIRECTION('',(-0.,-1.,-0.));
#1778 = DIRECTION('',(-0.,-0.,1.));
#1779 = ADVANCED_FACE('',(#1780),#1783,.T.);
#1780 = FACE_BOUND('',#1781,.T.);
#1781 = EDGE_LOOP('',(#1782));
#1782 = ORIENTED_EDGE('',*,*,#1692,.F.);
#1783 = PLANE('',#1784);
#1784 = AXIS2_PLACEMENT_3D('',#1785,#1786,#1787);
#1785 = CARTESIAN_POINT('',(0.,-145.1,-93.));
#1786 = DIRECTION('',(-0.,-1.,-0.));
#1787 = DIRECTION('',(0.,0.,-1.));
#1788 = ADVANCED_FACE('',(#1789),#1792,.T.);
#1789 = FACE_BOUND('',#1790,.T.);
#1790 = EDGE_LOOP('',(#1791));
#1791 = ORIENTED_EDGE('',*,*,#1717,.F.);
#1792 = PLANE('',#1793);
#1793 = AXIS2_PLACEMENT_3D('',#1794,#1795,#1796);
#1794 = CARTESIAN_POINT('',(0.,-145.1,-66.));
#1795 = DIRECTION('',(-0.,-1.,-0.));
#1796 = DIRECTION('',(0.,0.,-1.));
#1797 = ADVANCED_FACE('',(#1798),#1801,.T.);
#1798 = FACE_BOUND('',#1799,.T.);
#1799 = EDGE_LOOP('',(#1800));
#1800 = ORIENTED_EDGE('',*,*,#1742,.F.);
#1801 = PLANE('',#1802);
#1802 = AXIS2_PLACEMENT_3D('',#1803,#1804,#1805);
#1803 = CARTESIAN_POINT('',(31.,-145.1,-12.));
#1804 = DIRECTION('',(-0.,-1.,-0.));
#1805 = DIRECTION('',(0.,0.,-1.));
#1806 = ADVANCED_FACE('',(#1807),#1810,.T.);
#1807 = FACE_BOUND('',#1808,.T.);
#1808 = EDGE_LOOP('',(#1809));
#1809 = ORIENTED_EDGE('',*,*,#1767,.F.);
#1810 = PLANE('',#1811);
#1811 = AXIS2_PLACEMENT_3D('',#1812,#1813,#1814);
#1812 = CARTESIAN_POINT('',(31.,-145.1,12.));
#1813 = DIRECTION('',(-0.,-1.,-0.));
#1814 = DIRECTION('',(0.,0.,-1.));
#1815 = ( GEOMETRIC_REPRESENTATION_CONTEXT(3) 
GLOBAL_UNCERTAINTY_ASSIGNED_CONTEXT((#1819)) 
GLOBAL_UNIT_ASSIGNED_CONTEXT((#1816,#1817,#1818)) REPRESENTATION_CONTEXT
('Context #1','3D Context with UNIT and UNCERTAINTY') );
#1816 = ( LENGTH_UNIT() NAMED_UNIT(*) SI_UNIT(.MILLI.,.METRE.) );
#1817 = ( NAMED_UNIT(*) PLANE_ANGLE_UNIT() SI_UNIT($,.RADIAN.) );
#1818 = ( NAMED_UNIT(*) SI_UNIT($,.STERADIAN.) SOLID_ANGLE_UNIT() );
#1819 = UNCERTAINTY_MEASURE_WITH_UNIT(LENGTH_MEASURE(2.E-07),#1816,
  'distance_accuracy_value','confusion accuracy');
#1820 = PRODUCT_RELATED_PRODUCT_CATEGORY('part',$,(#7));
ENDSEC;
END-ISO-10303-21;
