ISO-10303-21;
HEADER;
FILE_DESCRIPTION(('FreeCAD Model'),'2;1');
FILE_NAME('Open CASCADE Shape Model','2026-09-22T12:05:13',('FreeCAD'),(
    'FreeCAD'),'Open CASCADE STEP processor 7.8','FreeCAD','Unknown');
FILE_SCHEMA(('AUTOMOTIVE_DESIGN { 1 0 10303 214 1 1 1 1 }'));
ENDSEC;
DATA;
#1 = APPLICATION_PROTOCOL_DEFINITION('international standard',
  'automotive_design',2000,#2);
#2 = APPLICATION_CONTEXT(
  'core data for automotive mechanical design processes');
#3 = SHAPE_DEFINITION_REPRESENTATION(#4,#10);
#4 = PRODUCT_DEFINITION_SHAPE('','',#5);
#5 = PRODUCT_DEFINITION('design','',#6,#9);
#6 = PRODUCT_DEFINITION_FORMATION('','',#7);
#7 = PRODUCT('Open CASCADE STEP translator 7.8 26',
  'Open CASCADE STEP translator 7.8 26','',(#8));
#8 = PRODUCT_CONTEXT('',#2,'mechanical');
#9 = PRODUCT_DEFINITION_CONTEXT('part definition',#2,'design');
#10 = ADVANCED_BREP_SHAPE_REPRESENTATION('',(#11,#15),#1327);
#11 = AXIS2_PLACEMENT_3D('',#12,#13,#14);
#12 = CARTESIAN_POINT('',(0.,0.,0.));
#13 = DIRECTION('',(0.,0.,1.));
#14 = DIRECTION('',(1.,0.,-0.));
#15 = MANIFOLD_SOLID_BREP('',#16);
#16 = CLOSED_SHELL('',(#17,#64,#350,#387,#657,#677,#697,#717,#729,#746,
    #768,#785,#802,#819,#836,#848,#873,#898,#920,#937,#954,#971,#988,
    #1000,#1025,#1047,#1064,#1081,#1098,#1115,#1127,#1152,#1177,#1202,
    #1219,#1236,#1253,#1270,#1290,#1310));
#17 = ADVANCED_FACE('',(#18),#56,.F.);
#18 = FACE_BOUND('',#19,.F.);
#19 = EDGE_LOOP('',(#20,#31,#39,#48));
#20 = ORIENTED_EDGE('',*,*,#21,.F.);
#21 = EDGE_CURVE('',#22,#24,#26,.T.);
#22 = VERTEX_POINT('',#23);
#23 = CARTESIAN_POINT('',(18.,-151.1,-55.));
#24 = VERTEX_POINT('',#25);
#25 = CARTESIAN_POINT('',(18.43419168727,-151.1,-47.01521643933));
#26 = B_SPLINE_CURVE_WITH_KNOTS('',3,(#27,#28,#29,#30),.UNSPECIFIED.,.F.
  ,.F.,(4,4),(0.,1.),.PIECEWISE_BEZIER_KNOTS.);
#27 = CARTESIAN_POINT('',(18.,-151.1,-55.));
#28 = CARTESIAN_POINT('',(18.,-151.1,-42.));
#29 = CARTESIAN_POINT('',(20.5,-151.1,-36.06854249492));
#30 = CARTESIAN_POINT('',(28.284271247462,-151.1,-28.28427124746));
#31 = ORIENTED_EDGE('',*,*,#32,.T.);
#32 = EDGE_CURVE('',#22,#33,#35,.T.);
#33 = VERTEX_POINT('',#34);
#34 = CARTESIAN_POINT('',(18.,-154.1,-55.));
#35 = LINE('',#36,#37);
#36 = CARTESIAN_POINT('',(18.,-151.1,-55.));
#37 = VECTOR('',#38,1.);
#38 = DIRECTION('',(-0.,-1.,-0.));
#39 = ORIENTED_EDGE('',*,*,#40,.T.);
#40 = EDGE_CURVE('',#33,#41,#43,.T.);
#41 = VERTEX_POINT('',#42);
#42 = CARTESIAN_POINT('',(18.43419168727,-154.1,-47.01521643933));
#43 = B_SPLINE_CURVE_WITH_KNOTS('',3,(#44,#45,#46,#47),.UNSPECIFIED.,.F.
  ,.F.,(4,4),(0.,1.),.PIECEWISE_BEZIER_KNOTS.);
#44 = CARTESIAN_POINT('',(18.,-154.1,-55.));
#45 = CARTESIAN_POINT('',(18.,-154.1,-42.));
#46 = CARTESIAN_POINT('',(20.5,-154.1,-36.06854249492));
#47 = CARTESIAN_POINT('',(28.284271247462,-154.1,-28.28427124746));
#48 = ORIENTED_EDGE('',*,*,#49,.T.);
#49 = EDGE_CURVE('',#41,#24,#50,.T.);
#50 = B_SPLINE_CURVE_WITH_KNOTS('',4,(#51,#52,#53,#54,#55),
  .UNSPECIFIED.,.F.,.F.,(5,5),(0.,1.),.PIECEWISE_BEZIER_KNOTS.);
#51 = CARTESIAN_POINT('',(18.434191687271,-154.1000006,-47.01521643932)
  );
#52 = CARTESIAN_POINT('',(18.434191687271,-153.3500003,-47.01521643932)
  );
#53 = CARTESIAN_POINT('',(18.434191687271,-152.6,-47.01521643932));
#54 = CARTESIAN_POINT('',(18.434191687271,-151.8499997,-47.01521643932)
  );
#55 = CARTESIAN_POINT('',(18.434191687271,-151.0999994,-47.01521643932)
  );
#56 = SURFACE_OF_LINEAR_EXTRUSION('',#57,#62);
#57 = B_SPLINE_CURVE_WITH_KNOTS('',3,(#58,#59,#60,#61),.UNSPECIFIED.,.F.
  ,.F.,(4,4),(0.,1.),.PIECEWISE_BEZIER_KNOTS.);
#58 = CARTESIAN_POINT('',(18.,-151.1,-55.));
#59 = CARTESIAN_POINT('',(18.,-151.1,-42.));
#60 = CARTESIAN_POINT('',(20.5,-151.1,-36.06854249492));
#61 = CARTESIAN_POINT('',(28.284271247462,-151.1,-28.28427124746));
#62 = VECTOR('',#63,1.);
#63 = DIRECTION('',(-0.,1.,-0.));
#64 = ADVANCED_FACE('',(#65,#120,#131,#184,#195,#206,#259,#270,#323,#334
    ),#345,.T.);
#65 = FACE_BOUND('',#66,.F.);
#66 = EDGE_LOOP('',(#67,#78,#87,#96,#105,#112,#113));
#67 = ORIENTED_EDGE('',*,*,#68,.F.);
#68 = EDGE_CURVE('',#69,#71,#73,.T.);
#69 = VERTEX_POINT('',#70);
#70 = CARTESIAN_POINT('',(-18.43419168727,-151.1,-47.01521643933));
#71 = VERTEX_POINT('',#72);
#72 = CARTESIAN_POINT('',(-1.236893267139E-14,-151.1,50.5));
#73 = CIRCLE('',#74,50.5);
#74 = AXIS2_PLACEMENT_3D('',#75,#76,#77);
#75 = CARTESIAN_POINT('',(0.,-151.1,0.));
#76 = DIRECTION('',(0.,1.,0.));
#77 = DIRECTION('',(-0.,-0.,1.));
#78 = ORIENTED_EDGE('',*,*,#79,.T.);
#79 = EDGE_CURVE('',#69,#80,#82,.T.);
#80 = VERTEX_POINT('',#81);
#81 = CARTESIAN_POINT('',(-18.,-151.1,-55.));
#82 = B_SPLINE_CURVE_WITH_KNOTS('',3,(#83,#84,#85,#86),.UNSPECIFIED.,.F.
  ,.F.,(4,4),(0.,1.),.PIECEWISE_BEZIER_KNOTS.);
#83 = CARTESIAN_POINT('',(-28.28427124746,-151.1,-28.28427124746));
#84 = CARTESIAN_POINT('',(-20.5,-151.1,-36.06854249492));
#85 = CARTESIAN_POINT('',(-18.,-151.1,-42.));
#86 = CARTESIAN_POINT('',(-18.,-151.1,-55.));
#87 = ORIENTED_EDGE('',*,*,#88,.T.);
#88 = EDGE_CURVE('',#80,#89,#91,.T.);
#89 = VERTEX_POINT('',#90);
#90 = CARTESIAN_POINT('',(-17.,-151.1,-130.));
#91 = B_SPLINE_CURVE_WITH_KNOTS('',3,(#92,#93,#94,#95),.UNSPECIFIED.,.F.
  ,.F.,(4,4),(0.,1.),.PIECEWISE_BEZIER_KNOTS.);
#92 = CARTESIAN_POINT('',(-18.,-151.1,-55.));
#93 = CARTESIAN_POINT('',(-18.,-151.1,-78.));
#94 = CARTESIAN_POINT('',(-17.,-151.1,-104.));
#95 = CARTESIAN_POINT('',(-17.,-151.1,-130.));
#96 = ORIENTED_EDGE('',*,*,#97,.T.);
#97 = EDGE_CURVE('',#89,#98,#100,.T.);
#98 = VERTEX_POINT('',#99);
#99 = CARTESIAN_POINT('',(17.,-151.1,-130.));
#100 = CIRCLE('',#101,17.);
#101 = AXIS2_PLACEMENT_3D('',#102,#103,#104);
#102 = CARTESIAN_POINT('',(0.,-151.1,-130.));
#103 = DIRECTION('',(0.,-1.,-0.));
#104 = DIRECTION('',(-1.,-0.,-0.));
#105 = ORIENTED_EDGE('',*,*,#106,.T.);
#106 = EDGE_CURVE('',#98,#22,#107,.T.);
#107 = B_SPLINE_CURVE_WITH_KNOTS('',3,(#108,#109,#110,#111),
  .UNSPECIFIED.,.F.,.F.,(4,4),(0.,1.),.PIECEWISE_BEZIER_KNOTS.);
#108 = CARTESIAN_POINT('',(17.,-151.1,-130.));
#109 = CARTESIAN_POINT('',(17.,-151.1,-104.));
#110 = CARTESIAN_POINT('',(18.,-151.1,-78.));
#111 = CARTESIAN_POINT('',(18.,-151.1,-55.));
#112 = ORIENTED_EDGE('',*,*,#21,.T.);
#113 = ORIENTED_EDGE('',*,*,#114,.F.);
#114 = EDGE_CURVE('',#71,#24,#115,.T.);
#115 = CIRCLE('',#116,50.5);
#116 = AXIS2_PLACEMENT_3D('',#117,#118,#119);
#117 = CARTESIAN_POINT('',(0.,-151.1,0.));
#118 = DIRECTION('',(0.,1.,0.));
#119 = DIRECTION('',(-0.,-0.,1.));
#120 = FACE_BOUND('',#121,.F.);
#121 = EDGE_LOOP('',(#122));
#122 = ORIENTED_EDGE('',*,*,#123,.T.);
#123 = EDGE_CURVE('',#124,#124,#126,.T.);
#124 = VERTEX_POINT('',#125);
#125 = CARTESIAN_POINT('',(-1.469576158977E-15,-151.1,6.));
#126 = CIRCLE('',#127,6.);
#127 = AXIS2_PLACEMENT_3D('',#128,#129,#130);
#128 = CARTESIAN_POINT('',(0.,-151.1,0.));
#129 = DIRECTION('',(0.,1.,0.));
#130 = DIRECTION('',(-0.,-0.,1.));
#131 = FACE_BOUND('',#132,.F.);
#132 = EDGE_LOOP('',(#133,#144,#152,#161,#169,#178));
#133 = ORIENTED_EDGE('',*,*,#134,.F.);
#134 = EDGE_CURVE('',#135,#137,#139,.T.);
#135 = VERTEX_POINT('',#136);
#136 = CARTESIAN_POINT('',(-8.,-151.1,-42.));
#137 = VERTEX_POINT('',#138);
#138 = CARTESIAN_POINT('',(-10.,-151.1,-44.));
#139 = CIRCLE('',#140,2.);
#140 = AXIS2_PLACEMENT_3D('',#141,#142,#143);
#141 = CARTESIAN_POINT('',(-8.,-151.1,-44.));
#142 = DIRECTION('',(0.,-1.,0.));
#143 = DIRECTION('',(-1.,-0.,3.5527136788E-15));
#144 = ORIENTED_EDGE('',*,*,#145,.T.);
#145 = EDGE_CURVE('',#135,#146,#148,.T.);
#146 = VERTEX_POINT('',#147);
#147 = CARTESIAN_POINT('',(3.253273710192,-151.1,-42.));
#148 = LINE('',#149,#150);
#149 = CARTESIAN_POINT('',(-4.,-151.1,-42.));
#150 = VECTOR('',#151,1.);
#151 = DIRECTION('',(1.,-0.,-0.));
#152 = ORIENTED_EDGE('',*,*,#153,.F.);
#153 = EDGE_CURVE('',#154,#146,#156,.T.);
#154 = VERTEX_POINT('',#155);
#155 = CARTESIAN_POINT('',(4.343250411383,-151.1,-45.6768872326));
#156 = CIRCLE('',#157,2.);
#157 = AXIS2_PLACEMENT_3D('',#158,#159,#160);
#158 = CARTESIAN_POINT('',(3.253273710192,-151.1,-44.));
#159 = DIRECTION('',(0.,-1.,-0.));
#160 = DIRECTION('',(1.33226762955E-15,-0.,1.));
#161 = ORIENTED_EDGE('',*,*,#162,.T.);
#162 = EDGE_CURVE('',#154,#163,#165,.T.);
#163 = VERTEX_POINT('',#164);
#164 = CARTESIAN_POINT('',(-6.910023298809,-151.1,-52.99151514422));
#165 = LINE('',#166,#167);
#166 = CARTESIAN_POINT('',(3.792034804768,-151.1,-46.0351773769));
#167 = VECTOR('',#168,1.);
#168 = DIRECTION('',(-0.838443616301,-0.,-0.544988350595));
#169 = ORIENTED_EDGE('',*,*,#170,.F.);
#170 = EDGE_CURVE('',#171,#163,#173,.T.);
#171 = VERTEX_POINT('',#172);
#172 = CARTESIAN_POINT('',(-10.,-151.1,-51.31462791162));
#173 = CIRCLE('',#174,2.);
#174 = AXIS2_PLACEMENT_3D('',#175,#176,#177);
#175 = CARTESIAN_POINT('',(-8.,-151.1,-51.31462791162));
#176 = DIRECTION('',(-0.,-1.,0.));
#177 = DIRECTION('',(0.544988350595,-0.,-0.838443616301));
#178 = ORIENTED_EDGE('',*,*,#179,.T.);
#179 = EDGE_CURVE('',#171,#137,#180,.T.);
#180 = LINE('',#181,#182);
#181 = CARTESIAN_POINT('',(-10.,-151.1,-46.36110987167));
#182 = VECTOR('',#183,1.);
#183 = DIRECTION('',(-0.,-0.,1.));
#184 = FACE_BOUND('',#185,.F.);
#185 = EDGE_LOOP('',(#186));
#186 = ORIENTED_EDGE('',*,*,#187,.T.);
#187 = EDGE_CURVE('',#188,#188,#190,.T.);
#188 = VERTEX_POINT('',#189);
#189 = CARTESIAN_POINT('',(-4.163799117101E-16,-151.1,-64.3));
#190 = CIRCLE('',#191,1.7);
#191 = AXIS2_PLACEMENT_3D('',#192,#193,#194);
#192 = CARTESIAN_POINT('',(0.,-151.1,-66.));
#193 = DIRECTION('',(0.,1.,0.));
#194 = DIRECTION('',(-0.,-0.,1.));
#195 = FACE_BOUND('',#196,.F.);
#196 = EDGE_LOOP('',(#197));
#197 = ORIENTED_EDGE('',*,*,#198,.T.);
#198 = EDGE_CURVE('',#199,#199,#201,.T.);
#199 = VERTEX_POINT('',#200);
#200 = CARTESIAN_POINT('',(-4.163799117101E-16,-151.1,-91.3));
#201 = CIRCLE('',#202,1.7);
#202 = AXIS2_PLACEMENT_3D('',#203,#204,#205);
#203 = CARTESIAN_POINT('',(0.,-151.1,-93.));
#204 = DIRECTION('',(0.,1.,0.));
#205 = DIRECTION('',(-0.,-0.,1.));
#206 = FACE_BOUND('',#207,.F.);
#207 = EDGE_LOOP('',(#208,#219,#227,#236,#244,#253));
#208 = ORIENTED_EDGE('',*,*,#209,.F.);
#209 = EDGE_CURVE('',#210,#212,#214,.T.);
#210 = VERTEX_POINT('',#211);
#211 = CARTESIAN_POINT('',(-8.,-151.1,-101.5));
#212 = VERTEX_POINT('',#213);
#213 = CARTESIAN_POINT('',(-10.,-151.1,-103.5));
#214 = CIRCLE('',#215,2.);
#215 = AXIS2_PLACEMENT_3D('',#216,#217,#218);
#216 = CARTESIAN_POINT('',(-8.,-151.1,-103.5));
#217 = DIRECTION('',(0.,-1.,0.));
#218 = DIRECTION('',(-1.,-0.,-0.));
#219 = ORIENTED_EDGE('',*,*,#220,.T.);
#220 = EDGE_CURVE('',#210,#221,#223,.T.);
#221 = VERTEX_POINT('',#222);
#222 = CARTESIAN_POINT('',(2.779365403436,-151.1,-101.5));
#223 = LINE('',#224,#225);
#224 = CARTESIAN_POINT('',(-4.,-151.1,-101.5));
#225 = VECTOR('',#226,1.);
#226 = DIRECTION('',(1.,-0.,-0.));
#227 = ORIENTED_EDGE('',*,*,#228,.F.);
#228 = EDGE_CURVE('',#229,#221,#231,.T.);
#229 = VERTEX_POINT('',#230);
#230 = CARTESIAN_POINT('',(3.808356914292,-151.1,-105.2149858514));
#231 = CIRCLE('',#232,2.);
#232 = AXIS2_PLACEMENT_3D('',#233,#234,#235);
#233 = CARTESIAN_POINT('',(2.779365403436,-151.1,-103.5));
#234 = DIRECTION('',(0.,-1.,0.));
#235 = DIRECTION('',(-2.886579864025E-15,-0.,1.));
#236 = ORIENTED_EDGE('',*,*,#237,.T.);
#237 = EDGE_CURVE('',#229,#238,#240,.T.);
#238 = VERTEX_POINT('',#239);
#239 = CARTESIAN_POINT('',(-6.971008489145,-151.1,-111.6826050934));
#240 = LINE('',#241,#242);
#241 = CARTESIAN_POINT('',(16.483386141322,-151.1,-97.6099683152));
#242 = VECTOR('',#243,1.);
#243 = DIRECTION('',(-0.857492925713,-0.,-0.514495755428));
#244 = ORIENTED_EDGE('',*,*,#245,.F.);
#245 = EDGE_CURVE('',#246,#238,#248,.T.);
#246 = VERTEX_POINT('',#247);
#247 = CARTESIAN_POINT('',(-10.,-151.1,-109.967619242));
#248 = CIRCLE('',#249,2.);
#249 = AXIS2_PLACEMENT_3D('',#250,#251,#252);
#250 = CARTESIAN_POINT('',(-8.,-151.1,-109.967619242));
#251 = DIRECTION('',(-0.,-1.,0.));
#252 = DIRECTION('',(0.514495755428,-0.,-0.857492925713));
#253 = ORIENTED_EDGE('',*,*,#254,.T.);
#254 = EDGE_CURVE('',#246,#212,#255,.T.);
#255 = LINE('',#256,#257);
#256 = CARTESIAN_POINT('',(-10.,-151.1,-75.68760553689));
#257 = VECTOR('',#258,1.);
#258 = DIRECTION('',(-0.,-0.,1.));
#259 = FACE_BOUND('',#260,.F.);
#260 = EDGE_LOOP('',(#261));
#261 = ORIENTED_EDGE('',*,*,#262,.T.);
#262 = EDGE_CURVE('',#263,#263,#265,.T.);
#263 = VERTEX_POINT('',#264);
#264 = CARTESIAN_POINT('',(-2.08189955855E-15,-151.1,-121.5));
#265 = CIRCLE('',#266,8.5);
#266 = AXIS2_PLACEMENT_3D('',#267,#268,#269);
#267 = CARTESIAN_POINT('',(0.,-151.1,-130.));
#268 = DIRECTION('',(0.,1.,0.));
#269 = DIRECTION('',(-0.,-0.,1.));
#270 = FACE_BOUND('',#271,.F.);
#271 = EDGE_LOOP('',(#272,#283,#291,#300,#308,#317));
#272 = ORIENTED_EDGE('',*,*,#273,.F.);
#273 = EDGE_CURVE('',#274,#276,#278,.T.);
#274 = VERTEX_POINT('',#275);
#275 = CARTESIAN_POINT('',(10.,-151.1,-73.84131112314));
#276 = VERTEX_POINT('',#277);
#277 = CARTESIAN_POINT('',(6.853075311273,-151.1,-72.2028472821));
#278 = CIRCLE('',#279,2.);
#279 = AXIS2_PLACEMENT_3D('',#280,#281,#282);
#280 = CARTESIAN_POINT('',(8.,-151.1,-73.84131112314));
#281 = DIRECTION('',(0.,-1.,0.));
#282 = DIRECTION('',(-0.573462344363,-0.,0.819231920519));
#283 = ORIENTED_EDGE('',*,*,#284,.T.);
#284 = EDGE_CURVE('',#274,#285,#287,.T.);
#285 = VERTEX_POINT('',#286);
#286 = CARTESIAN_POINT('',(10.,-151.1,-82.));
#287 = LINE('',#288,#289);
#288 = CARTESIAN_POINT('',(10.,-151.1,-57.62445147744));
#289 = VECTOR('',#290,1.);
#290 = DIRECTION('',(-0.,-0.,-1.));
#291 = ORIENTED_EDGE('',*,*,#292,.F.);
#292 = EDGE_CURVE('',#293,#285,#295,.T.);
#293 = VERTEX_POINT('',#294);
#294 = CARTESIAN_POINT('',(8.,-151.1,-84.));
#295 = CIRCLE('',#296,2.);
#296 = AXIS2_PLACEMENT_3D('',#297,#298,#299);
#297 = CARTESIAN_POINT('',(8.,-151.1,-82.));
#298 = DIRECTION('',(-0.,-1.,-0.));
#299 = DIRECTION('',(1.,-0.,-0.));
#300 = ORIENTED_EDGE('',*,*,#301,.T.);
#301 = EDGE_CURVE('',#293,#302,#304,.T.);
#302 = VERTEX_POINT('',#303);
#303 = CARTESIAN_POINT('',(-3.655269824076,-151.1,-84.));
#304 = LINE('',#305,#306);
#305 = CARTESIAN_POINT('',(4.,-151.1,-84.));
#306 = VECTOR('',#307,1.);
#307 = DIRECTION('',(-1.,-0.,-0.));
#308 = ORIENTED_EDGE('',*,*,#309,.F.);
#309 = EDGE_CURVE('',#310,#302,#312,.T.);
#310 = VERTEX_POINT('',#311);
#311 = CARTESIAN_POINT('',(-4.802194512803,-151.1,-80.36153615896));
#312 = CIRCLE('',#313,2.);
#313 = AXIS2_PLACEMENT_3D('',#314,#315,#316);
#314 = CARTESIAN_POINT('',(-3.655269824076,-151.1,-82.));
#315 = DIRECTION('',(0.,-1.,0.));
#316 = DIRECTION('',(-1.7763568394E-15,-0.,-1.));
#317 = ORIENTED_EDGE('',*,*,#318,.T.);
#318 = EDGE_CURVE('',#310,#276,#319,.T.);
#319 = LINE('',#320,#321);
#320 = CARTESIAN_POINT('',(5.959535534802,-151.1,-72.82832512563));
#321 = VECTOR('',#322,1.);
#322 = DIRECTION('',(0.819231920519,-0.,0.573462344363));
#323 = FACE_BOUND('',#324,.F.);
#324 = EDGE_LOOP('',(#325));
#325 = ORIENTED_EDGE('',*,*,#326,.T.);
#326 = EDGE_CURVE('',#327,#327,#329,.T.);
#327 = VERTEX_POINT('',#328);
#328 = CARTESIAN_POINT('',(31.,-151.1,13.7));
#329 = CIRCLE('',#330,1.7);
#330 = AXIS2_PLACEMENT_3D('',#331,#332,#333);
#331 = CARTESIAN_POINT('',(31.,-151.1,12.));
#332 = DIRECTION('',(0.,1.,0.));
#333 = DIRECTION('',(-0.,-0.,1.));
#334 = FACE_BOUND('',#335,.F.);
#335 = EDGE_LOOP('',(#336));
#336 = ORIENTED_EDGE('',*,*,#337,.T.);
#337 = EDGE_CURVE('',#338,#338,#340,.T.);
#338 = VERTEX_POINT('',#339);
#339 = CARTESIAN_POINT('',(31.,-151.1,-10.3));
#340 = CIRCLE('',#341,1.7);
#341 = AXIS2_PLACEMENT_3D('',#342,#343,#344);
#342 = CARTESIAN_POINT('',(31.,-151.1,-12.));
#343 = DIRECTION('',(0.,1.,0.));
#344 = DIRECTION('',(-0.,-0.,1.));
#345 = PLANE('',#346);
#346 = AXIS2_PLACEMENT_3D('',#347,#348,#349);
#347 = CARTESIAN_POINT('',(4.671192867417E-16,-151.1,-41.40759183173));
#348 = DIRECTION('',(-0.,1.,-0.));
#349 = DIRECTION('',(0.,0.,1.));
#350 = ADVANCED_FACE('',(#351),#382,.T.);
#351 = FACE_BOUND('',#352,.F.);
#352 = EDGE_LOOP('',(#353,#354,#355,#364,#373,#381));
#353 = ORIENTED_EDGE('',*,*,#114,.T.);
#354 = ORIENTED_EDGE('',*,*,#49,.F.);
#355 = ORIENTED_EDGE('',*,*,#356,.F.);
#356 = EDGE_CURVE('',#357,#41,#359,.T.);
#357 = VERTEX_POINT('',#358);
#358 = CARTESIAN_POINT('',(-1.236893267139E-14,-154.1,50.5));
#359 = CIRCLE('',#360,50.5);
#360 = AXIS2_PLACEMENT_3D('',#361,#362,#363);
#361 = CARTESIAN_POINT('',(0.,-154.1,0.));
#362 = DIRECTION('',(0.,1.,0.));
#363 = DIRECTION('',(-0.,-0.,1.));
#364 = ORIENTED_EDGE('',*,*,#365,.F.);
#365 = EDGE_CURVE('',#366,#357,#368,.T.);
#366 = VERTEX_POINT('',#367);
#367 = CARTESIAN_POINT('',(-18.43419168727,-154.1,-47.01521643933));
#368 = CIRCLE('',#369,50.5);
#369 = AXIS2_PLACEMENT_3D('',#370,#371,#372);
#370 = CARTESIAN_POINT('',(0.,-154.1,0.));
#371 = DIRECTION('',(0.,1.,0.));
#372 = DIRECTION('',(-0.,-0.,1.));
#373 = ORIENTED_EDGE('',*,*,#374,.T.);
#374 = EDGE_CURVE('',#366,#69,#375,.T.);
#375 = B_SPLINE_CURVE_WITH_KNOTS('',4,(#376,#377,#378,#379,#380),
  .UNSPECIFIED.,.F.,.F.,(5,5),(0.,1.),.PIECEWISE_BEZIER_KNOTS.);
#376 = CARTESIAN_POINT('',(-18.43419168727,-154.1000006,-47.01521643932)
  );
#377 = CARTESIAN_POINT('',(-18.43419168727,-153.3500003,-47.01521643932)
  );
#378 = CARTESIAN_POINT('',(-18.43419168727,-152.6,-47.01521643932));
#379 = CARTESIAN_POINT('',(-18.43419168727,-151.8499997,-47.01521643932)
  );
#380 = CARTESIAN_POINT('',(-18.43419168727,-151.0999994,-47.01521643932)
  );
#381 = ORIENTED_EDGE('',*,*,#68,.T.);
#382 = CYLINDRICAL_SURFACE('',#383,50.5);
#383 = AXIS2_PLACEMENT_3D('',#384,#385,#386);
#384 = CARTESIAN_POINT('',(0.,-151.1,0.));
#385 = DIRECTION('',(-0.,-1.,-0.));
#386 = DIRECTION('',(-0.,-0.,1.));
#387 = ADVANCED_FACE('',(#388,#427,#438,#491,#502,#513,#566,#619,#630,
    #641),#652,.T.);
#388 = FACE_BOUND('',#389,.F.);
#389 = EDGE_LOOP('',(#390,#391,#392,#393,#402,#411,#420));
#390 = ORIENTED_EDGE('',*,*,#365,.T.);
#391 = ORIENTED_EDGE('',*,*,#356,.T.);
#392 = ORIENTED_EDGE('',*,*,#40,.F.);
#393 = ORIENTED_EDGE('',*,*,#394,.F.);
#394 = EDGE_CURVE('',#395,#33,#397,.T.);
#395 = VERTEX_POINT('',#396);
#396 = CARTESIAN_POINT('',(17.,-154.1,-130.));
#397 = B_SPLINE_CURVE_WITH_KNOTS('',3,(#398,#399,#400,#401),
  .UNSPECIFIED.,.F.,.F.,(4,4),(0.,1.),.PIECEWISE_BEZIER_KNOTS.);
#398 = CARTESIAN_POINT('',(17.,-154.1,-130.));
#399 = CARTESIAN_POINT('',(17.,-154.1,-104.));
#400 = CARTESIAN_POINT('',(18.,-154.1,-78.));
#401 = CARTESIAN_POINT('',(18.,-154.1,-55.));
#402 = ORIENTED_EDGE('',*,*,#403,.F.);
#403 = EDGE_CURVE('',#404,#395,#406,.T.);
#404 = VERTEX_POINT('',#405);
#405 = CARTESIAN_POINT('',(-17.,-154.1,-130.));
#406 = CIRCLE('',#407,17.);
#407 = AXIS2_PLACEMENT_3D('',#408,#409,#410);
#408 = CARTESIAN_POINT('',(0.,-154.1,-130.));
#409 = DIRECTION('',(0.,-1.,-0.));
#410 = DIRECTION('',(-1.,-0.,-0.));
#411 = ORIENTED_EDGE('',*,*,#412,.F.);
#412 = EDGE_CURVE('',#413,#404,#415,.T.);
#413 = VERTEX_POINT('',#414);
#414 = CARTESIAN_POINT('',(-18.,-154.1,-55.));
#415 = B_SPLINE_CURVE_WITH_KNOTS('',3,(#416,#417,#418,#419),
  .UNSPECIFIED.,.F.,.F.,(4,4),(0.,1.),.PIECEWISE_BEZIER_KNOTS.);
#416 = CARTESIAN_POINT('',(-18.,-154.1,-55.));
#417 = CARTESIAN_POINT('',(-18.,-154.1,-78.));
#418 = CARTESIAN_POINT('',(-17.,-154.1,-104.));
#419 = CARTESIAN_POINT('',(-17.,-154.1,-130.));
#420 = ORIENTED_EDGE('',*,*,#421,.F.);
#421 = EDGE_CURVE('',#366,#413,#422,.T.);
#422 = B_SPLINE_CURVE_WITH_KNOTS('',3,(#423,#424,#425,#426),
  .UNSPECIFIED.,.F.,.F.,(4,4),(0.,1.),.PIECEWISE_BEZIER_KNOTS.);
#423 = CARTESIAN_POINT('',(-28.28427124746,-154.1,-28.28427124746));
#424 = CARTESIAN_POINT('',(-20.5,-154.1,-36.06854249492));
#425 = CARTESIAN_POINT('',(-18.,-154.1,-42.));
#426 = CARTESIAN_POINT('',(-18.,-154.1,-55.));
#427 = FACE_BOUND('',#428,.F.);
#428 = EDGE_LOOP('',(#429));
#429 = ORIENTED_EDGE('',*,*,#430,.F.);
#430 = EDGE_CURVE('',#431,#431,#433,.T.);
#431 = VERTEX_POINT('',#432);
#432 = CARTESIAN_POINT('',(-1.126675055216E-15,-154.1,-125.4));
#433 = CIRCLE('',#434,4.6);
#434 = AXIS2_PLACEMENT_3D('',#435,#436,#437);
#435 = CARTESIAN_POINT('',(0.,-154.1,-130.));
#436 = DIRECTION('',(0.,1.,0.));
#437 = DIRECTION('',(-0.,-0.,1.));
#438 = FACE_BOUND('',#439,.F.);
#439 = EDGE_LOOP('',(#440,#450,#459,#467,#476,#484));
#440 = ORIENTED_EDGE('',*,*,#441,.T.);
#441 = EDGE_CURVE('',#442,#444,#446,.T.);
#442 = VERTEX_POINT('',#443);
#443 = CARTESIAN_POINT('',(2.779365403436,-154.1,-101.5));
#444 = VERTEX_POINT('',#445);
#445 = CARTESIAN_POINT('',(-8.,-154.1,-101.5));
#446 = LINE('',#447,#448);
#447 = CARTESIAN_POINT('',(-4.,-154.1,-101.5));
#448 = VECTOR('',#449,1.);
#449 = DIRECTION('',(-1.,-0.,-0.));
#450 = ORIENTED_EDGE('',*,*,#451,.T.);
#451 = EDGE_CURVE('',#444,#452,#454,.T.);
#452 = VERTEX_POINT('',#453);
#453 = CARTESIAN_POINT('',(-10.,-154.1,-103.5));
#454 = CIRCLE('',#455,2.);
#455 = AXIS2_PLACEMENT_3D('',#456,#457,#458);
#456 = CARTESIAN_POINT('',(-8.,-154.1,-103.5));
#457 = DIRECTION('',(0.,-1.,0.));
#458 = DIRECTION('',(-1.,-0.,-0.));
#459 = ORIENTED_EDGE('',*,*,#460,.T.);
#460 = EDGE_CURVE('',#452,#461,#463,.T.);
#461 = VERTEX_POINT('',#462);
#462 = CARTESIAN_POINT('',(-10.,-154.1,-109.967619242));
#463 = LINE('',#464,#465);
#464 = CARTESIAN_POINT('',(-10.,-154.1,-75.68760553689));
#465 = VECTOR('',#466,1.);
#466 = DIRECTION('',(-0.,-0.,-1.));
#467 = ORIENTED_EDGE('',*,*,#468,.T.);
#468 = EDGE_CURVE('',#461,#469,#471,.T.);
#469 = VERTEX_POINT('',#470);
#470 = CARTESIAN_POINT('',(-6.971008489145,-154.1,-111.6826050934));
#471 = CIRCLE('',#472,2.);
#472 = AXIS2_PLACEMENT_3D('',#473,#474,#475);
#473 = CARTESIAN_POINT('',(-8.,-154.1,-109.967619242));
#474 = DIRECTION('',(-0.,-1.,0.));
#475 = DIRECTION('',(0.514495755428,-0.,-0.857492925713));
#476 = ORIENTED_EDGE('',*,*,#477,.T.);
#477 = EDGE_CURVE('',#469,#478,#480,.T.);
#478 = VERTEX_POINT('',#479);
#479 = CARTESIAN_POINT('',(3.808356914292,-154.1,-105.2149858514));
#480 = LINE('',#481,#482);
#481 = CARTESIAN_POINT('',(16.483386141322,-154.1,-97.6099683152));
#482 = VECTOR('',#483,1.);
#483 = DIRECTION('',(0.857492925713,-0.,0.514495755428));
#484 = ORIENTED_EDGE('',*,*,#485,.T.);
#485 = EDGE_CURVE('',#478,#442,#486,.T.);
#486 = CIRCLE('',#487,2.);
#487 = AXIS2_PLACEMENT_3D('',#488,#489,#490);
#488 = CARTESIAN_POINT('',(2.779365403436,-154.1,-103.5));
#489 = DIRECTION('',(0.,-1.,0.));
#490 = DIRECTION('',(-2.886579864025E-15,-0.,1.));
#491 = FACE_BOUND('',#492,.F.);
#492 = EDGE_LOOP('',(#493));
#493 = ORIENTED_EDGE('',*,*,#494,.F.);
#494 = EDGE_CURVE('',#495,#495,#497,.T.);
#495 = VERTEX_POINT('',#496);
#496 = CARTESIAN_POINT('',(-7.837739514543E-16,-154.1,-89.8));
#497 = CIRCLE('',#498,3.2);
#498 = AXIS2_PLACEMENT_3D('',#499,#500,#501);
#499 = CARTESIAN_POINT('',(0.,-154.1,-93.));
#500 = DIRECTION('',(0.,1.,0.));
#501 = DIRECTION('',(-0.,-0.,1.));
#502 = FACE_BOUND('',#503,.F.);
#503 = EDGE_LOOP('',(#504));
#504 = ORIENTED_EDGE('',*,*,#505,.F.);
#505 = EDGE_CURVE('',#506,#506,#508,.T.);
#506 = VERTEX_POINT('',#507);
#507 = CARTESIAN_POINT('',(-7.837739514543E-16,-154.1,-62.8));
#508 = CIRCLE('',#509,3.2);
#509 = AXIS2_PLACEMENT_3D('',#510,#511,#512);
#510 = CARTESIAN_POINT('',(0.,-154.1,-66.));
#511 = DIRECTION('',(0.,1.,0.));
#512 = DIRECTION('',(-0.,-0.,1.));
#513 = FACE_BOUND('',#514,.F.);
#514 = EDGE_LOOP('',(#515,#525,#534,#542,#551,#559));
#515 = ORIENTED_EDGE('',*,*,#516,.T.);
#516 = EDGE_CURVE('',#517,#519,#521,.T.);
#517 = VERTEX_POINT('',#518);
#518 = CARTESIAN_POINT('',(10.,-154.1,-82.));
#519 = VERTEX_POINT('',#520);
#520 = CARTESIAN_POINT('',(10.,-154.1,-73.84131112314));
#521 = LINE('',#522,#523);
#522 = CARTESIAN_POINT('',(10.,-154.1,-57.62445147744));
#523 = VECTOR('',#524,1.);
#524 = DIRECTION('',(-0.,-0.,1.));
#525 = ORIENTED_EDGE('',*,*,#526,.T.);
#526 = EDGE_CURVE('',#519,#527,#529,.T.);
#527 = VERTEX_POINT('',#528);
#528 = CARTESIAN_POINT('',(6.853075311273,-154.1,-72.2028472821));
#529 = CIRCLE('',#530,2.);
#530 = AXIS2_PLACEMENT_3D('',#531,#532,#533);
#531 = CARTESIAN_POINT('',(8.,-154.1,-73.84131112314));
#532 = DIRECTION('',(0.,-1.,0.));
#533 = DIRECTION('',(-0.573462344363,-0.,0.819231920519));
#534 = ORIENTED_EDGE('',*,*,#535,.T.);
#535 = EDGE_CURVE('',#527,#536,#538,.T.);
#536 = VERTEX_POINT('',#537);
#537 = CARTESIAN_POINT('',(-4.802194512803,-154.1,-80.36153615896));
#538 = LINE('',#539,#540);
#539 = CARTESIAN_POINT('',(5.959535534802,-154.1,-72.82832512563));
#540 = VECTOR('',#541,1.);
#541 = DIRECTION('',(-0.819231920519,-0.,-0.573462344363));
#542 = ORIENTED_EDGE('',*,*,#543,.T.);
#543 = EDGE_CURVE('',#536,#544,#546,.T.);
#544 = VERTEX_POINT('',#545);
#545 = CARTESIAN_POINT('',(-3.655269824076,-154.1,-84.));
#546 = CIRCLE('',#547,2.);
#547 = AXIS2_PLACEMENT_3D('',#548,#549,#550);
#548 = CARTESIAN_POINT('',(-3.655269824076,-154.1,-82.));
#549 = DIRECTION('',(0.,-1.,0.));
#550 = DIRECTION('',(-1.7763568394E-15,-0.,-1.));
#551 = ORIENTED_EDGE('',*,*,#552,.T.);
#552 = EDGE_CURVE('',#544,#553,#555,.T.);
#553 = VERTEX_POINT('',#554);
#554 = CARTESIAN_POINT('',(8.,-154.1,-84.));
#555 = LINE('',#556,#557);
#556 = CARTESIAN_POINT('',(4.,-154.1,-84.));
#557 = VECTOR('',#558,1.);
#558 = DIRECTION('',(1.,-0.,-0.));
#559 = ORIENTED_EDGE('',*,*,#560,.T.);
#560 = EDGE_CURVE('',#553,#517,#561,.T.);
#561 = CIRCLE('',#562,2.);
#562 = AXIS2_PLACEMENT_3D('',#563,#564,#565);
#563 = CARTESIAN_POINT('',(8.,-154.1,-82.));
#564 = DIRECTION('',(-0.,-1.,-0.));
#565 = DIRECTION('',(1.,-0.,-0.));
#566 = FACE_BOUND('',#567,.F.);
#567 = EDGE_LOOP('',(#568,#578,#587,#595,#604,#612));
#568 = ORIENTED_EDGE('',*,*,#569,.T.);
#569 = EDGE_CURVE('',#570,#572,#574,.T.);
#570 = VERTEX_POINT('',#571);
#571 = CARTESIAN_POINT('',(3.253273710192,-154.1,-42.));
#572 = VERTEX_POINT('',#573);
#573 = CARTESIAN_POINT('',(-8.,-154.1,-42.));
#574 = LINE('',#575,#576);
#575 = CARTESIAN_POINT('',(-4.,-154.1,-42.));
#576 = VECTOR('',#577,1.);
#577 = DIRECTION('',(-1.,-0.,-0.));
#578 = ORIENTED_EDGE('',*,*,#579,.T.);
#579 = EDGE_CURVE('',#572,#580,#582,.T.);
#580 = VERTEX_POINT('',#581);
#581 = CARTESIAN_POINT('',(-10.,-154.1,-44.));
#582 = CIRCLE('',#583,2.);
#583 = AXIS2_PLACEMENT_3D('',#584,#585,#586);
#584 = CARTESIAN_POINT('',(-8.,-154.1,-44.));
#585 = DIRECTION('',(0.,-1.,0.));
#586 = DIRECTION('',(-1.,-0.,3.5527136788E-15));
#587 = ORIENTED_EDGE('',*,*,#588,.T.);
#588 = EDGE_CURVE('',#580,#589,#591,.T.);
#589 = VERTEX_POINT('',#590);
#590 = CARTESIAN_POINT('',(-10.,-154.1,-51.31462791162));
#591 = LINE('',#592,#593);
#592 = CARTESIAN_POINT('',(-10.,-154.1,-46.36110987167));
#593 = VECTOR('',#594,1.);
#594 = DIRECTION('',(-0.,-0.,-1.));
#595 = ORIENTED_EDGE('',*,*,#596,.T.);
#596 = EDGE_CURVE('',#589,#597,#599,.T.);
#597 = VERTEX_POINT('',#598);
#598 = CARTESIAN_POINT('',(-6.910023298809,-154.1,-52.99151514422));
#599 = CIRCLE('',#600,2.);
#600 = AXIS2_PLACEMENT_3D('',#601,#602,#603);
#601 = CARTESIAN_POINT('',(-8.,-154.1,-51.31462791162));
#602 = DIRECTION('',(-0.,-1.,0.));
#603 = DIRECTION('',(0.544988350595,-0.,-0.838443616301));
#604 = ORIENTED_EDGE('',*,*,#605,.T.);
#605 = EDGE_CURVE('',#597,#606,#608,.T.);
#606 = VERTEX_POINT('',#607);
#607 = CARTESIAN_POINT('',(4.343250411383,-154.1,-45.6768872326));
#608 = LINE('',#609,#610);
#609 = CARTESIAN_POINT('',(3.792034804768,-154.1,-46.0351773769));
#610 = VECTOR('',#611,1.);
#611 = DIRECTION('',(0.838443616301,-0.,0.544988350595));
#612 = ORIENTED_EDGE('',*,*,#613,.T.);
#613 = EDGE_CURVE('',#606,#570,#614,.T.);
#614 = CIRCLE('',#615,2.);
#615 = AXIS2_PLACEMENT_3D('',#616,#617,#618);
#616 = CARTESIAN_POINT('',(3.253273710192,-154.1,-44.));
#617 = DIRECTION('',(0.,-1.,-0.));
#618 = DIRECTION('',(1.33226762955E-15,-0.,1.));
#619 = FACE_BOUND('',#620,.F.);
#620 = EDGE_LOOP('',(#621));
#621 = ORIENTED_EDGE('',*,*,#622,.F.);
#622 = EDGE_CURVE('',#623,#623,#625,.T.);
#623 = VERTEX_POINT('',#624);
#624 = CARTESIAN_POINT('',(-1.469576158977E-15,-154.1,6.));
#625 = CIRCLE('',#626,6.);
#626 = AXIS2_PLACEMENT_3D('',#627,#628,#629);
#627 = CARTESIAN_POINT('',(0.,-154.1,0.));
#628 = DIRECTION('',(0.,1.,0.));
#629 = DIRECTION('',(-0.,-0.,1.));
#630 = FACE_BOUND('',#631,.F.);
#631 = EDGE_LOOP('',(#632));
#632 = ORIENTED_EDGE('',*,*,#633,.F.);
#633 = EDGE_CURVE('',#634,#634,#636,.T.);
#634 = VERTEX_POINT('',#635);
#635 = CARTESIAN_POINT('',(31.,-154.1,-8.8));
#636 = CIRCLE('',#637,3.2);
#637 = AXIS2_PLACEMENT_3D('',#638,#639,#640);
#638 = CARTESIAN_POINT('',(31.,-154.1,-12.));
#639 = DIRECTION('',(0.,1.,0.));
#640 = DIRECTION('',(-0.,-0.,1.));
#641 = FACE_BOUND('',#642,.F.);
#642 = EDGE_LOOP('',(#643));
#643 = ORIENTED_EDGE('',*,*,#644,.F.);
#644 = EDGE_CURVE('',#645,#645,#647,.T.);
#645 = VERTEX_POINT('',#646);
#646 = CARTESIAN_POINT('',(31.,-154.1,15.2));
#647 = CIRCLE('',#648,3.2);
#648 = AXIS2_PLACEMENT_3D('',#649,#650,#651);
#649 = CARTESIAN_POINT('',(31.,-154.1,12.));
#650 = DIRECTION('',(0.,1.,0.));
#651 = DIRECTION('',(-0.,-0.,1.));
#652 = PLANE('',#653);
#653 = AXIS2_PLACEMENT_3D('',#654,#655,#656);
#654 = CARTESIAN_POINT('',(4.379243313203E-16,-154.1,-41.40759183173));
#655 = DIRECTION('',(-0.,-1.,-0.));
#656 = DIRECTION('',(0.,0.,-1.));
#657 = ADVANCED_FACE('',(#658),#669,.F.);
#658 = FACE_BOUND('',#659,.F.);
#659 = EDGE_LOOP('',(#660,#666,#667,#668));
#660 = ORIENTED_EDGE('',*,*,#661,.T.);
#661 = EDGE_CURVE('',#98,#395,#662,.T.);
#662 = LINE('',#663,#664);
#663 = CARTESIAN_POINT('',(17.,-151.1,-130.));
#664 = VECTOR('',#665,1.);
#665 = DIRECTION('',(-0.,-1.,-0.));
#666 = ORIENTED_EDGE('',*,*,#394,.T.);
#667 = ORIENTED_EDGE('',*,*,#32,.F.);
#668 = ORIENTED_EDGE('',*,*,#106,.F.);
#669 = SURFACE_OF_LINEAR_EXTRUSION('',#670,#675);
#670 = B_SPLINE_CURVE_WITH_KNOTS('',3,(#671,#672,#673,#674),
  .UNSPECIFIED.,.F.,.F.,(4,4),(0.,1.),.PIECEWISE_BEZIER_KNOTS.);
#671 = CARTESIAN_POINT('',(17.,-151.1,-130.));
#672 = CARTESIAN_POINT('',(17.,-151.1,-104.));
#673 = CARTESIAN_POINT('',(18.,-151.1,-78.));
#674 = CARTESIAN_POINT('',(18.,-151.1,-55.));
#675 = VECTOR('',#676,1.);
#676 = DIRECTION('',(-0.,1.,-0.));
#677 = ADVANCED_FACE('',(#678),#689,.F.);
#678 = FACE_BOUND('',#679,.F.);
#679 = EDGE_LOOP('',(#680,#681,#682,#683));
#680 = ORIENTED_EDGE('',*,*,#79,.F.);
#681 = ORIENTED_EDGE('',*,*,#374,.F.);
#682 = ORIENTED_EDGE('',*,*,#421,.T.);
#683 = ORIENTED_EDGE('',*,*,#684,.F.);
#684 = EDGE_CURVE('',#80,#413,#685,.T.);
#685 = LINE('',#686,#687);
#686 = CARTESIAN_POINT('',(-18.,-151.1,-55.));
#687 = VECTOR('',#688,1.);
#688 = DIRECTION('',(-0.,-1.,-0.));
#689 = SURFACE_OF_LINEAR_EXTRUSION('',#690,#695);
#690 = B_SPLINE_CURVE_WITH_KNOTS('',3,(#691,#692,#693,#694),
  .UNSPECIFIED.,.F.,.F.,(4,4),(0.,1.),.PIECEWISE_BEZIER_KNOTS.);
#691 = CARTESIAN_POINT('',(-28.28427124746,-151.1,-28.28427124746));
#692 = CARTESIAN_POINT('',(-20.5,-151.1,-36.06854249492));
#693 = CARTESIAN_POINT('',(-18.,-151.1,-42.));
#694 = CARTESIAN_POINT('',(-18.,-151.1,-55.));
#695 = VECTOR('',#696,1.);
#696 = DIRECTION('',(-0.,1.,-0.));
#697 = ADVANCED_FACE('',(#698),#709,.F.);
#698 = FACE_BOUND('',#699,.F.);
#699 = EDGE_LOOP('',(#700,#701,#702,#708));
#700 = ORIENTED_EDGE('',*,*,#684,.T.);
#701 = ORIENTED_EDGE('',*,*,#412,.T.);
#702 = ORIENTED_EDGE('',*,*,#703,.F.);
#703 = EDGE_CURVE('',#89,#404,#704,.T.);
#704 = LINE('',#705,#706);
#705 = CARTESIAN_POINT('',(-17.,-151.1,-130.));
#706 = VECTOR('',#707,1.);
#707 = DIRECTION('',(-0.,-1.,-0.));
#708 = ORIENTED_EDGE('',*,*,#88,.F.);
#709 = SURFACE_OF_LINEAR_EXTRUSION('',#710,#715);
#710 = B_SPLINE_CURVE_WITH_KNOTS('',3,(#711,#712,#713,#714),
  .UNSPECIFIED.,.F.,.F.,(4,4),(0.,1.),.PIECEWISE_BEZIER_KNOTS.);
#711 = CARTESIAN_POINT('',(-18.,-151.1,-55.));
#712 = CARTESIAN_POINT('',(-18.,-151.1,-78.));
#713 = CARTESIAN_POINT('',(-17.,-151.1,-104.));
#714 = CARTESIAN_POINT('',(-17.,-151.1,-130.));
#715 = VECTOR('',#716,1.);
#716 = DIRECTION('',(-0.,1.,-0.));
#717 = ADVANCED_FACE('',(#718),#724,.T.);
#718 = FACE_BOUND('',#719,.F.);
#719 = EDGE_LOOP('',(#720,#721,#722,#723));
#720 = ORIENTED_EDGE('',*,*,#703,.T.);
#721 = ORIENTED_EDGE('',*,*,#403,.T.);
#722 = ORIENTED_EDGE('',*,*,#661,.F.);
#723 = ORIENTED_EDGE('',*,*,#97,.F.);
#724 = CYLINDRICAL_SURFACE('',#725,17.);
#725 = AXIS2_PLACEMENT_3D('',#726,#727,#728);
#726 = CARTESIAN_POINT('',(0.,-151.1,-130.));
#727 = DIRECTION('',(-0.,1.,-0.));
#728 = DIRECTION('',(-1.,-0.,-0.));
#729 = ADVANCED_FACE('',(#730),#741,.F.);
#730 = FACE_BOUND('',#731,.T.);
#731 = EDGE_LOOP('',(#732,#733,#739,#740));
#732 = ORIENTED_EDGE('',*,*,#622,.F.);
#733 = ORIENTED_EDGE('',*,*,#734,.F.);
#734 = EDGE_CURVE('',#124,#623,#735,.T.);
#735 = LINE('',#736,#737);
#736 = CARTESIAN_POINT('',(-1.469576158977E-15,-150.1,6.));
#737 = VECTOR('',#738,1.);
#738 = DIRECTION('',(-0.,-1.,-0.));
#739 = ORIENTED_EDGE('',*,*,#123,.T.);
#740 = ORIENTED_EDGE('',*,*,#734,.T.);
#741 = CYLINDRICAL_SURFACE('',#742,6.);
#742 = AXIS2_PLACEMENT_3D('',#743,#744,#745);
#743 = CARTESIAN_POINT('',(0.,-150.1,0.));
#744 = DIRECTION('',(-0.,-1.,-0.));
#745 = DIRECTION('',(-0.,-0.,1.));
#746 = ADVANCED_FACE('',(#747),#763,.F.);
#747 = FACE_BOUND('',#748,.F.);
#748 = EDGE_LOOP('',(#749,#750,#756,#757));
#749 = ORIENTED_EDGE('',*,*,#134,.T.);
#750 = ORIENTED_EDGE('',*,*,#751,.T.);
#751 = EDGE_CURVE('',#137,#580,#752,.T.);
#752 = LINE('',#753,#754);
#753 = CARTESIAN_POINT('',(-10.,-150.1,-44.));
#754 = VECTOR('',#755,1.);
#755 = DIRECTION('',(-0.,-1.,-0.));
#756 = ORIENTED_EDGE('',*,*,#579,.F.);
#757 = ORIENTED_EDGE('',*,*,#758,.F.);
#758 = EDGE_CURVE('',#135,#572,#759,.T.);
#759 = LINE('',#760,#761);
#760 = CARTESIAN_POINT('',(-8.,-150.1,-42.));
#761 = VECTOR('',#762,1.);
#762 = DIRECTION('',(-0.,-1.,-0.));
#763 = CYLINDRICAL_SURFACE('',#764,2.);
#764 = AXIS2_PLACEMENT_3D('',#765,#766,#767);
#765 = CARTESIAN_POINT('',(-8.,-150.1,-44.));
#766 = DIRECTION('',(-0.,1.,-0.));
#767 = DIRECTION('',(-1.,-0.,3.5527136788E-15));
#768 = ADVANCED_FACE('',(#769),#780,.T.);
#769 = FACE_BOUND('',#770,.F.);
#770 = EDGE_LOOP('',(#771,#772,#773,#774));
#771 = ORIENTED_EDGE('',*,*,#145,.F.);
#772 = ORIENTED_EDGE('',*,*,#758,.T.);
#773 = ORIENTED_EDGE('',*,*,#569,.F.);
#774 = ORIENTED_EDGE('',*,*,#775,.F.);
#775 = EDGE_CURVE('',#146,#570,#776,.T.);
#776 = LINE('',#777,#778);
#777 = CARTESIAN_POINT('',(3.253273710192,-150.1,-42.));
#778 = VECTOR('',#779,1.);
#779 = DIRECTION('',(-0.,-1.,-0.));
#780 = PLANE('',#781);
#781 = AXIS2_PLACEMENT_3D('',#782,#783,#784);
#782 = CARTESIAN_POINT('',(-8.,-150.1,-42.));
#783 = DIRECTION('',(-0.,-0.,-1.));
#784 = DIRECTION('',(-1.,0.,0.));
#785 = ADVANCED_FACE('',(#786),#797,.T.);
#786 = FACE_BOUND('',#787,.F.);
#787 = EDGE_LOOP('',(#788,#789,#795,#796));
#788 = ORIENTED_EDGE('',*,*,#179,.F.);
#789 = ORIENTED_EDGE('',*,*,#790,.T.);
#790 = EDGE_CURVE('',#171,#589,#791,.T.);
#791 = LINE('',#792,#793);
#792 = CARTESIAN_POINT('',(-10.,-150.1,-51.31462791162));
#793 = VECTOR('',#794,1.);
#794 = DIRECTION('',(-0.,-1.,-0.));
#795 = ORIENTED_EDGE('',*,*,#588,.F.);
#796 = ORIENTED_EDGE('',*,*,#751,.F.);
#797 = PLANE('',#798);
#798 = AXIS2_PLACEMENT_3D('',#799,#800,#801);
#799 = CARTESIAN_POINT('',(-10.,-150.1,-51.31462791162));
#800 = DIRECTION('',(1.,-0.,-0.));
#801 = DIRECTION('',(0.,0.,-1.));
#802 = ADVANCED_FACE('',(#803),#814,.F.);
#803 = FACE_BOUND('',#804,.F.);
#804 = EDGE_LOOP('',(#805,#806,#807,#808));
#805 = ORIENTED_EDGE('',*,*,#153,.T.);
#806 = ORIENTED_EDGE('',*,*,#775,.T.);
#807 = ORIENTED_EDGE('',*,*,#613,.F.);
#808 = ORIENTED_EDGE('',*,*,#809,.F.);
#809 = EDGE_CURVE('',#154,#606,#810,.T.);
#810 = LINE('',#811,#812);
#811 = CARTESIAN_POINT('',(4.343250411383,-150.1,-45.6768872326));
#812 = VECTOR('',#813,1.);
#813 = DIRECTION('',(-0.,-1.,-0.));
#814 = CYLINDRICAL_SURFACE('',#815,2.);
#815 = AXIS2_PLACEMENT_3D('',#816,#817,#818);
#816 = CARTESIAN_POINT('',(3.253273710192,-150.1,-44.));
#817 = DIRECTION('',(-0.,1.,-0.));
#818 = DIRECTION('',(1.33226762955E-15,-0.,1.));
#819 = ADVANCED_FACE('',(#820),#831,.F.);
#820 = FACE_BOUND('',#821,.F.);
#821 = EDGE_LOOP('',(#822,#823,#829,#830));
#822 = ORIENTED_EDGE('',*,*,#170,.T.);
#823 = ORIENTED_EDGE('',*,*,#824,.T.);
#824 = EDGE_CURVE('',#163,#597,#825,.T.);
#825 = LINE('',#826,#827);
#826 = CARTESIAN_POINT('',(-6.910023298809,-150.1,-52.99151514422));
#827 = VECTOR('',#828,1.);
#828 = DIRECTION('',(-0.,-1.,-0.));
#829 = ORIENTED_EDGE('',*,*,#596,.F.);
#830 = ORIENTED_EDGE('',*,*,#790,.F.);
#831 = CYLINDRICAL_SURFACE('',#832,2.);
#832 = AXIS2_PLACEMENT_3D('',#833,#834,#835);
#833 = CARTESIAN_POINT('',(-8.,-150.1,-51.31462791162));
#834 = DIRECTION('',(-0.,1.,-0.));
#835 = DIRECTION('',(0.544988350595,-0.,-0.838443616301));
#836 = ADVANCED_FACE('',(#837),#843,.T.);
#837 = FACE_BOUND('',#838,.F.);
#838 = EDGE_LOOP('',(#839,#840,#841,#842));
#839 = ORIENTED_EDGE('',*,*,#162,.F.);
#840 = ORIENTED_EDGE('',*,*,#809,.T.);
#841 = ORIENTED_EDGE('',*,*,#605,.F.);
#842 = ORIENTED_EDGE('',*,*,#824,.F.);
#843 = PLANE('',#844);
#844 = AXIS2_PLACEMENT_3D('',#845,#846,#847);
#845 = CARTESIAN_POINT('',(4.343250411383,-150.1,-45.6768872326));
#846 = DIRECTION('',(-0.544988350595,-0.,0.838443616301));
#847 = DIRECTION('',(0.838443616301,0.,0.544988350595));
#848 = ADVANCED_FACE('',(#849),#868,.F.);
#849 = FACE_BOUND('',#850,.T.);
#850 = EDGE_LOOP('',(#851,#860,#866,#867));
#851 = ORIENTED_EDGE('',*,*,#852,.F.);
#852 = EDGE_CURVE('',#853,#853,#855,.T.);
#853 = VERTEX_POINT('',#854);
#854 = CARTESIAN_POINT('',(-4.163799117101E-16,-152.6,-64.3));
#855 = CIRCLE('',#856,1.7);
#856 = AXIS2_PLACEMENT_3D('',#857,#858,#859);
#857 = CARTESIAN_POINT('',(0.,-152.6,-66.));
#858 = DIRECTION('',(0.,1.,0.));
#859 = DIRECTION('',(-0.,-0.,1.));
#860 = ORIENTED_EDGE('',*,*,#861,.F.);
#861 = EDGE_CURVE('',#188,#853,#862,.T.);
#862 = LINE('',#863,#864);
#863 = CARTESIAN_POINT('',(-4.163799117101E-16,-150.1,-64.3));
#864 = VECTOR('',#865,1.);
#865 = DIRECTION('',(-0.,-1.,-0.));
#866 = ORIENTED_EDGE('',*,*,#187,.T.);
#867 = ORIENTED_EDGE('',*,*,#861,.T.);
#868 = CYLINDRICAL_SURFACE('',#869,1.7);
#869 = AXIS2_PLACEMENT_3D('',#870,#871,#872);
#870 = CARTESIAN_POINT('',(0.,-150.1,-66.));
#871 = DIRECTION('',(-0.,-1.,-0.));
#872 = DIRECTION('',(-0.,-0.,1.));
#873 = ADVANCED_FACE('',(#874),#893,.F.);
#874 = FACE_BOUND('',#875,.T.);
#875 = EDGE_LOOP('',(#876,#885,#891,#892));
#876 = ORIENTED_EDGE('',*,*,#877,.F.);
#877 = EDGE_CURVE('',#878,#878,#880,.T.);
#878 = VERTEX_POINT('',#879);
#879 = CARTESIAN_POINT('',(-4.163799117101E-16,-152.6,-91.3));
#880 = CIRCLE('',#881,1.7);
#881 = AXIS2_PLACEMENT_3D('',#882,#883,#884);
#882 = CARTESIAN_POINT('',(0.,-152.6,-93.));
#883 = DIRECTION('',(0.,1.,0.));
#884 = DIRECTION('',(-0.,-0.,1.));
#885 = ORIENTED_EDGE('',*,*,#886,.F.);
#886 = EDGE_CURVE('',#199,#878,#887,.T.);
#887 = LINE('',#888,#889);
#888 = CARTESIAN_POINT('',(-4.163799117101E-16,-150.1,-91.3));
#889 = VECTOR('',#890,1.);
#890 = DIRECTION('',(-0.,-1.,-0.));
#891 = ORIENTED_EDGE('',*,*,#198,.T.);
#892 = ORIENTED_EDGE('',*,*,#886,.T.);
#893 = CYLINDRICAL_SURFACE('',#894,1.7);
#894 = AXIS2_PLACEMENT_3D('',#895,#896,#897);
#895 = CARTESIAN_POINT('',(0.,-150.1,-93.));
#896 = DIRECTION('',(-0.,-1.,-0.));
#897 = DIRECTION('',(-0.,-0.,1.));
#898 = ADVANCED_FACE('',(#899),#915,.F.);
#899 = FACE_BOUND('',#900,.F.);
#900 = EDGE_LOOP('',(#901,#902,#908,#909));
#901 = ORIENTED_EDGE('',*,*,#209,.T.);
#902 = ORIENTED_EDGE('',*,*,#903,.T.);
#903 = EDGE_CURVE('',#212,#452,#904,.T.);
#904 = LINE('',#905,#906);
#905 = CARTESIAN_POINT('',(-10.,-150.1,-103.5));
#906 = VECTOR('',#907,1.);
#907 = DIRECTION('',(-0.,-1.,-0.));
#908 = ORIENTED_EDGE('',*,*,#451,.F.);
#909 = ORIENTED_EDGE('',*,*,#910,.F.);
#910 = EDGE_CURVE('',#210,#444,#911,.T.);
#911 = LINE('',#912,#913);
#912 = CARTESIAN_POINT('',(-8.,-150.1,-101.5));
#913 = VECTOR('',#914,1.);
#914 = DIRECTION('',(-0.,-1.,-0.));
#915 = CYLINDRICAL_SURFACE('',#916,2.);
#916 = AXIS2_PLACEMENT_3D('',#917,#918,#919);
#917 = CARTESIAN_POINT('',(-8.,-150.1,-103.5));
#918 = DIRECTION('',(-0.,1.,-0.));
#919 = DIRECTION('',(-1.,-0.,-0.));
#920 = ADVANCED_FACE('',(#921),#932,.T.);
#921 = FACE_BOUND('',#922,.F.);
#922 = EDGE_LOOP('',(#923,#924,#925,#926));
#923 = ORIENTED_EDGE('',*,*,#220,.F.);
#924 = ORIENTED_EDGE('',*,*,#910,.T.);
#925 = ORIENTED_EDGE('',*,*,#441,.F.);
#926 = ORIENTED_EDGE('',*,*,#927,.F.);
#927 = EDGE_CURVE('',#221,#442,#928,.T.);
#928 = LINE('',#929,#930);
#929 = CARTESIAN_POINT('',(2.779365403436,-150.1,-101.5));
#930 = VECTOR('',#931,1.);
#931 = DIRECTION('',(-0.,-1.,-0.));
#932 = PLANE('',#933);
#933 = AXIS2_PLACEMENT_3D('',#934,#935,#936);
#934 = CARTESIAN_POINT('',(-8.,-150.1,-101.5));
#935 = DIRECTION('',(-0.,-0.,-1.));
#936 = DIRECTION('',(-1.,0.,0.));
#937 = ADVANCED_FACE('',(#938),#949,.T.);
#938 = FACE_BOUND('',#939,.F.);
#939 = EDGE_LOOP('',(#940,#941,#947,#948));
#940 = ORIENTED_EDGE('',*,*,#254,.F.);
#941 = ORIENTED_EDGE('',*,*,#942,.T.);
#942 = EDGE_CURVE('',#246,#461,#943,.T.);
#943 = LINE('',#944,#945);
#944 = CARTESIAN_POINT('',(-10.,-150.1,-109.967619242));
#945 = VECTOR('',#946,1.);
#946 = DIRECTION('',(-0.,-1.,-0.));
#947 = ORIENTED_EDGE('',*,*,#460,.F.);
#948 = ORIENTED_EDGE('',*,*,#903,.F.);
#949 = PLANE('',#950);
#950 = AXIS2_PLACEMENT_3D('',#951,#952,#953);
#951 = CARTESIAN_POINT('',(-10.,-150.1,-109.967619242));
#952 = DIRECTION('',(1.,-0.,-0.));
#953 = DIRECTION('',(0.,0.,-1.));
#954 = ADVANCED_FACE('',(#955),#966,.F.);
#955 = FACE_BOUND('',#956,.F.);
#956 = EDGE_LOOP('',(#957,#958,#959,#960));
#957 = ORIENTED_EDGE('',*,*,#228,.T.);
#958 = ORIENTED_EDGE('',*,*,#927,.T.);
#959 = ORIENTED_EDGE('',*,*,#485,.F.);
#960 = ORIENTED_EDGE('',*,*,#961,.F.);
#961 = EDGE_CURVE('',#229,#478,#962,.T.);
#962 = LINE('',#963,#964);
#963 = CARTESIAN_POINT('',(3.808356914292,-150.1,-105.2149858514));
#964 = VECTOR('',#965,1.);
#965 = DIRECTION('',(-0.,-1.,-0.));
#966 = CYLINDRICAL_SURFACE('',#967,2.);
#967 = AXIS2_PLACEMENT_3D('',#968,#969,#970);
#968 = CARTESIAN_POINT('',(2.779365403436,-150.1,-103.5));
#969 = DIRECTION('',(-0.,1.,-0.));
#970 = DIRECTION('',(-2.886579864025E-15,-0.,1.));
#971 = ADVANCED_FACE('',(#972),#983,.F.);
#972 = FACE_BOUND('',#973,.F.);
#973 = EDGE_LOOP('',(#974,#975,#981,#982));
#974 = ORIENTED_EDGE('',*,*,#245,.T.);
#975 = ORIENTED_EDGE('',*,*,#976,.T.);
#976 = EDGE_CURVE('',#238,#469,#977,.T.);
#977 = LINE('',#978,#979);
#978 = CARTESIAN_POINT('',(-6.971008489145,-150.1,-111.6826050934));
#979 = VECTOR('',#980,1.);
#980 = DIRECTION('',(-0.,-1.,-0.));
#981 = ORIENTED_EDGE('',*,*,#468,.F.);
#982 = ORIENTED_EDGE('',*,*,#942,.F.);
#983 = CYLINDRICAL_SURFACE('',#984,2.);
#984 = AXIS2_PLACEMENT_3D('',#985,#986,#987);
#985 = CARTESIAN_POINT('',(-8.,-150.1,-109.967619242));
#986 = DIRECTION('',(-0.,1.,-0.));
#987 = DIRECTION('',(0.514495755428,-0.,-0.857492925713));
#988 = ADVANCED_FACE('',(#989),#995,.T.);
#989 = FACE_BOUND('',#990,.F.);
#990 = EDGE_LOOP('',(#991,#992,#993,#994));
#991 = ORIENTED_EDGE('',*,*,#237,.F.);
#992 = ORIENTED_EDGE('',*,*,#961,.T.);
#993 = ORIENTED_EDGE('',*,*,#477,.F.);
#994 = ORIENTED_EDGE('',*,*,#976,.F.);
#995 = PLANE('',#996);
#996 = AXIS2_PLACEMENT_3D('',#997,#998,#999);
#997 = CARTESIAN_POINT('',(3.808356914292,-150.1,-105.2149858514));
#998 = DIRECTION('',(-0.514495755428,-0.,0.857492925713));
#999 = DIRECTION('',(0.857492925713,0.,0.514495755428));
#1000 = ADVANCED_FACE('',(#1001),#1020,.T.);
#1001 = FACE_BOUND('',#1002,.F.);
#1002 = EDGE_LOOP('',(#1003,#1004,#1012,#1019));
#1003 = ORIENTED_EDGE('',*,*,#262,.F.);
#1004 = ORIENTED_EDGE('',*,*,#1005,.F.);
#1005 = EDGE_CURVE('',#1006,#263,#1008,.T.);
#1006 = VERTEX_POINT('',#1007);
#1007 = CARTESIAN_POINT('',(-2.08189955855E-15,-147.6,-121.5));
#1008 = LINE('',#1009,#1010);
#1009 = CARTESIAN_POINT('',(-2.08189955855E-15,-147.6,-121.5));
#1010 = VECTOR('',#1011,1.);
#1011 = DIRECTION('',(-0.,-1.,-0.));
#1012 = ORIENTED_EDGE('',*,*,#1013,.T.);
#1013 = EDGE_CURVE('',#1006,#1006,#1014,.T.);
#1014 = CIRCLE('',#1015,8.5);
#1015 = AXIS2_PLACEMENT_3D('',#1016,#1017,#1018);
#1016 = CARTESIAN_POINT('',(0.,-147.6,-130.));
#1017 = DIRECTION('',(0.,1.,0.));
#1018 = DIRECTION('',(-0.,-0.,1.));
#1019 = ORIENTED_EDGE('',*,*,#1005,.T.);
#1020 = CYLINDRICAL_SURFACE('',#1021,8.5);
#1021 = AXIS2_PLACEMENT_3D('',#1022,#1023,#1024);
#1022 = CARTESIAN_POINT('',(0.,-147.6,-130.));
#1023 = DIRECTION('',(-0.,-1.,-0.));
#1024 = DIRECTION('',(-0.,-0.,1.));
#1025 = ADVANCED_FACE('',(#1026),#1042,.F.);
#1026 = FACE_BOUND('',#1027,.F.);
#1027 = EDGE_LOOP('',(#1028,#1029,#1035,#1036));
#1028 = ORIENTED_EDGE('',*,*,#273,.T.);
#1029 = ORIENTED_EDGE('',*,*,#1030,.T.);
#1030 = EDGE_CURVE('',#276,#527,#1031,.T.);
#1031 = LINE('',#1032,#1033);
#1032 = CARTESIAN_POINT('',(6.853075311273,-150.1,-72.2028472821));
#1033 = VECTOR('',#1034,1.);
#1034 = DIRECTION('',(-0.,-1.,-0.));
#1035 = ORIENTED_EDGE('',*,*,#526,.F.);
#1036 = ORIENTED_EDGE('',*,*,#1037,.F.);
#1037 = EDGE_CURVE('',#274,#519,#1038,.T.);
#1038 = LINE('',#1039,#1040);
#1039 = CARTESIAN_POINT('',(10.,-150.1,-73.84131112314));
#1040 = VECTOR('',#1041,1.);
#1041 = DIRECTION('',(-0.,-1.,-0.));
#1042 = CYLINDRICAL_SURFACE('',#1043,2.);
#1043 = AXIS2_PLACEMENT_3D('',#1044,#1045,#1046);
#1044 = CARTESIAN_POINT('',(8.,-150.1,-73.84131112314));
#1045 = DIRECTION('',(0.,1.,-0.));
#1046 = DIRECTION('',(-0.573462344363,-0.,0.819231920519));
#1047 = ADVANCED_FACE('',(#1048),#1059,.T.);
#1048 = FACE_BOUND('',#1049,.F.);
#1049 = EDGE_LOOP('',(#1050,#1051,#1052,#1053));
#1050 = ORIENTED_EDGE('',*,*,#284,.F.);
#1051 = ORIENTED_EDGE('',*,*,#1037,.T.);
#1052 = ORIENTED_EDGE('',*,*,#516,.F.);
#1053 = ORIENTED_EDGE('',*,*,#1054,.F.);
#1054 = EDGE_CURVE('',#285,#517,#1055,.T.);
#1055 = LINE('',#1056,#1057);
#1056 = CARTESIAN_POINT('',(10.,-150.1,-82.));
#1057 = VECTOR('',#1058,1.);
#1058 = DIRECTION('',(-0.,-1.,-0.));
#1059 = PLANE('',#1060);
#1060 = AXIS2_PLACEMENT_3D('',#1061,#1062,#1063);
#1061 = CARTESIAN_POINT('',(10.,-150.1,-73.84131112314));
#1062 = DIRECTION('',(-1.,-0.,-0.));
#1063 = DIRECTION('',(0.,0.,1.));
#1064 = ADVANCED_FACE('',(#1065),#1076,.T.);
#1065 = FACE_BOUND('',#1066,.F.);
#1066 = EDGE_LOOP('',(#1067,#1068,#1074,#1075));
#1067 = ORIENTED_EDGE('',*,*,#318,.F.);
#1068 = ORIENTED_EDGE('',*,*,#1069,.T.);
#1069 = EDGE_CURVE('',#310,#536,#1070,.T.);
#1070 = LINE('',#1071,#1072);
#1071 = CARTESIAN_POINT('',(-4.802194512803,-150.1,-80.36153615896));
#1072 = VECTOR('',#1073,1.);
#1073 = DIRECTION('',(-0.,-1.,-0.));
#1074 = ORIENTED_EDGE('',*,*,#535,.F.);
#1075 = ORIENTED_EDGE('',*,*,#1030,.F.);
#1076 = PLANE('',#1077);
#1077 = AXIS2_PLACEMENT_3D('',#1078,#1079,#1080);
#1078 = CARTESIAN_POINT('',(-4.802194512803,-150.1,-80.36153615896));
#1079 = DIRECTION('',(0.573462344363,-0.,-0.819231920519));
#1080 = DIRECTION('',(-0.819231920519,0.,-0.573462344363));
#1081 = ADVANCED_FACE('',(#1082),#1093,.F.);
#1082 = FACE_BOUND('',#1083,.F.);
#1083 = EDGE_LOOP('',(#1084,#1085,#1086,#1087));
#1084 = ORIENTED_EDGE('',*,*,#292,.T.);
#1085 = ORIENTED_EDGE('',*,*,#1054,.T.);
#1086 = ORIENTED_EDGE('',*,*,#560,.F.);
#1087 = ORIENTED_EDGE('',*,*,#1088,.F.);
#1088 = EDGE_CURVE('',#293,#553,#1089,.T.);
#1089 = LINE('',#1090,#1091);
#1090 = CARTESIAN_POINT('',(8.,-150.1,-84.));
#1091 = VECTOR('',#1092,1.);
#1092 = DIRECTION('',(-0.,-1.,-0.));
#1093 = CYLINDRICAL_SURFACE('',#1094,2.);
#1094 = AXIS2_PLACEMENT_3D('',#1095,#1096,#1097);
#1095 = CARTESIAN_POINT('',(8.,-150.1,-82.));
#1096 = DIRECTION('',(0.,1.,-0.));
#1097 = DIRECTION('',(1.,-0.,-0.));
#1098 = ADVANCED_FACE('',(#1099),#1110,.F.);
#1099 = FACE_BOUND('',#1100,.F.);
#1100 = EDGE_LOOP('',(#1101,#1102,#1108,#1109));
#1101 = ORIENTED_EDGE('',*,*,#309,.T.);
#1102 = ORIENTED_EDGE('',*,*,#1103,.T.);
#1103 = EDGE_CURVE('',#302,#544,#1104,.T.);
#1104 = LINE('',#1105,#1106);
#1105 = CARTESIAN_POINT('',(-3.655269824076,-150.1,-84.));
#1106 = VECTOR('',#1107,1.);
#1107 = DIRECTION('',(-0.,-1.,-0.));
#1108 = ORIENTED_EDGE('',*,*,#543,.F.);
#1109 = ORIENTED_EDGE('',*,*,#1069,.F.);
#1110 = CYLINDRICAL_SURFACE('',#1111,2.);
#1111 = AXIS2_PLACEMENT_3D('',#1112,#1113,#1114);
#1112 = CARTESIAN_POINT('',(-3.655269824076,-150.1,-82.));
#1113 = DIRECTION('',(-0.,1.,-0.));
#1114 = DIRECTION('',(-1.7763568394E-15,-0.,-1.));
#1115 = ADVANCED_FACE('',(#1116),#1122,.T.);
#1116 = FACE_BOUND('',#1117,.F.);
#1117 = EDGE_LOOP('',(#1118,#1119,#1120,#1121));
#1118 = ORIENTED_EDGE('',*,*,#301,.F.);
#1119 = ORIENTED_EDGE('',*,*,#1088,.T.);
#1120 = ORIENTED_EDGE('',*,*,#552,.F.);
#1121 = ORIENTED_EDGE('',*,*,#1103,.F.);
#1122 = PLANE('',#1123);
#1123 = AXIS2_PLACEMENT_3D('',#1124,#1125,#1126);
#1124 = CARTESIAN_POINT('',(8.,-150.1,-84.));
#1125 = DIRECTION('',(-0.,-0.,1.));
#1126 = DIRECTION('',(1.,0.,0.));
#1127 = ADVANCED_FACE('',(#1128),#1147,.F.);
#1128 = FACE_BOUND('',#1129,.T.);
#1129 = EDGE_LOOP('',(#1130,#1139,#1145,#1146));
#1130 = ORIENTED_EDGE('',*,*,#1131,.F.);
#1131 = EDGE_CURVE('',#1132,#1132,#1134,.T.);
#1132 = VERTEX_POINT('',#1133);
#1133 = CARTESIAN_POINT('',(31.,-152.6,13.7));
#1134 = CIRCLE('',#1135,1.7);
#1135 = AXIS2_PLACEMENT_3D('',#1136,#1137,#1138);
#1136 = CARTESIAN_POINT('',(31.,-152.6,12.));
#1137 = DIRECTION('',(0.,1.,0.));
#1138 = DIRECTION('',(-0.,-0.,1.));
#1139 = ORIENTED_EDGE('',*,*,#1140,.F.);
#1140 = EDGE_CURVE('',#327,#1132,#1141,.T.);
#1141 = LINE('',#1142,#1143);
#1142 = CARTESIAN_POINT('',(31.,-150.1,13.7));
#1143 = VECTOR('',#1144,1.);
#1144 = DIRECTION('',(-0.,-1.,-0.));
#1145 = ORIENTED_EDGE('',*,*,#326,.T.);
#1146 = ORIENTED_EDGE('',*,*,#1140,.T.);
#1147 = CYLINDRICAL_SURFACE('',#1148,1.7);
#1148 = AXIS2_PLACEMENT_3D('',#1149,#1150,#1151);
#1149 = CARTESIAN_POINT('',(31.,-150.1,12.));
#1150 = DIRECTION('',(-0.,-1.,-0.));
#1151 = DIRECTION('',(-0.,-0.,1.));
#1152 = ADVANCED_FACE('',(#1153),#1172,.F.);
#1153 = FACE_BOUND('',#1154,.T.);
#1154 = EDGE_LOOP('',(#1155,#1164,#1170,#1171));
#1155 = ORIENTED_EDGE('',*,*,#1156,.F.);
#1156 = EDGE_CURVE('',#1157,#1157,#1159,.T.);
#1157 = VERTEX_POINT('',#1158);
#1158 = CARTESIAN_POINT('',(31.,-152.6,-10.3));
#1159 = CIRCLE('',#1160,1.7);
#1160 = AXIS2_PLACEMENT_3D('',#1161,#1162,#1163);
#1161 = CARTESIAN_POINT('',(31.,-152.6,-12.));
#1162 = DIRECTION('',(0.,1.,0.));
#1163 = DIRECTION('',(-0.,-0.,1.));
#1164 = ORIENTED_EDGE('',*,*,#1165,.F.);
#1165 = EDGE_CURVE('',#338,#1157,#1166,.T.);
#1166 = LINE('',#1167,#1168);
#1167 = CARTESIAN_POINT('',(31.,-150.1,-10.3));
#1168 = VECTOR('',#1169,1.);
#1169 = DIRECTION('',(-0.,-1.,-0.));
#1170 = ORIENTED_EDGE('',*,*,#337,.T.);
#1171 = ORIENTED_EDGE('',*,*,#1165,.T.);
#1172 = CYLINDRICAL_SURFACE('',#1173,1.7);
#1173 = AXIS2_PLACEMENT_3D('',#1174,#1175,#1176);
#1174 = CARTESIAN_POINT('',(31.,-150.1,-12.));
#1175 = DIRECTION('',(-0.,-1.,-0.));
#1176 = DIRECTION('',(-0.,-0.,1.));
#1177 = ADVANCED_FACE('',(#1178),#1197,.F.);
#1178 = FACE_BOUND('',#1179,.T.);
#1179 = EDGE_LOOP('',(#1180,#1181,#1189,#1196));
#1180 = ORIENTED_EDGE('',*,*,#430,.F.);
#1181 = ORIENTED_EDGE('',*,*,#1182,.F.);
#1182 = EDGE_CURVE('',#1183,#431,#1185,.T.);
#1183 = VERTEX_POINT('',#1184);
#1184 = CARTESIAN_POINT('',(-1.126675055216E-15,-150.1,-125.4));
#1185 = LINE('',#1186,#1187);
#1186 = CARTESIAN_POINT('',(-1.126675055216E-15,-150.1,-125.4));
#1187 = VECTOR('',#1188,1.);
#1188 = DIRECTION('',(-0.,-1.,-0.));
#1189 = ORIENTED_EDGE('',*,*,#1190,.T.);
#1190 = EDGE_CURVE('',#1183,#1183,#1191,.T.);
#1191 = CIRCLE('',#1192,4.6);
#1192 = AXIS2_PLACEMENT_3D('',#1193,#1194,#1195);
#1193 = CARTESIAN_POINT('',(0.,-150.1,-130.));
#1194 = DIRECTION('',(0.,1.,0.));
#1195 = DIRECTION('',(-0.,-0.,1.));
#1196 = ORIENTED_EDGE('',*,*,#1182,.T.);
#1197 = CYLINDRICAL_SURFACE('',#1198,4.6);
#1198 = AXIS2_PLACEMENT_3D('',#1199,#1200,#1201);
#1199 = CARTESIAN_POINT('',(0.,-150.1,-130.));
#1200 = DIRECTION('',(-0.,-1.,-0.));
#1201 = DIRECTION('',(-0.,-0.,1.));
#1202 = ADVANCED_FACE('',(#1203),#1214,.F.);
#1203 = FACE_BOUND('',#1204,.T.);
#1204 = EDGE_LOOP('',(#1205,#1206,#1212,#1213));
#1205 = ORIENTED_EDGE('',*,*,#494,.F.);
#1206 = ORIENTED_EDGE('',*,*,#1207,.F.);
#1207 = EDGE_CURVE('',#878,#495,#1208,.T.);
#1208 = LINE('',#1209,#1210);
#1209 = CARTESIAN_POINT('',(-4.163799117101E-16,-152.6,-91.3));
#1210 = VECTOR('',#1211,1.);
#1211 = DIRECTION('',(-1.731912112471E-16,-0.707106781187,0.707106781187
    ));
#1212 = ORIENTED_EDGE('',*,*,#877,.T.);
#1213 = ORIENTED_EDGE('',*,*,#1207,.T.);
#1214 = CONICAL_SURFACE('',#1215,1.7,0.785398163397);
#1215 = AXIS2_PLACEMENT_3D('',#1216,#1217,#1218);
#1216 = CARTESIAN_POINT('',(0.,-152.6,-93.));
#1217 = DIRECTION('',(-0.,-1.,-0.));
#1218 = DIRECTION('',(-0.,-0.,1.));
#1219 = ADVANCED_FACE('',(#1220),#1231,.F.);
#1220 = FACE_BOUND('',#1221,.T.);
#1221 = EDGE_LOOP('',(#1222,#1223,#1229,#1230));
#1222 = ORIENTED_EDGE('',*,*,#505,.F.);
#1223 = ORIENTED_EDGE('',*,*,#1224,.F.);
#1224 = EDGE_CURVE('',#853,#506,#1225,.T.);
#1225 = LINE('',#1226,#1227);
#1226 = CARTESIAN_POINT('',(-4.163799117101E-16,-152.6,-64.3));
#1227 = VECTOR('',#1228,1.);
#1228 = DIRECTION('',(-1.731912112471E-16,-0.707106781187,0.707106781187
    ));
#1229 = ORIENTED_EDGE('',*,*,#852,.T.);
#1230 = ORIENTED_EDGE('',*,*,#1224,.T.);
#1231 = CONICAL_SURFACE('',#1232,1.7,0.785398163397);
#1232 = AXIS2_PLACEMENT_3D('',#1233,#1234,#1235);
#1233 = CARTESIAN_POINT('',(0.,-152.6,-66.));
#1234 = DIRECTION('',(-0.,-1.,-0.));
#1235 = DIRECTION('',(-0.,-0.,1.));
#1236 = ADVANCED_FACE('',(#1237),#1248,.F.);
#1237 = FACE_BOUND('',#1238,.T.);
#1238 = EDGE_LOOP('',(#1239,#1240,#1246,#1247));
#1239 = ORIENTED_EDGE('',*,*,#633,.F.);
#1240 = ORIENTED_EDGE('',*,*,#1241,.F.);
#1241 = EDGE_CURVE('',#1157,#634,#1242,.T.);
#1242 = LINE('',#1243,#1244);
#1243 = CARTESIAN_POINT('',(31.,-152.6,-10.3));
#1244 = VECTOR('',#1245,1.);
#1245 = DIRECTION('',(-1.731912112471E-16,-0.707106781187,0.707106781187
    ));
#1246 = ORIENTED_EDGE('',*,*,#1156,.T.);
#1247 = ORIENTED_EDGE('',*,*,#1241,.T.);
#1248 = CONICAL_SURFACE('',#1249,1.7,0.785398163397);
#1249 = AXIS2_PLACEMENT_3D('',#1250,#1251,#1252);
#1250 = CARTESIAN_POINT('',(31.,-152.6,-12.));
#1251 = DIRECTION('',(-0.,-1.,-0.));
#1252 = DIRECTION('',(-0.,-0.,1.));
#1253 = ADVANCED_FACE('',(#1254),#1265,.F.);
#1254 = FACE_BOUND('',#1255,.T.);
#1255 = EDGE_LOOP('',(#1256,#1257,#1263,#1264));
#1256 = ORIENTED_EDGE('',*,*,#644,.F.);
#1257 = ORIENTED_EDGE('',*,*,#1258,.F.);
#1258 = EDGE_CURVE('',#1132,#645,#1259,.T.);
#1259 = LINE('',#1260,#1261);
#1260 = CARTESIAN_POINT('',(31.,-152.6,13.7));
#1261 = VECTOR('',#1262,1.);
#1262 = DIRECTION('',(-1.731912112471E-16,-0.707106781187,0.707106781187
    ));
#1263 = ORIENTED_EDGE('',*,*,#1131,.T.);
#1264 = ORIENTED_EDGE('',*,*,#1258,.T.);
#1265 = CONICAL_SURFACE('',#1266,1.7,0.785398163397);
#1266 = AXIS2_PLACEMENT_3D('',#1267,#1268,#1269);
#1267 = CARTESIAN_POINT('',(31.,-152.6,12.));
#1268 = DIRECTION('',(-0.,-1.,-0.));
#1269 = DIRECTION('',(-0.,-0.,1.));
#1270 = ADVANCED_FACE('',(#1271,#1274),#1285,.F.);
#1271 = FACE_BOUND('',#1272,.T.);
#1272 = EDGE_LOOP('',(#1273));
#1273 = ORIENTED_EDGE('',*,*,#1013,.T.);
#1274 = FACE_BOUND('',#1275,.T.);
#1275 = EDGE_LOOP('',(#1276));
#1276 = ORIENTED_EDGE('',*,*,#1277,.F.);
#1277 = EDGE_CURVE('',#1278,#1278,#1280,.T.);
#1278 = VERTEX_POINT('',#1279);
#1279 = CARTESIAN_POINT('',(-9.797174393179E-16,-147.6,-126.));
#1280 = CIRCLE('',#1281,4.);
#1281 = AXIS2_PLACEMENT_3D('',#1282,#1283,#1284);
#1282 = CARTESIAN_POINT('',(0.,-147.6,-130.));
#1283 = DIRECTION('',(0.,1.,0.));
#1284 = DIRECTION('',(-0.,-0.,1.));
#1285 = PLANE('',#1286);
#1286 = AXIS2_PLACEMENT_3D('',#1287,#1288,#1289);
#1287 = CARTESIAN_POINT('',(0.,-147.6,-130.));
#1288 = DIRECTION('',(-0.,-1.,-0.));
#1289 = DIRECTION('',(0.,0.,-1.));
#1290 = ADVANCED_FACE('',(#1291,#1294),#1305,.T.);
#1291 = FACE_BOUND('',#1292,.F.);
#1292 = EDGE_LOOP('',(#1293));
#1293 = ORIENTED_EDGE('',*,*,#1190,.T.);
#1294 = FACE_BOUND('',#1295,.F.);
#1295 = EDGE_LOOP('',(#1296));
#1296 = ORIENTED_EDGE('',*,*,#1297,.F.);
#1297 = EDGE_CURVE('',#1298,#1298,#1300,.T.);
#1298 = VERTEX_POINT('',#1299);
#1299 = CARTESIAN_POINT('',(-9.797174393179E-16,-150.1,-126.));
#1300 = CIRCLE('',#1301,4.);
#1301 = AXIS2_PLACEMENT_3D('',#1302,#1303,#1304);
#1302 = CARTESIAN_POINT('',(0.,-150.1,-130.));
#1303 = DIRECTION('',(0.,1.,0.));
#1304 = DIRECTION('',(-0.,-0.,1.));
#1305 = PLANE('',#1306);
#1306 = AXIS2_PLACEMENT_3D('',#1307,#1308,#1309);
#1307 = CARTESIAN_POINT('',(0.,-150.1,-130.));
#1308 = DIRECTION('',(-0.,-1.,-0.));
#1309 = DIRECTION('',(0.,0.,-1.));
#1310 = ADVANCED_FACE('',(#1311),#1322,.F.);
#1311 = FACE_BOUND('',#1312,.T.);
#1312 = EDGE_LOOP('',(#1313,#1314,#1320,#1321));
#1313 = ORIENTED_EDGE('',*,*,#1297,.F.);
#1314 = ORIENTED_EDGE('',*,*,#1315,.F.);
#1315 = EDGE_CURVE('',#1278,#1298,#1316,.T.);
#1316 = LINE('',#1317,#1318);
#1317 = CARTESIAN_POINT('',(-9.797174393179E-16,-131.1,-126.));
#1318 = VECTOR('',#1319,1.);
#1319 = DIRECTION('',(-0.,-1.,-0.));
#1320 = ORIENTED_EDGE('',*,*,#1277,.T.);
#1321 = ORIENTED_EDGE('',*,*,#1315,.T.);
#1322 = CYLINDRICAL_SURFACE('',#1323,4.);
#1323 = AXIS2_PLACEMENT_3D('',#1324,#1325,#1326);
#1324 = CARTESIAN_POINT('',(0.,-131.1,-130.));
#1325 = DIRECTION('',(-0.,-1.,-0.));
#1326 = DIRECTION('',(-0.,-0.,1.));
#1327 = ( GEOMETRIC_REPRESENTATION_CONTEXT(3) 
GLOBAL_UNCERTAINTY_ASSIGNED_CONTEXT((#1331)) 
GLOBAL_UNIT_ASSIGNED_CONTEXT((#1328,#1329,#1330)) REPRESENTATION_CONTEXT
('Context #1','3D Context with UNIT and UNCERTAINTY') );
#1328 = ( LENGTH_UNIT() NAMED_UNIT(*) SI_UNIT(.MILLI.,.METRE.) );
#1329 = ( NAMED_UNIT(*) PLANE_ANGLE_UNIT() SI_UNIT($,.RADIAN.) );
#1330 = ( NAMED_UNIT(*) SI_UNIT($,.STERADIAN.) SOLID_ANGLE_UNIT() );
#1331 = UNCERTAINTY_MEASURE_WITH_UNIT(LENGTH_MEASURE(2.E-07),#1328,
  'distance_accuracy_value','confusion accuracy');
#1332 = PRODUCT_RELATED_PRODUCT_CATEGORY('part',$,(#7));
ENDSEC;
END-ISO-10303-21;
