ISO-10303-21;
HEADER;
FILE_DESCRIPTION(('FreeCAD Model'),'2;1');
FILE_NAME('Open CASCADE Shape Model','2026-09-28T10:09:16',('FreeCAD'),(
    'FreeCAD'),'Open CASCADE STEP processor 7.8','FreeCAD','Unknown');
FILE_SCHEMA(('AUTOMOTIVE_DESIGN { 1 0 10303 214 1 1 1 1 }'));
ENDSEC;
DATA;
#1 = APPLICATION_PROTOCOL_DEFINITION('international standard',
  'automotive_design',2000,#2);
#2 = APPLICATION_CONTEXT(
  'core data for automotive mechanical design processes');
#3 = SHAPE_DEFINITION_REPRESENTATION(#4,#10);
#4 = PRODUCT_DEFINITION_SHAPE('','',#5);
#5 = PRODUCT_DEFINITION('design','',#6,#9);
#6 = PRODUCT_DEFINITION_FORMATION('','',#7);
#7 = PRODUCT('Open CASCADE STEP translator 7.8 17',
  'Open CASCADE STEP translator 7.8 17','',(#8));
#8 = PRODUCT_CONTEXT('',#2,'mechanical');
#9 = PRODUCT_DEFINITION_CONTEXT('part definition',#2,'design');
#10 = ADVANCED_BREP_SHAPE_REPRESENTATION('',(#11,#15),#1357);
#11 = AXIS2_PLACEMENT_3D('',#12,#13,#14);
#12 = CARTESIAN_POINT('',(0.,0.,0.));
#13 = DIRECTION('',(0.,0.,1.));
#14 = DIRECTION('',(1.,0.,-0.));
#15 = MANIFOLD_SOLID_BREP('',#16);
#16 = CLOSED_SHELL('',(#17,#239,#270,#304,#338,#355,#386,#427,#451,#485,
    #516,#557,#598,#615,#648,#710,#772,#789,#820,#861,#902,#919,#952,
    #1014,#1076,#1093,#1155,#1167,#1179,#1191,#1203,#1220,#1239,#1251,
    #1268,#1280,#1292,#1309,#1328,#1340));
#17 = ADVANCED_FACE('',(#18,#54,#90,#126,#162,#198),#234,.T.);
#18 = FACE_BOUND('',#19,.T.);
#19 = EDGE_LOOP('',(#20,#30,#39,#47));
#20 = ORIENTED_EDGE('',*,*,#21,.T.);
#21 = EDGE_CURVE('',#22,#24,#26,.T.);
#22 = VERTEX_POINT('',#23);
#23 = CARTESIAN_POINT('',(35.651086939952,78.2,5.));
#24 = VERTEX_POINT('',#25);
#25 = CARTESIAN_POINT('',(35.651086939952,130.,5.));
#26 = LINE('',#27,#28);
#27 = CARTESIAN_POINT('',(35.651086939952,78.2,5.));
#28 = VECTOR('',#29,1.);
#29 = DIRECTION('',(0.,1.,0.));
#30 = ORIENTED_EDGE('',*,*,#31,.T.);
#31 = EDGE_CURVE('',#24,#32,#34,.T.);
#32 = VERTEX_POINT('',#33);
#33 = CARTESIAN_POINT('',(-35.65108693995,130.,5.));
#34 = CIRCLE('',#35,36.);
#35 = AXIS2_PLACEMENT_3D('',#36,#37,#38);
#36 = CARTESIAN_POINT('',(0.,130.,-3.049908536188E-15));
#37 = DIRECTION('',(0.,-1.,0.));
#38 = DIRECTION('',(0.990307970554,0.,0.138888888889));
#39 = ORIENTED_EDGE('',*,*,#40,.F.);
#40 = EDGE_CURVE('',#41,#32,#43,.T.);
#41 = VERTEX_POINT('',#42);
#42 = CARTESIAN_POINT('',(-35.65108693995,78.2,5.));
#43 = LINE('',#44,#45);
#44 = CARTESIAN_POINT('',(-35.65108693995,78.2,5.));
#45 = VECTOR('',#46,1.);
#46 = DIRECTION('',(0.,1.,0.));
#47 = ORIENTED_EDGE('',*,*,#48,.F.);
#48 = EDGE_CURVE('',#22,#41,#49,.T.);
#49 = CIRCLE('',#50,36.);
#50 = AXIS2_PLACEMENT_3D('',#51,#52,#53);
#51 = CARTESIAN_POINT('',(0.,78.2,-3.049908536188E-15));
#52 = DIRECTION('',(0.,-1.,0.));
#53 = DIRECTION('',(0.990307970554,0.,0.138888888889));
#54 = FACE_BOUND('',#55,.T.);
#55 = EDGE_LOOP('',(#56,#66,#75,#83));
#56 = ORIENTED_EDGE('',*,*,#57,.F.);
#57 = EDGE_CURVE('',#58,#60,#62,.T.);
#58 = VERTEX_POINT('',#59);
#59 = CARTESIAN_POINT('',(-16.,125.,32.249030993194));
#60 = VERTEX_POINT('',#61);
#61 = CARTESIAN_POINT('',(-16.,121.,32.249030993194));
#62 = LINE('',#63,#64);
#63 = CARTESIAN_POINT('',(-16.,78.2,32.249030993194));
#64 = VECTOR('',#65,1.);
#65 = DIRECTION('',(0.,-1.,0.));
#66 = ORIENTED_EDGE('',*,*,#67,.F.);
#67 = EDGE_CURVE('',#68,#58,#70,.T.);
#68 = VERTEX_POINT('',#69);
#69 = CARTESIAN_POINT('',(16.,125.,32.249030993194));
#70 = CIRCLE('',#71,36.);
#71 = AXIS2_PLACEMENT_3D('',#72,#73,#74);
#72 = CARTESIAN_POINT('',(0.,125.,-3.049908536188E-15));
#73 = DIRECTION('',(0.,-1.,0.));
#74 = DIRECTION('',(0.990307970554,0.,0.138888888889));
#75 = ORIENTED_EDGE('',*,*,#76,.T.);
#76 = EDGE_CURVE('',#68,#77,#79,.T.);
#77 = VERTEX_POINT('',#78);
#78 = CARTESIAN_POINT('',(16.,121.,32.249030993194));
#79 = LINE('',#80,#81);
#80 = CARTESIAN_POINT('',(16.,78.2,32.249030993194));
#81 = VECTOR('',#82,1.);
#82 = DIRECTION('',(0.,-1.,0.));
#83 = ORIENTED_EDGE('',*,*,#84,.T.);
#84 = EDGE_CURVE('',#77,#60,#85,.T.);
#85 = CIRCLE('',#86,36.);
#86 = AXIS2_PLACEMENT_3D('',#87,#88,#89);
#87 = CARTESIAN_POINT('',(0.,121.,-3.049908536188E-15));
#88 = DIRECTION('',(0.,-1.,0.));
#89 = DIRECTION('',(0.990307970554,0.,0.138888888889));
#90 = FACE_BOUND('',#91,.T.);
#91 = EDGE_LOOP('',(#92,#102,#111,#119));
#92 = ORIENTED_EDGE('',*,*,#93,.F.);
#93 = EDGE_CURVE('',#94,#96,#98,.T.);
#94 = VERTEX_POINT('',#95);
#95 = CARTESIAN_POINT('',(-16.,112.,32.249030993194));
#96 = VERTEX_POINT('',#97);
#97 = CARTESIAN_POINT('',(-16.,108.,32.249030993194));
#98 = LINE('',#99,#100);
#99 = CARTESIAN_POINT('',(-16.,78.2,32.249030993194));
#100 = VECTOR('',#101,1.);
#101 = DIRECTION('',(0.,-1.,0.));
#102 = ORIENTED_EDGE('',*,*,#103,.F.);
#103 = EDGE_CURVE('',#104,#94,#106,.T.);
#104 = VERTEX_POINT('',#105);
#105 = CARTESIAN_POINT('',(16.,112.,32.249030993194));
#106 = CIRCLE('',#107,36.);
#107 = AXIS2_PLACEMENT_3D('',#108,#109,#110);
#108 = CARTESIAN_POINT('',(0.,112.,-3.049908536188E-15));
#109 = DIRECTION('',(0.,-1.,0.));
#110 = DIRECTION('',(0.990307970554,0.,0.138888888889));
#111 = ORIENTED_EDGE('',*,*,#112,.T.);
#112 = EDGE_CURVE('',#104,#113,#115,.T.);
#113 = VERTEX_POINT('',#114);
#114 = CARTESIAN_POINT('',(16.,108.,32.249030993194));
#115 = LINE('',#116,#117);
#116 = CARTESIAN_POINT('',(16.,78.2,32.249030993194));
#117 = VECTOR('',#118,1.);
#118 = DIRECTION('',(0.,-1.,0.));
#119 = ORIENTED_EDGE('',*,*,#120,.T.);
#120 = EDGE_CURVE('',#113,#96,#121,.T.);
#121 = CIRCLE('',#122,36.);
#122 = AXIS2_PLACEMENT_3D('',#123,#124,#125);
#123 = CARTESIAN_POINT('',(0.,108.,-3.049908536188E-15));
#124 = DIRECTION('',(0.,-1.,0.));
#125 = DIRECTION('',(0.990307970554,0.,0.138888888889));
#126 = FACE_BOUND('',#127,.T.);
#127 = EDGE_LOOP('',(#128,#138,#147,#155));
#128 = ORIENTED_EDGE('',*,*,#129,.F.);
#129 = EDGE_CURVE('',#130,#132,#134,.T.);
#130 = VERTEX_POINT('',#131);
#131 = CARTESIAN_POINT('',(21.955287494686,89.,28.530078005952));
#132 = VERTEX_POINT('',#133);
#133 = CARTESIAN_POINT('',(21.955287494686,86.,28.530078005952));
#134 = LINE('',#135,#136);
#135 = CARTESIAN_POINT('',(21.955287494686,78.2,28.530078005951));
#136 = VECTOR('',#137,1.);
#137 = DIRECTION('',(0.,-1.,0.));
#138 = ORIENTED_EDGE('',*,*,#139,.F.);
#139 = EDGE_CURVE('',#140,#130,#142,.T.);
#140 = VERTEX_POINT('',#141);
#141 = CARTESIAN_POINT('',(30.825408034058,89.,18.595543001855));
#142 = CIRCLE('',#143,36.);
#143 = AXIS2_PLACEMENT_3D('',#144,#145,#146);
#144 = CARTESIAN_POINT('',(0.,89.,-3.049908536188E-15));
#145 = DIRECTION('',(0.,-1.,0.));
#146 = DIRECTION('',(0.990307970554,0.,0.138888888889));
#147 = ORIENTED_EDGE('',*,*,#148,.T.);
#148 = EDGE_CURVE('',#140,#149,#151,.T.);
#149 = VERTEX_POINT('',#150);
#150 = CARTESIAN_POINT('',(30.825408034058,86.,18.595543001855));
#151 = LINE('',#152,#153);
#152 = CARTESIAN_POINT('',(30.825408034058,78.2,18.595543001855));
#153 = VECTOR('',#154,1.);
#154 = DIRECTION('',(0.,-1.,0.));
#155 = ORIENTED_EDGE('',*,*,#156,.T.);
#156 = EDGE_CURVE('',#149,#132,#157,.T.);
#157 = CIRCLE('',#158,36.);
#158 = AXIS2_PLACEMENT_3D('',#159,#160,#161);
#159 = CARTESIAN_POINT('',(0.,86.,-3.049908536188E-15));
#160 = DIRECTION('',(0.,-1.,0.));
#161 = DIRECTION('',(0.990307970554,0.,0.138888888889));
#162 = FACE_BOUND('',#163,.T.);
#163 = EDGE_LOOP('',(#164,#174,#183,#191));
#164 = ORIENTED_EDGE('',*,*,#165,.F.);
#165 = EDGE_CURVE('',#166,#168,#170,.T.);
#166 = VERTEX_POINT('',#167);
#167 = CARTESIAN_POINT('',(-16.,98.,32.249030993194));
#168 = VERTEX_POINT('',#169);
#169 = CARTESIAN_POINT('',(-16.,94.,32.249030993194));
#170 = LINE('',#171,#172);
#171 = CARTESIAN_POINT('',(-16.,78.2,32.249030993194));
#172 = VECTOR('',#173,1.);
#173 = DIRECTION('',(0.,-1.,0.));
#174 = ORIENTED_EDGE('',*,*,#175,.F.);
#175 = EDGE_CURVE('',#176,#166,#178,.T.);
#176 = VERTEX_POINT('',#177);
#177 = CARTESIAN_POINT('',(16.,98.,32.249030993194));
#178 = CIRCLE('',#179,36.);
#179 = AXIS2_PLACEMENT_3D('',#180,#181,#182);
#180 = CARTESIAN_POINT('',(0.,98.,-3.049908536188E-15));
#181 = DIRECTION('',(0.,-1.,0.));
#182 = DIRECTION('',(0.990307970554,0.,0.138888888889));
#183 = ORIENTED_EDGE('',*,*,#184,.T.);
#184 = EDGE_CURVE('',#176,#185,#187,.T.);
#185 = VERTEX_POINT('',#186);
#186 = CARTESIAN_POINT('',(16.,94.,32.249030993194));
#187 = LINE('',#188,#189);
#188 = CARTESIAN_POINT('',(16.,78.2,32.249030993194));
#189 = VECTOR('',#190,1.);
#190 = DIRECTION('',(0.,-1.,0.));
#191 = ORIENTED_EDGE('',*,*,#192,.T.);
#192 = EDGE_CURVE('',#185,#168,#193,.T.);
#193 = CIRCLE('',#194,36.);
#194 = AXIS2_PLACEMENT_3D('',#195,#196,#197);
#195 = CARTESIAN_POINT('',(0.,94.,-3.049908536188E-15));
#196 = DIRECTION('',(0.,-1.,0.));
#197 = DIRECTION('',(0.990307970554,0.,0.138888888889));
#198 = FACE_BOUND('',#199,.T.);
#199 = EDGE_LOOP('',(#200,#210,#219,#227));
#200 = ORIENTED_EDGE('',*,*,#201,.F.);
#201 = EDGE_CURVE('',#202,#204,#206,.T.);
#202 = VERTEX_POINT('',#203);
#203 = CARTESIAN_POINT('',(-30.82540803405,89.,18.595543001855));
#204 = VERTEX_POINT('',#205);
#205 = CARTESIAN_POINT('',(-30.82540803405,86.,18.595543001855));
#206 = LINE('',#207,#208);
#207 = CARTESIAN_POINT('',(-30.82540803405,78.2,18.595543001855));
#208 = VECTOR('',#209,1.);
#209 = DIRECTION('',(0.,-1.,0.));
#210 = ORIENTED_EDGE('',*,*,#211,.F.);
#211 = EDGE_CURVE('',#212,#202,#214,.T.);
#212 = VERTEX_POINT('',#213);
#213 = CARTESIAN_POINT('',(-21.95528749468,89.,28.530078005951));
#214 = CIRCLE('',#215,36.);
#215 = AXIS2_PLACEMENT_3D('',#216,#217,#218);
#216 = CARTESIAN_POINT('',(0.,89.,-3.049908536188E-15));
#217 = DIRECTION('',(0.,-1.,0.));
#218 = DIRECTION('',(0.990307970554,0.,0.138888888889));
#219 = ORIENTED_EDGE('',*,*,#220,.T.);
#220 = EDGE_CURVE('',#212,#221,#223,.T.);
#221 = VERTEX_POINT('',#222);
#222 = CARTESIAN_POINT('',(-21.95528749468,86.,28.530078005951));
#223 = LINE('',#224,#225);
#224 = CARTESIAN_POINT('',(-21.95528749468,78.2,28.530078005951));
#225 = VECTOR('',#226,1.);
#226 = DIRECTION('',(0.,-1.,0.));
#227 = ORIENTED_EDGE('',*,*,#228,.T.);
#228 = EDGE_CURVE('',#221,#204,#229,.T.);
#229 = CIRCLE('',#230,36.);
#230 = AXIS2_PLACEMENT_3D('',#231,#232,#233);
#231 = CARTESIAN_POINT('',(0.,86.,-3.049908536188E-15));
#232 = DIRECTION('',(0.,-1.,0.));
#233 = DIRECTION('',(0.990307970554,0.,0.138888888889));
#234 = CYLINDRICAL_SURFACE('',#235,36.);
#235 = AXIS2_PLACEMENT_3D('',#236,#237,#238);
#236 = CARTESIAN_POINT('',(0.,78.2,-3.049908536188E-15));
#237 = DIRECTION('',(0.,-1.,0.));
#238 = DIRECTION('',(0.990307970554,0.,0.138888888889));
#239 = ADVANCED_FACE('',(#240),#265,.T.);
#240 = FACE_BOUND('',#241,.T.);
#241 = EDGE_LOOP('',(#242,#252,#258,#259));
#242 = ORIENTED_EDGE('',*,*,#243,.T.);
#243 = EDGE_CURVE('',#244,#246,#248,.T.);
#244 = VERTEX_POINT('',#245);
#245 = CARTESIAN_POINT('',(32.6190128606,78.2,5.));
#246 = VERTEX_POINT('',#247);
#247 = CARTESIAN_POINT('',(32.6190128606,130.,5.));
#248 = LINE('',#249,#250);
#249 = CARTESIAN_POINT('',(32.6190128606,78.2,5.));
#250 = VECTOR('',#251,1.);
#251 = DIRECTION('',(0.,1.,0.));
#252 = ORIENTED_EDGE('',*,*,#253,.T.);
#253 = EDGE_CURVE('',#246,#24,#254,.T.);
#254 = LINE('',#255,#256);
#255 = CARTESIAN_POINT('',(32.6190128606,130.,5.));
#256 = VECTOR('',#257,1.);
#257 = DIRECTION('',(1.,0.,0.));
#258 = ORIENTED_EDGE('',*,*,#21,.F.);
#259 = ORIENTED_EDGE('',*,*,#260,.F.);
#260 = EDGE_CURVE('',#244,#22,#261,.T.);
#261 = LINE('',#262,#263);
#262 = CARTESIAN_POINT('',(32.6190128606,78.2,5.));
#263 = VECTOR('',#264,1.);
#264 = DIRECTION('',(1.,0.,0.));
#265 = PLANE('',#266);
#266 = AXIS2_PLACEMENT_3D('',#267,#268,#269);
#267 = CARTESIAN_POINT('',(32.6190128606,78.2,5.));
#268 = DIRECTION('',(0.,0.,-1.));
#269 = DIRECTION('',(1.,0.,0.));
#270 = ADVANCED_FACE('',(#271),#299,.T.);
#271 = FACE_BOUND('',#272,.T.);
#272 = EDGE_LOOP('',(#273,#274,#282,#291,#298));
#273 = ORIENTED_EDGE('',*,*,#48,.T.);
#274 = ORIENTED_EDGE('',*,*,#275,.T.);
#275 = EDGE_CURVE('',#41,#276,#278,.T.);
#276 = VERTEX_POINT('',#277);
#277 = CARTESIAN_POINT('',(-32.6190128606,78.2,5.));
#278 = LINE('',#279,#280);
#279 = CARTESIAN_POINT('',(-35.65108693995,78.2,5.));
#280 = VECTOR('',#281,1.);
#281 = DIRECTION('',(1.,0.,0.));
#282 = ORIENTED_EDGE('',*,*,#283,.T.);
#283 = EDGE_CURVE('',#276,#284,#286,.T.);
#284 = VERTEX_POINT('',#285);
#285 = CARTESIAN_POINT('',(-1.4547620028E-12,78.2,33.));
#286 = CIRCLE('',#287,33.);
#287 = AXIS2_PLACEMENT_3D('',#288,#289,#290);
#288 = CARTESIAN_POINT('',(0.,78.2,2.307664586322E-15));
#289 = DIRECTION('',(-0.,1.,0.));
#290 = DIRECTION('',(-0.98845493517,-0.,0.151515151515));
#291 = ORIENTED_EDGE('',*,*,#292,.T.);
#292 = EDGE_CURVE('',#284,#244,#293,.T.);
#293 = CIRCLE('',#294,33.);
#294 = AXIS2_PLACEMENT_3D('',#295,#296,#297);
#295 = CARTESIAN_POINT('',(0.,78.2,2.307664586322E-15));
#296 = DIRECTION('',(-0.,1.,0.));
#297 = DIRECTION('',(-0.98845493517,-0.,0.151515151515));
#298 = ORIENTED_EDGE('',*,*,#260,.T.);
#299 = PLANE('',#300);
#300 = AXIS2_PLACEMENT_3D('',#301,#302,#303);
#301 = CARTESIAN_POINT('',(2.290370134412E-15,78.2,21.627941108109));
#302 = DIRECTION('',(-0.,-1.,-0.));
#303 = DIRECTION('',(0.,0.,-1.));
#304 = ADVANCED_FACE('',(#305),#333,.F.);
#305 = FACE_BOUND('',#306,.F.);
#306 = EDGE_LOOP('',(#307,#308,#316,#325,#332));
#307 = ORIENTED_EDGE('',*,*,#31,.T.);
#308 = ORIENTED_EDGE('',*,*,#309,.T.);
#309 = EDGE_CURVE('',#32,#310,#312,.T.);
#310 = VERTEX_POINT('',#311);
#311 = CARTESIAN_POINT('',(-32.6190128606,130.,5.));
#312 = LINE('',#313,#314);
#313 = CARTESIAN_POINT('',(-35.65108693995,130.,5.));
#314 = VECTOR('',#315,1.);
#315 = DIRECTION('',(1.,0.,0.));
#316 = ORIENTED_EDGE('',*,*,#317,.T.);
#317 = EDGE_CURVE('',#310,#318,#320,.T.);
#318 = VERTEX_POINT('',#319);
#319 = CARTESIAN_POINT('',(-1.4547620028E-12,130.,33.));
#320 = CIRCLE('',#321,33.);
#321 = AXIS2_PLACEMENT_3D('',#322,#323,#324);
#322 = CARTESIAN_POINT('',(0.,130.,2.307664586322E-15));
#323 = DIRECTION('',(-0.,1.,0.));
#324 = DIRECTION('',(-0.98845493517,-0.,0.151515151515));
#325 = ORIENTED_EDGE('',*,*,#326,.T.);
#326 = EDGE_CURVE('',#318,#246,#327,.T.);
#327 = CIRCLE('',#328,33.);
#328 = AXIS2_PLACEMENT_3D('',#329,#330,#331);
#329 = CARTESIAN_POINT('',(0.,130.,2.307664586322E-15));
#330 = DIRECTION('',(-0.,1.,0.));
#331 = DIRECTION('',(-0.98845493517,-0.,0.151515151515));
#332 = ORIENTED_EDGE('',*,*,#253,.T.);
#333 = PLANE('',#334);
#334 = AXIS2_PLACEMENT_3D('',#335,#336,#337);
#335 = CARTESIAN_POINT('',(2.290370134412E-15,130.,21.627941108109));
#336 = DIRECTION('',(-0.,-1.,-0.));
#337 = DIRECTION('',(0.,0.,-1.));
#338 = ADVANCED_FACE('',(#339),#350,.T.);
#339 = FACE_BOUND('',#340,.T.);
#340 = EDGE_LOOP('',(#341,#342,#343,#349));
#341 = ORIENTED_EDGE('',*,*,#40,.T.);
#342 = ORIENTED_EDGE('',*,*,#309,.T.);
#343 = ORIENTED_EDGE('',*,*,#344,.F.);
#344 = EDGE_CURVE('',#276,#310,#345,.T.);
#345 = LINE('',#346,#347);
#346 = CARTESIAN_POINT('',(-32.6190128606,78.2,5.));
#347 = VECTOR('',#348,1.);
#348 = DIRECTION('',(0.,1.,0.));
#349 = ORIENTED_EDGE('',*,*,#275,.F.);
#350 = PLANE('',#351);
#351 = AXIS2_PLACEMENT_3D('',#352,#353,#354);
#352 = CARTESIAN_POINT('',(-35.65108693995,78.2,5.));
#353 = DIRECTION('',(0.,0.,-1.));
#354 = DIRECTION('',(1.,0.,0.));
#355 = ADVANCED_FACE('',(#356),#381,.T.);
#356 = FACE_BOUND('',#357,.T.);
#357 = EDGE_LOOP('',(#358,#366,#374,#380));
#358 = ORIENTED_EDGE('',*,*,#359,.F.);
#359 = EDGE_CURVE('',#360,#60,#362,.T.);
#360 = VERTEX_POINT('',#361);
#361 = CARTESIAN_POINT('',(-16.,121.,29.));
#362 = LINE('',#363,#364);
#363 = CARTESIAN_POINT('',(-16.,121.,29.));
#364 = VECTOR('',#365,1.);
#365 = DIRECTION('',(0.,0.,1.));
#366 = ORIENTED_EDGE('',*,*,#367,.T.);
#367 = EDGE_CURVE('',#360,#368,#370,.T.);
#368 = VERTEX_POINT('',#369);
#369 = CARTESIAN_POINT('',(-16.,125.,29.));
#370 = LINE('',#371,#372);
#371 = CARTESIAN_POINT('',(-16.,121.,29.));
#372 = VECTOR('',#373,1.);
#373 = DIRECTION('',(-0.,1.,0.));
#374 = ORIENTED_EDGE('',*,*,#375,.T.);
#375 = EDGE_CURVE('',#368,#58,#376,.T.);
#376 = LINE('',#377,#378);
#377 = CARTESIAN_POINT('',(-16.,125.,29.));
#378 = VECTOR('',#379,1.);
#379 = DIRECTION('',(0.,0.,1.));
#380 = ORIENTED_EDGE('',*,*,#57,.T.);
#381 = PLANE('',#382);
#382 = AXIS2_PLACEMENT_3D('',#383,#384,#385);
#383 = CARTESIAN_POINT('',(-16.,121.,29.));
#384 = DIRECTION('',(1.,0.,-0.));
#385 = DIRECTION('',(0.,0.,1.));
#386 = ADVANCED_FACE('',(#387),#422,.T.);
#387 = FACE_BOUND('',#388,.T.);
#388 = EDGE_LOOP('',(#389,#397,#398,#399,#407,#415));
#389 = ORIENTED_EDGE('',*,*,#390,.F.);
#390 = EDGE_CURVE('',#360,#391,#393,.T.);
#391 = VERTEX_POINT('',#392);
#392 = CARTESIAN_POINT('',(-15.74801574802,121.,29.));
#393 = LINE('',#394,#395);
#394 = CARTESIAN_POINT('',(-16.,121.,29.));
#395 = VECTOR('',#396,1.);
#396 = DIRECTION('',(1.,0.,-0.));
#397 = ORIENTED_EDGE('',*,*,#359,.T.);
#398 = ORIENTED_EDGE('',*,*,#84,.F.);
#399 = ORIENTED_EDGE('',*,*,#400,.F.);
#400 = EDGE_CURVE('',#401,#77,#403,.T.);
#401 = VERTEX_POINT('',#402);
#402 = CARTESIAN_POINT('',(16.,121.,29.));
#403 = LINE('',#404,#405);
#404 = CARTESIAN_POINT('',(16.,121.,29.));
#405 = VECTOR('',#406,1.);
#406 = DIRECTION('',(0.,0.,1.));
#407 = ORIENTED_EDGE('',*,*,#408,.F.);
#408 = EDGE_CURVE('',#409,#401,#411,.T.);
#409 = VERTEX_POINT('',#410);
#410 = CARTESIAN_POINT('',(15.748015748024,121.,29.));
#411 = LINE('',#412,#413);
#412 = CARTESIAN_POINT('',(-16.,121.,29.));
#413 = VECTOR('',#414,1.);
#414 = DIRECTION('',(1.,0.,-0.));
#415 = ORIENTED_EDGE('',*,*,#416,.T.);
#416 = EDGE_CURVE('',#409,#391,#417,.T.);
#417 = CIRCLE('',#418,33.);
#418 = AXIS2_PLACEMENT_3D('',#419,#420,#421);
#419 = CARTESIAN_POINT('',(0.,121.,2.307664586322E-15));
#420 = DIRECTION('',(0.,-1.,-0.));
#421 = DIRECTION('',(-0.98845493517,-0.,0.151515151515));
#422 = PLANE('',#423);
#423 = AXIS2_PLACEMENT_3D('',#424,#425,#426);
#424 = CARTESIAN_POINT('',(-16.,121.,29.));
#425 = DIRECTION('',(-0.,1.,0.));
#426 = DIRECTION('',(0.,0.,1.));
#427 = ADVANCED_FACE('',(#428),#446,.F.);
#428 = FACE_BOUND('',#429,.F.);
#429 = EDGE_LOOP('',(#430,#431,#439,#445));
#430 = ORIENTED_EDGE('',*,*,#400,.F.);
#431 = ORIENTED_EDGE('',*,*,#432,.T.);
#432 = EDGE_CURVE('',#401,#433,#435,.T.);
#433 = VERTEX_POINT('',#434);
#434 = CARTESIAN_POINT('',(16.,125.,29.));
#435 = LINE('',#436,#437);
#436 = CARTESIAN_POINT('',(16.,121.,29.));
#437 = VECTOR('',#438,1.);
#438 = DIRECTION('',(-0.,1.,0.));
#439 = ORIENTED_EDGE('',*,*,#440,.T.);
#440 = EDGE_CURVE('',#433,#68,#441,.T.);
#441 = LINE('',#442,#443);
#442 = CARTESIAN_POINT('',(16.,125.,29.));
#443 = VECTOR('',#444,1.);
#444 = DIRECTION('',(0.,0.,1.));
#445 = ORIENTED_EDGE('',*,*,#76,.T.);
#446 = PLANE('',#447);
#447 = AXIS2_PLACEMENT_3D('',#448,#449,#450);
#448 = CARTESIAN_POINT('',(16.,121.,29.));
#449 = DIRECTION('',(1.,0.,-0.));
#450 = DIRECTION('',(0.,0.,1.));
#451 = ADVANCED_FACE('',(#452),#480,.F.);
#452 = FACE_BOUND('',#453,.F.);
#453 = EDGE_LOOP('',(#454,#462,#463,#464,#465,#473));
#454 = ORIENTED_EDGE('',*,*,#455,.F.);
#455 = EDGE_CURVE('',#368,#456,#458,.T.);
#456 = VERTEX_POINT('',#457);
#457 = CARTESIAN_POINT('',(-15.74801574802,125.,29.));
#458 = LINE('',#459,#460);
#459 = CARTESIAN_POINT('',(-16.,125.,29.));
#460 = VECTOR('',#461,1.);
#461 = DIRECTION('',(1.,0.,-0.));
#462 = ORIENTED_EDGE('',*,*,#375,.T.);
#463 = ORIENTED_EDGE('',*,*,#67,.F.);
#464 = ORIENTED_EDGE('',*,*,#440,.F.);
#465 = ORIENTED_EDGE('',*,*,#466,.F.);
#466 = EDGE_CURVE('',#467,#433,#469,.T.);
#467 = VERTEX_POINT('',#468);
#468 = CARTESIAN_POINT('',(15.748015748024,125.,29.));
#469 = LINE('',#470,#471);
#470 = CARTESIAN_POINT('',(-16.,125.,29.));
#471 = VECTOR('',#472,1.);
#472 = DIRECTION('',(1.,0.,-0.));
#473 = ORIENTED_EDGE('',*,*,#474,.T.);
#474 = EDGE_CURVE('',#467,#456,#475,.T.);
#475 = CIRCLE('',#476,33.);
#476 = AXIS2_PLACEMENT_3D('',#477,#478,#479);
#477 = CARTESIAN_POINT('',(0.,125.,2.307664586322E-15));
#478 = DIRECTION('',(0.,-1.,-0.));
#479 = DIRECTION('',(-0.98845493517,-0.,0.151515151515));
#480 = PLANE('',#481);
#481 = AXIS2_PLACEMENT_3D('',#482,#483,#484);
#482 = CARTESIAN_POINT('',(-16.,125.,29.));
#483 = DIRECTION('',(-0.,1.,0.));
#484 = DIRECTION('',(0.,0.,1.));
#485 = ADVANCED_FACE('',(#486),#511,.T.);
#486 = FACE_BOUND('',#487,.T.);
#487 = EDGE_LOOP('',(#488,#496,#504,#510));
#488 = ORIENTED_EDGE('',*,*,#489,.F.);
#489 = EDGE_CURVE('',#490,#96,#492,.T.);
#490 = VERTEX_POINT('',#491);
#491 = CARTESIAN_POINT('',(-16.,108.,29.));
#492 = LINE('',#493,#494);
#493 = CARTESIAN_POINT('',(-16.,108.,29.));
#494 = VECTOR('',#495,1.);
#495 = DIRECTION('',(0.,0.,1.));
#496 = ORIENTED_EDGE('',*,*,#497,.T.);
#497 = EDGE_CURVE('',#490,#498,#500,.T.);
#498 = VERTEX_POINT('',#499);
#499 = CARTESIAN_POINT('',(-16.,112.,29.));
#500 = LINE('',#501,#502);
#501 = CARTESIAN_POINT('',(-16.,108.,29.));
#502 = VECTOR('',#503,1.);
#503 = DIRECTION('',(-0.,1.,0.));
#504 = ORIENTED_EDGE('',*,*,#505,.T.);
#505 = EDGE_CURVE('',#498,#94,#506,.T.);
#506 = LINE('',#507,#508);
#507 = CARTESIAN_POINT('',(-16.,112.,29.));
#508 = VECTOR('',#509,1.);
#509 = DIRECTION('',(0.,0.,1.));
#510 = ORIENTED_EDGE('',*,*,#93,.T.);
#511 = PLANE('',#512);
#512 = AXIS2_PLACEMENT_3D('',#513,#514,#515);
#513 = CARTESIAN_POINT('',(-16.,108.,29.));
#514 = DIRECTION('',(1.,0.,-0.));
#515 = DIRECTION('',(0.,0.,1.));
#516 = ADVANCED_FACE('',(#517),#552,.F.);
#517 = FACE_BOUND('',#518,.F.);
#518 = EDGE_LOOP('',(#519,#527,#528,#529,#537,#545));
#519 = ORIENTED_EDGE('',*,*,#520,.F.);
#520 = EDGE_CURVE('',#498,#521,#523,.T.);
#521 = VERTEX_POINT('',#522);
#522 = CARTESIAN_POINT('',(-15.74801574802,112.,29.));
#523 = LINE('',#524,#525);
#524 = CARTESIAN_POINT('',(-16.,112.,29.));
#525 = VECTOR('',#526,1.);
#526 = DIRECTION('',(1.,0.,-0.));
#527 = ORIENTED_EDGE('',*,*,#505,.T.);
#528 = ORIENTED_EDGE('',*,*,#103,.F.);
#529 = ORIENTED_EDGE('',*,*,#530,.F.);
#530 = EDGE_CURVE('',#531,#104,#533,.T.);
#531 = VERTEX_POINT('',#532);
#532 = CARTESIAN_POINT('',(16.,112.,29.));
#533 = LINE('',#534,#535);
#534 = CARTESIAN_POINT('',(16.,112.,29.));
#535 = VECTOR('',#536,1.);
#536 = DIRECTION('',(0.,0.,1.));
#537 = ORIENTED_EDGE('',*,*,#538,.F.);
#538 = EDGE_CURVE('',#539,#531,#541,.T.);
#539 = VERTEX_POINT('',#540);
#540 = CARTESIAN_POINT('',(15.748015748024,112.,29.));
#541 = LINE('',#542,#543);
#542 = CARTESIAN_POINT('',(-16.,112.,29.));
#543 = VECTOR('',#544,1.);
#544 = DIRECTION('',(1.,0.,-0.));
#545 = ORIENTED_EDGE('',*,*,#546,.T.);
#546 = EDGE_CURVE('',#539,#521,#547,.T.);
#547 = CIRCLE('',#548,33.);
#548 = AXIS2_PLACEMENT_3D('',#549,#550,#551);
#549 = CARTESIAN_POINT('',(0.,112.,2.307664586322E-15));
#550 = DIRECTION('',(0.,-1.,-0.));
#551 = DIRECTION('',(-0.98845493517,-0.,0.151515151515));
#552 = PLANE('',#553);
#553 = AXIS2_PLACEMENT_3D('',#554,#555,#556);
#554 = CARTESIAN_POINT('',(-16.,112.,29.));
#555 = DIRECTION('',(-0.,1.,0.));
#556 = DIRECTION('',(0.,0.,1.));
#557 = ADVANCED_FACE('',(#558),#593,.T.);
#558 = FACE_BOUND('',#559,.T.);
#559 = EDGE_LOOP('',(#560,#568,#569,#570,#578,#586));
#560 = ORIENTED_EDGE('',*,*,#561,.F.);
#561 = EDGE_CURVE('',#490,#562,#564,.T.);
#562 = VERTEX_POINT('',#563);
#563 = CARTESIAN_POINT('',(-15.74801574802,108.,29.));
#564 = LINE('',#565,#566);
#565 = CARTESIAN_POINT('',(-16.,108.,29.));
#566 = VECTOR('',#567,1.);
#567 = DIRECTION('',(1.,0.,-0.));
#568 = ORIENTED_EDGE('',*,*,#489,.T.);
#569 = ORIENTED_EDGE('',*,*,#120,.F.);
#570 = ORIENTED_EDGE('',*,*,#571,.F.);
#571 = EDGE_CURVE('',#572,#113,#574,.T.);
#572 = VERTEX_POINT('',#573);
#573 = CARTESIAN_POINT('',(16.,108.,29.));
#574 = LINE('',#575,#576);
#575 = CARTESIAN_POINT('',(16.,108.,29.));
#576 = VECTOR('',#577,1.);
#577 = DIRECTION('',(0.,0.,1.));
#578 = ORIENTED_EDGE('',*,*,#579,.F.);
#579 = EDGE_CURVE('',#580,#572,#582,.T.);
#580 = VERTEX_POINT('',#581);
#581 = CARTESIAN_POINT('',(15.748015748024,108.,29.));
#582 = LINE('',#583,#584);
#583 = CARTESIAN_POINT('',(-16.,108.,29.));
#584 = VECTOR('',#585,1.);
#585 = DIRECTION('',(1.,0.,-0.));
#586 = ORIENTED_EDGE('',*,*,#587,.T.);
#587 = EDGE_CURVE('',#580,#562,#588,.T.);
#588 = CIRCLE('',#589,33.);
#589 = AXIS2_PLACEMENT_3D('',#590,#591,#592);
#590 = CARTESIAN_POINT('',(0.,108.,2.307664586322E-15));
#591 = DIRECTION('',(0.,-1.,-0.));
#592 = DIRECTION('',(-0.98845493517,-0.,0.151515151515));
#593 = PLANE('',#594);
#594 = AXIS2_PLACEMENT_3D('',#595,#596,#597);
#595 = CARTESIAN_POINT('',(-16.,108.,29.));
#596 = DIRECTION('',(-0.,1.,0.));
#597 = DIRECTION('',(0.,0.,1.));
#598 = ADVANCED_FACE('',(#599),#610,.F.);
#599 = FACE_BOUND('',#600,.F.);
#600 = EDGE_LOOP('',(#601,#602,#608,#609));
#601 = ORIENTED_EDGE('',*,*,#571,.F.);
#602 = ORIENTED_EDGE('',*,*,#603,.T.);
#603 = EDGE_CURVE('',#572,#531,#604,.T.);
#604 = LINE('',#605,#606);
#605 = CARTESIAN_POINT('',(16.,108.,29.));
#606 = VECTOR('',#607,1.);
#607 = DIRECTION('',(-0.,1.,0.));
#608 = ORIENTED_EDGE('',*,*,#530,.T.);
#609 = ORIENTED_EDGE('',*,*,#112,.T.);
#610 = PLANE('',#611);
#611 = AXIS2_PLACEMENT_3D('',#612,#613,#614);
#612 = CARTESIAN_POINT('',(16.,108.,29.));
#613 = DIRECTION('',(1.,0.,-0.));
#614 = DIRECTION('',(0.,0.,1.));
#615 = ADVANCED_FACE('',(#616),#643,.T.);
#616 = FACE_BOUND('',#617,.F.);
#617 = EDGE_LOOP('',(#618,#627,#628,#637));
#618 = ORIENTED_EDGE('',*,*,#619,.F.);
#619 = EDGE_CURVE('',#132,#620,#622,.T.);
#620 = VERTEX_POINT('',#621);
#621 = CARTESIAN_POINT('',(24.450859114056,86.,31.033539506104));
#622 = CIRCLE('',#623,7.);
#623 = AXIS2_PLACEMENT_3D('',#624,#625,#626);
#624 = CARTESIAN_POINT('',(28.,86.,25.));
#625 = DIRECTION('',(0.,1.,0.));
#626 = DIRECTION('',(0.507020126563,-0.,-0.861934215158));
#627 = ORIENTED_EDGE('',*,*,#129,.F.);
#628 = ORIENTED_EDGE('',*,*,#629,.T.);
#629 = EDGE_CURVE('',#130,#630,#632,.T.);
#630 = VERTEX_POINT('',#631);
#631 = CARTESIAN_POINT('',(24.450859114056,89.,31.033539506104));
#632 = CIRCLE('',#633,7.);
#633 = AXIS2_PLACEMENT_3D('',#634,#635,#636);
#634 = CARTESIAN_POINT('',(28.,89.,25.));
#635 = DIRECTION('',(0.,1.,0.));
#636 = DIRECTION('',(0.507020126563,-0.,-0.861934215158));
#637 = ORIENTED_EDGE('',*,*,#638,.F.);
#638 = EDGE_CURVE('',#620,#630,#639,.T.);
#639 = LINE('',#640,#641);
#640 = CARTESIAN_POINT('',(24.450859114056,86.,31.033539506104));
#641 = VECTOR('',#642,1.);
#642 = DIRECTION('',(0.,1.,0.));
#643 = CYLINDRICAL_SURFACE('',#644,7.);
#644 = AXIS2_PLACEMENT_3D('',#645,#646,#647);
#645 = CARTESIAN_POINT('',(28.,86.,25.));
#646 = DIRECTION('',(-0.,-1.,-0.));
#647 = DIRECTION('',(0.507020126563,-0.,-0.861934215158));
#648 = ADVANCED_FACE('',(#649,#694),#705,.T.);
#649 = FACE_BOUND('',#650,.T.);
#650 = EDGE_LOOP('',(#651,#652,#660,#669,#678,#686,#693));
#651 = ORIENTED_EDGE('',*,*,#629,.T.);
#652 = ORIENTED_EDGE('',*,*,#653,.T.);
#653 = EDGE_CURVE('',#630,#654,#656,.T.);
#654 = VERTEX_POINT('',#655);
#655 = CARTESIAN_POINT('',(37.294762839091,89.,38.588776991419));
#656 = LINE('',#657,#658);
#657 = CARTESIAN_POINT('',(24.450859114056,89.,31.033539506104));
#658 = VECTOR('',#659,1.);
#659 = DIRECTION('',(0.861934215158,0.,0.507020126563));
#660 = ORIENTED_EDGE('',*,*,#661,.T.);
#661 = EDGE_CURVE('',#654,#662,#664,.T.);
#662 = VERTEX_POINT('',#663);
#663 = CARTESIAN_POINT('',(45.,89.,43.5));
#664 = CIRCLE('',#665,8.5);
#665 = AXIS2_PLACEMENT_3D('',#666,#667,#668);
#666 = CARTESIAN_POINT('',(45.,89.,35.));
#667 = DIRECTION('',(0.,1.,0.));
#668 = DIRECTION('',(0.,-0.,1.));
#669 = ORIENTED_EDGE('',*,*,#670,.T.);
#670 = EDGE_CURVE('',#662,#671,#673,.T.);
#671 = VERTEX_POINT('',#672);
#672 = CARTESIAN_POINT('',(44.393044610978,89.,26.52169797921));
#673 = CIRCLE('',#674,8.5);
#674 = AXIS2_PLACEMENT_3D('',#675,#676,#677);
#675 = CARTESIAN_POINT('',(45.,89.,35.));
#676 = DIRECTION('',(0.,1.,0.));
#677 = DIRECTION('',(0.,-0.,1.));
#678 = ORIENTED_EDGE('',*,*,#679,.T.);
#679 = EDGE_CURVE('',#671,#680,#682,.T.);
#680 = VERTEX_POINT('',#681);
#681 = CARTESIAN_POINT('',(31.549140885944,89.,18.966460493896));
#682 = LINE('',#683,#684);
#683 = CARTESIAN_POINT('',(48.549140885944,89.,28.966460493896));
#684 = VECTOR('',#685,1.);
#685 = DIRECTION('',(-0.861934215158,0.,-0.507020126563));
#686 = ORIENTED_EDGE('',*,*,#687,.T.);
#687 = EDGE_CURVE('',#680,#140,#688,.T.);
#688 = CIRCLE('',#689,7.);
#689 = AXIS2_PLACEMENT_3D('',#690,#691,#692);
#690 = CARTESIAN_POINT('',(28.,89.,25.));
#691 = DIRECTION('',(0.,1.,0.));
#692 = DIRECTION('',(0.507020126563,-0.,-0.861934215158));
#693 = ORIENTED_EDGE('',*,*,#139,.T.);
#694 = FACE_BOUND('',#695,.T.);
#695 = EDGE_LOOP('',(#696));
#696 = ORIENTED_EDGE('',*,*,#697,.F.);
#697 = EDGE_CURVE('',#698,#698,#700,.T.);
#698 = VERTEX_POINT('',#699);
#699 = CARTESIAN_POINT('',(45.,89.,36.7));
#700 = CIRCLE('',#701,1.7);
#701 = AXIS2_PLACEMENT_3D('',#702,#703,#704);
#702 = CARTESIAN_POINT('',(45.,89.,35.));
#703 = DIRECTION('',(0.,1.,0.));
#704 = DIRECTION('',(0.,-0.,1.));
#705 = PLANE('',#706);
#706 = AXIS2_PLACEMENT_3D('',#707,#708,#709);
#707 = CARTESIAN_POINT('',(38.184385337826,89.,31.311066245359));
#708 = DIRECTION('',(0.,1.,0.));
#709 = DIRECTION('',(0.,-0.,1.));
#710 = ADVANCED_FACE('',(#711,#756),#767,.T.);
#711 = FACE_BOUND('',#712,.T.);
#712 = EDGE_LOOP('',(#713,#714,#715,#724,#732,#741,#750));
#713 = ORIENTED_EDGE('',*,*,#619,.F.);
#714 = ORIENTED_EDGE('',*,*,#156,.F.);
#715 = ORIENTED_EDGE('',*,*,#716,.F.);
#716 = EDGE_CURVE('',#717,#149,#719,.T.);
#717 = VERTEX_POINT('',#718);
#718 = CARTESIAN_POINT('',(31.549140885944,86.,18.966460493896));
#719 = CIRCLE('',#720,7.);
#720 = AXIS2_PLACEMENT_3D('',#721,#722,#723);
#721 = CARTESIAN_POINT('',(28.,86.,25.));
#722 = DIRECTION('',(0.,1.,0.));
#723 = DIRECTION('',(0.507020126563,-0.,-0.861934215158));
#724 = ORIENTED_EDGE('',*,*,#725,.F.);
#725 = EDGE_CURVE('',#726,#717,#728,.T.);
#726 = VERTEX_POINT('',#727);
#727 = CARTESIAN_POINT('',(44.393044610978,86.,26.52169797921));
#728 = LINE('',#729,#730);
#729 = CARTESIAN_POINT('',(48.549140885944,86.,28.966460493896));
#730 = VECTOR('',#731,1.);
#731 = DIRECTION('',(-0.861934215158,0.,-0.507020126563));
#732 = ORIENTED_EDGE('',*,*,#733,.F.);
#733 = EDGE_CURVE('',#734,#726,#736,.T.);
#734 = VERTEX_POINT('',#735);
#735 = CARTESIAN_POINT('',(45.,86.,43.5));
#736 = CIRCLE('',#737,8.5);
#737 = AXIS2_PLACEMENT_3D('',#738,#739,#740);
#738 = CARTESIAN_POINT('',(45.,86.,35.));
#739 = DIRECTION('',(0.,1.,0.));
#740 = DIRECTION('',(0.,-0.,1.));
#741 = ORIENTED_EDGE('',*,*,#742,.F.);
#742 = EDGE_CURVE('',#743,#734,#745,.T.);
#743 = VERTEX_POINT('',#744);
#744 = CARTESIAN_POINT('',(37.294762839091,86.,38.588776991419));
#745 = CIRCLE('',#746,8.5);
#746 = AXIS2_PLACEMENT_3D('',#747,#748,#749);
#747 = CARTESIAN_POINT('',(45.,86.,35.));
#748 = DIRECTION('',(0.,1.,0.));
#749 = DIRECTION('',(0.,-0.,1.));
#750 = ORIENTED_EDGE('',*,*,#751,.F.);
#751 = EDGE_CURVE('',#620,#743,#752,.T.);
#752 = LINE('',#753,#754);
#753 = CARTESIAN_POINT('',(24.450859114056,86.,31.033539506104));
#754 = VECTOR('',#755,1.);
#755 = DIRECTION('',(0.861934215158,0.,0.507020126563));
#756 = FACE_BOUND('',#757,.T.);
#757 = EDGE_LOOP('',(#758));
#758 = ORIENTED_EDGE('',*,*,#759,.T.);
#759 = EDGE_CURVE('',#760,#760,#762,.T.);
#760 = VERTEX_POINT('',#761);
#761 = CARTESIAN_POINT('',(45.,86.,36.7));
#762 = CIRCLE('',#763,1.7);
#763 = AXIS2_PLACEMENT_3D('',#764,#765,#766);
#764 = CARTESIAN_POINT('',(45.,86.,35.));
#765 = DIRECTION('',(0.,1.,0.));
#766 = DIRECTION('',(0.,-0.,1.));
#767 = PLANE('',#768);
#768 = AXIS2_PLACEMENT_3D('',#769,#770,#771);
#769 = CARTESIAN_POINT('',(38.184385337826,86.,31.311066245359));
#770 = DIRECTION('',(-0.,-1.,-0.));
#771 = DIRECTION('',(0.,0.,-1.));
#772 = ADVANCED_FACE('',(#773),#784,.T.);
#773 = FACE_BOUND('',#774,.F.);
#774 = EDGE_LOOP('',(#775,#776,#782,#783));
#775 = ORIENTED_EDGE('',*,*,#716,.F.);
#776 = ORIENTED_EDGE('',*,*,#777,.T.);
#777 = EDGE_CURVE('',#717,#680,#778,.T.);
#778 = LINE('',#779,#780);
#779 = CARTESIAN_POINT('',(31.549140885944,86.,18.966460493896));
#780 = VECTOR('',#781,1.);
#781 = DIRECTION('',(0.,1.,0.));
#782 = ORIENTED_EDGE('',*,*,#687,.T.);
#783 = ORIENTED_EDGE('',*,*,#148,.T.);
#784 = CYLINDRICAL_SURFACE('',#785,7.);
#785 = AXIS2_PLACEMENT_3D('',#786,#787,#788);
#786 = CARTESIAN_POINT('',(28.,86.,25.));
#787 = DIRECTION('',(-0.,-1.,-0.));
#788 = DIRECTION('',(0.507020126563,-0.,-0.861934215158));
#789 = ADVANCED_FACE('',(#790),#815,.T.);
#790 = FACE_BOUND('',#791,.T.);
#791 = EDGE_LOOP('',(#792,#800,#808,#814));
#792 = ORIENTED_EDGE('',*,*,#793,.F.);
#793 = EDGE_CURVE('',#794,#168,#796,.T.);
#794 = VERTEX_POINT('',#795);
#795 = CARTESIAN_POINT('',(-16.,94.,29.));
#796 = LINE('',#797,#798);
#797 = CARTESIAN_POINT('',(-16.,94.,29.));
#798 = VECTOR('',#799,1.);
#799 = DIRECTION('',(0.,0.,1.));
#800 = ORIENTED_EDGE('',*,*,#801,.T.);
#801 = EDGE_CURVE('',#794,#802,#804,.T.);
#802 = VERTEX_POINT('',#803);
#803 = CARTESIAN_POINT('',(-16.,98.,29.));
#804 = LINE('',#805,#806);
#805 = CARTESIAN_POINT('',(-16.,94.,29.));
#806 = VECTOR('',#807,1.);
#807 = DIRECTION('',(-0.,1.,0.));
#808 = ORIENTED_EDGE('',*,*,#809,.T.);
#809 = EDGE_CURVE('',#802,#166,#810,.T.);
#810 = LINE('',#811,#812);
#811 = CARTESIAN_POINT('',(-16.,98.,29.));
#812 = VECTOR('',#813,1.);
#813 = DIRECTION('',(0.,0.,1.));
#814 = ORIENTED_EDGE('',*,*,#165,.T.);
#815 = PLANE('',#816);
#816 = AXIS2_PLACEMENT_3D('',#817,#818,#819);
#817 = CARTESIAN_POINT('',(-16.,94.,29.));
#818 = DIRECTION('',(1.,0.,-0.));
#819 = DIRECTION('',(0.,0.,1.));
#820 = ADVANCED_FACE('',(#821),#856,.F.);
#821 = FACE_BOUND('',#822,.F.);
#822 = EDGE_LOOP('',(#823,#831,#832,#833,#841,#849));
#823 = ORIENTED_EDGE('',*,*,#824,.F.);
#824 = EDGE_CURVE('',#802,#825,#827,.T.);
#825 = VERTEX_POINT('',#826);
#826 = CARTESIAN_POINT('',(-15.74801574802,98.,29.));
#827 = LINE('',#828,#829);
#828 = CARTESIAN_POINT('',(-16.,98.,29.));
#829 = VECTOR('',#830,1.);
#830 = DIRECTION('',(1.,0.,-0.));
#831 = ORIENTED_EDGE('',*,*,#809,.T.);
#832 = ORIENTED_EDGE('',*,*,#175,.F.);
#833 = ORIENTED_EDGE('',*,*,#834,.F.);
#834 = EDGE_CURVE('',#835,#176,#837,.T.);
#835 = VERTEX_POINT('',#836);
#836 = CARTESIAN_POINT('',(16.,98.,29.));
#837 = LINE('',#838,#839);
#838 = CARTESIAN_POINT('',(16.,98.,29.));
#839 = VECTOR('',#840,1.);
#840 = DIRECTION('',(0.,0.,1.));
#841 = ORIENTED_EDGE('',*,*,#842,.F.);
#842 = EDGE_CURVE('',#843,#835,#845,.T.);
#843 = VERTEX_POINT('',#844);
#844 = CARTESIAN_POINT('',(15.748015748024,98.,29.));
#845 = LINE('',#846,#847);
#846 = CARTESIAN_POINT('',(-16.,98.,29.));
#847 = VECTOR('',#848,1.);
#848 = DIRECTION('',(1.,0.,-0.));
#849 = ORIENTED_EDGE('',*,*,#850,.T.);
#850 = EDGE_CURVE('',#843,#825,#851,.T.);
#851 = CIRCLE('',#852,33.);
#852 = AXIS2_PLACEMENT_3D('',#853,#854,#855);
#853 = CARTESIAN_POINT('',(0.,98.,2.307664586322E-15));
#854 = DIRECTION('',(0.,-1.,-0.));
#855 = DIRECTION('',(-0.98845493517,-0.,0.151515151515));
#856 = PLANE('',#857);
#857 = AXIS2_PLACEMENT_3D('',#858,#859,#860);
#858 = CARTESIAN_POINT('',(-16.,98.,29.));
#859 = DIRECTION('',(-0.,1.,0.));
#860 = DIRECTION('',(0.,0.,1.));
#861 = ADVANCED_FACE('',(#862),#897,.T.);
#862 = FACE_BOUND('',#863,.T.);
#863 = EDGE_LOOP('',(#864,#872,#873,#874,#882,#890));
#864 = ORIENTED_EDGE('',*,*,#865,.F.);
#865 = EDGE_CURVE('',#794,#866,#868,.T.);
#866 = VERTEX_POINT('',#867);
#867 = CARTESIAN_POINT('',(-15.74801574802,94.,29.));
#868 = LINE('',#869,#870);
#869 = CARTESIAN_POINT('',(-16.,94.,29.));
#870 = VECTOR('',#871,1.);
#871 = DIRECTION('',(1.,0.,-0.));
#872 = ORIENTED_EDGE('',*,*,#793,.T.);
#873 = ORIENTED_EDGE('',*,*,#192,.F.);
#874 = ORIENTED_EDGE('',*,*,#875,.F.);
#875 = EDGE_CURVE('',#876,#185,#878,.T.);
#876 = VERTEX_POINT('',#877);
#877 = CARTESIAN_POINT('',(16.,94.,29.));
#878 = LINE('',#879,#880);
#879 = CARTESIAN_POINT('',(16.,94.,29.));
#880 = VECTOR('',#881,1.);
#881 = DIRECTION('',(0.,0.,1.));
#882 = ORIENTED_EDGE('',*,*,#883,.F.);
#883 = EDGE_CURVE('',#884,#876,#886,.T.);
#884 = VERTEX_POINT('',#885);
#885 = CARTESIAN_POINT('',(15.748015748024,94.,29.));
#886 = LINE('',#887,#888);
#887 = CARTESIAN_POINT('',(-16.,94.,29.));
#888 = VECTOR('',#889,1.);
#889 = DIRECTION('',(1.,0.,-0.));
#890 = ORIENTED_EDGE('',*,*,#891,.T.);
#891 = EDGE_CURVE('',#884,#866,#892,.T.);
#892 = CIRCLE('',#893,33.);
#893 = AXIS2_PLACEMENT_3D('',#894,#895,#896);
#894 = CARTESIAN_POINT('',(0.,94.,2.307664586322E-15));
#895 = DIRECTION('',(0.,-1.,-0.));
#896 = DIRECTION('',(-0.98845493517,-0.,0.151515151515));
#897 = PLANE('',#898);
#898 = AXIS2_PLACEMENT_3D('',#899,#900,#901);
#899 = CARTESIAN_POINT('',(-16.,94.,29.));
#900 = DIRECTION('',(-0.,1.,0.));
#901 = DIRECTION('',(0.,0.,1.));
#902 = ADVANCED_FACE('',(#903),#914,.F.);
#903 = FACE_BOUND('',#904,.F.);
#904 = EDGE_LOOP('',(#905,#906,#912,#913));
#905 = ORIENTED_EDGE('',*,*,#875,.F.);
#906 = ORIENTED_EDGE('',*,*,#907,.T.);
#907 = EDGE_CURVE('',#876,#835,#908,.T.);
#908 = LINE('',#909,#910);
#909 = CARTESIAN_POINT('',(16.,94.,29.));
#910 = VECTOR('',#911,1.);
#911 = DIRECTION('',(-0.,1.,0.));
#912 = ORIENTED_EDGE('',*,*,#834,.T.);
#913 = ORIENTED_EDGE('',*,*,#184,.T.);
#914 = PLANE('',#915);
#915 = AXIS2_PLACEMENT_3D('',#916,#917,#918);
#916 = CARTESIAN_POINT('',(16.,94.,29.));
#917 = DIRECTION('',(1.,0.,-0.));
#918 = DIRECTION('',(0.,0.,1.));
#919 = ADVANCED_FACE('',(#920),#947,.T.);
#920 = FACE_BOUND('',#921,.F.);
#921 = EDGE_LOOP('',(#922,#931,#932,#941));
#922 = ORIENTED_EDGE('',*,*,#923,.F.);
#923 = EDGE_CURVE('',#204,#924,#926,.T.);
#924 = VERTEX_POINT('',#925);
#925 = CARTESIAN_POINT('',(-31.54914088594,86.,18.966460493896));
#926 = CIRCLE('',#927,7.);
#927 = AXIS2_PLACEMENT_3D('',#928,#929,#930);
#928 = CARTESIAN_POINT('',(-28.,86.,25.));
#929 = DIRECTION('',(0.,1.,0.));
#930 = DIRECTION('',(0.507020126563,-0.,0.861934215158));
#931 = ORIENTED_EDGE('',*,*,#201,.F.);
#932 = ORIENTED_EDGE('',*,*,#933,.T.);
#933 = EDGE_CURVE('',#202,#934,#936,.T.);
#934 = VERTEX_POINT('',#935);
#935 = CARTESIAN_POINT('',(-31.54914088594,89.,18.966460493896));
#936 = CIRCLE('',#937,7.);
#937 = AXIS2_PLACEMENT_3D('',#938,#939,#940);
#938 = CARTESIAN_POINT('',(-28.,89.,25.));
#939 = DIRECTION('',(0.,1.,0.));
#940 = DIRECTION('',(0.507020126563,-0.,0.861934215158));
#941 = ORIENTED_EDGE('',*,*,#942,.F.);
#942 = EDGE_CURVE('',#924,#934,#943,.T.);
#943 = LINE('',#944,#945);
#944 = CARTESIAN_POINT('',(-31.54914088594,86.,18.966460493896));
#945 = VECTOR('',#946,1.);
#946 = DIRECTION('',(0.,1.,0.));
#947 = CYLINDRICAL_SURFACE('',#948,7.);
#948 = AXIS2_PLACEMENT_3D('',#949,#950,#951);
#949 = CARTESIAN_POINT('',(-28.,86.,25.));
#950 = DIRECTION('',(-0.,-1.,-0.));
#951 = DIRECTION('',(0.507020126563,-0.,0.861934215158));
#952 = ADVANCED_FACE('',(#953,#998),#1009,.T.);
#953 = FACE_BOUND('',#954,.T.);
#954 = EDGE_LOOP('',(#955,#956,#964,#973,#982,#990,#997));
#955 = ORIENTED_EDGE('',*,*,#933,.T.);
#956 = ORIENTED_EDGE('',*,*,#957,.T.);
#957 = EDGE_CURVE('',#934,#958,#960,.T.);
#958 = VERTEX_POINT('',#959);
#959 = CARTESIAN_POINT('',(-44.39304461097,89.,26.52169797921));
#960 = LINE('',#961,#962);
#961 = CARTESIAN_POINT('',(-31.54914088594,89.,18.966460493896));
#962 = VECTOR('',#963,1.);
#963 = DIRECTION('',(-0.861934215158,0.,0.507020126563));
#964 = ORIENTED_EDGE('',*,*,#965,.T.);
#965 = EDGE_CURVE('',#958,#966,#968,.T.);
#966 = VERTEX_POINT('',#967);
#967 = CARTESIAN_POINT('',(-45.,89.,43.5));
#968 = CIRCLE('',#969,8.5);
#969 = AXIS2_PLACEMENT_3D('',#970,#971,#972);
#970 = CARTESIAN_POINT('',(-45.,89.,35.));
#971 = DIRECTION('',(0.,1.,0.));
#972 = DIRECTION('',(0.,-0.,1.));
#973 = ORIENTED_EDGE('',*,*,#974,.T.);
#974 = EDGE_CURVE('',#966,#975,#977,.T.);
#975 = VERTEX_POINT('',#976);
#976 = CARTESIAN_POINT('',(-37.29476283909,89.,38.588776991419));
#977 = CIRCLE('',#978,8.5);
#978 = AXIS2_PLACEMENT_3D('',#979,#980,#981);
#979 = CARTESIAN_POINT('',(-45.,89.,35.));
#980 = DIRECTION('',(0.,1.,0.));
#981 = DIRECTION('',(0.,-0.,1.));
#982 = ORIENTED_EDGE('',*,*,#983,.T.);
#983 = EDGE_CURVE('',#975,#984,#986,.T.);
#984 = VERTEX_POINT('',#985);
#985 = CARTESIAN_POINT('',(-24.45085911405,89.,31.033539506104));
#986 = LINE('',#987,#988);
#987 = CARTESIAN_POINT('',(-41.45085911405,89.,41.033539506104));
#988 = VECTOR('',#989,1.);
#989 = DIRECTION('',(0.861934215158,0.,-0.507020126563));
#990 = ORIENTED_EDGE('',*,*,#991,.T.);
#991 = EDGE_CURVE('',#984,#212,#992,.T.);
#992 = CIRCLE('',#993,7.);
#993 = AXIS2_PLACEMENT_3D('',#994,#995,#996);
#994 = CARTESIAN_POINT('',(-28.,89.,25.));
#995 = DIRECTION('',(0.,1.,0.));
#996 = DIRECTION('',(0.507020126563,-0.,0.861934215158));
#997 = ORIENTED_EDGE('',*,*,#211,.T.);
#998 = FACE_BOUND('',#999,.T.);
#999 = EDGE_LOOP('',(#1000));
#1000 = ORIENTED_EDGE('',*,*,#1001,.F.);
#1001 = EDGE_CURVE('',#1002,#1002,#1004,.T.);
#1002 = VERTEX_POINT('',#1003);
#1003 = CARTESIAN_POINT('',(-45.,89.,36.7));
#1004 = CIRCLE('',#1005,1.7);
#1005 = AXIS2_PLACEMENT_3D('',#1006,#1007,#1008);
#1006 = CARTESIAN_POINT('',(-45.,89.,35.));
#1007 = DIRECTION('',(0.,1.,0.));
#1008 = DIRECTION('',(0.,-0.,1.));
#1009 = PLANE('',#1010);
#1010 = AXIS2_PLACEMENT_3D('',#1011,#1012,#1013);
#1011 = CARTESIAN_POINT('',(-38.18438533782,89.,31.311066245359));
#1012 = DIRECTION('',(0.,1.,0.));
#1013 = DIRECTION('',(0.,-0.,1.));
#1014 = ADVANCED_FACE('',(#1015,#1060),#1071,.T.);
#1015 = FACE_BOUND('',#1016,.T.);
#1016 = EDGE_LOOP('',(#1017,#1018,#1019,#1028,#1036,#1045,#1054));
#1017 = ORIENTED_EDGE('',*,*,#923,.F.);
#1018 = ORIENTED_EDGE('',*,*,#228,.F.);
#1019 = ORIENTED_EDGE('',*,*,#1020,.F.);
#1020 = EDGE_CURVE('',#1021,#221,#1023,.T.);
#1021 = VERTEX_POINT('',#1022);
#1022 = CARTESIAN_POINT('',(-24.45085911405,86.,31.033539506104));
#1023 = CIRCLE('',#1024,7.);
#1024 = AXIS2_PLACEMENT_3D('',#1025,#1026,#1027);
#1025 = CARTESIAN_POINT('',(-28.,86.,25.));
#1026 = DIRECTION('',(0.,1.,0.));
#1027 = DIRECTION('',(0.507020126563,-0.,0.861934215158));
#1028 = ORIENTED_EDGE('',*,*,#1029,.F.);
#1029 = EDGE_CURVE('',#1030,#1021,#1032,.T.);
#1030 = VERTEX_POINT('',#1031);
#1031 = CARTESIAN_POINT('',(-37.29476283909,86.,38.588776991419));
#1032 = LINE('',#1033,#1034);
#1033 = CARTESIAN_POINT('',(-41.45085911405,86.,41.033539506104));
#1034 = VECTOR('',#1035,1.);
#1035 = DIRECTION('',(0.861934215158,0.,-0.507020126563));
#1036 = ORIENTED_EDGE('',*,*,#1037,.F.);
#1037 = EDGE_CURVE('',#1038,#1030,#1040,.T.);
#1038 = VERTEX_POINT('',#1039);
#1039 = CARTESIAN_POINT('',(-45.,86.,43.5));
#1040 = CIRCLE('',#1041,8.5);
#1041 = AXIS2_PLACEMENT_3D('',#1042,#1043,#1044);
#1042 = CARTESIAN_POINT('',(-45.,86.,35.));
#1043 = DIRECTION('',(0.,1.,0.));
#1044 = DIRECTION('',(0.,-0.,1.));
#1045 = ORIENTED_EDGE('',*,*,#1046,.F.);
#1046 = EDGE_CURVE('',#1047,#1038,#1049,.T.);
#1047 = VERTEX_POINT('',#1048);
#1048 = CARTESIAN_POINT('',(-44.39304461097,86.,26.52169797921));
#1049 = CIRCLE('',#1050,8.5);
#1050 = AXIS2_PLACEMENT_3D('',#1051,#1052,#1053);
#1051 = CARTESIAN_POINT('',(-45.,86.,35.));
#1052 = DIRECTION('',(0.,1.,0.));
#1053 = DIRECTION('',(0.,-0.,1.));
#1054 = ORIENTED_EDGE('',*,*,#1055,.F.);
#1055 = EDGE_CURVE('',#924,#1047,#1056,.T.);
#1056 = LINE('',#1057,#1058);
#1057 = CARTESIAN_POINT('',(-31.54914088594,86.,18.966460493896));
#1058 = VECTOR('',#1059,1.);
#1059 = DIRECTION('',(-0.861934215158,0.,0.507020126563));
#1060 = FACE_BOUND('',#1061,.T.);
#1061 = EDGE_LOOP('',(#1062));
#1062 = ORIENTED_EDGE('',*,*,#1063,.T.);
#1063 = EDGE_CURVE('',#1064,#1064,#1066,.T.);
#1064 = VERTEX_POINT('',#1065);
#1065 = CARTESIAN_POINT('',(-45.,86.,36.7));
#1066 = CIRCLE('',#1067,1.7);
#1067 = AXIS2_PLACEMENT_3D('',#1068,#1069,#1070);
#1068 = CARTESIAN_POINT('',(-45.,86.,35.));
#1069 = DIRECTION('',(0.,1.,0.));
#1070 = DIRECTION('',(0.,-0.,1.));
#1071 = PLANE('',#1072);
#1072 = AXIS2_PLACEMENT_3D('',#1073,#1074,#1075);
#1073 = CARTESIAN_POINT('',(-38.18438533782,86.,31.311066245359));
#1074 = DIRECTION('',(-0.,-1.,-0.));
#1075 = DIRECTION('',(0.,0.,-1.));
#1076 = ADVANCED_FACE('',(#1077),#1088,.T.);
#1077 = FACE_BOUND('',#1078,.F.);
#1078 = EDGE_LOOP('',(#1079,#1080,#1086,#1087));
#1079 = ORIENTED_EDGE('',*,*,#1020,.F.);
#1080 = ORIENTED_EDGE('',*,*,#1081,.T.);
#1081 = EDGE_CURVE('',#1021,#984,#1082,.T.);
#1082 = LINE('',#1083,#1084);
#1083 = CARTESIAN_POINT('',(-24.45085911405,86.,31.033539506104));
#1084 = VECTOR('',#1085,1.);
#1085 = DIRECTION('',(0.,1.,0.));
#1086 = ORIENTED_EDGE('',*,*,#991,.T.);
#1087 = ORIENTED_EDGE('',*,*,#220,.T.);
#1088 = CYLINDRICAL_SURFACE('',#1089,7.);
#1089 = AXIS2_PLACEMENT_3D('',#1090,#1091,#1092);
#1090 = CARTESIAN_POINT('',(-28.,86.,25.));
#1091 = DIRECTION('',(-0.,-1.,-0.));
#1092 = DIRECTION('',(0.507020126563,-0.,0.861934215158));
#1093 = ADVANCED_FACE('',(#1094,#1102,#1118,#1134),#1150,.F.);
#1094 = FACE_BOUND('',#1095,.T.);
#1095 = EDGE_LOOP('',(#1096,#1097,#1098,#1099,#1100,#1101));
#1096 = ORIENTED_EDGE('',*,*,#344,.T.);
#1097 = ORIENTED_EDGE('',*,*,#317,.T.);
#1098 = ORIENTED_EDGE('',*,*,#326,.T.);
#1099 = ORIENTED_EDGE('',*,*,#243,.F.);
#1100 = ORIENTED_EDGE('',*,*,#292,.F.);
#1101 = ORIENTED_EDGE('',*,*,#283,.F.);
#1102 = FACE_BOUND('',#1103,.T.);
#1103 = EDGE_LOOP('',(#1104,#1105,#1111,#1112));
#1104 = ORIENTED_EDGE('',*,*,#416,.F.);
#1105 = ORIENTED_EDGE('',*,*,#1106,.F.);
#1106 = EDGE_CURVE('',#467,#409,#1107,.T.);
#1107 = LINE('',#1108,#1109);
#1108 = CARTESIAN_POINT('',(15.748015748024,78.2,29.));
#1109 = VECTOR('',#1110,1.);
#1110 = DIRECTION('',(0.,-1.,-0.));
#1111 = ORIENTED_EDGE('',*,*,#474,.T.);
#1112 = ORIENTED_EDGE('',*,*,#1113,.T.);
#1113 = EDGE_CURVE('',#456,#391,#1114,.T.);
#1114 = LINE('',#1115,#1116);
#1115 = CARTESIAN_POINT('',(-15.74801574802,78.2,29.));
#1116 = VECTOR('',#1117,1.);
#1117 = DIRECTION('',(0.,-1.,-0.));
#1118 = FACE_BOUND('',#1119,.T.);
#1119 = EDGE_LOOP('',(#1120,#1121,#1127,#1128));
#1120 = ORIENTED_EDGE('',*,*,#587,.F.);
#1121 = ORIENTED_EDGE('',*,*,#1122,.F.);
#1122 = EDGE_CURVE('',#539,#580,#1123,.T.);
#1123 = LINE('',#1124,#1125);
#1124 = CARTESIAN_POINT('',(15.748015748024,78.2,29.));
#1125 = VECTOR('',#1126,1.);
#1126 = DIRECTION('',(0.,-1.,-0.));
#1127 = ORIENTED_EDGE('',*,*,#546,.T.);
#1128 = ORIENTED_EDGE('',*,*,#1129,.T.);
#1129 = EDGE_CURVE('',#521,#562,#1130,.T.);
#1130 = LINE('',#1131,#1132);
#1131 = CARTESIAN_POINT('',(-15.74801574802,78.2,29.));
#1132 = VECTOR('',#1133,1.);
#1133 = DIRECTION('',(0.,-1.,-0.));
#1134 = FACE_BOUND('',#1135,.T.);
#1135 = EDGE_LOOP('',(#1136,#1137,#1143,#1144));
#1136 = ORIENTED_EDGE('',*,*,#891,.F.);
#1137 = ORIENTED_EDGE('',*,*,#1138,.F.);
#1138 = EDGE_CURVE('',#843,#884,#1139,.T.);
#1139 = LINE('',#1140,#1141);
#1140 = CARTESIAN_POINT('',(15.748015748024,78.2,29.));
#1141 = VECTOR('',#1142,1.);
#1142 = DIRECTION('',(0.,-1.,-0.));
#1143 = ORIENTED_EDGE('',*,*,#850,.T.);
#1144 = ORIENTED_EDGE('',*,*,#1145,.T.);
#1145 = EDGE_CURVE('',#825,#866,#1146,.T.);
#1146 = LINE('',#1147,#1148);
#1147 = CARTESIAN_POINT('',(-15.74801574802,78.2,29.));
#1148 = VECTOR('',#1149,1.);
#1149 = DIRECTION('',(0.,-1.,-0.));
#1150 = CYLINDRICAL_SURFACE('',#1151,33.);
#1151 = AXIS2_PLACEMENT_3D('',#1152,#1153,#1154);
#1152 = CARTESIAN_POINT('',(0.,78.2,2.307664586322E-15));
#1153 = DIRECTION('',(0.,-1.,-0.));
#1154 = DIRECTION('',(-0.98845493517,-0.,0.151515151515));
#1155 = ADVANCED_FACE('',(#1156),#1162,.T.);
#1156 = FACE_BOUND('',#1157,.T.);
#1157 = EDGE_LOOP('',(#1158,#1159,#1160,#1161));
#1158 = ORIENTED_EDGE('',*,*,#455,.F.);
#1159 = ORIENTED_EDGE('',*,*,#367,.F.);
#1160 = ORIENTED_EDGE('',*,*,#390,.T.);
#1161 = ORIENTED_EDGE('',*,*,#1113,.F.);
#1162 = PLANE('',#1163);
#1163 = AXIS2_PLACEMENT_3D('',#1164,#1165,#1166);
#1164 = CARTESIAN_POINT('',(-16.,121.,29.));
#1165 = DIRECTION('',(0.,0.,1.));
#1166 = DIRECTION('',(1.,0.,-0.));
#1167 = ADVANCED_FACE('',(#1168),#1174,.T.);
#1168 = FACE_BOUND('',#1169,.T.);
#1169 = EDGE_LOOP('',(#1170,#1171,#1172,#1173));
#1170 = ORIENTED_EDGE('',*,*,#466,.F.);
#1171 = ORIENTED_EDGE('',*,*,#1106,.T.);
#1172 = ORIENTED_EDGE('',*,*,#408,.T.);
#1173 = ORIENTED_EDGE('',*,*,#432,.T.);
#1174 = PLANE('',#1175);
#1175 = AXIS2_PLACEMENT_3D('',#1176,#1177,#1178);
#1176 = CARTESIAN_POINT('',(-16.,121.,29.));
#1177 = DIRECTION('',(0.,0.,1.));
#1178 = DIRECTION('',(1.,0.,-0.));
#1179 = ADVANCED_FACE('',(#1180),#1186,.T.);
#1180 = FACE_BOUND('',#1181,.T.);
#1181 = EDGE_LOOP('',(#1182,#1183,#1184,#1185));
#1182 = ORIENTED_EDGE('',*,*,#520,.F.);
#1183 = ORIENTED_EDGE('',*,*,#497,.F.);
#1184 = ORIENTED_EDGE('',*,*,#561,.T.);
#1185 = ORIENTED_EDGE('',*,*,#1129,.F.);
#1186 = PLANE('',#1187);
#1187 = AXIS2_PLACEMENT_3D('',#1188,#1189,#1190);
#1188 = CARTESIAN_POINT('',(-16.,108.,29.));
#1189 = DIRECTION('',(0.,0.,1.));
#1190 = DIRECTION('',(1.,0.,-0.));
#1191 = ADVANCED_FACE('',(#1192),#1198,.T.);
#1192 = FACE_BOUND('',#1193,.T.);
#1193 = EDGE_LOOP('',(#1194,#1195,#1196,#1197));
#1194 = ORIENTED_EDGE('',*,*,#538,.F.);
#1195 = ORIENTED_EDGE('',*,*,#1122,.T.);
#1196 = ORIENTED_EDGE('',*,*,#579,.T.);
#1197 = ORIENTED_EDGE('',*,*,#603,.T.);
#1198 = PLANE('',#1199);
#1199 = AXIS2_PLACEMENT_3D('',#1200,#1201,#1202);
#1200 = CARTESIAN_POINT('',(-16.,108.,29.));
#1201 = DIRECTION('',(0.,0.,1.));
#1202 = DIRECTION('',(1.,0.,-0.));
#1203 = ADVANCED_FACE('',(#1204),#1215,.F.);
#1204 = FACE_BOUND('',#1205,.F.);
#1205 = EDGE_LOOP('',(#1206,#1207,#1208,#1209));
#1206 = ORIENTED_EDGE('',*,*,#751,.F.);
#1207 = ORIENTED_EDGE('',*,*,#638,.T.);
#1208 = ORIENTED_EDGE('',*,*,#653,.T.);
#1209 = ORIENTED_EDGE('',*,*,#1210,.F.);
#1210 = EDGE_CURVE('',#743,#654,#1211,.T.);
#1211 = LINE('',#1212,#1213);
#1212 = CARTESIAN_POINT('',(37.29476283909,86.,38.588776991418));
#1213 = VECTOR('',#1214,1.);
#1214 = DIRECTION('',(0.,1.,0.));
#1215 = PLANE('',#1216);
#1216 = AXIS2_PLACEMENT_3D('',#1217,#1218,#1219);
#1217 = CARTESIAN_POINT('',(24.450859114056,86.,31.033539506104));
#1218 = DIRECTION('',(0.507020126563,0.,-0.861934215158));
#1219 = DIRECTION('',(0.861934215158,0.,0.507020126563));
#1220 = ADVANCED_FACE('',(#1221),#1234,.T.);
#1221 = FACE_BOUND('',#1222,.T.);
#1222 = EDGE_LOOP('',(#1223,#1224,#1230,#1231,#1232,#1233));
#1223 = ORIENTED_EDGE('',*,*,#733,.T.);
#1224 = ORIENTED_EDGE('',*,*,#1225,.T.);
#1225 = EDGE_CURVE('',#726,#671,#1226,.T.);
#1226 = LINE('',#1227,#1228);
#1227 = CARTESIAN_POINT('',(44.393044610978,86.,26.52169797921));
#1228 = VECTOR('',#1229,1.);
#1229 = DIRECTION('',(0.,1.,0.));
#1230 = ORIENTED_EDGE('',*,*,#670,.F.);
#1231 = ORIENTED_EDGE('',*,*,#661,.F.);
#1232 = ORIENTED_EDGE('',*,*,#1210,.F.);
#1233 = ORIENTED_EDGE('',*,*,#742,.T.);
#1234 = CYLINDRICAL_SURFACE('',#1235,8.5);
#1235 = AXIS2_PLACEMENT_3D('',#1236,#1237,#1238);
#1236 = CARTESIAN_POINT('',(45.,86.,35.));
#1237 = DIRECTION('',(0.,1.,0.));
#1238 = DIRECTION('',(0.,-0.,1.));
#1239 = ADVANCED_FACE('',(#1240),#1246,.F.);
#1240 = FACE_BOUND('',#1241,.F.);
#1241 = EDGE_LOOP('',(#1242,#1243,#1244,#1245));
#1242 = ORIENTED_EDGE('',*,*,#725,.F.);
#1243 = ORIENTED_EDGE('',*,*,#1225,.T.);
#1244 = ORIENTED_EDGE('',*,*,#679,.T.);
#1245 = ORIENTED_EDGE('',*,*,#777,.F.);
#1246 = PLANE('',#1247);
#1247 = AXIS2_PLACEMENT_3D('',#1248,#1249,#1250);
#1248 = CARTESIAN_POINT('',(48.549140885944,86.,28.966460493896));
#1249 = DIRECTION('',(-0.507020126563,0.,0.861934215158));
#1250 = DIRECTION('',(-0.861934215158,0.,-0.507020126563));
#1251 = ADVANCED_FACE('',(#1252),#1263,.F.);
#1252 = FACE_BOUND('',#1253,.F.);
#1253 = EDGE_LOOP('',(#1254,#1255,#1261,#1262));
#1254 = ORIENTED_EDGE('',*,*,#697,.F.);
#1255 = ORIENTED_EDGE('',*,*,#1256,.F.);
#1256 = EDGE_CURVE('',#760,#698,#1257,.T.);
#1257 = LINE('',#1258,#1259);
#1258 = CARTESIAN_POINT('',(45.,85.5,36.7));
#1259 = VECTOR('',#1260,1.);
#1260 = DIRECTION('',(0.,1.,0.));
#1261 = ORIENTED_EDGE('',*,*,#759,.T.);
#1262 = ORIENTED_EDGE('',*,*,#1256,.T.);
#1263 = CYLINDRICAL_SURFACE('',#1264,1.7);
#1264 = AXIS2_PLACEMENT_3D('',#1265,#1266,#1267);
#1265 = CARTESIAN_POINT('',(45.,85.5,35.));
#1266 = DIRECTION('',(0.,1.,0.));
#1267 = DIRECTION('',(0.,-0.,1.));
#1268 = ADVANCED_FACE('',(#1269),#1275,.T.);
#1269 = FACE_BOUND('',#1270,.T.);
#1270 = EDGE_LOOP('',(#1271,#1272,#1273,#1274));
#1271 = ORIENTED_EDGE('',*,*,#824,.F.);
#1272 = ORIENTED_EDGE('',*,*,#801,.F.);
#1273 = ORIENTED_EDGE('',*,*,#865,.T.);
#1274 = ORIENTED_EDGE('',*,*,#1145,.F.);
#1275 = PLANE('',#1276);
#1276 = AXIS2_PLACEMENT_3D('',#1277,#1278,#1279);
#1277 = CARTESIAN_POINT('',(-16.,94.,29.));
#1278 = DIRECTION('',(0.,0.,1.));
#1279 = DIRECTION('',(1.,0.,-0.));
#1280 = ADVANCED_FACE('',(#1281),#1287,.T.);
#1281 = FACE_BOUND('',#1282,.T.);
#1282 = EDGE_LOOP('',(#1283,#1284,#1285,#1286));
#1283 = ORIENTED_EDGE('',*,*,#842,.F.);
#1284 = ORIENTED_EDGE('',*,*,#1138,.T.);
#1285 = ORIENTED_EDGE('',*,*,#883,.T.);
#1286 = ORIENTED_EDGE('',*,*,#907,.T.);
#1287 = PLANE('',#1288);
#1288 = AXIS2_PLACEMENT_3D('',#1289,#1290,#1291);
#1289 = CARTESIAN_POINT('',(-16.,94.,29.));
#1290 = DIRECTION('',(0.,0.,1.));
#1291 = DIRECTION('',(1.,0.,-0.));
#1292 = ADVANCED_FACE('',(#1293),#1304,.F.);
#1293 = FACE_BOUND('',#1294,.F.);
#1294 = EDGE_LOOP('',(#1295,#1296,#1297,#1298));
#1295 = ORIENTED_EDGE('',*,*,#1055,.F.);
#1296 = ORIENTED_EDGE('',*,*,#942,.T.);
#1297 = ORIENTED_EDGE('',*,*,#957,.T.);
#1298 = ORIENTED_EDGE('',*,*,#1299,.F.);
#1299 = EDGE_CURVE('',#1047,#958,#1300,.T.);
#1300 = LINE('',#1301,#1302);
#1301 = CARTESIAN_POINT('',(-44.39304461097,86.,26.52169797921));
#1302 = VECTOR('',#1303,1.);
#1303 = DIRECTION('',(0.,1.,0.));
#1304 = PLANE('',#1305);
#1305 = AXIS2_PLACEMENT_3D('',#1306,#1307,#1308);
#1306 = CARTESIAN_POINT('',(-31.54914088594,86.,18.966460493896));
#1307 = DIRECTION('',(0.507020126563,-0.,0.861934215158));
#1308 = DIRECTION('',(-0.861934215158,0.,0.507020126563));
#1309 = ADVANCED_FACE('',(#1310),#1323,.T.);
#1310 = FACE_BOUND('',#1311,.T.);
#1311 = EDGE_LOOP('',(#1312,#1313,#1319,#1320,#1321,#1322));
#1312 = ORIENTED_EDGE('',*,*,#1037,.T.);
#1313 = ORIENTED_EDGE('',*,*,#1314,.T.);
#1314 = EDGE_CURVE('',#1030,#975,#1315,.T.);
#1315 = LINE('',#1316,#1317);
#1316 = CARTESIAN_POINT('',(-37.29476283909,86.,38.588776991418));
#1317 = VECTOR('',#1318,1.);
#1318 = DIRECTION('',(0.,1.,0.));
#1319 = ORIENTED_EDGE('',*,*,#974,.F.);
#1320 = ORIENTED_EDGE('',*,*,#965,.F.);
#1321 = ORIENTED_EDGE('',*,*,#1299,.F.);
#1322 = ORIENTED_EDGE('',*,*,#1046,.T.);
#1323 = CYLINDRICAL_SURFACE('',#1324,8.5);
#1324 = AXIS2_PLACEMENT_3D('',#1325,#1326,#1327);
#1325 = CARTESIAN_POINT('',(-45.,86.,35.));
#1326 = DIRECTION('',(0.,1.,0.));
#1327 = DIRECTION('',(0.,-0.,1.));
#1328 = ADVANCED_FACE('',(#1329),#1335,.F.);
#1329 = FACE_BOUND('',#1330,.F.);
#1330 = EDGE_LOOP('',(#1331,#1332,#1333,#1334));
#1331 = ORIENTED_EDGE('',*,*,#1029,.F.);
#1332 = ORIENTED_EDGE('',*,*,#1314,.T.);
#1333 = ORIENTED_EDGE('',*,*,#983,.T.);
#1334 = ORIENTED_EDGE('',*,*,#1081,.F.);
#1335 = PLANE('',#1336);
#1336 = AXIS2_PLACEMENT_3D('',#1337,#1338,#1339);
#1337 = CARTESIAN_POINT('',(-41.45085911405,86.,41.033539506104));
#1338 = DIRECTION('',(-0.507020126563,0.,-0.861934215158));
#1339 = DIRECTION('',(0.861934215158,0.,-0.507020126563));
#1340 = ADVANCED_FACE('',(#1341),#1352,.F.);
#1341 = FACE_BOUND('',#1342,.F.);
#1342 = EDGE_LOOP('',(#1343,#1344,#1350,#1351));
#1343 = ORIENTED_EDGE('',*,*,#1001,.F.);
#1344 = ORIENTED_EDGE('',*,*,#1345,.F.);
#1345 = EDGE_CURVE('',#1064,#1002,#1346,.T.);
#1346 = LINE('',#1347,#1348);
#1347 = CARTESIAN_POINT('',(-45.,85.5,36.7));
#1348 = VECTOR('',#1349,1.);
#1349 = DIRECTION('',(0.,1.,0.));
#1350 = ORIENTED_EDGE('',*,*,#1063,.T.);
#1351 = ORIENTED_EDGE('',*,*,#1345,.T.);
#1352 = CYLINDRICAL_SURFACE('',#1353,1.7);
#1353 = AXIS2_PLACEMENT_3D('',#1354,#1355,#1356);
#1354 = CARTESIAN_POINT('',(-45.,85.5,35.));
#1355 = DIRECTION('',(0.,1.,0.));
#1356 = DIRECTION('',(0.,-0.,1.));
#1357 = ( GEOMETRIC_REPRESENTATION_CONTEXT(3) 
GLOBAL_UNCERTAINTY_ASSIGNED_CONTEXT((#1361)) 
GLOBAL_UNIT_ASSIGNED_CONTEXT((#1358,#1359,#1360)) REPRESENTATION_CONTEXT
('Context #1','3D Context with UNIT and UNCERTAINTY') );
#1358 = ( LENGTH_UNIT() NAMED_UNIT(*) SI_UNIT(.MILLI.,.METRE.) );
#1359 = ( NAMED_UNIT(*) PLANE_ANGLE_UNIT() SI_UNIT($,.RADIAN.) );
#1360 = ( NAMED_UNIT(*) SI_UNIT($,.STERADIAN.) SOLID_ANGLE_UNIT() );
#1361 = UNCERTAINTY_MEASURE_WITH_UNIT(LENGTH_MEASURE(1.E-07),#1358,
  'distance_accuracy_value','confusion accuracy');
#1362 = PRODUCT_RELATED_PRODUCT_CATEGORY('part',$,(#7));
ENDSEC;
END-ISO-10303-21;
