ISO-10303-21;
HEADER;
FILE_DESCRIPTION(('FreeCAD Model'),'2;1');
FILE_NAME('Open CASCADE Shape Model','2026-09-28T10:09:17',('FreeCAD'),(
    'FreeCAD'),'Open CASCADE STEP processor 7.8','FreeCAD','Unknown');
FILE_SCHEMA(('AUTOMOTIVE_DESIGN { 1 0 10303 214 1 1 1 1 }'));
ENDSEC;
DATA;
#1 = APPLICATION_PROTOCOL_DEFINITION('international standard',
  'automotive_design',2000,#2);
#2 = APPLICATION_CONTEXT(
  'core data for automotive mechanical design processes');
#3 = SHAPE_DEFINITION_REPRESENTATION(#4,#10);
#4 = PRODUCT_DEFINITION_SHAPE('','',#5);
#5 = PRODUCT_DEFINITION('design','',#6,#9);
#6 = PRODUCT_DEFINITION_FORMATION('','',#7);
#7 = PRODUCT('Open CASCADE STEP translator 7.8 22',
  'Open CASCADE STEP translator 7.8 22','',(#8));
#8 = PRODUCT_CONTEXT('',#2,'mechanical');
#9 = PRODUCT_DEFINITION_CONTEXT('part definition',#2,'design');
#10 = ADVANCED_BREP_SHAPE_REPRESENTATION('',(#11,#15),#1755);
#11 = AXIS2_PLACEMENT_3D('',#12,#13,#14);
#12 = CARTESIAN_POINT('',(0.,0.,0.));
#13 = DIRECTION('',(0.,0.,1.));
#14 = DIRECTION('',(1.,0.,-0.));
#15 = MANIFOLD_SOLID_BREP('',#16);
#16 = CLOSED_SHELL('',(#17,#57,#90,#214,#249,#494,#511,#533,#550,#654,
    #671,#697,#709,#735,#752,#769,#793,#835,#877,#901,#926,#950,#975,
    #1015,#1040,#1096,#1114,#1138,#1163,#1187,#1212,#1229,#1254,#1285,
    #1318,#1354,#1368,#1396,#1445,#1479,#1491,#1526,#1543,#1568,#1627,
    #1644,#1661,#1673,#1691,#1713,#1730,#1742));
#17 = ADVANCED_FACE('',(#18),#52,.T.);
#18 = FACE_BOUND('',#19,.F.);
#19 = EDGE_LOOP('',(#20,#30,#38,#46));
#20 = ORIENTED_EDGE('',*,*,#21,.F.);
#21 = EDGE_CURVE('',#22,#24,#26,.T.);
#22 = VERTEX_POINT('',#23);
#23 = CARTESIAN_POINT('',(42.,-36.,33.));
#24 = VERTEX_POINT('',#25);
#25 = CARTESIAN_POINT('',(42.,-36.,36.));
#26 = LINE('',#27,#28);
#27 = CARTESIAN_POINT('',(42.,-36.,33.));
#28 = VECTOR('',#29,1.);
#29 = DIRECTION('',(-0.,-0.,1.));
#30 = ORIENTED_EDGE('',*,*,#31,.T.);
#31 = EDGE_CURVE('',#22,#32,#34,.T.);
#32 = VERTEX_POINT('',#33);
#33 = CARTESIAN_POINT('',(42.,-44.22508278236,33.));
#34 = LINE('',#35,#36);
#35 = CARTESIAN_POINT('',(42.,-53.4,33.));
#36 = VECTOR('',#37,1.);
#37 = DIRECTION('',(-0.,-1.,-0.));
#38 = ORIENTED_EDGE('',*,*,#39,.T.);
#39 = EDGE_CURVE('',#32,#40,#42,.T.);
#40 = VERTEX_POINT('',#41);
#41 = CARTESIAN_POINT('',(42.,-44.22508278236,36.));
#42 = LINE('',#43,#44);
#43 = CARTESIAN_POINT('',(42.,-44.22508278236,33.));
#44 = VECTOR('',#45,1.);
#45 = DIRECTION('',(0.,0.,1.));
#46 = ORIENTED_EDGE('',*,*,#47,.F.);
#47 = EDGE_CURVE('',#24,#40,#48,.T.);
#48 = LINE('',#49,#50);
#49 = CARTESIAN_POINT('',(42.,-36.,36.));
#50 = VECTOR('',#51,1.);
#51 = DIRECTION('',(-0.,-1.,-0.));
#52 = PLANE('',#53);
#53 = AXIS2_PLACEMENT_3D('',#54,#55,#56);
#54 = CARTESIAN_POINT('',(42.,-46.83846153846,35.161538461538));
#55 = DIRECTION('',(1.,-0.,-0.));
#56 = DIRECTION('',(0.,0.,-1.));
#57 = ADVANCED_FACE('',(#58),#85,.T.);
#58 = FACE_BOUND('',#59,.F.);
#59 = EDGE_LOOP('',(#60,#69,#77,#84));
#60 = ORIENTED_EDGE('',*,*,#61,.F.);
#61 = EDGE_CURVE('',#62,#24,#64,.T.);
#62 = VERTEX_POINT('',#63);
#63 = CARTESIAN_POINT('',(40.,-34.,36.));
#64 = CIRCLE('',#65,2.);
#65 = AXIS2_PLACEMENT_3D('',#66,#67,#68);
#66 = CARTESIAN_POINT('',(40.,-36.,36.));
#67 = DIRECTION('',(0.,0.,-1.));
#68 = DIRECTION('',(1.,-0.,-0.));
#69 = ORIENTED_EDGE('',*,*,#70,.F.);
#70 = EDGE_CURVE('',#71,#62,#73,.T.);
#71 = VERTEX_POINT('',#72);
#72 = CARTESIAN_POINT('',(40.,-34.,33.));
#73 = LINE('',#74,#75);
#74 = CARTESIAN_POINT('',(40.,-34.,33.));
#75 = VECTOR('',#76,1.);
#76 = DIRECTION('',(-0.,-0.,1.));
#77 = ORIENTED_EDGE('',*,*,#78,.T.);
#78 = EDGE_CURVE('',#71,#22,#79,.T.);
#79 = CIRCLE('',#80,2.);
#80 = AXIS2_PLACEMENT_3D('',#81,#82,#83);
#81 = CARTESIAN_POINT('',(40.,-36.,33.));
#82 = DIRECTION('',(0.,0.,-1.));
#83 = DIRECTION('',(1.,-0.,-0.));
#84 = ORIENTED_EDGE('',*,*,#21,.T.);
#85 = CYLINDRICAL_SURFACE('',#86,2.);
#86 = AXIS2_PLACEMENT_3D('',#87,#88,#89);
#87 = CARTESIAN_POINT('',(40.,-36.,33.));
#88 = DIRECTION('',(-0.,-0.,1.));
#89 = DIRECTION('',(1.,-0.,-0.));
#90 = ADVANCED_FACE('',(#91,#187,#198),#209,.T.);
#91 = FACE_BOUND('',#92,.T.);
#92 = EDGE_LOOP('',(#93,#103,#111,#120,#129,#137,#146,#153,#154,#155,
    #163,#172,#180));
#93 = ORIENTED_EDGE('',*,*,#94,.T.);
#94 = EDGE_CURVE('',#95,#97,#99,.T.);
#95 = VERTEX_POINT('',#96);
#96 = CARTESIAN_POINT('',(34.,-51.77491721763,36.));
#97 = VERTEX_POINT('',#98);
#98 = CARTESIAN_POINT('',(34.,-52.2,36.));
#99 = LINE('',#100,#101);
#100 = CARTESIAN_POINT('',(34.,-36.,36.));
#101 = VECTOR('',#102,1.);
#102 = DIRECTION('',(-0.,-1.,-0.));
#103 = ORIENTED_EDGE('',*,*,#104,.T.);
#104 = EDGE_CURVE('',#97,#105,#107,.T.);
#105 = VERTEX_POINT('',#106);
#106 = CARTESIAN_POINT('',(40.8,-52.2,36.));
#107 = LINE('',#108,#109);
#108 = CARTESIAN_POINT('',(-21.4,-52.2,36.));
#109 = VECTOR('',#110,1.);
#110 = DIRECTION('',(1.,-0.,-0.));
#111 = ORIENTED_EDGE('',*,*,#112,.T.);
#112 = EDGE_CURVE('',#105,#113,#115,.T.);
#113 = VERTEX_POINT('',#114);
#114 = CARTESIAN_POINT('',(41.371976447739,-52.34508628635,36.));
#115 = CIRCLE('',#116,1.2);
#116 = AXIS2_PLACEMENT_3D('',#117,#118,#119);
#117 = CARTESIAN_POINT('',(40.8,-53.4,36.));
#118 = DIRECTION('',(0.,0.,-1.));
#119 = DIRECTION('',(1.,-0.,-0.));
#120 = ORIENTED_EDGE('',*,*,#121,.T.);
#121 = EDGE_CURVE('',#113,#122,#124,.T.);
#122 = VERTEX_POINT('',#123);
#123 = CARTESIAN_POINT('',(42.,-53.4,36.));
#124 = CIRCLE('',#125,1.2);
#125 = AXIS2_PLACEMENT_3D('',#126,#127,#128);
#126 = CARTESIAN_POINT('',(40.8,-53.4,36.));
#127 = DIRECTION('',(0.,0.,-1.));
#128 = DIRECTION('',(1.,-0.,-0.));
#129 = ORIENTED_EDGE('',*,*,#130,.F.);
#130 = EDGE_CURVE('',#131,#122,#133,.T.);
#131 = VERTEX_POINT('',#132);
#132 = CARTESIAN_POINT('',(42.,-51.77491721763,36.));
#133 = LINE('',#134,#135);
#134 = CARTESIAN_POINT('',(42.,-36.,36.));
#135 = VECTOR('',#136,1.);
#136 = DIRECTION('',(-0.,-1.,-0.));
#137 = ORIENTED_EDGE('',*,*,#138,.T.);
#138 = EDGE_CURVE('',#131,#139,#141,.T.);
#139 = VERTEX_POINT('',#140);
#140 = CARTESIAN_POINT('',(43.5,-48.,36.));
#141 = CIRCLE('',#142,5.5);
#142 = AXIS2_PLACEMENT_3D('',#143,#144,#145);
#143 = CARTESIAN_POINT('',(38.,-48.,36.));
#144 = DIRECTION('',(0.,0.,1.));
#145 = DIRECTION('',(1.,0.,-0.));
#146 = ORIENTED_EDGE('',*,*,#147,.T.);
#147 = EDGE_CURVE('',#139,#40,#148,.T.);
#148 = CIRCLE('',#149,5.5);
#149 = AXIS2_PLACEMENT_3D('',#150,#151,#152);
#150 = CARTESIAN_POINT('',(38.,-48.,36.));
#151 = DIRECTION('',(0.,0.,1.));
#152 = DIRECTION('',(1.,0.,-0.));
#153 = ORIENTED_EDGE('',*,*,#47,.F.);
#154 = ORIENTED_EDGE('',*,*,#61,.F.);
#155 = ORIENTED_EDGE('',*,*,#156,.F.);
#156 = EDGE_CURVE('',#157,#62,#159,.T.);
#157 = VERTEX_POINT('',#158);
#158 = CARTESIAN_POINT('',(36.,-34.,36.));
#159 = LINE('',#160,#161);
#160 = CARTESIAN_POINT('',(36.,-34.,36.));
#161 = VECTOR('',#162,1.);
#162 = DIRECTION('',(1.,-0.,-0.));
#163 = ORIENTED_EDGE('',*,*,#164,.F.);
#164 = EDGE_CURVE('',#165,#157,#167,.T.);
#165 = VERTEX_POINT('',#166);
#166 = CARTESIAN_POINT('',(34.,-36.,36.));
#167 = CIRCLE('',#168,2.);
#168 = AXIS2_PLACEMENT_3D('',#169,#170,#171);
#169 = CARTESIAN_POINT('',(36.,-36.,36.));
#170 = DIRECTION('',(0.,0.,-1.));
#171 = DIRECTION('',(1.,-0.,-0.));
#172 = ORIENTED_EDGE('',*,*,#173,.T.);
#173 = EDGE_CURVE('',#165,#174,#176,.T.);
#174 = VERTEX_POINT('',#175);
#175 = CARTESIAN_POINT('',(34.,-44.22508278236,36.));
#176 = LINE('',#177,#178);
#177 = CARTESIAN_POINT('',(34.,-36.,36.));
#178 = VECTOR('',#179,1.);
#179 = DIRECTION('',(-0.,-1.,-0.));
#180 = ORIENTED_EDGE('',*,*,#181,.T.);
#181 = EDGE_CURVE('',#174,#95,#182,.T.);
#182 = CIRCLE('',#183,5.5);
#183 = AXIS2_PLACEMENT_3D('',#184,#185,#186);
#184 = CARTESIAN_POINT('',(38.,-48.,36.));
#185 = DIRECTION('',(0.,0.,1.));
#186 = DIRECTION('',(1.,0.,-0.));
#187 = FACE_BOUND('',#188,.T.);
#188 = EDGE_LOOP('',(#189));
#189 = ORIENTED_EDGE('',*,*,#190,.F.);
#190 = EDGE_CURVE('',#191,#191,#193,.T.);
#191 = VERTEX_POINT('',#192);
#192 = CARTESIAN_POINT('',(41.2,-48.,36.));
#193 = CIRCLE('',#194,3.2);
#194 = AXIS2_PLACEMENT_3D('',#195,#196,#197);
#195 = CARTESIAN_POINT('',(38.,-48.,36.));
#196 = DIRECTION('',(0.,0.,1.));
#197 = DIRECTION('',(1.,0.,-0.));
#198 = FACE_BOUND('',#199,.T.);
#199 = EDGE_LOOP('',(#200));
#200 = ORIENTED_EDGE('',*,*,#201,.T.);
#201 = EDGE_CURVE('',#202,#202,#204,.T.);
#202 = VERTEX_POINT('',#203);
#203 = CARTESIAN_POINT('',(39.7,-38.,36.));
#204 = CIRCLE('',#205,1.7);
#205 = AXIS2_PLACEMENT_3D('',#206,#207,#208);
#206 = CARTESIAN_POINT('',(38.,-38.,36.));
#207 = DIRECTION('',(0.,0.,-1.));
#208 = DIRECTION('',(1.,-0.,-0.));
#209 = PLANE('',#210);
#210 = AXIS2_PLACEMENT_3D('',#211,#212,#213);
#211 = CARTESIAN_POINT('',(38.15540024773,-43.89041703436,36.));
#212 = DIRECTION('',(0.,4.045940093583E-16,1.));
#213 = DIRECTION('',(0.,1.,-4.045940093583E-16));
#214 = ADVANCED_FACE('',(#215),#244,.T.);
#215 = FACE_BOUND('',#216,.T.);
#216 = EDGE_LOOP('',(#217,#226,#227,#228,#229,#237));
#217 = ORIENTED_EDGE('',*,*,#218,.T.);
#218 = EDGE_CURVE('',#219,#32,#221,.T.);
#219 = VERTEX_POINT('',#220);
#220 = CARTESIAN_POINT('',(43.5,-48.,33.));
#221 = CIRCLE('',#222,5.5);
#222 = AXIS2_PLACEMENT_3D('',#223,#224,#225);
#223 = CARTESIAN_POINT('',(38.,-48.,33.));
#224 = DIRECTION('',(0.,0.,1.));
#225 = DIRECTION('',(1.,0.,-0.));
#226 = ORIENTED_EDGE('',*,*,#39,.T.);
#227 = ORIENTED_EDGE('',*,*,#147,.F.);
#228 = ORIENTED_EDGE('',*,*,#138,.F.);
#229 = ORIENTED_EDGE('',*,*,#230,.F.);
#230 = EDGE_CURVE('',#231,#131,#233,.T.);
#231 = VERTEX_POINT('',#232);
#232 = CARTESIAN_POINT('',(42.,-51.77491721763,33.));
#233 = LINE('',#234,#235);
#234 = CARTESIAN_POINT('',(42.,-51.77491721763,33.));
#235 = VECTOR('',#236,1.);
#236 = DIRECTION('',(0.,0.,1.));
#237 = ORIENTED_EDGE('',*,*,#238,.T.);
#238 = EDGE_CURVE('',#231,#219,#239,.T.);
#239 = CIRCLE('',#240,5.5);
#240 = AXIS2_PLACEMENT_3D('',#241,#242,#243);
#241 = CARTESIAN_POINT('',(38.,-48.,33.));
#242 = DIRECTION('',(0.,0.,1.));
#243 = DIRECTION('',(1.,0.,-0.));
#244 = CYLINDRICAL_SURFACE('',#245,5.5);
#245 = AXIS2_PLACEMENT_3D('',#246,#247,#248);
#246 = CARTESIAN_POINT('',(38.,-48.,33.));
#247 = DIRECTION('',(0.,0.,1.));
#248 = DIRECTION('',(1.,0.,-0.));
#249 = ADVANCED_FACE('',(#250,#456,#467,#478),#489,.T.);
#250 = FACE_BOUND('',#251,.T.);
#251 = EDGE_LOOP('',(#252,#262,#270,#278,#287,#295,#304,#312,#320,#328,
    #337,#345,#354,#360,#361,#362,#363,#364,#372,#381,#389,#398,#406,
    #415,#423,#432,#440,#449));
#252 = ORIENTED_EDGE('',*,*,#253,.T.);
#253 = EDGE_CURVE('',#254,#256,#258,.T.);
#254 = VERTEX_POINT('',#255);
#255 = CARTESIAN_POINT('',(-71.,-50.,33.));
#256 = VERTEX_POINT('',#257);
#257 = CARTESIAN_POINT('',(-71.,-52.2,33.));
#258 = LINE('',#259,#260);
#259 = CARTESIAN_POINT('',(-71.,-50.,33.));
#260 = VECTOR('',#261,1.);
#261 = DIRECTION('',(-0.,-1.,-0.));
#262 = ORIENTED_EDGE('',*,*,#263,.T.);
#263 = EDGE_CURVE('',#256,#264,#266,.T.);
#264 = VERTEX_POINT('',#265);
#265 = CARTESIAN_POINT('',(21.,-52.2,33.));
#266 = LINE('',#267,#268);
#267 = CARTESIAN_POINT('',(-80.8,-52.2,33.));
#268 = VECTOR('',#269,1.);
#269 = DIRECTION('',(1.,-0.,-0.));
#270 = ORIENTED_EDGE('',*,*,#271,.F.);
#271 = EDGE_CURVE('',#272,#264,#274,.T.);
#272 = VERTEX_POINT('',#273);
#273 = CARTESIAN_POINT('',(21.,-50.,33.));
#274 = LINE('',#275,#276);
#275 = CARTESIAN_POINT('',(21.,-50.,33.));
#276 = VECTOR('',#277,1.);
#277 = DIRECTION('',(-0.,-1.,-0.));
#278 = ORIENTED_EDGE('',*,*,#279,.T.);
#279 = EDGE_CURVE('',#272,#280,#282,.T.);
#280 = VERTEX_POINT('',#281);
#281 = CARTESIAN_POINT('',(22.,-49.,33.));
#282 = CIRCLE('',#283,1.);
#283 = AXIS2_PLACEMENT_3D('',#284,#285,#286);
#284 = CARTESIAN_POINT('',(22.,-50.,33.));
#285 = DIRECTION('',(0.,0.,-1.));
#286 = DIRECTION('',(1.,-0.,-0.));
#287 = ORIENTED_EDGE('',*,*,#288,.T.);
#288 = EDGE_CURVE('',#280,#289,#291,.T.);
#289 = VERTEX_POINT('',#290);
#290 = CARTESIAN_POINT('',(24.,-49.,33.));
#291 = LINE('',#292,#293);
#292 = CARTESIAN_POINT('',(22.,-49.,33.));
#293 = VECTOR('',#294,1.);
#294 = DIRECTION('',(1.,-0.,-0.));
#295 = ORIENTED_EDGE('',*,*,#296,.T.);
#296 = EDGE_CURVE('',#289,#297,#299,.T.);
#297 = VERTEX_POINT('',#298);
#298 = CARTESIAN_POINT('',(25.,-50.,33.));
#299 = CIRCLE('',#300,1.);
#300 = AXIS2_PLACEMENT_3D('',#301,#302,#303);
#301 = CARTESIAN_POINT('',(24.,-50.,33.));
#302 = DIRECTION('',(0.,0.,-1.));
#303 = DIRECTION('',(1.,-0.,-0.));
#304 = ORIENTED_EDGE('',*,*,#305,.T.);
#305 = EDGE_CURVE('',#297,#306,#308,.T.);
#306 = VERTEX_POINT('',#307);
#307 = CARTESIAN_POINT('',(25.,-52.2,33.));
#308 = LINE('',#309,#310);
#309 = CARTESIAN_POINT('',(25.,-50.,33.));
#310 = VECTOR('',#311,1.);
#311 = DIRECTION('',(-0.,-1.,-0.));
#312 = ORIENTED_EDGE('',*,*,#313,.T.);
#313 = EDGE_CURVE('',#306,#314,#316,.T.);
#314 = VERTEX_POINT('',#315);
#315 = CARTESIAN_POINT('',(34.,-52.2,33.));
#316 = LINE('',#317,#318);
#317 = CARTESIAN_POINT('',(-80.8,-52.2,33.));
#318 = VECTOR('',#319,1.);
#319 = DIRECTION('',(1.,-0.,-0.));
#320 = ORIENTED_EDGE('',*,*,#321,.F.);
#321 = EDGE_CURVE('',#322,#314,#324,.T.);
#322 = VERTEX_POINT('',#323);
#323 = CARTESIAN_POINT('',(34.,-51.77491721763,33.));
#324 = LINE('',#325,#326);
#325 = CARTESIAN_POINT('',(34.,-36.,33.));
#326 = VECTOR('',#327,1.);
#327 = DIRECTION('',(-0.,-1.,-0.));
#328 = ORIENTED_EDGE('',*,*,#329,.F.);
#329 = EDGE_CURVE('',#330,#322,#332,.T.);
#330 = VERTEX_POINT('',#331);
#331 = CARTESIAN_POINT('',(34.,-44.22508278236,33.));
#332 = CIRCLE('',#333,5.5);
#333 = AXIS2_PLACEMENT_3D('',#334,#335,#336);
#334 = CARTESIAN_POINT('',(38.,-48.,33.));
#335 = DIRECTION('',(0.,0.,1.));
#336 = DIRECTION('',(1.,0.,-0.));
#337 = ORIENTED_EDGE('',*,*,#338,.F.);
#338 = EDGE_CURVE('',#339,#330,#341,.T.);
#339 = VERTEX_POINT('',#340);
#340 = CARTESIAN_POINT('',(34.,-36.,33.));
#341 = LINE('',#342,#343);
#342 = CARTESIAN_POINT('',(34.,-36.,33.));
#343 = VECTOR('',#344,1.);
#344 = DIRECTION('',(-0.,-1.,-0.));
#345 = ORIENTED_EDGE('',*,*,#346,.T.);
#346 = EDGE_CURVE('',#339,#347,#349,.T.);
#347 = VERTEX_POINT('',#348);
#348 = CARTESIAN_POINT('',(36.,-34.,33.));
#349 = CIRCLE('',#350,2.);
#350 = AXIS2_PLACEMENT_3D('',#351,#352,#353);
#351 = CARTESIAN_POINT('',(36.,-36.,33.));
#352 = DIRECTION('',(0.,0.,-1.));
#353 = DIRECTION('',(1.,-0.,-0.));
#354 = ORIENTED_EDGE('',*,*,#355,.T.);
#355 = EDGE_CURVE('',#347,#71,#356,.T.);
#356 = LINE('',#357,#358);
#357 = CARTESIAN_POINT('',(36.,-34.,33.));
#358 = VECTOR('',#359,1.);
#359 = DIRECTION('',(1.,-0.,-0.));
#360 = ORIENTED_EDGE('',*,*,#78,.T.);
#361 = ORIENTED_EDGE('',*,*,#31,.T.);
#362 = ORIENTED_EDGE('',*,*,#218,.F.);
#363 = ORIENTED_EDGE('',*,*,#238,.F.);
#364 = ORIENTED_EDGE('',*,*,#365,.T.);
#365 = EDGE_CURVE('',#231,#366,#368,.T.);
#366 = VERTEX_POINT('',#367);
#367 = CARTESIAN_POINT('',(42.,-55.,33.));
#368 = LINE('',#369,#370);
#369 = CARTESIAN_POINT('',(42.,-53.4,33.));
#370 = VECTOR('',#371,1.);
#371 = DIRECTION('',(-0.,-1.,-0.));
#372 = ORIENTED_EDGE('',*,*,#373,.T.);
#373 = EDGE_CURVE('',#366,#374,#376,.T.);
#374 = VERTEX_POINT('',#375);
#375 = CARTESIAN_POINT('',(40.8,-56.2,33.));
#376 = CIRCLE('',#377,1.2);
#377 = AXIS2_PLACEMENT_3D('',#378,#379,#380);
#378 = CARTESIAN_POINT('',(40.8,-55.,33.));
#379 = DIRECTION('',(0.,0.,-1.));
#380 = DIRECTION('',(1.,-0.,-0.));
#381 = ORIENTED_EDGE('',*,*,#382,.F.);
#382 = EDGE_CURVE('',#383,#374,#385,.T.);
#383 = VERTEX_POINT('',#384);
#384 = CARTESIAN_POINT('',(-80.8,-56.2,33.));
#385 = LINE('',#386,#387);
#386 = CARTESIAN_POINT('',(-80.8,-56.2,33.));
#387 = VECTOR('',#388,1.);
#388 = DIRECTION('',(1.,-0.,-0.));
#389 = ORIENTED_EDGE('',*,*,#390,.T.);
#390 = EDGE_CURVE('',#383,#391,#393,.T.);
#391 = VERTEX_POINT('',#392);
#392 = CARTESIAN_POINT('',(-82.,-55.,33.));
#393 = CIRCLE('',#394,1.2);
#394 = AXIS2_PLACEMENT_3D('',#395,#396,#397);
#395 = CARTESIAN_POINT('',(-80.8,-55.,33.));
#396 = DIRECTION('',(0.,0.,-1.));
#397 = DIRECTION('',(1.,-0.,-0.));
#398 = ORIENTED_EDGE('',*,*,#399,.F.);
#399 = EDGE_CURVE('',#400,#391,#402,.T.);
#400 = VERTEX_POINT('',#401);
#401 = CARTESIAN_POINT('',(-82.,-36.,33.));
#402 = LINE('',#403,#404);
#403 = CARTESIAN_POINT('',(-82.,-53.4,33.));
#404 = VECTOR('',#405,1.);
#405 = DIRECTION('',(-0.,-1.,-0.));
#406 = ORIENTED_EDGE('',*,*,#407,.T.);
#407 = EDGE_CURVE('',#400,#408,#410,.T.);
#408 = VERTEX_POINT('',#409);
#409 = CARTESIAN_POINT('',(-80.,-34.,33.));
#410 = CIRCLE('',#411,2.);
#411 = AXIS2_PLACEMENT_3D('',#412,#413,#414);
#412 = CARTESIAN_POINT('',(-80.,-36.,33.));
#413 = DIRECTION('',(0.,0.,-1.));
#414 = DIRECTION('',(1.,-0.,-0.));
#415 = ORIENTED_EDGE('',*,*,#416,.T.);
#416 = EDGE_CURVE('',#408,#417,#419,.T.);
#417 = VERTEX_POINT('',#418);
#418 = CARTESIAN_POINT('',(-76.,-34.,33.));
#419 = LINE('',#420,#421);
#420 = CARTESIAN_POINT('',(-80.,-34.,33.));
#421 = VECTOR('',#422,1.);
#422 = DIRECTION('',(1.,-0.,-0.));
#423 = ORIENTED_EDGE('',*,*,#424,.T.);
#424 = EDGE_CURVE('',#417,#425,#427,.T.);
#425 = VERTEX_POINT('',#426);
#426 = CARTESIAN_POINT('',(-74.,-36.,33.));
#427 = CIRCLE('',#428,2.);
#428 = AXIS2_PLACEMENT_3D('',#429,#430,#431);
#429 = CARTESIAN_POINT('',(-76.,-36.,33.));
#430 = DIRECTION('',(0.,0.,-1.));
#431 = DIRECTION('',(1.,-0.,-0.));
#432 = ORIENTED_EDGE('',*,*,#433,.T.);
#433 = EDGE_CURVE('',#425,#434,#436,.T.);
#434 = VERTEX_POINT('',#435);
#435 = CARTESIAN_POINT('',(-74.,-44.8,33.));
#436 = LINE('',#437,#438);
#437 = CARTESIAN_POINT('',(-74.,-36.,33.));
#438 = VECTOR('',#439,1.);
#439 = DIRECTION('',(-0.,-1.,-0.));
#440 = ORIENTED_EDGE('',*,*,#441,.T.);
#441 = EDGE_CURVE('',#434,#442,#444,.T.);
#442 = VERTEX_POINT('',#443);
#443 = CARTESIAN_POINT('',(-71.15509058565,-49.46509058565,33.));
#444 = CIRCLE('',#445,3.2);
#445 = AXIS2_PLACEMENT_3D('',#446,#447,#448);
#446 = CARTESIAN_POINT('',(-74.,-48.,33.));
#447 = DIRECTION('',(0.,0.,1.));
#448 = DIRECTION('',(1.,0.,-0.));
#449 = ORIENTED_EDGE('',*,*,#450,.T.);
#450 = EDGE_CURVE('',#442,#254,#451,.T.);
#451 = CIRCLE('',#452,1.);
#452 = AXIS2_PLACEMENT_3D('',#453,#454,#455);
#453 = CARTESIAN_POINT('',(-72.,-50.,33.));
#454 = DIRECTION('',(0.,0.,-1.));
#455 = DIRECTION('',(1.,-0.,-0.));
#456 = FACE_BOUND('',#457,.T.);
#457 = EDGE_LOOP('',(#458));
#458 = ORIENTED_EDGE('',*,*,#459,.T.);
#459 = EDGE_CURVE('',#460,#460,#462,.T.);
#460 = VERTEX_POINT('',#461);
#461 = CARTESIAN_POINT('',(41.2,-48.,33.));
#462 = CIRCLE('',#463,3.2);
#463 = AXIS2_PLACEMENT_3D('',#464,#465,#466);
#464 = CARTESIAN_POINT('',(38.,-48.,33.));
#465 = DIRECTION('',(0.,0.,1.));
#466 = DIRECTION('',(1.,0.,-0.));
#467 = FACE_BOUND('',#468,.T.);
#468 = EDGE_LOOP('',(#469));
#469 = ORIENTED_EDGE('',*,*,#470,.F.);
#470 = EDGE_CURVE('',#471,#471,#473,.T.);
#471 = VERTEX_POINT('',#472);
#472 = CARTESIAN_POINT('',(39.7,-38.,33.));
#473 = CIRCLE('',#474,1.7);
#474 = AXIS2_PLACEMENT_3D('',#475,#476,#477);
#475 = CARTESIAN_POINT('',(38.,-38.,33.));
#476 = DIRECTION('',(0.,0.,-1.));
#477 = DIRECTION('',(1.,-0.,-0.));
#478 = FACE_BOUND('',#479,.T.);
#479 = EDGE_LOOP('',(#480));
#480 = ORIENTED_EDGE('',*,*,#481,.F.);
#481 = EDGE_CURVE('',#482,#482,#484,.T.);
#482 = VERTEX_POINT('',#483);
#483 = CARTESIAN_POINT('',(-76.3,-38.,33.));
#484 = CIRCLE('',#485,1.7);
#485 = AXIS2_PLACEMENT_3D('',#486,#487,#488);
#486 = CARTESIAN_POINT('',(-78.,-38.,33.));
#487 = DIRECTION('',(0.,0.,-1.));
#488 = DIRECTION('',(1.,-0.,-0.));
#489 = PLANE('',#490);
#490 = AXIS2_PLACEMENT_3D('',#491,#492,#493);
#491 = CARTESIAN_POINT('',(-18.93198356544,-50.94837747401,33.));
#492 = DIRECTION('',(-0.,-0.,-1.));
#493 = DIRECTION('',(-1.,0.,0.));
#494 = ADVANCED_FACE('',(#495),#506,.F.);
#495 = FACE_BOUND('',#496,.T.);
#496 = EDGE_LOOP('',(#497,#498,#504,#505));
#497 = ORIENTED_EDGE('',*,*,#355,.F.);
#498 = ORIENTED_EDGE('',*,*,#499,.T.);
#499 = EDGE_CURVE('',#347,#157,#500,.T.);
#500 = LINE('',#501,#502);
#501 = CARTESIAN_POINT('',(36.,-34.,33.));
#502 = VECTOR('',#503,1.);
#503 = DIRECTION('',(-0.,-0.,1.));
#504 = ORIENTED_EDGE('',*,*,#156,.T.);
#505 = ORIENTED_EDGE('',*,*,#70,.F.);
#506 = PLANE('',#507);
#507 = AXIS2_PLACEMENT_3D('',#508,#509,#510);
#508 = CARTESIAN_POINT('',(36.,-34.,33.));
#509 = DIRECTION('',(-0.,-1.,-0.));
#510 = DIRECTION('',(0.,0.,-1.));
#511 = ADVANCED_FACE('',(#512),#528,.F.);
#512 = FACE_BOUND('',#513,.T.);
#513 = EDGE_LOOP('',(#514,#520,#521,#527));
#514 = ORIENTED_EDGE('',*,*,#515,.F.);
#515 = EDGE_CURVE('',#322,#95,#516,.T.);
#516 = LINE('',#517,#518);
#517 = CARTESIAN_POINT('',(34.,-51.77491721763,33.));
#518 = VECTOR('',#519,1.);
#519 = DIRECTION('',(0.,0.,1.));
#520 = ORIENTED_EDGE('',*,*,#321,.T.);
#521 = ORIENTED_EDGE('',*,*,#522,.F.);
#522 = EDGE_CURVE('',#97,#314,#523,.T.);
#523 = LINE('',#524,#525);
#524 = CARTESIAN_POINT('',(34.,-52.2,33.));
#525 = VECTOR('',#526,1.);
#526 = DIRECTION('',(-0.,-0.,-1.));
#527 = ORIENTED_EDGE('',*,*,#94,.F.);
#528 = PLANE('',#529);
#529 = AXIS2_PLACEMENT_3D('',#530,#531,#532);
#530 = CARTESIAN_POINT('',(34.,-36.,33.));
#531 = DIRECTION('',(1.,-0.,-0.));
#532 = DIRECTION('',(0.,0.,-1.));
#533 = ADVANCED_FACE('',(#534),#545,.T.);
#534 = FACE_BOUND('',#535,.T.);
#535 = EDGE_LOOP('',(#536,#537,#543,#544));
#536 = ORIENTED_EDGE('',*,*,#181,.F.);
#537 = ORIENTED_EDGE('',*,*,#538,.F.);
#538 = EDGE_CURVE('',#330,#174,#539,.T.);
#539 = LINE('',#540,#541);
#540 = CARTESIAN_POINT('',(34.,-44.22508278236,33.));
#541 = VECTOR('',#542,1.);
#542 = DIRECTION('',(0.,0.,1.));
#543 = ORIENTED_EDGE('',*,*,#329,.T.);
#544 = ORIENTED_EDGE('',*,*,#515,.T.);
#545 = CYLINDRICAL_SURFACE('',#546,5.5);
#546 = AXIS2_PLACEMENT_3D('',#547,#548,#549);
#547 = CARTESIAN_POINT('',(38.,-48.,33.));
#548 = DIRECTION('',(0.,0.,1.));
#549 = DIRECTION('',(1.,0.,-0.));
#550 = ADVANCED_FACE('',(#551),#649,.F.);
#551 = FACE_BOUND('',#552,.T.);
#552 = EDGE_LOOP('',(#553,#563,#571,#579,#587,#595,#601,#602,#603,#604,
    #612,#620,#626,#627,#635,#643));
#553 = ORIENTED_EDGE('',*,*,#554,.F.);
#554 = EDGE_CURVE('',#555,#557,#559,.T.);
#555 = VERTEX_POINT('',#556);
#556 = CARTESIAN_POINT('',(-80.8,-52.2,36.));
#557 = VERTEX_POINT('',#558);
#558 = CARTESIAN_POINT('',(-75.,-52.2,36.));
#559 = LINE('',#560,#561);
#560 = CARTESIAN_POINT('',(-79.4,-52.2,36.));
#561 = VECTOR('',#562,1.);
#562 = DIRECTION('',(1.,-0.,-0.));
#563 = ORIENTED_EDGE('',*,*,#564,.T.);
#564 = EDGE_CURVE('',#555,#565,#567,.T.);
#565 = VERTEX_POINT('',#566);
#566 = CARTESIAN_POINT('',(-80.8,-52.2,40.));
#567 = LINE('',#568,#569);
#568 = CARTESIAN_POINT('',(-80.8,-52.2,33.));
#569 = VECTOR('',#570,1.);
#570 = DIRECTION('',(-0.,-0.,1.));
#571 = ORIENTED_EDGE('',*,*,#572,.T.);
#572 = EDGE_CURVE('',#565,#573,#575,.T.);
#573 = VERTEX_POINT('',#574);
#574 = CARTESIAN_POINT('',(-62.,-52.2,40.));
#575 = LINE('',#576,#577);
#576 = CARTESIAN_POINT('',(-80.8,-52.2,40.));
#577 = VECTOR('',#578,1.);
#578 = DIRECTION('',(1.,-0.,-0.));
#579 = ORIENTED_EDGE('',*,*,#580,.T.);
#580 = EDGE_CURVE('',#573,#581,#583,.T.);
#581 = VERTEX_POINT('',#582);
#582 = CARTESIAN_POINT('',(12.,-52.2,40.));
#583 = LINE('',#584,#585);
#584 = CARTESIAN_POINT('',(-80.8,-52.2,40.));
#585 = VECTOR('',#586,1.);
#586 = DIRECTION('',(1.,-0.,-0.));
#587 = ORIENTED_EDGE('',*,*,#588,.T.);
#588 = EDGE_CURVE('',#581,#589,#591,.T.);
#589 = VERTEX_POINT('',#590);
#590 = CARTESIAN_POINT('',(40.8,-52.2,40.));
#591 = LINE('',#592,#593);
#592 = CARTESIAN_POINT('',(-80.8,-52.2,40.));
#593 = VECTOR('',#594,1.);
#594 = DIRECTION('',(1.,-0.,-0.));
#595 = ORIENTED_EDGE('',*,*,#596,.F.);
#596 = EDGE_CURVE('',#105,#589,#597,.T.);
#597 = LINE('',#598,#599);
#598 = CARTESIAN_POINT('',(40.8,-52.2,33.));
#599 = VECTOR('',#600,1.);
#600 = DIRECTION('',(-0.,-0.,1.));
#601 = ORIENTED_EDGE('',*,*,#104,.F.);
#602 = ORIENTED_EDGE('',*,*,#522,.T.);
#603 = ORIENTED_EDGE('',*,*,#313,.F.);
#604 = ORIENTED_EDGE('',*,*,#605,.F.);
#605 = EDGE_CURVE('',#606,#306,#608,.T.);
#606 = VERTEX_POINT('',#607);
#607 = CARTESIAN_POINT('',(25.,-52.2,39.8));
#608 = LINE('',#609,#610);
#609 = CARTESIAN_POINT('',(25.,-52.2,33.));
#610 = VECTOR('',#611,1.);
#611 = DIRECTION('',(-0.,-0.,-1.));
#612 = ORIENTED_EDGE('',*,*,#613,.F.);
#613 = EDGE_CURVE('',#614,#606,#616,.T.);
#614 = VERTEX_POINT('',#615);
#615 = CARTESIAN_POINT('',(21.,-52.2,39.8));
#616 = LINE('',#617,#618);
#617 = CARTESIAN_POINT('',(-28.9,-52.2,39.8));
#618 = VECTOR('',#619,1.);
#619 = DIRECTION('',(1.,-0.,-0.));
#620 = ORIENTED_EDGE('',*,*,#621,.T.);
#621 = EDGE_CURVE('',#614,#264,#622,.T.);
#622 = LINE('',#623,#624);
#623 = CARTESIAN_POINT('',(21.,-52.2,33.));
#624 = VECTOR('',#625,1.);
#625 = DIRECTION('',(-0.,-0.,-1.));
#626 = ORIENTED_EDGE('',*,*,#263,.F.);
#627 = ORIENTED_EDGE('',*,*,#628,.F.);
#628 = EDGE_CURVE('',#629,#256,#631,.T.);
#629 = VERTEX_POINT('',#630);
#630 = CARTESIAN_POINT('',(-71.,-52.2,39.8));
#631 = LINE('',#632,#633);
#632 = CARTESIAN_POINT('',(-71.,-52.2,33.));
#633 = VECTOR('',#634,1.);
#634 = DIRECTION('',(-0.,-0.,-1.));
#635 = ORIENTED_EDGE('',*,*,#636,.F.);
#636 = EDGE_CURVE('',#637,#629,#639,.T.);
#637 = VERTEX_POINT('',#638);
#638 = CARTESIAN_POINT('',(-75.,-52.2,39.8));
#639 = LINE('',#640,#641);
#640 = CARTESIAN_POINT('',(-76.9,-52.2,39.8));
#641 = VECTOR('',#642,1.);
#642 = DIRECTION('',(1.,-0.,-0.));
#643 = ORIENTED_EDGE('',*,*,#644,.T.);
#644 = EDGE_CURVE('',#637,#557,#645,.T.);
#645 = LINE('',#646,#647);
#646 = CARTESIAN_POINT('',(-75.,-52.2,33.));
#647 = VECTOR('',#648,1.);
#648 = DIRECTION('',(-0.,-0.,-1.));
#649 = PLANE('',#650);
#650 = AXIS2_PLACEMENT_3D('',#651,#652,#653);
#651 = CARTESIAN_POINT('',(-80.8,-52.2,33.));
#652 = DIRECTION('',(-0.,-1.,-0.));
#653 = DIRECTION('',(0.,0.,-1.));
#654 = ADVANCED_FACE('',(#655),#666,.F.);
#655 = FACE_BOUND('',#656,.T.);
#656 = EDGE_LOOP('',(#657,#663,#664,#665));
#657 = ORIENTED_EDGE('',*,*,#658,.F.);
#658 = EDGE_CURVE('',#339,#165,#659,.T.);
#659 = LINE('',#660,#661);
#660 = CARTESIAN_POINT('',(34.,-36.,33.));
#661 = VECTOR('',#662,1.);
#662 = DIRECTION('',(-0.,-0.,1.));
#663 = ORIENTED_EDGE('',*,*,#338,.T.);
#664 = ORIENTED_EDGE('',*,*,#538,.T.);
#665 = ORIENTED_EDGE('',*,*,#173,.F.);
#666 = PLANE('',#667);
#667 = AXIS2_PLACEMENT_3D('',#668,#669,#670);
#668 = CARTESIAN_POINT('',(34.,-36.,33.));
#669 = DIRECTION('',(1.,-0.,-0.));
#670 = DIRECTION('',(0.,0.,-1.));
#671 = ADVANCED_FACE('',(#672),#692,.T.);
#672 = FACE_BOUND('',#673,.F.);
#673 = EDGE_LOOP('',(#674,#683,#684,#685,#686));
#674 = ORIENTED_EDGE('',*,*,#675,.F.);
#675 = EDGE_CURVE('',#589,#676,#678,.T.);
#676 = VERTEX_POINT('',#677);
#677 = CARTESIAN_POINT('',(42.,-53.4,40.));
#678 = CIRCLE('',#679,1.2);
#679 = AXIS2_PLACEMENT_3D('',#680,#681,#682);
#680 = CARTESIAN_POINT('',(40.8,-53.4,40.));
#681 = DIRECTION('',(0.,0.,-1.));
#682 = DIRECTION('',(1.,-0.,-0.));
#683 = ORIENTED_EDGE('',*,*,#596,.F.);
#684 = ORIENTED_EDGE('',*,*,#112,.T.);
#685 = ORIENTED_EDGE('',*,*,#121,.T.);
#686 = ORIENTED_EDGE('',*,*,#687,.T.);
#687 = EDGE_CURVE('',#122,#676,#688,.T.);
#688 = LINE('',#689,#690);
#689 = CARTESIAN_POINT('',(42.,-53.4,33.));
#690 = VECTOR('',#691,1.);
#691 = DIRECTION('',(-0.,-0.,1.));
#692 = CYLINDRICAL_SURFACE('',#693,1.2);
#693 = AXIS2_PLACEMENT_3D('',#694,#695,#696);
#694 = CARTESIAN_POINT('',(40.8,-53.4,33.));
#695 = DIRECTION('',(-0.,-0.,1.));
#696 = DIRECTION('',(1.,-0.,-0.));
#697 = ADVANCED_FACE('',(#698),#704,.T.);
#698 = FACE_BOUND('',#699,.F.);
#699 = EDGE_LOOP('',(#700,#701,#702,#703));
#700 = ORIENTED_EDGE('',*,*,#164,.F.);
#701 = ORIENTED_EDGE('',*,*,#658,.F.);
#702 = ORIENTED_EDGE('',*,*,#346,.T.);
#703 = ORIENTED_EDGE('',*,*,#499,.T.);
#704 = CYLINDRICAL_SURFACE('',#705,2.);
#705 = AXIS2_PLACEMENT_3D('',#706,#707,#708);
#706 = CARTESIAN_POINT('',(36.,-36.,33.));
#707 = DIRECTION('',(-0.,-0.,1.));
#708 = DIRECTION('',(1.,-0.,-0.));
#709 = ADVANCED_FACE('',(#710),#730,.T.);
#710 = FACE_BOUND('',#711,.F.);
#711 = EDGE_LOOP('',(#712,#713,#714,#722,#728,#729));
#712 = ORIENTED_EDGE('',*,*,#230,.F.);
#713 = ORIENTED_EDGE('',*,*,#365,.T.);
#714 = ORIENTED_EDGE('',*,*,#715,.T.);
#715 = EDGE_CURVE('',#366,#716,#718,.T.);
#716 = VERTEX_POINT('',#717);
#717 = CARTESIAN_POINT('',(42.,-55.,40.));
#718 = LINE('',#719,#720);
#719 = CARTESIAN_POINT('',(42.,-55.,33.));
#720 = VECTOR('',#721,1.);
#721 = DIRECTION('',(-0.,-0.,1.));
#722 = ORIENTED_EDGE('',*,*,#723,.F.);
#723 = EDGE_CURVE('',#676,#716,#724,.T.);
#724 = LINE('',#725,#726);
#725 = CARTESIAN_POINT('',(42.,-53.4,40.));
#726 = VECTOR('',#727,1.);
#727 = DIRECTION('',(-0.,-1.,-0.));
#728 = ORIENTED_EDGE('',*,*,#687,.F.);
#729 = ORIENTED_EDGE('',*,*,#130,.F.);
#730 = PLANE('',#731);
#731 = AXIS2_PLACEMENT_3D('',#732,#733,#734);
#732 = CARTESIAN_POINT('',(42.,-46.83846153846,35.161538461538));
#733 = DIRECTION('',(1.,-0.,-0.));
#734 = DIRECTION('',(0.,0.,-1.));
#735 = ADVANCED_FACE('',(#736),#747,.F.);
#736 = FACE_BOUND('',#737,.F.);
#737 = EDGE_LOOP('',(#738,#739,#745,#746));
#738 = ORIENTED_EDGE('',*,*,#190,.F.);
#739 = ORIENTED_EDGE('',*,*,#740,.F.);
#740 = EDGE_CURVE('',#460,#191,#741,.T.);
#741 = LINE('',#742,#743);
#742 = CARTESIAN_POINT('',(41.2,-48.,32.8));
#743 = VECTOR('',#744,1.);
#744 = DIRECTION('',(0.,0.,1.));
#745 = ORIENTED_EDGE('',*,*,#459,.T.);
#746 = ORIENTED_EDGE('',*,*,#740,.T.);
#747 = CYLINDRICAL_SURFACE('',#748,3.2);
#748 = AXIS2_PLACEMENT_3D('',#749,#750,#751);
#749 = CARTESIAN_POINT('',(38.,-48.,32.8));
#750 = DIRECTION('',(0.,0.,1.));
#751 = DIRECTION('',(1.,0.,-0.));
#752 = ADVANCED_FACE('',(#753),#764,.F.);
#753 = FACE_BOUND('',#754,.T.);
#754 = EDGE_LOOP('',(#755,#756,#762,#763));
#755 = ORIENTED_EDGE('',*,*,#201,.F.);
#756 = ORIENTED_EDGE('',*,*,#757,.F.);
#757 = EDGE_CURVE('',#471,#202,#758,.T.);
#758 = LINE('',#759,#760);
#759 = CARTESIAN_POINT('',(39.7,-38.,32.8));
#760 = VECTOR('',#761,1.);
#761 = DIRECTION('',(-0.,-0.,1.));
#762 = ORIENTED_EDGE('',*,*,#470,.T.);
#763 = ORIENTED_EDGE('',*,*,#757,.T.);
#764 = CYLINDRICAL_SURFACE('',#765,1.7);
#765 = AXIS2_PLACEMENT_3D('',#766,#767,#768);
#766 = CARTESIAN_POINT('',(38.,-38.,32.8));
#767 = DIRECTION('',(-0.,-0.,1.));
#768 = DIRECTION('',(1.,-0.,-0.));
#769 = ADVANCED_FACE('',(#770),#788,.T.);
#770 = FACE_BOUND('',#771,.F.);
#771 = EDGE_LOOP('',(#772,#780,#781,#782));
#772 = ORIENTED_EDGE('',*,*,#773,.F.);
#773 = EDGE_CURVE('',#254,#774,#776,.T.);
#774 = VERTEX_POINT('',#775);
#775 = CARTESIAN_POINT('',(-71.,-50.,39.8));
#776 = LINE('',#777,#778);
#777 = CARTESIAN_POINT('',(-71.,-50.,33.));
#778 = VECTOR('',#779,1.);
#779 = DIRECTION('',(-0.,-0.,1.));
#780 = ORIENTED_EDGE('',*,*,#253,.T.);
#781 = ORIENTED_EDGE('',*,*,#628,.F.);
#782 = ORIENTED_EDGE('',*,*,#783,.F.);
#783 = EDGE_CURVE('',#774,#629,#784,.T.);
#784 = LINE('',#785,#786);
#785 = CARTESIAN_POINT('',(-71.,-50.,39.8));
#786 = VECTOR('',#787,1.);
#787 = DIRECTION('',(-0.,-1.,-0.));
#788 = PLANE('',#789);
#789 = AXIS2_PLACEMENT_3D('',#790,#791,#792);
#790 = CARTESIAN_POINT('',(-71.,-50.,33.));
#791 = DIRECTION('',(1.,-0.,-0.));
#792 = DIRECTION('',(0.,0.,-1.));
#793 = ADVANCED_FACE('',(#794),#830,.T.);
#794 = FACE_BOUND('',#795,.F.);
#795 = EDGE_LOOP('',(#796,#805,#813,#822,#828,#829));
#796 = ORIENTED_EDGE('',*,*,#797,.F.);
#797 = EDGE_CURVE('',#798,#774,#800,.T.);
#798 = VERTEX_POINT('',#799);
#799 = CARTESIAN_POINT('',(-72.,-49.,39.8));
#800 = CIRCLE('',#801,1.);
#801 = AXIS2_PLACEMENT_3D('',#802,#803,#804);
#802 = CARTESIAN_POINT('',(-72.,-50.,39.8));
#803 = DIRECTION('',(0.,0.,-1.));
#804 = DIRECTION('',(1.,-0.,-0.));
#805 = ORIENTED_EDGE('',*,*,#806,.F.);
#806 = EDGE_CURVE('',#807,#798,#809,.T.);
#807 = VERTEX_POINT('',#808);
#808 = CARTESIAN_POINT('',(-72.,-49.,36.2));
#809 = LINE('',#810,#811);
#810 = CARTESIAN_POINT('',(-72.,-49.,33.));
#811 = VECTOR('',#812,1.);
#812 = DIRECTION('',(-0.,-0.,1.));
#813 = ORIENTED_EDGE('',*,*,#814,.F.);
#814 = EDGE_CURVE('',#815,#807,#817,.T.);
#815 = VERTEX_POINT('',#816);
#816 = CARTESIAN_POINT('',(-71.15509058565,-49.46509058565,36.2));
#817 = CIRCLE('',#818,1.);
#818 = AXIS2_PLACEMENT_3D('',#819,#820,#821);
#819 = CARTESIAN_POINT('',(-72.,-50.,36.2));
#820 = DIRECTION('',(-0.,0.,1.));
#821 = DIRECTION('',(1.,-0.,0.));
#822 = ORIENTED_EDGE('',*,*,#823,.F.);
#823 = EDGE_CURVE('',#442,#815,#824,.T.);
#824 = LINE('',#825,#826);
#825 = CARTESIAN_POINT('',(-71.15509058565,-49.46509058565,33.));
#826 = VECTOR('',#827,1.);
#827 = DIRECTION('',(-0.,-0.,1.));
#828 = ORIENTED_EDGE('',*,*,#450,.T.);
#829 = ORIENTED_EDGE('',*,*,#773,.T.);
#830 = CYLINDRICAL_SURFACE('',#831,1.);
#831 = AXIS2_PLACEMENT_3D('',#832,#833,#834);
#832 = CARTESIAN_POINT('',(-72.,-50.,33.));
#833 = DIRECTION('',(-0.,-0.,1.));
#834 = DIRECTION('',(1.,-0.,-0.));
#835 = ADVANCED_FACE('',(#836),#872,.F.);
#836 = FACE_BOUND('',#837,.F.);
#837 = EDGE_LOOP('',(#838,#847,#855,#864,#870,#871));
#838 = ORIENTED_EDGE('',*,*,#839,.F.);
#839 = EDGE_CURVE('',#840,#815,#842,.T.);
#840 = VERTEX_POINT('',#841);
#841 = CARTESIAN_POINT('',(-75.,-51.03973683071,36.2));
#842 = CIRCLE('',#843,3.2);
#843 = AXIS2_PLACEMENT_3D('',#844,#845,#846);
#844 = CARTESIAN_POINT('',(-74.,-48.,36.2));
#845 = DIRECTION('',(0.,0.,1.));
#846 = DIRECTION('',(1.,0.,-0.));
#847 = ORIENTED_EDGE('',*,*,#848,.F.);
#848 = EDGE_CURVE('',#849,#840,#851,.T.);
#849 = VERTEX_POINT('',#850);
#850 = CARTESIAN_POINT('',(-75.,-51.03973683071,36.));
#851 = LINE('',#852,#853);
#852 = CARTESIAN_POINT('',(-75.,-51.03973683071,32.8));
#853 = VECTOR('',#854,1.);
#854 = DIRECTION('',(0.,0.,1.));
#855 = ORIENTED_EDGE('',*,*,#856,.F.);
#856 = EDGE_CURVE('',#857,#849,#859,.T.);
#857 = VERTEX_POINT('',#858);
#858 = CARTESIAN_POINT('',(-74.,-44.8,36.));
#859 = CIRCLE('',#860,3.2);
#860 = AXIS2_PLACEMENT_3D('',#861,#862,#863);
#861 = CARTESIAN_POINT('',(-74.,-48.,36.));
#862 = DIRECTION('',(0.,0.,1.));
#863 = DIRECTION('',(1.,0.,-0.));
#864 = ORIENTED_EDGE('',*,*,#865,.F.);
#865 = EDGE_CURVE('',#434,#857,#866,.T.);
#866 = LINE('',#867,#868);
#867 = CARTESIAN_POINT('',(-74.,-44.8,32.8));
#868 = VECTOR('',#869,1.);
#869 = DIRECTION('',(0.,0.,1.));
#870 = ORIENTED_EDGE('',*,*,#441,.T.);
#871 = ORIENTED_EDGE('',*,*,#823,.T.);
#872 = CYLINDRICAL_SURFACE('',#873,3.2);
#873 = AXIS2_PLACEMENT_3D('',#874,#875,#876);
#874 = CARTESIAN_POINT('',(-74.,-48.,32.8));
#875 = DIRECTION('',(0.,0.,1.));
#876 = DIRECTION('',(1.,0.,-0.));
#877 = ADVANCED_FACE('',(#878),#896,.T.);
#878 = FACE_BOUND('',#879,.F.);
#879 = EDGE_LOOP('',(#880,#888,#889,#890));
#880 = ORIENTED_EDGE('',*,*,#881,.F.);
#881 = EDGE_CURVE('',#425,#882,#884,.T.);
#882 = VERTEX_POINT('',#883);
#883 = CARTESIAN_POINT('',(-74.,-36.,36.));
#884 = LINE('',#885,#886);
#885 = CARTESIAN_POINT('',(-74.,-36.,33.));
#886 = VECTOR('',#887,1.);
#887 = DIRECTION('',(-0.,-0.,1.));
#888 = ORIENTED_EDGE('',*,*,#433,.T.);
#889 = ORIENTED_EDGE('',*,*,#865,.T.);
#890 = ORIENTED_EDGE('',*,*,#891,.F.);
#891 = EDGE_CURVE('',#882,#857,#892,.T.);
#892 = LINE('',#893,#894);
#893 = CARTESIAN_POINT('',(-74.,-36.,36.));
#894 = VECTOR('',#895,1.);
#895 = DIRECTION('',(-0.,-1.,-0.));
#896 = PLANE('',#897);
#897 = AXIS2_PLACEMENT_3D('',#898,#899,#900);
#898 = CARTESIAN_POINT('',(-74.,-36.,33.));
#899 = DIRECTION('',(1.,-0.,-0.));
#900 = DIRECTION('',(0.,0.,-1.));
#901 = ADVANCED_FACE('',(#902),#921,.T.);
#902 = FACE_BOUND('',#903,.F.);
#903 = EDGE_LOOP('',(#904,#913,#919,#920));
#904 = ORIENTED_EDGE('',*,*,#905,.F.);
#905 = EDGE_CURVE('',#906,#882,#908,.T.);
#906 = VERTEX_POINT('',#907);
#907 = CARTESIAN_POINT('',(-76.,-34.,36.));
#908 = CIRCLE('',#909,2.);
#909 = AXIS2_PLACEMENT_3D('',#910,#911,#912);
#910 = CARTESIAN_POINT('',(-76.,-36.,36.));
#911 = DIRECTION('',(0.,0.,-1.));
#912 = DIRECTION('',(1.,-0.,-0.));
#913 = ORIENTED_EDGE('',*,*,#914,.F.);
#914 = EDGE_CURVE('',#417,#906,#915,.T.);
#915 = LINE('',#916,#917);
#916 = CARTESIAN_POINT('',(-76.,-34.,33.));
#917 = VECTOR('',#918,1.);
#918 = DIRECTION('',(-0.,-0.,1.));
#919 = ORIENTED_EDGE('',*,*,#424,.T.);
#920 = ORIENTED_EDGE('',*,*,#881,.T.);
#921 = CYLINDRICAL_SURFACE('',#922,2.);
#922 = AXIS2_PLACEMENT_3D('',#923,#924,#925);
#923 = CARTESIAN_POINT('',(-76.,-36.,33.));
#924 = DIRECTION('',(-0.,-0.,1.));
#925 = DIRECTION('',(1.,-0.,-0.));
#926 = ADVANCED_FACE('',(#927),#945,.F.);
#927 = FACE_BOUND('',#928,.T.);
#928 = EDGE_LOOP('',(#929,#930,#938,#944));
#929 = ORIENTED_EDGE('',*,*,#416,.F.);
#930 = ORIENTED_EDGE('',*,*,#931,.T.);
#931 = EDGE_CURVE('',#408,#932,#934,.T.);
#932 = VERTEX_POINT('',#933);
#933 = CARTESIAN_POINT('',(-80.,-34.,36.));
#934 = LINE('',#935,#936);
#935 = CARTESIAN_POINT('',(-80.,-34.,33.));
#936 = VECTOR('',#937,1.);
#937 = DIRECTION('',(-0.,-0.,1.));
#938 = ORIENTED_EDGE('',*,*,#939,.T.);
#939 = EDGE_CURVE('',#932,#906,#940,.T.);
#940 = LINE('',#941,#942);
#941 = CARTESIAN_POINT('',(-80.,-34.,36.));
#942 = VECTOR('',#943,1.);
#943 = DIRECTION('',(1.,-0.,-0.));
#944 = ORIENTED_EDGE('',*,*,#914,.F.);
#945 = PLANE('',#946);
#946 = AXIS2_PLACEMENT_3D('',#947,#948,#949);
#947 = CARTESIAN_POINT('',(-80.,-34.,33.));
#948 = DIRECTION('',(-0.,-1.,-0.));
#949 = DIRECTION('',(0.,0.,-1.));
#950 = ADVANCED_FACE('',(#951),#970,.T.);
#951 = FACE_BOUND('',#952,.F.);
#952 = EDGE_LOOP('',(#953,#962,#968,#969));
#953 = ORIENTED_EDGE('',*,*,#954,.F.);
#954 = EDGE_CURVE('',#955,#932,#957,.T.);
#955 = VERTEX_POINT('',#956);
#956 = CARTESIAN_POINT('',(-82.,-36.,36.));
#957 = CIRCLE('',#958,2.);
#958 = AXIS2_PLACEMENT_3D('',#959,#960,#961);
#959 = CARTESIAN_POINT('',(-80.,-36.,36.));
#960 = DIRECTION('',(0.,0.,-1.));
#961 = DIRECTION('',(1.,-0.,-0.));
#962 = ORIENTED_EDGE('',*,*,#963,.F.);
#963 = EDGE_CURVE('',#400,#955,#964,.T.);
#964 = LINE('',#965,#966);
#965 = CARTESIAN_POINT('',(-82.,-36.,33.));
#966 = VECTOR('',#967,1.);
#967 = DIRECTION('',(-0.,-0.,1.));
#968 = ORIENTED_EDGE('',*,*,#407,.T.);
#969 = ORIENTED_EDGE('',*,*,#931,.T.);
#970 = CYLINDRICAL_SURFACE('',#971,2.);
#971 = AXIS2_PLACEMENT_3D('',#972,#973,#974);
#972 = CARTESIAN_POINT('',(-80.,-36.,33.));
#973 = DIRECTION('',(-0.,-0.,1.));
#974 = DIRECTION('',(1.,-0.,-0.));
#975 = ADVANCED_FACE('',(#976),#1010,.T.);
#976 = FACE_BOUND('',#977,.F.);
#977 = EDGE_LOOP('',(#978,#988,#996,#1002,#1003,#1004));
#978 = ORIENTED_EDGE('',*,*,#979,.T.);
#979 = EDGE_CURVE('',#980,#982,#984,.T.);
#980 = VERTEX_POINT('',#981);
#981 = CARTESIAN_POINT('',(-82.,-53.4,36.));
#982 = VERTEX_POINT('',#983);
#983 = CARTESIAN_POINT('',(-82.,-53.4,40.));
#984 = LINE('',#985,#986);
#985 = CARTESIAN_POINT('',(-82.,-53.4,33.));
#986 = VECTOR('',#987,1.);
#987 = DIRECTION('',(-0.,-0.,1.));
#988 = ORIENTED_EDGE('',*,*,#989,.T.);
#989 = EDGE_CURVE('',#982,#990,#992,.T.);
#990 = VERTEX_POINT('',#991);
#991 = CARTESIAN_POINT('',(-82.,-55.,40.));
#992 = LINE('',#993,#994);
#993 = CARTESIAN_POINT('',(-82.,-53.4,40.));
#994 = VECTOR('',#995,1.);
#995 = DIRECTION('',(-0.,-1.,-0.));
#996 = ORIENTED_EDGE('',*,*,#997,.F.);
#997 = EDGE_CURVE('',#391,#990,#998,.T.);
#998 = LINE('',#999,#1000);
#999 = CARTESIAN_POINT('',(-82.,-55.,33.));
#1000 = VECTOR('',#1001,1.);
#1001 = DIRECTION('',(-0.,-0.,1.));
#1002 = ORIENTED_EDGE('',*,*,#399,.F.);
#1003 = ORIENTED_EDGE('',*,*,#963,.T.);
#1004 = ORIENTED_EDGE('',*,*,#1005,.T.);
#1005 = EDGE_CURVE('',#955,#980,#1006,.T.);
#1006 = LINE('',#1007,#1008);
#1007 = CARTESIAN_POINT('',(-82.,-36.,36.));
#1008 = VECTOR('',#1009,1.);
#1009 = DIRECTION('',(-0.,-1.,-0.));
#1010 = PLANE('',#1011);
#1011 = AXIS2_PLACEMENT_3D('',#1012,#1013,#1014);
#1012 = CARTESIAN_POINT('',(-82.,-46.83846153846,35.161538461538));
#1013 = DIRECTION('',(-1.,0.,-0.));
#1014 = DIRECTION('',(0.,0.,1.));
#1015 = ADVANCED_FACE('',(#1016),#1035,.T.);
#1016 = FACE_BOUND('',#1017,.F.);
#1017 = EDGE_LOOP('',(#1018,#1027,#1033,#1034));
#1018 = ORIENTED_EDGE('',*,*,#1019,.F.);
#1019 = EDGE_CURVE('',#1020,#990,#1022,.T.);
#1020 = VERTEX_POINT('',#1021);
#1021 = CARTESIAN_POINT('',(-80.8,-56.2,40.));
#1022 = CIRCLE('',#1023,1.2);
#1023 = AXIS2_PLACEMENT_3D('',#1024,#1025,#1026);
#1024 = CARTESIAN_POINT('',(-80.8,-55.,40.));
#1025 = DIRECTION('',(0.,0.,-1.));
#1026 = DIRECTION('',(1.,-0.,-0.));
#1027 = ORIENTED_EDGE('',*,*,#1028,.F.);
#1028 = EDGE_CURVE('',#383,#1020,#1029,.T.);
#1029 = LINE('',#1030,#1031);
#1030 = CARTESIAN_POINT('',(-80.8,-56.2,33.));
#1031 = VECTOR('',#1032,1.);
#1032 = DIRECTION('',(-0.,-0.,1.));
#1033 = ORIENTED_EDGE('',*,*,#390,.T.);
#1034 = ORIENTED_EDGE('',*,*,#997,.T.);
#1035 = CYLINDRICAL_SURFACE('',#1036,1.2);
#1036 = AXIS2_PLACEMENT_3D('',#1037,#1038,#1039);
#1037 = CARTESIAN_POINT('',(-80.8,-55.,33.));
#1038 = DIRECTION('',(-0.,-0.,1.));
#1039 = DIRECTION('',(1.,-0.,-0.));
#1040 = ADVANCED_FACE('',(#1041),#1091,.T.);
#1041 = FACE_BOUND('',#1042,.F.);
#1042 = EDGE_LOOP('',(#1043,#1044,#1052,#1060,#1068,#1076,#1084,#1090));
#1043 = ORIENTED_EDGE('',*,*,#1028,.T.);
#1044 = ORIENTED_EDGE('',*,*,#1045,.T.);
#1045 = EDGE_CURVE('',#1020,#1046,#1048,.T.);
#1046 = VERTEX_POINT('',#1047);
#1047 = CARTESIAN_POINT('',(-61.,-56.2,40.));
#1048 = LINE('',#1049,#1050);
#1049 = CARTESIAN_POINT('',(-80.8,-56.2,40.));
#1050 = VECTOR('',#1051,1.);
#1051 = DIRECTION('',(1.,-0.,-0.));
#1052 = ORIENTED_EDGE('',*,*,#1053,.T.);
#1053 = EDGE_CURVE('',#1046,#1054,#1056,.T.);
#1054 = VERTEX_POINT('',#1055);
#1055 = CARTESIAN_POINT('',(-61.,-56.2,42.4));
#1056 = LINE('',#1057,#1058);
#1057 = CARTESIAN_POINT('',(-61.,-56.2,40.));
#1058 = VECTOR('',#1059,1.);
#1059 = DIRECTION('',(-0.,-0.,1.));
#1060 = ORIENTED_EDGE('',*,*,#1061,.T.);
#1061 = EDGE_CURVE('',#1054,#1062,#1064,.T.);
#1062 = VERTEX_POINT('',#1063);
#1063 = CARTESIAN_POINT('',(11.,-56.2,42.4));
#1064 = LINE('',#1065,#1066);
#1065 = CARTESIAN_POINT('',(-61.,-56.2,42.4));
#1066 = VECTOR('',#1067,1.);
#1067 = DIRECTION('',(1.,-0.,-0.));
#1068 = ORIENTED_EDGE('',*,*,#1069,.F.);
#1069 = EDGE_CURVE('',#1070,#1062,#1072,.T.);
#1070 = VERTEX_POINT('',#1071);
#1071 = CARTESIAN_POINT('',(11.,-56.2,40.));
#1072 = LINE('',#1073,#1074);
#1073 = CARTESIAN_POINT('',(11.,-56.2,40.));
#1074 = VECTOR('',#1075,1.);
#1075 = DIRECTION('',(-0.,-0.,1.));
#1076 = ORIENTED_EDGE('',*,*,#1077,.T.);
#1077 = EDGE_CURVE('',#1070,#1078,#1080,.T.);
#1078 = VERTEX_POINT('',#1079);
#1079 = CARTESIAN_POINT('',(40.8,-56.2,40.));
#1080 = LINE('',#1081,#1082);
#1081 = CARTESIAN_POINT('',(-80.8,-56.2,40.));
#1082 = VECTOR('',#1083,1.);
#1083 = DIRECTION('',(1.,-0.,-0.));
#1084 = ORIENTED_EDGE('',*,*,#1085,.F.);
#1085 = EDGE_CURVE('',#374,#1078,#1086,.T.);
#1086 = LINE('',#1087,#1088);
#1087 = CARTESIAN_POINT('',(40.8,-56.2,33.));
#1088 = VECTOR('',#1089,1.);
#1089 = DIRECTION('',(-0.,-0.,1.));
#1090 = ORIENTED_EDGE('',*,*,#382,.F.);
#1091 = PLANE('',#1092);
#1092 = AXIS2_PLACEMENT_3D('',#1093,#1094,#1095);
#1093 = CARTESIAN_POINT('',(-20.09160305343,-56.2,37.245648854962));
#1094 = DIRECTION('',(-0.,-1.,-0.));
#1095 = DIRECTION('',(0.,0.,-1.));
#1096 = ADVANCED_FACE('',(#1097),#1109,.T.);
#1097 = FACE_BOUND('',#1098,.F.);
#1098 = EDGE_LOOP('',(#1099,#1106,#1107,#1108));
#1099 = ORIENTED_EDGE('',*,*,#1100,.F.);
#1100 = EDGE_CURVE('',#716,#1078,#1101,.T.);
#1101 = CIRCLE('',#1102,1.2);
#1102 = AXIS2_PLACEMENT_3D('',#1103,#1104,#1105);
#1103 = CARTESIAN_POINT('',(40.8,-55.,40.));
#1104 = DIRECTION('',(0.,0.,-1.));
#1105 = DIRECTION('',(1.,-0.,-0.));
#1106 = ORIENTED_EDGE('',*,*,#715,.F.);
#1107 = ORIENTED_EDGE('',*,*,#373,.T.);
#1108 = ORIENTED_EDGE('',*,*,#1085,.T.);
#1109 = CYLINDRICAL_SURFACE('',#1110,1.2);
#1110 = AXIS2_PLACEMENT_3D('',#1111,#1112,#1113);
#1111 = CARTESIAN_POINT('',(40.8,-55.,33.));
#1112 = DIRECTION('',(-0.,-0.,1.));
#1113 = DIRECTION('',(1.,-0.,-0.));
#1114 = ADVANCED_FACE('',(#1115),#1133,.T.);
#1115 = FACE_BOUND('',#1116,.F.);
#1116 = EDGE_LOOP('',(#1117,#1125,#1126,#1127));
#1117 = ORIENTED_EDGE('',*,*,#1118,.F.);
#1118 = EDGE_CURVE('',#297,#1119,#1121,.T.);
#1119 = VERTEX_POINT('',#1120);
#1120 = CARTESIAN_POINT('',(25.,-50.,39.8));
#1121 = LINE('',#1122,#1123);
#1122 = CARTESIAN_POINT('',(25.,-50.,33.));
#1123 = VECTOR('',#1124,1.);
#1124 = DIRECTION('',(-0.,-0.,1.));
#1125 = ORIENTED_EDGE('',*,*,#305,.T.);
#1126 = ORIENTED_EDGE('',*,*,#605,.F.);
#1127 = ORIENTED_EDGE('',*,*,#1128,.F.);
#1128 = EDGE_CURVE('',#1119,#606,#1129,.T.);
#1129 = LINE('',#1130,#1131);
#1130 = CARTESIAN_POINT('',(25.,-50.,39.8));
#1131 = VECTOR('',#1132,1.);
#1132 = DIRECTION('',(-0.,-1.,-0.));
#1133 = PLANE('',#1134);
#1134 = AXIS2_PLACEMENT_3D('',#1135,#1136,#1137);
#1135 = CARTESIAN_POINT('',(25.,-50.,33.));
#1136 = DIRECTION('',(1.,-0.,-0.));
#1137 = DIRECTION('',(0.,0.,-1.));
#1138 = ADVANCED_FACE('',(#1139),#1158,.T.);
#1139 = FACE_BOUND('',#1140,.F.);
#1140 = EDGE_LOOP('',(#1141,#1150,#1156,#1157));
#1141 = ORIENTED_EDGE('',*,*,#1142,.F.);
#1142 = EDGE_CURVE('',#1143,#1119,#1145,.T.);
#1143 = VERTEX_POINT('',#1144);
#1144 = CARTESIAN_POINT('',(24.,-49.,39.8));
#1145 = CIRCLE('',#1146,1.);
#1146 = AXIS2_PLACEMENT_3D('',#1147,#1148,#1149);
#1147 = CARTESIAN_POINT('',(24.,-50.,39.8));
#1148 = DIRECTION('',(0.,0.,-1.));
#1149 = DIRECTION('',(1.,-0.,-0.));
#1150 = ORIENTED_EDGE('',*,*,#1151,.F.);
#1151 = EDGE_CURVE('',#289,#1143,#1152,.T.);
#1152 = LINE('',#1153,#1154);
#1153 = CARTESIAN_POINT('',(24.,-49.,33.));
#1154 = VECTOR('',#1155,1.);
#1155 = DIRECTION('',(-0.,-0.,1.));
#1156 = ORIENTED_EDGE('',*,*,#296,.T.);
#1157 = ORIENTED_EDGE('',*,*,#1118,.T.);
#1158 = CYLINDRICAL_SURFACE('',#1159,1.);
#1159 = AXIS2_PLACEMENT_3D('',#1160,#1161,#1162);
#1160 = CARTESIAN_POINT('',(24.,-50.,33.));
#1161 = DIRECTION('',(-0.,-0.,1.));
#1162 = DIRECTION('',(1.,-0.,-0.));
#1163 = ADVANCED_FACE('',(#1164),#1182,.F.);
#1164 = FACE_BOUND('',#1165,.T.);
#1165 = EDGE_LOOP('',(#1166,#1167,#1175,#1181));
#1166 = ORIENTED_EDGE('',*,*,#288,.F.);
#1167 = ORIENTED_EDGE('',*,*,#1168,.T.);
#1168 = EDGE_CURVE('',#280,#1169,#1171,.T.);
#1169 = VERTEX_POINT('',#1170);
#1170 = CARTESIAN_POINT('',(22.,-49.,39.8));
#1171 = LINE('',#1172,#1173);
#1172 = CARTESIAN_POINT('',(22.,-49.,33.));
#1173 = VECTOR('',#1174,1.);
#1174 = DIRECTION('',(-0.,-0.,1.));
#1175 = ORIENTED_EDGE('',*,*,#1176,.T.);
#1176 = EDGE_CURVE('',#1169,#1143,#1177,.T.);
#1177 = LINE('',#1178,#1179);
#1178 = CARTESIAN_POINT('',(22.,-49.,39.8));
#1179 = VECTOR('',#1180,1.);
#1180 = DIRECTION('',(1.,-0.,-0.));
#1181 = ORIENTED_EDGE('',*,*,#1151,.F.);
#1182 = PLANE('',#1183);
#1183 = AXIS2_PLACEMENT_3D('',#1184,#1185,#1186);
#1184 = CARTESIAN_POINT('',(22.,-49.,33.));
#1185 = DIRECTION('',(-0.,-1.,-0.));
#1186 = DIRECTION('',(0.,0.,-1.));
#1187 = ADVANCED_FACE('',(#1188),#1207,.T.);
#1188 = FACE_BOUND('',#1189,.F.);
#1189 = EDGE_LOOP('',(#1190,#1199,#1205,#1206));
#1190 = ORIENTED_EDGE('',*,*,#1191,.F.);
#1191 = EDGE_CURVE('',#1192,#1169,#1194,.T.);
#1192 = VERTEX_POINT('',#1193);
#1193 = CARTESIAN_POINT('',(21.,-50.,39.8));
#1194 = CIRCLE('',#1195,1.);
#1195 = AXIS2_PLACEMENT_3D('',#1196,#1197,#1198);
#1196 = CARTESIAN_POINT('',(22.,-50.,39.8));
#1197 = DIRECTION('',(0.,0.,-1.));
#1198 = DIRECTION('',(1.,-0.,-0.));
#1199 = ORIENTED_EDGE('',*,*,#1200,.F.);
#1200 = EDGE_CURVE('',#272,#1192,#1201,.T.);
#1201 = LINE('',#1202,#1203);
#1202 = CARTESIAN_POINT('',(21.,-50.,33.));
#1203 = VECTOR('',#1204,1.);
#1204 = DIRECTION('',(-0.,-0.,1.));
#1205 = ORIENTED_EDGE('',*,*,#279,.T.);
#1206 = ORIENTED_EDGE('',*,*,#1168,.T.);
#1207 = CYLINDRICAL_SURFACE('',#1208,1.);
#1208 = AXIS2_PLACEMENT_3D('',#1209,#1210,#1211);
#1209 = CARTESIAN_POINT('',(22.,-50.,33.));
#1210 = DIRECTION('',(-0.,-0.,1.));
#1211 = DIRECTION('',(1.,-0.,-0.));
#1212 = ADVANCED_FACE('',(#1213),#1224,.F.);
#1213 = FACE_BOUND('',#1214,.T.);
#1214 = EDGE_LOOP('',(#1215,#1216,#1217,#1218));
#1215 = ORIENTED_EDGE('',*,*,#1200,.F.);
#1216 = ORIENTED_EDGE('',*,*,#271,.T.);
#1217 = ORIENTED_EDGE('',*,*,#621,.F.);
#1218 = ORIENTED_EDGE('',*,*,#1219,.F.);
#1219 = EDGE_CURVE('',#1192,#614,#1220,.T.);
#1220 = LINE('',#1221,#1222);
#1221 = CARTESIAN_POINT('',(21.,-50.,39.8));
#1222 = VECTOR('',#1223,1.);
#1223 = DIRECTION('',(-0.,-1.,-0.));
#1224 = PLANE('',#1225);
#1225 = AXIS2_PLACEMENT_3D('',#1226,#1227,#1228);
#1226 = CARTESIAN_POINT('',(21.,-50.,33.));
#1227 = DIRECTION('',(1.,-0.,-0.));
#1228 = DIRECTION('',(0.,0.,-1.));
#1229 = ADVANCED_FACE('',(#1230),#1249,.F.);
#1230 = FACE_BOUND('',#1231,.T.);
#1231 = EDGE_LOOP('',(#1232,#1241,#1247,#1248));
#1232 = ORIENTED_EDGE('',*,*,#1233,.F.);
#1233 = EDGE_CURVE('',#1234,#1234,#1236,.T.);
#1234 = VERTEX_POINT('',#1235);
#1235 = CARTESIAN_POINT('',(-76.3,-38.,36.));
#1236 = CIRCLE('',#1237,1.7);
#1237 = AXIS2_PLACEMENT_3D('',#1238,#1239,#1240);
#1238 = CARTESIAN_POINT('',(-78.,-38.,36.));
#1239 = DIRECTION('',(0.,0.,-1.));
#1240 = DIRECTION('',(1.,-0.,-0.));
#1241 = ORIENTED_EDGE('',*,*,#1242,.F.);
#1242 = EDGE_CURVE('',#482,#1234,#1243,.T.);
#1243 = LINE('',#1244,#1245);
#1244 = CARTESIAN_POINT('',(-76.3,-38.,32.8));
#1245 = VECTOR('',#1246,1.);
#1246 = DIRECTION('',(-0.,-0.,1.));
#1247 = ORIENTED_EDGE('',*,*,#481,.T.);
#1248 = ORIENTED_EDGE('',*,*,#1242,.T.);
#1249 = CYLINDRICAL_SURFACE('',#1250,1.7);
#1250 = AXIS2_PLACEMENT_3D('',#1251,#1252,#1253);
#1251 = CARTESIAN_POINT('',(-78.,-38.,32.8));
#1252 = DIRECTION('',(-0.,-0.,1.));
#1253 = DIRECTION('',(1.,-0.,-0.));
#1254 = ADVANCED_FACE('',(#1255,#1277),#1280,.T.);
#1255 = FACE_BOUND('',#1256,.F.);
#1256 = EDGE_LOOP('',(#1257,#1258,#1259,#1260,#1261,#1262,#1263,#1269,
    #1270));
#1257 = ORIENTED_EDGE('',*,*,#1005,.F.);
#1258 = ORIENTED_EDGE('',*,*,#954,.T.);
#1259 = ORIENTED_EDGE('',*,*,#939,.T.);
#1260 = ORIENTED_EDGE('',*,*,#905,.T.);
#1261 = ORIENTED_EDGE('',*,*,#891,.T.);
#1262 = ORIENTED_EDGE('',*,*,#856,.T.);
#1263 = ORIENTED_EDGE('',*,*,#1264,.T.);
#1264 = EDGE_CURVE('',#849,#557,#1265,.T.);
#1265 = LINE('',#1266,#1267);
#1266 = CARTESIAN_POINT('',(-75.,-47.55,36.));
#1267 = VECTOR('',#1268,1.);
#1268 = DIRECTION('',(-0.,-1.,-0.));
#1269 = ORIENTED_EDGE('',*,*,#554,.F.);
#1270 = ORIENTED_EDGE('',*,*,#1271,.F.);
#1271 = EDGE_CURVE('',#980,#555,#1272,.T.);
#1272 = CIRCLE('',#1273,1.2);
#1273 = AXIS2_PLACEMENT_3D('',#1274,#1275,#1276);
#1274 = CARTESIAN_POINT('',(-80.8,-53.4,36.));
#1275 = DIRECTION('',(0.,0.,-1.));
#1276 = DIRECTION('',(1.,-0.,-0.));
#1277 = FACE_BOUND('',#1278,.F.);
#1278 = EDGE_LOOP('',(#1279));
#1279 = ORIENTED_EDGE('',*,*,#1233,.F.);
#1280 = PLANE('',#1281);
#1281 = AXIS2_PLACEMENT_3D('',#1282,#1283,#1284);
#1282 = CARTESIAN_POINT('',(-78.,-45.1,36.));
#1283 = DIRECTION('',(-0.,-0.,1.));
#1284 = DIRECTION('',(-1.,0.,0.));
#1285 = ADVANCED_FACE('',(#1286),#1313,.F.);
#1286 = FACE_BOUND('',#1287,.T.);
#1287 = EDGE_LOOP('',(#1288,#1298,#1304,#1305,#1306,#1307));
#1288 = ORIENTED_EDGE('',*,*,#1289,.F.);
#1289 = EDGE_CURVE('',#1290,#1292,#1294,.T.);
#1290 = VERTEX_POINT('',#1291);
#1291 = CARTESIAN_POINT('',(-75.,-50.,36.2));
#1292 = VERTEX_POINT('',#1293);
#1293 = CARTESIAN_POINT('',(-75.,-50.,39.8));
#1294 = LINE('',#1295,#1296);
#1295 = CARTESIAN_POINT('',(-75.,-50.,33.));
#1296 = VECTOR('',#1297,1.);
#1297 = DIRECTION('',(-0.,-0.,1.));
#1298 = ORIENTED_EDGE('',*,*,#1299,.F.);
#1299 = EDGE_CURVE('',#840,#1290,#1300,.T.);
#1300 = LINE('',#1301,#1302);
#1301 = CARTESIAN_POINT('',(-75.,-49.,36.2));
#1302 = VECTOR('',#1303,1.);
#1303 = DIRECTION('',(0.,1.,-0.));
#1304 = ORIENTED_EDGE('',*,*,#848,.F.);
#1305 = ORIENTED_EDGE('',*,*,#1264,.T.);
#1306 = ORIENTED_EDGE('',*,*,#644,.F.);
#1307 = ORIENTED_EDGE('',*,*,#1308,.F.);
#1308 = EDGE_CURVE('',#1292,#637,#1309,.T.);
#1309 = LINE('',#1310,#1311);
#1310 = CARTESIAN_POINT('',(-75.,-50.,39.8));
#1311 = VECTOR('',#1312,1.);
#1312 = DIRECTION('',(-0.,-1.,-0.));
#1313 = PLANE('',#1314);
#1314 = AXIS2_PLACEMENT_3D('',#1315,#1316,#1317);
#1315 = CARTESIAN_POINT('',(-75.,-50.,33.));
#1316 = DIRECTION('',(1.,-0.,-0.));
#1317 = DIRECTION('',(0.,0.,-1.));
#1318 = ADVANCED_FACE('',(#1319),#1349,.T.);
#1319 = FACE_BOUND('',#1320,.F.);
#1320 = EDGE_LOOP('',(#1321,#1322,#1331,#1340,#1346,#1347,#1348));
#1321 = ORIENTED_EDGE('',*,*,#1308,.F.);
#1322 = ORIENTED_EDGE('',*,*,#1323,.T.);
#1323 = EDGE_CURVE('',#1292,#1324,#1326,.T.);
#1324 = VERTEX_POINT('',#1325);
#1325 = CARTESIAN_POINT('',(-74.84955503058,-49.4725,39.8));
#1326 = CIRCLE('',#1327,1.);
#1327 = AXIS2_PLACEMENT_3D('',#1328,#1329,#1330);
#1328 = CARTESIAN_POINT('',(-74.,-50.,39.8));
#1329 = DIRECTION('',(0.,0.,-1.));
#1330 = DIRECTION('',(1.,-0.,-0.));
#1331 = ORIENTED_EDGE('',*,*,#1332,.T.);
#1332 = EDGE_CURVE('',#1324,#1333,#1335,.T.);
#1333 = VERTEX_POINT('',#1334);
#1334 = CARTESIAN_POINT('',(-72.62522729151,-49.,39.8));
#1335 = CIRCLE('',#1336,1.7);
#1336 = AXIS2_PLACEMENT_3D('',#1337,#1338,#1339);
#1337 = CARTESIAN_POINT('',(-74.,-48.,39.8));
#1338 = DIRECTION('',(0.,0.,1.));
#1339 = DIRECTION('',(1.,0.,-0.));
#1340 = ORIENTED_EDGE('',*,*,#1341,.T.);
#1341 = EDGE_CURVE('',#1333,#798,#1342,.T.);
#1342 = LINE('',#1343,#1344);
#1343 = CARTESIAN_POINT('',(-74.,-49.,39.8));
#1344 = VECTOR('',#1345,1.);
#1345 = DIRECTION('',(1.,-0.,-0.));
#1346 = ORIENTED_EDGE('',*,*,#797,.T.);
#1347 = ORIENTED_EDGE('',*,*,#783,.T.);
#1348 = ORIENTED_EDGE('',*,*,#636,.F.);
#1349 = PLANE('',#1350);
#1350 = AXIS2_PLACEMENT_3D('',#1351,#1352,#1353);
#1351 = CARTESIAN_POINT('',(-73.,-52.6,39.8));
#1352 = DIRECTION('',(-0.,-0.,1.));
#1353 = DIRECTION('',(-1.,0.,0.));
#1354 = ADVANCED_FACE('',(#1355),#1363,.T.);
#1355 = FACE_BOUND('',#1356,.F.);
#1356 = EDGE_LOOP('',(#1357,#1358,#1359,#1360,#1361,#1362));
#1357 = ORIENTED_EDGE('',*,*,#1219,.F.);
#1358 = ORIENTED_EDGE('',*,*,#1191,.T.);
#1359 = ORIENTED_EDGE('',*,*,#1176,.T.);
#1360 = ORIENTED_EDGE('',*,*,#1142,.T.);
#1361 = ORIENTED_EDGE('',*,*,#1128,.T.);
#1362 = ORIENTED_EDGE('',*,*,#613,.F.);
#1363 = PLANE('',#1364);
#1364 = AXIS2_PLACEMENT_3D('',#1365,#1366,#1367);
#1365 = CARTESIAN_POINT('',(23.,-52.6,39.8));
#1366 = DIRECTION('',(-0.,-0.,1.));
#1367 = DIRECTION('',(-1.,0.,0.));
#1368 = ADVANCED_FACE('',(#1369),#1391,.T.);
#1369 = FACE_BOUND('',#1370,.F.);
#1370 = EDGE_LOOP('',(#1371,#1379,#1380,#1381,#1382,#1383,#1384));
#1371 = ORIENTED_EDGE('',*,*,#1372,.F.);
#1372 = EDGE_CURVE('',#581,#1373,#1375,.T.);
#1373 = VERTEX_POINT('',#1374);
#1374 = CARTESIAN_POINT('',(12.,-55.2,40.));
#1375 = LINE('',#1376,#1377);
#1376 = CARTESIAN_POINT('',(12.,-51.7,40.));
#1377 = VECTOR('',#1378,1.);
#1378 = DIRECTION('',(-0.,-1.,-0.));
#1379 = ORIENTED_EDGE('',*,*,#588,.T.);
#1380 = ORIENTED_EDGE('',*,*,#675,.T.);
#1381 = ORIENTED_EDGE('',*,*,#723,.T.);
#1382 = ORIENTED_EDGE('',*,*,#1100,.T.);
#1383 = ORIENTED_EDGE('',*,*,#1077,.F.);
#1384 = ORIENTED_EDGE('',*,*,#1385,.F.);
#1385 = EDGE_CURVE('',#1373,#1070,#1386,.T.);
#1386 = CIRCLE('',#1387,1.);
#1387 = AXIS2_PLACEMENT_3D('',#1388,#1389,#1390);
#1388 = CARTESIAN_POINT('',(11.,-55.2,40.));
#1389 = DIRECTION('',(0.,0.,-1.));
#1390 = DIRECTION('',(1.,-0.,-0.));
#1391 = PLANE('',#1392);
#1392 = AXIS2_PLACEMENT_3D('',#1393,#1394,#1395);
#1393 = CARTESIAN_POINT('',(-20.,-54.2,40.));
#1394 = DIRECTION('',(-0.,-0.,1.));
#1395 = DIRECTION('',(-1.,0.,0.));
#1396 = ADVANCED_FACE('',(#1397),#1440,.T.);
#1397 = FACE_BOUND('',#1398,.F.);
#1398 = EDGE_LOOP('',(#1399,#1410,#1416,#1417,#1425,#1434));
#1399 = ORIENTED_EDGE('',*,*,#1400,.F.);
#1400 = EDGE_CURVE('',#1401,#1403,#1405,.T.);
#1401 = VERTEX_POINT('',#1402);
#1402 = CARTESIAN_POINT('',(-62.,-51.7,40.));
#1403 = VERTEX_POINT('',#1404);
#1404 = CARTESIAN_POINT('',(-61.,-50.7,40.));
#1405 = CIRCLE('',#1406,1.);
#1406 = AXIS2_PLACEMENT_3D('',#1407,#1408,#1409);
#1407 = CARTESIAN_POINT('',(-61.,-51.7,40.));
#1408 = DIRECTION('',(0.,0.,-1.));
#1409 = DIRECTION('',(1.,-0.,-0.));
#1410 = ORIENTED_EDGE('',*,*,#1411,.T.);
#1411 = EDGE_CURVE('',#1401,#573,#1412,.T.);
#1412 = LINE('',#1413,#1414);
#1413 = CARTESIAN_POINT('',(-62.,-51.7,40.));
#1414 = VECTOR('',#1415,1.);
#1415 = DIRECTION('',(-0.,-1.,-0.));
#1416 = ORIENTED_EDGE('',*,*,#580,.T.);
#1417 = ORIENTED_EDGE('',*,*,#1418,.F.);
#1418 = EDGE_CURVE('',#1419,#581,#1421,.T.);
#1419 = VERTEX_POINT('',#1420);
#1420 = CARTESIAN_POINT('',(12.,-51.7,40.));
#1421 = LINE('',#1422,#1423);
#1422 = CARTESIAN_POINT('',(12.,-51.7,40.));
#1423 = VECTOR('',#1424,1.);
#1424 = DIRECTION('',(-0.,-1.,-0.));
#1425 = ORIENTED_EDGE('',*,*,#1426,.F.);
#1426 = EDGE_CURVE('',#1427,#1419,#1429,.T.);
#1427 = VERTEX_POINT('',#1428);
#1428 = CARTESIAN_POINT('',(11.,-50.7,40.));
#1429 = CIRCLE('',#1430,1.);
#1430 = AXIS2_PLACEMENT_3D('',#1431,#1432,#1433);
#1431 = CARTESIAN_POINT('',(11.,-51.7,40.));
#1432 = DIRECTION('',(0.,0.,-1.));
#1433 = DIRECTION('',(1.,-0.,-0.));
#1434 = ORIENTED_EDGE('',*,*,#1435,.F.);
#1435 = EDGE_CURVE('',#1403,#1427,#1436,.T.);
#1436 = LINE('',#1437,#1438);
#1437 = CARTESIAN_POINT('',(-61.,-50.7,40.));
#1438 = VECTOR('',#1439,1.);
#1439 = DIRECTION('',(1.,-0.,-0.));
#1440 = PLANE('',#1441);
#1441 = AXIS2_PLACEMENT_3D('',#1442,#1443,#1444);
#1442 = CARTESIAN_POINT('',(-25.,-53.45,40.));
#1443 = DIRECTION('',(-0.,0.,-1.));
#1444 = DIRECTION('',(1.,0.,0.));
#1445 = ADVANCED_FACE('',(#1446),#1474,.T.);
#1446 = FACE_BOUND('',#1447,.F.);
#1447 = EDGE_LOOP('',(#1448,#1449,#1456,#1457,#1465,#1472,#1473));
#1448 = ORIENTED_EDGE('',*,*,#989,.F.);
#1449 = ORIENTED_EDGE('',*,*,#1450,.T.);
#1450 = EDGE_CURVE('',#982,#565,#1451,.T.);
#1451 = CIRCLE('',#1452,1.2);
#1452 = AXIS2_PLACEMENT_3D('',#1453,#1454,#1455);
#1453 = CARTESIAN_POINT('',(-80.8,-53.4,40.));
#1454 = DIRECTION('',(0.,0.,-1.));
#1455 = DIRECTION('',(1.,-0.,-0.));
#1456 = ORIENTED_EDGE('',*,*,#572,.T.);
#1457 = ORIENTED_EDGE('',*,*,#1458,.T.);
#1458 = EDGE_CURVE('',#573,#1459,#1461,.T.);
#1459 = VERTEX_POINT('',#1460);
#1460 = CARTESIAN_POINT('',(-62.,-55.2,40.));
#1461 = LINE('',#1462,#1463);
#1462 = CARTESIAN_POINT('',(-62.,-51.7,40.));
#1463 = VECTOR('',#1464,1.);
#1464 = DIRECTION('',(-0.,-1.,-0.));
#1465 = ORIENTED_EDGE('',*,*,#1466,.F.);
#1466 = EDGE_CURVE('',#1046,#1459,#1467,.T.);
#1467 = CIRCLE('',#1468,1.);
#1468 = AXIS2_PLACEMENT_3D('',#1469,#1470,#1471);
#1469 = CARTESIAN_POINT('',(-61.,-55.2,40.));
#1470 = DIRECTION('',(0.,0.,-1.));
#1471 = DIRECTION('',(1.,-0.,-0.));
#1472 = ORIENTED_EDGE('',*,*,#1045,.F.);
#1473 = ORIENTED_EDGE('',*,*,#1019,.T.);
#1474 = PLANE('',#1475);
#1475 = AXIS2_PLACEMENT_3D('',#1476,#1477,#1478);
#1476 = CARTESIAN_POINT('',(-20.,-54.2,40.));
#1477 = DIRECTION('',(-0.,-0.,1.));
#1478 = DIRECTION('',(-1.,0.,0.));
#1479 = ADVANCED_FACE('',(#1480),#1486,.T.);
#1480 = FACE_BOUND('',#1481,.F.);
#1481 = EDGE_LOOP('',(#1482,#1483,#1484,#1485));
#1482 = ORIENTED_EDGE('',*,*,#1450,.F.);
#1483 = ORIENTED_EDGE('',*,*,#979,.F.);
#1484 = ORIENTED_EDGE('',*,*,#1271,.T.);
#1485 = ORIENTED_EDGE('',*,*,#564,.T.);
#1486 = CYLINDRICAL_SURFACE('',#1487,1.2);
#1487 = AXIS2_PLACEMENT_3D('',#1488,#1489,#1490);
#1488 = CARTESIAN_POINT('',(-80.8,-53.4,33.));
#1489 = DIRECTION('',(-0.,-0.,1.));
#1490 = DIRECTION('',(1.,-0.,-0.));
#1491 = ADVANCED_FACE('',(#1492),#1521,.F.);
#1492 = FACE_BOUND('',#1493,.F.);
#1493 = EDGE_LOOP('',(#1494,#1495,#1496,#1497,#1505,#1514));
#1494 = ORIENTED_EDGE('',*,*,#1299,.F.);
#1495 = ORIENTED_EDGE('',*,*,#839,.T.);
#1496 = ORIENTED_EDGE('',*,*,#814,.T.);
#1497 = ORIENTED_EDGE('',*,*,#1498,.F.);
#1498 = EDGE_CURVE('',#1499,#807,#1501,.T.);
#1499 = VERTEX_POINT('',#1500);
#1500 = CARTESIAN_POINT('',(-72.62522729151,-49.,36.2));
#1501 = LINE('',#1502,#1503);
#1502 = CARTESIAN_POINT('',(-74.,-49.,36.2));
#1503 = VECTOR('',#1504,1.);
#1504 = DIRECTION('',(1.,0.,0.));
#1505 = ORIENTED_EDGE('',*,*,#1506,.F.);
#1506 = EDGE_CURVE('',#1507,#1499,#1509,.T.);
#1507 = VERTEX_POINT('',#1508);
#1508 = CARTESIAN_POINT('',(-74.84955503059,-49.4725,36.2));
#1509 = CIRCLE('',#1510,1.7);
#1510 = AXIS2_PLACEMENT_3D('',#1511,#1512,#1513);
#1511 = CARTESIAN_POINT('',(-74.,-48.,36.2));
#1512 = DIRECTION('',(0.,0.,1.));
#1513 = DIRECTION('',(1.,0.,-0.));
#1514 = ORIENTED_EDGE('',*,*,#1515,.T.);
#1515 = EDGE_CURVE('',#1507,#1290,#1516,.T.);
#1516 = CIRCLE('',#1517,1.);
#1517 = AXIS2_PLACEMENT_3D('',#1518,#1519,#1520);
#1518 = CARTESIAN_POINT('',(-74.,-50.,36.2));
#1519 = DIRECTION('',(-0.,0.,1.));
#1520 = DIRECTION('',(1.,-0.,0.));
#1521 = PLANE('',#1522);
#1522 = AXIS2_PLACEMENT_3D('',#1523,#1524,#1525);
#1523 = CARTESIAN_POINT('',(-74.,-48.,36.2));
#1524 = DIRECTION('',(0.,0.,1.));
#1525 = DIRECTION('',(1.,0.,-0.));
#1526 = ADVANCED_FACE('',(#1527),#1538,.F.);
#1527 = FACE_BOUND('',#1528,.T.);
#1528 = EDGE_LOOP('',(#1529,#1530,#1536,#1537));
#1529 = ORIENTED_EDGE('',*,*,#1498,.F.);
#1530 = ORIENTED_EDGE('',*,*,#1531,.T.);
#1531 = EDGE_CURVE('',#1499,#1333,#1532,.T.);
#1532 = LINE('',#1533,#1534);
#1533 = CARTESIAN_POINT('',(-72.62522729151,-49.,32.8));
#1534 = VECTOR('',#1535,1.);
#1535 = DIRECTION('',(0.,0.,1.));
#1536 = ORIENTED_EDGE('',*,*,#1341,.T.);
#1537 = ORIENTED_EDGE('',*,*,#806,.F.);
#1538 = PLANE('',#1539);
#1539 = AXIS2_PLACEMENT_3D('',#1540,#1541,#1542);
#1540 = CARTESIAN_POINT('',(-74.,-49.,33.));
#1541 = DIRECTION('',(-0.,-1.,-0.));
#1542 = DIRECTION('',(0.,0.,-1.));
#1543 = ADVANCED_FACE('',(#1544),#1563,.T.);
#1544 = FACE_BOUND('',#1545,.F.);
#1545 = EDGE_LOOP('',(#1546,#1555,#1556,#1557));
#1546 = ORIENTED_EDGE('',*,*,#1547,.F.);
#1547 = EDGE_CURVE('',#1054,#1548,#1550,.T.);
#1548 = VERTEX_POINT('',#1549);
#1549 = CARTESIAN_POINT('',(-62.,-55.2,42.4));
#1550 = CIRCLE('',#1551,1.);
#1551 = AXIS2_PLACEMENT_3D('',#1552,#1553,#1554);
#1552 = CARTESIAN_POINT('',(-61.,-55.2,42.4));
#1553 = DIRECTION('',(0.,0.,-1.));
#1554 = DIRECTION('',(1.,-0.,-0.));
#1555 = ORIENTED_EDGE('',*,*,#1053,.F.);
#1556 = ORIENTED_EDGE('',*,*,#1466,.T.);
#1557 = ORIENTED_EDGE('',*,*,#1558,.T.);
#1558 = EDGE_CURVE('',#1459,#1548,#1559,.T.);
#1559 = LINE('',#1560,#1561);
#1560 = CARTESIAN_POINT('',(-62.,-55.2,40.));
#1561 = VECTOR('',#1562,1.);
#1562 = DIRECTION('',(-0.,-0.,1.));
#1563 = CYLINDRICAL_SURFACE('',#1564,1.);
#1564 = AXIS2_PLACEMENT_3D('',#1565,#1566,#1567);
#1565 = CARTESIAN_POINT('',(-61.,-55.2,40.));
#1566 = DIRECTION('',(-0.,-0.,1.));
#1567 = DIRECTION('',(1.,-0.,-0.));
#1568 = ADVANCED_FACE('',(#1569),#1622,.T.);
#1569 = FACE_BOUND('',#1570,.F.);
#1570 = EDGE_LOOP('',(#1571,#1582,#1590,#1599,#1607,#1614,#1615,#1616));
#1571 = ORIENTED_EDGE('',*,*,#1572,.T.);
#1572 = EDGE_CURVE('',#1573,#1575,#1577,.T.);
#1573 = VERTEX_POINT('',#1574);
#1574 = CARTESIAN_POINT('',(-62.,-51.7,42.4));
#1575 = VERTEX_POINT('',#1576);
#1576 = CARTESIAN_POINT('',(-61.,-50.7,42.4));
#1577 = CIRCLE('',#1578,1.);
#1578 = AXIS2_PLACEMENT_3D('',#1579,#1580,#1581);
#1579 = CARTESIAN_POINT('',(-61.,-51.7,42.4));
#1580 = DIRECTION('',(0.,0.,-1.));
#1581 = DIRECTION('',(1.,-0.,-0.));
#1582 = ORIENTED_EDGE('',*,*,#1583,.T.);
#1583 = EDGE_CURVE('',#1575,#1584,#1586,.T.);
#1584 = VERTEX_POINT('',#1585);
#1585 = CARTESIAN_POINT('',(11.,-50.7,42.4));
#1586 = LINE('',#1587,#1588);
#1587 = CARTESIAN_POINT('',(-61.,-50.7,42.4));
#1588 = VECTOR('',#1589,1.);
#1589 = DIRECTION('',(1.,-0.,-0.));
#1590 = ORIENTED_EDGE('',*,*,#1591,.T.);
#1591 = EDGE_CURVE('',#1584,#1592,#1594,.T.);
#1592 = VERTEX_POINT('',#1593);
#1593 = CARTESIAN_POINT('',(12.,-51.7,42.4));
#1594 = CIRCLE('',#1595,1.);
#1595 = AXIS2_PLACEMENT_3D('',#1596,#1597,#1598);
#1596 = CARTESIAN_POINT('',(11.,-51.7,42.4));
#1597 = DIRECTION('',(0.,0.,-1.));
#1598 = DIRECTION('',(1.,-0.,-0.));
#1599 = ORIENTED_EDGE('',*,*,#1600,.T.);
#1600 = EDGE_CURVE('',#1592,#1601,#1603,.T.);
#1601 = VERTEX_POINT('',#1602);
#1602 = CARTESIAN_POINT('',(12.,-55.2,42.4));
#1603 = LINE('',#1604,#1605);
#1604 = CARTESIAN_POINT('',(12.,-51.7,42.4));
#1605 = VECTOR('',#1606,1.);
#1606 = DIRECTION('',(-0.,-1.,-0.));
#1607 = ORIENTED_EDGE('',*,*,#1608,.T.);
#1608 = EDGE_CURVE('',#1601,#1062,#1609,.T.);
#1609 = CIRCLE('',#1610,1.);
#1610 = AXIS2_PLACEMENT_3D('',#1611,#1612,#1613);
#1611 = CARTESIAN_POINT('',(11.,-55.2,42.4));
#1612 = DIRECTION('',(0.,0.,-1.));
#1613 = DIRECTION('',(1.,-0.,-0.));
#1614 = ORIENTED_EDGE('',*,*,#1061,.F.);
#1615 = ORIENTED_EDGE('',*,*,#1547,.T.);
#1616 = ORIENTED_EDGE('',*,*,#1617,.F.);
#1617 = EDGE_CURVE('',#1573,#1548,#1618,.T.);
#1618 = LINE('',#1619,#1620);
#1619 = CARTESIAN_POINT('',(-62.,-51.7,42.4));
#1620 = VECTOR('',#1621,1.);
#1621 = DIRECTION('',(-0.,-1.,-0.));
#1622 = PLANE('',#1623);
#1623 = AXIS2_PLACEMENT_3D('',#1624,#1625,#1626);
#1624 = CARTESIAN_POINT('',(-25.,-53.45,42.4));
#1625 = DIRECTION('',(-0.,-0.,1.));
#1626 = DIRECTION('',(-1.,0.,0.));
#1627 = ADVANCED_FACE('',(#1628),#1639,.T.);
#1628 = FACE_BOUND('',#1629,.F.);
#1629 = EDGE_LOOP('',(#1630,#1631,#1637,#1638));
#1630 = ORIENTED_EDGE('',*,*,#1608,.F.);
#1631 = ORIENTED_EDGE('',*,*,#1632,.F.);
#1632 = EDGE_CURVE('',#1373,#1601,#1633,.T.);
#1633 = LINE('',#1634,#1635);
#1634 = CARTESIAN_POINT('',(12.,-55.2,40.));
#1635 = VECTOR('',#1636,1.);
#1636 = DIRECTION('',(-0.,-0.,1.));
#1637 = ORIENTED_EDGE('',*,*,#1385,.T.);
#1638 = ORIENTED_EDGE('',*,*,#1069,.T.);
#1639 = CYLINDRICAL_SURFACE('',#1640,1.);
#1640 = AXIS2_PLACEMENT_3D('',#1641,#1642,#1643);
#1641 = CARTESIAN_POINT('',(11.,-55.2,40.));
#1642 = DIRECTION('',(-0.,-0.,1.));
#1643 = DIRECTION('',(1.,-0.,-0.));
#1644 = ADVANCED_FACE('',(#1645),#1656,.T.);
#1645 = FACE_BOUND('',#1646,.F.);
#1646 = EDGE_LOOP('',(#1647,#1648,#1649,#1650));
#1647 = ORIENTED_EDGE('',*,*,#1323,.F.);
#1648 = ORIENTED_EDGE('',*,*,#1289,.F.);
#1649 = ORIENTED_EDGE('',*,*,#1515,.F.);
#1650 = ORIENTED_EDGE('',*,*,#1651,.T.);
#1651 = EDGE_CURVE('',#1507,#1324,#1652,.T.);
#1652 = LINE('',#1653,#1654);
#1653 = CARTESIAN_POINT('',(-74.84955503059,-49.4725,33.));
#1654 = VECTOR('',#1655,1.);
#1655 = DIRECTION('',(-0.,-0.,1.));
#1656 = CYLINDRICAL_SURFACE('',#1657,1.);
#1657 = AXIS2_PLACEMENT_3D('',#1658,#1659,#1660);
#1658 = CARTESIAN_POINT('',(-74.,-50.,33.));
#1659 = DIRECTION('',(-0.,-0.,1.));
#1660 = DIRECTION('',(1.,-0.,-0.));
#1661 = ADVANCED_FACE('',(#1662),#1668,.F.);
#1662 = FACE_BOUND('',#1663,.F.);
#1663 = EDGE_LOOP('',(#1664,#1665,#1666,#1667));
#1664 = ORIENTED_EDGE('',*,*,#1651,.F.);
#1665 = ORIENTED_EDGE('',*,*,#1506,.T.);
#1666 = ORIENTED_EDGE('',*,*,#1531,.T.);
#1667 = ORIENTED_EDGE('',*,*,#1332,.F.);
#1668 = CYLINDRICAL_SURFACE('',#1669,1.7);
#1669 = AXIS2_PLACEMENT_3D('',#1670,#1671,#1672);
#1670 = CARTESIAN_POINT('',(-74.,-48.,32.8));
#1671 = DIRECTION('',(0.,0.,1.));
#1672 = DIRECTION('',(1.,0.,-0.));
#1673 = ADVANCED_FACE('',(#1674),#1686,.T.);
#1674 = FACE_BOUND('',#1675,.F.);
#1675 = EDGE_LOOP('',(#1676,#1682,#1683,#1684,#1685));
#1676 = ORIENTED_EDGE('',*,*,#1677,.F.);
#1677 = EDGE_CURVE('',#1419,#1592,#1678,.T.);
#1678 = LINE('',#1679,#1680);
#1679 = CARTESIAN_POINT('',(12.,-51.7,40.));
#1680 = VECTOR('',#1681,1.);
#1681 = DIRECTION('',(-0.,-0.,1.));
#1682 = ORIENTED_EDGE('',*,*,#1418,.T.);
#1683 = ORIENTED_EDGE('',*,*,#1372,.T.);
#1684 = ORIENTED_EDGE('',*,*,#1632,.T.);
#1685 = ORIENTED_EDGE('',*,*,#1600,.F.);
#1686 = PLANE('',#1687);
#1687 = AXIS2_PLACEMENT_3D('',#1688,#1689,#1690);
#1688 = CARTESIAN_POINT('',(12.,-51.7,40.));
#1689 = DIRECTION('',(1.,-0.,-0.));
#1690 = DIRECTION('',(0.,0.,-1.));
#1691 = ADVANCED_FACE('',(#1692),#1708,.T.);
#1692 = FACE_BOUND('',#1693,.F.);
#1693 = EDGE_LOOP('',(#1694,#1695,#1701,#1702));
#1694 = ORIENTED_EDGE('',*,*,#1572,.F.);
#1695 = ORIENTED_EDGE('',*,*,#1696,.F.);
#1696 = EDGE_CURVE('',#1401,#1573,#1697,.T.);
#1697 = LINE('',#1698,#1699);
#1698 = CARTESIAN_POINT('',(-62.,-51.7,40.));
#1699 = VECTOR('',#1700,1.);
#1700 = DIRECTION('',(-0.,-0.,1.));
#1701 = ORIENTED_EDGE('',*,*,#1400,.T.);
#1702 = ORIENTED_EDGE('',*,*,#1703,.T.);
#1703 = EDGE_CURVE('',#1403,#1575,#1704,.T.);
#1704 = LINE('',#1705,#1706);
#1705 = CARTESIAN_POINT('',(-61.,-50.7,40.));
#1706 = VECTOR('',#1707,1.);
#1707 = DIRECTION('',(-0.,-0.,1.));
#1708 = CYLINDRICAL_SURFACE('',#1709,1.);
#1709 = AXIS2_PLACEMENT_3D('',#1710,#1711,#1712);
#1710 = CARTESIAN_POINT('',(-61.,-51.7,40.));
#1711 = DIRECTION('',(-0.,-0.,1.));
#1712 = DIRECTION('',(1.,-0.,-0.));
#1713 = ADVANCED_FACE('',(#1714),#1725,.F.);
#1714 = FACE_BOUND('',#1715,.T.);
#1715 = EDGE_LOOP('',(#1716,#1717,#1718,#1719));
#1716 = ORIENTED_EDGE('',*,*,#1435,.F.);
#1717 = ORIENTED_EDGE('',*,*,#1703,.T.);
#1718 = ORIENTED_EDGE('',*,*,#1583,.T.);
#1719 = ORIENTED_EDGE('',*,*,#1720,.F.);
#1720 = EDGE_CURVE('',#1427,#1584,#1721,.T.);
#1721 = LINE('',#1722,#1723);
#1722 = CARTESIAN_POINT('',(11.,-50.7,40.));
#1723 = VECTOR('',#1724,1.);
#1724 = DIRECTION('',(-0.,-0.,1.));
#1725 = PLANE('',#1726);
#1726 = AXIS2_PLACEMENT_3D('',#1727,#1728,#1729);
#1727 = CARTESIAN_POINT('',(-61.,-50.7,40.));
#1728 = DIRECTION('',(-0.,-1.,-0.));
#1729 = DIRECTION('',(0.,0.,-1.));
#1730 = ADVANCED_FACE('',(#1731),#1737,.T.);
#1731 = FACE_BOUND('',#1732,.F.);
#1732 = EDGE_LOOP('',(#1733,#1734,#1735,#1736));
#1733 = ORIENTED_EDGE('',*,*,#1591,.F.);
#1734 = ORIENTED_EDGE('',*,*,#1720,.F.);
#1735 = ORIENTED_EDGE('',*,*,#1426,.T.);
#1736 = ORIENTED_EDGE('',*,*,#1677,.T.);
#1737 = CYLINDRICAL_SURFACE('',#1738,1.);
#1738 = AXIS2_PLACEMENT_3D('',#1739,#1740,#1741);
#1739 = CARTESIAN_POINT('',(11.,-51.7,40.));
#1740 = DIRECTION('',(-0.,-0.,1.));
#1741 = DIRECTION('',(1.,-0.,-0.));
#1742 = ADVANCED_FACE('',(#1743),#1750,.F.);
#1743 = FACE_BOUND('',#1744,.T.);
#1744 = EDGE_LOOP('',(#1745,#1746,#1747,#1748,#1749));
#1745 = ORIENTED_EDGE('',*,*,#1696,.F.);
#1746 = ORIENTED_EDGE('',*,*,#1411,.T.);
#1747 = ORIENTED_EDGE('',*,*,#1458,.T.);
#1748 = ORIENTED_EDGE('',*,*,#1558,.T.);
#1749 = ORIENTED_EDGE('',*,*,#1617,.F.);
#1750 = PLANE('',#1751);
#1751 = AXIS2_PLACEMENT_3D('',#1752,#1753,#1754);
#1752 = CARTESIAN_POINT('',(-62.,-51.7,40.));
#1753 = DIRECTION('',(1.,-0.,-0.));
#1754 = DIRECTION('',(0.,0.,-1.));
#1755 = ( GEOMETRIC_REPRESENTATION_CONTEXT(3) 
GLOBAL_UNCERTAINTY_ASSIGNED_CONTEXT((#1759)) 
GLOBAL_UNIT_ASSIGNED_CONTEXT((#1756,#1757,#1758)) REPRESENTATION_CONTEXT
('Context #1','3D Context with UNIT and UNCERTAINTY') );
#1756 = ( LENGTH_UNIT() NAMED_UNIT(*) SI_UNIT(.MILLI.,.METRE.) );
#1757 = ( NAMED_UNIT(*) PLANE_ANGLE_UNIT() SI_UNIT($,.RADIAN.) );
#1758 = ( NAMED_UNIT(*) SI_UNIT($,.STERADIAN.) SOLID_ANGLE_UNIT() );
#1759 = UNCERTAINTY_MEASURE_WITH_UNIT(LENGTH_MEASURE(1.E-07),#1756,
  'distance_accuracy_value','confusion accuracy');
#1760 = PRODUCT_RELATED_PRODUCT_CATEGORY('part',$,(#7));
ENDSEC;
END-ISO-10303-21;
