ISO-10303-21;
HEADER;
FILE_DESCRIPTION(('FreeCAD Model'),'2;1');
FILE_NAME('Open CASCADE Shape Model','2026-09-28T10:09:18',('FreeCAD'),(
    'FreeCAD'),'Open CASCADE STEP processor 7.8','FreeCAD','Unknown');
FILE_SCHEMA(('AUTOMOTIVE_DESIGN { 1 0 10303 214 1 1 1 1 }'));
ENDSEC;
DATA;
#1 = APPLICATION_PROTOCOL_DEFINITION('international standard',
  'automotive_design',2000,#2);
#2 = APPLICATION_CONTEXT(
  'core data for automotive mechanical design processes');
#3 = SHAPE_DEFINITION_REPRESENTATION(#4,#10);
#4 = PRODUCT_DEFINITION_SHAPE('','',#5);
#5 = PRODUCT_DEFINITION('design','',#6,#9);
#6 = PRODUCT_DEFINITION_FORMATION('','',#7);
#7 = PRODUCT('Open CASCADE STEP translator 7.8 29',
  'Open CASCADE STEP translator 7.8 29','',(#8));
#8 = PRODUCT_CONTEXT('',#2,'mechanical');
#9 = PRODUCT_DEFINITION_CONTEXT('part definition',#2,'design');
#10 = ADVANCED_BREP_SHAPE_REPRESENTATION('',(#11,#15),#1170);
#11 = AXIS2_PLACEMENT_3D('',#12,#13,#14);
#12 = CARTESIAN_POINT('',(0.,0.,0.));
#13 = DIRECTION('',(0.,0.,1.));
#14 = DIRECTION('',(1.,0.,-0.));
#15 = MANIFOLD_SOLID_BREP('',#16);
#16 = CLOSED_SHELL('',(#17,#50,#70,#90,#319,#344,#419,#444,#469,#494,
    #519,#627,#652,#677,#702,#727,#752,#777,#795,#813,#831,#849,#874,
    #898,#923,#948,#972,#997,#1022,#1047,#1059,#1071,#1083,#1095,#1107,
    #1119,#1128,#1137,#1161));
#17 = ADVANCED_FACE('',(#18),#45,.T.);
#18 = FACE_BOUND('',#19,.T.);
#19 = EDGE_LOOP('',(#20,#29,#37,#44));
#20 = ORIENTED_EDGE('',*,*,#21,.F.);
#21 = EDGE_CURVE('',#22,#22,#24,.T.);
#22 = VERTEX_POINT('',#23);
#23 = CARTESIAN_POINT('',(-4.776122516675E-15,75.5,19.5));
#24 = CIRCLE('',#25,19.5);
#25 = AXIS2_PLACEMENT_3D('',#26,#27,#28);
#26 = CARTESIAN_POINT('',(0.,75.5,0.));
#27 = DIRECTION('',(0.,1.,0.));
#28 = DIRECTION('',(0.,-0.,1.));
#29 = ORIENTED_EDGE('',*,*,#30,.F.);
#30 = EDGE_CURVE('',#31,#22,#33,.T.);
#31 = VERTEX_POINT('',#32);
#32 = CARTESIAN_POINT('',(-4.776122516675E-15,72.2,19.5));
#33 = LINE('',#34,#35);
#34 = CARTESIAN_POINT('',(-4.776122516675E-15,72.2,19.5));
#35 = VECTOR('',#36,1.);
#36 = DIRECTION('',(0.,1.,0.));
#37 = ORIENTED_EDGE('',*,*,#38,.T.);
#38 = EDGE_CURVE('',#31,#31,#39,.T.);
#39 = CIRCLE('',#40,19.5);
#40 = AXIS2_PLACEMENT_3D('',#41,#42,#43);
#41 = CARTESIAN_POINT('',(0.,72.2,0.));
#42 = DIRECTION('',(0.,1.,0.));
#43 = DIRECTION('',(0.,-0.,1.));
#44 = ORIENTED_EDGE('',*,*,#30,.T.);
#45 = CYLINDRICAL_SURFACE('',#46,19.5);
#46 = AXIS2_PLACEMENT_3D('',#47,#48,#49);
#47 = CARTESIAN_POINT('',(0.,72.2,0.));
#48 = DIRECTION('',(0.,1.,0.));
#49 = DIRECTION('',(0.,-0.,1.));
#50 = ADVANCED_FACE('',(#51,#62),#65,.F.);
#51 = FACE_BOUND('',#52,.F.);
#52 = EDGE_LOOP('',(#53));
#53 = ORIENTED_EDGE('',*,*,#54,.T.);
#54 = EDGE_CURVE('',#55,#55,#57,.T.);
#55 = VERTEX_POINT('',#56);
#56 = CARTESIAN_POINT('',(-5.265981236334E-15,75.5,21.5));
#57 = CIRCLE('',#58,21.5);
#58 = AXIS2_PLACEMENT_3D('',#59,#60,#61);
#59 = CARTESIAN_POINT('',(0.,75.5,0.));
#60 = DIRECTION('',(0.,1.,0.));
#61 = DIRECTION('',(0.,-0.,1.));
#62 = FACE_BOUND('',#63,.F.);
#63 = EDGE_LOOP('',(#64));
#64 = ORIENTED_EDGE('',*,*,#21,.F.);
#65 = PLANE('',#66);
#66 = AXIS2_PLACEMENT_3D('',#67,#68,#69);
#67 = CARTESIAN_POINT('',(0.,75.5,0.));
#68 = DIRECTION('',(0.,1.,0.));
#69 = DIRECTION('',(0.,-0.,1.));
#70 = ADVANCED_FACE('',(#71,#74),#85,.F.);
#71 = FACE_BOUND('',#72,.F.);
#72 = EDGE_LOOP('',(#73));
#73 = ORIENTED_EDGE('',*,*,#38,.T.);
#74 = FACE_BOUND('',#75,.F.);
#75 = EDGE_LOOP('',(#76));
#76 = ORIENTED_EDGE('',*,*,#77,.F.);
#77 = EDGE_CURVE('',#78,#78,#80,.T.);
#78 = VERTEX_POINT('',#79);
#79 = CARTESIAN_POINT('',(-4.292387031011E-15,72.2,17.525));
#80 = CIRCLE('',#81,17.525);
#81 = AXIS2_PLACEMENT_3D('',#82,#83,#84);
#82 = CARTESIAN_POINT('',(0.,72.2,0.));
#83 = DIRECTION('',(0.,1.,0.));
#84 = DIRECTION('',(0.,-0.,1.));
#85 = PLANE('',#86);
#86 = AXIS2_PLACEMENT_3D('',#87,#88,#89);
#87 = CARTESIAN_POINT('',(0.,72.2,0.));
#88 = DIRECTION('',(0.,1.,0.));
#89 = DIRECTION('',(0.,-0.,1.));
#90 = ADVANCED_FACE('',(#91,#110,#161,#212,#263),#314,.T.);
#91 = FACE_BOUND('',#92,.T.);
#92 = EDGE_LOOP('',(#93,#102,#108,#109));
#93 = ORIENTED_EDGE('',*,*,#94,.F.);
#94 = EDGE_CURVE('',#95,#95,#97,.T.);
#95 = VERTEX_POINT('',#96);
#96 = CARTESIAN_POINT('',(-5.265981236334E-15,82.5,21.5));
#97 = CIRCLE('',#98,21.5);
#98 = AXIS2_PLACEMENT_3D('',#99,#100,#101);
#99 = CARTESIAN_POINT('',(0.,82.5,0.));
#100 = DIRECTION('',(0.,1.,0.));
#101 = DIRECTION('',(0.,-0.,1.));
#102 = ORIENTED_EDGE('',*,*,#103,.F.);
#103 = EDGE_CURVE('',#55,#95,#104,.T.);
#104 = LINE('',#105,#106);
#105 = CARTESIAN_POINT('',(-5.265981236334E-15,75.5,21.5));
#106 = VECTOR('',#107,1.);
#107 = DIRECTION('',(0.,1.,0.));
#108 = ORIENTED_EDGE('',*,*,#54,.T.);
#109 = ORIENTED_EDGE('',*,*,#103,.T.);
#110 = FACE_BOUND('',#111,.T.);
#111 = EDGE_LOOP('',(#112));
#112 = ORIENTED_EDGE('',*,*,#113,.F.);
#113 = EDGE_CURVE('',#114,#114,#116,.T.);
#114 = VERTEX_POINT('',#115);
#115 = CARTESIAN_POINT('',(20.408752699181,79.5,6.762604029785));
#116 = B_SPLINE_CURVE_WITH_KNOTS('',7,(#117,#118,#119,#120,#121,#122,
    #123,#124,#125,#126,#127,#128,#129,#130,#131,#132,#133,#134,#135,
    #136,#137,#138,#139,#140,#141,#142,#143,#144,#145,#146,#147,#148,
    #149,#150,#151,#152,#153,#154,#155,#156,#157,#158,#159,#160),
  .UNSPECIFIED.,.T.,.F.,(8,6,6,6,6,6,6,8),(0.,0.151248163154,
    0.287078104036,0.424387326184,0.587290910761,0.713797290527,
    0.839625340412,1.),.UNSPECIFIED.);
#117 = CARTESIAN_POINT('',(20.408752699181,79.5,6.762604029785));
#118 = CARTESIAN_POINT('',(20.408752699181,79.349789110904,
    6.762604029785));
#119 = CARTESIAN_POINT('',(20.415387642683,79.199500599597,6.74258038072
    ));
#120 = CARTESIAN_POINT('',(20.4286713063,79.051282839031,6.702492661637)
  );
#121 = CARTESIAN_POINT('',(20.448619773252,78.907506484613,
    6.641873827789));
#122 = CARTESIAN_POINT('',(20.475181091343,78.771084963938,6.56005597168
    ));
#123 = CARTESIAN_POINT('',(20.50812521675,78.645776747334,6.456326988811
    ));
#124 = CARTESIAN_POINT('',(20.581755222795,78.439043266163,
    6.217342797194));
#125 = CARTESIAN_POINT('',(20.622211957067,78.351911366583,
    6.083449354101));
#126 = CARTESIAN_POINT('',(20.666966233139,78.284403037827,
    5.931342716067));
#127 = CARTESIAN_POINT('',(20.71383999708,78.242667425631,5.766284909359
    ));
#128 = CARTESIAN_POINT('',(20.760461931444,78.229952389158,
    5.595127627843));
#129 = CARTESIAN_POINT('',(20.804885505314,78.246481051951,
    5.425358896135));
#130 = CARTESIAN_POINT('',(20.886941883302,78.332527057654,
    5.100396767607));
#131 = CARTESIAN_POINT('',(20.923320881402,78.401387523673,4.95003540993
    ));
#132 = CARTESIAN_POINT('',(20.954518597436,78.49083701471,4.815756563252
    ));
#133 = CARTESIAN_POINT('',(20.980649246723,78.596348008176,
    4.699416029073));
#134 = CARTESIAN_POINT('',(21.001961066385,78.71365776609,4.602044238905
    ));
#135 = CARTESIAN_POINT('',(21.018755796261,78.838730790594,
    4.523892396568));
#136 = CARTESIAN_POINT('',(21.04636267502,79.120874914221,4.393839179939
    ));
#137 = CARTESIAN_POINT('',(21.05591652498,79.284064898794,4.34747191762)
  );
#138 = CARTESIAN_POINT('',(21.060141333907,79.452990128627,4.32653210316
    ));
#139 = CARTESIAN_POINT('',(21.059132656311,79.623381847891,
    4.331519627456));
#140 = CARTESIAN_POINT('',(21.052874337512,79.791106921626,
    4.362356932844));
#141 = CARTESIAN_POINT('',(21.041227487181,79.95213040259,4.418548326993
    ));
#142 = CARTESIAN_POINT('',(21.010516431558,80.218725815304,
    4.562051542798));
#143 = CARTESIAN_POINT('',(20.993418760813,80.331010669604,
    4.640876571024));
#144 = CARTESIAN_POINT('',(20.972370808271,80.43579533227,4.736104807894
    ));
#145 = CARTESIAN_POINT('',(20.947150999595,80.529706028102,
    4.847364060918));
#146 = CARTESIAN_POINT('',(20.917600042328,80.609267594377,
    4.973645225723));
#147 = CARTESIAN_POINT('',(20.88368652538,80.670886577619,5.113288733659
    ));
#148 = CARTESIAN_POINT('',(20.807900188215,80.750357689553,
    5.413420058519));
#149 = CARTESIAN_POINT('',(20.766889560784,80.767584278205,
    5.570549447481));
#150 = CARTESIAN_POINT('',(20.723820859342,80.759717370115,
    5.729566543326));
#151 = CARTESIAN_POINT('',(20.680276703813,80.726638751142,5.88427390537
    ));
#152 = CARTESIAN_POINT('',(20.638180329484,80.67068367248,6.028872467458
    ));
#153 = CARTESIAN_POINT('',(20.599372147288,80.596558567475,
    6.158706290727));
#154 = CARTESIAN_POINT('',(20.521447356365,80.402567932002,6.41425053306
    ));
#155 = CARTESIAN_POINT('',(20.484150818977,80.273190230204,
    6.532389847882));
#156 = CARTESIAN_POINT('',(20.454004354262,80.129980984827,
    6.625503896398));
#157 = CARTESIAN_POINT('',(20.431352787608,79.977720464164,
    6.694400859382));
#158 = CARTESIAN_POINT('',(20.41627697728,79.820072244521,6.739896329305
    ));
#159 = CARTESIAN_POINT('',(20.408752699181,79.659962417079,
    6.762604029785));
#160 = CARTESIAN_POINT('',(20.408752699181,79.5,6.762604029785));
#161 = FACE_BOUND('',#162,.T.);
#162 = EDGE_LOOP('',(#163));
#163 = ORIENTED_EDGE('',*,*,#164,.F.);
#164 = EDGE_CURVE('',#165,#165,#167,.T.);
#165 = VERTEX_POINT('',#166);
#166 = CARTESIAN_POINT('',(-20.40875269918,79.5,-6.762604029785));
#167 = B_SPLINE_CURVE_WITH_KNOTS('',7,(#168,#169,#170,#171,#172,#173,
    #174,#175,#176,#177,#178,#179,#180,#181,#182,#183,#184,#185,#186,
    #187,#188,#189,#190,#191,#192,#193,#194,#195,#196,#197,#198,#199,
    #200,#201,#202,#203,#204,#205,#206,#207,#208,#209,#210,#211),
  .UNSPECIFIED.,.T.,.F.,(8,6,6,6,6,6,6,8),(0.,0.151248163155,
    0.287078104036,0.424387326186,0.587290910763,0.713797290528,
    0.839625340413,1.),.UNSPECIFIED.);
#168 = CARTESIAN_POINT('',(-20.40875269918,79.5,-6.762604029785));
#169 = CARTESIAN_POINT('',(-20.40875269918,79.349789110904,
    -6.762604029785));
#170 = CARTESIAN_POINT('',(-20.41538764268,79.199500599597,
    -6.742580380721));
#171 = CARTESIAN_POINT('',(-20.4286713063,79.051282839031,
    -6.702492661636));
#172 = CARTESIAN_POINT('',(-20.44861977325,78.907506484613,
    -6.64187382779));
#173 = CARTESIAN_POINT('',(-20.47518109134,78.771084963938,
    -6.56005597168));
#174 = CARTESIAN_POINT('',(-20.50812521675,78.645776747334,
    -6.456326988811));
#175 = CARTESIAN_POINT('',(-20.58175522279,78.439043266163,
    -6.217342797194));
#176 = CARTESIAN_POINT('',(-20.62221195706,78.351911366583,
    -6.083449354101));
#177 = CARTESIAN_POINT('',(-20.66696623313,78.284403037827,
    -5.931342716067));
#178 = CARTESIAN_POINT('',(-20.71383999708,78.242667425631,
    -5.766284909359));
#179 = CARTESIAN_POINT('',(-20.76046193144,78.229952389158,
    -5.595127627843));
#180 = CARTESIAN_POINT('',(-20.80488550531,78.246481051951,
    -5.425358896135));
#181 = CARTESIAN_POINT('',(-20.8869418833,78.332527057654,
    -5.100396767607));
#182 = CARTESIAN_POINT('',(-20.9233208814,78.401387523673,
    -4.950035409931));
#183 = CARTESIAN_POINT('',(-20.95451859743,78.490837014711,
    -4.815756563251));
#184 = CARTESIAN_POINT('',(-20.98064924672,78.596348008175,
    -4.699416029074));
#185 = CARTESIAN_POINT('',(-21.00196106638,78.71365776609,
    -4.602044238904));
#186 = CARTESIAN_POINT('',(-21.01875579626,78.838730790594,
    -4.523892396568));
#187 = CARTESIAN_POINT('',(-21.04636267502,79.120874914221,
    -4.393839179939));
#188 = CARTESIAN_POINT('',(-21.05591652498,79.284064898794,
    -4.34747191762));
#189 = CARTESIAN_POINT('',(-21.0601413339,79.452990128627,-4.32653210316
    ));
#190 = CARTESIAN_POINT('',(-21.05913265631,79.623381847892,
    -4.331519627456));
#191 = CARTESIAN_POINT('',(-21.05287433751,79.791106921625,
    -4.362356932844));
#192 = CARTESIAN_POINT('',(-21.04122748718,79.952130402589,
    -4.418548326992));
#193 = CARTESIAN_POINT('',(-21.01051643155,80.218725815304,
    -4.562051542798));
#194 = CARTESIAN_POINT('',(-20.99341876081,80.331010669605,
    -4.640876571025));
#195 = CARTESIAN_POINT('',(-20.97237080827,80.435795332269,
    -4.736104807893));
#196 = CARTESIAN_POINT('',(-20.94715099959,80.529706028103,
    -4.84736406092));
#197 = CARTESIAN_POINT('',(-20.91760004232,80.609267594376,
    -4.973645225722));
#198 = CARTESIAN_POINT('',(-20.88368652538,80.670886577619,
    -5.113288733659));
#199 = CARTESIAN_POINT('',(-20.80790018821,80.750357689553,
    -5.413420058518));
#200 = CARTESIAN_POINT('',(-20.76688956078,80.767584278205,
    -5.570549447481));
#201 = CARTESIAN_POINT('',(-20.72382085934,80.759717370115,
    -5.729566543326));
#202 = CARTESIAN_POINT('',(-20.68027670381,80.726638751143,
    -5.88427390537));
#203 = CARTESIAN_POINT('',(-20.63818032948,80.67068367248,
    -6.028872467458));
#204 = CARTESIAN_POINT('',(-20.59937214728,80.596558567475,
    -6.158706290727));
#205 = CARTESIAN_POINT('',(-20.52144735636,80.402567932002,
    -6.41425053306));
#206 = CARTESIAN_POINT('',(-20.48415081897,80.273190230204,
    -6.532389847882));
#207 = CARTESIAN_POINT('',(-20.45400435426,80.129980984827,
    -6.625503896398));
#208 = CARTESIAN_POINT('',(-20.4313527876,79.977720464164,
    -6.694400859383));
#209 = CARTESIAN_POINT('',(-20.41627697728,79.820072244521,
    -6.739896329305));
#210 = CARTESIAN_POINT('',(-20.40875269918,79.659962417079,
    -6.762604029785));
#211 = CARTESIAN_POINT('',(-20.40875269918,79.5,-6.762604029785));
#212 = FACE_BOUND('',#213,.T.);
#213 = EDGE_LOOP('',(#214));
#214 = ORIENTED_EDGE('',*,*,#215,.F.);
#215 = EDGE_CURVE('',#216,#216,#218,.T.);
#216 = VERTEX_POINT('',#217);
#217 = CARTESIAN_POINT('',(4.347789464062,79.5,-21.05580031193));
#218 = B_SPLINE_CURVE_WITH_KNOTS('',7,(#219,#220,#221,#222,#223,#224,
    #225,#226,#227,#228,#229,#230,#231,#232,#233,#234,#235,#236,#237,
    #238,#239,#240,#241,#242,#243,#244,#245,#246,#247,#248,#249,#250,
    #251,#252,#253,#254,#255,#256,#257,#258,#259,#260,#261,#262),
  .UNSPECIFIED.,.T.,.F.,(8,6,6,6,6,6,6,8),(0.,0.151248163155,
    0.287078104037,0.424387326186,0.587290910762,0.713797290528,
    0.839625340413,1.),.UNSPECIFIED.);
#219 = CARTESIAN_POINT('',(4.347789464062,79.5,-21.05580031193));
#220 = CARTESIAN_POINT('',(4.347789464062,79.650210889096,
    -21.05580031193));
#221 = CARTESIAN_POINT('',(4.368447924579,79.800499400403,
    -21.05153451703));
#222 = CARTESIAN_POINT('',(4.409806739494,79.94871716097,-21.04299464763
    ));
#223 = CARTESIAN_POINT('',(4.472278423029,80.092493515387,
    -21.02996110986));
#224 = CARTESIAN_POINT('',(4.556415423949,80.228915036062,
    -21.01205495803));
#225 = CARTESIAN_POINT('',(4.662719420926,80.354223252666,-20.9887209161
    ));
#226 = CARTESIAN_POINT('',(4.906500804992,80.560956733837,
    -20.93299427601));
#227 = CARTESIAN_POINT('',(5.042684295246,80.648088633417,
    -20.90108411409));
#228 = CARTESIAN_POINT('',(5.196789645904,80.715596962173,
    -20.86378913508));
#229 = CARTESIAN_POINT('',(5.363170781577,80.757332574369,
    -20.82185410207));
#230 = CARTESIAN_POINT('',(5.534708302594,80.770047610842,
    -20.77665124085));
#231 = CARTESIAN_POINT('',(5.703944123956,80.753518948049,
    -20.73023881849));
#232 = CARTESIAN_POINT('',(6.026397771523,80.667472942346,
    -20.63882066211));
#233 = CARTESIAN_POINT('',(6.174804026069,80.598612476327,
    -20.59514511979));
#234 = CARTESIAN_POINT('',(6.3066917765,80.50916298529,-20.55502371107)
  );
#235 = CARTESIAN_POINT('',(6.420510959232,80.403651991824,
    -20.51948325009));
#236 = CARTESIAN_POINT('',(6.515493312961,80.286342233911,
    -20.48925393223));
#237 = CARTESIAN_POINT('',(6.591572158715,80.161269209406,
    -20.46472267378));
#238 = CARTESIAN_POINT('',(6.718004987539,79.87912508578,-20.42360432379
    ));
#239 = CARTESIAN_POINT('',(6.762937139591,79.715935101207,-20.4086945694
    ));
#240 = CARTESIAN_POINT('',(6.783183955328,79.547009871372,
    -20.40188345403));
#241 = CARTESIAN_POINT('',(6.778360293788,79.376618152108,
    -20.40350367576));
#242 = CARTESIAN_POINT('',(6.748525244537,79.208893078373,
    -20.41350246538));
#243 = CARTESIAN_POINT('',(6.694038644566,79.04786959741,-20.4315116942)
  );
#244 = CARTESIAN_POINT('',(6.554405686342,78.781274184696,
    -20.47666674775));
#245 = CARTESIAN_POINT('',(6.477592374072,78.668989330396,
    -20.50127224466));
#246 = CARTESIAN_POINT('',(6.384598325514,78.56420466773,-20.53065830149
    ));
#247 = CARTESIAN_POINT('',(6.275635081651,78.470293971898,
    -20.56444693301));
#248 = CARTESIAN_POINT('',(6.151496906277,78.390732405623,
    -20.60199563572));
#249 = CARTESIAN_POINT('',(6.013605322457,78.329113422381,
    -20.64244742247));
#250 = CARTESIAN_POINT('',(5.715790802074,78.249642310447,
    -20.72688019166));
#251 = CARTESIAN_POINT('',(5.559207445836,78.232415721795,
    -20.76992864096));
#252 = CARTESIAN_POINT('',(5.399960250477,78.240282629885,
    -20.81213859933));
#253 = CARTESIAN_POINT('',(5.24420766703,78.273361248857,-20.85178193547
    ));
#254 = CARTESIAN_POINT('',(5.097933451747,78.32931632752,-20.88762468694
    ));
#255 = CARTESIAN_POINT('',(4.966089971428,78.403441432525,
    -20.91893272692));
#256 = CARTESIAN_POINT('',(4.705819770315,78.597432067998,
    -20.97921999956));
#257 = CARTESIAN_POINT('',(4.584859853799,78.726809769795,
    -21.00598990812));
#258 = CARTESIAN_POINT('',(4.489147489977,78.870019015174,-21.0264393281
    ));
#259 = CARTESIAN_POINT('',(4.418155186463,79.022279535835,
    -21.04127097744));
#260 = CARTESIAN_POINT('',(4.371217048589,79.17992775548,-21.05096267767
    ));
#261 = CARTESIAN_POINT('',(4.347789464062,79.340037582921,
    -21.05580031193));
#262 = CARTESIAN_POINT('',(4.347789464062,79.5,-21.05580031193));
#263 = FACE_BOUND('',#264,.T.);
#264 = EDGE_LOOP('',(#265));
#265 = ORIENTED_EDGE('',*,*,#266,.F.);
#266 = EDGE_CURVE('',#267,#267,#269,.T.);
#267 = VERTEX_POINT('',#268);
#268 = CARTESIAN_POINT('',(-4.347789464062,79.5,21.055800311938));
#269 = B_SPLINE_CURVE_WITH_KNOTS('',7,(#270,#271,#272,#273,#274,#275,
    #276,#277,#278,#279,#280,#281,#282,#283,#284,#285,#286,#287,#288,
    #289,#290,#291,#292,#293,#294,#295,#296,#297,#298,#299,#300,#301,
    #302,#303,#304,#305,#306,#307,#308,#309,#310,#311,#312,#313),
  .UNSPECIFIED.,.T.,.F.,(8,6,6,6,6,6,6,8),(0.,0.151248163153,
    0.287078104034,0.424387326182,0.587290910757,0.713797290524,
    0.83962534041,1.),.UNSPECIFIED.);
#270 = CARTESIAN_POINT('',(-4.347789464062,79.5,21.055800311938));
#271 = CARTESIAN_POINT('',(-4.347789464062,79.650210889096,
    21.055800311938));
#272 = CARTESIAN_POINT('',(-4.368447924579,79.800499400404,
    21.051534517031));
#273 = CARTESIAN_POINT('',(-4.409806739494,79.948717160969,
    21.042994647637));
#274 = CARTESIAN_POINT('',(-4.472278423029,80.092493515387,
    21.02996110986));
#275 = CARTESIAN_POINT('',(-4.556415423949,80.228915036062,
    21.01205495803));
#276 = CARTESIAN_POINT('',(-4.662719420926,80.354223252666,
    20.988720916104));
#277 = CARTESIAN_POINT('',(-4.906500804992,80.560956733837,
    20.932994276011));
#278 = CARTESIAN_POINT('',(-5.042684295246,80.648088633417,
    20.901084114098));
#279 = CARTESIAN_POINT('',(-5.196789645904,80.715596962173,
    20.863789135087));
#280 = CARTESIAN_POINT('',(-5.363170781577,80.757332574368,
    20.821854102077));
#281 = CARTESIAN_POINT('',(-5.534708302594,80.770047610843,
    20.776651240852));
#282 = CARTESIAN_POINT('',(-5.703944123956,80.753518948049,
    20.730238818496));
#283 = CARTESIAN_POINT('',(-6.026397771523,80.667472942346,
    20.638820662112));
#284 = CARTESIAN_POINT('',(-6.174804026069,80.598612476327,
    20.595145119793));
#285 = CARTESIAN_POINT('',(-6.3066917765,80.50916298529,20.555023711079)
  );
#286 = CARTESIAN_POINT('',(-6.420510959232,80.403651991824,
    20.51948325009));
#287 = CARTESIAN_POINT('',(-6.515493312962,80.28634223391,
    20.489253932234));
#288 = CARTESIAN_POINT('',(-6.591572158715,80.161269209406,
    20.464722673787));
#289 = CARTESIAN_POINT('',(-6.718004987539,79.87912508578,
    20.423604323798));
#290 = CARTESIAN_POINT('',(-6.76293713959,79.715935101209,
    20.408694569407));
#291 = CARTESIAN_POINT('',(-6.783183955329,79.547009871374,
    20.401883454034));
#292 = CARTESIAN_POINT('',(-6.778360293789,79.376618152109,
    20.40350367576));
#293 = CARTESIAN_POINT('',(-6.748525244538,79.208893078371,
    20.41350246539));
#294 = CARTESIAN_POINT('',(-6.694038644564,79.047869597406,
    20.431511694203));
#295 = CARTESIAN_POINT('',(-6.554405686342,78.781274184696,
    20.476666747759));
#296 = CARTESIAN_POINT('',(-6.477592374071,78.668989330396,
    20.501272244661));
#297 = CARTESIAN_POINT('',(-6.384598325514,78.564204667731,
    20.530658301497));
#298 = CARTESIAN_POINT('',(-6.27563508165,78.470293971898,
    20.564446933017));
#299 = CARTESIAN_POINT('',(-6.151496906277,78.390732405623,
    20.601995635719));
#300 = CARTESIAN_POINT('',(-6.013605322457,78.329113422381,
    20.642447422479));
#301 = CARTESIAN_POINT('',(-5.715790802074,78.249642310447,
    20.726880191664));
#302 = CARTESIAN_POINT('',(-5.559207445836,78.232415721795,
    20.769928640966));
#303 = CARTESIAN_POINT('',(-5.399960250477,78.240282629885,
    20.812138599331));
#304 = CARTESIAN_POINT('',(-5.24420766703,78.273361248857,
    20.851781935478));
#305 = CARTESIAN_POINT('',(-5.097933451747,78.32931632752,
    20.887624686947));
#306 = CARTESIAN_POINT('',(-4.966089971428,78.403441432525,
    20.918932726925));
#307 = CARTESIAN_POINT('',(-4.705819770315,78.597432067998,
    20.979219999567));
#308 = CARTESIAN_POINT('',(-4.584859853799,78.726809769796,
    21.005989908126));
#309 = CARTESIAN_POINT('',(-4.489147489977,78.870019015174,
    21.026439328107));
#310 = CARTESIAN_POINT('',(-4.418155186463,79.022279535835,
    21.041270977441));
#311 = CARTESIAN_POINT('',(-4.371217048589,79.17992775548,
    21.050962677677));
#312 = CARTESIAN_POINT('',(-4.347789464062,79.340037582921,
    21.055800311938));
#313 = CARTESIAN_POINT('',(-4.347789464062,79.5,21.055800311938));
#314 = CYLINDRICAL_SURFACE('',#315,21.5);
#315 = AXIS2_PLACEMENT_3D('',#316,#317,#318);
#316 = CARTESIAN_POINT('',(0.,75.5,0.));
#317 = DIRECTION('',(0.,1.,0.));
#318 = DIRECTION('',(0.,-0.,1.));
#319 = ADVANCED_FACE('',(#320),#339,.F.);
#320 = FACE_BOUND('',#321,.F.);
#321 = EDGE_LOOP('',(#322,#330,#337,#338));
#322 = ORIENTED_EDGE('',*,*,#323,.T.);
#323 = EDGE_CURVE('',#78,#324,#326,.T.);
#324 = VERTEX_POINT('',#325);
#325 = CARTESIAN_POINT('',(-4.292387031011E-15,73.,17.525));
#326 = LINE('',#327,#328);
#327 = CARTESIAN_POINT('',(-4.292387031011E-15,72.1,17.525));
#328 = VECTOR('',#329,1.);
#329 = DIRECTION('',(0.,1.,0.));
#330 = ORIENTED_EDGE('',*,*,#331,.F.);
#331 = EDGE_CURVE('',#324,#324,#332,.T.);
#332 = CIRCLE('',#333,17.525);
#333 = AXIS2_PLACEMENT_3D('',#334,#335,#336);
#334 = CARTESIAN_POINT('',(0.,73.,0.));
#335 = DIRECTION('',(0.,1.,0.));
#336 = DIRECTION('',(0.,-0.,1.));
#337 = ORIENTED_EDGE('',*,*,#323,.F.);
#338 = ORIENTED_EDGE('',*,*,#77,.T.);
#339 = CYLINDRICAL_SURFACE('',#340,17.525);
#340 = AXIS2_PLACEMENT_3D('',#341,#342,#343);
#341 = CARTESIAN_POINT('',(0.,72.1,0.));
#342 = DIRECTION('',(0.,1.,0.));
#343 = DIRECTION('',(0.,-0.,1.));
#344 = ADVANCED_FACE('',(#345,#348,#359,#370,#381,#392,#403),#414,.T.);
#345 = FACE_BOUND('',#346,.T.);
#346 = EDGE_LOOP('',(#347));
#347 = ORIENTED_EDGE('',*,*,#94,.T.);
#348 = FACE_BOUND('',#349,.T.);
#349 = EDGE_LOOP('',(#350));
#350 = ORIENTED_EDGE('',*,*,#351,.F.);
#351 = EDGE_CURVE('',#352,#352,#354,.T.);
#352 = VERTEX_POINT('',#353);
#353 = CARTESIAN_POINT('',(-6.75,82.5,-8.79134295109));
#354 = CIRCLE('',#355,2.9);
#355 = AXIS2_PLACEMENT_3D('',#356,#357,#358);
#356 = CARTESIAN_POINT('',(-6.75,82.5,-11.69134295109));
#357 = DIRECTION('',(0.,1.,0.));
#358 = DIRECTION('',(0.,-0.,1.));
#359 = FACE_BOUND('',#360,.T.);
#360 = EDGE_LOOP('',(#361));
#361 = ORIENTED_EDGE('',*,*,#362,.F.);
#362 = EDGE_CURVE('',#363,#363,#365,.T.);
#363 = VERTEX_POINT('',#364);
#364 = CARTESIAN_POINT('',(-13.5,82.5,2.9));
#365 = CIRCLE('',#366,2.9);
#366 = AXIS2_PLACEMENT_3D('',#367,#368,#369);
#367 = CARTESIAN_POINT('',(-13.5,82.5,1.653273178849E-15));
#368 = DIRECTION('',(0.,1.,0.));
#369 = DIRECTION('',(0.,-0.,1.));
#370 = FACE_BOUND('',#371,.T.);
#371 = EDGE_LOOP('',(#372));
#372 = ORIENTED_EDGE('',*,*,#373,.F.);
#373 = EDGE_CURVE('',#374,#374,#376,.T.);
#374 = VERTEX_POINT('',#375);
#375 = CARTESIAN_POINT('',(-6.75,82.5,14.59134295109));
#376 = CIRCLE('',#377,2.9);
#377 = AXIS2_PLACEMENT_3D('',#378,#379,#380);
#378 = CARTESIAN_POINT('',(-6.75,82.5,11.69134295109));
#379 = DIRECTION('',(0.,1.,0.));
#380 = DIRECTION('',(0.,-0.,1.));
#381 = FACE_BOUND('',#382,.T.);
#382 = EDGE_LOOP('',(#383));
#383 = ORIENTED_EDGE('',*,*,#384,.F.);
#384 = EDGE_CURVE('',#385,#385,#387,.T.);
#385 = VERTEX_POINT('',#386);
#386 = CARTESIAN_POINT('',(6.75,82.5,-8.79134295109));
#387 = CIRCLE('',#388,2.9);
#388 = AXIS2_PLACEMENT_3D('',#389,#390,#391);
#389 = CARTESIAN_POINT('',(6.75,82.5,-11.69134295109));
#390 = DIRECTION('',(0.,1.,0.));
#391 = DIRECTION('',(0.,-0.,1.));
#392 = FACE_BOUND('',#393,.T.);
#393 = EDGE_LOOP('',(#394));
#394 = ORIENTED_EDGE('',*,*,#395,.F.);
#395 = EDGE_CURVE('',#396,#396,#398,.T.);
#396 = VERTEX_POINT('',#397);
#397 = CARTESIAN_POINT('',(6.75,82.5,14.59134295109));
#398 = CIRCLE('',#399,2.9);
#399 = AXIS2_PLACEMENT_3D('',#400,#401,#402);
#400 = CARTESIAN_POINT('',(6.75,82.5,11.69134295109));
#401 = DIRECTION('',(0.,1.,0.));
#402 = DIRECTION('',(0.,-0.,1.));
#403 = FACE_BOUND('',#404,.T.);
#404 = EDGE_LOOP('',(#405));
#405 = ORIENTED_EDGE('',*,*,#406,.F.);
#406 = EDGE_CURVE('',#407,#407,#409,.T.);
#407 = VERTEX_POINT('',#408);
#408 = CARTESIAN_POINT('',(13.5,82.5,2.9));
#409 = CIRCLE('',#410,2.9);
#410 = AXIS2_PLACEMENT_3D('',#411,#412,#413);
#411 = CARTESIAN_POINT('',(13.5,82.5,0.));
#412 = DIRECTION('',(0.,1.,0.));
#413 = DIRECTION('',(0.,-0.,1.));
#414 = PLANE('',#415);
#415 = AXIS2_PLACEMENT_3D('',#416,#417,#418);
#416 = CARTESIAN_POINT('',(0.,82.5,0.));
#417 = DIRECTION('',(0.,1.,0.));
#418 = DIRECTION('',(0.,-0.,1.));
#419 = ADVANCED_FACE('',(#420),#439,.F.);
#420 = FACE_BOUND('',#421,.F.);
#421 = EDGE_LOOP('',(#422,#423,#431,#438));
#422 = ORIENTED_EDGE('',*,*,#113,.F.);
#423 = ORIENTED_EDGE('',*,*,#424,.F.);
#424 = EDGE_CURVE('',#425,#114,#427,.T.);
#425 = VERTEX_POINT('',#426);
#426 = CARTESIAN_POINT('',(16.097215240536,79.5,5.607331049604));
#427 = LINE('',#428,#429);
#428 = CARTESIAN_POINT('',(16.097215240536,79.5,5.607331049604));
#429 = VECTOR('',#430,1.);
#430 = DIRECTION('',(0.965925826289,-2.9722835542E-33,0.258819045103));
#431 = ORIENTED_EDGE('',*,*,#432,.T.);
#432 = EDGE_CURVE('',#425,#425,#433,.T.);
#433 = CIRCLE('',#434,1.25);
#434 = AXIS2_PLACEMENT_3D('',#435,#436,#437);
#435 = CARTESIAN_POINT('',(16.420739046914,79.5,4.399923766743));
#436 = DIRECTION('',(0.965925826289,0.,0.258819045103));
#437 = DIRECTION('',(-0.258819045103,0.,0.965925826289));
#438 = ORIENTED_EDGE('',*,*,#424,.T.);
#439 = CYLINDRICAL_SURFACE('',#440,1.25);
#440 = AXIS2_PLACEMENT_3D('',#441,#442,#443);
#441 = CARTESIAN_POINT('',(16.420739046914,79.5,4.399923766743));
#442 = DIRECTION('',(0.965925826289,0.,0.258819045103));
#443 = DIRECTION('',(-0.258819045103,0.,0.965925826289));
#444 = ADVANCED_FACE('',(#445),#464,.F.);
#445 = FACE_BOUND('',#446,.F.);
#446 = EDGE_LOOP('',(#447,#448,#456,#463));
#447 = ORIENTED_EDGE('',*,*,#164,.F.);
#448 = ORIENTED_EDGE('',*,*,#449,.F.);
#449 = EDGE_CURVE('',#450,#165,#452,.T.);
#450 = VERTEX_POINT('',#451);
#451 = CARTESIAN_POINT('',(-16.09721524053,79.5,-5.607331049604));
#452 = LINE('',#453,#454);
#453 = CARTESIAN_POINT('',(-16.09721524053,79.5,-5.607331049604));
#454 = VECTOR('',#455,1.);
#455 = DIRECTION('',(-0.965925826289,-2.165207517603E-33,-0.258819045103
    ));
#456 = ORIENTED_EDGE('',*,*,#457,.T.);
#457 = EDGE_CURVE('',#450,#450,#458,.T.);
#458 = CIRCLE('',#459,1.25);
#459 = AXIS2_PLACEMENT_3D('',#460,#461,#462);
#460 = CARTESIAN_POINT('',(-16.42073904691,79.5,-4.399923766743));
#461 = DIRECTION('',(-0.965925826289,0.,-0.258819045103));
#462 = DIRECTION('',(0.258819045103,0.,-0.965925826289));
#463 = ORIENTED_EDGE('',*,*,#449,.T.);
#464 = CYLINDRICAL_SURFACE('',#465,1.25);
#465 = AXIS2_PLACEMENT_3D('',#466,#467,#468);
#466 = CARTESIAN_POINT('',(-16.42073904691,79.5,-4.399923766743));
#467 = DIRECTION('',(-0.965925826289,0.,-0.258819045103));
#468 = DIRECTION('',(0.258819045103,0.,-0.965925826289));
#469 = ADVANCED_FACE('',(#470),#489,.F.);
#470 = FACE_BOUND('',#471,.F.);
#471 = EDGE_LOOP('',(#472,#473,#481,#488));
#472 = ORIENTED_EDGE('',*,*,#215,.F.);
#473 = ORIENTED_EDGE('',*,*,#474,.F.);
#474 = EDGE_CURVE('',#475,#216,#477,.T.);
#475 = VERTEX_POINT('',#476);
#476 = CARTESIAN_POINT('',(3.192516483882,79.5,-16.74426285329));
#477 = LINE('',#478,#479);
#478 = CARTESIAN_POINT('',(3.192516483882,79.5,-16.74426285329));
#479 = VECTOR('',#480,1.);
#480 = DIRECTION('',(0.258819045103,-1.229901607214E-32,-0.965925826289)
  );
#481 = ORIENTED_EDGE('',*,*,#482,.T.);
#482 = EDGE_CURVE('',#475,#475,#483,.T.);
#483 = CIRCLE('',#484,1.25);
#484 = AXIS2_PLACEMENT_3D('',#485,#486,#487);
#485 = CARTESIAN_POINT('',(4.399923766743,79.5,-16.42073904691));
#486 = DIRECTION('',(0.258819045103,0.,-0.965925826289));
#487 = DIRECTION('',(-0.965925826289,0.,-0.258819045103));
#488 = ORIENTED_EDGE('',*,*,#474,.T.);
#489 = CYLINDRICAL_SURFACE('',#490,1.25);
#490 = AXIS2_PLACEMENT_3D('',#491,#492,#493);
#491 = CARTESIAN_POINT('',(4.399923766743,79.5,-16.42073904691));
#492 = DIRECTION('',(0.258819045103,0.,-0.965925826289));
#493 = DIRECTION('',(-0.965925826289,0.,-0.258819045103));
#494 = ADVANCED_FACE('',(#495),#514,.F.);
#495 = FACE_BOUND('',#496,.F.);
#496 = EDGE_LOOP('',(#497,#498,#506,#513));
#497 = ORIENTED_EDGE('',*,*,#266,.F.);
#498 = ORIENTED_EDGE('',*,*,#499,.F.);
#499 = EDGE_CURVE('',#500,#267,#502,.T.);
#500 = VERTEX_POINT('',#501);
#501 = CARTESIAN_POINT('',(-3.192516483882,79.5,16.744262853292));
#502 = LINE('',#503,#504);
#503 = CARTESIAN_POINT('',(-3.192516483882,79.5,16.744262853292));
#504 = VECTOR('',#505,1.);
#505 = DIRECTION('',(-0.258819045103,-6.410849575098E-34,0.965925826289)
  );
#506 = ORIENTED_EDGE('',*,*,#507,.T.);
#507 = EDGE_CURVE('',#500,#500,#508,.T.);
#508 = CIRCLE('',#509,1.25);
#509 = AXIS2_PLACEMENT_3D('',#510,#511,#512);
#510 = CARTESIAN_POINT('',(-4.399923766743,79.5,16.420739046914));
#511 = DIRECTION('',(-0.258819045103,0.,0.965925826289));
#512 = DIRECTION('',(0.965925826289,0.,0.258819045103));
#513 = ORIENTED_EDGE('',*,*,#499,.T.);
#514 = CYLINDRICAL_SURFACE('',#515,1.25);
#515 = AXIS2_PLACEMENT_3D('',#516,#517,#518);
#516 = CARTESIAN_POINT('',(-4.399923766743,79.5,16.420739046914));
#517 = DIRECTION('',(-0.258819045103,0.,0.965925826289));
#518 = DIRECTION('',(0.965925826289,0.,0.258819045103));
#519 = ADVANCED_FACE('',(#520,#523,#534,#545,#556,#567,#578,#589,#600,
    #611),#622,.F.);
#520 = FACE_BOUND('',#521,.F.);
#521 = EDGE_LOOP('',(#522));
#522 = ORIENTED_EDGE('',*,*,#331,.T.);
#523 = FACE_BOUND('',#524,.F.);
#524 = EDGE_LOOP('',(#525));
#525 = ORIENTED_EDGE('',*,*,#526,.F.);
#526 = EDGE_CURVE('',#527,#527,#529,.T.);
#527 = VERTEX_POINT('',#528);
#528 = CARTESIAN_POINT('',(-13.5,73.,1.7));
#529 = CIRCLE('',#530,1.7);
#530 = AXIS2_PLACEMENT_3D('',#531,#532,#533);
#531 = CARTESIAN_POINT('',(-13.5,73.,1.653273178849E-15));
#532 = DIRECTION('',(0.,1.,0.));
#533 = DIRECTION('',(0.,-0.,1.));
#534 = FACE_BOUND('',#535,.F.);
#535 = EDGE_LOOP('',(#536));
#536 = ORIENTED_EDGE('',*,*,#537,.F.);
#537 = EDGE_CURVE('',#538,#538,#540,.T.);
#538 = VERTEX_POINT('',#539);
#539 = CARTESIAN_POINT('',(-10.52220865598,73.,-4.075));
#540 = CIRCLE('',#541,2.);
#541 = AXIS2_PLACEMENT_3D('',#542,#543,#544);
#542 = CARTESIAN_POINT('',(-10.52220865598,73.,-6.075));
#543 = DIRECTION('',(0.,1.,0.));
#544 = DIRECTION('',(0.,-0.,1.));
#545 = FACE_BOUND('',#546,.F.);
#546 = EDGE_LOOP('',(#547));
#547 = ORIENTED_EDGE('',*,*,#548,.F.);
#548 = EDGE_CURVE('',#549,#549,#551,.T.);
#549 = VERTEX_POINT('',#550);
#550 = CARTESIAN_POINT('',(-6.75,73.,-9.99134295109));
#551 = CIRCLE('',#552,1.7);
#552 = AXIS2_PLACEMENT_3D('',#553,#554,#555);
#553 = CARTESIAN_POINT('',(-6.75,73.,-11.69134295109));
#554 = DIRECTION('',(0.,1.,0.));
#555 = DIRECTION('',(0.,-0.,1.));
#556 = FACE_BOUND('',#557,.F.);
#557 = EDGE_LOOP('',(#558));
#558 = ORIENTED_EDGE('',*,*,#559,.F.);
#559 = EDGE_CURVE('',#560,#560,#562,.T.);
#560 = VERTEX_POINT('',#561);
#561 = CARTESIAN_POINT('',(-6.75,73.,13.39134295109));
#562 = CIRCLE('',#563,1.7);
#563 = AXIS2_PLACEMENT_3D('',#564,#565,#566);
#564 = CARTESIAN_POINT('',(-6.75,73.,11.69134295109));
#565 = DIRECTION('',(0.,1.,0.));
#566 = DIRECTION('',(0.,-0.,1.));
#567 = FACE_BOUND('',#568,.F.);
#568 = EDGE_LOOP('',(#569));
#569 = ORIENTED_EDGE('',*,*,#570,.F.);
#570 = EDGE_CURVE('',#571,#571,#573,.T.);
#571 = VERTEX_POINT('',#572);
#572 = CARTESIAN_POINT('',(2.541142108231E-16,73.,14.15));
#573 = CIRCLE('',#574,2.);
#574 = AXIS2_PLACEMENT_3D('',#575,#576,#577);
#575 = CARTESIAN_POINT('',(7.43972930482E-16,73.,12.15));
#576 = DIRECTION('',(0.,1.,0.));
#577 = DIRECTION('',(0.,-0.,1.));
#578 = FACE_BOUND('',#579,.F.);
#579 = EDGE_LOOP('',(#580));
#580 = ORIENTED_EDGE('',*,*,#581,.F.);
#581 = EDGE_CURVE('',#582,#582,#584,.T.);
#582 = VERTEX_POINT('',#583);
#583 = CARTESIAN_POINT('',(6.75,73.,-9.99134295109));
#584 = CIRCLE('',#585,1.7);
#585 = AXIS2_PLACEMENT_3D('',#586,#587,#588);
#586 = CARTESIAN_POINT('',(6.75,73.,-11.69134295109));
#587 = DIRECTION('',(0.,1.,0.));
#588 = DIRECTION('',(0.,-0.,1.));
#589 = FACE_BOUND('',#590,.F.);
#590 = EDGE_LOOP('',(#591));
#591 = ORIENTED_EDGE('',*,*,#592,.F.);
#592 = EDGE_CURVE('',#593,#593,#595,.T.);
#593 = VERTEX_POINT('',#594);
#594 = CARTESIAN_POINT('',(10.522208655981,73.,-4.075));
#595 = CIRCLE('',#596,2.);
#596 = AXIS2_PLACEMENT_3D('',#597,#598,#599);
#597 = CARTESIAN_POINT('',(10.522208655981,73.,-6.075));
#598 = DIRECTION('',(0.,1.,0.));
#599 = DIRECTION('',(0.,-0.,1.));
#600 = FACE_BOUND('',#601,.F.);
#601 = EDGE_LOOP('',(#602));
#602 = ORIENTED_EDGE('',*,*,#603,.F.);
#603 = EDGE_CURVE('',#604,#604,#606,.T.);
#604 = VERTEX_POINT('',#605);
#605 = CARTESIAN_POINT('',(13.5,73.,1.7));
#606 = CIRCLE('',#607,1.7);
#607 = AXIS2_PLACEMENT_3D('',#608,#609,#610);
#608 = CARTESIAN_POINT('',(13.5,73.,0.));
#609 = DIRECTION('',(0.,1.,0.));
#610 = DIRECTION('',(0.,-0.,1.));
#611 = FACE_BOUND('',#612,.F.);
#612 = EDGE_LOOP('',(#613));
#613 = ORIENTED_EDGE('',*,*,#614,.F.);
#614 = EDGE_CURVE('',#615,#615,#617,.T.);
#615 = VERTEX_POINT('',#616);
#616 = CARTESIAN_POINT('',(6.75,73.,13.39134295109));
#617 = CIRCLE('',#618,1.7);
#618 = AXIS2_PLACEMENT_3D('',#619,#620,#621);
#619 = CARTESIAN_POINT('',(6.75,73.,11.69134295109));
#620 = DIRECTION('',(0.,1.,0.));
#621 = DIRECTION('',(0.,-0.,1.));
#622 = PLANE('',#623);
#623 = AXIS2_PLACEMENT_3D('',#624,#625,#626);
#624 = CARTESIAN_POINT('',(0.,73.,0.));
#625 = DIRECTION('',(0.,1.,0.));
#626 = DIRECTION('',(0.,-0.,1.));
#627 = ADVANCED_FACE('',(#628),#647,.F.);
#628 = FACE_BOUND('',#629,.F.);
#629 = EDGE_LOOP('',(#630,#631,#639,#646));
#630 = ORIENTED_EDGE('',*,*,#351,.F.);
#631 = ORIENTED_EDGE('',*,*,#632,.F.);
#632 = EDGE_CURVE('',#633,#352,#635,.T.);
#633 = VERTEX_POINT('',#634);
#634 = CARTESIAN_POINT('',(-6.75,78.,-8.79134295109));
#635 = LINE('',#636,#637);
#636 = CARTESIAN_POINT('',(-6.75,78.,-8.79134295109));
#637 = VECTOR('',#638,1.);
#638 = DIRECTION('',(0.,1.,0.));
#639 = ORIENTED_EDGE('',*,*,#640,.T.);
#640 = EDGE_CURVE('',#633,#633,#641,.T.);
#641 = CIRCLE('',#642,2.9);
#642 = AXIS2_PLACEMENT_3D('',#643,#644,#645);
#643 = CARTESIAN_POINT('',(-6.75,78.,-11.69134295109));
#644 = DIRECTION('',(0.,1.,0.));
#645 = DIRECTION('',(0.,-0.,1.));
#646 = ORIENTED_EDGE('',*,*,#632,.T.);
#647 = CYLINDRICAL_SURFACE('',#648,2.9);
#648 = AXIS2_PLACEMENT_3D('',#649,#650,#651);
#649 = CARTESIAN_POINT('',(-6.75,78.,-11.69134295109));
#650 = DIRECTION('',(0.,1.,0.));
#651 = DIRECTION('',(0.,-0.,1.));
#652 = ADVANCED_FACE('',(#653),#672,.F.);
#653 = FACE_BOUND('',#654,.F.);
#654 = EDGE_LOOP('',(#655,#656,#664,#671));
#655 = ORIENTED_EDGE('',*,*,#362,.F.);
#656 = ORIENTED_EDGE('',*,*,#657,.F.);
#657 = EDGE_CURVE('',#658,#363,#660,.T.);
#658 = VERTEX_POINT('',#659);
#659 = CARTESIAN_POINT('',(-13.5,78.,2.9));
#660 = LINE('',#661,#662);
#661 = CARTESIAN_POINT('',(-13.5,78.,2.9));
#662 = VECTOR('',#663,1.);
#663 = DIRECTION('',(0.,1.,0.));
#664 = ORIENTED_EDGE('',*,*,#665,.T.);
#665 = EDGE_CURVE('',#658,#658,#666,.T.);
#666 = CIRCLE('',#667,2.9);
#667 = AXIS2_PLACEMENT_3D('',#668,#669,#670);
#668 = CARTESIAN_POINT('',(-13.5,78.,1.653273178849E-15));
#669 = DIRECTION('',(0.,1.,0.));
#670 = DIRECTION('',(0.,-0.,1.));
#671 = ORIENTED_EDGE('',*,*,#657,.T.);
#672 = CYLINDRICAL_SURFACE('',#673,2.9);
#673 = AXIS2_PLACEMENT_3D('',#674,#675,#676);
#674 = CARTESIAN_POINT('',(-13.5,78.,1.653273178849E-15));
#675 = DIRECTION('',(0.,1.,0.));
#676 = DIRECTION('',(0.,-0.,1.));
#677 = ADVANCED_FACE('',(#678),#697,.F.);
#678 = FACE_BOUND('',#679,.F.);
#679 = EDGE_LOOP('',(#680,#681,#689,#696));
#680 = ORIENTED_EDGE('',*,*,#373,.F.);
#681 = ORIENTED_EDGE('',*,*,#682,.F.);
#682 = EDGE_CURVE('',#683,#374,#685,.T.);
#683 = VERTEX_POINT('',#684);
#684 = CARTESIAN_POINT('',(-6.75,78.,14.59134295109));
#685 = LINE('',#686,#687);
#686 = CARTESIAN_POINT('',(-6.75,78.,14.59134295109));
#687 = VECTOR('',#688,1.);
#688 = DIRECTION('',(0.,1.,0.));
#689 = ORIENTED_EDGE('',*,*,#690,.T.);
#690 = EDGE_CURVE('',#683,#683,#691,.T.);
#691 = CIRCLE('',#692,2.9);
#692 = AXIS2_PLACEMENT_3D('',#693,#694,#695);
#693 = CARTESIAN_POINT('',(-6.75,78.,11.69134295109));
#694 = DIRECTION('',(0.,1.,0.));
#695 = DIRECTION('',(0.,-0.,1.));
#696 = ORIENTED_EDGE('',*,*,#682,.T.);
#697 = CYLINDRICAL_SURFACE('',#698,2.9);
#698 = AXIS2_PLACEMENT_3D('',#699,#700,#701);
#699 = CARTESIAN_POINT('',(-6.75,78.,11.69134295109));
#700 = DIRECTION('',(0.,1.,0.));
#701 = DIRECTION('',(0.,-0.,1.));
#702 = ADVANCED_FACE('',(#703),#722,.F.);
#703 = FACE_BOUND('',#704,.F.);
#704 = EDGE_LOOP('',(#705,#706,#714,#721));
#705 = ORIENTED_EDGE('',*,*,#384,.F.);
#706 = ORIENTED_EDGE('',*,*,#707,.F.);
#707 = EDGE_CURVE('',#708,#385,#710,.T.);
#708 = VERTEX_POINT('',#709);
#709 = CARTESIAN_POINT('',(6.75,78.,-8.79134295109));
#710 = LINE('',#711,#712);
#711 = CARTESIAN_POINT('',(6.75,78.,-8.79134295109));
#712 = VECTOR('',#713,1.);
#713 = DIRECTION('',(0.,1.,0.));
#714 = ORIENTED_EDGE('',*,*,#715,.T.);
#715 = EDGE_CURVE('',#708,#708,#716,.T.);
#716 = CIRCLE('',#717,2.9);
#717 = AXIS2_PLACEMENT_3D('',#718,#719,#720);
#718 = CARTESIAN_POINT('',(6.75,78.,-11.69134295109));
#719 = DIRECTION('',(0.,1.,0.));
#720 = DIRECTION('',(0.,-0.,1.));
#721 = ORIENTED_EDGE('',*,*,#707,.T.);
#722 = CYLINDRICAL_SURFACE('',#723,2.9);
#723 = AXIS2_PLACEMENT_3D('',#724,#725,#726);
#724 = CARTESIAN_POINT('',(6.75,78.,-11.69134295109));
#725 = DIRECTION('',(0.,1.,0.));
#726 = DIRECTION('',(0.,-0.,1.));
#727 = ADVANCED_FACE('',(#728),#747,.F.);
#728 = FACE_BOUND('',#729,.F.);
#729 = EDGE_LOOP('',(#730,#731,#739,#746));
#730 = ORIENTED_EDGE('',*,*,#395,.F.);
#731 = ORIENTED_EDGE('',*,*,#732,.F.);
#732 = EDGE_CURVE('',#733,#396,#735,.T.);
#733 = VERTEX_POINT('',#734);
#734 = CARTESIAN_POINT('',(6.75,78.,14.59134295109));
#735 = LINE('',#736,#737);
#736 = CARTESIAN_POINT('',(6.75,78.,14.59134295109));
#737 = VECTOR('',#738,1.);
#738 = DIRECTION('',(0.,1.,0.));
#739 = ORIENTED_EDGE('',*,*,#740,.T.);
#740 = EDGE_CURVE('',#733,#733,#741,.T.);
#741 = CIRCLE('',#742,2.9);
#742 = AXIS2_PLACEMENT_3D('',#743,#744,#745);
#743 = CARTESIAN_POINT('',(6.75,78.,11.69134295109));
#744 = DIRECTION('',(0.,1.,0.));
#745 = DIRECTION('',(0.,-0.,1.));
#746 = ORIENTED_EDGE('',*,*,#732,.T.);
#747 = CYLINDRICAL_SURFACE('',#748,2.9);
#748 = AXIS2_PLACEMENT_3D('',#749,#750,#751);
#749 = CARTESIAN_POINT('',(6.75,78.,11.69134295109));
#750 = DIRECTION('',(0.,1.,0.));
#751 = DIRECTION('',(0.,-0.,1.));
#752 = ADVANCED_FACE('',(#753),#772,.F.);
#753 = FACE_BOUND('',#754,.F.);
#754 = EDGE_LOOP('',(#755,#756,#764,#771));
#755 = ORIENTED_EDGE('',*,*,#406,.F.);
#756 = ORIENTED_EDGE('',*,*,#757,.F.);
#757 = EDGE_CURVE('',#758,#407,#760,.T.);
#758 = VERTEX_POINT('',#759);
#759 = CARTESIAN_POINT('',(13.5,78.,2.9));
#760 = LINE('',#761,#762);
#761 = CARTESIAN_POINT('',(13.5,78.,2.9));
#762 = VECTOR('',#763,1.);
#763 = DIRECTION('',(0.,1.,0.));
#764 = ORIENTED_EDGE('',*,*,#765,.T.);
#765 = EDGE_CURVE('',#758,#758,#766,.T.);
#766 = CIRCLE('',#767,2.9);
#767 = AXIS2_PLACEMENT_3D('',#768,#769,#770);
#768 = CARTESIAN_POINT('',(13.5,78.,0.));
#769 = DIRECTION('',(0.,1.,0.));
#770 = DIRECTION('',(0.,-0.,1.));
#771 = ORIENTED_EDGE('',*,*,#757,.T.);
#772 = CYLINDRICAL_SURFACE('',#773,2.9);
#773 = AXIS2_PLACEMENT_3D('',#774,#775,#776);
#774 = CARTESIAN_POINT('',(13.5,78.,0.));
#775 = DIRECTION('',(0.,1.,0.));
#776 = DIRECTION('',(0.,-0.,1.));
#777 = ADVANCED_FACE('',(#778),#790,.F.);
#778 = FACE_BOUND('',#779,.F.);
#779 = EDGE_LOOP('',(#780,#781,#789));
#780 = ORIENTED_EDGE('',*,*,#432,.F.);
#781 = ORIENTED_EDGE('',*,*,#782,.F.);
#782 = EDGE_CURVE('',#783,#425,#785,.T.);
#783 = VERTEX_POINT('',#784);
#784 = CARTESIAN_POINT('',(15.695255559516,79.5,4.205531052172));
#785 = LINE('',#786,#787);
#786 = CARTESIAN_POINT('',(15.695255559516,79.5,4.205531052172));
#787 = VECTOR('',#788,1.);
#788 = DIRECTION('',(0.275637355817,2.099454382277E-16,0.961261695938));
#789 = ORIENTED_EDGE('',*,*,#782,.T.);
#790 = CONICAL_SURFACE('',#791,0.,1.029744258677);
#791 = AXIS2_PLACEMENT_3D('',#792,#793,#794);
#792 = CARTESIAN_POINT('',(15.695255559516,79.5,4.205531052172));
#793 = DIRECTION('',(0.965925826289,0.,0.258819045103));
#794 = DIRECTION('',(-0.258819045103,0.,0.965925826289));
#795 = ADVANCED_FACE('',(#796),#808,.F.);
#796 = FACE_BOUND('',#797,.F.);
#797 = EDGE_LOOP('',(#798,#799,#807));
#798 = ORIENTED_EDGE('',*,*,#457,.F.);
#799 = ORIENTED_EDGE('',*,*,#800,.F.);
#800 = EDGE_CURVE('',#801,#450,#803,.T.);
#801 = VERTEX_POINT('',#802);
#802 = CARTESIAN_POINT('',(-15.69525555951,79.5,-4.205531052172));
#803 = LINE('',#804,#805);
#804 = CARTESIAN_POINT('',(-15.69525555951,79.5,-4.205531052172));
#805 = VECTOR('',#806,1.);
#806 = DIRECTION('',(-0.275637355817,2.099454382277E-16,-0.961261695938)
  );
#807 = ORIENTED_EDGE('',*,*,#800,.T.);
#808 = CONICAL_SURFACE('',#809,0.,1.029744258677);
#809 = AXIS2_PLACEMENT_3D('',#810,#811,#812);
#810 = CARTESIAN_POINT('',(-15.69525555951,79.5,-4.205531052172));
#811 = DIRECTION('',(-0.965925826289,0.,-0.258819045103));
#812 = DIRECTION('',(0.258819045103,0.,-0.965925826289));
#813 = ADVANCED_FACE('',(#814),#826,.F.);
#814 = FACE_BOUND('',#815,.F.);
#815 = EDGE_LOOP('',(#816,#817,#825));
#816 = ORIENTED_EDGE('',*,*,#482,.F.);
#817 = ORIENTED_EDGE('',*,*,#818,.F.);
#818 = EDGE_CURVE('',#819,#475,#821,.T.);
#819 = VERTEX_POINT('',#820);
#820 = CARTESIAN_POINT('',(4.205531052172,79.5,-15.69525555951));
#821 = LINE('',#822,#823);
#822 = CARTESIAN_POINT('',(4.205531052172,79.5,-15.69525555951));
#823 = VECTOR('',#824,1.);
#824 = DIRECTION('',(-0.694658370459,-2.099454382277E-16,-0.719339800339
    ));
#825 = ORIENTED_EDGE('',*,*,#818,.T.);
#826 = CONICAL_SURFACE('',#827,0.,1.029744258677);
#827 = AXIS2_PLACEMENT_3D('',#828,#829,#830);
#828 = CARTESIAN_POINT('',(4.205531052172,79.5,-15.69525555951));
#829 = DIRECTION('',(0.258819045103,0.,-0.965925826289));
#830 = DIRECTION('',(-0.965925826289,0.,-0.258819045103));
#831 = ADVANCED_FACE('',(#832),#844,.F.);
#832 = FACE_BOUND('',#833,.F.);
#833 = EDGE_LOOP('',(#834,#835,#843));
#834 = ORIENTED_EDGE('',*,*,#507,.F.);
#835 = ORIENTED_EDGE('',*,*,#836,.F.);
#836 = EDGE_CURVE('',#837,#500,#839,.T.);
#837 = VERTEX_POINT('',#838);
#838 = CARTESIAN_POINT('',(-4.205531052172,79.5,15.695255559516));
#839 = LINE('',#840,#841);
#840 = CARTESIAN_POINT('',(-4.205531052172,79.5,15.695255559516));
#841 = VECTOR('',#842,1.);
#842 = DIRECTION('',(0.694658370459,-2.099454382277E-16,0.719339800339)
  );
#843 = ORIENTED_EDGE('',*,*,#836,.T.);
#844 = CONICAL_SURFACE('',#845,0.,1.029744258677);
#845 = AXIS2_PLACEMENT_3D('',#846,#847,#848);
#846 = CARTESIAN_POINT('',(-4.205531052172,79.5,15.695255559516));
#847 = DIRECTION('',(-0.258819045103,0.,0.965925826289));
#848 = DIRECTION('',(0.965925826289,0.,0.258819045103));
#849 = ADVANCED_FACE('',(#850),#869,.F.);
#850 = FACE_BOUND('',#851,.F.);
#851 = EDGE_LOOP('',(#852,#861,#867,#868));
#852 = ORIENTED_EDGE('',*,*,#853,.F.);
#853 = EDGE_CURVE('',#854,#854,#856,.T.);
#854 = VERTEX_POINT('',#855);
#855 = CARTESIAN_POINT('',(-13.5,78.,1.7));
#856 = CIRCLE('',#857,1.7);
#857 = AXIS2_PLACEMENT_3D('',#858,#859,#860);
#858 = CARTESIAN_POINT('',(-13.5,78.,1.653273178849E-15));
#859 = DIRECTION('',(0.,1.,0.));
#860 = DIRECTION('',(0.,-0.,1.));
#861 = ORIENTED_EDGE('',*,*,#862,.F.);
#862 = EDGE_CURVE('',#527,#854,#863,.T.);
#863 = LINE('',#864,#865);
#864 = CARTESIAN_POINT('',(-13.5,72.,1.7));
#865 = VECTOR('',#866,1.);
#866 = DIRECTION('',(0.,1.,0.));
#867 = ORIENTED_EDGE('',*,*,#526,.T.);
#868 = ORIENTED_EDGE('',*,*,#862,.T.);
#869 = CYLINDRICAL_SURFACE('',#870,1.7);
#870 = AXIS2_PLACEMENT_3D('',#871,#872,#873);
#871 = CARTESIAN_POINT('',(-13.5,72.,1.653273178849E-15));
#872 = DIRECTION('',(0.,1.,0.));
#873 = DIRECTION('',(0.,-0.,1.));
#874 = ADVANCED_FACE('',(#875),#893,.F.);
#875 = FACE_BOUND('',#876,.F.);
#876 = EDGE_LOOP('',(#877,#878,#885,#892));
#877 = ORIENTED_EDGE('',*,*,#537,.T.);
#878 = ORIENTED_EDGE('',*,*,#879,.T.);
#879 = EDGE_CURVE('',#538,#880,#882,.T.);
#880 = VERTEX_POINT('',#881);
#881 = CARTESIAN_POINT('',(-10.52220865598,80.2,-4.075));
#882 = B_SPLINE_CURVE_WITH_KNOTS('',1,(#883,#884),.UNSPECIFIED.,.F.,.F.,
  (2,2),(9.999999999999E-02,7.3),.PIECEWISE_BEZIER_KNOTS.);
#883 = CARTESIAN_POINT('',(-10.52220865598,73.,-4.075));
#884 = CARTESIAN_POINT('',(-10.52220865598,80.2,-4.075));
#885 = ORIENTED_EDGE('',*,*,#886,.F.);
#886 = EDGE_CURVE('',#880,#880,#887,.T.);
#887 = CIRCLE('',#888,2.);
#888 = AXIS2_PLACEMENT_3D('',#889,#890,#891);
#889 = CARTESIAN_POINT('',(-10.52220865598,80.2,-6.075));
#890 = DIRECTION('',(0.,1.,0.));
#891 = DIRECTION('',(0.,-0.,1.));
#892 = ORIENTED_EDGE('',*,*,#879,.F.);
#893 = CYLINDRICAL_SURFACE('',#894,2.);
#894 = AXIS2_PLACEMENT_3D('',#895,#896,#897);
#895 = CARTESIAN_POINT('',(-10.52220865598,72.9,-6.075));
#896 = DIRECTION('',(0.,1.,0.));
#897 = DIRECTION('',(0.,-0.,1.));
#898 = ADVANCED_FACE('',(#899),#918,.F.);
#899 = FACE_BOUND('',#900,.F.);
#900 = EDGE_LOOP('',(#901,#910,#916,#917));
#901 = ORIENTED_EDGE('',*,*,#902,.F.);
#902 = EDGE_CURVE('',#903,#903,#905,.T.);
#903 = VERTEX_POINT('',#904);
#904 = CARTESIAN_POINT('',(-6.75,78.,-9.99134295109));
#905 = CIRCLE('',#906,1.7);
#906 = AXIS2_PLACEMENT_3D('',#907,#908,#909);
#907 = CARTESIAN_POINT('',(-6.75,78.,-11.69134295109));
#908 = DIRECTION('',(0.,1.,0.));
#909 = DIRECTION('',(0.,-0.,1.));
#910 = ORIENTED_EDGE('',*,*,#911,.F.);
#911 = EDGE_CURVE('',#549,#903,#912,.T.);
#912 = LINE('',#913,#914);
#913 = CARTESIAN_POINT('',(-6.75,72.,-9.99134295109));
#914 = VECTOR('',#915,1.);
#915 = DIRECTION('',(0.,1.,0.));
#916 = ORIENTED_EDGE('',*,*,#548,.T.);
#917 = ORIENTED_EDGE('',*,*,#911,.T.);
#918 = CYLINDRICAL_SURFACE('',#919,1.7);
#919 = AXIS2_PLACEMENT_3D('',#920,#921,#922);
#920 = CARTESIAN_POINT('',(-6.75,72.,-11.69134295109));
#921 = DIRECTION('',(0.,1.,0.));
#922 = DIRECTION('',(0.,-0.,1.));
#923 = ADVANCED_FACE('',(#924),#943,.F.);
#924 = FACE_BOUND('',#925,.F.);
#925 = EDGE_LOOP('',(#926,#935,#941,#942));
#926 = ORIENTED_EDGE('',*,*,#927,.F.);
#927 = EDGE_CURVE('',#928,#928,#930,.T.);
#928 = VERTEX_POINT('',#929);
#929 = CARTESIAN_POINT('',(-6.75,78.,13.39134295109));
#930 = CIRCLE('',#931,1.7);
#931 = AXIS2_PLACEMENT_3D('',#932,#933,#934);
#932 = CARTESIAN_POINT('',(-6.75,78.,11.69134295109));
#933 = DIRECTION('',(0.,1.,0.));
#934 = DIRECTION('',(0.,-0.,1.));
#935 = ORIENTED_EDGE('',*,*,#936,.F.);
#936 = EDGE_CURVE('',#560,#928,#937,.T.);
#937 = LINE('',#938,#939);
#938 = CARTESIAN_POINT('',(-6.75,72.,13.39134295109));
#939 = VECTOR('',#940,1.);
#940 = DIRECTION('',(0.,1.,0.));
#941 = ORIENTED_EDGE('',*,*,#559,.T.);
#942 = ORIENTED_EDGE('',*,*,#936,.T.);
#943 = CYLINDRICAL_SURFACE('',#944,1.7);
#944 = AXIS2_PLACEMENT_3D('',#945,#946,#947);
#945 = CARTESIAN_POINT('',(-6.75,72.,11.69134295109));
#946 = DIRECTION('',(0.,1.,0.));
#947 = DIRECTION('',(0.,-0.,1.));
#948 = ADVANCED_FACE('',(#949),#967,.F.);
#949 = FACE_BOUND('',#950,.F.);
#950 = EDGE_LOOP('',(#951,#952,#959,#966));
#951 = ORIENTED_EDGE('',*,*,#570,.T.);
#952 = ORIENTED_EDGE('',*,*,#953,.T.);
#953 = EDGE_CURVE('',#571,#954,#956,.T.);
#954 = VERTEX_POINT('',#955);
#955 = CARTESIAN_POINT('',(2.541142108231E-16,80.2,14.15));
#956 = B_SPLINE_CURVE_WITH_KNOTS('',1,(#957,#958),.UNSPECIFIED.,.F.,.F.,
  (2,2),(9.999999999999E-02,7.3),.PIECEWISE_BEZIER_KNOTS.);
#957 = CARTESIAN_POINT('',(7.43972930482E-16,73.,14.15));
#958 = CARTESIAN_POINT('',(7.43972930482E-16,80.2,14.15));
#959 = ORIENTED_EDGE('',*,*,#960,.F.);
#960 = EDGE_CURVE('',#954,#954,#961,.T.);
#961 = CIRCLE('',#962,2.);
#962 = AXIS2_PLACEMENT_3D('',#963,#964,#965);
#963 = CARTESIAN_POINT('',(7.43972930482E-16,80.2,12.15));
#964 = DIRECTION('',(0.,1.,0.));
#965 = DIRECTION('',(0.,-0.,1.));
#966 = ORIENTED_EDGE('',*,*,#953,.F.);
#967 = CYLINDRICAL_SURFACE('',#968,2.);
#968 = AXIS2_PLACEMENT_3D('',#969,#970,#971);
#969 = CARTESIAN_POINT('',(7.43972930482E-16,72.9,12.15));
#970 = DIRECTION('',(0.,1.,0.));
#971 = DIRECTION('',(0.,-0.,1.));
#972 = ADVANCED_FACE('',(#973),#992,.F.);
#973 = FACE_BOUND('',#974,.F.);
#974 = EDGE_LOOP('',(#975,#984,#990,#991));
#975 = ORIENTED_EDGE('',*,*,#976,.F.);
#976 = EDGE_CURVE('',#977,#977,#979,.T.);
#977 = VERTEX_POINT('',#978);
#978 = CARTESIAN_POINT('',(6.75,78.,-9.99134295109));
#979 = CIRCLE('',#980,1.7);
#980 = AXIS2_PLACEMENT_3D('',#981,#982,#983);
#981 = CARTESIAN_POINT('',(6.75,78.,-11.69134295109));
#982 = DIRECTION('',(0.,1.,0.));
#983 = DIRECTION('',(0.,-0.,1.));
#984 = ORIENTED_EDGE('',*,*,#985,.F.);
#985 = EDGE_CURVE('',#582,#977,#986,.T.);
#986 = LINE('',#987,#988);
#987 = CARTESIAN_POINT('',(6.75,72.,-9.99134295109));
#988 = VECTOR('',#989,1.);
#989 = DIRECTION('',(0.,1.,0.));
#990 = ORIENTED_EDGE('',*,*,#581,.T.);
#991 = ORIENTED_EDGE('',*,*,#985,.T.);
#992 = CYLINDRICAL_SURFACE('',#993,1.7);
#993 = AXIS2_PLACEMENT_3D('',#994,#995,#996);
#994 = CARTESIAN_POINT('',(6.75,72.,-11.69134295109));
#995 = DIRECTION('',(0.,1.,0.));
#996 = DIRECTION('',(0.,-0.,1.));
#997 = ADVANCED_FACE('',(#998),#1017,.F.);
#998 = FACE_BOUND('',#999,.F.);
#999 = EDGE_LOOP('',(#1000,#1009,#1015,#1016));
#1000 = ORIENTED_EDGE('',*,*,#1001,.F.);
#1001 = EDGE_CURVE('',#1002,#1002,#1004,.T.);
#1002 = VERTEX_POINT('',#1003);
#1003 = CARTESIAN_POINT('',(13.5,78.,1.7));
#1004 = CIRCLE('',#1005,1.7);
#1005 = AXIS2_PLACEMENT_3D('',#1006,#1007,#1008);
#1006 = CARTESIAN_POINT('',(13.5,78.,0.));
#1007 = DIRECTION('',(0.,1.,0.));
#1008 = DIRECTION('',(0.,-0.,1.));
#1009 = ORIENTED_EDGE('',*,*,#1010,.F.);
#1010 = EDGE_CURVE('',#604,#1002,#1011,.T.);
#1011 = LINE('',#1012,#1013);
#1012 = CARTESIAN_POINT('',(13.5,72.,1.7));
#1013 = VECTOR('',#1014,1.);
#1014 = DIRECTION('',(0.,1.,0.));
#1015 = ORIENTED_EDGE('',*,*,#603,.T.);
#1016 = ORIENTED_EDGE('',*,*,#1010,.T.);
#1017 = CYLINDRICAL_SURFACE('',#1018,1.7);
#1018 = AXIS2_PLACEMENT_3D('',#1019,#1020,#1021);
#1019 = CARTESIAN_POINT('',(13.5,72.,0.));
#1020 = DIRECTION('',(0.,1.,0.));
#1021 = DIRECTION('',(0.,-0.,1.));
#1022 = ADVANCED_FACE('',(#1023),#1042,.F.);
#1023 = FACE_BOUND('',#1024,.F.);
#1024 = EDGE_LOOP('',(#1025,#1034,#1040,#1041));
#1025 = ORIENTED_EDGE('',*,*,#1026,.F.);
#1026 = EDGE_CURVE('',#1027,#1027,#1029,.T.);
#1027 = VERTEX_POINT('',#1028);
#1028 = CARTESIAN_POINT('',(6.75,78.,13.39134295109));
#1029 = CIRCLE('',#1030,1.7);
#1030 = AXIS2_PLACEMENT_3D('',#1031,#1032,#1033);
#1031 = CARTESIAN_POINT('',(6.75,78.,11.69134295109));
#1032 = DIRECTION('',(0.,1.,0.));
#1033 = DIRECTION('',(0.,-0.,1.));
#1034 = ORIENTED_EDGE('',*,*,#1035,.F.);
#1035 = EDGE_CURVE('',#615,#1027,#1036,.T.);
#1036 = LINE('',#1037,#1038);
#1037 = CARTESIAN_POINT('',(6.75,72.,13.39134295109));
#1038 = VECTOR('',#1039,1.);
#1039 = DIRECTION('',(0.,1.,0.));
#1040 = ORIENTED_EDGE('',*,*,#614,.T.);
#1041 = ORIENTED_EDGE('',*,*,#1035,.T.);
#1042 = CYLINDRICAL_SURFACE('',#1043,1.7);
#1043 = AXIS2_PLACEMENT_3D('',#1044,#1045,#1046);
#1044 = CARTESIAN_POINT('',(6.75,72.,11.69134295109));
#1045 = DIRECTION('',(0.,1.,0.));
#1046 = DIRECTION('',(0.,-0.,1.));
#1047 = ADVANCED_FACE('',(#1048,#1051),#1054,.T.);
#1048 = FACE_BOUND('',#1049,.T.);
#1049 = EDGE_LOOP('',(#1050));
#1050 = ORIENTED_EDGE('',*,*,#640,.T.);
#1051 = FACE_BOUND('',#1052,.T.);
#1052 = EDGE_LOOP('',(#1053));
#1053 = ORIENTED_EDGE('',*,*,#902,.F.);
#1054 = PLANE('',#1055);
#1055 = AXIS2_PLACEMENT_3D('',#1056,#1057,#1058);
#1056 = CARTESIAN_POINT('',(-6.75,78.,-11.69134295109));
#1057 = DIRECTION('',(0.,1.,0.));
#1058 = DIRECTION('',(0.,-0.,1.));
#1059 = ADVANCED_FACE('',(#1060,#1063),#1066,.T.);
#1060 = FACE_BOUND('',#1061,.T.);
#1061 = EDGE_LOOP('',(#1062));
#1062 = ORIENTED_EDGE('',*,*,#665,.T.);
#1063 = FACE_BOUND('',#1064,.T.);
#1064 = EDGE_LOOP('',(#1065));
#1065 = ORIENTED_EDGE('',*,*,#853,.F.);
#1066 = PLANE('',#1067);
#1067 = AXIS2_PLACEMENT_3D('',#1068,#1069,#1070);
#1068 = CARTESIAN_POINT('',(-13.5,78.,1.653273178849E-15));
#1069 = DIRECTION('',(0.,1.,0.));
#1070 = DIRECTION('',(0.,-0.,1.));
#1071 = ADVANCED_FACE('',(#1072,#1075),#1078,.T.);
#1072 = FACE_BOUND('',#1073,.T.);
#1073 = EDGE_LOOP('',(#1074));
#1074 = ORIENTED_EDGE('',*,*,#690,.T.);
#1075 = FACE_BOUND('',#1076,.T.);
#1076 = EDGE_LOOP('',(#1077));
#1077 = ORIENTED_EDGE('',*,*,#927,.F.);
#1078 = PLANE('',#1079);
#1079 = AXIS2_PLACEMENT_3D('',#1080,#1081,#1082);
#1080 = CARTESIAN_POINT('',(-6.75,78.,11.69134295109));
#1081 = DIRECTION('',(0.,1.,0.));
#1082 = DIRECTION('',(0.,-0.,1.));
#1083 = ADVANCED_FACE('',(#1084,#1087),#1090,.T.);
#1084 = FACE_BOUND('',#1085,.T.);
#1085 = EDGE_LOOP('',(#1086));
#1086 = ORIENTED_EDGE('',*,*,#715,.T.);
#1087 = FACE_BOUND('',#1088,.T.);
#1088 = EDGE_LOOP('',(#1089));
#1089 = ORIENTED_EDGE('',*,*,#976,.F.);
#1090 = PLANE('',#1091);
#1091 = AXIS2_PLACEMENT_3D('',#1092,#1093,#1094);
#1092 = CARTESIAN_POINT('',(6.75,78.,-11.69134295109));
#1093 = DIRECTION('',(0.,1.,0.));
#1094 = DIRECTION('',(0.,-0.,1.));
#1095 = ADVANCED_FACE('',(#1096,#1099),#1102,.T.);
#1096 = FACE_BOUND('',#1097,.T.);
#1097 = EDGE_LOOP('',(#1098));
#1098 = ORIENTED_EDGE('',*,*,#740,.T.);
#1099 = FACE_BOUND('',#1100,.T.);
#1100 = EDGE_LOOP('',(#1101));
#1101 = ORIENTED_EDGE('',*,*,#1026,.F.);
#1102 = PLANE('',#1103);
#1103 = AXIS2_PLACEMENT_3D('',#1104,#1105,#1106);
#1104 = CARTESIAN_POINT('',(6.75,78.,11.69134295109));
#1105 = DIRECTION('',(0.,1.,0.));
#1106 = DIRECTION('',(0.,-0.,1.));
#1107 = ADVANCED_FACE('',(#1108,#1111),#1114,.T.);
#1108 = FACE_BOUND('',#1109,.T.);
#1109 = EDGE_LOOP('',(#1110));
#1110 = ORIENTED_EDGE('',*,*,#765,.T.);
#1111 = FACE_BOUND('',#1112,.T.);
#1112 = EDGE_LOOP('',(#1113));
#1113 = ORIENTED_EDGE('',*,*,#1001,.F.);
#1114 = PLANE('',#1115);
#1115 = AXIS2_PLACEMENT_3D('',#1116,#1117,#1118);
#1116 = CARTESIAN_POINT('',(13.5,78.,0.));
#1117 = DIRECTION('',(0.,1.,0.));
#1118 = DIRECTION('',(0.,-0.,1.));
#1119 = ADVANCED_FACE('',(#1120),#1123,.F.);
#1120 = FACE_BOUND('',#1121,.F.);
#1121 = EDGE_LOOP('',(#1122));
#1122 = ORIENTED_EDGE('',*,*,#886,.T.);
#1123 = PLANE('',#1124);
#1124 = AXIS2_PLACEMENT_3D('',#1125,#1126,#1127);
#1125 = CARTESIAN_POINT('',(-10.52220865598,80.2,-6.075));
#1126 = DIRECTION('',(0.,1.,0.));
#1127 = DIRECTION('',(0.,-0.,1.));
#1128 = ADVANCED_FACE('',(#1129),#1132,.F.);
#1129 = FACE_BOUND('',#1130,.F.);
#1130 = EDGE_LOOP('',(#1131));
#1131 = ORIENTED_EDGE('',*,*,#960,.T.);
#1132 = PLANE('',#1133);
#1133 = AXIS2_PLACEMENT_3D('',#1134,#1135,#1136);
#1134 = CARTESIAN_POINT('',(7.43972930482E-16,80.2,12.15));
#1135 = DIRECTION('',(0.,1.,0.));
#1136 = DIRECTION('',(0.,-0.,1.));
#1137 = ADVANCED_FACE('',(#1138),#1156,.F.);
#1138 = FACE_BOUND('',#1139,.F.);
#1139 = EDGE_LOOP('',(#1140,#1141,#1148,#1155));
#1140 = ORIENTED_EDGE('',*,*,#592,.T.);
#1141 = ORIENTED_EDGE('',*,*,#1142,.T.);
#1142 = EDGE_CURVE('',#593,#1143,#1145,.T.);
#1143 = VERTEX_POINT('',#1144);
#1144 = CARTESIAN_POINT('',(10.522208655981,80.2,-4.075));
#1145 = B_SPLINE_CURVE_WITH_KNOTS('',1,(#1146,#1147),.UNSPECIFIED.,.F.,
  .F.,(2,2),(9.999999999999E-02,7.3),.PIECEWISE_BEZIER_KNOTS.);
#1146 = CARTESIAN_POINT('',(10.522208655981,73.,-4.075));
#1147 = CARTESIAN_POINT('',(10.522208655981,80.2,-4.075));
#1148 = ORIENTED_EDGE('',*,*,#1149,.F.);
#1149 = EDGE_CURVE('',#1143,#1143,#1150,.T.);
#1150 = CIRCLE('',#1151,2.);
#1151 = AXIS2_PLACEMENT_3D('',#1152,#1153,#1154);
#1152 = CARTESIAN_POINT('',(10.522208655981,80.2,-6.075));
#1153 = DIRECTION('',(0.,1.,0.));
#1154 = DIRECTION('',(0.,-0.,1.));
#1155 = ORIENTED_EDGE('',*,*,#1142,.F.);
#1156 = CYLINDRICAL_SURFACE('',#1157,2.);
#1157 = AXIS2_PLACEMENT_3D('',#1158,#1159,#1160);
#1158 = CARTESIAN_POINT('',(10.522208655981,72.9,-6.075));
#1159 = DIRECTION('',(0.,1.,0.));
#1160 = DIRECTION('',(0.,-0.,1.));
#1161 = ADVANCED_FACE('',(#1162),#1165,.F.);
#1162 = FACE_BOUND('',#1163,.F.);
#1163 = EDGE_LOOP('',(#1164));
#1164 = ORIENTED_EDGE('',*,*,#1149,.T.);
#1165 = PLANE('',#1166);
#1166 = AXIS2_PLACEMENT_3D('',#1167,#1168,#1169);
#1167 = CARTESIAN_POINT('',(10.522208655981,80.2,-6.075));
#1168 = DIRECTION('',(0.,1.,0.));
#1169 = DIRECTION('',(0.,-0.,1.));
#1170 = ( GEOMETRIC_REPRESENTATION_CONTEXT(3) 
GLOBAL_UNCERTAINTY_ASSIGNED_CONTEXT((#1174)) 
GLOBAL_UNIT_ASSIGNED_CONTEXT((#1171,#1172,#1173)) REPRESENTATION_CONTEXT
('Context #1','3D Context with UNIT and UNCERTAINTY') );
#1171 = ( LENGTH_UNIT() NAMED_UNIT(*) SI_UNIT(.MILLI.,.METRE.) );
#1172 = ( NAMED_UNIT(*) PLANE_ANGLE_UNIT() SI_UNIT($,.RADIAN.) );
#1173 = ( NAMED_UNIT(*) SI_UNIT($,.STERADIAN.) SOLID_ANGLE_UNIT() );
#1174 = UNCERTAINTY_MEASURE_WITH_UNIT(LENGTH_MEASURE(1.E-06),#1171,
  'distance_accuracy_value','confusion accuracy');
#1175 = PRODUCT_RELATED_PRODUCT_CATEGORY('part',$,(#7));
ENDSEC;
END-ISO-10303-21;
