ISO-10303-21;
HEADER;
FILE_DESCRIPTION(('FreeCAD Model'),'2;1');
FILE_NAME('Open CASCADE Shape Model','2026-09-28T10:09:16',('FreeCAD'),(
    'FreeCAD'),'Open CASCADE STEP processor 7.8','FreeCAD','Unknown');
FILE_SCHEMA(('AUTOMOTIVE_DESIGN { 1 0 10303 214 1 1 1 1 }'));
ENDSEC;
DATA;
#1 = APPLICATION_PROTOCOL_DEFINITION('international standard',
  'automotive_design',2000,#2);
#2 = APPLICATION_CONTEXT(
  'core data for automotive mechanical design processes');
#3 = SHAPE_DEFINITION_REPRESENTATION(#4,#10);
#4 = PRODUCT_DEFINITION_SHAPE('','',#5);
#5 = PRODUCT_DEFINITION('design','',#6,#9);
#6 = PRODUCT_DEFINITION_FORMATION('','',#7);
#7 = PRODUCT('Open CASCADE STEP translator 7.8 16',
  'Open CASCADE STEP translator 7.8 16','',(#8));
#8 = PRODUCT_CONTEXT('',#2,'mechanical');
#9 = PRODUCT_DEFINITION_CONTEXT('part definition',#2,'design');
#10 = ADVANCED_BREP_SHAPE_REPRESENTATION('',(#11,#15),#1449);
#11 = AXIS2_PLACEMENT_3D('',#12,#13,#14);
#12 = CARTESIAN_POINT('',(0.,0.,0.));
#13 = DIRECTION('',(0.,0.,1.));
#14 = DIRECTION('',(1.,0.,-0.));
#15 = MANIFOLD_SOLID_BREP('',#16);
#16 = CLOSED_SHELL('',(#17,#59,#90,#121,#154,#187,#218,#249,#273,#589,
    #620,#644,#675,#699,#730,#754,#778,#802,#819,#836,#860,#877,#909,
    #933,#957,#982,#1007,#1031,#1055,#1073,#1098,#1123,#1148,#1173,#1198
    ,#1223,#1248,#1273,#1298,#1323,#1348,#1373));
#17 = ADVANCED_FACE('',(#18),#54,.T.);
#18 = FACE_BOUND('',#19,.T.);
#19 = EDGE_LOOP('',(#20,#31,#39,#48));
#20 = ORIENTED_EDGE('',*,*,#21,.F.);
#21 = EDGE_CURVE('',#22,#24,#26,.T.);
#22 = VERTEX_POINT('',#23);
#23 = CARTESIAN_POINT('',(117.,-70.,95.));
#24 = VERTEX_POINT('',#25);
#25 = CARTESIAN_POINT('',(117.,-74.,91.));
#26 = CIRCLE('',#27,4.);
#27 = AXIS2_PLACEMENT_3D('',#28,#29,#30);
#28 = CARTESIAN_POINT('',(117.,-70.,91.));
#29 = DIRECTION('',(1.,-0.,1.110223024625E-16));
#30 = DIRECTION('',(1.110223024625E-16,0.,-1.));
#31 = ORIENTED_EDGE('',*,*,#32,.F.);
#32 = EDGE_CURVE('',#33,#22,#35,.T.);
#33 = VERTEX_POINT('',#34);
#34 = CARTESIAN_POINT('',(114.,-70.,95.));
#35 = LINE('',#36,#37);
#36 = CARTESIAN_POINT('',(114.,-70.,95.));
#37 = VECTOR('',#38,1.);
#38 = DIRECTION('',(1.,0.,1.110223024625E-16));
#39 = ORIENTED_EDGE('',*,*,#40,.T.);
#40 = EDGE_CURVE('',#33,#41,#43,.T.);
#41 = VERTEX_POINT('',#42);
#42 = CARTESIAN_POINT('',(114.,-74.,91.));
#43 = CIRCLE('',#44,4.);
#44 = AXIS2_PLACEMENT_3D('',#45,#46,#47);
#45 = CARTESIAN_POINT('',(114.,-70.,91.));
#46 = DIRECTION('',(1.,-0.,1.110223024625E-16));
#47 = DIRECTION('',(1.110223024625E-16,0.,-1.));
#48 = ORIENTED_EDGE('',*,*,#49,.T.);
#49 = EDGE_CURVE('',#41,#24,#50,.T.);
#50 = LINE('',#51,#52);
#51 = CARTESIAN_POINT('',(114.,-74.,91.));
#52 = VECTOR('',#53,1.);
#53 = DIRECTION('',(1.,0.,1.110223024625E-16));
#54 = CYLINDRICAL_SURFACE('',#55,4.);
#55 = AXIS2_PLACEMENT_3D('',#56,#57,#58);
#56 = CARTESIAN_POINT('',(114.,-70.,91.));
#57 = DIRECTION('',(1.,0.,1.110223024625E-16));
#58 = DIRECTION('',(1.110223024625E-16,0.,-1.));
#59 = ADVANCED_FACE('',(#60),#85,.F.);
#60 = FACE_BOUND('',#61,.F.);
#61 = EDGE_LOOP('',(#62,#70,#71,#79));
#62 = ORIENTED_EDGE('',*,*,#63,.F.);
#63 = EDGE_CURVE('',#41,#64,#66,.T.);
#64 = VERTEX_POINT('',#65);
#65 = CARTESIAN_POINT('',(114.,-74.,-45.));
#66 = LINE('',#67,#68);
#67 = CARTESIAN_POINT('',(114.,-74.,91.));
#68 = VECTOR('',#69,1.);
#69 = DIRECTION('',(1.110223024625E-16,0.,-1.));
#70 = ORIENTED_EDGE('',*,*,#49,.T.);
#71 = ORIENTED_EDGE('',*,*,#72,.T.);
#72 = EDGE_CURVE('',#24,#73,#75,.T.);
#73 = VERTEX_POINT('',#74);
#74 = CARTESIAN_POINT('',(117.,-74.,-45.));
#75 = LINE('',#76,#77);
#76 = CARTESIAN_POINT('',(117.,-74.,91.));
#77 = VECTOR('',#78,1.);
#78 = DIRECTION('',(1.110223024625E-16,0.,-1.));
#79 = ORIENTED_EDGE('',*,*,#80,.F.);
#80 = EDGE_CURVE('',#64,#73,#81,.T.);
#81 = LINE('',#82,#83);
#82 = CARTESIAN_POINT('',(114.,-74.,-45.));
#83 = VECTOR('',#84,1.);
#84 = DIRECTION('',(1.,0.,1.110223024625E-16));
#85 = PLANE('',#86);
#86 = AXIS2_PLACEMENT_3D('',#87,#88,#89);
#87 = CARTESIAN_POINT('',(114.,-74.,91.));
#88 = DIRECTION('',(0.,1.,0.));
#89 = DIRECTION('',(1.,0.,1.110223024625E-16));
#90 = ADVANCED_FACE('',(#91),#116,.F.);
#91 = FACE_BOUND('',#92,.F.);
#92 = EDGE_LOOP('',(#93,#94,#102,#110));
#93 = ORIENTED_EDGE('',*,*,#32,.F.);
#94 = ORIENTED_EDGE('',*,*,#95,.T.);
#95 = EDGE_CURVE('',#33,#96,#98,.T.);
#96 = VERTEX_POINT('',#97);
#97 = CARTESIAN_POINT('',(114.,70.,95.));
#98 = LINE('',#99,#100);
#99 = CARTESIAN_POINT('',(114.,-70.,95.));
#100 = VECTOR('',#101,1.);
#101 = DIRECTION('',(0.,1.,0.));
#102 = ORIENTED_EDGE('',*,*,#103,.T.);
#103 = EDGE_CURVE('',#96,#104,#106,.T.);
#104 = VERTEX_POINT('',#105);
#105 = CARTESIAN_POINT('',(117.,70.,95.));
#106 = LINE('',#107,#108);
#107 = CARTESIAN_POINT('',(114.,70.,95.));
#108 = VECTOR('',#109,1.);
#109 = DIRECTION('',(1.,0.,1.110223024625E-16));
#110 = ORIENTED_EDGE('',*,*,#111,.F.);
#111 = EDGE_CURVE('',#22,#104,#112,.T.);
#112 = LINE('',#113,#114);
#113 = CARTESIAN_POINT('',(117.,-70.,95.));
#114 = VECTOR('',#115,1.);
#115 = DIRECTION('',(0.,1.,0.));
#116 = PLANE('',#117);
#117 = AXIS2_PLACEMENT_3D('',#118,#119,#120);
#118 = CARTESIAN_POINT('',(114.,-70.,95.));
#119 = DIRECTION('',(1.110223024625E-16,0.,-1.));
#120 = DIRECTION('',(1.,0.,1.110223024625E-16));
#121 = ADVANCED_FACE('',(#122),#149,.T.);
#122 = FACE_BOUND('',#123,.T.);
#123 = EDGE_LOOP('',(#124,#133,#141,#148));
#124 = ORIENTED_EDGE('',*,*,#125,.F.);
#125 = EDGE_CURVE('',#126,#104,#128,.T.);
#126 = VERTEX_POINT('',#127);
#127 = CARTESIAN_POINT('',(117.,74.,91.));
#128 = CIRCLE('',#129,4.);
#129 = AXIS2_PLACEMENT_3D('',#130,#131,#132);
#130 = CARTESIAN_POINT('',(117.,70.,91.));
#131 = DIRECTION('',(1.,-0.,1.110223024625E-16));
#132 = DIRECTION('',(1.110223024625E-16,0.,-1.));
#133 = ORIENTED_EDGE('',*,*,#134,.F.);
#134 = EDGE_CURVE('',#135,#126,#137,.T.);
#135 = VERTEX_POINT('',#136);
#136 = CARTESIAN_POINT('',(114.,74.,91.));
#137 = LINE('',#138,#139);
#138 = CARTESIAN_POINT('',(114.,74.,91.));
#139 = VECTOR('',#140,1.);
#140 = DIRECTION('',(1.,0.,1.110223024625E-16));
#141 = ORIENTED_EDGE('',*,*,#142,.T.);
#142 = EDGE_CURVE('',#135,#96,#143,.T.);
#143 = CIRCLE('',#144,4.);
#144 = AXIS2_PLACEMENT_3D('',#145,#146,#147);
#145 = CARTESIAN_POINT('',(114.,70.,91.));
#146 = DIRECTION('',(1.,-0.,1.110223024625E-16));
#147 = DIRECTION('',(1.110223024625E-16,0.,-1.));
#148 = ORIENTED_EDGE('',*,*,#103,.T.);
#149 = CYLINDRICAL_SURFACE('',#150,4.);
#150 = AXIS2_PLACEMENT_3D('',#151,#152,#153);
#151 = CARTESIAN_POINT('',(114.,70.,91.));
#152 = DIRECTION('',(1.,0.,1.110223024625E-16));
#153 = DIRECTION('',(1.110223024625E-16,0.,-1.));
#154 = ADVANCED_FACE('',(#155),#182,.T.);
#155 = FACE_BOUND('',#156,.T.);
#156 = EDGE_LOOP('',(#157,#166,#167,#176));
#157 = ORIENTED_EDGE('',*,*,#158,.F.);
#158 = EDGE_CURVE('',#73,#159,#161,.T.);
#159 = VERTEX_POINT('',#160);
#160 = CARTESIAN_POINT('',(117.,-70.,-49.));
#161 = CIRCLE('',#162,4.);
#162 = AXIS2_PLACEMENT_3D('',#163,#164,#165);
#163 = CARTESIAN_POINT('',(117.,-70.,-45.));
#164 = DIRECTION('',(1.,-0.,1.110223024625E-16));
#165 = DIRECTION('',(1.110223024625E-16,0.,-1.));
#166 = ORIENTED_EDGE('',*,*,#80,.F.);
#167 = ORIENTED_EDGE('',*,*,#168,.T.);
#168 = EDGE_CURVE('',#64,#169,#171,.T.);
#169 = VERTEX_POINT('',#170);
#170 = CARTESIAN_POINT('',(114.,-70.,-49.));
#171 = CIRCLE('',#172,4.);
#172 = AXIS2_PLACEMENT_3D('',#173,#174,#175);
#173 = CARTESIAN_POINT('',(114.,-70.,-45.));
#174 = DIRECTION('',(1.,-0.,1.110223024625E-16));
#175 = DIRECTION('',(1.110223024625E-16,0.,-1.));
#176 = ORIENTED_EDGE('',*,*,#177,.T.);
#177 = EDGE_CURVE('',#169,#159,#178,.T.);
#178 = LINE('',#179,#180);
#179 = CARTESIAN_POINT('',(114.,-70.,-49.));
#180 = VECTOR('',#181,1.);
#181 = DIRECTION('',(1.,0.,1.110223024625E-16));
#182 = CYLINDRICAL_SURFACE('',#183,4.);
#183 = AXIS2_PLACEMENT_3D('',#184,#185,#186);
#184 = CARTESIAN_POINT('',(114.,-70.,-45.));
#185 = DIRECTION('',(1.,0.,1.110223024625E-16));
#186 = DIRECTION('',(1.110223024625E-16,0.,-1.));
#187 = ADVANCED_FACE('',(#188),#213,.T.);
#188 = FACE_BOUND('',#189,.T.);
#189 = EDGE_LOOP('',(#190,#198,#199,#207));
#190 = ORIENTED_EDGE('',*,*,#191,.F.);
#191 = EDGE_CURVE('',#135,#192,#194,.T.);
#192 = VERTEX_POINT('',#193);
#193 = CARTESIAN_POINT('',(114.,74.,-45.));
#194 = LINE('',#195,#196);
#195 = CARTESIAN_POINT('',(114.,74.,91.));
#196 = VECTOR('',#197,1.);
#197 = DIRECTION('',(1.110223024625E-16,0.,-1.));
#198 = ORIENTED_EDGE('',*,*,#134,.T.);
#199 = ORIENTED_EDGE('',*,*,#200,.T.);
#200 = EDGE_CURVE('',#126,#201,#203,.T.);
#201 = VERTEX_POINT('',#202);
#202 = CARTESIAN_POINT('',(117.,74.,-45.));
#203 = LINE('',#204,#205);
#204 = CARTESIAN_POINT('',(117.,74.,91.));
#205 = VECTOR('',#206,1.);
#206 = DIRECTION('',(1.110223024625E-16,0.,-1.));
#207 = ORIENTED_EDGE('',*,*,#208,.F.);
#208 = EDGE_CURVE('',#192,#201,#209,.T.);
#209 = LINE('',#210,#211);
#210 = CARTESIAN_POINT('',(114.,74.,-45.));
#211 = VECTOR('',#212,1.);
#212 = DIRECTION('',(1.,0.,1.110223024625E-16));
#213 = PLANE('',#214);
#214 = AXIS2_PLACEMENT_3D('',#215,#216,#217);
#215 = CARTESIAN_POINT('',(114.,74.,91.));
#216 = DIRECTION('',(0.,1.,0.));
#217 = DIRECTION('',(1.,0.,1.110223024625E-16));
#218 = ADVANCED_FACE('',(#219),#244,.T.);
#219 = FACE_BOUND('',#220,.T.);
#220 = EDGE_LOOP('',(#221,#222,#230,#238));
#221 = ORIENTED_EDGE('',*,*,#177,.F.);
#222 = ORIENTED_EDGE('',*,*,#223,.T.);
#223 = EDGE_CURVE('',#169,#224,#226,.T.);
#224 = VERTEX_POINT('',#225);
#225 = CARTESIAN_POINT('',(114.,70.,-49.));
#226 = LINE('',#227,#228);
#227 = CARTESIAN_POINT('',(114.,-70.,-49.));
#228 = VECTOR('',#229,1.);
#229 = DIRECTION('',(0.,1.,0.));
#230 = ORIENTED_EDGE('',*,*,#231,.T.);
#231 = EDGE_CURVE('',#224,#232,#234,.T.);
#232 = VERTEX_POINT('',#233);
#233 = CARTESIAN_POINT('',(117.,70.,-49.));
#234 = LINE('',#235,#236);
#235 = CARTESIAN_POINT('',(114.,70.,-49.));
#236 = VECTOR('',#237,1.);
#237 = DIRECTION('',(1.,0.,1.110223024625E-16));
#238 = ORIENTED_EDGE('',*,*,#239,.F.);
#239 = EDGE_CURVE('',#159,#232,#240,.T.);
#240 = LINE('',#241,#242);
#241 = CARTESIAN_POINT('',(117.,-70.,-49.));
#242 = VECTOR('',#243,1.);
#243 = DIRECTION('',(0.,1.,0.));
#244 = PLANE('',#245);
#245 = AXIS2_PLACEMENT_3D('',#246,#247,#248);
#246 = CARTESIAN_POINT('',(114.,-70.,-49.));
#247 = DIRECTION('',(1.110223024625E-16,0.,-1.));
#248 = DIRECTION('',(1.,0.,1.110223024625E-16));
#249 = ADVANCED_FACE('',(#250),#268,.T.);
#250 = FACE_BOUND('',#251,.T.);
#251 = EDGE_LOOP('',(#252,#259,#260,#267));
#252 = ORIENTED_EDGE('',*,*,#253,.F.);
#253 = EDGE_CURVE('',#232,#201,#254,.T.);
#254 = CIRCLE('',#255,4.);
#255 = AXIS2_PLACEMENT_3D('',#256,#257,#258);
#256 = CARTESIAN_POINT('',(117.,70.,-45.));
#257 = DIRECTION('',(1.,-0.,1.110223024625E-16));
#258 = DIRECTION('',(1.110223024625E-16,0.,-1.));
#259 = ORIENTED_EDGE('',*,*,#231,.F.);
#260 = ORIENTED_EDGE('',*,*,#261,.T.);
#261 = EDGE_CURVE('',#224,#192,#262,.T.);
#262 = CIRCLE('',#263,4.);
#263 = AXIS2_PLACEMENT_3D('',#264,#265,#266);
#264 = CARTESIAN_POINT('',(114.,70.,-45.));
#265 = DIRECTION('',(1.,-0.,1.110223024625E-16));
#266 = DIRECTION('',(1.110223024625E-16,0.,-1.));
#267 = ORIENTED_EDGE('',*,*,#208,.T.);
#268 = CYLINDRICAL_SURFACE('',#269,4.);
#269 = AXIS2_PLACEMENT_3D('',#270,#271,#272);
#270 = CARTESIAN_POINT('',(114.,70.,-45.));
#271 = DIRECTION('',(1.,0.,1.110223024625E-16));
#272 = DIRECTION('',(1.110223024625E-16,0.,-1.));
#273 = ADVANCED_FACE('',(#274,#284,#382,#452,#463,#474,#485,#496,#507,
    #518,#529,#540,#551,#562,#573),#584,.T.);
#274 = FACE_BOUND('',#275,.T.);
#275 = EDGE_LOOP('',(#276,#277,#278,#279,#280,#281,#282,#283));
#276 = ORIENTED_EDGE('',*,*,#21,.T.);
#277 = ORIENTED_EDGE('',*,*,#72,.T.);
#278 = ORIENTED_EDGE('',*,*,#158,.T.);
#279 = ORIENTED_EDGE('',*,*,#239,.T.);
#280 = ORIENTED_EDGE('',*,*,#253,.T.);
#281 = ORIENTED_EDGE('',*,*,#200,.F.);
#282 = ORIENTED_EDGE('',*,*,#125,.T.);
#283 = ORIENTED_EDGE('',*,*,#111,.F.);
#284 = FACE_BOUND('',#285,.T.);
#285 = EDGE_LOOP('',(#286,#296,#304,#312,#320,#328,#336,#344,#352,#360,
    #368,#376));
#286 = ORIENTED_EDGE('',*,*,#287,.T.);
#287 = EDGE_CURVE('',#288,#290,#292,.T.);
#288 = VERTEX_POINT('',#289);
#289 = CARTESIAN_POINT('',(117.,-61.5,-39.5));
#290 = VERTEX_POINT('',#291);
#291 = CARTESIAN_POINT('',(117.,-61.5,31.5));
#292 = LINE('',#293,#294);
#293 = CARTESIAN_POINT('',(117.,-61.5,29.05));
#294 = VECTOR('',#295,1.);
#295 = DIRECTION('',(-1.110223024625E-16,0.,1.));
#296 = ORIENTED_EDGE('',*,*,#297,.T.);
#297 = EDGE_CURVE('',#290,#298,#300,.T.);
#298 = VERTEX_POINT('',#299);
#299 = CARTESIAN_POINT('',(117.,-60.5,31.5));
#300 = LINE('',#301,#302);
#301 = CARTESIAN_POINT('',(117.,-61.5,31.5));
#302 = VECTOR('',#303,1.);
#303 = DIRECTION('',(-0.,1.,0.));
#304 = ORIENTED_EDGE('',*,*,#305,.T.);
#305 = EDGE_CURVE('',#298,#306,#308,.T.);
#306 = VERTEX_POINT('',#307);
#307 = CARTESIAN_POINT('',(117.,-60.5,35.5));
#308 = LINE('',#309,#310);
#309 = CARTESIAN_POINT('',(117.,-60.5,31.5));
#310 = VECTOR('',#311,1.);
#311 = DIRECTION('',(0.,0.,1.));
#312 = ORIENTED_EDGE('',*,*,#313,.T.);
#313 = EDGE_CURVE('',#306,#314,#316,.T.);
#314 = VERTEX_POINT('',#315);
#315 = CARTESIAN_POINT('',(117.,60.5,35.5));
#316 = LINE('',#317,#318);
#317 = CARTESIAN_POINT('',(117.,-30.55,35.5));
#318 = VECTOR('',#319,1.);
#319 = DIRECTION('',(-0.,1.,0.));
#320 = ORIENTED_EDGE('',*,*,#321,.F.);
#321 = EDGE_CURVE('',#322,#314,#324,.T.);
#322 = VERTEX_POINT('',#323);
#323 = CARTESIAN_POINT('',(117.,60.5,31.5));
#324 = LINE('',#325,#326);
#325 = CARTESIAN_POINT('',(117.,60.5,31.5));
#326 = VECTOR('',#327,1.);
#327 = DIRECTION('',(0.,0.,1.));
#328 = ORIENTED_EDGE('',*,*,#329,.T.);
#329 = EDGE_CURVE('',#322,#330,#332,.T.);
#330 = VERTEX_POINT('',#331);
#331 = CARTESIAN_POINT('',(117.,61.5,31.5));
#332 = LINE('',#333,#334);
#333 = CARTESIAN_POINT('',(117.,60.5,31.5));
#334 = VECTOR('',#335,1.);
#335 = DIRECTION('',(-0.,1.,0.));
#336 = ORIENTED_EDGE('',*,*,#337,.F.);
#337 = EDGE_CURVE('',#338,#330,#340,.T.);
#338 = VERTEX_POINT('',#339);
#339 = CARTESIAN_POINT('',(117.,61.5,-39.5));
#340 = LINE('',#341,#342);
#341 = CARTESIAN_POINT('',(117.,61.5,29.05));
#342 = VECTOR('',#343,1.);
#343 = DIRECTION('',(-1.110223024625E-16,0.,1.));
#344 = ORIENTED_EDGE('',*,*,#345,.F.);
#345 = EDGE_CURVE('',#346,#338,#348,.T.);
#346 = VERTEX_POINT('',#347);
#347 = CARTESIAN_POINT('',(117.,60.5,-39.5));
#348 = LINE('',#349,#350);
#349 = CARTESIAN_POINT('',(117.,60.5,-39.5));
#350 = VECTOR('',#351,1.);
#351 = DIRECTION('',(-0.,1.,0.));
#352 = ORIENTED_EDGE('',*,*,#353,.F.);
#353 = EDGE_CURVE('',#354,#346,#356,.T.);
#354 = VERTEX_POINT('',#355);
#355 = CARTESIAN_POINT('',(117.,60.5,-43.5));
#356 = LINE('',#357,#358);
#357 = CARTESIAN_POINT('',(117.,60.5,-43.5));
#358 = VECTOR('',#359,1.);
#359 = DIRECTION('',(0.,0.,1.));
#360 = ORIENTED_EDGE('',*,*,#361,.F.);
#361 = EDGE_CURVE('',#362,#354,#364,.T.);
#362 = VERTEX_POINT('',#363);
#363 = CARTESIAN_POINT('',(117.,-60.5,-43.5));
#364 = LINE('',#365,#366);
#365 = CARTESIAN_POINT('',(117.,-30.55,-43.5));
#366 = VECTOR('',#367,1.);
#367 = DIRECTION('',(-0.,1.,0.));
#368 = ORIENTED_EDGE('',*,*,#369,.T.);
#369 = EDGE_CURVE('',#362,#370,#372,.T.);
#370 = VERTEX_POINT('',#371);
#371 = CARTESIAN_POINT('',(117.,-60.5,-39.5));
#372 = LINE('',#373,#374);
#373 = CARTESIAN_POINT('',(117.,-60.5,-43.5));
#374 = VECTOR('',#375,1.);
#375 = DIRECTION('',(0.,0.,1.));
#376 = ORIENTED_EDGE('',*,*,#377,.F.);
#377 = EDGE_CURVE('',#288,#370,#378,.T.);
#378 = LINE('',#379,#380);
#379 = CARTESIAN_POINT('',(117.,-61.5,-39.5));
#380 = VECTOR('',#381,1.);
#381 = DIRECTION('',(-0.,1.,0.));
#382 = FACE_BOUND('',#383,.T.);
#383 = EDGE_LOOP('',(#384,#395,#403,#412,#420,#429,#437,#446));
#384 = ORIENTED_EDGE('',*,*,#385,.F.);
#385 = EDGE_CURVE('',#386,#388,#390,.T.);
#386 = VERTEX_POINT('',#387);
#387 = CARTESIAN_POINT('',(117.,-45.,73.8));
#388 = VERTEX_POINT('',#389);
#389 = CARTESIAN_POINT('',(117.,-45.3,73.5));
#390 = CIRCLE('',#391,0.3);
#391 = AXIS2_PLACEMENT_3D('',#392,#393,#394);
#392 = CARTESIAN_POINT('',(117.,-45.,73.5));
#393 = DIRECTION('',(1.,0.,1.110223024625E-16));
#394 = DIRECTION('',(1.110223024625E-16,0.,-1.));
#395 = ORIENTED_EDGE('',*,*,#396,.T.);
#396 = EDGE_CURVE('',#386,#397,#399,.T.);
#397 = VERTEX_POINT('',#398);
#398 = CARTESIAN_POINT('',(117.,45.,73.8));
#399 = LINE('',#400,#401);
#400 = CARTESIAN_POINT('',(117.,-22.5,73.8));
#401 = VECTOR('',#402,1.);
#402 = DIRECTION('',(-0.,1.,0.));
#403 = ORIENTED_EDGE('',*,*,#404,.F.);
#404 = EDGE_CURVE('',#405,#397,#407,.T.);
#405 = VERTEX_POINT('',#406);
#406 = CARTESIAN_POINT('',(117.,45.3,73.5));
#407 = CIRCLE('',#408,0.3);
#408 = AXIS2_PLACEMENT_3D('',#409,#410,#411);
#409 = CARTESIAN_POINT('',(117.,45.,73.5));
#410 = DIRECTION('',(1.,0.,1.110223024625E-16));
#411 = DIRECTION('',(1.110223024625E-16,0.,-1.));
#412 = ORIENTED_EDGE('',*,*,#413,.F.);
#413 = EDGE_CURVE('',#414,#405,#416,.T.);
#414 = VERTEX_POINT('',#415);
#415 = CARTESIAN_POINT('',(117.,45.3,48.5));
#416 = LINE('',#417,#418);
#417 = CARTESIAN_POINT('',(117.,45.3,48.25));
#418 = VECTOR('',#419,1.);
#419 = DIRECTION('',(-1.110223024625E-16,0.,1.));
#420 = ORIENTED_EDGE('',*,*,#421,.F.);
#421 = EDGE_CURVE('',#422,#414,#424,.T.);
#422 = VERTEX_POINT('',#423);
#423 = CARTESIAN_POINT('',(117.,45.,48.2));
#424 = CIRCLE('',#425,0.3);
#425 = AXIS2_PLACEMENT_3D('',#426,#427,#428);
#426 = CARTESIAN_POINT('',(117.,45.,48.5));
#427 = DIRECTION('',(1.,0.,1.110223024625E-16));
#428 = DIRECTION('',(1.110223024625E-16,0.,-1.));
#429 = ORIENTED_EDGE('',*,*,#430,.F.);
#430 = EDGE_CURVE('',#431,#422,#433,.T.);
#431 = VERTEX_POINT('',#432);
#432 = CARTESIAN_POINT('',(117.,-45.,48.2));
#433 = LINE('',#434,#435);
#434 = CARTESIAN_POINT('',(117.,-22.5,48.2));
#435 = VECTOR('',#436,1.);
#436 = DIRECTION('',(-0.,1.,0.));
#437 = ORIENTED_EDGE('',*,*,#438,.F.);
#438 = EDGE_CURVE('',#439,#431,#441,.T.);
#439 = VERTEX_POINT('',#440);
#440 = CARTESIAN_POINT('',(117.,-45.3,48.5));
#441 = CIRCLE('',#442,0.3);
#442 = AXIS2_PLACEMENT_3D('',#443,#444,#445);
#443 = CARTESIAN_POINT('',(117.,-45.,48.5));
#444 = DIRECTION('',(1.,0.,1.110223024625E-16));
#445 = DIRECTION('',(1.110223024625E-16,0.,-1.));
#446 = ORIENTED_EDGE('',*,*,#447,.T.);
#447 = EDGE_CURVE('',#439,#388,#448,.T.);
#448 = LINE('',#449,#450);
#449 = CARTESIAN_POINT('',(117.,-45.3,48.25));
#450 = VECTOR('',#451,1.);
#451 = DIRECTION('',(-1.110223024625E-16,0.,1.));
#452 = FACE_BOUND('',#453,.T.);
#453 = EDGE_LOOP('',(#454));
#454 = ORIENTED_EDGE('',*,*,#455,.F.);
#455 = EDGE_CURVE('',#456,#456,#458,.T.);
#456 = VERTEX_POINT('',#457);
#457 = CARTESIAN_POINT('',(117.,-68.,89.7));
#458 = CIRCLE('',#459,1.7);
#459 = AXIS2_PLACEMENT_3D('',#460,#461,#462);
#460 = CARTESIAN_POINT('',(117.,-68.,88.));
#461 = DIRECTION('',(1.,0.,0.));
#462 = DIRECTION('',(-0.,0.,1.));
#463 = FACE_BOUND('',#464,.T.);
#464 = EDGE_LOOP('',(#465));
#465 = ORIENTED_EDGE('',*,*,#466,.F.);
#466 = EDGE_CURVE('',#467,#467,#469,.T.);
#467 = VERTEX_POINT('',#468);
#468 = CARTESIAN_POINT('',(117.,-50.,71.2));
#469 = CIRCLE('',#470,1.7);
#470 = AXIS2_PLACEMENT_3D('',#471,#472,#473);
#471 = CARTESIAN_POINT('',(117.,-50.,69.5));
#472 = DIRECTION('',(1.,0.,0.));
#473 = DIRECTION('',(-0.,0.,1.));
#474 = FACE_BOUND('',#475,.T.);
#475 = EDGE_LOOP('',(#476));
#476 = ORIENTED_EDGE('',*,*,#477,.F.);
#477 = EDGE_CURVE('',#478,#478,#480,.T.);
#478 = VERTEX_POINT('',#479);
#479 = CARTESIAN_POINT('',(117.,-50.,55.2));
#480 = CIRCLE('',#481,1.7);
#481 = AXIS2_PLACEMENT_3D('',#482,#483,#484);
#482 = CARTESIAN_POINT('',(117.,-50.,53.5));
#483 = DIRECTION('',(1.,0.,0.));
#484 = DIRECTION('',(-0.,0.,1.));
#485 = FACE_BOUND('',#486,.T.);
#486 = EDGE_LOOP('',(#487));
#487 = ORIENTED_EDGE('',*,*,#488,.F.);
#488 = EDGE_CURVE('',#489,#489,#491,.T.);
#489 = VERTEX_POINT('',#490);
#490 = CARTESIAN_POINT('',(117.,-67.,-32.3));
#491 = CIRCLE('',#492,1.7);
#492 = AXIS2_PLACEMENT_3D('',#493,#494,#495);
#493 = CARTESIAN_POINT('',(117.,-67.,-34.));
#494 = DIRECTION('',(1.,0.,0.));
#495 = DIRECTION('',(-0.,0.,1.));
#496 = FACE_BOUND('',#497,.T.);
#497 = EDGE_LOOP('',(#498));
#498 = ORIENTED_EDGE('',*,*,#499,.F.);
#499 = EDGE_CURVE('',#500,#500,#502,.T.);
#500 = VERTEX_POINT('',#501);
#501 = CARTESIAN_POINT('',(117.,-68.,-42.3));
#502 = CIRCLE('',#503,1.7);
#503 = AXIS2_PLACEMENT_3D('',#504,#505,#506);
#504 = CARTESIAN_POINT('',(117.,-68.,-44.));
#505 = DIRECTION('',(1.,0.,0.));
#506 = DIRECTION('',(-0.,0.,1.));
#507 = FACE_BOUND('',#508,.T.);
#508 = EDGE_LOOP('',(#509));
#509 = ORIENTED_EDGE('',*,*,#510,.F.);
#510 = EDGE_CURVE('',#511,#511,#513,.T.);
#511 = VERTEX_POINT('',#512);
#512 = CARTESIAN_POINT('',(117.,50.,71.2));
#513 = CIRCLE('',#514,1.7);
#514 = AXIS2_PLACEMENT_3D('',#515,#516,#517);
#515 = CARTESIAN_POINT('',(117.,50.,69.5));
#516 = DIRECTION('',(1.,0.,0.));
#517 = DIRECTION('',(-0.,0.,1.));
#518 = FACE_BOUND('',#519,.T.);
#519 = EDGE_LOOP('',(#520));
#520 = ORIENTED_EDGE('',*,*,#521,.F.);
#521 = EDGE_CURVE('',#522,#522,#524,.T.);
#522 = VERTEX_POINT('',#523);
#523 = CARTESIAN_POINT('',(117.,68.,89.7));
#524 = CIRCLE('',#525,1.7);
#525 = AXIS2_PLACEMENT_3D('',#526,#527,#528);
#526 = CARTESIAN_POINT('',(117.,68.,88.));
#527 = DIRECTION('',(1.,0.,0.));
#528 = DIRECTION('',(-0.,0.,1.));
#529 = FACE_BOUND('',#530,.T.);
#530 = EDGE_LOOP('',(#531));
#531 = ORIENTED_EDGE('',*,*,#532,.F.);
#532 = EDGE_CURVE('',#533,#533,#535,.T.);
#533 = VERTEX_POINT('',#534);
#534 = CARTESIAN_POINT('',(117.,50.,55.2));
#535 = CIRCLE('',#536,1.7);
#536 = AXIS2_PLACEMENT_3D('',#537,#538,#539);
#537 = CARTESIAN_POINT('',(117.,50.,53.5));
#538 = DIRECTION('',(1.,0.,0.));
#539 = DIRECTION('',(-0.,0.,1.));
#540 = FACE_BOUND('',#541,.T.);
#541 = EDGE_LOOP('',(#542));
#542 = ORIENTED_EDGE('',*,*,#543,.F.);
#543 = EDGE_CURVE('',#544,#544,#546,.T.);
#544 = VERTEX_POINT('',#545);
#545 = CARTESIAN_POINT('',(117.,67.,-32.3));
#546 = CIRCLE('',#547,1.7);
#547 = AXIS2_PLACEMENT_3D('',#548,#549,#550);
#548 = CARTESIAN_POINT('',(117.,67.,-34.));
#549 = DIRECTION('',(1.,0.,0.));
#550 = DIRECTION('',(-0.,0.,1.));
#551 = FACE_BOUND('',#552,.T.);
#552 = EDGE_LOOP('',(#553));
#553 = ORIENTED_EDGE('',*,*,#554,.F.);
#554 = EDGE_CURVE('',#555,#555,#557,.T.);
#555 = VERTEX_POINT('',#556);
#556 = CARTESIAN_POINT('',(117.,68.,-42.3));
#557 = CIRCLE('',#558,1.7);
#558 = AXIS2_PLACEMENT_3D('',#559,#560,#561);
#559 = CARTESIAN_POINT('',(117.,68.,-44.));
#560 = DIRECTION('',(1.,0.,0.));
#561 = DIRECTION('',(-0.,0.,1.));
#562 = FACE_BOUND('',#563,.T.);
#563 = EDGE_LOOP('',(#564));
#564 = ORIENTED_EDGE('',*,*,#565,.F.);
#565 = EDGE_CURVE('',#566,#566,#568,.T.);
#566 = VERTEX_POINT('',#567);
#567 = CARTESIAN_POINT('',(117.,-67.,27.7));
#568 = CIRCLE('',#569,1.7);
#569 = AXIS2_PLACEMENT_3D('',#570,#571,#572);
#570 = CARTESIAN_POINT('',(117.,-67.,26.));
#571 = DIRECTION('',(1.,0.,0.));
#572 = DIRECTION('',(-0.,0.,1.));
#573 = FACE_BOUND('',#574,.T.);
#574 = EDGE_LOOP('',(#575));
#575 = ORIENTED_EDGE('',*,*,#576,.F.);
#576 = EDGE_CURVE('',#577,#577,#579,.T.);
#577 = VERTEX_POINT('',#578);
#578 = CARTESIAN_POINT('',(117.,67.,27.7));
#579 = CIRCLE('',#580,1.7);
#580 = AXIS2_PLACEMENT_3D('',#581,#582,#583);
#581 = CARTESIAN_POINT('',(117.,67.,26.));
#582 = DIRECTION('',(1.,0.,0.));
#583 = DIRECTION('',(-0.,0.,1.));
#584 = PLANE('',#585);
#585 = AXIS2_PLACEMENT_3D('',#586,#587,#588);
#586 = CARTESIAN_POINT('',(117.,-1.57666640855E-15,23.));
#587 = DIRECTION('',(1.,0.,0.));
#588 = DIRECTION('',(-0.,0.,1.));
#589 = ADVANCED_FACE('',(#590),#615,.F.);
#590 = FACE_BOUND('',#591,.F.);
#591 = EDGE_LOOP('',(#592,#602,#608,#609));
#592 = ORIENTED_EDGE('',*,*,#593,.F.);
#593 = EDGE_CURVE('',#594,#596,#598,.T.);
#594 = VERTEX_POINT('',#595);
#595 = CARTESIAN_POINT('',(114.,61.5,31.5));
#596 = VERTEX_POINT('',#597);
#597 = CARTESIAN_POINT('',(114.,61.5,-39.5));
#598 = LINE('',#599,#600);
#599 = CARTESIAN_POINT('',(114.,61.5,29.05));
#600 = VECTOR('',#601,1.);
#601 = DIRECTION('',(1.110223024625E-16,0.,-1.));
#602 = ORIENTED_EDGE('',*,*,#603,.T.);
#603 = EDGE_CURVE('',#594,#330,#604,.T.);
#604 = LINE('',#605,#606);
#605 = CARTESIAN_POINT('',(114.,61.5,31.5));
#606 = VECTOR('',#607,1.);
#607 = DIRECTION('',(1.,0.,-0.));
#608 = ORIENTED_EDGE('',*,*,#337,.F.);
#609 = ORIENTED_EDGE('',*,*,#610,.F.);
#610 = EDGE_CURVE('',#596,#338,#611,.T.);
#611 = LINE('',#612,#613);
#612 = CARTESIAN_POINT('',(114.,61.5,-39.5));
#613 = VECTOR('',#614,1.);
#614 = DIRECTION('',(1.,0.,-0.));
#615 = PLANE('',#616);
#616 = AXIS2_PLACEMENT_3D('',#617,#618,#619);
#617 = CARTESIAN_POINT('',(113.8,61.5,35.1));
#618 = DIRECTION('',(0.,1.,0.));
#619 = DIRECTION('',(1.,0.,1.110223024625E-16));
#620 = ADVANCED_FACE('',(#621),#639,.T.);
#621 = FACE_BOUND('',#622,.T.);
#622 = EDGE_LOOP('',(#623,#631,#637,#638));
#623 = ORIENTED_EDGE('',*,*,#624,.F.);
#624 = EDGE_CURVE('',#625,#596,#627,.T.);
#625 = VERTEX_POINT('',#626);
#626 = CARTESIAN_POINT('',(114.,60.5,-39.5));
#627 = LINE('',#628,#629);
#628 = CARTESIAN_POINT('',(114.,60.5,-39.5));
#629 = VECTOR('',#630,1.);
#630 = DIRECTION('',(-0.,1.,0.));
#631 = ORIENTED_EDGE('',*,*,#632,.T.);
#632 = EDGE_CURVE('',#625,#346,#633,.T.);
#633 = LINE('',#634,#635);
#634 = CARTESIAN_POINT('',(114.,60.5,-39.5));
#635 = VECTOR('',#636,1.);
#636 = DIRECTION('',(1.,0.,-0.));
#637 = ORIENTED_EDGE('',*,*,#345,.T.);
#638 = ORIENTED_EDGE('',*,*,#610,.F.);
#639 = PLANE('',#640);
#640 = AXIS2_PLACEMENT_3D('',#641,#642,#643);
#641 = CARTESIAN_POINT('',(114.,60.5,-39.5));
#642 = DIRECTION('',(0.,0.,1.));
#643 = DIRECTION('',(1.,0.,-0.));
#644 = ADVANCED_FACE('',(#645),#670,.F.);
#645 = FACE_BOUND('',#646,.F.);
#646 = EDGE_LOOP('',(#647,#655,#663,#669));
#647 = ORIENTED_EDGE('',*,*,#648,.F.);
#648 = EDGE_CURVE('',#649,#362,#651,.T.);
#649 = VERTEX_POINT('',#650);
#650 = CARTESIAN_POINT('',(114.,-60.5,-43.5));
#651 = LINE('',#652,#653);
#652 = CARTESIAN_POINT('',(114.,-60.5,-43.5));
#653 = VECTOR('',#654,1.);
#654 = DIRECTION('',(1.,0.,-0.));
#655 = ORIENTED_EDGE('',*,*,#656,.F.);
#656 = EDGE_CURVE('',#657,#649,#659,.T.);
#657 = VERTEX_POINT('',#658);
#658 = CARTESIAN_POINT('',(114.,60.5,-43.5));
#659 = LINE('',#660,#661);
#660 = CARTESIAN_POINT('',(114.,-30.55,-43.5));
#661 = VECTOR('',#662,1.);
#662 = DIRECTION('',(0.,-1.,0.));
#663 = ORIENTED_EDGE('',*,*,#664,.T.);
#664 = EDGE_CURVE('',#657,#354,#665,.T.);
#665 = LINE('',#666,#667);
#666 = CARTESIAN_POINT('',(114.,60.5,-43.5));
#667 = VECTOR('',#668,1.);
#668 = DIRECTION('',(1.,0.,-0.));
#669 = ORIENTED_EDGE('',*,*,#361,.F.);
#670 = PLANE('',#671);
#671 = AXIS2_PLACEMENT_3D('',#672,#673,#674);
#672 = CARTESIAN_POINT('',(113.8,-61.1,-43.5));
#673 = DIRECTION('',(1.110223024625E-16,0.,-1.));
#674 = DIRECTION('',(1.,0.,1.110223024625E-16));
#675 = ADVANCED_FACE('',(#676),#694,.T.);
#676 = FACE_BOUND('',#677,.T.);
#677 = EDGE_LOOP('',(#678,#679,#687,#693));
#678 = ORIENTED_EDGE('',*,*,#648,.F.);
#679 = ORIENTED_EDGE('',*,*,#680,.T.);
#680 = EDGE_CURVE('',#649,#681,#683,.T.);
#681 = VERTEX_POINT('',#682);
#682 = CARTESIAN_POINT('',(114.,-60.5,-39.5));
#683 = LINE('',#684,#685);
#684 = CARTESIAN_POINT('',(114.,-60.5,-43.5));
#685 = VECTOR('',#686,1.);
#686 = DIRECTION('',(0.,0.,1.));
#687 = ORIENTED_EDGE('',*,*,#688,.T.);
#688 = EDGE_CURVE('',#681,#370,#689,.T.);
#689 = LINE('',#690,#691);
#690 = CARTESIAN_POINT('',(114.,-60.5,-39.5));
#691 = VECTOR('',#692,1.);
#692 = DIRECTION('',(1.,0.,-0.));
#693 = ORIENTED_EDGE('',*,*,#369,.F.);
#694 = PLANE('',#695);
#695 = AXIS2_PLACEMENT_3D('',#696,#697,#698);
#696 = CARTESIAN_POINT('',(114.,-60.5,-43.5));
#697 = DIRECTION('',(-0.,1.,0.));
#698 = DIRECTION('',(0.,0.,1.));
#699 = ADVANCED_FACE('',(#700),#725,.T.);
#700 = FACE_BOUND('',#701,.T.);
#701 = EDGE_LOOP('',(#702,#710,#718,#724));
#702 = ORIENTED_EDGE('',*,*,#703,.F.);
#703 = EDGE_CURVE('',#704,#306,#706,.T.);
#704 = VERTEX_POINT('',#705);
#705 = CARTESIAN_POINT('',(114.,-60.5,35.5));
#706 = LINE('',#707,#708);
#707 = CARTESIAN_POINT('',(114.,-60.5,35.5));
#708 = VECTOR('',#709,1.);
#709 = DIRECTION('',(1.,0.,-0.));
#710 = ORIENTED_EDGE('',*,*,#711,.F.);
#711 = EDGE_CURVE('',#712,#704,#714,.T.);
#712 = VERTEX_POINT('',#713);
#713 = CARTESIAN_POINT('',(114.,60.5,35.5));
#714 = LINE('',#715,#716);
#715 = CARTESIAN_POINT('',(114.,-30.55,35.5));
#716 = VECTOR('',#717,1.);
#717 = DIRECTION('',(0.,-1.,0.));
#718 = ORIENTED_EDGE('',*,*,#719,.T.);
#719 = EDGE_CURVE('',#712,#314,#720,.T.);
#720 = LINE('',#721,#722);
#721 = CARTESIAN_POINT('',(114.,60.5,35.5));
#722 = VECTOR('',#723,1.);
#723 = DIRECTION('',(1.,0.,-0.));
#724 = ORIENTED_EDGE('',*,*,#313,.F.);
#725 = PLANE('',#726);
#726 = AXIS2_PLACEMENT_3D('',#727,#728,#729);
#727 = CARTESIAN_POINT('',(113.8,-61.1,35.5));
#728 = DIRECTION('',(1.110223024625E-16,0.,-1.));
#729 = DIRECTION('',(1.,0.,1.110223024625E-16));
#730 = ADVANCED_FACE('',(#731),#749,.T.);
#731 = FACE_BOUND('',#732,.T.);
#732 = EDGE_LOOP('',(#733,#741,#747,#748));
#733 = ORIENTED_EDGE('',*,*,#734,.F.);
#734 = EDGE_CURVE('',#735,#298,#737,.T.);
#735 = VERTEX_POINT('',#736);
#736 = CARTESIAN_POINT('',(114.,-60.5,31.5));
#737 = LINE('',#738,#739);
#738 = CARTESIAN_POINT('',(114.,-60.5,31.5));
#739 = VECTOR('',#740,1.);
#740 = DIRECTION('',(1.,0.,-0.));
#741 = ORIENTED_EDGE('',*,*,#742,.T.);
#742 = EDGE_CURVE('',#735,#704,#743,.T.);
#743 = LINE('',#744,#745);
#744 = CARTESIAN_POINT('',(114.,-60.5,31.5));
#745 = VECTOR('',#746,1.);
#746 = DIRECTION('',(0.,0.,1.));
#747 = ORIENTED_EDGE('',*,*,#703,.T.);
#748 = ORIENTED_EDGE('',*,*,#305,.F.);
#749 = PLANE('',#750);
#750 = AXIS2_PLACEMENT_3D('',#751,#752,#753);
#751 = CARTESIAN_POINT('',(114.,-60.5,31.5));
#752 = DIRECTION('',(-0.,1.,0.));
#753 = DIRECTION('',(0.,0.,1.));
#754 = ADVANCED_FACE('',(#755),#773,.F.);
#755 = FACE_BOUND('',#756,.F.);
#756 = EDGE_LOOP('',(#757,#765,#771,#772));
#757 = ORIENTED_EDGE('',*,*,#758,.F.);
#758 = EDGE_CURVE('',#759,#735,#761,.T.);
#759 = VERTEX_POINT('',#760);
#760 = CARTESIAN_POINT('',(114.,-61.5,31.5));
#761 = LINE('',#762,#763);
#762 = CARTESIAN_POINT('',(114.,-61.5,31.5));
#763 = VECTOR('',#764,1.);
#764 = DIRECTION('',(-0.,1.,0.));
#765 = ORIENTED_EDGE('',*,*,#766,.T.);
#766 = EDGE_CURVE('',#759,#290,#767,.T.);
#767 = LINE('',#768,#769);
#768 = CARTESIAN_POINT('',(114.,-61.5,31.5));
#769 = VECTOR('',#770,1.);
#770 = DIRECTION('',(1.,0.,-0.));
#771 = ORIENTED_EDGE('',*,*,#297,.T.);
#772 = ORIENTED_EDGE('',*,*,#734,.F.);
#773 = PLANE('',#774);
#774 = AXIS2_PLACEMENT_3D('',#775,#776,#777);
#775 = CARTESIAN_POINT('',(114.,-61.5,31.5));
#776 = DIRECTION('',(0.,0.,1.));
#777 = DIRECTION('',(1.,0.,-0.));
#778 = ADVANCED_FACE('',(#779),#797,.T.);
#779 = FACE_BOUND('',#780,.T.);
#780 = EDGE_LOOP('',(#781,#789,#790,#791));
#781 = ORIENTED_EDGE('',*,*,#782,.F.);
#782 = EDGE_CURVE('',#759,#783,#785,.T.);
#783 = VERTEX_POINT('',#784);
#784 = CARTESIAN_POINT('',(114.,-61.5,-39.5));
#785 = LINE('',#786,#787);
#786 = CARTESIAN_POINT('',(114.,-61.5,29.05));
#787 = VECTOR('',#788,1.);
#788 = DIRECTION('',(1.110223024625E-16,0.,-1.));
#789 = ORIENTED_EDGE('',*,*,#766,.T.);
#790 = ORIENTED_EDGE('',*,*,#287,.F.);
#791 = ORIENTED_EDGE('',*,*,#792,.F.);
#792 = EDGE_CURVE('',#783,#288,#793,.T.);
#793 = LINE('',#794,#795);
#794 = CARTESIAN_POINT('',(114.,-61.5,-39.5));
#795 = VECTOR('',#796,1.);
#796 = DIRECTION('',(1.,0.,-0.));
#797 = PLANE('',#798);
#798 = AXIS2_PLACEMENT_3D('',#799,#800,#801);
#799 = CARTESIAN_POINT('',(113.8,-61.5,35.1));
#800 = DIRECTION('',(0.,1.,0.));
#801 = DIRECTION('',(1.,0.,1.110223024625E-16));
#802 = ADVANCED_FACE('',(#803),#814,.T.);
#803 = FACE_BOUND('',#804,.T.);
#804 = EDGE_LOOP('',(#805,#811,#812,#813));
#805 = ORIENTED_EDGE('',*,*,#806,.F.);
#806 = EDGE_CURVE('',#783,#681,#807,.T.);
#807 = LINE('',#808,#809);
#808 = CARTESIAN_POINT('',(114.,-61.5,-39.5));
#809 = VECTOR('',#810,1.);
#810 = DIRECTION('',(-0.,1.,0.));
#811 = ORIENTED_EDGE('',*,*,#792,.T.);
#812 = ORIENTED_EDGE('',*,*,#377,.T.);
#813 = ORIENTED_EDGE('',*,*,#688,.F.);
#814 = PLANE('',#815);
#815 = AXIS2_PLACEMENT_3D('',#816,#817,#818);
#816 = CARTESIAN_POINT('',(114.,-61.5,-39.5));
#817 = DIRECTION('',(0.,0.,1.));
#818 = DIRECTION('',(1.,0.,-0.));
#819 = ADVANCED_FACE('',(#820),#831,.F.);
#820 = FACE_BOUND('',#821,.F.);
#821 = EDGE_LOOP('',(#822,#823,#829,#830));
#822 = ORIENTED_EDGE('',*,*,#664,.F.);
#823 = ORIENTED_EDGE('',*,*,#824,.T.);
#824 = EDGE_CURVE('',#657,#625,#825,.T.);
#825 = LINE('',#826,#827);
#826 = CARTESIAN_POINT('',(114.,60.5,-43.5));
#827 = VECTOR('',#828,1.);
#828 = DIRECTION('',(0.,0.,1.));
#829 = ORIENTED_EDGE('',*,*,#632,.T.);
#830 = ORIENTED_EDGE('',*,*,#353,.F.);
#831 = PLANE('',#832);
#832 = AXIS2_PLACEMENT_3D('',#833,#834,#835);
#833 = CARTESIAN_POINT('',(114.,60.5,-43.5));
#834 = DIRECTION('',(-0.,1.,0.));
#835 = DIRECTION('',(0.,0.,1.));
#836 = ADVANCED_FACE('',(#837),#855,.F.);
#837 = FACE_BOUND('',#838,.F.);
#838 = EDGE_LOOP('',(#839,#847,#853,#854));
#839 = ORIENTED_EDGE('',*,*,#840,.F.);
#840 = EDGE_CURVE('',#841,#594,#843,.T.);
#841 = VERTEX_POINT('',#842);
#842 = CARTESIAN_POINT('',(114.,60.5,31.5));
#843 = LINE('',#844,#845);
#844 = CARTESIAN_POINT('',(114.,60.5,31.5));
#845 = VECTOR('',#846,1.);
#846 = DIRECTION('',(-0.,1.,0.));
#847 = ORIENTED_EDGE('',*,*,#848,.T.);
#848 = EDGE_CURVE('',#841,#322,#849,.T.);
#849 = LINE('',#850,#851);
#850 = CARTESIAN_POINT('',(114.,60.5,31.5));
#851 = VECTOR('',#852,1.);
#852 = DIRECTION('',(1.,0.,-0.));
#853 = ORIENTED_EDGE('',*,*,#329,.T.);
#854 = ORIENTED_EDGE('',*,*,#603,.F.);
#855 = PLANE('',#856);
#856 = AXIS2_PLACEMENT_3D('',#857,#858,#859);
#857 = CARTESIAN_POINT('',(114.,60.5,31.5));
#858 = DIRECTION('',(0.,0.,1.));
#859 = DIRECTION('',(1.,0.,-0.));
#860 = ADVANCED_FACE('',(#861),#872,.F.);
#861 = FACE_BOUND('',#862,.F.);
#862 = EDGE_LOOP('',(#863,#864,#870,#871));
#863 = ORIENTED_EDGE('',*,*,#848,.F.);
#864 = ORIENTED_EDGE('',*,*,#865,.T.);
#865 = EDGE_CURVE('',#841,#712,#866,.T.);
#866 = LINE('',#867,#868);
#867 = CARTESIAN_POINT('',(114.,60.5,31.5));
#868 = VECTOR('',#869,1.);
#869 = DIRECTION('',(0.,0.,1.));
#870 = ORIENTED_EDGE('',*,*,#719,.T.);
#871 = ORIENTED_EDGE('',*,*,#321,.F.);
#872 = PLANE('',#873);
#873 = AXIS2_PLACEMENT_3D('',#874,#875,#876);
#874 = CARTESIAN_POINT('',(114.,60.5,31.5));
#875 = DIRECTION('',(-0.,1.,0.));
#876 = DIRECTION('',(0.,0.,1.));
#877 = ADVANCED_FACE('',(#878),#904,.F.);
#878 = FACE_BOUND('',#879,.F.);
#879 = EDGE_LOOP('',(#880,#881,#889,#898));
#880 = ORIENTED_EDGE('',*,*,#385,.F.);
#881 = ORIENTED_EDGE('',*,*,#882,.F.);
#882 = EDGE_CURVE('',#883,#386,#885,.T.);
#883 = VERTEX_POINT('',#884);
#884 = CARTESIAN_POINT('',(114.,-45.,73.8));
#885 = LINE('',#886,#887);
#886 = CARTESIAN_POINT('',(113.8,-45.,73.8));
#887 = VECTOR('',#888,1.);
#888 = DIRECTION('',(1.,0.,1.110223024625E-16));
#889 = ORIENTED_EDGE('',*,*,#890,.T.);
#890 = EDGE_CURVE('',#883,#891,#893,.T.);
#891 = VERTEX_POINT('',#892);
#892 = CARTESIAN_POINT('',(114.,-45.3,73.5));
#893 = CIRCLE('',#894,0.3);
#894 = AXIS2_PLACEMENT_3D('',#895,#896,#897);
#895 = CARTESIAN_POINT('',(114.,-45.,73.5));
#896 = DIRECTION('',(1.,0.,1.110223024625E-16));
#897 = DIRECTION('',(1.110223024625E-16,0.,-1.));
#898 = ORIENTED_EDGE('',*,*,#899,.T.);
#899 = EDGE_CURVE('',#891,#388,#900,.T.);
#900 = LINE('',#901,#902);
#901 = CARTESIAN_POINT('',(113.8,-45.3,73.5));
#902 = VECTOR('',#903,1.);
#903 = DIRECTION('',(1.,0.,1.110223024625E-16));
#904 = CYLINDRICAL_SURFACE('',#905,0.3);
#905 = AXIS2_PLACEMENT_3D('',#906,#907,#908);
#906 = CARTESIAN_POINT('',(113.8,-45.,73.5));
#907 = DIRECTION('',(1.,0.,1.110223024625E-16));
#908 = DIRECTION('',(1.110223024625E-16,0.,-1.));
#909 = ADVANCED_FACE('',(#910),#928,.T.);
#910 = FACE_BOUND('',#911,.T.);
#911 = EDGE_LOOP('',(#912,#913,#921,#927));
#912 = ORIENTED_EDGE('',*,*,#882,.F.);
#913 = ORIENTED_EDGE('',*,*,#914,.F.);
#914 = EDGE_CURVE('',#915,#883,#917,.T.);
#915 = VERTEX_POINT('',#916);
#916 = CARTESIAN_POINT('',(114.,45.,73.8));
#917 = LINE('',#918,#919);
#918 = CARTESIAN_POINT('',(114.,-22.5,73.8));
#919 = VECTOR('',#920,1.);
#920 = DIRECTION('',(0.,-1.,0.));
#921 = ORIENTED_EDGE('',*,*,#922,.T.);
#922 = EDGE_CURVE('',#915,#397,#923,.T.);
#923 = LINE('',#924,#925);
#924 = CARTESIAN_POINT('',(113.8,45.,73.8));
#925 = VECTOR('',#926,1.);
#926 = DIRECTION('',(1.,0.,1.110223024625E-16));
#927 = ORIENTED_EDGE('',*,*,#396,.F.);
#928 = PLANE('',#929);
#929 = AXIS2_PLACEMENT_3D('',#930,#931,#932);
#930 = CARTESIAN_POINT('',(113.8,-45.,73.8));
#931 = DIRECTION('',(1.110223024625E-16,0.,-1.));
#932 = DIRECTION('',(1.,0.,1.110223024625E-16));
#933 = ADVANCED_FACE('',(#934),#952,.T.);
#934 = FACE_BOUND('',#935,.T.);
#935 = EDGE_LOOP('',(#936,#944,#945,#946));
#936 = ORIENTED_EDGE('',*,*,#937,.F.);
#937 = EDGE_CURVE('',#891,#938,#940,.T.);
#938 = VERTEX_POINT('',#939);
#939 = CARTESIAN_POINT('',(114.,-45.3,48.5));
#940 = LINE('',#941,#942);
#941 = CARTESIAN_POINT('',(114.,-45.3,48.25));
#942 = VECTOR('',#943,1.);
#943 = DIRECTION('',(1.110223024625E-16,0.,-1.));
#944 = ORIENTED_EDGE('',*,*,#899,.T.);
#945 = ORIENTED_EDGE('',*,*,#447,.F.);
#946 = ORIENTED_EDGE('',*,*,#947,.F.);
#947 = EDGE_CURVE('',#938,#439,#948,.T.);
#948 = LINE('',#949,#950);
#949 = CARTESIAN_POINT('',(113.8,-45.3,48.5));
#950 = VECTOR('',#951,1.);
#951 = DIRECTION('',(1.,0.,1.110223024625E-16));
#952 = PLANE('',#953);
#953 = AXIS2_PLACEMENT_3D('',#954,#955,#956);
#954 = CARTESIAN_POINT('',(113.8,-45.3,73.5));
#955 = DIRECTION('',(0.,1.,0.));
#956 = DIRECTION('',(1.,0.,1.110223024625E-16));
#957 = ADVANCED_FACE('',(#958),#977,.F.);
#958 = FACE_BOUND('',#959,.F.);
#959 = EDGE_LOOP('',(#960,#961,#969,#976));
#960 = ORIENTED_EDGE('',*,*,#404,.F.);
#961 = ORIENTED_EDGE('',*,*,#962,.F.);
#962 = EDGE_CURVE('',#963,#405,#965,.T.);
#963 = VERTEX_POINT('',#964);
#964 = CARTESIAN_POINT('',(114.,45.3,73.5));
#965 = LINE('',#966,#967);
#966 = CARTESIAN_POINT('',(113.8,45.3,73.5));
#967 = VECTOR('',#968,1.);
#968 = DIRECTION('',(1.,0.,1.110223024625E-16));
#969 = ORIENTED_EDGE('',*,*,#970,.T.);
#970 = EDGE_CURVE('',#963,#915,#971,.T.);
#971 = CIRCLE('',#972,0.3);
#972 = AXIS2_PLACEMENT_3D('',#973,#974,#975);
#973 = CARTESIAN_POINT('',(114.,45.,73.5));
#974 = DIRECTION('',(1.,0.,1.110223024625E-16));
#975 = DIRECTION('',(1.110223024625E-16,0.,-1.));
#976 = ORIENTED_EDGE('',*,*,#922,.T.);
#977 = CYLINDRICAL_SURFACE('',#978,0.3);
#978 = AXIS2_PLACEMENT_3D('',#979,#980,#981);
#979 = CARTESIAN_POINT('',(113.8,45.,73.5));
#980 = DIRECTION('',(1.,0.,1.110223024625E-16));
#981 = DIRECTION('',(1.110223024625E-16,0.,-1.));
#982 = ADVANCED_FACE('',(#983),#1002,.F.);
#983 = FACE_BOUND('',#984,.F.);
#984 = EDGE_LOOP('',(#985,#986,#987,#996));
#985 = ORIENTED_EDGE('',*,*,#438,.F.);
#986 = ORIENTED_EDGE('',*,*,#947,.F.);
#987 = ORIENTED_EDGE('',*,*,#988,.T.);
#988 = EDGE_CURVE('',#938,#989,#991,.T.);
#989 = VERTEX_POINT('',#990);
#990 = CARTESIAN_POINT('',(114.,-45.,48.2));
#991 = CIRCLE('',#992,0.3);
#992 = AXIS2_PLACEMENT_3D('',#993,#994,#995);
#993 = CARTESIAN_POINT('',(114.,-45.,48.5));
#994 = DIRECTION('',(1.,0.,1.110223024625E-16));
#995 = DIRECTION('',(1.110223024625E-16,0.,-1.));
#996 = ORIENTED_EDGE('',*,*,#997,.T.);
#997 = EDGE_CURVE('',#989,#431,#998,.T.);
#998 = LINE('',#999,#1000);
#999 = CARTESIAN_POINT('',(113.8,-45.,48.2));
#1000 = VECTOR('',#1001,1.);
#1001 = DIRECTION('',(1.,0.,1.110223024625E-16));
#1002 = CYLINDRICAL_SURFACE('',#1003,0.3);
#1003 = AXIS2_PLACEMENT_3D('',#1004,#1005,#1006);
#1004 = CARTESIAN_POINT('',(113.8,-45.,48.5));
#1005 = DIRECTION('',(1.,0.,1.110223024625E-16));
#1006 = DIRECTION('',(1.110223024625E-16,0.,-1.));
#1007 = ADVANCED_FACE('',(#1008),#1026,.F.);
#1008 = FACE_BOUND('',#1009,.F.);
#1009 = EDGE_LOOP('',(#1010,#1018,#1019,#1020));
#1010 = ORIENTED_EDGE('',*,*,#1011,.F.);
#1011 = EDGE_CURVE('',#963,#1012,#1014,.T.);
#1012 = VERTEX_POINT('',#1013);
#1013 = CARTESIAN_POINT('',(114.,45.3,48.5));
#1014 = LINE('',#1015,#1016);
#1015 = CARTESIAN_POINT('',(114.,45.3,48.25));
#1016 = VECTOR('',#1017,1.);
#1017 = DIRECTION('',(1.110223024625E-16,0.,-1.));
#1018 = ORIENTED_EDGE('',*,*,#962,.T.);
#1019 = ORIENTED_EDGE('',*,*,#413,.F.);
#1020 = ORIENTED_EDGE('',*,*,#1021,.F.);
#1021 = EDGE_CURVE('',#1012,#414,#1022,.T.);
#1022 = LINE('',#1023,#1024);
#1023 = CARTESIAN_POINT('',(113.8,45.3,48.5));
#1024 = VECTOR('',#1025,1.);
#1025 = DIRECTION('',(1.,0.,1.110223024625E-16));
#1026 = PLANE('',#1027);
#1027 = AXIS2_PLACEMENT_3D('',#1028,#1029,#1030);
#1028 = CARTESIAN_POINT('',(113.8,45.3,73.5));
#1029 = DIRECTION('',(0.,1.,0.));
#1030 = DIRECTION('',(1.,0.,1.110223024625E-16));
#1031 = ADVANCED_FACE('',(#1032),#1050,.F.);
#1032 = FACE_BOUND('',#1033,.F.);
#1033 = EDGE_LOOP('',(#1034,#1035,#1043,#1049));
#1034 = ORIENTED_EDGE('',*,*,#997,.F.);
#1035 = ORIENTED_EDGE('',*,*,#1036,.F.);
#1036 = EDGE_CURVE('',#1037,#989,#1039,.T.);
#1037 = VERTEX_POINT('',#1038);
#1038 = CARTESIAN_POINT('',(114.,45.,48.2));
#1039 = LINE('',#1040,#1041);
#1040 = CARTESIAN_POINT('',(114.,-22.5,48.2));
#1041 = VECTOR('',#1042,1.);
#1042 = DIRECTION('',(0.,-1.,0.));
#1043 = ORIENTED_EDGE('',*,*,#1044,.T.);
#1044 = EDGE_CURVE('',#1037,#422,#1045,.T.);
#1045 = LINE('',#1046,#1047);
#1046 = CARTESIAN_POINT('',(113.8,45.,48.2));
#1047 = VECTOR('',#1048,1.);
#1048 = DIRECTION('',(1.,0.,1.110223024625E-16));
#1049 = ORIENTED_EDGE('',*,*,#430,.F.);
#1050 = PLANE('',#1051);
#1051 = AXIS2_PLACEMENT_3D('',#1052,#1053,#1054);
#1052 = CARTESIAN_POINT('',(113.8,-45.,48.2));
#1053 = DIRECTION('',(1.110223024625E-16,0.,-1.));
#1054 = DIRECTION('',(1.,0.,1.110223024625E-16));
#1055 = ADVANCED_FACE('',(#1056),#1068,.F.);
#1056 = FACE_BOUND('',#1057,.F.);
#1057 = EDGE_LOOP('',(#1058,#1059,#1060,#1067));
#1058 = ORIENTED_EDGE('',*,*,#421,.F.);
#1059 = ORIENTED_EDGE('',*,*,#1044,.F.);
#1060 = ORIENTED_EDGE('',*,*,#1061,.T.);
#1061 = EDGE_CURVE('',#1037,#1012,#1062,.T.);
#1062 = CIRCLE('',#1063,0.3);
#1063 = AXIS2_PLACEMENT_3D('',#1064,#1065,#1066);
#1064 = CARTESIAN_POINT('',(114.,45.,48.5));
#1065 = DIRECTION('',(1.,0.,1.110223024625E-16));
#1066 = DIRECTION('',(1.110223024625E-16,0.,-1.));
#1067 = ORIENTED_EDGE('',*,*,#1021,.T.);
#1068 = CYLINDRICAL_SURFACE('',#1069,0.3);
#1069 = AXIS2_PLACEMENT_3D('',#1070,#1071,#1072);
#1070 = CARTESIAN_POINT('',(113.8,45.,48.5));
#1071 = DIRECTION('',(1.,0.,1.110223024625E-16));
#1072 = DIRECTION('',(1.110223024625E-16,0.,-1.));
#1073 = ADVANCED_FACE('',(#1074),#1093,.F.);
#1074 = FACE_BOUND('',#1075,.F.);
#1075 = EDGE_LOOP('',(#1076,#1077,#1085,#1092));
#1076 = ORIENTED_EDGE('',*,*,#455,.F.);
#1077 = ORIENTED_EDGE('',*,*,#1078,.F.);
#1078 = EDGE_CURVE('',#1079,#456,#1081,.T.);
#1079 = VERTEX_POINT('',#1080);
#1080 = CARTESIAN_POINT('',(114.,-68.,89.7));
#1081 = LINE('',#1082,#1083);
#1082 = CARTESIAN_POINT('',(113.8,-68.,89.7));
#1083 = VECTOR('',#1084,1.);
#1084 = DIRECTION('',(1.,0.,0.));
#1085 = ORIENTED_EDGE('',*,*,#1086,.T.);
#1086 = EDGE_CURVE('',#1079,#1079,#1087,.T.);
#1087 = CIRCLE('',#1088,1.7);
#1088 = AXIS2_PLACEMENT_3D('',#1089,#1090,#1091);
#1089 = CARTESIAN_POINT('',(114.,-68.,88.));
#1090 = DIRECTION('',(1.,0.,0.));
#1091 = DIRECTION('',(-0.,0.,1.));
#1092 = ORIENTED_EDGE('',*,*,#1078,.T.);
#1093 = CYLINDRICAL_SURFACE('',#1094,1.7);
#1094 = AXIS2_PLACEMENT_3D('',#1095,#1096,#1097);
#1095 = CARTESIAN_POINT('',(113.8,-68.,88.));
#1096 = DIRECTION('',(1.,0.,0.));
#1097 = DIRECTION('',(-0.,0.,1.));
#1098 = ADVANCED_FACE('',(#1099),#1118,.F.);
#1099 = FACE_BOUND('',#1100,.F.);
#1100 = EDGE_LOOP('',(#1101,#1102,#1110,#1117));
#1101 = ORIENTED_EDGE('',*,*,#466,.F.);
#1102 = ORIENTED_EDGE('',*,*,#1103,.F.);
#1103 = EDGE_CURVE('',#1104,#467,#1106,.T.);
#1104 = VERTEX_POINT('',#1105);
#1105 = CARTESIAN_POINT('',(114.,-50.,71.2));
#1106 = LINE('',#1107,#1108);
#1107 = CARTESIAN_POINT('',(113.8,-50.,71.2));
#1108 = VECTOR('',#1109,1.);
#1109 = DIRECTION('',(1.,0.,0.));
#1110 = ORIENTED_EDGE('',*,*,#1111,.T.);
#1111 = EDGE_CURVE('',#1104,#1104,#1112,.T.);
#1112 = CIRCLE('',#1113,1.7);
#1113 = AXIS2_PLACEMENT_3D('',#1114,#1115,#1116);
#1114 = CARTESIAN_POINT('',(114.,-50.,69.5));
#1115 = DIRECTION('',(1.,0.,0.));
#1116 = DIRECTION('',(-0.,0.,1.));
#1117 = ORIENTED_EDGE('',*,*,#1103,.T.);
#1118 = CYLINDRICAL_SURFACE('',#1119,1.7);
#1119 = AXIS2_PLACEMENT_3D('',#1120,#1121,#1122);
#1120 = CARTESIAN_POINT('',(113.8,-50.,69.5));
#1121 = DIRECTION('',(1.,0.,0.));
#1122 = DIRECTION('',(-0.,0.,1.));
#1123 = ADVANCED_FACE('',(#1124),#1143,.F.);
#1124 = FACE_BOUND('',#1125,.F.);
#1125 = EDGE_LOOP('',(#1126,#1127,#1135,#1142));
#1126 = ORIENTED_EDGE('',*,*,#477,.F.);
#1127 = ORIENTED_EDGE('',*,*,#1128,.F.);
#1128 = EDGE_CURVE('',#1129,#478,#1131,.T.);
#1129 = VERTEX_POINT('',#1130);
#1130 = CARTESIAN_POINT('',(114.,-50.,55.2));
#1131 = LINE('',#1132,#1133);
#1132 = CARTESIAN_POINT('',(113.8,-50.,55.2));
#1133 = VECTOR('',#1134,1.);
#1134 = DIRECTION('',(1.,0.,0.));
#1135 = ORIENTED_EDGE('',*,*,#1136,.T.);
#1136 = EDGE_CURVE('',#1129,#1129,#1137,.T.);
#1137 = CIRCLE('',#1138,1.7);
#1138 = AXIS2_PLACEMENT_3D('',#1139,#1140,#1141);
#1139 = CARTESIAN_POINT('',(114.,-50.,53.5));
#1140 = DIRECTION('',(1.,0.,0.));
#1141 = DIRECTION('',(-0.,0.,1.));
#1142 = ORIENTED_EDGE('',*,*,#1128,.T.);
#1143 = CYLINDRICAL_SURFACE('',#1144,1.7);
#1144 = AXIS2_PLACEMENT_3D('',#1145,#1146,#1147);
#1145 = CARTESIAN_POINT('',(113.8,-50.,53.5));
#1146 = DIRECTION('',(1.,0.,0.));
#1147 = DIRECTION('',(-0.,0.,1.));
#1148 = ADVANCED_FACE('',(#1149),#1168,.F.);
#1149 = FACE_BOUND('',#1150,.F.);
#1150 = EDGE_LOOP('',(#1151,#1152,#1160,#1167));
#1151 = ORIENTED_EDGE('',*,*,#488,.F.);
#1152 = ORIENTED_EDGE('',*,*,#1153,.F.);
#1153 = EDGE_CURVE('',#1154,#489,#1156,.T.);
#1154 = VERTEX_POINT('',#1155);
#1155 = CARTESIAN_POINT('',(114.,-67.,-32.3));
#1156 = LINE('',#1157,#1158);
#1157 = CARTESIAN_POINT('',(113.8,-67.,-32.3));
#1158 = VECTOR('',#1159,1.);
#1159 = DIRECTION('',(1.,0.,0.));
#1160 = ORIENTED_EDGE('',*,*,#1161,.T.);
#1161 = EDGE_CURVE('',#1154,#1154,#1162,.T.);
#1162 = CIRCLE('',#1163,1.7);
#1163 = AXIS2_PLACEMENT_3D('',#1164,#1165,#1166);
#1164 = CARTESIAN_POINT('',(114.,-67.,-34.));
#1165 = DIRECTION('',(1.,0.,0.));
#1166 = DIRECTION('',(-0.,0.,1.));
#1167 = ORIENTED_EDGE('',*,*,#1153,.T.);
#1168 = CYLINDRICAL_SURFACE('',#1169,1.7);
#1169 = AXIS2_PLACEMENT_3D('',#1170,#1171,#1172);
#1170 = CARTESIAN_POINT('',(113.8,-67.,-34.));
#1171 = DIRECTION('',(1.,0.,0.));
#1172 = DIRECTION('',(-0.,0.,1.));
#1173 = ADVANCED_FACE('',(#1174),#1193,.F.);
#1174 = FACE_BOUND('',#1175,.F.);
#1175 = EDGE_LOOP('',(#1176,#1177,#1185,#1192));
#1176 = ORIENTED_EDGE('',*,*,#499,.F.);
#1177 = ORIENTED_EDGE('',*,*,#1178,.F.);
#1178 = EDGE_CURVE('',#1179,#500,#1181,.T.);
#1179 = VERTEX_POINT('',#1180);
#1180 = CARTESIAN_POINT('',(114.,-68.,-42.3));
#1181 = LINE('',#1182,#1183);
#1182 = CARTESIAN_POINT('',(113.8,-68.,-42.3));
#1183 = VECTOR('',#1184,1.);
#1184 = DIRECTION('',(1.,0.,0.));
#1185 = ORIENTED_EDGE('',*,*,#1186,.T.);
#1186 = EDGE_CURVE('',#1179,#1179,#1187,.T.);
#1187 = CIRCLE('',#1188,1.7);
#1188 = AXIS2_PLACEMENT_3D('',#1189,#1190,#1191);
#1189 = CARTESIAN_POINT('',(114.,-68.,-44.));
#1190 = DIRECTION('',(1.,0.,0.));
#1191 = DIRECTION('',(-0.,0.,1.));
#1192 = ORIENTED_EDGE('',*,*,#1178,.T.);
#1193 = CYLINDRICAL_SURFACE('',#1194,1.7);
#1194 = AXIS2_PLACEMENT_3D('',#1195,#1196,#1197);
#1195 = CARTESIAN_POINT('',(113.8,-68.,-44.));
#1196 = DIRECTION('',(1.,0.,0.));
#1197 = DIRECTION('',(-0.,0.,1.));
#1198 = ADVANCED_FACE('',(#1199),#1218,.F.);
#1199 = FACE_BOUND('',#1200,.F.);
#1200 = EDGE_LOOP('',(#1201,#1202,#1210,#1217));
#1201 = ORIENTED_EDGE('',*,*,#510,.F.);
#1202 = ORIENTED_EDGE('',*,*,#1203,.F.);
#1203 = EDGE_CURVE('',#1204,#511,#1206,.T.);
#1204 = VERTEX_POINT('',#1205);
#1205 = CARTESIAN_POINT('',(114.,50.,71.2));
#1206 = LINE('',#1207,#1208);
#1207 = CARTESIAN_POINT('',(113.8,50.,71.2));
#1208 = VECTOR('',#1209,1.);
#1209 = DIRECTION('',(1.,0.,0.));
#1210 = ORIENTED_EDGE('',*,*,#1211,.T.);
#1211 = EDGE_CURVE('',#1204,#1204,#1212,.T.);
#1212 = CIRCLE('',#1213,1.7);
#1213 = AXIS2_PLACEMENT_3D('',#1214,#1215,#1216);
#1214 = CARTESIAN_POINT('',(114.,50.,69.5));
#1215 = DIRECTION('',(1.,0.,0.));
#1216 = DIRECTION('',(-0.,0.,1.));
#1217 = ORIENTED_EDGE('',*,*,#1203,.T.);
#1218 = CYLINDRICAL_SURFACE('',#1219,1.7);
#1219 = AXIS2_PLACEMENT_3D('',#1220,#1221,#1222);
#1220 = CARTESIAN_POINT('',(113.8,50.,69.5));
#1221 = DIRECTION('',(1.,0.,0.));
#1222 = DIRECTION('',(-0.,0.,1.));
#1223 = ADVANCED_FACE('',(#1224),#1243,.F.);
#1224 = FACE_BOUND('',#1225,.F.);
#1225 = EDGE_LOOP('',(#1226,#1227,#1235,#1242));
#1226 = ORIENTED_EDGE('',*,*,#521,.F.);
#1227 = ORIENTED_EDGE('',*,*,#1228,.F.);
#1228 = EDGE_CURVE('',#1229,#522,#1231,.T.);
#1229 = VERTEX_POINT('',#1230);
#1230 = CARTESIAN_POINT('',(114.,68.,89.7));
#1231 = LINE('',#1232,#1233);
#1232 = CARTESIAN_POINT('',(113.8,68.,89.7));
#1233 = VECTOR('',#1234,1.);
#1234 = DIRECTION('',(1.,0.,0.));
#1235 = ORIENTED_EDGE('',*,*,#1236,.T.);
#1236 = EDGE_CURVE('',#1229,#1229,#1237,.T.);
#1237 = CIRCLE('',#1238,1.7);
#1238 = AXIS2_PLACEMENT_3D('',#1239,#1240,#1241);
#1239 = CARTESIAN_POINT('',(114.,68.,88.));
#1240 = DIRECTION('',(1.,0.,0.));
#1241 = DIRECTION('',(-0.,0.,1.));
#1242 = ORIENTED_EDGE('',*,*,#1228,.T.);
#1243 = CYLINDRICAL_SURFACE('',#1244,1.7);
#1244 = AXIS2_PLACEMENT_3D('',#1245,#1246,#1247);
#1245 = CARTESIAN_POINT('',(113.8,68.,88.));
#1246 = DIRECTION('',(1.,0.,0.));
#1247 = DIRECTION('',(-0.,0.,1.));
#1248 = ADVANCED_FACE('',(#1249),#1268,.F.);
#1249 = FACE_BOUND('',#1250,.F.);
#1250 = EDGE_LOOP('',(#1251,#1252,#1260,#1267));
#1251 = ORIENTED_EDGE('',*,*,#532,.F.);
#1252 = ORIENTED_EDGE('',*,*,#1253,.F.);
#1253 = EDGE_CURVE('',#1254,#533,#1256,.T.);
#1254 = VERTEX_POINT('',#1255);
#1255 = CARTESIAN_POINT('',(114.,50.,55.2));
#1256 = LINE('',#1257,#1258);
#1257 = CARTESIAN_POINT('',(113.8,50.,55.2));
#1258 = VECTOR('',#1259,1.);
#1259 = DIRECTION('',(1.,0.,0.));
#1260 = ORIENTED_EDGE('',*,*,#1261,.T.);
#1261 = EDGE_CURVE('',#1254,#1254,#1262,.T.);
#1262 = CIRCLE('',#1263,1.7);
#1263 = AXIS2_PLACEMENT_3D('',#1264,#1265,#1266);
#1264 = CARTESIAN_POINT('',(114.,50.,53.5));
#1265 = DIRECTION('',(1.,0.,0.));
#1266 = DIRECTION('',(-0.,0.,1.));
#1267 = ORIENTED_EDGE('',*,*,#1253,.T.);
#1268 = CYLINDRICAL_SURFACE('',#1269,1.7);
#1269 = AXIS2_PLACEMENT_3D('',#1270,#1271,#1272);
#1270 = CARTESIAN_POINT('',(113.8,50.,53.5));
#1271 = DIRECTION('',(1.,0.,0.));
#1272 = DIRECTION('',(-0.,0.,1.));
#1273 = ADVANCED_FACE('',(#1274),#1293,.F.);
#1274 = FACE_BOUND('',#1275,.F.);
#1275 = EDGE_LOOP('',(#1276,#1277,#1285,#1292));
#1276 = ORIENTED_EDGE('',*,*,#543,.F.);
#1277 = ORIENTED_EDGE('',*,*,#1278,.F.);
#1278 = EDGE_CURVE('',#1279,#544,#1281,.T.);
#1279 = VERTEX_POINT('',#1280);
#1280 = CARTESIAN_POINT('',(114.,67.,-32.3));
#1281 = LINE('',#1282,#1283);
#1282 = CARTESIAN_POINT('',(113.8,67.,-32.3));
#1283 = VECTOR('',#1284,1.);
#1284 = DIRECTION('',(1.,0.,0.));
#1285 = ORIENTED_EDGE('',*,*,#1286,.T.);
#1286 = EDGE_CURVE('',#1279,#1279,#1287,.T.);
#1287 = CIRCLE('',#1288,1.7);
#1288 = AXIS2_PLACEMENT_3D('',#1289,#1290,#1291);
#1289 = CARTESIAN_POINT('',(114.,67.,-34.));
#1290 = DIRECTION('',(1.,0.,0.));
#1291 = DIRECTION('',(-0.,0.,1.));
#1292 = ORIENTED_EDGE('',*,*,#1278,.T.);
#1293 = CYLINDRICAL_SURFACE('',#1294,1.7);
#1294 = AXIS2_PLACEMENT_3D('',#1295,#1296,#1297);
#1295 = CARTESIAN_POINT('',(113.8,67.,-34.));
#1296 = DIRECTION('',(1.,0.,0.));
#1297 = DIRECTION('',(-0.,0.,1.));
#1298 = ADVANCED_FACE('',(#1299),#1318,.F.);
#1299 = FACE_BOUND('',#1300,.F.);
#1300 = EDGE_LOOP('',(#1301,#1302,#1310,#1317));
#1301 = ORIENTED_EDGE('',*,*,#554,.F.);
#1302 = ORIENTED_EDGE('',*,*,#1303,.F.);
#1303 = EDGE_CURVE('',#1304,#555,#1306,.T.);
#1304 = VERTEX_POINT('',#1305);
#1305 = CARTESIAN_POINT('',(114.,68.,-42.3));
#1306 = LINE('',#1307,#1308);
#1307 = CARTESIAN_POINT('',(113.8,68.,-42.3));
#1308 = VECTOR('',#1309,1.);
#1309 = DIRECTION('',(1.,0.,0.));
#1310 = ORIENTED_EDGE('',*,*,#1311,.T.);
#1311 = EDGE_CURVE('',#1304,#1304,#1312,.T.);
#1312 = CIRCLE('',#1313,1.7);
#1313 = AXIS2_PLACEMENT_3D('',#1314,#1315,#1316);
#1314 = CARTESIAN_POINT('',(114.,68.,-44.));
#1315 = DIRECTION('',(1.,0.,0.));
#1316 = DIRECTION('',(-0.,0.,1.));
#1317 = ORIENTED_EDGE('',*,*,#1303,.T.);
#1318 = CYLINDRICAL_SURFACE('',#1319,1.7);
#1319 = AXIS2_PLACEMENT_3D('',#1320,#1321,#1322);
#1320 = CARTESIAN_POINT('',(113.8,68.,-44.));
#1321 = DIRECTION('',(1.,0.,0.));
#1322 = DIRECTION('',(-0.,0.,1.));
#1323 = ADVANCED_FACE('',(#1324),#1343,.F.);
#1324 = FACE_BOUND('',#1325,.F.);
#1325 = EDGE_LOOP('',(#1326,#1327,#1335,#1342));
#1326 = ORIENTED_EDGE('',*,*,#565,.F.);
#1327 = ORIENTED_EDGE('',*,*,#1328,.F.);
#1328 = EDGE_CURVE('',#1329,#566,#1331,.T.);
#1329 = VERTEX_POINT('',#1330);
#1330 = CARTESIAN_POINT('',(114.,-67.,27.7));
#1331 = LINE('',#1332,#1333);
#1332 = CARTESIAN_POINT('',(113.8,-67.,27.7));
#1333 = VECTOR('',#1334,1.);
#1334 = DIRECTION('',(1.,0.,0.));
#1335 = ORIENTED_EDGE('',*,*,#1336,.T.);
#1336 = EDGE_CURVE('',#1329,#1329,#1337,.T.);
#1337 = CIRCLE('',#1338,1.7);
#1338 = AXIS2_PLACEMENT_3D('',#1339,#1340,#1341);
#1339 = CARTESIAN_POINT('',(114.,-67.,26.));
#1340 = DIRECTION('',(1.,0.,0.));
#1341 = DIRECTION('',(-0.,0.,1.));
#1342 = ORIENTED_EDGE('',*,*,#1328,.T.);
#1343 = CYLINDRICAL_SURFACE('',#1344,1.7);
#1344 = AXIS2_PLACEMENT_3D('',#1345,#1346,#1347);
#1345 = CARTESIAN_POINT('',(113.8,-67.,26.));
#1346 = DIRECTION('',(1.,0.,0.));
#1347 = DIRECTION('',(-0.,0.,1.));
#1348 = ADVANCED_FACE('',(#1349),#1368,.F.);
#1349 = FACE_BOUND('',#1350,.F.);
#1350 = EDGE_LOOP('',(#1351,#1352,#1360,#1367));
#1351 = ORIENTED_EDGE('',*,*,#576,.F.);
#1352 = ORIENTED_EDGE('',*,*,#1353,.F.);
#1353 = EDGE_CURVE('',#1354,#577,#1356,.T.);
#1354 = VERTEX_POINT('',#1355);
#1355 = CARTESIAN_POINT('',(114.,67.,27.7));
#1356 = LINE('',#1357,#1358);
#1357 = CARTESIAN_POINT('',(113.8,67.,27.7));
#1358 = VECTOR('',#1359,1.);
#1359 = DIRECTION('',(1.,0.,0.));
#1360 = ORIENTED_EDGE('',*,*,#1361,.T.);
#1361 = EDGE_CURVE('',#1354,#1354,#1362,.T.);
#1362 = CIRCLE('',#1363,1.7);
#1363 = AXIS2_PLACEMENT_3D('',#1364,#1365,#1366);
#1364 = CARTESIAN_POINT('',(114.,67.,26.));
#1365 = DIRECTION('',(1.,0.,0.));
#1366 = DIRECTION('',(-0.,0.,1.));
#1367 = ORIENTED_EDGE('',*,*,#1353,.T.);
#1368 = CYLINDRICAL_SURFACE('',#1369,1.7);
#1369 = AXIS2_PLACEMENT_3D('',#1370,#1371,#1372);
#1370 = CARTESIAN_POINT('',(113.8,67.,26.));
#1371 = DIRECTION('',(1.,0.,0.));
#1372 = DIRECTION('',(-0.,0.,1.));
#1373 = ADVANCED_FACE('',(#1374,#1384,#1398,#1408,#1411,#1414,#1417,
    #1420,#1423,#1426,#1429,#1432,#1435,#1438,#1441),#1444,.T.);
#1374 = FACE_BOUND('',#1375,.T.);
#1375 = EDGE_LOOP('',(#1376,#1377,#1378,#1379,#1380,#1381,#1382,#1383));
#1376 = ORIENTED_EDGE('',*,*,#40,.F.);
#1377 = ORIENTED_EDGE('',*,*,#95,.T.);
#1378 = ORIENTED_EDGE('',*,*,#142,.F.);
#1379 = ORIENTED_EDGE('',*,*,#191,.T.);
#1380 = ORIENTED_EDGE('',*,*,#261,.F.);
#1381 = ORIENTED_EDGE('',*,*,#223,.F.);
#1382 = ORIENTED_EDGE('',*,*,#168,.F.);
#1383 = ORIENTED_EDGE('',*,*,#63,.F.);
#1384 = FACE_BOUND('',#1385,.T.);
#1385 = EDGE_LOOP('',(#1386,#1387,#1388,#1389,#1390,#1391,#1392,#1393,
    #1394,#1395,#1396,#1397));
#1386 = ORIENTED_EDGE('',*,*,#593,.F.);
#1387 = ORIENTED_EDGE('',*,*,#840,.F.);
#1388 = ORIENTED_EDGE('',*,*,#865,.T.);
#1389 = ORIENTED_EDGE('',*,*,#711,.T.);
#1390 = ORIENTED_EDGE('',*,*,#742,.F.);
#1391 = ORIENTED_EDGE('',*,*,#758,.F.);
#1392 = ORIENTED_EDGE('',*,*,#782,.T.);
#1393 = ORIENTED_EDGE('',*,*,#806,.T.);
#1394 = ORIENTED_EDGE('',*,*,#680,.F.);
#1395 = ORIENTED_EDGE('',*,*,#656,.F.);
#1396 = ORIENTED_EDGE('',*,*,#824,.T.);
#1397 = ORIENTED_EDGE('',*,*,#624,.T.);
#1398 = FACE_BOUND('',#1399,.T.);
#1399 = EDGE_LOOP('',(#1400,#1401,#1402,#1403,#1404,#1405,#1406,#1407));
#1400 = ORIENTED_EDGE('',*,*,#914,.T.);
#1401 = ORIENTED_EDGE('',*,*,#890,.T.);
#1402 = ORIENTED_EDGE('',*,*,#937,.T.);
#1403 = ORIENTED_EDGE('',*,*,#988,.T.);
#1404 = ORIENTED_EDGE('',*,*,#1036,.F.);
#1405 = ORIENTED_EDGE('',*,*,#1061,.T.);
#1406 = ORIENTED_EDGE('',*,*,#1011,.F.);
#1407 = ORIENTED_EDGE('',*,*,#970,.T.);
#1408 = FACE_BOUND('',#1409,.T.);
#1409 = EDGE_LOOP('',(#1410));
#1410 = ORIENTED_EDGE('',*,*,#1186,.T.);
#1411 = FACE_BOUND('',#1412,.T.);
#1412 = EDGE_LOOP('',(#1413));
#1413 = ORIENTED_EDGE('',*,*,#1161,.T.);
#1414 = FACE_BOUND('',#1415,.T.);
#1415 = EDGE_LOOP('',(#1416));
#1416 = ORIENTED_EDGE('',*,*,#1136,.T.);
#1417 = FACE_BOUND('',#1418,.T.);
#1418 = EDGE_LOOP('',(#1419));
#1419 = ORIENTED_EDGE('',*,*,#1086,.T.);
#1420 = FACE_BOUND('',#1421,.T.);
#1421 = EDGE_LOOP('',(#1422));
#1422 = ORIENTED_EDGE('',*,*,#1111,.T.);
#1423 = FACE_BOUND('',#1424,.T.);
#1424 = EDGE_LOOP('',(#1425));
#1425 = ORIENTED_EDGE('',*,*,#1311,.T.);
#1426 = FACE_BOUND('',#1427,.T.);
#1427 = EDGE_LOOP('',(#1428));
#1428 = ORIENTED_EDGE('',*,*,#1286,.T.);
#1429 = FACE_BOUND('',#1430,.T.);
#1430 = EDGE_LOOP('',(#1431));
#1431 = ORIENTED_EDGE('',*,*,#1261,.T.);
#1432 = FACE_BOUND('',#1433,.T.);
#1433 = EDGE_LOOP('',(#1434));
#1434 = ORIENTED_EDGE('',*,*,#1211,.T.);
#1435 = FACE_BOUND('',#1436,.T.);
#1436 = EDGE_LOOP('',(#1437));
#1437 = ORIENTED_EDGE('',*,*,#1236,.T.);
#1438 = FACE_BOUND('',#1439,.T.);
#1439 = EDGE_LOOP('',(#1440));
#1440 = ORIENTED_EDGE('',*,*,#1336,.T.);
#1441 = FACE_BOUND('',#1442,.T.);
#1442 = EDGE_LOOP('',(#1443));
#1443 = ORIENTED_EDGE('',*,*,#1361,.T.);
#1444 = PLANE('',#1445);
#1445 = AXIS2_PLACEMENT_3D('',#1446,#1447,#1448);
#1446 = CARTESIAN_POINT('',(114.,0.,23.));
#1447 = DIRECTION('',(-1.,-0.,-0.));
#1448 = DIRECTION('',(0.,0.,-1.));
#1449 = ( GEOMETRIC_REPRESENTATION_CONTEXT(3) 
GLOBAL_UNCERTAINTY_ASSIGNED_CONTEXT((#1453)) 
GLOBAL_UNIT_ASSIGNED_CONTEXT((#1450,#1451,#1452)) REPRESENTATION_CONTEXT
('Context #1','3D Context with UNIT and UNCERTAINTY') );
#1450 = ( LENGTH_UNIT() NAMED_UNIT(*) SI_UNIT(.MILLI.,.METRE.) );
#1451 = ( NAMED_UNIT(*) PLANE_ANGLE_UNIT() SI_UNIT($,.RADIAN.) );
#1452 = ( NAMED_UNIT(*) SI_UNIT($,.STERADIAN.) SOLID_ANGLE_UNIT() );
#1453 = UNCERTAINTY_MEASURE_WITH_UNIT(LENGTH_MEASURE(1.E-07),#1450,
  'distance_accuracy_value','confusion accuracy');
#1454 = PRODUCT_RELATED_PRODUCT_CATEGORY('part',$,(#7));
ENDSEC;
END-ISO-10303-21;
