ISO-10303-21;
HEADER;
FILE_DESCRIPTION(('FreeCAD Model'),'2;1');
FILE_NAME('Open CASCADE Shape Model','2026-09-22T10:50:12',('FreeCAD'),(
    'FreeCAD'),'Open CASCADE STEP processor 7.8','FreeCAD','Unknown');
FILE_SCHEMA(('AUTOMOTIVE_DESIGN { 1 0 10303 214 1 1 1 1 }'));
ENDSEC;
DATA;
#1 = APPLICATION_PROTOCOL_DEFINITION('international standard',
  'automotive_design',2000,#2);
#2 = APPLICATION_CONTEXT(
  'core data for automotive mechanical design processes');
#3 = SHAPE_DEFINITION_REPRESENTATION(#4,#10);
#4 = PRODUCT_DEFINITION_SHAPE('','',#5);
#5 = PRODUCT_DEFINITION('design','',#6,#9);
#6 = PRODUCT_DEFINITION_FORMATION('','',#7);
#7 = PRODUCT('Open CASCADE STEP translator 7.8 27',
  'Open CASCADE STEP translator 7.8 27','',(#8));
#8 = PRODUCT_CONTEXT('',#2,'mechanical');
#9 = PRODUCT_DEFINITION_CONTEXT('part definition',#2,'design');
#10 = ADVANCED_BREP_SHAPE_REPRESENTATION('',(#11,#15),#665);
#11 = AXIS2_PLACEMENT_3D('',#12,#13,#14);
#12 = CARTESIAN_POINT('',(0.,0.,0.));
#13 = DIRECTION('',(0.,0.,1.));
#14 = DIRECTION('',(1.,0.,-0.));
#15 = MANIFOLD_SOLID_BREP('',#16);
#16 = CLOSED_SHELL('',(#17,#59,#95,#131,#225,#319,#339,#359,#379,#399,
    #419,#439,#451,#476,#501,#526,#551,#571,#591,#611,#631,#648));
#17 = ADVANCED_FACE('',(#18),#54,.T.);
#18 = FACE_BOUND('',#19,.T.);
#19 = EDGE_LOOP('',(#20,#30,#39,#47));
#20 = ORIENTED_EDGE('',*,*,#21,.T.);
#21 = EDGE_CURVE('',#22,#24,#26,.T.);
#22 = VERTEX_POINT('',#23);
#23 = CARTESIAN_POINT('',(8.,153.,-8.944271909999));
#24 = VERTEX_POINT('',#25);
#25 = CARTESIAN_POINT('',(8.,165.,-8.944271909999));
#26 = LINE('',#27,#28);
#27 = CARTESIAN_POINT('',(8.,153.,-8.944271909999));
#28 = VECTOR('',#29,1.);
#29 = DIRECTION('',(0.,1.,0.));
#30 = ORIENTED_EDGE('',*,*,#31,.T.);
#31 = EDGE_CURVE('',#24,#32,#34,.T.);
#32 = VERTEX_POINT('',#33);
#33 = CARTESIAN_POINT('',(-8.,165.,-8.944271909999));
#34 = CIRCLE('',#35,12.);
#35 = AXIS2_PLACEMENT_3D('',#36,#37,#38);
#36 = CARTESIAN_POINT('',(-1.897114718879E-15,165.,3.930256461147E-17));
#37 = DIRECTION('',(0.,-1.,0.));
#38 = DIRECTION('',(0.666666666667,-0.,-0.7453559925));
#39 = ORIENTED_EDGE('',*,*,#40,.F.);
#40 = EDGE_CURVE('',#41,#32,#43,.T.);
#41 = VERTEX_POINT('',#42);
#42 = CARTESIAN_POINT('',(-8.,153.,-8.944271909999));
#43 = LINE('',#44,#45);
#44 = CARTESIAN_POINT('',(-8.,153.,-8.944271909999));
#45 = VECTOR('',#46,1.);
#46 = DIRECTION('',(0.,1.,0.));
#47 = ORIENTED_EDGE('',*,*,#48,.F.);
#48 = EDGE_CURVE('',#22,#41,#49,.T.);
#49 = CIRCLE('',#50,12.);
#50 = AXIS2_PLACEMENT_3D('',#51,#52,#53);
#51 = CARTESIAN_POINT('',(-1.897114718879E-15,153.,3.930256461147E-17));
#52 = DIRECTION('',(0.,-1.,0.));
#53 = DIRECTION('',(0.666666666667,-0.,-0.7453559925));
#54 = CYLINDRICAL_SURFACE('',#55,12.);
#55 = AXIS2_PLACEMENT_3D('',#56,#57,#58);
#56 = CARTESIAN_POINT('',(-1.897114718879E-15,153.,3.930256461147E-17));
#57 = DIRECTION('',(0.,-1.,0.));
#58 = DIRECTION('',(0.666666666667,-0.,-0.7453559925));
#59 = ADVANCED_FACE('',(#60),#87,.T.);
#60 = FACE_BOUND('',#61,.T.);
#61 = EDGE_LOOP('',(#62,#72,#79,#80));
#62 = ORIENTED_EDGE('',*,*,#63,.T.);
#63 = EDGE_CURVE('',#64,#66,#68,.T.);
#64 = VERTEX_POINT('',#65);
#65 = CARTESIAN_POINT('',(7.,153.,-32.));
#66 = VERTEX_POINT('',#67);
#67 = CARTESIAN_POINT('',(7.,165.,-32.));
#68 = LINE('',#69,#70);
#69 = CARTESIAN_POINT('',(7.,153.,-32.));
#70 = VECTOR('',#71,1.);
#71 = DIRECTION('',(0.,1.,0.));
#72 = ORIENTED_EDGE('',*,*,#73,.T.);
#73 = EDGE_CURVE('',#66,#24,#74,.T.);
#74 = B_SPLINE_CURVE_WITH_KNOTS('',3,(#75,#76,#77,#78),.UNSPECIFIED.,.F.
  ,.F.,(4,4),(0.,1.),.PIECEWISE_BEZIER_KNOTS.);
#75 = CARTESIAN_POINT('',(7.,165.,-32.));
#76 = CARTESIAN_POINT('',(7.,165.,-23.));
#77 = CARTESIAN_POINT('',(6.5,165.,-10.28591269649));
#78 = CARTESIAN_POINT('',(8.,165.,-8.944271909999));
#79 = ORIENTED_EDGE('',*,*,#21,.F.);
#80 = ORIENTED_EDGE('',*,*,#81,.F.);
#81 = EDGE_CURVE('',#64,#22,#82,.T.);
#82 = B_SPLINE_CURVE_WITH_KNOTS('',3,(#83,#84,#85,#86),.UNSPECIFIED.,.F.
  ,.F.,(4,4),(0.,1.),.PIECEWISE_BEZIER_KNOTS.);
#83 = CARTESIAN_POINT('',(7.,153.,-32.));
#84 = CARTESIAN_POINT('',(7.,153.,-23.));
#85 = CARTESIAN_POINT('',(6.5,153.,-10.28591269649));
#86 = CARTESIAN_POINT('',(8.,153.,-8.944271909999));
#87 = SURFACE_OF_LINEAR_EXTRUSION('',#88,#93);
#88 = B_SPLINE_CURVE_WITH_KNOTS('',3,(#89,#90,#91,#92),.UNSPECIFIED.,.F.
  ,.F.,(4,4),(0.,1.),.PIECEWISE_BEZIER_KNOTS.);
#89 = CARTESIAN_POINT('',(7.,153.,-32.));
#90 = CARTESIAN_POINT('',(7.,153.,-23.));
#91 = CARTESIAN_POINT('',(6.5,153.,-10.28591269649));
#92 = CARTESIAN_POINT('',(8.,153.,-8.944271909999));
#93 = VECTOR('',#94,1.);
#94 = DIRECTION('',(-0.,-1.,-0.));
#95 = ADVANCED_FACE('',(#96),#123,.T.);
#96 = FACE_BOUND('',#97,.T.);
#97 = EDGE_LOOP('',(#98,#99,#108,#116));
#98 = ORIENTED_EDGE('',*,*,#40,.T.);
#99 = ORIENTED_EDGE('',*,*,#100,.T.);
#100 = EDGE_CURVE('',#32,#101,#103,.T.);
#101 = VERTEX_POINT('',#102);
#102 = CARTESIAN_POINT('',(-7.,165.,-32.));
#103 = B_SPLINE_CURVE_WITH_KNOTS('',3,(#104,#105,#106,#107),
  .UNSPECIFIED.,.F.,.F.,(4,4),(0.,1.),.PIECEWISE_BEZIER_KNOTS.);
#104 = CARTESIAN_POINT('',(-8.,165.,-8.944271909999));
#105 = CARTESIAN_POINT('',(-6.5,165.,-10.28591269649));
#106 = CARTESIAN_POINT('',(-7.,165.,-23.));
#107 = CARTESIAN_POINT('',(-7.,165.,-32.));
#108 = ORIENTED_EDGE('',*,*,#109,.F.);
#109 = EDGE_CURVE('',#110,#101,#112,.T.);
#110 = VERTEX_POINT('',#111);
#111 = CARTESIAN_POINT('',(-7.,153.,-32.));
#112 = LINE('',#113,#114);
#113 = CARTESIAN_POINT('',(-7.,153.,-32.));
#114 = VECTOR('',#115,1.);
#115 = DIRECTION('',(0.,1.,0.));
#116 = ORIENTED_EDGE('',*,*,#117,.F.);
#117 = EDGE_CURVE('',#41,#110,#118,.T.);
#118 = B_SPLINE_CURVE_WITH_KNOTS('',3,(#119,#120,#121,#122),
  .UNSPECIFIED.,.F.,.F.,(4,4),(0.,1.),.PIECEWISE_BEZIER_KNOTS.);
#119 = CARTESIAN_POINT('',(-8.,153.,-8.944271909999));
#120 = CARTESIAN_POINT('',(-6.5,153.,-10.28591269649));
#121 = CARTESIAN_POINT('',(-7.,153.,-23.));
#122 = CARTESIAN_POINT('',(-7.,153.,-32.));
#123 = SURFACE_OF_LINEAR_EXTRUSION('',#124,#129);
#124 = B_SPLINE_CURVE_WITH_KNOTS('',3,(#125,#126,#127,#128),
  .UNSPECIFIED.,.F.,.F.,(4,4),(0.,1.),.PIECEWISE_BEZIER_KNOTS.);
#125 = CARTESIAN_POINT('',(-8.,153.,-8.944271909999));
#126 = CARTESIAN_POINT('',(-6.5,153.,-10.28591269649));
#127 = CARTESIAN_POINT('',(-7.,153.,-23.));
#128 = CARTESIAN_POINT('',(-7.,153.,-32.));
#129 = VECTOR('',#130,1.);
#130 = DIRECTION('',(-0.,-1.,-0.));
#131 = ADVANCED_FACE('',(#132,#198,#209),#220,.T.);
#132 = FACE_BOUND('',#133,.T.);
#133 = EDGE_LOOP('',(#134,#135,#136,#145,#154,#163,#172,#181,#190,#197)
  );
#134 = ORIENTED_EDGE('',*,*,#48,.T.);
#135 = ORIENTED_EDGE('',*,*,#117,.T.);
#136 = ORIENTED_EDGE('',*,*,#137,.T.);
#137 = EDGE_CURVE('',#110,#138,#140,.T.);
#138 = VERTEX_POINT('',#139);
#139 = CARTESIAN_POINT('',(-6.2,153.,-65.));
#140 = B_SPLINE_CURVE_WITH_KNOTS('',3,(#141,#142,#143,#144),
  .UNSPECIFIED.,.F.,.F.,(4,4),(0.,1.),.PIECEWISE_BEZIER_KNOTS.);
#141 = CARTESIAN_POINT('',(-7.,153.,-32.));
#142 = CARTESIAN_POINT('',(-7.,153.,-48.));
#143 = CARTESIAN_POINT('',(-6.2,153.,-57.));
#144 = CARTESIAN_POINT('',(-6.2,153.,-65.));
#145 = ORIENTED_EDGE('',*,*,#146,.T.);
#146 = EDGE_CURVE('',#138,#147,#149,.T.);
#147 = VERTEX_POINT('',#148);
#148 = CARTESIAN_POINT('',(-7.,153.,-98.));
#149 = B_SPLINE_CURVE_WITH_KNOTS('',3,(#150,#151,#152,#153),
  .UNSPECIFIED.,.F.,.F.,(4,4),(0.,1.),.PIECEWISE_BEZIER_KNOTS.);
#150 = CARTESIAN_POINT('',(-6.2,153.,-65.));
#151 = CARTESIAN_POINT('',(-6.2,153.,-73.));
#152 = CARTESIAN_POINT('',(-7.,153.,-82.));
#153 = CARTESIAN_POINT('',(-7.,153.,-98.));
#154 = ORIENTED_EDGE('',*,*,#155,.T.);
#155 = EDGE_CURVE('',#147,#156,#158,.T.);
#156 = VERTEX_POINT('',#157);
#157 = CARTESIAN_POINT('',(-8.,153.,-121.05572809));
#158 = B_SPLINE_CURVE_WITH_KNOTS('',3,(#159,#160,#161,#162),
  .UNSPECIFIED.,.F.,.F.,(4,4),(0.,1.),.PIECEWISE_BEZIER_KNOTS.);
#159 = CARTESIAN_POINT('',(-7.,153.,-98.));
#160 = CARTESIAN_POINT('',(-7.,153.,-107.));
#161 = CARTESIAN_POINT('',(-6.5,153.,-119.7140873035));
#162 = CARTESIAN_POINT('',(-8.,153.,-121.05572809));
#163 = ORIENTED_EDGE('',*,*,#164,.T.);
#164 = EDGE_CURVE('',#156,#165,#167,.T.);
#165 = VERTEX_POINT('',#166);
#166 = CARTESIAN_POINT('',(8.,153.,-121.05572809));
#167 = CIRCLE('',#168,12.);
#168 = AXIS2_PLACEMENT_3D('',#169,#170,#171);
#169 = CARTESIAN_POINT('',(1.897114718879E-15,153.,-130.));
#170 = DIRECTION('',(0.,-1.,0.));
#171 = DIRECTION('',(-0.666666666667,0.,0.7453559925));
#172 = ORIENTED_EDGE('',*,*,#173,.T.);
#173 = EDGE_CURVE('',#165,#174,#176,.T.);
#174 = VERTEX_POINT('',#175);
#175 = CARTESIAN_POINT('',(7.,153.,-98.));
#176 = B_SPLINE_CURVE_WITH_KNOTS('',3,(#177,#178,#179,#180),
  .UNSPECIFIED.,.F.,.F.,(4,4),(0.,1.),.PIECEWISE_BEZIER_KNOTS.);
#177 = CARTESIAN_POINT('',(8.,153.,-121.05572809));
#178 = CARTESIAN_POINT('',(6.5,153.,-119.7140873035));
#179 = CARTESIAN_POINT('',(7.,153.,-107.));
#180 = CARTESIAN_POINT('',(7.,153.,-98.));
#181 = ORIENTED_EDGE('',*,*,#182,.T.);
#182 = EDGE_CURVE('',#174,#183,#185,.T.);
#183 = VERTEX_POINT('',#184);
#184 = CARTESIAN_POINT('',(6.2,153.,-65.));
#185 = B_SPLINE_CURVE_WITH_KNOTS('',3,(#186,#187,#188,#189),
  .UNSPECIFIED.,.F.,.F.,(4,4),(0.,1.),.PIECEWISE_BEZIER_KNOTS.);
#186 = CARTESIAN_POINT('',(7.,153.,-98.));
#187 = CARTESIAN_POINT('',(7.,153.,-82.));
#188 = CARTESIAN_POINT('',(6.2,153.,-73.));
#189 = CARTESIAN_POINT('',(6.2,153.,-65.));
#190 = ORIENTED_EDGE('',*,*,#191,.T.);
#191 = EDGE_CURVE('',#183,#64,#192,.T.);
#192 = B_SPLINE_CURVE_WITH_KNOTS('',3,(#193,#194,#195,#196),
  .UNSPECIFIED.,.F.,.F.,(4,4),(0.,1.),.PIECEWISE_BEZIER_KNOTS.);
#193 = CARTESIAN_POINT('',(6.2,153.,-65.));
#194 = CARTESIAN_POINT('',(6.2,153.,-57.));
#195 = CARTESIAN_POINT('',(7.,153.,-48.));
#196 = CARTESIAN_POINT('',(7.,153.,-32.));
#197 = ORIENTED_EDGE('',*,*,#81,.T.);
#198 = FACE_BOUND('',#199,.T.);
#199 = EDGE_LOOP('',(#200));
#200 = ORIENTED_EDGE('',*,*,#201,.T.);
#201 = EDGE_CURVE('',#202,#202,#204,.T.);
#202 = VERTEX_POINT('',#203);
#203 = CARTESIAN_POINT('',(-1.610410540879E-15,153.,6.575));
#204 = CIRCLE('',#205,6.575);
#205 = AXIS2_PLACEMENT_3D('',#206,#207,#208);
#206 = CARTESIAN_POINT('',(0.,153.,0.));
#207 = DIRECTION('',(0.,1.,0.));
#208 = DIRECTION('',(0.,-0.,1.));
#209 = FACE_BOUND('',#210,.T.);
#210 = EDGE_LOOP('',(#211));
#211 = ORIENTED_EDGE('',*,*,#212,.T.);
#212 = EDGE_CURVE('',#213,#213,#215,.T.);
#213 = VERTEX_POINT('',#214);
#214 = CARTESIAN_POINT('',(-1.610410540879E-15,153.,-123.425));
#215 = CIRCLE('',#216,6.575);
#216 = AXIS2_PLACEMENT_3D('',#217,#218,#219);
#217 = CARTESIAN_POINT('',(0.,153.,-130.));
#218 = DIRECTION('',(0.,1.,0.));
#219 = DIRECTION('',(0.,-0.,1.));
#220 = PLANE('',#221);
#221 = AXIS2_PLACEMENT_3D('',#222,#223,#224);
#222 = CARTESIAN_POINT('',(2.380451800097E-16,153.,-65.));
#223 = DIRECTION('',(-0.,-1.,-0.));
#224 = DIRECTION('',(0.,0.,-1.));
#225 = ADVANCED_FACE('',(#226,#292,#303),#314,.F.);
#226 = FACE_BOUND('',#227,.F.);
#227 = EDGE_LOOP('',(#228,#229,#230,#239,#248,#257,#266,#275,#284,#291)
  );
#228 = ORIENTED_EDGE('',*,*,#31,.T.);
#229 = ORIENTED_EDGE('',*,*,#100,.T.);
#230 = ORIENTED_EDGE('',*,*,#231,.T.);
#231 = EDGE_CURVE('',#101,#232,#234,.T.);
#232 = VERTEX_POINT('',#233);
#233 = CARTESIAN_POINT('',(-6.2,165.,-65.));
#234 = B_SPLINE_CURVE_WITH_KNOTS('',3,(#235,#236,#237,#238),
  .UNSPECIFIED.,.F.,.F.,(4,4),(0.,1.),.PIECEWISE_BEZIER_KNOTS.);
#235 = CARTESIAN_POINT('',(-7.,165.,-32.));
#236 = CARTESIAN_POINT('',(-7.,165.,-48.));
#237 = CARTESIAN_POINT('',(-6.2,165.,-57.));
#238 = CARTESIAN_POINT('',(-6.2,165.,-65.));
#239 = ORIENTED_EDGE('',*,*,#240,.T.);
#240 = EDGE_CURVE('',#232,#241,#243,.T.);
#241 = VERTEX_POINT('',#242);
#242 = CARTESIAN_POINT('',(-7.,165.,-98.));
#243 = B_SPLINE_CURVE_WITH_KNOTS('',3,(#244,#245,#246,#247),
  .UNSPECIFIED.,.F.,.F.,(4,4),(0.,1.),.PIECEWISE_BEZIER_KNOTS.);
#244 = CARTESIAN_POINT('',(-6.2,165.,-65.));
#245 = CARTESIAN_POINT('',(-6.2,165.,-73.));
#246 = CARTESIAN_POINT('',(-7.,165.,-82.));
#247 = CARTESIAN_POINT('',(-7.,165.,-98.));
#248 = ORIENTED_EDGE('',*,*,#249,.T.);
#249 = EDGE_CURVE('',#241,#250,#252,.T.);
#250 = VERTEX_POINT('',#251);
#251 = CARTESIAN_POINT('',(-8.,165.,-121.05572809));
#252 = B_SPLINE_CURVE_WITH_KNOTS('',3,(#253,#254,#255,#256),
  .UNSPECIFIED.,.F.,.F.,(4,4),(0.,1.),.PIECEWISE_BEZIER_KNOTS.);
#253 = CARTESIAN_POINT('',(-7.,165.,-98.));
#254 = CARTESIAN_POINT('',(-7.,165.,-107.));
#255 = CARTESIAN_POINT('',(-6.5,165.,-119.7140873035));
#256 = CARTESIAN_POINT('',(-8.,165.,-121.05572809));
#257 = ORIENTED_EDGE('',*,*,#258,.T.);
#258 = EDGE_CURVE('',#250,#259,#261,.T.);
#259 = VERTEX_POINT('',#260);
#260 = CARTESIAN_POINT('',(8.,165.,-121.05572809));
#261 = CIRCLE('',#262,12.);
#262 = AXIS2_PLACEMENT_3D('',#263,#264,#265);
#263 = CARTESIAN_POINT('',(1.897114718879E-15,165.,-130.));
#264 = DIRECTION('',(0.,-1.,0.));
#265 = DIRECTION('',(-0.666666666667,0.,0.7453559925));
#266 = ORIENTED_EDGE('',*,*,#267,.T.);
#267 = EDGE_CURVE('',#259,#268,#270,.T.);
#268 = VERTEX_POINT('',#269);
#269 = CARTESIAN_POINT('',(7.,165.,-98.));
#270 = B_SPLINE_CURVE_WITH_KNOTS('',3,(#271,#272,#273,#274),
  .UNSPECIFIED.,.F.,.F.,(4,4),(0.,1.),.PIECEWISE_BEZIER_KNOTS.);
#271 = CARTESIAN_POINT('',(8.,165.,-121.05572809));
#272 = CARTESIAN_POINT('',(6.5,165.,-119.7140873035));
#273 = CARTESIAN_POINT('',(7.,165.,-107.));
#274 = CARTESIAN_POINT('',(7.,165.,-98.));
#275 = ORIENTED_EDGE('',*,*,#276,.T.);
#276 = EDGE_CURVE('',#268,#277,#279,.T.);
#277 = VERTEX_POINT('',#278);
#278 = CARTESIAN_POINT('',(6.2,165.,-65.));
#279 = B_SPLINE_CURVE_WITH_KNOTS('',3,(#280,#281,#282,#283),
  .UNSPECIFIED.,.F.,.F.,(4,4),(0.,1.),.PIECEWISE_BEZIER_KNOTS.);
#280 = CARTESIAN_POINT('',(7.,165.,-98.));
#281 = CARTESIAN_POINT('',(7.,165.,-82.));
#282 = CARTESIAN_POINT('',(6.2,165.,-73.));
#283 = CARTESIAN_POINT('',(6.2,165.,-65.));
#284 = ORIENTED_EDGE('',*,*,#285,.T.);
#285 = EDGE_CURVE('',#277,#66,#286,.T.);
#286 = B_SPLINE_CURVE_WITH_KNOTS('',3,(#287,#288,#289,#290),
  .UNSPECIFIED.,.F.,.F.,(4,4),(0.,1.),.PIECEWISE_BEZIER_KNOTS.);
#287 = CARTESIAN_POINT('',(6.2,165.,-65.));
#288 = CARTESIAN_POINT('',(6.2,165.,-57.));
#289 = CARTESIAN_POINT('',(7.,165.,-48.));
#290 = CARTESIAN_POINT('',(7.,165.,-32.));
#291 = ORIENTED_EDGE('',*,*,#73,.T.);
#292 = FACE_BOUND('',#293,.F.);
#293 = EDGE_LOOP('',(#294));
#294 = ORIENTED_EDGE('',*,*,#295,.T.);
#295 = EDGE_CURVE('',#296,#296,#298,.T.);
#296 = VERTEX_POINT('',#297);
#297 = CARTESIAN_POINT('',(-1.610410540879E-15,165.,6.575));
#298 = CIRCLE('',#299,6.575);
#299 = AXIS2_PLACEMENT_3D('',#300,#301,#302);
#300 = CARTESIAN_POINT('',(0.,165.,0.));
#301 = DIRECTION('',(0.,1.,0.));
#302 = DIRECTION('',(0.,-0.,1.));
#303 = FACE_BOUND('',#304,.F.);
#304 = EDGE_LOOP('',(#305));
#305 = ORIENTED_EDGE('',*,*,#306,.T.);
#306 = EDGE_CURVE('',#307,#307,#309,.T.);
#307 = VERTEX_POINT('',#308);
#308 = CARTESIAN_POINT('',(-1.610410540879E-15,165.,-123.425));
#309 = CIRCLE('',#310,6.575);
#310 = AXIS2_PLACEMENT_3D('',#311,#312,#313);
#311 = CARTESIAN_POINT('',(0.,165.,-130.));
#312 = DIRECTION('',(0.,1.,0.));
#313 = DIRECTION('',(0.,-0.,1.));
#314 = PLANE('',#315);
#315 = AXIS2_PLACEMENT_3D('',#316,#317,#318);
#316 = CARTESIAN_POINT('',(2.380451800097E-16,165.,-65.));
#317 = DIRECTION('',(-0.,-1.,-0.));
#318 = DIRECTION('',(0.,0.,-1.));
#319 = ADVANCED_FACE('',(#320),#331,.T.);
#320 = FACE_BOUND('',#321,.T.);
#321 = EDGE_LOOP('',(#322,#328,#329,#330));
#322 = ORIENTED_EDGE('',*,*,#323,.T.);
#323 = EDGE_CURVE('',#183,#277,#324,.T.);
#324 = LINE('',#325,#326);
#325 = CARTESIAN_POINT('',(6.2,153.,-65.));
#326 = VECTOR('',#327,1.);
#327 = DIRECTION('',(0.,1.,0.));
#328 = ORIENTED_EDGE('',*,*,#285,.T.);
#329 = ORIENTED_EDGE('',*,*,#63,.F.);
#330 = ORIENTED_EDGE('',*,*,#191,.F.);
#331 = SURFACE_OF_LINEAR_EXTRUSION('',#332,#337);
#332 = B_SPLINE_CURVE_WITH_KNOTS('',3,(#333,#334,#335,#336),
  .UNSPECIFIED.,.F.,.F.,(4,4),(0.,1.),.PIECEWISE_BEZIER_KNOTS.);
#333 = CARTESIAN_POINT('',(6.2,153.,-65.));
#334 = CARTESIAN_POINT('',(6.2,153.,-57.));
#335 = CARTESIAN_POINT('',(7.,153.,-48.));
#336 = CARTESIAN_POINT('',(7.,153.,-32.));
#337 = VECTOR('',#338,1.);
#338 = DIRECTION('',(-0.,-1.,-0.));
#339 = ADVANCED_FACE('',(#340),#351,.T.);
#340 = FACE_BOUND('',#341,.T.);
#341 = EDGE_LOOP('',(#342,#343,#344,#350));
#342 = ORIENTED_EDGE('',*,*,#109,.T.);
#343 = ORIENTED_EDGE('',*,*,#231,.T.);
#344 = ORIENTED_EDGE('',*,*,#345,.F.);
#345 = EDGE_CURVE('',#138,#232,#346,.T.);
#346 = LINE('',#347,#348);
#347 = CARTESIAN_POINT('',(-6.2,153.,-65.));
#348 = VECTOR('',#349,1.);
#349 = DIRECTION('',(0.,1.,0.));
#350 = ORIENTED_EDGE('',*,*,#137,.F.);
#351 = SURFACE_OF_LINEAR_EXTRUSION('',#352,#357);
#352 = B_SPLINE_CURVE_WITH_KNOTS('',3,(#353,#354,#355,#356),
  .UNSPECIFIED.,.F.,.F.,(4,4),(0.,1.),.PIECEWISE_BEZIER_KNOTS.);
#353 = CARTESIAN_POINT('',(-7.,153.,-32.));
#354 = CARTESIAN_POINT('',(-7.,153.,-48.));
#355 = CARTESIAN_POINT('',(-6.2,153.,-57.));
#356 = CARTESIAN_POINT('',(-6.2,153.,-65.));
#357 = VECTOR('',#358,1.);
#358 = DIRECTION('',(-0.,-1.,-0.));
#359 = ADVANCED_FACE('',(#360),#371,.T.);
#360 = FACE_BOUND('',#361,.T.);
#361 = EDGE_LOOP('',(#362,#368,#369,#370));
#362 = ORIENTED_EDGE('',*,*,#363,.T.);
#363 = EDGE_CURVE('',#174,#268,#364,.T.);
#364 = LINE('',#365,#366);
#365 = CARTESIAN_POINT('',(7.,153.,-98.));
#366 = VECTOR('',#367,1.);
#367 = DIRECTION('',(0.,1.,0.));
#368 = ORIENTED_EDGE('',*,*,#276,.T.);
#369 = ORIENTED_EDGE('',*,*,#323,.F.);
#370 = ORIENTED_EDGE('',*,*,#182,.F.);
#371 = SURFACE_OF_LINEAR_EXTRUSION('',#372,#377);
#372 = B_SPLINE_CURVE_WITH_KNOTS('',3,(#373,#374,#375,#376),
  .UNSPECIFIED.,.F.,.F.,(4,4),(0.,1.),.PIECEWISE_BEZIER_KNOTS.);
#373 = CARTESIAN_POINT('',(7.,153.,-98.));
#374 = CARTESIAN_POINT('',(7.,153.,-82.));
#375 = CARTESIAN_POINT('',(6.2,153.,-73.));
#376 = CARTESIAN_POINT('',(6.2,153.,-65.));
#377 = VECTOR('',#378,1.);
#378 = DIRECTION('',(-0.,-1.,-0.));
#379 = ADVANCED_FACE('',(#380),#391,.T.);
#380 = FACE_BOUND('',#381,.T.);
#381 = EDGE_LOOP('',(#382,#383,#384,#390));
#382 = ORIENTED_EDGE('',*,*,#345,.T.);
#383 = ORIENTED_EDGE('',*,*,#240,.T.);
#384 = ORIENTED_EDGE('',*,*,#385,.F.);
#385 = EDGE_CURVE('',#147,#241,#386,.T.);
#386 = LINE('',#387,#388);
#387 = CARTESIAN_POINT('',(-7.,153.,-98.));
#388 = VECTOR('',#389,1.);
#389 = DIRECTION('',(0.,1.,0.));
#390 = ORIENTED_EDGE('',*,*,#146,.F.);
#391 = SURFACE_OF_LINEAR_EXTRUSION('',#392,#397);
#392 = B_SPLINE_CURVE_WITH_KNOTS('',3,(#393,#394,#395,#396),
  .UNSPECIFIED.,.F.,.F.,(4,4),(0.,1.),.PIECEWISE_BEZIER_KNOTS.);
#393 = CARTESIAN_POINT('',(-6.2,153.,-65.));
#394 = CARTESIAN_POINT('',(-6.2,153.,-73.));
#395 = CARTESIAN_POINT('',(-7.,153.,-82.));
#396 = CARTESIAN_POINT('',(-7.,153.,-98.));
#397 = VECTOR('',#398,1.);
#398 = DIRECTION('',(-0.,-1.,-0.));
#399 = ADVANCED_FACE('',(#400),#411,.T.);
#400 = FACE_BOUND('',#401,.T.);
#401 = EDGE_LOOP('',(#402,#408,#409,#410));
#402 = ORIENTED_EDGE('',*,*,#403,.T.);
#403 = EDGE_CURVE('',#165,#259,#404,.T.);
#404 = LINE('',#405,#406);
#405 = CARTESIAN_POINT('',(8.,153.,-121.05572809));
#406 = VECTOR('',#407,1.);
#407 = DIRECTION('',(0.,1.,0.));
#408 = ORIENTED_EDGE('',*,*,#267,.T.);
#409 = ORIENTED_EDGE('',*,*,#363,.F.);
#410 = ORIENTED_EDGE('',*,*,#173,.F.);
#411 = SURFACE_OF_LINEAR_EXTRUSION('',#412,#417);
#412 = B_SPLINE_CURVE_WITH_KNOTS('',3,(#413,#414,#415,#416),
  .UNSPECIFIED.,.F.,.F.,(4,4),(0.,1.),.PIECEWISE_BEZIER_KNOTS.);
#413 = CARTESIAN_POINT('',(8.,153.,-121.05572809));
#414 = CARTESIAN_POINT('',(6.5,153.,-119.7140873035));
#415 = CARTESIAN_POINT('',(7.,153.,-107.));
#416 = CARTESIAN_POINT('',(7.,153.,-98.));
#417 = VECTOR('',#418,1.);
#418 = DIRECTION('',(-0.,-1.,-0.));
#419 = ADVANCED_FACE('',(#420),#431,.T.);
#420 = FACE_BOUND('',#421,.T.);
#421 = EDGE_LOOP('',(#422,#423,#424,#430));
#422 = ORIENTED_EDGE('',*,*,#385,.T.);
#423 = ORIENTED_EDGE('',*,*,#249,.T.);
#424 = ORIENTED_EDGE('',*,*,#425,.F.);
#425 = EDGE_CURVE('',#156,#250,#426,.T.);
#426 = LINE('',#427,#428);
#427 = CARTESIAN_POINT('',(-8.,153.,-121.05572809));
#428 = VECTOR('',#429,1.);
#429 = DIRECTION('',(0.,1.,0.));
#430 = ORIENTED_EDGE('',*,*,#155,.F.);
#431 = SURFACE_OF_LINEAR_EXTRUSION('',#432,#437);
#432 = B_SPLINE_CURVE_WITH_KNOTS('',3,(#433,#434,#435,#436),
  .UNSPECIFIED.,.F.,.F.,(4,4),(0.,1.),.PIECEWISE_BEZIER_KNOTS.);
#433 = CARTESIAN_POINT('',(-7.,153.,-98.));
#434 = CARTESIAN_POINT('',(-7.,153.,-107.));
#435 = CARTESIAN_POINT('',(-6.5,153.,-119.7140873035));
#436 = CARTESIAN_POINT('',(-8.,153.,-121.05572809));
#437 = VECTOR('',#438,1.);
#438 = DIRECTION('',(-0.,-1.,-0.));
#439 = ADVANCED_FACE('',(#440),#446,.T.);
#440 = FACE_BOUND('',#441,.T.);
#441 = EDGE_LOOP('',(#442,#443,#444,#445));
#442 = ORIENTED_EDGE('',*,*,#425,.T.);
#443 = ORIENTED_EDGE('',*,*,#258,.T.);
#444 = ORIENTED_EDGE('',*,*,#403,.F.);
#445 = ORIENTED_EDGE('',*,*,#164,.F.);
#446 = CYLINDRICAL_SURFACE('',#447,12.);
#447 = AXIS2_PLACEMENT_3D('',#448,#449,#450);
#448 = CARTESIAN_POINT('',(1.897114718879E-15,153.,-130.));
#449 = DIRECTION('',(0.,-1.,0.));
#450 = DIRECTION('',(-0.666666666667,0.,0.7453559925));
#451 = ADVANCED_FACE('',(#452),#471,.F.);
#452 = FACE_BOUND('',#453,.F.);
#453 = EDGE_LOOP('',(#454,#462,#469,#470));
#454 = ORIENTED_EDGE('',*,*,#455,.T.);
#455 = EDGE_CURVE('',#202,#456,#458,.T.);
#456 = VERTEX_POINT('',#457);
#457 = CARTESIAN_POINT('',(-1.610410540879E-15,158.05,6.575));
#458 = LINE('',#459,#460);
#459 = CARTESIAN_POINT('',(-1.610410540879E-15,152.9,6.575));
#460 = VECTOR('',#461,1.);
#461 = DIRECTION('',(0.,1.,0.));
#462 = ORIENTED_EDGE('',*,*,#463,.F.);
#463 = EDGE_CURVE('',#456,#456,#464,.T.);
#464 = CIRCLE('',#465,6.575);
#465 = AXIS2_PLACEMENT_3D('',#466,#467,#468);
#466 = CARTESIAN_POINT('',(0.,158.05,0.));
#467 = DIRECTION('',(0.,1.,0.));
#468 = DIRECTION('',(0.,-0.,1.));
#469 = ORIENTED_EDGE('',*,*,#455,.F.);
#470 = ORIENTED_EDGE('',*,*,#201,.T.);
#471 = CYLINDRICAL_SURFACE('',#472,6.575);
#472 = AXIS2_PLACEMENT_3D('',#473,#474,#475);
#473 = CARTESIAN_POINT('',(0.,152.9,0.));
#474 = DIRECTION('',(0.,1.,0.));
#475 = DIRECTION('',(0.,-0.,1.));
#476 = ADVANCED_FACE('',(#477),#496,.F.);
#477 = FACE_BOUND('',#478,.F.);
#478 = EDGE_LOOP('',(#479,#487,#494,#495));
#479 = ORIENTED_EDGE('',*,*,#480,.T.);
#480 = EDGE_CURVE('',#213,#481,#483,.T.);
#481 = VERTEX_POINT('',#482);
#482 = CARTESIAN_POINT('',(-1.610410540879E-15,158.05,-123.425));
#483 = LINE('',#484,#485);
#484 = CARTESIAN_POINT('',(-1.610410540879E-15,152.9,-123.425));
#485 = VECTOR('',#486,1.);
#486 = DIRECTION('',(0.,1.,0.));
#487 = ORIENTED_EDGE('',*,*,#488,.F.);
#488 = EDGE_CURVE('',#481,#481,#489,.T.);
#489 = CIRCLE('',#490,6.575);
#490 = AXIS2_PLACEMENT_3D('',#491,#492,#493);
#491 = CARTESIAN_POINT('',(0.,158.05,-130.));
#492 = DIRECTION('',(0.,1.,0.));
#493 = DIRECTION('',(0.,-0.,1.));
#494 = ORIENTED_EDGE('',*,*,#480,.F.);
#495 = ORIENTED_EDGE('',*,*,#212,.T.);
#496 = CYLINDRICAL_SURFACE('',#497,6.575);
#497 = AXIS2_PLACEMENT_3D('',#498,#499,#500);
#498 = CARTESIAN_POINT('',(0.,152.9,-130.));
#499 = DIRECTION('',(0.,1.,0.));
#500 = DIRECTION('',(0.,-0.,1.));
#501 = ADVANCED_FACE('',(#502),#521,.F.);
#502 = FACE_BOUND('',#503,.F.);
#503 = EDGE_LOOP('',(#504,#505,#513,#520));
#504 = ORIENTED_EDGE('',*,*,#295,.F.);
#505 = ORIENTED_EDGE('',*,*,#506,.F.);
#506 = EDGE_CURVE('',#507,#296,#509,.T.);
#507 = VERTEX_POINT('',#508);
#508 = CARTESIAN_POINT('',(-1.610410540879E-15,159.95,6.575));
#509 = LINE('',#510,#511);
#510 = CARTESIAN_POINT('',(-1.610410540879E-15,159.95,6.575));
#511 = VECTOR('',#512,1.);
#512 = DIRECTION('',(0.,1.,0.));
#513 = ORIENTED_EDGE('',*,*,#514,.T.);
#514 = EDGE_CURVE('',#507,#507,#515,.T.);
#515 = CIRCLE('',#516,6.575);
#516 = AXIS2_PLACEMENT_3D('',#517,#518,#519);
#517 = CARTESIAN_POINT('',(0.,159.95,0.));
#518 = DIRECTION('',(0.,1.,0.));
#519 = DIRECTION('',(0.,-0.,1.));
#520 = ORIENTED_EDGE('',*,*,#506,.T.);
#521 = CYLINDRICAL_SURFACE('',#522,6.575);
#522 = AXIS2_PLACEMENT_3D('',#523,#524,#525);
#523 = CARTESIAN_POINT('',(0.,159.95,0.));
#524 = DIRECTION('',(0.,1.,0.));
#525 = DIRECTION('',(0.,-0.,1.));
#526 = ADVANCED_FACE('',(#527),#546,.F.);
#527 = FACE_BOUND('',#528,.F.);
#528 = EDGE_LOOP('',(#529,#530,#538,#545));
#529 = ORIENTED_EDGE('',*,*,#306,.F.);
#530 = ORIENTED_EDGE('',*,*,#531,.F.);
#531 = EDGE_CURVE('',#532,#307,#534,.T.);
#532 = VERTEX_POINT('',#533);
#533 = CARTESIAN_POINT('',(-1.610410540879E-15,159.95,-123.425));
#534 = LINE('',#535,#536);
#535 = CARTESIAN_POINT('',(-1.610410540879E-15,159.95,-123.425));
#536 = VECTOR('',#537,1.);
#537 = DIRECTION('',(0.,1.,0.));
#538 = ORIENTED_EDGE('',*,*,#539,.T.);
#539 = EDGE_CURVE('',#532,#532,#540,.T.);
#540 = CIRCLE('',#541,6.575);
#541 = AXIS2_PLACEMENT_3D('',#542,#543,#544);
#542 = CARTESIAN_POINT('',(0.,159.95,-130.));
#543 = DIRECTION('',(0.,1.,0.));
#544 = DIRECTION('',(0.,-0.,1.));
#545 = ORIENTED_EDGE('',*,*,#531,.T.);
#546 = CYLINDRICAL_SURFACE('',#547,6.575);
#547 = AXIS2_PLACEMENT_3D('',#548,#549,#550);
#548 = CARTESIAN_POINT('',(0.,159.95,-130.));
#549 = DIRECTION('',(0.,1.,0.));
#550 = DIRECTION('',(0.,-0.,1.));
#551 = ADVANCED_FACE('',(#552,#555),#566,.F.);
#552 = FACE_BOUND('',#553,.F.);
#553 = EDGE_LOOP('',(#554));
#554 = ORIENTED_EDGE('',*,*,#463,.T.);
#555 = FACE_BOUND('',#556,.F.);
#556 = EDGE_LOOP('',(#557));
#557 = ORIENTED_EDGE('',*,*,#558,.F.);
#558 = EDGE_CURVE('',#559,#559,#561,.T.);
#559 = VERTEX_POINT('',#560);
#560 = CARTESIAN_POINT('',(-1.445083222994E-15,158.05,5.9));
#561 = CIRCLE('',#562,5.9);
#562 = AXIS2_PLACEMENT_3D('',#563,#564,#565);
#563 = CARTESIAN_POINT('',(0.,158.05,0.));
#564 = DIRECTION('',(0.,1.,0.));
#565 = DIRECTION('',(0.,-0.,1.));
#566 = PLANE('',#567);
#567 = AXIS2_PLACEMENT_3D('',#568,#569,#570);
#568 = CARTESIAN_POINT('',(0.,158.05,0.));
#569 = DIRECTION('',(0.,1.,0.));
#570 = DIRECTION('',(0.,-0.,1.));
#571 = ADVANCED_FACE('',(#572,#575),#586,.F.);
#572 = FACE_BOUND('',#573,.F.);
#573 = EDGE_LOOP('',(#574));
#574 = ORIENTED_EDGE('',*,*,#488,.T.);
#575 = FACE_BOUND('',#576,.F.);
#576 = EDGE_LOOP('',(#577));
#577 = ORIENTED_EDGE('',*,*,#578,.F.);
#578 = EDGE_CURVE('',#579,#579,#581,.T.);
#579 = VERTEX_POINT('',#580);
#580 = CARTESIAN_POINT('',(-1.445083222994E-15,158.05,-124.1));
#581 = CIRCLE('',#582,5.9);
#582 = AXIS2_PLACEMENT_3D('',#583,#584,#585);
#583 = CARTESIAN_POINT('',(0.,158.05,-130.));
#584 = DIRECTION('',(0.,1.,0.));
#585 = DIRECTION('',(0.,-0.,1.));
#586 = PLANE('',#587);
#587 = AXIS2_PLACEMENT_3D('',#588,#589,#590);
#588 = CARTESIAN_POINT('',(0.,158.05,-130.));
#589 = DIRECTION('',(0.,1.,0.));
#590 = DIRECTION('',(0.,-0.,1.));
#591 = ADVANCED_FACE('',(#592,#595),#606,.T.);
#592 = FACE_BOUND('',#593,.T.);
#593 = EDGE_LOOP('',(#594));
#594 = ORIENTED_EDGE('',*,*,#514,.T.);
#595 = FACE_BOUND('',#596,.T.);
#596 = EDGE_LOOP('',(#597));
#597 = ORIENTED_EDGE('',*,*,#598,.F.);
#598 = EDGE_CURVE('',#599,#599,#601,.T.);
#599 = VERTEX_POINT('',#600);
#600 = CARTESIAN_POINT('',(-1.445083222994E-15,159.95,5.9));
#601 = CIRCLE('',#602,5.9);
#602 = AXIS2_PLACEMENT_3D('',#603,#604,#605);
#603 = CARTESIAN_POINT('',(0.,159.95,0.));
#604 = DIRECTION('',(0.,1.,0.));
#605 = DIRECTION('',(0.,-0.,1.));
#606 = PLANE('',#607);
#607 = AXIS2_PLACEMENT_3D('',#608,#609,#610);
#608 = CARTESIAN_POINT('',(0.,159.95,0.));
#609 = DIRECTION('',(0.,1.,0.));
#610 = DIRECTION('',(0.,-0.,1.));
#611 = ADVANCED_FACE('',(#612,#615),#626,.T.);
#612 = FACE_BOUND('',#613,.T.);
#613 = EDGE_LOOP('',(#614));
#614 = ORIENTED_EDGE('',*,*,#539,.T.);
#615 = FACE_BOUND('',#616,.T.);
#616 = EDGE_LOOP('',(#617));
#617 = ORIENTED_EDGE('',*,*,#618,.F.);
#618 = EDGE_CURVE('',#619,#619,#621,.T.);
#619 = VERTEX_POINT('',#620);
#620 = CARTESIAN_POINT('',(-1.445083222994E-15,159.95,-124.1));
#621 = CIRCLE('',#622,5.9);
#622 = AXIS2_PLACEMENT_3D('',#623,#624,#625);
#623 = CARTESIAN_POINT('',(0.,159.95,-130.));
#624 = DIRECTION('',(0.,1.,0.));
#625 = DIRECTION('',(0.,-0.,1.));
#626 = PLANE('',#627);
#627 = AXIS2_PLACEMENT_3D('',#628,#629,#630);
#628 = CARTESIAN_POINT('',(0.,159.95,-130.));
#629 = DIRECTION('',(0.,1.,0.));
#630 = DIRECTION('',(0.,-0.,1.));
#631 = ADVANCED_FACE('',(#632),#643,.F.);
#632 = FACE_BOUND('',#633,.F.);
#633 = EDGE_LOOP('',(#634,#635,#641,#642));
#634 = ORIENTED_EDGE('',*,*,#598,.F.);
#635 = ORIENTED_EDGE('',*,*,#636,.F.);
#636 = EDGE_CURVE('',#559,#599,#637,.T.);
#637 = LINE('',#638,#639);
#638 = CARTESIAN_POINT('',(-1.445083222994E-15,152.,5.9));
#639 = VECTOR('',#640,1.);
#640 = DIRECTION('',(0.,1.,0.));
#641 = ORIENTED_EDGE('',*,*,#558,.T.);
#642 = ORIENTED_EDGE('',*,*,#636,.T.);
#643 = CYLINDRICAL_SURFACE('',#644,5.9);
#644 = AXIS2_PLACEMENT_3D('',#645,#646,#647);
#645 = CARTESIAN_POINT('',(0.,152.,0.));
#646 = DIRECTION('',(0.,1.,0.));
#647 = DIRECTION('',(0.,-0.,1.));
#648 = ADVANCED_FACE('',(#649),#660,.F.);
#649 = FACE_BOUND('',#650,.F.);
#650 = EDGE_LOOP('',(#651,#652,#658,#659));
#651 = ORIENTED_EDGE('',*,*,#618,.F.);
#652 = ORIENTED_EDGE('',*,*,#653,.F.);
#653 = EDGE_CURVE('',#579,#619,#654,.T.);
#654 = LINE('',#655,#656);
#655 = CARTESIAN_POINT('',(-1.445083222994E-15,152.,-124.1));
#656 = VECTOR('',#657,1.);
#657 = DIRECTION('',(0.,1.,0.));
#658 = ORIENTED_EDGE('',*,*,#578,.T.);
#659 = ORIENTED_EDGE('',*,*,#653,.T.);
#660 = CYLINDRICAL_SURFACE('',#661,5.9);
#661 = AXIS2_PLACEMENT_3D('',#662,#663,#664);
#662 = CARTESIAN_POINT('',(0.,152.,-130.));
#663 = DIRECTION('',(0.,1.,0.));
#664 = DIRECTION('',(0.,-0.,1.));
#665 = ( GEOMETRIC_REPRESENTATION_CONTEXT(3) 
GLOBAL_UNCERTAINTY_ASSIGNED_CONTEXT((#669)) GLOBAL_UNIT_ASSIGNED_CONTEXT
((#666,#667,#668)) REPRESENTATION_CONTEXT('Context #1',
  '3D Context with UNIT and UNCERTAINTY') );
#666 = ( LENGTH_UNIT() NAMED_UNIT(*) SI_UNIT(.MILLI.,.METRE.) );
#667 = ( NAMED_UNIT(*) PLANE_ANGLE_UNIT() SI_UNIT($,.RADIAN.) );
#668 = ( NAMED_UNIT(*) SI_UNIT($,.STERADIAN.) SOLID_ANGLE_UNIT() );
#669 = UNCERTAINTY_MEASURE_WITH_UNIT(LENGTH_MEASURE(1.E-07),#666,
  'distance_accuracy_value','confusion accuracy');
#670 = PRODUCT_RELATED_PRODUCT_CATEGORY('part',$,(#7));
ENDSEC;
END-ISO-10303-21;
