ISO-10303-21;
HEADER;
FILE_DESCRIPTION(('FreeCAD Model'),'2;1');
FILE_NAME('Open CASCADE Shape Model','2026-09-22T10:50:13',('FreeCAD'),(
    'FreeCAD'),'Open CASCADE STEP processor 7.8','FreeCAD','Unknown');
FILE_SCHEMA(('AUTOMOTIVE_DESIGN { 1 0 10303 214 1 1 1 1 }'));
ENDSEC;
DATA;
#1 = APPLICATION_PROTOCOL_DEFINITION('international standard',
  'automotive_design',2000,#2);
#2 = APPLICATION_CONTEXT(
  'core data for automotive mechanical design processes');
#3 = SHAPE_DEFINITION_REPRESENTATION(#4,#10);
#4 = PRODUCT_DEFINITION_SHAPE('','',#5);
#5 = PRODUCT_DEFINITION('design','',#6,#9);
#6 = PRODUCT_DEFINITION_FORMATION('','',#7);
#7 = PRODUCT('Open CASCADE STEP translator 7.8 30',
  'Open CASCADE STEP translator 7.8 30','',(#8));
#8 = PRODUCT_CONTEXT('',#2,'mechanical');
#9 = PRODUCT_DEFINITION_CONTEXT('part definition',#2,'design');
#10 = ADVANCED_BREP_SHAPE_REPRESENTATION('',(#11,#15),#477);
#11 = AXIS2_PLACEMENT_3D('',#12,#13,#14);
#12 = CARTESIAN_POINT('',(0.,0.,0.));
#13 = DIRECTION('',(0.,0.,1.));
#14 = DIRECTION('',(1.,0.,-0.));
#15 = MANIFOLD_SOLID_BREP('',#16);
#16 = CLOSED_SHELL('',(#17,#57,#166,#201,#294,#313,#330,#347,#364,#376,
    #401,#426,#443,#460));
#17 = ADVANCED_FACE('',(#18),#52,.F.);
#18 = FACE_BOUND('',#19,.F.);
#19 = EDGE_LOOP('',(#20,#30,#38,#46));
#20 = ORIENTED_EDGE('',*,*,#21,.F.);
#21 = EDGE_CURVE('',#22,#24,#26,.T.);
#22 = VERTEX_POINT('',#23);
#23 = CARTESIAN_POINT('',(-20.41126701617,166.,51.412805329814));
#24 = VERTEX_POINT('',#25);
#25 = CARTESIAN_POINT('',(-6.786520858893,166.,44.896622385026));
#26 = LINE('',#27,#28);
#27 = CARTESIAN_POINT('',(-20.41126701617,166.,51.412805329814));
#28 = VECTOR('',#29,1.);
#29 = DIRECTION('',(0.902134221636,0.,-0.431455497304));
#30 = ORIENTED_EDGE('',*,*,#31,.T.);
#31 = EDGE_CURVE('',#22,#32,#34,.T.);
#32 = VERTEX_POINT('',#33);
#33 = CARTESIAN_POINT('',(-20.41126701617,172.,51.412805329814));
#34 = LINE('',#35,#36);
#35 = CARTESIAN_POINT('',(-20.41126701617,166.,51.412805329814));
#36 = VECTOR('',#37,1.);
#37 = DIRECTION('',(0.,1.,0.));
#38 = ORIENTED_EDGE('',*,*,#39,.T.);
#39 = EDGE_CURVE('',#32,#40,#42,.T.);
#40 = VERTEX_POINT('',#41);
#41 = CARTESIAN_POINT('',(-6.786520858893,172.,44.896622385026));
#42 = LINE('',#43,#44);
#43 = CARTESIAN_POINT('',(-20.41126701617,172.,51.412805329814));
#44 = VECTOR('',#45,1.);
#45 = DIRECTION('',(0.902134221636,0.,-0.431455497304));
#46 = ORIENTED_EDGE('',*,*,#47,.F.);
#47 = EDGE_CURVE('',#24,#40,#48,.T.);
#48 = LINE('',#49,#50);
#49 = CARTESIAN_POINT('',(-6.786520858893,166.,44.896622385026));
#50 = VECTOR('',#51,1.);
#51 = DIRECTION('',(0.,1.,0.));
#52 = PLANE('',#53);
#53 = AXIS2_PLACEMENT_3D('',#54,#55,#56);
#54 = CARTESIAN_POINT('',(-20.41126701617,166.,51.412805329814));
#55 = DIRECTION('',(-0.431455497304,0.,-0.902134221636));
#56 = DIRECTION('',(0.902134221636,0.,-0.431455497304));
#57 = ADVANCED_FACE('',(#58,#128,#139,#150),#161,.T.);
#58 = FACE_BOUND('',#59,.T.);
#59 = EDGE_LOOP('',(#60,#69,#70,#79,#88,#96,#104,#113,#121));
#60 = ORIENTED_EDGE('',*,*,#61,.F.);
#61 = EDGE_CURVE('',#24,#62,#64,.T.);
#62 = VERTEX_POINT('',#63);
#63 = CARTESIAN_POINT('',(-2.939152317954E-15,166.,47.));
#64 = CIRCLE('',#65,12.);
#65 = AXIS2_PLACEMENT_3D('',#66,#67,#68);
#66 = CARTESIAN_POINT('',(0.,166.,35.));
#67 = DIRECTION('',(0.,1.,0.));
#68 = DIRECTION('',(0.,-0.,1.));
#69 = ORIENTED_EDGE('',*,*,#21,.F.);
#70 = ORIENTED_EDGE('',*,*,#71,.F.);
#71 = EDGE_CURVE('',#72,#22,#74,.T.);
#72 = VERTEX_POINT('',#73);
#73 = CARTESIAN_POINT('',(-23.,166.,52.));
#74 = CIRCLE('',#75,6.);
#75 = AXIS2_PLACEMENT_3D('',#76,#77,#78);
#76 = CARTESIAN_POINT('',(-23.,166.,46.));
#77 = DIRECTION('',(0.,1.,0.));
#78 = DIRECTION('',(0.,-0.,1.));
#79 = ORIENTED_EDGE('',*,*,#80,.F.);
#80 = EDGE_CURVE('',#81,#72,#83,.T.);
#81 = VERTEX_POINT('',#82);
#82 = CARTESIAN_POINT('',(-25.58873298382,166.,40.587194670186));
#83 = CIRCLE('',#84,6.);
#84 = AXIS2_PLACEMENT_3D('',#85,#86,#87);
#85 = CARTESIAN_POINT('',(-23.,166.,46.));
#86 = DIRECTION('',(0.,1.,0.));
#87 = DIRECTION('',(0.,-0.,1.));
#88 = ORIENTED_EDGE('',*,*,#89,.F.);
#89 = EDGE_CURVE('',#90,#81,#92,.T.);
#90 = VERTEX_POINT('',#91);
#91 = CARTESIAN_POINT('',(-13.90641685525,166.,35.));
#92 = LINE('',#93,#94);
#93 = CARTESIAN_POINT('',(-2.588732983824,166.,29.587194670186));
#94 = VECTOR('',#95,1.);
#95 = DIRECTION('',(-0.902134221636,0.,0.431455497304));
#96 = ORIENTED_EDGE('',*,*,#97,.F.);
#97 = EDGE_CURVE('',#98,#90,#100,.T.);
#98 = VERTEX_POINT('',#99);
#99 = CARTESIAN_POINT('',(-25.58873298382,166.,29.412805329814));
#100 = LINE('',#101,#102);
#101 = CARTESIAN_POINT('',(-25.58873298382,166.,29.412805329814));
#102 = VECTOR('',#103,1.);
#103 = DIRECTION('',(0.902134221636,0.,0.431455497304));
#104 = ORIENTED_EDGE('',*,*,#105,.F.);
#105 = EDGE_CURVE('',#106,#98,#108,.T.);
#106 = VERTEX_POINT('',#107);
#107 = CARTESIAN_POINT('',(-20.41126701617,166.,18.587194670186));
#108 = CIRCLE('',#109,6.);
#109 = AXIS2_PLACEMENT_3D('',#110,#111,#112);
#110 = CARTESIAN_POINT('',(-23.,166.,24.));
#111 = DIRECTION('',(0.,1.,0.));
#112 = DIRECTION('',(0.,-0.,1.));
#113 = ORIENTED_EDGE('',*,*,#114,.F.);
#114 = EDGE_CURVE('',#115,#106,#117,.T.);
#115 = VERTEX_POINT('',#116);
#116 = CARTESIAN_POINT('',(-6.786520858894,166.,25.103377614974));
#117 = LINE('',#118,#119);
#118 = CARTESIAN_POINT('',(2.588732983824,166.,29.587194670186));
#119 = VECTOR('',#120,1.);
#120 = DIRECTION('',(-0.902134221636,0.,-0.431455497304));
#121 = ORIENTED_EDGE('',*,*,#122,.F.);
#122 = EDGE_CURVE('',#62,#115,#123,.T.);
#123 = CIRCLE('',#124,12.);
#124 = AXIS2_PLACEMENT_3D('',#125,#126,#127);
#125 = CARTESIAN_POINT('',(0.,166.,35.));
#126 = DIRECTION('',(0.,1.,0.));
#127 = DIRECTION('',(0.,-0.,1.));
#128 = FACE_BOUND('',#129,.T.);
#129 = EDGE_LOOP('',(#130));
#130 = ORIENTED_EDGE('',*,*,#131,.T.);
#131 = EDGE_CURVE('',#132,#132,#134,.T.);
#132 = VERTEX_POINT('',#133);
#133 = CARTESIAN_POINT('',(-23.,166.,47.7));
#134 = CIRCLE('',#135,1.7);
#135 = AXIS2_PLACEMENT_3D('',#136,#137,#138);
#136 = CARTESIAN_POINT('',(-23.,166.,46.));
#137 = DIRECTION('',(0.,1.,0.));
#138 = DIRECTION('',(0.,-0.,1.));
#139 = FACE_BOUND('',#140,.T.);
#140 = EDGE_LOOP('',(#141));
#141 = ORIENTED_EDGE('',*,*,#142,.T.);
#142 = EDGE_CURVE('',#143,#143,#145,.T.);
#143 = VERTEX_POINT('',#144);
#144 = CARTESIAN_POINT('',(-23.,166.,25.7));
#145 = CIRCLE('',#146,1.7);
#146 = AXIS2_PLACEMENT_3D('',#147,#148,#149);
#147 = CARTESIAN_POINT('',(-23.,166.,24.));
#148 = DIRECTION('',(0.,1.,0.));
#149 = DIRECTION('',(0.,-0.,1.));
#150 = FACE_BOUND('',#151,.T.);
#151 = EDGE_LOOP('',(#152));
#152 = ORIENTED_EDGE('',*,*,#153,.T.);
#153 = EDGE_CURVE('',#154,#154,#156,.T.);
#154 = VERTEX_POINT('',#155);
#155 = CARTESIAN_POINT('',(-9.858406733136E-16,166.,39.025));
#156 = CIRCLE('',#157,4.025);
#157 = AXIS2_PLACEMENT_3D('',#158,#159,#160);
#158 = CARTESIAN_POINT('',(0.,166.,35.));
#159 = DIRECTION('',(0.,1.,0.));
#160 = DIRECTION('',(0.,-0.,1.));
#161 = PLANE('',#162);
#162 = AXIS2_PLACEMENT_3D('',#163,#164,#165);
#163 = CARTESIAN_POINT('',(-11.88369400645,166.,35.14752687387));
#164 = DIRECTION('',(-0.,-1.,-0.));
#165 = DIRECTION('',(0.,0.,-1.));
#166 = ADVANCED_FACE('',(#167),#196,.T.);
#167 = FACE_BOUND('',#168,.T.);
#168 = EDGE_LOOP('',(#169,#170,#178,#187,#194,#195));
#169 = ORIENTED_EDGE('',*,*,#122,.T.);
#170 = ORIENTED_EDGE('',*,*,#171,.T.);
#171 = EDGE_CURVE('',#115,#172,#174,.T.);
#172 = VERTEX_POINT('',#173);
#173 = CARTESIAN_POINT('',(-6.786520858894,172.,25.103377614974));
#174 = LINE('',#175,#176);
#175 = CARTESIAN_POINT('',(-6.786520858893,166.,25.103377614974));
#176 = VECTOR('',#177,1.);
#177 = DIRECTION('',(0.,1.,0.));
#178 = ORIENTED_EDGE('',*,*,#179,.F.);
#179 = EDGE_CURVE('',#180,#172,#182,.T.);
#180 = VERTEX_POINT('',#181);
#181 = CARTESIAN_POINT('',(-2.939152317954E-15,172.,47.));
#182 = CIRCLE('',#183,12.);
#183 = AXIS2_PLACEMENT_3D('',#184,#185,#186);
#184 = CARTESIAN_POINT('',(0.,172.,35.));
#185 = DIRECTION('',(0.,1.,0.));
#186 = DIRECTION('',(0.,-0.,1.));
#187 = ORIENTED_EDGE('',*,*,#188,.F.);
#188 = EDGE_CURVE('',#40,#180,#189,.T.);
#189 = CIRCLE('',#190,12.);
#190 = AXIS2_PLACEMENT_3D('',#191,#192,#193);
#191 = CARTESIAN_POINT('',(0.,172.,35.));
#192 = DIRECTION('',(0.,1.,0.));
#193 = DIRECTION('',(0.,-0.,1.));
#194 = ORIENTED_EDGE('',*,*,#47,.F.);
#195 = ORIENTED_EDGE('',*,*,#61,.T.);
#196 = CYLINDRICAL_SURFACE('',#197,12.);
#197 = AXIS2_PLACEMENT_3D('',#198,#199,#200);
#198 = CARTESIAN_POINT('',(0.,166.,35.));
#199 = DIRECTION('',(0.,1.,0.));
#200 = DIRECTION('',(0.,-0.,1.));
#201 = ADVANCED_FACE('',(#202,#256,#267,#278),#289,.T.);
#202 = FACE_BOUND('',#203,.T.);
#203 = EDGE_LOOP('',(#204,#205,#206,#214,#223,#231,#239,#248,#255));
#204 = ORIENTED_EDGE('',*,*,#188,.T.);
#205 = ORIENTED_EDGE('',*,*,#179,.T.);
#206 = ORIENTED_EDGE('',*,*,#207,.T.);
#207 = EDGE_CURVE('',#172,#208,#210,.T.);
#208 = VERTEX_POINT('',#209);
#209 = CARTESIAN_POINT('',(-20.41126701617,172.,18.587194670186));
#210 = LINE('',#211,#212);
#211 = CARTESIAN_POINT('',(2.588732983824,172.,29.587194670186));
#212 = VECTOR('',#213,1.);
#213 = DIRECTION('',(-0.902134221636,0.,-0.431455497304));
#214 = ORIENTED_EDGE('',*,*,#215,.T.);
#215 = EDGE_CURVE('',#208,#216,#218,.T.);
#216 = VERTEX_POINT('',#217);
#217 = CARTESIAN_POINT('',(-25.58873298382,172.,29.412805329814));
#218 = CIRCLE('',#219,6.);
#219 = AXIS2_PLACEMENT_3D('',#220,#221,#222);
#220 = CARTESIAN_POINT('',(-23.,172.,24.));
#221 = DIRECTION('',(0.,1.,0.));
#222 = DIRECTION('',(0.,-0.,1.));
#223 = ORIENTED_EDGE('',*,*,#224,.T.);
#224 = EDGE_CURVE('',#216,#225,#227,.T.);
#225 = VERTEX_POINT('',#226);
#226 = CARTESIAN_POINT('',(-13.90641685525,172.,35.));
#227 = LINE('',#228,#229);
#228 = CARTESIAN_POINT('',(-25.58873298382,172.,29.412805329814));
#229 = VECTOR('',#230,1.);
#230 = DIRECTION('',(0.902134221636,0.,0.431455497304));
#231 = ORIENTED_EDGE('',*,*,#232,.T.);
#232 = EDGE_CURVE('',#225,#233,#235,.T.);
#233 = VERTEX_POINT('',#234);
#234 = CARTESIAN_POINT('',(-25.58873298382,172.,40.587194670186));
#235 = LINE('',#236,#237);
#236 = CARTESIAN_POINT('',(-2.588732983824,172.,29.587194670186));
#237 = VECTOR('',#238,1.);
#238 = DIRECTION('',(-0.902134221636,0.,0.431455497304));
#239 = ORIENTED_EDGE('',*,*,#240,.T.);
#240 = EDGE_CURVE('',#233,#241,#243,.T.);
#241 = VERTEX_POINT('',#242);
#242 = CARTESIAN_POINT('',(-23.,172.,52.));
#243 = CIRCLE('',#244,6.);
#244 = AXIS2_PLACEMENT_3D('',#245,#246,#247);
#245 = CARTESIAN_POINT('',(-23.,172.,46.));
#246 = DIRECTION('',(0.,1.,0.));
#247 = DIRECTION('',(0.,-0.,1.));
#248 = ORIENTED_EDGE('',*,*,#249,.T.);
#249 = EDGE_CURVE('',#241,#32,#250,.T.);
#250 = CIRCLE('',#251,6.);
#251 = AXIS2_PLACEMENT_3D('',#252,#253,#254);
#252 = CARTESIAN_POINT('',(-23.,172.,46.));
#253 = DIRECTION('',(0.,1.,0.));
#254 = DIRECTION('',(0.,-0.,1.));
#255 = ORIENTED_EDGE('',*,*,#39,.T.);
#256 = FACE_BOUND('',#257,.T.);
#257 = EDGE_LOOP('',(#258));
#258 = ORIENTED_EDGE('',*,*,#259,.F.);
#259 = EDGE_CURVE('',#260,#260,#262,.T.);
#260 = VERTEX_POINT('',#261);
#261 = CARTESIAN_POINT('',(-23.,172.,27.2));
#262 = CIRCLE('',#263,3.2);
#263 = AXIS2_PLACEMENT_3D('',#264,#265,#266);
#264 = CARTESIAN_POINT('',(-23.,172.,24.));
#265 = DIRECTION('',(0.,1.,0.));
#266 = DIRECTION('',(0.,-0.,1.));
#267 = FACE_BOUND('',#268,.T.);
#268 = EDGE_LOOP('',(#269));
#269 = ORIENTED_EDGE('',*,*,#270,.F.);
#270 = EDGE_CURVE('',#271,#271,#273,.T.);
#271 = VERTEX_POINT('',#272);
#272 = CARTESIAN_POINT('',(-23.,172.,49.2));
#273 = CIRCLE('',#274,3.2);
#274 = AXIS2_PLACEMENT_3D('',#275,#276,#277);
#275 = CARTESIAN_POINT('',(-23.,172.,46.));
#276 = DIRECTION('',(0.,1.,0.));
#277 = DIRECTION('',(0.,-0.,1.));
#278 = FACE_BOUND('',#279,.T.);
#279 = EDGE_LOOP('',(#280));
#280 = ORIENTED_EDGE('',*,*,#281,.F.);
#281 = EDGE_CURVE('',#282,#282,#284,.T.);
#282 = VERTEX_POINT('',#283);
#283 = CARTESIAN_POINT('',(-9.858406733136E-16,172.,39.025));
#284 = CIRCLE('',#285,4.025);
#285 = AXIS2_PLACEMENT_3D('',#286,#287,#288);
#286 = CARTESIAN_POINT('',(0.,172.,35.));
#287 = DIRECTION('',(0.,1.,0.));
#288 = DIRECTION('',(0.,-0.,1.));
#289 = PLANE('',#290);
#290 = AXIS2_PLACEMENT_3D('',#291,#292,#293);
#291 = CARTESIAN_POINT('',(-11.88369400645,172.,35.14752687387));
#292 = DIRECTION('',(0.,1.,0.));
#293 = DIRECTION('',(0.,-0.,1.));
#294 = ADVANCED_FACE('',(#295),#308,.T.);
#295 = FACE_BOUND('',#296,.T.);
#296 = EDGE_LOOP('',(#297,#298,#299,#300,#301,#307));
#297 = ORIENTED_EDGE('',*,*,#71,.T.);
#298 = ORIENTED_EDGE('',*,*,#31,.T.);
#299 = ORIENTED_EDGE('',*,*,#249,.F.);
#300 = ORIENTED_EDGE('',*,*,#240,.F.);
#301 = ORIENTED_EDGE('',*,*,#302,.F.);
#302 = EDGE_CURVE('',#81,#233,#303,.T.);
#303 = LINE('',#304,#305);
#304 = CARTESIAN_POINT('',(-25.58873298382,166.,40.587194670186));
#305 = VECTOR('',#306,1.);
#306 = DIRECTION('',(0.,1.,0.));
#307 = ORIENTED_EDGE('',*,*,#80,.T.);
#308 = CYLINDRICAL_SURFACE('',#309,6.);
#309 = AXIS2_PLACEMENT_3D('',#310,#311,#312);
#310 = CARTESIAN_POINT('',(-23.,166.,46.));
#311 = DIRECTION('',(0.,1.,0.));
#312 = DIRECTION('',(0.,-0.,1.));
#313 = ADVANCED_FACE('',(#314),#325,.F.);
#314 = FACE_BOUND('',#315,.F.);
#315 = EDGE_LOOP('',(#316,#317,#318,#319));
#316 = ORIENTED_EDGE('',*,*,#114,.F.);
#317 = ORIENTED_EDGE('',*,*,#171,.T.);
#318 = ORIENTED_EDGE('',*,*,#207,.T.);
#319 = ORIENTED_EDGE('',*,*,#320,.F.);
#320 = EDGE_CURVE('',#106,#208,#321,.T.);
#321 = LINE('',#322,#323);
#322 = CARTESIAN_POINT('',(-20.41126701617,166.,18.587194670186));
#323 = VECTOR('',#324,1.);
#324 = DIRECTION('',(0.,1.,0.));
#325 = PLANE('',#326);
#326 = AXIS2_PLACEMENT_3D('',#327,#328,#329);
#327 = CARTESIAN_POINT('',(2.588732983824,166.,29.587194670186));
#328 = DIRECTION('',(-0.431455497304,0.,0.902134221636));
#329 = DIRECTION('',(-0.902134221636,0.,-0.431455497304));
#330 = ADVANCED_FACE('',(#331),#342,.T.);
#331 = FACE_BOUND('',#332,.T.);
#332 = EDGE_LOOP('',(#333,#334,#335,#336));
#333 = ORIENTED_EDGE('',*,*,#215,.F.);
#334 = ORIENTED_EDGE('',*,*,#320,.F.);
#335 = ORIENTED_EDGE('',*,*,#105,.T.);
#336 = ORIENTED_EDGE('',*,*,#337,.T.);
#337 = EDGE_CURVE('',#98,#216,#338,.T.);
#338 = LINE('',#339,#340);
#339 = CARTESIAN_POINT('',(-25.58873298382,166.,29.412805329814));
#340 = VECTOR('',#341,1.);
#341 = DIRECTION('',(0.,1.,0.));
#342 = CYLINDRICAL_SURFACE('',#343,6.);
#343 = AXIS2_PLACEMENT_3D('',#344,#345,#346);
#344 = CARTESIAN_POINT('',(-23.,166.,24.));
#345 = DIRECTION('',(0.,1.,0.));
#346 = DIRECTION('',(0.,-0.,1.));
#347 = ADVANCED_FACE('',(#348),#359,.F.);
#348 = FACE_BOUND('',#349,.F.);
#349 = EDGE_LOOP('',(#350,#351,#357,#358));
#350 = ORIENTED_EDGE('',*,*,#89,.F.);
#351 = ORIENTED_EDGE('',*,*,#352,.F.);
#352 = EDGE_CURVE('',#225,#90,#353,.T.);
#353 = LINE('',#354,#355);
#354 = CARTESIAN_POINT('',(-13.90641685525,166.,35.));
#355 = VECTOR('',#356,1.);
#356 = DIRECTION('',(0.,-1.,-0.));
#357 = ORIENTED_EDGE('',*,*,#232,.T.);
#358 = ORIENTED_EDGE('',*,*,#302,.F.);
#359 = PLANE('',#360);
#360 = AXIS2_PLACEMENT_3D('',#361,#362,#363);
#361 = CARTESIAN_POINT('',(-2.588732983824,166.,29.587194670186));
#362 = DIRECTION('',(0.431455497304,-0.,0.902134221636));
#363 = DIRECTION('',(-0.902134221636,0.,0.431455497304));
#364 = ADVANCED_FACE('',(#365),#371,.F.);
#365 = FACE_BOUND('',#366,.F.);
#366 = EDGE_LOOP('',(#367,#368,#369,#370));
#367 = ORIENTED_EDGE('',*,*,#97,.F.);
#368 = ORIENTED_EDGE('',*,*,#337,.T.);
#369 = ORIENTED_EDGE('',*,*,#224,.T.);
#370 = ORIENTED_EDGE('',*,*,#352,.T.);
#371 = PLANE('',#372);
#372 = AXIS2_PLACEMENT_3D('',#373,#374,#375);
#373 = CARTESIAN_POINT('',(-25.58873298382,166.,29.412805329814));
#374 = DIRECTION('',(0.431455497304,0.,-0.902134221636));
#375 = DIRECTION('',(0.902134221636,0.,0.431455497304));
#376 = ADVANCED_FACE('',(#377),#396,.F.);
#377 = FACE_BOUND('',#378,.F.);
#378 = EDGE_LOOP('',(#379,#388,#394,#395));
#379 = ORIENTED_EDGE('',*,*,#380,.F.);
#380 = EDGE_CURVE('',#381,#381,#383,.T.);
#381 = VERTEX_POINT('',#382);
#382 = CARTESIAN_POINT('',(-23.,170.5,47.7));
#383 = CIRCLE('',#384,1.7);
#384 = AXIS2_PLACEMENT_3D('',#385,#386,#387);
#385 = CARTESIAN_POINT('',(-23.,170.5,46.));
#386 = DIRECTION('',(0.,1.,0.));
#387 = DIRECTION('',(0.,-0.,1.));
#388 = ORIENTED_EDGE('',*,*,#389,.F.);
#389 = EDGE_CURVE('',#132,#381,#390,.T.);
#390 = LINE('',#391,#392);
#391 = CARTESIAN_POINT('',(-23.,165.,47.7));
#392 = VECTOR('',#393,1.);
#393 = DIRECTION('',(0.,1.,0.));
#394 = ORIENTED_EDGE('',*,*,#131,.T.);
#395 = ORIENTED_EDGE('',*,*,#389,.T.);
#396 = CYLINDRICAL_SURFACE('',#397,1.7);
#397 = AXIS2_PLACEMENT_3D('',#398,#399,#400);
#398 = CARTESIAN_POINT('',(-23.,165.,46.));
#399 = DIRECTION('',(0.,1.,0.));
#400 = DIRECTION('',(0.,-0.,1.));
#401 = ADVANCED_FACE('',(#402),#421,.F.);
#402 = FACE_BOUND('',#403,.F.);
#403 = EDGE_LOOP('',(#404,#413,#419,#420));
#404 = ORIENTED_EDGE('',*,*,#405,.F.);
#405 = EDGE_CURVE('',#406,#406,#408,.T.);
#406 = VERTEX_POINT('',#407);
#407 = CARTESIAN_POINT('',(-23.,170.5,25.7));
#408 = CIRCLE('',#409,1.7);
#409 = AXIS2_PLACEMENT_3D('',#410,#411,#412);
#410 = CARTESIAN_POINT('',(-23.,170.5,24.));
#411 = DIRECTION('',(0.,1.,0.));
#412 = DIRECTION('',(0.,-0.,1.));
#413 = ORIENTED_EDGE('',*,*,#414,.F.);
#414 = EDGE_CURVE('',#143,#406,#415,.T.);
#415 = LINE('',#416,#417);
#416 = CARTESIAN_POINT('',(-23.,165.,25.7));
#417 = VECTOR('',#418,1.);
#418 = DIRECTION('',(0.,1.,0.));
#419 = ORIENTED_EDGE('',*,*,#142,.T.);
#420 = ORIENTED_EDGE('',*,*,#414,.T.);
#421 = CYLINDRICAL_SURFACE('',#422,1.7);
#422 = AXIS2_PLACEMENT_3D('',#423,#424,#425);
#423 = CARTESIAN_POINT('',(-23.,165.,24.));
#424 = DIRECTION('',(0.,1.,0.));
#425 = DIRECTION('',(0.,-0.,1.));
#426 = ADVANCED_FACE('',(#427),#438,.F.);
#427 = FACE_BOUND('',#428,.F.);
#428 = EDGE_LOOP('',(#429,#430,#436,#437));
#429 = ORIENTED_EDGE('',*,*,#281,.F.);
#430 = ORIENTED_EDGE('',*,*,#431,.F.);
#431 = EDGE_CURVE('',#154,#282,#432,.T.);
#432 = LINE('',#433,#434);
#433 = CARTESIAN_POINT('',(-9.858406733136E-16,165.,39.025));
#434 = VECTOR('',#435,1.);
#435 = DIRECTION('',(0.,1.,0.));
#436 = ORIENTED_EDGE('',*,*,#153,.T.);
#437 = ORIENTED_EDGE('',*,*,#431,.T.);
#438 = CYLINDRICAL_SURFACE('',#439,4.025);
#439 = AXIS2_PLACEMENT_3D('',#440,#441,#442);
#440 = CARTESIAN_POINT('',(0.,165.,35.));
#441 = DIRECTION('',(0.,1.,0.));
#442 = DIRECTION('',(0.,-0.,1.));
#443 = ADVANCED_FACE('',(#444),#455,.F.);
#444 = FACE_BOUND('',#445,.F.);
#445 = EDGE_LOOP('',(#446,#447,#453,#454));
#446 = ORIENTED_EDGE('',*,*,#259,.F.);
#447 = ORIENTED_EDGE('',*,*,#448,.F.);
#448 = EDGE_CURVE('',#406,#260,#449,.T.);
#449 = LINE('',#450,#451);
#450 = CARTESIAN_POINT('',(-23.,170.5,25.7));
#451 = VECTOR('',#452,1.);
#452 = DIRECTION('',(-1.731912112471E-16,0.707106781187,0.707106781187)
  );
#453 = ORIENTED_EDGE('',*,*,#405,.T.);
#454 = ORIENTED_EDGE('',*,*,#448,.T.);
#455 = CONICAL_SURFACE('',#456,1.7,0.785398163397);
#456 = AXIS2_PLACEMENT_3D('',#457,#458,#459);
#457 = CARTESIAN_POINT('',(-23.,170.5,24.));
#458 = DIRECTION('',(0.,1.,0.));
#459 = DIRECTION('',(0.,-0.,1.));
#460 = ADVANCED_FACE('',(#461),#472,.F.);
#461 = FACE_BOUND('',#462,.F.);
#462 = EDGE_LOOP('',(#463,#464,#470,#471));
#463 = ORIENTED_EDGE('',*,*,#270,.F.);
#464 = ORIENTED_EDGE('',*,*,#465,.F.);
#465 = EDGE_CURVE('',#381,#271,#466,.T.);
#466 = LINE('',#467,#468);
#467 = CARTESIAN_POINT('',(-23.,170.5,47.7));
#468 = VECTOR('',#469,1.);
#469 = DIRECTION('',(-1.731912112471E-16,0.707106781187,0.707106781187)
  );
#470 = ORIENTED_EDGE('',*,*,#380,.T.);
#471 = ORIENTED_EDGE('',*,*,#465,.T.);
#472 = CONICAL_SURFACE('',#473,1.7,0.785398163397);
#473 = AXIS2_PLACEMENT_3D('',#474,#475,#476);
#474 = CARTESIAN_POINT('',(-23.,170.5,46.));
#475 = DIRECTION('',(0.,1.,0.));
#476 = DIRECTION('',(0.,-0.,1.));
#477 = ( GEOMETRIC_REPRESENTATION_CONTEXT(3) 
GLOBAL_UNCERTAINTY_ASSIGNED_CONTEXT((#481)) GLOBAL_UNIT_ASSIGNED_CONTEXT
((#478,#479,#480)) REPRESENTATION_CONTEXT('Context #1',
  '3D Context with UNIT and UNCERTAINTY') );
#478 = ( LENGTH_UNIT() NAMED_UNIT(*) SI_UNIT(.MILLI.,.METRE.) );
#479 = ( NAMED_UNIT(*) PLANE_ANGLE_UNIT() SI_UNIT($,.RADIAN.) );
#480 = ( NAMED_UNIT(*) SI_UNIT($,.STERADIAN.) SOLID_ANGLE_UNIT() );
#481 = UNCERTAINTY_MEASURE_WITH_UNIT(LENGTH_MEASURE(1.E-07),#478,
  'distance_accuracy_value','confusion accuracy');
#482 = PRODUCT_RELATED_PRODUCT_CATEGORY('part',$,(#7));
ENDSEC;
END-ISO-10303-21;
