ISO-10303-21;
HEADER;
FILE_DESCRIPTION(('FreeCAD Model'),'2;1');
FILE_NAME('Open CASCADE Shape Model','2026-09-22T10:50:12',('FreeCAD'),(
    'FreeCAD'),'Open CASCADE STEP processor 7.8','FreeCAD','Unknown');
FILE_SCHEMA(('AUTOMOTIVE_DESIGN { 1 0 10303 214 1 1 1 1 }'));
ENDSEC;
DATA;
#1 = APPLICATION_PROTOCOL_DEFINITION('international standard',
  'automotive_design',2000,#2);
#2 = APPLICATION_CONTEXT(
  'core data for automotive mechanical design processes');
#3 = SHAPE_DEFINITION_REPRESENTATION(#4,#10);
#4 = PRODUCT_DEFINITION_SHAPE('','',#5);
#5 = PRODUCT_DEFINITION('design','',#6,#9);
#6 = PRODUCT_DEFINITION_FORMATION('','',#7);
#7 = PRODUCT('Open CASCADE STEP translator 7.8 24',
  'Open CASCADE STEP translator 7.8 24','',(#8));
#8 = PRODUCT_CONTEXT('',#2,'mechanical');
#9 = PRODUCT_DEFINITION_CONTEXT('part definition',#2,'design');
#10 = ADVANCED_BREP_SHAPE_REPRESENTATION('',(#11,#15),#1197);
#11 = AXIS2_PLACEMENT_3D('',#12,#13,#14);
#12 = CARTESIAN_POINT('',(0.,0.,0.));
#13 = DIRECTION('',(0.,0.,1.));
#14 = DIRECTION('',(1.,0.,-0.));
#15 = MANIFOLD_SOLID_BREP('',#16);
#16 = CLOSED_SHELL('',(#17,#59,#359,#383,#676,#696,#716,#733,#753,#772,
    #794,#806,#828,#845,#862,#879,#896,#908,#925,#942,#964,#981,#998,
    #1015,#1032,#1044,#1061,#1083,#1100,#1117,#1134,#1151,#1163,#1180));
#17 = ADVANCED_FACE('',(#18),#54,.T.);
#18 = FACE_BOUND('',#19,.F.);
#19 = EDGE_LOOP('',(#20,#31,#39,#48));
#20 = ORIENTED_EDGE('',*,*,#21,.F.);
#21 = EDGE_CURVE('',#22,#24,#26,.T.);
#22 = VERTEX_POINT('',#23);
#23 = CARTESIAN_POINT('',(28.284271247462,-166.,-28.28427124746));
#24 = VERTEX_POINT('',#25);
#25 = CARTESIAN_POINT('',(-17.53484587156,-166.,35.951761851967));
#26 = CIRCLE('',#27,40.);
#27 = AXIS2_PLACEMENT_3D('',#28,#29,#30);
#28 = CARTESIAN_POINT('',(-6.593716957763E-15,-166.,2.220607455696E-15)
  );
#29 = DIRECTION('',(-0.,-1.,0.));
#30 = DIRECTION('',(0.707106781187,-0.,-0.707106781187));
#31 = ORIENTED_EDGE('',*,*,#32,.T.);
#32 = EDGE_CURVE('',#22,#33,#35,.T.);
#33 = VERTEX_POINT('',#34);
#34 = CARTESIAN_POINT('',(28.284271247462,-172.,-28.28427124746));
#35 = LINE('',#36,#37);
#36 = CARTESIAN_POINT('',(28.284271247462,-166.,-28.28427124746));
#37 = VECTOR('',#38,1.);
#38 = DIRECTION('',(-0.,-1.,-0.));
#39 = ORIENTED_EDGE('',*,*,#40,.T.);
#40 = EDGE_CURVE('',#33,#41,#43,.T.);
#41 = VERTEX_POINT('',#42);
#42 = CARTESIAN_POINT('',(-17.53484587156,-172.,35.951761851967));
#43 = CIRCLE('',#44,40.);
#44 = AXIS2_PLACEMENT_3D('',#45,#46,#47);
#45 = CARTESIAN_POINT('',(-6.593716957763E-15,-172.,2.220607455696E-15)
  );
#46 = DIRECTION('',(-0.,-1.,0.));
#47 = DIRECTION('',(0.707106781187,-0.,-0.707106781187));
#48 = ORIENTED_EDGE('',*,*,#49,.T.);
#49 = EDGE_CURVE('',#41,#24,#50,.T.);
#50 = LINE('',#51,#52);
#51 = CARTESIAN_POINT('',(-17.53484587156,-166.,35.951761851967));
#52 = VECTOR('',#53,1.);
#53 = DIRECTION('',(-0.,1.,-0.));
#54 = CYLINDRICAL_SURFACE('',#55,40.);
#55 = AXIS2_PLACEMENT_3D('',#56,#57,#58);
#56 = CARTESIAN_POINT('',(-6.593716957763E-15,-166.,2.220607455696E-15)
  );
#57 = DIRECTION('',(-0.,1.,-0.));
#58 = DIRECTION('',(0.707106781187,-0.,-0.707106781187));
#59 = ADVANCED_FACE('',(#60,#140,#193,#204,#215,#268,#279,#332,#343),
  #354,.T.);
#60 = FACE_BOUND('',#61,.F.);
#61 = EDGE_LOOP('',(#62,#71,#72,#80,#89,#98,#106,#115,#124,#133));
#62 = ORIENTED_EDGE('',*,*,#63,.T.);
#63 = EDGE_CURVE('',#64,#22,#66,.T.);
#64 = VERTEX_POINT('',#65);
#65 = CARTESIAN_POINT('',(18.,-166.,-55.));
#66 = B_SPLINE_CURVE_WITH_KNOTS('',3,(#67,#68,#69,#70),.UNSPECIFIED.,.F.
  ,.F.,(4,4),(0.,1.),.PIECEWISE_BEZIER_KNOTS.);
#67 = CARTESIAN_POINT('',(18.,-166.,-55.));
#68 = CARTESIAN_POINT('',(18.,-166.,-42.));
#69 = CARTESIAN_POINT('',(20.5,-166.,-36.06854249492));
#70 = CARTESIAN_POINT('',(28.284271247462,-166.,-28.28427124746));
#71 = ORIENTED_EDGE('',*,*,#21,.T.);
#72 = ORIENTED_EDGE('',*,*,#73,.F.);
#73 = EDGE_CURVE('',#74,#24,#76,.T.);
#74 = VERTEX_POINT('',#75);
#75 = CARTESIAN_POINT('',(-10.30172194954,-166.,21.12166008803));
#76 = LINE('',#77,#78);
#77 = CARTESIAN_POINT('',(10.00299743329,-166.,-20.50918406478));
#78 = VECTOR('',#79,1.);
#79 = DIRECTION('',(-0.438371146789,-0.,0.898794046299));
#80 = ORIENTED_EDGE('',*,*,#81,.T.);
#81 = EDGE_CURVE('',#74,#82,#84,.T.);
#82 = VERTEX_POINT('',#83);
#83 = CARTESIAN_POINT('',(-5.755839955993E-15,-166.,23.5));
#84 = CIRCLE('',#85,23.5);
#85 = AXIS2_PLACEMENT_3D('',#86,#87,#88);
#86 = CARTESIAN_POINT('',(0.,-166.,0.));
#87 = DIRECTION('',(0.,1.,0.));
#88 = DIRECTION('',(-0.,-0.,1.));
#89 = ORIENTED_EDGE('',*,*,#90,.T.);
#90 = EDGE_CURVE('',#82,#91,#93,.T.);
#91 = VERTEX_POINT('',#92);
#92 = CARTESIAN_POINT('',(-8.803254945274,-166.,-21.78882058232));
#93 = CIRCLE('',#94,23.5);
#94 = AXIS2_PLACEMENT_3D('',#95,#96,#97);
#95 = CARTESIAN_POINT('',(0.,-166.,0.));
#96 = DIRECTION('',(0.,1.,0.));
#97 = DIRECTION('',(-0.,-0.,1.));
#98 = ORIENTED_EDGE('',*,*,#99,.F.);
#99 = EDGE_CURVE('',#100,#91,#102,.T.);
#100 = VERTEX_POINT('',#101);
#101 = CARTESIAN_POINT('',(-18.57902974241,-166.,-45.98471226468));
#102 = LINE('',#103,#104);
#103 = CARTESIAN_POINT('',(-18.37045172549,-166.,-45.46846355707));
#104 = VECTOR('',#105,1.);
#105 = DIRECTION('',(0.374606593416,-0.,0.927183854567));
#106 = ORIENTED_EDGE('',*,*,#107,.T.);
#107 = EDGE_CURVE('',#100,#108,#110,.T.);
#108 = VERTEX_POINT('',#109);
#109 = CARTESIAN_POINT('',(-18.,-166.,-55.));
#110 = B_SPLINE_CURVE_WITH_KNOTS('',3,(#111,#112,#113,#114),
  .UNSPECIFIED.,.F.,.F.,(4,4),(0.,1.),.PIECEWISE_BEZIER_KNOTS.);
#111 = CARTESIAN_POINT('',(-28.28427124746,-166.,-28.28427124746));
#112 = CARTESIAN_POINT('',(-20.5,-166.,-36.06854249492));
#113 = CARTESIAN_POINT('',(-18.,-166.,-42.));
#114 = CARTESIAN_POINT('',(-18.,-166.,-55.));
#115 = ORIENTED_EDGE('',*,*,#116,.T.);
#116 = EDGE_CURVE('',#108,#117,#119,.T.);
#117 = VERTEX_POINT('',#118);
#118 = CARTESIAN_POINT('',(-17.,-166.,-130.));
#119 = B_SPLINE_CURVE_WITH_KNOTS('',3,(#120,#121,#122,#123),
  .UNSPECIFIED.,.F.,.F.,(4,4),(0.,1.),.PIECEWISE_BEZIER_KNOTS.);
#120 = CARTESIAN_POINT('',(-18.,-166.,-55.));
#121 = CARTESIAN_POINT('',(-18.,-166.,-78.));
#122 = CARTESIAN_POINT('',(-17.,-166.,-104.));
#123 = CARTESIAN_POINT('',(-17.,-166.,-130.));
#124 = ORIENTED_EDGE('',*,*,#125,.T.);
#125 = EDGE_CURVE('',#117,#126,#128,.T.);
#126 = VERTEX_POINT('',#127);
#127 = CARTESIAN_POINT('',(17.,-166.,-130.));
#128 = CIRCLE('',#129,17.);
#129 = AXIS2_PLACEMENT_3D('',#130,#131,#132);
#130 = CARTESIAN_POINT('',(0.,-166.,-130.));
#131 = DIRECTION('',(0.,-1.,-0.));
#132 = DIRECTION('',(-1.,-0.,-0.));
#133 = ORIENTED_EDGE('',*,*,#134,.T.);
#134 = EDGE_CURVE('',#126,#64,#135,.T.);
#135 = B_SPLINE_CURVE_WITH_KNOTS('',3,(#136,#137,#138,#139),
  .UNSPECIFIED.,.F.,.F.,(4,4),(0.,1.),.PIECEWISE_BEZIER_KNOTS.);
#136 = CARTESIAN_POINT('',(17.,-166.,-130.));
#137 = CARTESIAN_POINT('',(17.,-166.,-104.));
#138 = CARTESIAN_POINT('',(18.,-166.,-78.));
#139 = CARTESIAN_POINT('',(18.,-166.,-55.));
#140 = FACE_BOUND('',#141,.F.);
#141 = EDGE_LOOP('',(#142,#153,#161,#170,#178,#187));
#142 = ORIENTED_EDGE('',*,*,#143,.F.);
#143 = EDGE_CURVE('',#144,#146,#148,.T.);
#144 = VERTEX_POINT('',#145);
#145 = CARTESIAN_POINT('',(-8.,-166.,-42.));
#146 = VERTEX_POINT('',#147);
#147 = CARTESIAN_POINT('',(-10.,-166.,-44.));
#148 = CIRCLE('',#149,2.);
#149 = AXIS2_PLACEMENT_3D('',#150,#151,#152);
#150 = CARTESIAN_POINT('',(-8.,-166.,-44.));
#151 = DIRECTION('',(0.,-1.,0.));
#152 = DIRECTION('',(-1.,-0.,3.5527136788E-15));
#153 = ORIENTED_EDGE('',*,*,#154,.T.);
#154 = EDGE_CURVE('',#144,#155,#157,.T.);
#155 = VERTEX_POINT('',#156);
#156 = CARTESIAN_POINT('',(3.253273710192,-166.,-42.));
#157 = LINE('',#158,#159);
#158 = CARTESIAN_POINT('',(-4.,-166.,-42.));
#159 = VECTOR('',#160,1.);
#160 = DIRECTION('',(1.,-0.,-0.));
#161 = ORIENTED_EDGE('',*,*,#162,.F.);
#162 = EDGE_CURVE('',#163,#155,#165,.T.);
#163 = VERTEX_POINT('',#164);
#164 = CARTESIAN_POINT('',(4.343250411383,-166.,-45.6768872326));
#165 = CIRCLE('',#166,2.);
#166 = AXIS2_PLACEMENT_3D('',#167,#168,#169);
#167 = CARTESIAN_POINT('',(3.253273710192,-166.,-44.));
#168 = DIRECTION('',(0.,-1.,-0.));
#169 = DIRECTION('',(1.33226762955E-15,-0.,1.));
#170 = ORIENTED_EDGE('',*,*,#171,.T.);
#171 = EDGE_CURVE('',#163,#172,#174,.T.);
#172 = VERTEX_POINT('',#173);
#173 = CARTESIAN_POINT('',(-6.910023298809,-166.,-52.99151514422));
#174 = LINE('',#175,#176);
#175 = CARTESIAN_POINT('',(1.651638047435,-166.,-47.42643526916));
#176 = VECTOR('',#177,1.);
#177 = DIRECTION('',(-0.838443616301,-0.,-0.544988350595));
#178 = ORIENTED_EDGE('',*,*,#179,.F.);
#179 = EDGE_CURVE('',#180,#172,#182,.T.);
#180 = VERTEX_POINT('',#181);
#181 = CARTESIAN_POINT('',(-10.,-166.,-51.31462791162));
#182 = CIRCLE('',#183,2.);
#183 = AXIS2_PLACEMENT_3D('',#184,#185,#186);
#184 = CARTESIAN_POINT('',(-8.,-166.,-51.31462791162));
#185 = DIRECTION('',(-0.,-1.,0.));
#186 = DIRECTION('',(0.544988350595,-0.,-0.838443616301));
#187 = ORIENTED_EDGE('',*,*,#188,.T.);
#188 = EDGE_CURVE('',#180,#146,#189,.T.);
#189 = LINE('',#190,#191);
#190 = CARTESIAN_POINT('',(-10.,-166.,-51.04528585215));
#191 = VECTOR('',#192,1.);
#192 = DIRECTION('',(-0.,-0.,1.));
#193 = FACE_BOUND('',#194,.F.);
#194 = EDGE_LOOP('',(#195));
#195 = ORIENTED_EDGE('',*,*,#196,.T.);
#196 = EDGE_CURVE('',#197,#197,#199,.T.);
#197 = VERTEX_POINT('',#198);
#198 = CARTESIAN_POINT('',(-5.388445916248E-16,-166.,-63.8));
#199 = CIRCLE('',#200,2.2);
#200 = AXIS2_PLACEMENT_3D('',#201,#202,#203);
#201 = CARTESIAN_POINT('',(0.,-166.,-66.));
#202 = DIRECTION('',(0.,1.,0.));
#203 = DIRECTION('',(-0.,-0.,1.));
#204 = FACE_BOUND('',#205,.F.);
#205 = EDGE_LOOP('',(#206));
#206 = ORIENTED_EDGE('',*,*,#207,.T.);
#207 = EDGE_CURVE('',#208,#208,#210,.T.);
#208 = VERTEX_POINT('',#209);
#209 = CARTESIAN_POINT('',(-5.388445916248E-16,-166.,-90.8));
#210 = CIRCLE('',#211,2.2);
#211 = AXIS2_PLACEMENT_3D('',#212,#213,#214);
#212 = CARTESIAN_POINT('',(0.,-166.,-93.));
#213 = DIRECTION('',(0.,1.,0.));
#214 = DIRECTION('',(-0.,-0.,1.));
#215 = FACE_BOUND('',#216,.F.);
#216 = EDGE_LOOP('',(#217,#228,#236,#245,#253,#262));
#217 = ORIENTED_EDGE('',*,*,#218,.F.);
#218 = EDGE_CURVE('',#219,#221,#223,.T.);
#219 = VERTEX_POINT('',#220);
#220 = CARTESIAN_POINT('',(-8.,-166.,-101.5));
#221 = VERTEX_POINT('',#222);
#222 = CARTESIAN_POINT('',(-10.,-166.,-103.5));
#223 = CIRCLE('',#224,2.);
#224 = AXIS2_PLACEMENT_3D('',#225,#226,#227);
#225 = CARTESIAN_POINT('',(-8.,-166.,-103.5));
#226 = DIRECTION('',(0.,-1.,0.));
#227 = DIRECTION('',(-1.,-0.,-0.));
#228 = ORIENTED_EDGE('',*,*,#229,.T.);
#229 = EDGE_CURVE('',#219,#230,#232,.T.);
#230 = VERTEX_POINT('',#231);
#231 = CARTESIAN_POINT('',(2.779365403436,-166.,-101.5));
#232 = LINE('',#233,#234);
#233 = CARTESIAN_POINT('',(-4.,-166.,-101.5));
#234 = VECTOR('',#235,1.);
#235 = DIRECTION('',(1.,-0.,-0.));
#236 = ORIENTED_EDGE('',*,*,#237,.F.);
#237 = EDGE_CURVE('',#238,#230,#240,.T.);
#238 = VERTEX_POINT('',#239);
#239 = CARTESIAN_POINT('',(3.808356914292,-166.,-105.2149858514));
#240 = CIRCLE('',#241,2.);
#241 = AXIS2_PLACEMENT_3D('',#242,#243,#244);
#242 = CARTESIAN_POINT('',(2.779365403436,-166.,-103.5));
#243 = DIRECTION('',(0.,-1.,0.));
#244 = DIRECTION('',(-2.886579864025E-15,-0.,1.));
#245 = ORIENTED_EDGE('',*,*,#246,.T.);
#246 = EDGE_CURVE('',#238,#247,#249,.T.);
#247 = VERTEX_POINT('',#248);
#248 = CARTESIAN_POINT('',(-6.971008489145,-166.,-111.6826050934));
#249 = LINE('',#250,#251);
#250 = CARTESIAN_POINT('',(14.416837914644,-166.,-98.84989725121));
#251 = VECTOR('',#252,1.);
#252 = DIRECTION('',(-0.857492925713,-0.,-0.514495755428));
#253 = ORIENTED_EDGE('',*,*,#254,.F.);
#254 = EDGE_CURVE('',#255,#247,#257,.T.);
#255 = VERTEX_POINT('',#256);
#256 = CARTESIAN_POINT('',(-10.,-166.,-109.967619242));
#257 = CIRCLE('',#258,2.);
#258 = AXIS2_PLACEMENT_3D('',#259,#260,#261);
#259 = CARTESIAN_POINT('',(-8.,-166.,-109.967619242));
#260 = DIRECTION('',(-0.,-1.,0.));
#261 = DIRECTION('',(0.514495755428,-0.,-0.857492925713));
#262 = ORIENTED_EDGE('',*,*,#263,.T.);
#263 = EDGE_CURVE('',#255,#221,#264,.T.);
#264 = LINE('',#265,#266);
#265 = CARTESIAN_POINT('',(-10.,-166.,-80.37178151736));
#266 = VECTOR('',#267,1.);
#267 = DIRECTION('',(-0.,-0.,1.));
#268 = FACE_BOUND('',#269,.F.);
#269 = EDGE_LOOP('',(#270));
#270 = ORIENTED_EDGE('',*,*,#271,.T.);
#271 = EDGE_CURVE('',#272,#272,#274,.T.);
#272 = VERTEX_POINT('',#273);
#273 = CARTESIAN_POINT('',(-9.858406733136E-16,-166.,-125.975));
#274 = CIRCLE('',#275,4.025);
#275 = AXIS2_PLACEMENT_3D('',#276,#277,#278);
#276 = CARTESIAN_POINT('',(0.,-166.,-130.));
#277 = DIRECTION('',(0.,1.,0.));
#278 = DIRECTION('',(-0.,-0.,1.));
#279 = FACE_BOUND('',#280,.F.);
#280 = EDGE_LOOP('',(#281,#292,#300,#309,#317,#326));
#281 = ORIENTED_EDGE('',*,*,#282,.F.);
#282 = EDGE_CURVE('',#283,#285,#287,.T.);
#283 = VERTEX_POINT('',#284);
#284 = CARTESIAN_POINT('',(10.,-166.,-73.84131112314));
#285 = VERTEX_POINT('',#286);
#286 = CARTESIAN_POINT('',(6.853075311273,-166.,-72.2028472821));
#287 = CIRCLE('',#288,2.);
#288 = AXIS2_PLACEMENT_3D('',#289,#290,#291);
#289 = CARTESIAN_POINT('',(8.,-166.,-73.84131112314));
#290 = DIRECTION('',(0.,-1.,0.));
#291 = DIRECTION('',(-0.573462344363,-0.,0.819231920519));
#292 = ORIENTED_EDGE('',*,*,#293,.T.);
#293 = EDGE_CURVE('',#283,#294,#296,.T.);
#294 = VERTEX_POINT('',#295);
#295 = CARTESIAN_POINT('',(10.,-166.,-82.));
#296 = LINE('',#297,#298);
#297 = CARTESIAN_POINT('',(10.,-166.,-62.30862745791));
#298 = VECTOR('',#299,1.);
#299 = DIRECTION('',(-0.,-0.,-1.));
#300 = ORIENTED_EDGE('',*,*,#301,.F.);
#301 = EDGE_CURVE('',#302,#294,#304,.T.);
#302 = VERTEX_POINT('',#303);
#303 = CARTESIAN_POINT('',(8.,-166.,-84.));
#304 = CIRCLE('',#305,2.);
#305 = AXIS2_PLACEMENT_3D('',#306,#307,#308);
#306 = CARTESIAN_POINT('',(8.,-166.,-82.));
#307 = DIRECTION('',(-0.,-1.,-0.));
#308 = DIRECTION('',(1.,-0.,-0.));
#309 = ORIENTED_EDGE('',*,*,#310,.T.);
#310 = EDGE_CURVE('',#302,#311,#313,.T.);
#311 = VERTEX_POINT('',#312);
#312 = CARTESIAN_POINT('',(-3.655269824076,-166.,-84.));
#313 = LINE('',#314,#315);
#314 = CARTESIAN_POINT('',(4.,-166.,-84.));
#315 = VECTOR('',#316,1.);
#316 = DIRECTION('',(-1.,-0.,-0.));
#317 = ORIENTED_EDGE('',*,*,#318,.F.);
#318 = EDGE_CURVE('',#319,#311,#321,.T.);
#319 = VERTEX_POINT('',#320);
#320 = CARTESIAN_POINT('',(-4.802194512803,-166.,-80.36153615896));
#321 = CIRCLE('',#322,2.);
#322 = AXIS2_PLACEMENT_3D('',#323,#324,#325);
#323 = CARTESIAN_POINT('',(-3.655269824076,-166.,-82.));
#324 = DIRECTION('',(0.,-1.,0.));
#325 = DIRECTION('',(-1.7763568394E-15,-0.,-1.));
#326 = ORIENTED_EDGE('',*,*,#327,.T.);
#327 = EDGE_CURVE('',#319,#285,#328,.T.);
#328 = LINE('',#329,#330);
#329 = CARTESIAN_POINT('',(3.758915946661,-166.,-74.36875883733));
#330 = VECTOR('',#331,1.);
#331 = DIRECTION('',(0.819231920519,-0.,0.573462344363));
#332 = FACE_BOUND('',#333,.F.);
#333 = EDGE_LOOP('',(#334));
#334 = ORIENTED_EDGE('',*,*,#335,.T.);
#335 = EDGE_CURVE('',#336,#336,#338,.T.);
#336 = VERTEX_POINT('',#337);
#337 = CARTESIAN_POINT('',(31.,-166.,14.2));
#338 = CIRCLE('',#339,2.2);
#339 = AXIS2_PLACEMENT_3D('',#340,#341,#342);
#340 = CARTESIAN_POINT('',(31.,-166.,12.));
#341 = DIRECTION('',(0.,1.,0.));
#342 = DIRECTION('',(-0.,-0.,1.));
#343 = FACE_BOUND('',#344,.F.);
#344 = EDGE_LOOP('',(#345));
#345 = ORIENTED_EDGE('',*,*,#346,.T.);
#346 = EDGE_CURVE('',#347,#347,#349,.T.);
#347 = VERTEX_POINT('',#348);
#348 = CARTESIAN_POINT('',(31.,-166.,-9.8));
#349 = CIRCLE('',#350,2.2);
#350 = AXIS2_PLACEMENT_3D('',#351,#352,#353);
#351 = CARTESIAN_POINT('',(31.,-166.,-12.));
#352 = DIRECTION('',(0.,1.,0.));
#353 = DIRECTION('',(-0.,-0.,1.));
#354 = PLANE('',#355);
#355 = AXIS2_PLACEMENT_3D('',#356,#357,#358);
#356 = CARTESIAN_POINT('',(-3.703026155839E-15,-166.,-50.77594379267));
#357 = DIRECTION('',(-0.,1.,-0.));
#358 = DIRECTION('',(0.,0.,1.));
#359 = ADVANCED_FACE('',(#360),#378,.F.);
#360 = FACE_BOUND('',#361,.T.);
#361 = EDGE_LOOP('',(#362,#370,#371,#372));
#362 = ORIENTED_EDGE('',*,*,#363,.T.);
#363 = EDGE_CURVE('',#364,#41,#366,.T.);
#364 = VERTEX_POINT('',#365);
#365 = CARTESIAN_POINT('',(-10.30172194954,-172.,21.12166008803));
#366 = LINE('',#367,#368);
#367 = CARTESIAN_POINT('',(10.00299743329,-172.,-20.50918406478));
#368 = VECTOR('',#369,1.);
#369 = DIRECTION('',(-0.438371146789,-0.,0.898794046299));
#370 = ORIENTED_EDGE('',*,*,#49,.T.);
#371 = ORIENTED_EDGE('',*,*,#73,.F.);
#372 = ORIENTED_EDGE('',*,*,#373,.T.);
#373 = EDGE_CURVE('',#74,#364,#374,.T.);
#374 = LINE('',#375,#376);
#375 = CARTESIAN_POINT('',(-10.30172194954,-165.,21.12166008803));
#376 = VECTOR('',#377,1.);
#377 = DIRECTION('',(-0.,-1.,-0.));
#378 = PLANE('',#379);
#379 = AXIS2_PLACEMENT_3D('',#380,#381,#382);
#380 = CARTESIAN_POINT('',(0.,-165.,0.));
#381 = DIRECTION('',(0.898794046299,-0.,0.438371146789));
#382 = DIRECTION('',(0.438371146789,0.,-0.898794046299));
#383 = ADVANCED_FACE('',(#384,#457,#510,#521,#532,#585,#596,#649,#660),
  #671,.F.);
#384 = FACE_BOUND('',#385,.T.);
#385 = EDGE_LOOP('',(#386,#395,#396,#397,#406,#415,#423,#432,#441,#450)
  );
#386 = ORIENTED_EDGE('',*,*,#387,.T.);
#387 = EDGE_CURVE('',#388,#33,#390,.T.);
#388 = VERTEX_POINT('',#389);
#389 = CARTESIAN_POINT('',(18.,-172.,-55.));
#390 = B_SPLINE_CURVE_WITH_KNOTS('',3,(#391,#392,#393,#394),
  .UNSPECIFIED.,.F.,.F.,(4,4),(0.,1.),.PIECEWISE_BEZIER_KNOTS.);
#391 = CARTESIAN_POINT('',(18.,-172.,-55.));
#392 = CARTESIAN_POINT('',(18.,-172.,-42.));
#393 = CARTESIAN_POINT('',(20.5,-172.,-36.06854249492));
#394 = CARTESIAN_POINT('',(28.284271247462,-172.,-28.28427124746));
#395 = ORIENTED_EDGE('',*,*,#40,.T.);
#396 = ORIENTED_EDGE('',*,*,#363,.F.);
#397 = ORIENTED_EDGE('',*,*,#398,.T.);
#398 = EDGE_CURVE('',#364,#399,#401,.T.);
#399 = VERTEX_POINT('',#400);
#400 = CARTESIAN_POINT('',(-5.755839955993E-15,-172.,23.5));
#401 = CIRCLE('',#402,23.5);
#402 = AXIS2_PLACEMENT_3D('',#403,#404,#405);
#403 = CARTESIAN_POINT('',(0.,-172.,0.));
#404 = DIRECTION('',(0.,1.,0.));
#405 = DIRECTION('',(-0.,-0.,1.));
#406 = ORIENTED_EDGE('',*,*,#407,.T.);
#407 = EDGE_CURVE('',#399,#408,#410,.T.);
#408 = VERTEX_POINT('',#409);
#409 = CARTESIAN_POINT('',(-8.803254945274,-172.,-21.78882058232));
#410 = CIRCLE('',#411,23.5);
#411 = AXIS2_PLACEMENT_3D('',#412,#413,#414);
#412 = CARTESIAN_POINT('',(0.,-172.,0.));
#413 = DIRECTION('',(0.,1.,0.));
#414 = DIRECTION('',(-0.,-0.,1.));
#415 = ORIENTED_EDGE('',*,*,#416,.F.);
#416 = EDGE_CURVE('',#417,#408,#419,.T.);
#417 = VERTEX_POINT('',#418);
#418 = CARTESIAN_POINT('',(-18.57902974241,-172.,-45.98471226468));
#419 = LINE('',#420,#421);
#420 = CARTESIAN_POINT('',(-18.37045172549,-172.,-45.46846355707));
#421 = VECTOR('',#422,1.);
#422 = DIRECTION('',(0.374606593416,-0.,0.927183854567));
#423 = ORIENTED_EDGE('',*,*,#424,.T.);
#424 = EDGE_CURVE('',#417,#425,#427,.T.);
#425 = VERTEX_POINT('',#426);
#426 = CARTESIAN_POINT('',(-18.,-172.,-55.));
#427 = B_SPLINE_CURVE_WITH_KNOTS('',3,(#428,#429,#430,#431),
  .UNSPECIFIED.,.F.,.F.,(4,4),(0.,1.),.PIECEWISE_BEZIER_KNOTS.);
#428 = CARTESIAN_POINT('',(-28.28427124746,-172.,-28.28427124746));
#429 = CARTESIAN_POINT('',(-20.5,-172.,-36.06854249492));
#430 = CARTESIAN_POINT('',(-18.,-172.,-42.));
#431 = CARTESIAN_POINT('',(-18.,-172.,-55.));
#432 = ORIENTED_EDGE('',*,*,#433,.T.);
#433 = EDGE_CURVE('',#425,#434,#436,.T.);
#434 = VERTEX_POINT('',#435);
#435 = CARTESIAN_POINT('',(-17.,-172.,-130.));
#436 = B_SPLINE_CURVE_WITH_KNOTS('',3,(#437,#438,#439,#440),
  .UNSPECIFIED.,.F.,.F.,(4,4),(0.,1.),.PIECEWISE_BEZIER_KNOTS.);
#437 = CARTESIAN_POINT('',(-18.,-172.,-55.));
#438 = CARTESIAN_POINT('',(-18.,-172.,-78.));
#439 = CARTESIAN_POINT('',(-17.,-172.,-104.));
#440 = CARTESIAN_POINT('',(-17.,-172.,-130.));
#441 = ORIENTED_EDGE('',*,*,#442,.T.);
#442 = EDGE_CURVE('',#434,#443,#445,.T.);
#443 = VERTEX_POINT('',#444);
#444 = CARTESIAN_POINT('',(17.,-172.,-130.));
#445 = CIRCLE('',#446,17.);
#446 = AXIS2_PLACEMENT_3D('',#447,#448,#449);
#447 = CARTESIAN_POINT('',(0.,-172.,-130.));
#448 = DIRECTION('',(0.,-1.,-0.));
#449 = DIRECTION('',(-1.,-0.,-0.));
#450 = ORIENTED_EDGE('',*,*,#451,.T.);
#451 = EDGE_CURVE('',#443,#388,#452,.T.);
#452 = B_SPLINE_CURVE_WITH_KNOTS('',3,(#453,#454,#455,#456),
  .UNSPECIFIED.,.F.,.F.,(4,4),(0.,1.),.PIECEWISE_BEZIER_KNOTS.);
#453 = CARTESIAN_POINT('',(17.,-172.,-130.));
#454 = CARTESIAN_POINT('',(17.,-172.,-104.));
#455 = CARTESIAN_POINT('',(18.,-172.,-78.));
#456 = CARTESIAN_POINT('',(18.,-172.,-55.));
#457 = FACE_BOUND('',#458,.T.);
#458 = EDGE_LOOP('',(#459,#470,#478,#487,#495,#504));
#459 = ORIENTED_EDGE('',*,*,#460,.F.);
#460 = EDGE_CURVE('',#461,#463,#465,.T.);
#461 = VERTEX_POINT('',#462);
#462 = CARTESIAN_POINT('',(-8.,-172.,-42.));
#463 = VERTEX_POINT('',#464);
#464 = CARTESIAN_POINT('',(-10.,-172.,-44.));
#465 = CIRCLE('',#466,2.);
#466 = AXIS2_PLACEMENT_3D('',#467,#468,#469);
#467 = CARTESIAN_POINT('',(-8.,-172.,-44.));
#468 = DIRECTION('',(0.,-1.,0.));
#469 = DIRECTION('',(-1.,-0.,3.5527136788E-15));
#470 = ORIENTED_EDGE('',*,*,#471,.T.);
#471 = EDGE_CURVE('',#461,#472,#474,.T.);
#472 = VERTEX_POINT('',#473);
#473 = CARTESIAN_POINT('',(3.253273710192,-172.,-42.));
#474 = LINE('',#475,#476);
#475 = CARTESIAN_POINT('',(-4.,-172.,-42.));
#476 = VECTOR('',#477,1.);
#477 = DIRECTION('',(1.,-0.,-0.));
#478 = ORIENTED_EDGE('',*,*,#479,.F.);
#479 = EDGE_CURVE('',#480,#472,#482,.T.);
#480 = VERTEX_POINT('',#481);
#481 = CARTESIAN_POINT('',(4.343250411383,-172.,-45.6768872326));
#482 = CIRCLE('',#483,2.);
#483 = AXIS2_PLACEMENT_3D('',#484,#485,#486);
#484 = CARTESIAN_POINT('',(3.253273710192,-172.,-44.));
#485 = DIRECTION('',(0.,-1.,-0.));
#486 = DIRECTION('',(1.33226762955E-15,-0.,1.));
#487 = ORIENTED_EDGE('',*,*,#488,.T.);
#488 = EDGE_CURVE('',#480,#489,#491,.T.);
#489 = VERTEX_POINT('',#490);
#490 = CARTESIAN_POINT('',(-6.910023298809,-172.,-52.99151514422));
#491 = LINE('',#492,#493);
#492 = CARTESIAN_POINT('',(1.651638047435,-172.,-47.42643526916));
#493 = VECTOR('',#494,1.);
#494 = DIRECTION('',(-0.838443616301,-0.,-0.544988350595));
#495 = ORIENTED_EDGE('',*,*,#496,.F.);
#496 = EDGE_CURVE('',#497,#489,#499,.T.);
#497 = VERTEX_POINT('',#498);
#498 = CARTESIAN_POINT('',(-10.,-172.,-51.31462791162));
#499 = CIRCLE('',#500,2.);
#500 = AXIS2_PLACEMENT_3D('',#501,#502,#503);
#501 = CARTESIAN_POINT('',(-8.,-172.,-51.31462791162));
#502 = DIRECTION('',(-0.,-1.,0.));
#503 = DIRECTION('',(0.544988350595,-0.,-0.838443616301));
#504 = ORIENTED_EDGE('',*,*,#505,.T.);
#505 = EDGE_CURVE('',#497,#463,#506,.T.);
#506 = LINE('',#507,#508);
#507 = CARTESIAN_POINT('',(-10.,-172.,-51.04528585215));
#508 = VECTOR('',#509,1.);
#509 = DIRECTION('',(-0.,-0.,1.));
#510 = FACE_BOUND('',#511,.T.);
#511 = EDGE_LOOP('',(#512));
#512 = ORIENTED_EDGE('',*,*,#513,.T.);
#513 = EDGE_CURVE('',#514,#514,#516,.T.);
#514 = VERTEX_POINT('',#515);
#515 = CARTESIAN_POINT('',(-5.388445916248E-16,-172.,-63.8));
#516 = CIRCLE('',#517,2.2);
#517 = AXIS2_PLACEMENT_3D('',#518,#519,#520);
#518 = CARTESIAN_POINT('',(0.,-172.,-66.));
#519 = DIRECTION('',(0.,1.,0.));
#520 = DIRECTION('',(-0.,-0.,1.));
#521 = FACE_BOUND('',#522,.T.);
#522 = EDGE_LOOP('',(#523));
#523 = ORIENTED_EDGE('',*,*,#524,.T.);
#524 = EDGE_CURVE('',#525,#525,#527,.T.);
#525 = VERTEX_POINT('',#526);
#526 = CARTESIAN_POINT('',(-5.388445916248E-16,-172.,-90.8));
#527 = CIRCLE('',#528,2.2);
#528 = AXIS2_PLACEMENT_3D('',#529,#530,#531);
#529 = CARTESIAN_POINT('',(0.,-172.,-93.));
#530 = DIRECTION('',(0.,1.,0.));
#531 = DIRECTION('',(-0.,-0.,1.));
#532 = FACE_BOUND('',#533,.T.);
#533 = EDGE_LOOP('',(#534,#545,#553,#562,#570,#579));
#534 = ORIENTED_EDGE('',*,*,#535,.F.);
#535 = EDGE_CURVE('',#536,#538,#540,.T.);
#536 = VERTEX_POINT('',#537);
#537 = CARTESIAN_POINT('',(-8.,-172.,-101.5));
#538 = VERTEX_POINT('',#539);
#539 = CARTESIAN_POINT('',(-10.,-172.,-103.5));
#540 = CIRCLE('',#541,2.);
#541 = AXIS2_PLACEMENT_3D('',#542,#543,#544);
#542 = CARTESIAN_POINT('',(-8.,-172.,-103.5));
#543 = DIRECTION('',(0.,-1.,0.));
#544 = DIRECTION('',(-1.,-0.,-0.));
#545 = ORIENTED_EDGE('',*,*,#546,.T.);
#546 = EDGE_CURVE('',#536,#547,#549,.T.);
#547 = VERTEX_POINT('',#548);
#548 = CARTESIAN_POINT('',(2.779365403436,-172.,-101.5));
#549 = LINE('',#550,#551);
#550 = CARTESIAN_POINT('',(-4.,-172.,-101.5));
#551 = VECTOR('',#552,1.);
#552 = DIRECTION('',(1.,-0.,-0.));
#553 = ORIENTED_EDGE('',*,*,#554,.F.);
#554 = EDGE_CURVE('',#555,#547,#557,.T.);
#555 = VERTEX_POINT('',#556);
#556 = CARTESIAN_POINT('',(3.808356914292,-172.,-105.2149858514));
#557 = CIRCLE('',#558,2.);
#558 = AXIS2_PLACEMENT_3D('',#559,#560,#561);
#559 = CARTESIAN_POINT('',(2.779365403436,-172.,-103.5));
#560 = DIRECTION('',(0.,-1.,0.));
#561 = DIRECTION('',(-2.886579864025E-15,-0.,1.));
#562 = ORIENTED_EDGE('',*,*,#563,.T.);
#563 = EDGE_CURVE('',#555,#564,#566,.T.);
#564 = VERTEX_POINT('',#565);
#565 = CARTESIAN_POINT('',(-6.971008489145,-172.,-111.6826050934));
#566 = LINE('',#567,#568);
#567 = CARTESIAN_POINT('',(14.416837914644,-172.,-98.84989725121));
#568 = VECTOR('',#569,1.);
#569 = DIRECTION('',(-0.857492925713,-0.,-0.514495755428));
#570 = ORIENTED_EDGE('',*,*,#571,.F.);
#571 = EDGE_CURVE('',#572,#564,#574,.T.);
#572 = VERTEX_POINT('',#573);
#573 = CARTESIAN_POINT('',(-10.,-172.,-109.967619242));
#574 = CIRCLE('',#575,2.);
#575 = AXIS2_PLACEMENT_3D('',#576,#577,#578);
#576 = CARTESIAN_POINT('',(-8.,-172.,-109.967619242));
#577 = DIRECTION('',(-0.,-1.,0.));
#578 = DIRECTION('',(0.514495755428,-0.,-0.857492925713));
#579 = ORIENTED_EDGE('',*,*,#580,.T.);
#580 = EDGE_CURVE('',#572,#538,#581,.T.);
#581 = LINE('',#582,#583);
#582 = CARTESIAN_POINT('',(-10.,-172.,-80.37178151736));
#583 = VECTOR('',#584,1.);
#584 = DIRECTION('',(-0.,-0.,1.));
#585 = FACE_BOUND('',#586,.T.);
#586 = EDGE_LOOP('',(#587));
#587 = ORIENTED_EDGE('',*,*,#588,.T.);
#588 = EDGE_CURVE('',#589,#589,#591,.T.);
#589 = VERTEX_POINT('',#590);
#590 = CARTESIAN_POINT('',(-9.858406733136E-16,-172.,-125.975));
#591 = CIRCLE('',#592,4.025);
#592 = AXIS2_PLACEMENT_3D('',#593,#594,#595);
#593 = CARTESIAN_POINT('',(0.,-172.,-130.));
#594 = DIRECTION('',(0.,1.,0.));
#595 = DIRECTION('',(-0.,-0.,1.));
#596 = FACE_BOUND('',#597,.T.);
#597 = EDGE_LOOP('',(#598,#609,#617,#626,#634,#643));
#598 = ORIENTED_EDGE('',*,*,#599,.F.);
#599 = EDGE_CURVE('',#600,#602,#604,.T.);
#600 = VERTEX_POINT('',#601);
#601 = CARTESIAN_POINT('',(10.,-172.,-73.84131112314));
#602 = VERTEX_POINT('',#603);
#603 = CARTESIAN_POINT('',(6.853075311273,-172.,-72.2028472821));
#604 = CIRCLE('',#605,2.);
#605 = AXIS2_PLACEMENT_3D('',#606,#607,#608);
#606 = CARTESIAN_POINT('',(8.,-172.,-73.84131112314));
#607 = DIRECTION('',(0.,-1.,0.));
#608 = DIRECTION('',(-0.573462344363,-0.,0.819231920519));
#609 = ORIENTED_EDGE('',*,*,#610,.T.);
#610 = EDGE_CURVE('',#600,#611,#613,.T.);
#611 = VERTEX_POINT('',#612);
#612 = CARTESIAN_POINT('',(10.,-172.,-82.));
#613 = LINE('',#614,#615);
#614 = CARTESIAN_POINT('',(10.,-172.,-62.30862745791));
#615 = VECTOR('',#616,1.);
#616 = DIRECTION('',(-0.,-0.,-1.));
#617 = ORIENTED_EDGE('',*,*,#618,.F.);
#618 = EDGE_CURVE('',#619,#611,#621,.T.);
#619 = VERTEX_POINT('',#620);
#620 = CARTESIAN_POINT('',(8.,-172.,-84.));
#621 = CIRCLE('',#622,2.);
#622 = AXIS2_PLACEMENT_3D('',#623,#624,#625);
#623 = CARTESIAN_POINT('',(8.,-172.,-82.));
#624 = DIRECTION('',(-0.,-1.,-0.));
#625 = DIRECTION('',(1.,-0.,-0.));
#626 = ORIENTED_EDGE('',*,*,#627,.T.);
#627 = EDGE_CURVE('',#619,#628,#630,.T.);
#628 = VERTEX_POINT('',#629);
#629 = CARTESIAN_POINT('',(-3.655269824076,-172.,-84.));
#630 = LINE('',#631,#632);
#631 = CARTESIAN_POINT('',(4.,-172.,-84.));
#632 = VECTOR('',#633,1.);
#633 = DIRECTION('',(-1.,-0.,-0.));
#634 = ORIENTED_EDGE('',*,*,#635,.F.);
#635 = EDGE_CURVE('',#636,#628,#638,.T.);
#636 = VERTEX_POINT('',#637);
#637 = CARTESIAN_POINT('',(-4.802194512803,-172.,-80.36153615896));
#638 = CIRCLE('',#639,2.);
#639 = AXIS2_PLACEMENT_3D('',#640,#641,#642);
#640 = CARTESIAN_POINT('',(-3.655269824076,-172.,-82.));
#641 = DIRECTION('',(0.,-1.,0.));
#642 = DIRECTION('',(-1.7763568394E-15,-0.,-1.));
#643 = ORIENTED_EDGE('',*,*,#644,.T.);
#644 = EDGE_CURVE('',#636,#602,#645,.T.);
#645 = LINE('',#646,#647);
#646 = CARTESIAN_POINT('',(3.758915946661,-172.,-74.36875883733));
#647 = VECTOR('',#648,1.);
#648 = DIRECTION('',(0.819231920519,-0.,0.573462344363));
#649 = FACE_BOUND('',#650,.T.);
#650 = EDGE_LOOP('',(#651));
#651 = ORIENTED_EDGE('',*,*,#652,.T.);
#652 = EDGE_CURVE('',#653,#653,#655,.T.);
#653 = VERTEX_POINT('',#654);
#654 = CARTESIAN_POINT('',(31.,-172.,14.2));
#655 = CIRCLE('',#656,2.2);
#656 = AXIS2_PLACEMENT_3D('',#657,#658,#659);
#657 = CARTESIAN_POINT('',(31.,-172.,12.));
#658 = DIRECTION('',(0.,1.,0.));
#659 = DIRECTION('',(-0.,-0.,1.));
#660 = FACE_BOUND('',#661,.T.);
#661 = EDGE_LOOP('',(#662));
#662 = ORIENTED_EDGE('',*,*,#663,.T.);
#663 = EDGE_CURVE('',#664,#664,#666,.T.);
#664 = VERTEX_POINT('',#665);
#665 = CARTESIAN_POINT('',(31.,-172.,-9.8));
#666 = CIRCLE('',#667,2.2);
#667 = AXIS2_PLACEMENT_3D('',#668,#669,#670);
#668 = CARTESIAN_POINT('',(31.,-172.,-12.));
#669 = DIRECTION('',(0.,1.,0.));
#670 = DIRECTION('',(-0.,-0.,1.));
#671 = PLANE('',#672);
#672 = AXIS2_PLACEMENT_3D('',#673,#674,#675);
#673 = CARTESIAN_POINT('',(-3.703026155839E-15,-172.,-50.77594379267));
#674 = DIRECTION('',(-0.,1.,-0.));
#675 = DIRECTION('',(0.,0.,1.));
#676 = ADVANCED_FACE('',(#677),#688,.F.);
#677 = FACE_BOUND('',#678,.F.);
#678 = EDGE_LOOP('',(#679,#685,#686,#687));
#679 = ORIENTED_EDGE('',*,*,#680,.T.);
#680 = EDGE_CURVE('',#64,#388,#681,.T.);
#681 = LINE('',#682,#683);
#682 = CARTESIAN_POINT('',(18.,-166.,-55.));
#683 = VECTOR('',#684,1.);
#684 = DIRECTION('',(-0.,-1.,-0.));
#685 = ORIENTED_EDGE('',*,*,#387,.T.);
#686 = ORIENTED_EDGE('',*,*,#32,.F.);
#687 = ORIENTED_EDGE('',*,*,#63,.F.);
#688 = SURFACE_OF_LINEAR_EXTRUSION('',#689,#694);
#689 = B_SPLINE_CURVE_WITH_KNOTS('',3,(#690,#691,#692,#693),
  .UNSPECIFIED.,.F.,.F.,(4,4),(0.,1.),.PIECEWISE_BEZIER_KNOTS.);
#690 = CARTESIAN_POINT('',(18.,-166.,-55.));
#691 = CARTESIAN_POINT('',(18.,-166.,-42.));
#692 = CARTESIAN_POINT('',(20.5,-166.,-36.06854249492));
#693 = CARTESIAN_POINT('',(28.284271247462,-166.,-28.28427124746));
#694 = VECTOR('',#695,1.);
#695 = DIRECTION('',(-0.,1.,-0.));
#696 = ADVANCED_FACE('',(#697),#708,.F.);
#697 = FACE_BOUND('',#698,.F.);
#698 = EDGE_LOOP('',(#699,#705,#706,#707));
#699 = ORIENTED_EDGE('',*,*,#700,.T.);
#700 = EDGE_CURVE('',#126,#443,#701,.T.);
#701 = LINE('',#702,#703);
#702 = CARTESIAN_POINT('',(17.,-166.,-130.));
#703 = VECTOR('',#704,1.);
#704 = DIRECTION('',(-0.,-1.,-0.));
#705 = ORIENTED_EDGE('',*,*,#451,.T.);
#706 = ORIENTED_EDGE('',*,*,#680,.F.);
#707 = ORIENTED_EDGE('',*,*,#134,.F.);
#708 = SURFACE_OF_LINEAR_EXTRUSION('',#709,#714);
#709 = B_SPLINE_CURVE_WITH_KNOTS('',3,(#710,#711,#712,#713),
  .UNSPECIFIED.,.F.,.F.,(4,4),(0.,1.),.PIECEWISE_BEZIER_KNOTS.);
#710 = CARTESIAN_POINT('',(17.,-166.,-130.));
#711 = CARTESIAN_POINT('',(17.,-166.,-104.));
#712 = CARTESIAN_POINT('',(18.,-166.,-78.));
#713 = CARTESIAN_POINT('',(18.,-166.,-55.));
#714 = VECTOR('',#715,1.);
#715 = DIRECTION('',(-0.,1.,-0.));
#716 = ADVANCED_FACE('',(#717),#728,.T.);
#717 = FACE_BOUND('',#718,.F.);
#718 = EDGE_LOOP('',(#719,#725,#726,#727));
#719 = ORIENTED_EDGE('',*,*,#720,.T.);
#720 = EDGE_CURVE('',#117,#434,#721,.T.);
#721 = LINE('',#722,#723);
#722 = CARTESIAN_POINT('',(-17.,-166.,-130.));
#723 = VECTOR('',#724,1.);
#724 = DIRECTION('',(-0.,-1.,-0.));
#725 = ORIENTED_EDGE('',*,*,#442,.T.);
#726 = ORIENTED_EDGE('',*,*,#700,.F.);
#727 = ORIENTED_EDGE('',*,*,#125,.F.);
#728 = CYLINDRICAL_SURFACE('',#729,17.);
#729 = AXIS2_PLACEMENT_3D('',#730,#731,#732);
#730 = CARTESIAN_POINT('',(0.,-166.,-130.));
#731 = DIRECTION('',(-0.,1.,-0.));
#732 = DIRECTION('',(-1.,-0.,-0.));
#733 = ADVANCED_FACE('',(#734),#745,.F.);
#734 = FACE_BOUND('',#735,.F.);
#735 = EDGE_LOOP('',(#736,#742,#743,#744));
#736 = ORIENTED_EDGE('',*,*,#737,.T.);
#737 = EDGE_CURVE('',#108,#425,#738,.T.);
#738 = LINE('',#739,#740);
#739 = CARTESIAN_POINT('',(-18.,-166.,-55.));
#740 = VECTOR('',#741,1.);
#741 = DIRECTION('',(-0.,-1.,-0.));
#742 = ORIENTED_EDGE('',*,*,#433,.T.);
#743 = ORIENTED_EDGE('',*,*,#720,.F.);
#744 = ORIENTED_EDGE('',*,*,#116,.F.);
#745 = SURFACE_OF_LINEAR_EXTRUSION('',#746,#751);
#746 = B_SPLINE_CURVE_WITH_KNOTS('',3,(#747,#748,#749,#750),
  .UNSPECIFIED.,.F.,.F.,(4,4),(0.,1.),.PIECEWISE_BEZIER_KNOTS.);
#747 = CARTESIAN_POINT('',(-18.,-166.,-55.));
#748 = CARTESIAN_POINT('',(-18.,-166.,-78.));
#749 = CARTESIAN_POINT('',(-17.,-166.,-104.));
#750 = CARTESIAN_POINT('',(-17.,-166.,-130.));
#751 = VECTOR('',#752,1.);
#752 = DIRECTION('',(-0.,1.,-0.));
#753 = ADVANCED_FACE('',(#754),#767,.F.);
#754 = FACE_BOUND('',#755,.T.);
#755 = EDGE_LOOP('',(#756,#757,#758,#759,#765,#766));
#756 = ORIENTED_EDGE('',*,*,#373,.F.);
#757 = ORIENTED_EDGE('',*,*,#81,.T.);
#758 = ORIENTED_EDGE('',*,*,#90,.T.);
#759 = ORIENTED_EDGE('',*,*,#760,.T.);
#760 = EDGE_CURVE('',#91,#408,#761,.T.);
#761 = LINE('',#762,#763);
#762 = CARTESIAN_POINT('',(-8.803254945274,-165.,-21.78882058232));
#763 = VECTOR('',#764,1.);
#764 = DIRECTION('',(-0.,-1.,-0.));
#765 = ORIENTED_EDGE('',*,*,#407,.F.);
#766 = ORIENTED_EDGE('',*,*,#398,.F.);
#767 = CYLINDRICAL_SURFACE('',#768,23.5);
#768 = AXIS2_PLACEMENT_3D('',#769,#770,#771);
#769 = CARTESIAN_POINT('',(0.,-165.,0.));
#770 = DIRECTION('',(-0.,-1.,-0.));
#771 = DIRECTION('',(-0.,-0.,1.));
#772 = ADVANCED_FACE('',(#773),#786,.F.);
#773 = FACE_BOUND('',#774,.F.);
#774 = EDGE_LOOP('',(#775,#776,#784,#785));
#775 = ORIENTED_EDGE('',*,*,#107,.F.);
#776 = ORIENTED_EDGE('',*,*,#777,.F.);
#777 = EDGE_CURVE('',#417,#100,#778,.T.);
#778 = B_SPLINE_CURVE_WITH_KNOTS('',4,(#779,#780,#781,#782,#783),
  .UNSPECIFIED.,.F.,.F.,(5,5),(0.,1.),.PIECEWISE_BEZIER_KNOTS.);
#779 = CARTESIAN_POINT('',(-18.57902974241,-172.0000006,-45.98471226468)
  );
#780 = CARTESIAN_POINT('',(-18.57902974241,-170.5000003,-45.98471226468)
  );
#781 = CARTESIAN_POINT('',(-18.57902974241,-169.,-45.98471226468));
#782 = CARTESIAN_POINT('',(-18.57902974241,-167.4999997,-45.98471226468)
  );
#783 = CARTESIAN_POINT('',(-18.57902974241,-165.9999994,-45.98471226468)
  );
#784 = ORIENTED_EDGE('',*,*,#424,.T.);
#785 = ORIENTED_EDGE('',*,*,#737,.F.);
#786 = SURFACE_OF_LINEAR_EXTRUSION('',#787,#792);
#787 = B_SPLINE_CURVE_WITH_KNOTS('',3,(#788,#789,#790,#791),
  .UNSPECIFIED.,.F.,.F.,(4,4),(0.,1.),.PIECEWISE_BEZIER_KNOTS.);
#788 = CARTESIAN_POINT('',(-28.28427124746,-166.,-28.28427124746));
#789 = CARTESIAN_POINT('',(-20.5,-166.,-36.06854249492));
#790 = CARTESIAN_POINT('',(-18.,-166.,-42.));
#791 = CARTESIAN_POINT('',(-18.,-166.,-55.));
#792 = VECTOR('',#793,1.);
#793 = DIRECTION('',(-0.,1.,-0.));
#794 = ADVANCED_FACE('',(#795),#801,.F.);
#795 = FACE_BOUND('',#796,.T.);
#796 = EDGE_LOOP('',(#797,#798,#799,#800));
#797 = ORIENTED_EDGE('',*,*,#777,.F.);
#798 = ORIENTED_EDGE('',*,*,#416,.T.);
#799 = ORIENTED_EDGE('',*,*,#760,.F.);
#800 = ORIENTED_EDGE('',*,*,#99,.F.);
#801 = PLANE('',#802);
#802 = AXIS2_PLACEMENT_3D('',#803,#804,#805);
#803 = CARTESIAN_POINT('',(-19.10493626421,-165.,-47.2863765829));
#804 = DIRECTION('',(0.927183854567,-0.,-0.374606593416));
#805 = DIRECTION('',(-0.374606593416,0.,-0.927183854567));
#806 = ADVANCED_FACE('',(#807),#823,.F.);
#807 = FACE_BOUND('',#808,.F.);
#808 = EDGE_LOOP('',(#809,#810,#816,#817));
#809 = ORIENTED_EDGE('',*,*,#143,.T.);
#810 = ORIENTED_EDGE('',*,*,#811,.T.);
#811 = EDGE_CURVE('',#146,#463,#812,.T.);
#812 = LINE('',#813,#814);
#813 = CARTESIAN_POINT('',(-10.,-165.,-44.));
#814 = VECTOR('',#815,1.);
#815 = DIRECTION('',(-0.,-1.,-0.));
#816 = ORIENTED_EDGE('',*,*,#460,.F.);
#817 = ORIENTED_EDGE('',*,*,#818,.F.);
#818 = EDGE_CURVE('',#144,#461,#819,.T.);
#819 = LINE('',#820,#821);
#820 = CARTESIAN_POINT('',(-8.,-165.,-42.));
#821 = VECTOR('',#822,1.);
#822 = DIRECTION('',(-0.,-1.,-0.));
#823 = CYLINDRICAL_SURFACE('',#824,2.);
#824 = AXIS2_PLACEMENT_3D('',#825,#826,#827);
#825 = CARTESIAN_POINT('',(-8.,-165.,-44.));
#826 = DIRECTION('',(-0.,1.,-0.));
#827 = DIRECTION('',(-1.,-0.,3.5527136788E-15));
#828 = ADVANCED_FACE('',(#829),#840,.T.);
#829 = FACE_BOUND('',#830,.F.);
#830 = EDGE_LOOP('',(#831,#832,#833,#834));
#831 = ORIENTED_EDGE('',*,*,#154,.F.);
#832 = ORIENTED_EDGE('',*,*,#818,.T.);
#833 = ORIENTED_EDGE('',*,*,#471,.T.);
#834 = ORIENTED_EDGE('',*,*,#835,.F.);
#835 = EDGE_CURVE('',#155,#472,#836,.T.);
#836 = LINE('',#837,#838);
#837 = CARTESIAN_POINT('',(3.253273710192,-165.,-42.));
#838 = VECTOR('',#839,1.);
#839 = DIRECTION('',(-0.,-1.,-0.));
#840 = PLANE('',#841);
#841 = AXIS2_PLACEMENT_3D('',#842,#843,#844);
#842 = CARTESIAN_POINT('',(-8.,-165.,-42.));
#843 = DIRECTION('',(-0.,-0.,-1.));
#844 = DIRECTION('',(-1.,0.,0.));
#845 = ADVANCED_FACE('',(#846),#857,.T.);
#846 = FACE_BOUND('',#847,.F.);
#847 = EDGE_LOOP('',(#848,#849,#855,#856));
#848 = ORIENTED_EDGE('',*,*,#188,.F.);
#849 = ORIENTED_EDGE('',*,*,#850,.T.);
#850 = EDGE_CURVE('',#180,#497,#851,.T.);
#851 = LINE('',#852,#853);
#852 = CARTESIAN_POINT('',(-10.,-165.,-51.31462791162));
#853 = VECTOR('',#854,1.);
#854 = DIRECTION('',(-0.,-1.,-0.));
#855 = ORIENTED_EDGE('',*,*,#505,.T.);
#856 = ORIENTED_EDGE('',*,*,#811,.F.);
#857 = PLANE('',#858);
#858 = AXIS2_PLACEMENT_3D('',#859,#860,#861);
#859 = CARTESIAN_POINT('',(-10.,-165.,-51.31462791162));
#860 = DIRECTION('',(1.,-0.,-0.));
#861 = DIRECTION('',(0.,0.,-1.));
#862 = ADVANCED_FACE('',(#863),#874,.F.);
#863 = FACE_BOUND('',#864,.F.);
#864 = EDGE_LOOP('',(#865,#866,#867,#868));
#865 = ORIENTED_EDGE('',*,*,#162,.T.);
#866 = ORIENTED_EDGE('',*,*,#835,.T.);
#867 = ORIENTED_EDGE('',*,*,#479,.F.);
#868 = ORIENTED_EDGE('',*,*,#869,.F.);
#869 = EDGE_CURVE('',#163,#480,#870,.T.);
#870 = LINE('',#871,#872);
#871 = CARTESIAN_POINT('',(4.343250411383,-165.,-45.6768872326));
#872 = VECTOR('',#873,1.);
#873 = DIRECTION('',(-0.,-1.,-0.));
#874 = CYLINDRICAL_SURFACE('',#875,2.);
#875 = AXIS2_PLACEMENT_3D('',#876,#877,#878);
#876 = CARTESIAN_POINT('',(3.253273710192,-165.,-44.));
#877 = DIRECTION('',(-0.,1.,-0.));
#878 = DIRECTION('',(1.33226762955E-15,-0.,1.));
#879 = ADVANCED_FACE('',(#880),#891,.F.);
#880 = FACE_BOUND('',#881,.F.);
#881 = EDGE_LOOP('',(#882,#883,#889,#890));
#882 = ORIENTED_EDGE('',*,*,#179,.T.);
#883 = ORIENTED_EDGE('',*,*,#884,.T.);
#884 = EDGE_CURVE('',#172,#489,#885,.T.);
#885 = LINE('',#886,#887);
#886 = CARTESIAN_POINT('',(-6.910023298809,-165.,-52.99151514422));
#887 = VECTOR('',#888,1.);
#888 = DIRECTION('',(-0.,-1.,-0.));
#889 = ORIENTED_EDGE('',*,*,#496,.F.);
#890 = ORIENTED_EDGE('',*,*,#850,.F.);
#891 = CYLINDRICAL_SURFACE('',#892,2.);
#892 = AXIS2_PLACEMENT_3D('',#893,#894,#895);
#893 = CARTESIAN_POINT('',(-8.,-165.,-51.31462791162));
#894 = DIRECTION('',(-0.,1.,-0.));
#895 = DIRECTION('',(0.544988350595,-0.,-0.838443616301));
#896 = ADVANCED_FACE('',(#897),#903,.T.);
#897 = FACE_BOUND('',#898,.F.);
#898 = EDGE_LOOP('',(#899,#900,#901,#902));
#899 = ORIENTED_EDGE('',*,*,#171,.F.);
#900 = ORIENTED_EDGE('',*,*,#869,.T.);
#901 = ORIENTED_EDGE('',*,*,#488,.T.);
#902 = ORIENTED_EDGE('',*,*,#884,.F.);
#903 = PLANE('',#904);
#904 = AXIS2_PLACEMENT_3D('',#905,#906,#907);
#905 = CARTESIAN_POINT('',(4.343250411383,-165.,-45.6768872326));
#906 = DIRECTION('',(-0.544988350595,-0.,0.838443616301));
#907 = DIRECTION('',(0.838443616301,0.,0.544988350595));
#908 = ADVANCED_FACE('',(#909),#920,.F.);
#909 = FACE_BOUND('',#910,.T.);
#910 = EDGE_LOOP('',(#911,#912,#918,#919));
#911 = ORIENTED_EDGE('',*,*,#513,.F.);
#912 = ORIENTED_EDGE('',*,*,#913,.F.);
#913 = EDGE_CURVE('',#197,#514,#914,.T.);
#914 = LINE('',#915,#916);
#915 = CARTESIAN_POINT('',(-5.388445916248E-16,-165.,-63.8));
#916 = VECTOR('',#917,1.);
#917 = DIRECTION('',(-0.,-1.,-0.));
#918 = ORIENTED_EDGE('',*,*,#196,.T.);
#919 = ORIENTED_EDGE('',*,*,#913,.T.);
#920 = CYLINDRICAL_SURFACE('',#921,2.2);
#921 = AXIS2_PLACEMENT_3D('',#922,#923,#924);
#922 = CARTESIAN_POINT('',(0.,-165.,-66.));
#923 = DIRECTION('',(-0.,-1.,-0.));
#924 = DIRECTION('',(-0.,-0.,1.));
#925 = ADVANCED_FACE('',(#926),#937,.F.);
#926 = FACE_BOUND('',#927,.T.);
#927 = EDGE_LOOP('',(#928,#929,#935,#936));
#928 = ORIENTED_EDGE('',*,*,#524,.F.);
#929 = ORIENTED_EDGE('',*,*,#930,.F.);
#930 = EDGE_CURVE('',#208,#525,#931,.T.);
#931 = LINE('',#932,#933);
#932 = CARTESIAN_POINT('',(-5.388445916248E-16,-165.,-90.8));
#933 = VECTOR('',#934,1.);
#934 = DIRECTION('',(-0.,-1.,-0.));
#935 = ORIENTED_EDGE('',*,*,#207,.T.);
#936 = ORIENTED_EDGE('',*,*,#930,.T.);
#937 = CYLINDRICAL_SURFACE('',#938,2.2);
#938 = AXIS2_PLACEMENT_3D('',#939,#940,#941);
#939 = CARTESIAN_POINT('',(0.,-165.,-93.));
#940 = DIRECTION('',(-0.,-1.,-0.));
#941 = DIRECTION('',(-0.,-0.,1.));
#942 = ADVANCED_FACE('',(#943),#959,.F.);
#943 = FACE_BOUND('',#944,.F.);
#944 = EDGE_LOOP('',(#945,#946,#952,#953));
#945 = ORIENTED_EDGE('',*,*,#218,.T.);
#946 = ORIENTED_EDGE('',*,*,#947,.T.);
#947 = EDGE_CURVE('',#221,#538,#948,.T.);
#948 = LINE('',#949,#950);
#949 = CARTESIAN_POINT('',(-10.,-165.,-103.5));
#950 = VECTOR('',#951,1.);
#951 = DIRECTION('',(-0.,-1.,-0.));
#952 = ORIENTED_EDGE('',*,*,#535,.F.);
#953 = ORIENTED_EDGE('',*,*,#954,.F.);
#954 = EDGE_CURVE('',#219,#536,#955,.T.);
#955 = LINE('',#956,#957);
#956 = CARTESIAN_POINT('',(-8.,-165.,-101.5));
#957 = VECTOR('',#958,1.);
#958 = DIRECTION('',(-0.,-1.,-0.));
#959 = CYLINDRICAL_SURFACE('',#960,2.);
#960 = AXIS2_PLACEMENT_3D('',#961,#962,#963);
#961 = CARTESIAN_POINT('',(-8.,-165.,-103.5));
#962 = DIRECTION('',(-0.,1.,-0.));
#963 = DIRECTION('',(-1.,-0.,-0.));
#964 = ADVANCED_FACE('',(#965),#976,.T.);
#965 = FACE_BOUND('',#966,.F.);
#966 = EDGE_LOOP('',(#967,#968,#969,#970));
#967 = ORIENTED_EDGE('',*,*,#229,.F.);
#968 = ORIENTED_EDGE('',*,*,#954,.T.);
#969 = ORIENTED_EDGE('',*,*,#546,.T.);
#970 = ORIENTED_EDGE('',*,*,#971,.F.);
#971 = EDGE_CURVE('',#230,#547,#972,.T.);
#972 = LINE('',#973,#974);
#973 = CARTESIAN_POINT('',(2.779365403436,-165.,-101.5));
#974 = VECTOR('',#975,1.);
#975 = DIRECTION('',(-0.,-1.,-0.));
#976 = PLANE('',#977);
#977 = AXIS2_PLACEMENT_3D('',#978,#979,#980);
#978 = CARTESIAN_POINT('',(-8.,-165.,-101.5));
#979 = DIRECTION('',(-0.,-0.,-1.));
#980 = DIRECTION('',(-1.,0.,0.));
#981 = ADVANCED_FACE('',(#982),#993,.T.);
#982 = FACE_BOUND('',#983,.F.);
#983 = EDGE_LOOP('',(#984,#985,#991,#992));
#984 = ORIENTED_EDGE('',*,*,#263,.F.);
#985 = ORIENTED_EDGE('',*,*,#986,.T.);
#986 = EDGE_CURVE('',#255,#572,#987,.T.);
#987 = LINE('',#988,#989);
#988 = CARTESIAN_POINT('',(-10.,-165.,-109.967619242));
#989 = VECTOR('',#990,1.);
#990 = DIRECTION('',(-0.,-1.,-0.));
#991 = ORIENTED_EDGE('',*,*,#580,.T.);
#992 = ORIENTED_EDGE('',*,*,#947,.F.);
#993 = PLANE('',#994);
#994 = AXIS2_PLACEMENT_3D('',#995,#996,#997);
#995 = CARTESIAN_POINT('',(-10.,-165.,-109.967619242));
#996 = DIRECTION('',(1.,-0.,-0.));
#997 = DIRECTION('',(0.,0.,-1.));
#998 = ADVANCED_FACE('',(#999),#1010,.F.);
#999 = FACE_BOUND('',#1000,.F.);
#1000 = EDGE_LOOP('',(#1001,#1002,#1003,#1004));
#1001 = ORIENTED_EDGE('',*,*,#237,.T.);
#1002 = ORIENTED_EDGE('',*,*,#971,.T.);
#1003 = ORIENTED_EDGE('',*,*,#554,.F.);
#1004 = ORIENTED_EDGE('',*,*,#1005,.F.);
#1005 = EDGE_CURVE('',#238,#555,#1006,.T.);
#1006 = LINE('',#1007,#1008);
#1007 = CARTESIAN_POINT('',(3.808356914292,-165.,-105.2149858514));
#1008 = VECTOR('',#1009,1.);
#1009 = DIRECTION('',(-0.,-1.,-0.));
#1010 = CYLINDRICAL_SURFACE('',#1011,2.);
#1011 = AXIS2_PLACEMENT_3D('',#1012,#1013,#1014);
#1012 = CARTESIAN_POINT('',(2.779365403436,-165.,-103.5));
#1013 = DIRECTION('',(-0.,1.,-0.));
#1014 = DIRECTION('',(-2.886579864025E-15,-0.,1.));
#1015 = ADVANCED_FACE('',(#1016),#1027,.F.);
#1016 = FACE_BOUND('',#1017,.F.);
#1017 = EDGE_LOOP('',(#1018,#1019,#1025,#1026));
#1018 = ORIENTED_EDGE('',*,*,#254,.T.);
#1019 = ORIENTED_EDGE('',*,*,#1020,.T.);
#1020 = EDGE_CURVE('',#247,#564,#1021,.T.);
#1021 = LINE('',#1022,#1023);
#1022 = CARTESIAN_POINT('',(-6.971008489145,-165.,-111.6826050934));
#1023 = VECTOR('',#1024,1.);
#1024 = DIRECTION('',(-0.,-1.,-0.));
#1025 = ORIENTED_EDGE('',*,*,#571,.F.);
#1026 = ORIENTED_EDGE('',*,*,#986,.F.);
#1027 = CYLINDRICAL_SURFACE('',#1028,2.);
#1028 = AXIS2_PLACEMENT_3D('',#1029,#1030,#1031);
#1029 = CARTESIAN_POINT('',(-8.,-165.,-109.967619242));
#1030 = DIRECTION('',(-0.,1.,-0.));
#1031 = DIRECTION('',(0.514495755428,-0.,-0.857492925713));
#1032 = ADVANCED_FACE('',(#1033),#1039,.T.);
#1033 = FACE_BOUND('',#1034,.F.);
#1034 = EDGE_LOOP('',(#1035,#1036,#1037,#1038));
#1035 = ORIENTED_EDGE('',*,*,#246,.F.);
#1036 = ORIENTED_EDGE('',*,*,#1005,.T.);
#1037 = ORIENTED_EDGE('',*,*,#563,.T.);
#1038 = ORIENTED_EDGE('',*,*,#1020,.F.);
#1039 = PLANE('',#1040);
#1040 = AXIS2_PLACEMENT_3D('',#1041,#1042,#1043);
#1041 = CARTESIAN_POINT('',(3.808356914292,-165.,-105.2149858514));
#1042 = DIRECTION('',(-0.514495755428,-0.,0.857492925713));
#1043 = DIRECTION('',(0.857492925713,0.,0.514495755428));
#1044 = ADVANCED_FACE('',(#1045),#1056,.F.);
#1045 = FACE_BOUND('',#1046,.T.);
#1046 = EDGE_LOOP('',(#1047,#1048,#1054,#1055));
#1047 = ORIENTED_EDGE('',*,*,#588,.F.);
#1048 = ORIENTED_EDGE('',*,*,#1049,.F.);
#1049 = EDGE_CURVE('',#272,#589,#1050,.T.);
#1050 = LINE('',#1051,#1052);
#1051 = CARTESIAN_POINT('',(-9.858406733136E-16,-165.,-125.975));
#1052 = VECTOR('',#1053,1.);
#1053 = DIRECTION('',(-0.,-1.,-0.));
#1054 = ORIENTED_EDGE('',*,*,#271,.T.);
#1055 = ORIENTED_EDGE('',*,*,#1049,.T.);
#1056 = CYLINDRICAL_SURFACE('',#1057,4.025);
#1057 = AXIS2_PLACEMENT_3D('',#1058,#1059,#1060);
#1058 = CARTESIAN_POINT('',(0.,-165.,-130.));
#1059 = DIRECTION('',(-0.,-1.,-0.));
#1060 = DIRECTION('',(-0.,-0.,1.));
#1061 = ADVANCED_FACE('',(#1062),#1078,.F.);
#1062 = FACE_BOUND('',#1063,.F.);
#1063 = EDGE_LOOP('',(#1064,#1065,#1071,#1072));
#1064 = ORIENTED_EDGE('',*,*,#282,.T.);
#1065 = ORIENTED_EDGE('',*,*,#1066,.T.);
#1066 = EDGE_CURVE('',#285,#602,#1067,.T.);
#1067 = LINE('',#1068,#1069);
#1068 = CARTESIAN_POINT('',(6.853075311273,-165.,-72.2028472821));
#1069 = VECTOR('',#1070,1.);
#1070 = DIRECTION('',(-0.,-1.,-0.));
#1071 = ORIENTED_EDGE('',*,*,#599,.F.);
#1072 = ORIENTED_EDGE('',*,*,#1073,.F.);
#1073 = EDGE_CURVE('',#283,#600,#1074,.T.);
#1074 = LINE('',#1075,#1076);
#1075 = CARTESIAN_POINT('',(10.,-165.,-73.84131112314));
#1076 = VECTOR('',#1077,1.);
#1077 = DIRECTION('',(-0.,-1.,-0.));
#1078 = CYLINDRICAL_SURFACE('',#1079,2.);
#1079 = AXIS2_PLACEMENT_3D('',#1080,#1081,#1082);
#1080 = CARTESIAN_POINT('',(8.,-165.,-73.84131112314));
#1081 = DIRECTION('',(0.,1.,-0.));
#1082 = DIRECTION('',(-0.573462344363,-0.,0.819231920519));
#1083 = ADVANCED_FACE('',(#1084),#1095,.T.);
#1084 = FACE_BOUND('',#1085,.F.);
#1085 = EDGE_LOOP('',(#1086,#1087,#1088,#1089));
#1086 = ORIENTED_EDGE('',*,*,#293,.F.);
#1087 = ORIENTED_EDGE('',*,*,#1073,.T.);
#1088 = ORIENTED_EDGE('',*,*,#610,.T.);
#1089 = ORIENTED_EDGE('',*,*,#1090,.F.);
#1090 = EDGE_CURVE('',#294,#611,#1091,.T.);
#1091 = LINE('',#1092,#1093);
#1092 = CARTESIAN_POINT('',(10.,-165.,-82.));
#1093 = VECTOR('',#1094,1.);
#1094 = DIRECTION('',(-0.,-1.,-0.));
#1095 = PLANE('',#1096);
#1096 = AXIS2_PLACEMENT_3D('',#1097,#1098,#1099);
#1097 = CARTESIAN_POINT('',(10.,-165.,-73.84131112314));
#1098 = DIRECTION('',(-1.,-0.,-0.));
#1099 = DIRECTION('',(0.,0.,1.));
#1100 = ADVANCED_FACE('',(#1101),#1112,.T.);
#1101 = FACE_BOUND('',#1102,.F.);
#1102 = EDGE_LOOP('',(#1103,#1104,#1110,#1111));
#1103 = ORIENTED_EDGE('',*,*,#327,.F.);
#1104 = ORIENTED_EDGE('',*,*,#1105,.T.);
#1105 = EDGE_CURVE('',#319,#636,#1106,.T.);
#1106 = LINE('',#1107,#1108);
#1107 = CARTESIAN_POINT('',(-4.802194512803,-165.,-80.36153615896));
#1108 = VECTOR('',#1109,1.);
#1109 = DIRECTION('',(-0.,-1.,-0.));
#1110 = ORIENTED_EDGE('',*,*,#644,.T.);
#1111 = ORIENTED_EDGE('',*,*,#1066,.F.);
#1112 = PLANE('',#1113);
#1113 = AXIS2_PLACEMENT_3D('',#1114,#1115,#1116);
#1114 = CARTESIAN_POINT('',(-4.802194512803,-165.,-80.36153615896));
#1115 = DIRECTION('',(0.573462344363,-0.,-0.819231920519));
#1116 = DIRECTION('',(-0.819231920519,0.,-0.573462344363));
#1117 = ADVANCED_FACE('',(#1118),#1129,.F.);
#1118 = FACE_BOUND('',#1119,.F.);
#1119 = EDGE_LOOP('',(#1120,#1121,#1122,#1123));
#1120 = ORIENTED_EDGE('',*,*,#301,.T.);
#1121 = ORIENTED_EDGE('',*,*,#1090,.T.);
#1122 = ORIENTED_EDGE('',*,*,#618,.F.);
#1123 = ORIENTED_EDGE('',*,*,#1124,.F.);
#1124 = EDGE_CURVE('',#302,#619,#1125,.T.);
#1125 = LINE('',#1126,#1127);
#1126 = CARTESIAN_POINT('',(8.,-165.,-84.));
#1127 = VECTOR('',#1128,1.);
#1128 = DIRECTION('',(-0.,-1.,-0.));
#1129 = CYLINDRICAL_SURFACE('',#1130,2.);
#1130 = AXIS2_PLACEMENT_3D('',#1131,#1132,#1133);
#1131 = CARTESIAN_POINT('',(8.,-165.,-82.));
#1132 = DIRECTION('',(0.,1.,-0.));
#1133 = DIRECTION('',(1.,-0.,-0.));
#1134 = ADVANCED_FACE('',(#1135),#1146,.F.);
#1135 = FACE_BOUND('',#1136,.F.);
#1136 = EDGE_LOOP('',(#1137,#1138,#1144,#1145));
#1137 = ORIENTED_EDGE('',*,*,#318,.T.);
#1138 = ORIENTED_EDGE('',*,*,#1139,.T.);
#1139 = EDGE_CURVE('',#311,#628,#1140,.T.);
#1140 = LINE('',#1141,#1142);
#1141 = CARTESIAN_POINT('',(-3.655269824076,-165.,-84.));
#1142 = VECTOR('',#1143,1.);
#1143 = DIRECTION('',(-0.,-1.,-0.));
#1144 = ORIENTED_EDGE('',*,*,#635,.F.);
#1145 = ORIENTED_EDGE('',*,*,#1105,.F.);
#1146 = CYLINDRICAL_SURFACE('',#1147,2.);
#1147 = AXIS2_PLACEMENT_3D('',#1148,#1149,#1150);
#1148 = CARTESIAN_POINT('',(-3.655269824076,-165.,-82.));
#1149 = DIRECTION('',(-0.,1.,-0.));
#1150 = DIRECTION('',(-1.7763568394E-15,-0.,-1.));
#1151 = ADVANCED_FACE('',(#1152),#1158,.T.);
#1152 = FACE_BOUND('',#1153,.F.);
#1153 = EDGE_LOOP('',(#1154,#1155,#1156,#1157));
#1154 = ORIENTED_EDGE('',*,*,#310,.F.);
#1155 = ORIENTED_EDGE('',*,*,#1124,.T.);
#1156 = ORIENTED_EDGE('',*,*,#627,.T.);
#1157 = ORIENTED_EDGE('',*,*,#1139,.F.);
#1158 = PLANE('',#1159);
#1159 = AXIS2_PLACEMENT_3D('',#1160,#1161,#1162);
#1160 = CARTESIAN_POINT('',(8.,-165.,-84.));
#1161 = DIRECTION('',(-0.,-0.,1.));
#1162 = DIRECTION('',(1.,0.,0.));
#1163 = ADVANCED_FACE('',(#1164),#1175,.F.);
#1164 = FACE_BOUND('',#1165,.T.);
#1165 = EDGE_LOOP('',(#1166,#1167,#1173,#1174));
#1166 = ORIENTED_EDGE('',*,*,#652,.F.);
#1167 = ORIENTED_EDGE('',*,*,#1168,.F.);
#1168 = EDGE_CURVE('',#336,#653,#1169,.T.);
#1169 = LINE('',#1170,#1171);
#1170 = CARTESIAN_POINT('',(31.,-165.,14.2));
#1171 = VECTOR('',#1172,1.);
#1172 = DIRECTION('',(-0.,-1.,-0.));
#1173 = ORIENTED_EDGE('',*,*,#335,.T.);
#1174 = ORIENTED_EDGE('',*,*,#1168,.T.);
#1175 = CYLINDRICAL_SURFACE('',#1176,2.2);
#1176 = AXIS2_PLACEMENT_3D('',#1177,#1178,#1179);
#1177 = CARTESIAN_POINT('',(31.,-165.,12.));
#1178 = DIRECTION('',(-0.,-1.,-0.));
#1179 = DIRECTION('',(-0.,-0.,1.));
#1180 = ADVANCED_FACE('',(#1181),#1192,.F.);
#1181 = FACE_BOUND('',#1182,.T.);
#1182 = EDGE_LOOP('',(#1183,#1184,#1190,#1191));
#1183 = ORIENTED_EDGE('',*,*,#663,.F.);
#1184 = ORIENTED_EDGE('',*,*,#1185,.F.);
#1185 = EDGE_CURVE('',#347,#664,#1186,.T.);
#1186 = LINE('',#1187,#1188);
#1187 = CARTESIAN_POINT('',(31.,-165.,-9.8));
#1188 = VECTOR('',#1189,1.);
#1189 = DIRECTION('',(-0.,-1.,-0.));
#1190 = ORIENTED_EDGE('',*,*,#346,.T.);
#1191 = ORIENTED_EDGE('',*,*,#1185,.T.);
#1192 = CYLINDRICAL_SURFACE('',#1193,2.2);
#1193 = AXIS2_PLACEMENT_3D('',#1194,#1195,#1196);
#1194 = CARTESIAN_POINT('',(31.,-165.,-12.));
#1195 = DIRECTION('',(-0.,-1.,-0.));
#1196 = DIRECTION('',(-0.,-0.,1.));
#1197 = ( GEOMETRIC_REPRESENTATION_CONTEXT(3) 
GLOBAL_UNCERTAINTY_ASSIGNED_CONTEXT((#1201)) 
GLOBAL_UNIT_ASSIGNED_CONTEXT((#1198,#1199,#1200)) REPRESENTATION_CONTEXT
('Context #1','3D Context with UNIT and UNCERTAINTY') );
#1198 = ( LENGTH_UNIT() NAMED_UNIT(*) SI_UNIT(.MILLI.,.METRE.) );
#1199 = ( NAMED_UNIT(*) PLANE_ANGLE_UNIT() SI_UNIT($,.RADIAN.) );
#1200 = ( NAMED_UNIT(*) SI_UNIT($,.STERADIAN.) SOLID_ANGLE_UNIT() );
#1201 = UNCERTAINTY_MEASURE_WITH_UNIT(LENGTH_MEASURE(2.E-07),#1198,
  'distance_accuracy_value','confusion accuracy');
#1202 = PRODUCT_RELATED_PRODUCT_CATEGORY('part',$,(#7));
ENDSEC;
END-ISO-10303-21;
