ISO-10303-21;
HEADER;
FILE_DESCRIPTION(('FreeCAD Model'),'2;1');
FILE_NAME('Open CASCADE Shape Model','2026-09-22T10:50:11',('FreeCAD'),(
    'FreeCAD'),'Open CASCADE STEP processor 7.8','FreeCAD','Unknown');
FILE_SCHEMA(('AUTOMOTIVE_DESIGN { 1 0 10303 214 1 1 1 1 }'));
ENDSEC;
DATA;
#1 = APPLICATION_PROTOCOL_DEFINITION('international standard',
  'automotive_design',2000,#2);
#2 = APPLICATION_CONTEXT(
  'core data for automotive mechanical design processes');
#3 = SHAPE_DEFINITION_REPRESENTATION(#4,#10);
#4 = PRODUCT_DEFINITION_SHAPE('','',#5);
#5 = PRODUCT_DEFINITION('design','',#6,#9);
#6 = PRODUCT_DEFINITION_FORMATION('','',#7);
#7 = PRODUCT('Open CASCADE STEP translator 7.8 20',
  'Open CASCADE STEP translator 7.8 20','',(#8));
#8 = PRODUCT_CONTEXT('',#2,'mechanical');
#9 = PRODUCT_DEFINITION_CONTEXT('part definition',#2,'design');
#10 = ADVANCED_BREP_SHAPE_REPRESENTATION('',(#11,#15),#1354);
#11 = AXIS2_PLACEMENT_3D('',#12,#13,#14);
#12 = CARTESIAN_POINT('',(0.,0.,0.));
#13 = DIRECTION('',(0.,0.,1.));
#14 = DIRECTION('',(1.,0.,-0.));
#15 = MANIFOLD_SOLID_BREP('',#16);
#16 = CLOSED_SHELL('',(#17,#278,#331,#423,#448,#473,#498,#523,#548,#573,
    #598,#623,#716,#766,#842,#892,#968,#1018,#1094,#1137,#1157,#1177,
    #1197,#1217,#1229,#1241,#1253,#1265,#1286,#1303,#1320,#1337));
#17 = ADVANCED_FACE('',(#18,#45,#102,#159,#216),#273,.T.);
#18 = FACE_BOUND('',#19,.F.);
#19 = EDGE_LOOP('',(#20,#29,#37,#44));
#20 = ORIENTED_EDGE('',*,*,#21,.F.);
#21 = EDGE_CURVE('',#22,#22,#24,.T.);
#22 = VERTEX_POINT('',#23);
#23 = CARTESIAN_POINT('',(-6.98048675514E-15,-94.,28.5));
#24 = CIRCLE('',#25,28.5);
#25 = AXIS2_PLACEMENT_3D('',#26,#27,#28);
#26 = CARTESIAN_POINT('',(0.,-94.,0.));
#27 = DIRECTION('',(0.,1.,0.));
#28 = DIRECTION('',(-0.,-0.,1.));
#29 = ORIENTED_EDGE('',*,*,#30,.F.);
#30 = EDGE_CURVE('',#31,#22,#33,.T.);
#31 = VERTEX_POINT('',#32);
#32 = CARTESIAN_POINT('',(-6.98048675514E-15,-80.5,28.5));
#33 = LINE('',#34,#35);
#34 = CARTESIAN_POINT('',(-6.98048675514E-15,-80.5,28.5));
#35 = VECTOR('',#36,1.);
#36 = DIRECTION('',(-0.,-1.,-0.));
#37 = ORIENTED_EDGE('',*,*,#38,.T.);
#38 = EDGE_CURVE('',#31,#31,#39,.T.);
#39 = CIRCLE('',#40,28.5);
#40 = AXIS2_PLACEMENT_3D('',#41,#42,#43);
#41 = CARTESIAN_POINT('',(0.,-80.5,0.));
#42 = DIRECTION('',(0.,1.,0.));
#43 = DIRECTION('',(-0.,-0.,1.));
#44 = ORIENTED_EDGE('',*,*,#30,.T.);
#45 = FACE_BOUND('',#46,.F.);
#46 = EDGE_LOOP('',(#47));
#47 = ORIENTED_EDGE('',*,*,#48,.F.);
#48 = EDGE_CURVE('',#49,#49,#51,.T.);
#49 = VERTEX_POINT('',#50);
#50 = CARTESIAN_POINT('',(26.635423569485,-84.,10.139241158694));
#51 = B_SPLINE_CURVE_WITH_KNOTS('',7,(#52,#53,#54,#55,#56,#57,#58,#59,
    #60,#61,#62,#63,#64,#65,#66,#67,#68,#69,#70,#71,#72,#73,#74,#75,#76,
    #77,#78,#79,#80,#81,#82,#83,#84,#85,#86,#87,#88,#89,#90,#91,#92,#93,
    #94,#95,#96,#97,#98,#99,#100,#101),.UNSPECIFIED.,.T.,.F.,(8,6,6,6,6,
    6,6,6,8),(0.,0.134425926787,0.25093378058,0.358522890422,
    0.501103838488,0.634937535212,0.750932099227,0.858047211925,1.),
  .UNSPECIFIED.);
#52 = CARTESIAN_POINT('',(26.635423569485,-84.,10.139241158694));
#53 = CARTESIAN_POINT('',(26.635423569485,-83.69859528901,
    10.139241158694));
#54 = CARTESIAN_POINT('',(26.648492913948,-83.39757274942,
    10.104908317704));
#55 = CARTESIAN_POINT('',(26.674575343613,-83.09933660997,
    10.036391440333));
#56 = CARTESIAN_POINT('',(26.713721881001,-82.80659049588,9.932714478569
    ));
#57 = CARTESIAN_POINT('',(26.766002314701,-82.52289028869,9.79204485157)
  );
#58 = CARTESIAN_POINT('',(26.831248376686,-82.25333474897,9.611943052705
    ));
#59 = CARTESIAN_POINT('',(26.975926775426,-81.79102022777,9.197333524507
    ));
#60 = CARTESIAN_POINT('',(27.054044646764,-81.58726804107,8.968303694905
    ));
#61 = CARTESIAN_POINT('',(27.141772426335,-81.40654041705,8.703095610511
    ));
#62 = CARTESIAN_POINT('',(27.236506193714,-81.25943574269,8.404839181775
    ));
#63 = CARTESIAN_POINT('',(27.334822832553,-81.15488211885,8.079019313535
    ));
#64 = CARTESIAN_POINT('',(27.433290120857,-81.1,7.733111647138));
#65 = CARTESIAN_POINT('',(27.617164053718,-81.1,7.046884787513));
#66 = CARTESIAN_POINT('',(27.6989387785,-81.14680135887,6.723297131104)
  );
#67 = CARTESIAN_POINT('',(27.772466029729,-81.23677374569,6.413518979989
    ));
#68 = CARTESIAN_POINT('',(27.836908751066,-81.36446873295,6.124658494268
    ));
#69 = CARTESIAN_POINT('',(27.892243887533,-81.52273980212,5.862540697692
    ));
#70 = CARTESIAN_POINT('',(27.938895930077,-81.70285743147,5.631098948909
    ));
#71 = CARTESIAN_POINT('',(28.028829580868,-82.14873452926,5.167885133315
    ));
#72 = CARTESIAN_POINT('',(28.067586754744,-82.43076624725,4.952726764778
    ));
#73 = CARTESIAN_POINT('',(28.096280325349,-82.73037223025,4.78434146933)
  );
#74 = CARTESIAN_POINT('',(28.116699373848,-83.04106251009,4.660132914073
    ));
#75 = CARTESIAN_POINT('',(28.129936221927,-83.35829426756,4.578036501049
    ));
#76 = CARTESIAN_POINT('',(28.136574031079,-83.67889574527,4.536871366217
    ));
#77 = CARTESIAN_POINT('',(28.136574031079,-84.30140471098,4.536871366217
    ));
#78 = CARTESIAN_POINT('',(28.1307259949,-84.60242725057,4.57313915093));
#79 = CARTESIAN_POINT('',(28.119055602897,-84.90066339002,4.645517722154
    ));
#80 = CARTESIAN_POINT('',(28.101119017864,-85.19340950411,4.754877873523
    ));
#81 = CARTESIAN_POINT('',(28.076060388069,-85.4771097113,4.902841560894)
  );
#82 = CARTESIAN_POINT('',(28.042514235813,-85.74666525102,5.091437324971
    ));
#83 = CARTESIAN_POINT('',(27.960504640403,-86.20897977222,5.522838908404
    ));
#84 = CARTESIAN_POINT('',(27.913641786667,-86.41273195894,5.760243494748
    ));
#85 = CARTESIAN_POINT('',(27.857012230195,-86.59345958294,6.033784322909
    ));
#86 = CARTESIAN_POINT('',(27.789925864977,-86.74056425729,6.339448850708
    ));
#87 = CARTESIAN_POINT('',(27.712160637709,-86.84511788114,6.670775453079
    ));
#88 = CARTESIAN_POINT('',(27.624481977617,-86.9,7.019573923718));
#89 = CARTESIAN_POINT('',(27.440608044759,-86.9,7.705800783331));
#90 = CARTESIAN_POINT('',(27.349633205603,-86.85319864112,8.026923276523
    ));
#91 = CARTESIAN_POINT('',(27.25842059748,-86.7632262543,8.331962650541)
  );
#92 = CARTESIAN_POINT('',(27.169799388387,-86.63553126704,8.614344529992
    ));
#93 = CARTESIAN_POINT('',(27.086662124001,-86.47726019787,8.869012768845
    ));
#94 = CARTESIAN_POINT('',(27.011343103591,-86.29714256852,9.092773224059
    ));
#95 = CARTESIAN_POINT('',(26.85762102325,-85.85126547426,9.538894977613)
  );
#96 = CARTESIAN_POINT('',(26.783606531227,-85.56923373805,9.744606191712
    ));
#97 = CARTESIAN_POINT('',(26.724263253358,-85.26962779743,9.904778895276
    ));
#98 = CARTESIAN_POINT('',(26.679842381758,-84.95893746122,
    10.022556208588));
#99 = CARTESIAN_POINT('',(26.650257626658,-84.64170574888,
    10.100272198453));
#100 = CARTESIAN_POINT('',(26.635423569485,-84.32110425034,
    10.139241158694));
#101 = CARTESIAN_POINT('',(26.635423569485,-84.,10.139241158694));
#102 = FACE_BOUND('',#103,.F.);
#103 = EDGE_LOOP('',(#104));
#104 = ORIENTED_EDGE('',*,*,#105,.F.);
#105 = EDGE_CURVE('',#106,#106,#108,.T.);
#106 = VERTEX_POINT('',#107);
#107 = CARTESIAN_POINT('',(4.536871366217,-84.,-28.13657403107));
#108 = B_SPLINE_CURVE_WITH_KNOTS('',7,(#109,#110,#111,#112,#113,#114,
    #115,#116,#117,#118,#119,#120,#121,#122,#123,#124,#125,#126,#127,
    #128,#129,#130,#131,#132,#133,#134,#135,#136,#137,#138,#139,#140,
    #141,#142,#143,#144,#145,#146,#147,#148,#149,#150,#151,#152,#153,
    #154,#155,#156,#157,#158),.UNSPECIFIED.,.T.,.F.,(8,6,6,6,6,6,6,6,8),
  (0.,0.134425927064,0.250933781098,0.358522891162,0.501103837541,
    0.63493753451,0.750932098762,0.85804721166,1.),.UNSPECIFIED.);
#109 = CARTESIAN_POINT('',(4.536871366217,-84.,-28.13657403107));
#110 = CARTESIAN_POINT('',(4.536871366217,-84.30140471098,
    -28.13657403107));
#111 = CARTESIAN_POINT('',(4.57313915093,-84.60242725057,-28.1307259949)
  );
#112 = CARTESIAN_POINT('',(4.645517722154,-84.90066339002,
    -28.11905560289));
#113 = CARTESIAN_POINT('',(4.754877873522,-85.19340950411,
    -28.10111901786));
#114 = CARTESIAN_POINT('',(4.902841560894,-85.4771097113,-28.07606038806
    ));
#115 = CARTESIAN_POINT('',(5.091437324971,-85.74666525102,
    -28.04251423581));
#116 = CARTESIAN_POINT('',(5.522838908412,-86.20897977223,-27.9605046404
    ));
#117 = CARTESIAN_POINT('',(5.760243494739,-86.41273195892,
    -27.91364178666));
#118 = CARTESIAN_POINT('',(6.0337843229,-86.59345958294,-27.85701223019)
  );
#119 = CARTESIAN_POINT('',(6.339448850716,-86.7405642573,-27.78992586497
    ));
#120 = CARTESIAN_POINT('',(6.670775453091,-86.84511788114,-27.7121606377
    ));
#121 = CARTESIAN_POINT('',(7.019573923706,-86.9,-27.62448197762));
#122 = CARTESIAN_POINT('',(7.705800783331,-86.9,-27.44060804475));
#123 = CARTESIAN_POINT('',(8.026923276524,-86.85319864112,-27.3496332056
    ));
#124 = CARTESIAN_POINT('',(8.33196265054,-86.7632262543,-27.25842059748)
  );
#125 = CARTESIAN_POINT('',(8.614344529993,-86.63553126704,
    -27.16979938838));
#126 = CARTESIAN_POINT('',(8.869012768845,-86.47726019787,-27.086662124)
  );
#127 = CARTESIAN_POINT('',(9.092773224059,-86.29714256852,
    -27.01134310359));
#128 = CARTESIAN_POINT('',(9.538894977613,-85.85126547426,
    -26.85762102325));
#129 = CARTESIAN_POINT('',(9.744606191711,-85.56923373805,
    -26.78360653122));
#130 = CARTESIAN_POINT('',(9.904778895277,-85.26962779743,
    -26.72426325335));
#131 = CARTESIAN_POINT('',(10.022556208588,-84.95893746122,
    -26.67984238175));
#132 = CARTESIAN_POINT('',(10.100272198454,-84.64170574888,
    -26.65025762665));
#133 = CARTESIAN_POINT('',(10.139241158694,-84.32110425034,
    -26.63542356948));
#134 = CARTESIAN_POINT('',(10.139241158694,-83.69859528901,
    -26.63542356948));
#135 = CARTESIAN_POINT('',(10.104908317704,-83.39757274942,
    -26.64849291394));
#136 = CARTESIAN_POINT('',(10.036391440332,-83.09933660997,
    -26.67457534361));
#137 = CARTESIAN_POINT('',(9.93271447857,-82.80659049588,-26.713721881)
  );
#138 = CARTESIAN_POINT('',(9.79204485157,-82.52289028869,-26.7660023147)
  );
#139 = CARTESIAN_POINT('',(9.611943052705,-82.25333474897,
    -26.83124837668));
#140 = CARTESIAN_POINT('',(9.19733352447,-81.79102022773,-26.97592677543
    ));
#141 = CARTESIAN_POINT('',(8.96830369494,-81.58726804112,-27.05404464675
    ));
#142 = CARTESIAN_POINT('',(8.703095610552,-81.40654041705,
    -27.14177242632));
#143 = CARTESIAN_POINT('',(8.404839181739,-81.25943574266,
    -27.23650619372));
#144 = CARTESIAN_POINT('',(8.079019313481,-81.15488211886,
    -27.33482283256));
#145 = CARTESIAN_POINT('',(7.733111647191,-81.1,-27.43329012084));
#146 = CARTESIAN_POINT('',(7.046884787513,-81.1,-27.61716405371));
#147 = CARTESIAN_POINT('',(6.723297131104,-81.14680135887,-27.6989387785
    ));
#148 = CARTESIAN_POINT('',(6.413518979988,-81.23677374569,
    -27.77246602972));
#149 = CARTESIAN_POINT('',(6.124658494268,-81.36446873295,
    -27.83690875106));
#150 = CARTESIAN_POINT('',(5.862540697692,-81.52273980212,
    -27.89224388753));
#151 = CARTESIAN_POINT('',(5.631098948909,-81.70285743147,
    -27.93889593007));
#152 = CARTESIAN_POINT('',(5.167885136981,-82.14873452573,
    -28.02882958015));
#153 = CARTESIAN_POINT('',(4.952726753715,-82.43076626195,
    -28.06758675686));
#154 = CARTESIAN_POINT('',(4.784341484503,-82.73037220256,
    -28.09628032246));
#155 = CARTESIAN_POINT('',(4.660132903383,-83.04106253877,
    -28.11669937586));
#156 = CARTESIAN_POINT('',(4.578036504331,-83.35829425111,
    -28.12993622131));
#157 = CARTESIAN_POINT('',(4.536871366217,-83.67889574965,
    -28.13657403107));
#158 = CARTESIAN_POINT('',(4.536871366217,-84.,-28.13657403107));
#159 = FACE_BOUND('',#160,.F.);
#160 = EDGE_LOOP('',(#161));
#161 = ORIENTED_EDGE('',*,*,#162,.F.);
#162 = EDGE_CURVE('',#163,#163,#165,.T.);
#163 = VERTEX_POINT('',#164);
#164 = CARTESIAN_POINT('',(-26.63542356948,-84.,-10.13924115869));
#165 = B_SPLINE_CURVE_WITH_KNOTS('',7,(#166,#167,#168,#169,#170,#171,
    #172,#173,#174,#175,#176,#177,#178,#179,#180,#181,#182,#183,#184,
    #185,#186,#187,#188,#189,#190,#191,#192,#193,#194,#195,#196,#197,
    #198,#199,#200,#201,#202,#203,#204,#205,#206,#207,#208,#209,#210,
    #211,#212,#213,#214,#215),.UNSPECIFIED.,.T.,.F.,(8,6,6,6,6,6,6,6,8),
  (0.,0.134425926787,0.250933780579,0.35852289042,0.501103838485,
    0.634937535209,0.750932099227,0.858047211925,1.),.UNSPECIFIED.);
#166 = CARTESIAN_POINT('',(-26.63542356948,-84.,-10.13924115869));
#167 = CARTESIAN_POINT('',(-26.63542356948,-83.69859528901,
    -10.13924115869));
#168 = CARTESIAN_POINT('',(-26.64849291394,-83.39757274942,
    -10.1049083177));
#169 = CARTESIAN_POINT('',(-26.67457534361,-83.09933660997,
    -10.03639144033));
#170 = CARTESIAN_POINT('',(-26.713721881,-82.80659049588,-9.93271447857)
  );
#171 = CARTESIAN_POINT('',(-26.7660023147,-82.52289028869,-9.79204485157
    ));
#172 = CARTESIAN_POINT('',(-26.83124837668,-82.25333474897,
    -9.611943052705));
#173 = CARTESIAN_POINT('',(-26.97592677542,-81.79102022777,
    -9.197333524506));
#174 = CARTESIAN_POINT('',(-27.05404464676,-81.58726804107,
    -8.968303694906));
#175 = CARTESIAN_POINT('',(-27.14177242633,-81.40654041705,
    -8.703095610511));
#176 = CARTESIAN_POINT('',(-27.23650619371,-81.25943574269,
    -8.404839181775));
#177 = CARTESIAN_POINT('',(-27.33482283255,-81.15488211885,
    -8.079019313534));
#178 = CARTESIAN_POINT('',(-27.43329012085,-81.1,-7.733111647138));
#179 = CARTESIAN_POINT('',(-27.61716405371,-81.1,-7.046884787513));
#180 = CARTESIAN_POINT('',(-27.6989387785,-81.14680135887,
    -6.723297131104));
#181 = CARTESIAN_POINT('',(-27.77246602972,-81.23677374569,
    -6.413518979989));
#182 = CARTESIAN_POINT('',(-27.83690875106,-81.36446873295,
    -6.124658494268));
#183 = CARTESIAN_POINT('',(-27.89224388753,-81.52273980212,
    -5.862540697692));
#184 = CARTESIAN_POINT('',(-27.93889593007,-81.70285743147,
    -5.631098948909));
#185 = CARTESIAN_POINT('',(-28.02882958086,-82.14873452926,
    -5.167885133315));
#186 = CARTESIAN_POINT('',(-28.06758675474,-82.43076624725,
    -4.952726764777));
#187 = CARTESIAN_POINT('',(-28.09628032534,-82.73037223025,
    -4.784341469332));
#188 = CARTESIAN_POINT('',(-28.11669937384,-83.04106251009,
    -4.660132914072));
#189 = CARTESIAN_POINT('',(-28.12993622192,-83.35829426756,
    -4.578036501049));
#190 = CARTESIAN_POINT('',(-28.13657403107,-83.67889574527,
    -4.536871366217));
#191 = CARTESIAN_POINT('',(-28.13657403107,-84.30140471098,
    -4.536871366217));
#192 = CARTESIAN_POINT('',(-28.1307259949,-84.60242725057,-4.57313915093
    ));
#193 = CARTESIAN_POINT('',(-28.11905560289,-84.90066339002,
    -4.645517722154));
#194 = CARTESIAN_POINT('',(-28.10111901786,-85.19340950411,
    -4.754877873522));
#195 = CARTESIAN_POINT('',(-28.07606038806,-85.4771097113,
    -4.902841560894));
#196 = CARTESIAN_POINT('',(-28.04251423581,-85.74666525102,
    -5.091437324971));
#197 = CARTESIAN_POINT('',(-27.9605046404,-86.20897977223,
    -5.522838908412));
#198 = CARTESIAN_POINT('',(-27.91364178666,-86.41273195892,
    -5.76024349474));
#199 = CARTESIAN_POINT('',(-27.85701223019,-86.59345958294,-6.0337843229
    ));
#200 = CARTESIAN_POINT('',(-27.78992586497,-86.7405642573,
    -6.339448850716));
#201 = CARTESIAN_POINT('',(-27.7121606377,-86.84511788114,
    -6.670775453091));
#202 = CARTESIAN_POINT('',(-27.62448197762,-86.9,-7.019573923706));
#203 = CARTESIAN_POINT('',(-27.44060804475,-86.9,-7.705800783331));
#204 = CARTESIAN_POINT('',(-27.3496332056,-86.85319864112,
    -8.026923276523));
#205 = CARTESIAN_POINT('',(-27.25842059747,-86.7632262543,
    -8.331962650542));
#206 = CARTESIAN_POINT('',(-27.16979938838,-86.63553126704,
    -8.614344529992));
#207 = CARTESIAN_POINT('',(-27.086662124,-86.47726019787,-8.869012768845
    ));
#208 = CARTESIAN_POINT('',(-27.01134310359,-86.29714256852,
    -9.092773224059));
#209 = CARTESIAN_POINT('',(-26.85762102325,-85.85126547426,
    -9.538894977613));
#210 = CARTESIAN_POINT('',(-26.78360653122,-85.56923373804,
    -9.744606191713));
#211 = CARTESIAN_POINT('',(-26.72426325335,-85.26962779743,
    -9.904778895275));
#212 = CARTESIAN_POINT('',(-26.67984238175,-84.95893746122,
    -10.02255620858));
#213 = CARTESIAN_POINT('',(-26.65025762665,-84.64170574888,
    -10.10027219845));
#214 = CARTESIAN_POINT('',(-26.63542356948,-84.32110425034,
    -10.13924115869));
#215 = CARTESIAN_POINT('',(-26.63542356948,-84.,-10.13924115869));
#216 = FACE_BOUND('',#217,.F.);
#217 = EDGE_LOOP('',(#218));
#218 = ORIENTED_EDGE('',*,*,#219,.F.);
#219 = EDGE_CURVE('',#220,#220,#222,.T.);
#220 = VERTEX_POINT('',#221);
#221 = CARTESIAN_POINT('',(-4.536871366217,-84.,28.136574031079));
#222 = B_SPLINE_CURVE_WITH_KNOTS('',7,(#223,#224,#225,#226,#227,#228,
    #229,#230,#231,#232,#233,#234,#235,#236,#237,#238,#239,#240,#241,
    #242,#243,#244,#245,#246,#247,#248,#249,#250,#251,#252,#253,#254,
    #255,#256,#257,#258,#259,#260,#261,#262,#263,#264,#265,#266,#267,
    #268,#269,#270,#271,#272),.UNSPECIFIED.,.T.,.F.,(8,6,6,6,6,6,6,6,8),
  (0.,0.134425926521,0.250933780084,0.358522889713,0.501103837496,
    0.634937533957,0.750932097747,0.858047210234,1.),.UNSPECIFIED.);
#223 = CARTESIAN_POINT('',(-4.536871366217,-84.,28.136574031079));
#224 = CARTESIAN_POINT('',(-4.536871366217,-84.30140471098,
    28.136574031079));
#225 = CARTESIAN_POINT('',(-4.573139150929,-84.60242725057,28.1307259949
    ));
#226 = CARTESIAN_POINT('',(-4.645517722155,-84.90066339002,
    28.119055602897));
#227 = CARTESIAN_POINT('',(-4.754877873521,-85.19340950411,
    28.101119017864));
#228 = CARTESIAN_POINT('',(-4.902841560894,-85.4771097113,
    28.076060388069));
#229 = CARTESIAN_POINT('',(-5.091437324971,-85.74666525102,
    28.042514235813));
#230 = CARTESIAN_POINT('',(-5.522838908412,-86.20897977223,
    27.960504640401));
#231 = CARTESIAN_POINT('',(-5.76024349474,-86.41273195892,
    27.913641786669));
#232 = CARTESIAN_POINT('',(-6.0337843229,-86.59345958294,27.857012230197
    ));
#233 = CARTESIAN_POINT('',(-6.339448850717,-86.7405642573,
    27.789925864976));
#234 = CARTESIAN_POINT('',(-6.670775453091,-86.84511788114,
    27.712160637705));
#235 = CARTESIAN_POINT('',(-7.019573923706,-86.9,27.62448197762));
#236 = CARTESIAN_POINT('',(-7.705800783331,-86.9,27.440608044759));
#237 = CARTESIAN_POINT('',(-8.026923276523,-86.85319864112,
    27.349633205603));
#238 = CARTESIAN_POINT('',(-8.33196265054,-86.7632262543,27.25842059748)
  );
#239 = CARTESIAN_POINT('',(-8.614344529993,-86.63553126704,
    27.169799388387));
#240 = CARTESIAN_POINT('',(-8.869012768845,-86.47726019787,
    27.086662124001));
#241 = CARTESIAN_POINT('',(-9.092773224059,-86.29714256852,
    27.011343103591));
#242 = CARTESIAN_POINT('',(-9.538894981143,-85.85126547073,
    26.857621022034));
#243 = CARTESIAN_POINT('',(-9.744606181072,-85.56923375274,
    26.783606534921));
#244 = CARTESIAN_POINT('',(-9.904778909855,-85.26962776974,
    26.724263248266));
#245 = CARTESIAN_POINT('',(-10.02255619832,-84.9589374899,
    26.679842385359));
#246 = CARTESIAN_POINT('',(-10.1002722016,-84.64170573243,
    26.650257625549));
#247 = CARTESIAN_POINT('',(-10.13924115869,-84.32110425472,
    26.635423569485));
#248 = CARTESIAN_POINT('',(-10.13924115869,-83.69859528901,
    26.635423569485));
#249 = CARTESIAN_POINT('',(-10.1049083177,-83.39757274942,
    26.648492913948));
#250 = CARTESIAN_POINT('',(-10.03639144033,-83.09933660997,
    26.674575343613));
#251 = CARTESIAN_POINT('',(-9.93271447857,-82.80659049588,
    26.713721881001));
#252 = CARTESIAN_POINT('',(-9.79204485157,-82.52289028869,
    26.766002314701));
#253 = CARTESIAN_POINT('',(-9.611943052705,-82.25333474897,
    26.831248376686));
#254 = CARTESIAN_POINT('',(-9.197333524506,-81.79102022777,
    26.975926775426));
#255 = CARTESIAN_POINT('',(-8.968303694906,-81.58726804107,
    27.054044646764));
#256 = CARTESIAN_POINT('',(-8.703095610511,-81.40654041705,
    27.141772426335));
#257 = CARTESIAN_POINT('',(-8.404839181775,-81.25943574269,
    27.236506193714));
#258 = CARTESIAN_POINT('',(-8.079019313534,-81.15488211885,
    27.334822832553));
#259 = CARTESIAN_POINT('',(-7.733111647138,-81.1,27.433290120857));
#260 = CARTESIAN_POINT('',(-7.046884787512,-81.1,27.617164053718));
#261 = CARTESIAN_POINT('',(-6.723297131105,-81.14680135887,27.6989387785
    ));
#262 = CARTESIAN_POINT('',(-6.413518979987,-81.2367737457,
    27.772466029729));
#263 = CARTESIAN_POINT('',(-6.124658494269,-81.36446873295,
    27.836908751066));
#264 = CARTESIAN_POINT('',(-5.862540697692,-81.52273980212,
    27.892243887533));
#265 = CARTESIAN_POINT('',(-5.631098948909,-81.70285743147,
    27.938895930077));
#266 = CARTESIAN_POINT('',(-5.167885133315,-82.14873452926,
    28.028829580868));
#267 = CARTESIAN_POINT('',(-4.952726764777,-82.43076624725,
    28.067586754745));
#268 = CARTESIAN_POINT('',(-4.784341469332,-82.73037223025,
    28.096280325349));
#269 = CARTESIAN_POINT('',(-4.660132914072,-83.04106251009,
    28.116699373848));
#270 = CARTESIAN_POINT('',(-4.578036501049,-83.35829426756,
    28.129936221927));
#271 = CARTESIAN_POINT('',(-4.536871366217,-83.67889574527,
    28.136574031079));
#272 = CARTESIAN_POINT('',(-4.536871366217,-84.,28.136574031079));
#273 = CYLINDRICAL_SURFACE('',#274,28.5);
#274 = AXIS2_PLACEMENT_3D('',#275,#276,#277);
#275 = CARTESIAN_POINT('',(0.,-80.5,0.));
#276 = DIRECTION('',(-0.,-1.,-0.));
#277 = DIRECTION('',(-0.,-0.,1.));
#278 = ADVANCED_FACE('',(#279,#282,#293,#304,#315),#326,.T.);
#279 = FACE_BOUND('',#280,.F.);
#280 = EDGE_LOOP('',(#281));
#281 = ORIENTED_EDGE('',*,*,#21,.T.);
#282 = FACE_BOUND('',#283,.F.);
#283 = EDGE_LOOP('',(#284));
#284 = ORIENTED_EDGE('',*,*,#285,.F.);
#285 = EDGE_CURVE('',#286,#286,#288,.T.);
#286 = VERTEX_POINT('',#287);
#287 = CARTESIAN_POINT('',(-13.43502884254,-94.,-11.73502884254));
#288 = CIRCLE('',#289,1.7);
#289 = AXIS2_PLACEMENT_3D('',#290,#291,#292);
#290 = CARTESIAN_POINT('',(-13.43502884254,-94.,-13.43502884254));
#291 = DIRECTION('',(0.,1.,0.));
#292 = DIRECTION('',(-0.,-0.,1.));
#293 = FACE_BOUND('',#294,.F.);
#294 = EDGE_LOOP('',(#295));
#295 = ORIENTED_EDGE('',*,*,#296,.F.);
#296 = EDGE_CURVE('',#297,#297,#299,.T.);
#297 = VERTEX_POINT('',#298);
#298 = CARTESIAN_POINT('',(-13.43502884254,-94.,15.135028842544));
#299 = CIRCLE('',#300,1.7);
#300 = AXIS2_PLACEMENT_3D('',#301,#302,#303);
#301 = CARTESIAN_POINT('',(-13.43502884254,-94.,13.435028842544));
#302 = DIRECTION('',(0.,1.,0.));
#303 = DIRECTION('',(-0.,-0.,1.));
#304 = FACE_BOUND('',#305,.F.);
#305 = EDGE_LOOP('',(#306));
#306 = ORIENTED_EDGE('',*,*,#307,.F.);
#307 = EDGE_CURVE('',#308,#308,#310,.T.);
#308 = VERTEX_POINT('',#309);
#309 = CARTESIAN_POINT('',(13.435028842544,-94.,-11.73502884254));
#310 = CIRCLE('',#311,1.7);
#311 = AXIS2_PLACEMENT_3D('',#312,#313,#314);
#312 = CARTESIAN_POINT('',(13.435028842544,-94.,-13.43502884254));
#313 = DIRECTION('',(0.,1.,0.));
#314 = DIRECTION('',(-0.,-0.,1.));
#315 = FACE_BOUND('',#316,.F.);
#316 = EDGE_LOOP('',(#317));
#317 = ORIENTED_EDGE('',*,*,#318,.F.);
#318 = EDGE_CURVE('',#319,#319,#321,.T.);
#319 = VERTEX_POINT('',#320);
#320 = CARTESIAN_POINT('',(13.435028842544,-94.,15.135028842544));
#321 = CIRCLE('',#322,1.7);
#322 = AXIS2_PLACEMENT_3D('',#323,#324,#325);
#323 = CARTESIAN_POINT('',(13.435028842544,-94.,13.435028842544));
#324 = DIRECTION('',(0.,1.,0.));
#325 = DIRECTION('',(-0.,-0.,1.));
#326 = PLANE('',#327);
#327 = AXIS2_PLACEMENT_3D('',#328,#329,#330);
#328 = CARTESIAN_POINT('',(0.,-94.,0.));
#329 = DIRECTION('',(-0.,-1.,-0.));
#330 = DIRECTION('',(0.,0.,-1.));
#331 = ADVANCED_FACE('',(#332,#335),#418,.F.);
#332 = FACE_BOUND('',#333,.T.);
#333 = EDGE_LOOP('',(#334));
#334 = ORIENTED_EDGE('',*,*,#38,.T.);
#335 = FACE_BOUND('',#336,.T.);
#336 = EDGE_LOOP('',(#337,#348,#357,#366,#375,#384,#393,#402,#411));
#337 = ORIENTED_EDGE('',*,*,#338,.F.);
#338 = EDGE_CURVE('',#339,#341,#343,.T.);
#339 = VERTEX_POINT('',#340);
#340 = CARTESIAN_POINT('',(-5.272104470329E-15,-80.5,21.525));
#341 = VERTEX_POINT('',#342);
#342 = CARTESIAN_POINT('',(14.109802069866,-80.5,16.255433262426));
#343 = CIRCLE('',#344,21.525);
#344 = AXIS2_PLACEMENT_3D('',#345,#346,#347);
#345 = CARTESIAN_POINT('',(0.,-80.5,0.));
#346 = DIRECTION('',(0.,1.,0.));
#347 = DIRECTION('',(-0.,-0.,1.));
#348 = ORIENTED_EDGE('',*,*,#349,.F.);
#349 = EDGE_CURVE('',#350,#339,#352,.T.);
#350 = VERTEX_POINT('',#351);
#351 = CARTESIAN_POINT('',(-14.10980206986,-80.5,16.255433262426));
#352 = CIRCLE('',#353,21.525);
#353 = AXIS2_PLACEMENT_3D('',#354,#355,#356);
#354 = CARTESIAN_POINT('',(0.,-80.5,0.));
#355 = DIRECTION('',(0.,1.,0.));
#356 = DIRECTION('',(-0.,-0.,1.));
#357 = ORIENTED_EDGE('',*,*,#358,.F.);
#358 = EDGE_CURVE('',#359,#350,#361,.T.);
#359 = VERTEX_POINT('',#360);
#360 = CARTESIAN_POINT('',(-16.25543326242,-80.5,14.109802069866));
#361 = CIRCLE('',#362,2.9);
#362 = AXIS2_PLACEMENT_3D('',#363,#364,#365);
#363 = CARTESIAN_POINT('',(-13.43502884254,-80.5,13.435028842544));
#364 = DIRECTION('',(0.,1.,0.));
#365 = DIRECTION('',(-0.,-0.,1.));
#366 = ORIENTED_EDGE('',*,*,#367,.F.);
#367 = EDGE_CURVE('',#368,#359,#370,.T.);
#368 = VERTEX_POINT('',#369);
#369 = CARTESIAN_POINT('',(-16.25543326242,-80.5,-14.10980206986));
#370 = CIRCLE('',#371,21.525);
#371 = AXIS2_PLACEMENT_3D('',#372,#373,#374);
#372 = CARTESIAN_POINT('',(0.,-80.5,0.));
#373 = DIRECTION('',(0.,1.,0.));
#374 = DIRECTION('',(-0.,-0.,1.));
#375 = ORIENTED_EDGE('',*,*,#376,.F.);
#376 = EDGE_CURVE('',#377,#368,#379,.T.);
#377 = VERTEX_POINT('',#378);
#378 = CARTESIAN_POINT('',(-14.10980206986,-80.5,-16.25543326242));
#379 = CIRCLE('',#380,2.9);
#380 = AXIS2_PLACEMENT_3D('',#381,#382,#383);
#381 = CARTESIAN_POINT('',(-13.43502884254,-80.5,-13.43502884254));
#382 = DIRECTION('',(0.,1.,0.));
#383 = DIRECTION('',(-0.,-0.,1.));
#384 = ORIENTED_EDGE('',*,*,#385,.F.);
#385 = EDGE_CURVE('',#386,#377,#388,.T.);
#386 = VERTEX_POINT('',#387);
#387 = CARTESIAN_POINT('',(14.109802069866,-80.5,-16.25543326242));
#388 = CIRCLE('',#389,21.525);
#389 = AXIS2_PLACEMENT_3D('',#390,#391,#392);
#390 = CARTESIAN_POINT('',(0.,-80.5,0.));
#391 = DIRECTION('',(0.,1.,0.));
#392 = DIRECTION('',(-0.,-0.,1.));
#393 = ORIENTED_EDGE('',*,*,#394,.F.);
#394 = EDGE_CURVE('',#395,#386,#397,.T.);
#395 = VERTEX_POINT('',#396);
#396 = CARTESIAN_POINT('',(16.255433262426,-80.5,-14.10980206986));
#397 = CIRCLE('',#398,2.9);
#398 = AXIS2_PLACEMENT_3D('',#399,#400,#401);
#399 = CARTESIAN_POINT('',(13.435028842544,-80.5,-13.43502884254));
#400 = DIRECTION('',(0.,1.,0.));
#401 = DIRECTION('',(-0.,-0.,1.));
#402 = ORIENTED_EDGE('',*,*,#403,.F.);
#403 = EDGE_CURVE('',#404,#395,#406,.T.);
#404 = VERTEX_POINT('',#405);
#405 = CARTESIAN_POINT('',(16.255433262426,-80.5,14.109802069866));
#406 = CIRCLE('',#407,21.525);
#407 = AXIS2_PLACEMENT_3D('',#408,#409,#410);
#408 = CARTESIAN_POINT('',(0.,-80.5,0.));
#409 = DIRECTION('',(0.,1.,0.));
#410 = DIRECTION('',(-0.,-0.,1.));
#411 = ORIENTED_EDGE('',*,*,#412,.F.);
#412 = EDGE_CURVE('',#341,#404,#413,.T.);
#413 = CIRCLE('',#414,2.9);
#414 = AXIS2_PLACEMENT_3D('',#415,#416,#417);
#415 = CARTESIAN_POINT('',(13.435028842544,-80.5,13.435028842544));
#416 = DIRECTION('',(0.,1.,0.));
#417 = DIRECTION('',(-0.,-0.,1.));
#418 = PLANE('',#419);
#419 = AXIS2_PLACEMENT_3D('',#420,#421,#422);
#420 = CARTESIAN_POINT('',(0.,-80.5,0.));
#421 = DIRECTION('',(-0.,-1.,-0.));
#422 = DIRECTION('',(0.,0.,-1.));
#423 = ADVANCED_FACE('',(#424),#443,.F.);
#424 = FACE_BOUND('',#425,.T.);
#425 = EDGE_LOOP('',(#426,#427,#435,#442));
#426 = ORIENTED_EDGE('',*,*,#48,.F.);
#427 = ORIENTED_EDGE('',*,*,#428,.F.);
#428 = EDGE_CURVE('',#429,#49,#431,.T.);
#429 = VERTEX_POINT('',#430);
#430 = CARTESIAN_POINT('',(23.687348174316,-84.,9.349306737332));
#431 = LINE('',#432,#433);
#432 = CARTESIAN_POINT('',(23.687348174316,-84.,9.349306737332));
#433 = VECTOR('',#434,1.);
#434 = DIRECTION('',(0.965925826289,2.9722835542E-33,0.258819045103));
#435 = ORIENTED_EDGE('',*,*,#436,.T.);
#436 = EDGE_CURVE('',#429,#429,#437,.T.);
#437 = CIRCLE('',#438,2.9);
#438 = AXIS2_PLACEMENT_3D('',#439,#440,#441);
#439 = CARTESIAN_POINT('',(24.437923405113,-84.,6.548121841094));
#440 = DIRECTION('',(-0.965925826289,-0.,-0.258819045103));
#441 = DIRECTION('',(-0.258819045103,-0.,0.965925826289));
#442 = ORIENTED_EDGE('',*,*,#428,.T.);
#443 = CYLINDRICAL_SURFACE('',#444,2.9);
#444 = AXIS2_PLACEMENT_3D('',#445,#446,#447);
#445 = CARTESIAN_POINT('',(24.437923405113,-84.,6.548121841094));
#446 = DIRECTION('',(0.965925826289,-0.,0.258819045103));
#447 = DIRECTION('',(-0.258819045103,-0.,0.965925826289));
#448 = ADVANCED_FACE('',(#449),#468,.F.);
#449 = FACE_BOUND('',#450,.T.);
#450 = EDGE_LOOP('',(#451,#452,#460,#467));
#451 = ORIENTED_EDGE('',*,*,#105,.F.);
#452 = ORIENTED_EDGE('',*,*,#453,.F.);
#453 = EDGE_CURVE('',#454,#106,#456,.T.);
#454 = VERTEX_POINT('',#455);
#455 = CARTESIAN_POINT('',(3.746936944855,-84.,-25.18849863591));
#456 = LINE('',#457,#458);
#457 = CARTESIAN_POINT('',(3.746936944855,-84.,-25.18849863591));
#458 = VECTOR('',#459,1.);
#459 = DIRECTION('',(0.258819045103,1.229901607214E-32,-0.965925826289)
  );
#460 = ORIENTED_EDGE('',*,*,#461,.T.);
#461 = EDGE_CURVE('',#454,#454,#462,.T.);
#462 = CIRCLE('',#463,2.9);
#463 = AXIS2_PLACEMENT_3D('',#464,#465,#466);
#464 = CARTESIAN_POINT('',(6.548121841094,-84.,-24.43792340511));
#465 = DIRECTION('',(-0.258819045103,0.,0.965925826289));
#466 = DIRECTION('',(-0.965925826289,-0.,-0.258819045103));
#467 = ORIENTED_EDGE('',*,*,#453,.T.);
#468 = CYLINDRICAL_SURFACE('',#469,2.9);
#469 = AXIS2_PLACEMENT_3D('',#470,#471,#472);
#470 = CARTESIAN_POINT('',(6.548121841094,-84.,-24.43792340511));
#471 = DIRECTION('',(0.258819045103,-0.,-0.965925826289));
#472 = DIRECTION('',(-0.965925826289,-0.,-0.258819045103));
#473 = ADVANCED_FACE('',(#474),#493,.F.);
#474 = FACE_BOUND('',#475,.T.);
#475 = EDGE_LOOP('',(#476,#477,#485,#492));
#476 = ORIENTED_EDGE('',*,*,#162,.F.);
#477 = ORIENTED_EDGE('',*,*,#478,.F.);
#478 = EDGE_CURVE('',#479,#163,#481,.T.);
#479 = VERTEX_POINT('',#480);
#480 = CARTESIAN_POINT('',(-23.68734817431,-84.,-9.349306737332));
#481 = LINE('',#482,#483);
#482 = CARTESIAN_POINT('',(-23.68734817431,-84.,-9.349306737332));
#483 = VECTOR('',#484,1.);
#484 = DIRECTION('',(-0.965925826289,2.165207517603E-33,-0.258819045103)
  );
#485 = ORIENTED_EDGE('',*,*,#486,.T.);
#486 = EDGE_CURVE('',#479,#479,#487,.T.);
#487 = CIRCLE('',#488,2.9);
#488 = AXIS2_PLACEMENT_3D('',#489,#490,#491);
#489 = CARTESIAN_POINT('',(-24.43792340511,-84.,-6.548121841094));
#490 = DIRECTION('',(0.965925826289,0.,0.258819045103));
#491 = DIRECTION('',(0.258819045103,-0.,-0.965925826289));
#492 = ORIENTED_EDGE('',*,*,#478,.T.);
#493 = CYLINDRICAL_SURFACE('',#494,2.9);
#494 = AXIS2_PLACEMENT_3D('',#495,#496,#497);
#495 = CARTESIAN_POINT('',(-24.43792340511,-84.,-6.548121841094));
#496 = DIRECTION('',(-0.965925826289,-0.,-0.258819045103));
#497 = DIRECTION('',(0.258819045103,-0.,-0.965925826289));
#498 = ADVANCED_FACE('',(#499),#518,.F.);
#499 = FACE_BOUND('',#500,.T.);
#500 = EDGE_LOOP('',(#501,#502,#510,#517));
#501 = ORIENTED_EDGE('',*,*,#219,.F.);
#502 = ORIENTED_EDGE('',*,*,#503,.F.);
#503 = EDGE_CURVE('',#504,#220,#506,.T.);
#504 = VERTEX_POINT('',#505);
#505 = CARTESIAN_POINT('',(-3.746936944855,-84.,25.188498635911));
#506 = LINE('',#507,#508);
#507 = CARTESIAN_POINT('',(-3.746936944855,-84.,25.188498635911));
#508 = VECTOR('',#509,1.);
#509 = DIRECTION('',(-0.258819045103,6.410849575098E-34,0.965925826289)
  );
#510 = ORIENTED_EDGE('',*,*,#511,.T.);
#511 = EDGE_CURVE('',#504,#504,#512,.T.);
#512 = CIRCLE('',#513,2.9);
#513 = AXIS2_PLACEMENT_3D('',#514,#515,#516);
#514 = CARTESIAN_POINT('',(-6.548121841094,-84.,24.437923405113));
#515 = DIRECTION('',(0.258819045103,0.,-0.965925826289));
#516 = DIRECTION('',(0.965925826289,-0.,0.258819045103));
#517 = ORIENTED_EDGE('',*,*,#503,.T.);
#518 = CYLINDRICAL_SURFACE('',#519,2.9);
#519 = AXIS2_PLACEMENT_3D('',#520,#521,#522);
#520 = CARTESIAN_POINT('',(-6.548121841094,-84.,24.437923405113));
#521 = DIRECTION('',(-0.258819045103,-0.,0.965925826289));
#522 = DIRECTION('',(0.965925826289,-0.,0.258819045103));
#523 = ADVANCED_FACE('',(#524),#543,.F.);
#524 = FACE_BOUND('',#525,.T.);
#525 = EDGE_LOOP('',(#526,#527,#535,#542));
#526 = ORIENTED_EDGE('',*,*,#285,.F.);
#527 = ORIENTED_EDGE('',*,*,#528,.F.);
#528 = EDGE_CURVE('',#529,#286,#531,.T.);
#529 = VERTEX_POINT('',#530);
#530 = CARTESIAN_POINT('',(-13.43502884254,-91.5,-11.73502884254));
#531 = LINE('',#532,#533);
#532 = CARTESIAN_POINT('',(-13.43502884254,-87.4,-11.73502884254));
#533 = VECTOR('',#534,1.);
#534 = DIRECTION('',(-0.,-1.,-0.));
#535 = ORIENTED_EDGE('',*,*,#536,.T.);
#536 = EDGE_CURVE('',#529,#529,#537,.T.);
#537 = CIRCLE('',#538,1.7);
#538 = AXIS2_PLACEMENT_3D('',#539,#540,#541);
#539 = CARTESIAN_POINT('',(-13.43502884254,-91.5,-13.43502884254));
#540 = DIRECTION('',(0.,1.,0.));
#541 = DIRECTION('',(-0.,-0.,1.));
#542 = ORIENTED_EDGE('',*,*,#528,.T.);
#543 = CYLINDRICAL_SURFACE('',#544,1.7);
#544 = AXIS2_PLACEMENT_3D('',#545,#546,#547);
#545 = CARTESIAN_POINT('',(-13.43502884254,-87.4,-13.43502884254));
#546 = DIRECTION('',(-0.,-1.,-0.));
#547 = DIRECTION('',(-0.,-0.,1.));
#548 = ADVANCED_FACE('',(#549),#568,.F.);
#549 = FACE_BOUND('',#550,.T.);
#550 = EDGE_LOOP('',(#551,#552,#560,#567));
#551 = ORIENTED_EDGE('',*,*,#296,.F.);
#552 = ORIENTED_EDGE('',*,*,#553,.F.);
#553 = EDGE_CURVE('',#554,#297,#556,.T.);
#554 = VERTEX_POINT('',#555);
#555 = CARTESIAN_POINT('',(-13.43502884254,-91.5,15.135028842544));
#556 = LINE('',#557,#558);
#557 = CARTESIAN_POINT('',(-13.43502884254,-87.4,15.135028842544));
#558 = VECTOR('',#559,1.);
#559 = DIRECTION('',(-0.,-1.,-0.));
#560 = ORIENTED_EDGE('',*,*,#561,.T.);
#561 = EDGE_CURVE('',#554,#554,#562,.T.);
#562 = CIRCLE('',#563,1.7);
#563 = AXIS2_PLACEMENT_3D('',#564,#565,#566);
#564 = CARTESIAN_POINT('',(-13.43502884254,-91.5,13.435028842544));
#565 = DIRECTION('',(0.,1.,0.));
#566 = DIRECTION('',(-0.,-0.,1.));
#567 = ORIENTED_EDGE('',*,*,#553,.T.);
#568 = CYLINDRICAL_SURFACE('',#569,1.7);
#569 = AXIS2_PLACEMENT_3D('',#570,#571,#572);
#570 = CARTESIAN_POINT('',(-13.43502884254,-87.4,13.435028842544));
#571 = DIRECTION('',(-0.,-1.,-0.));
#572 = DIRECTION('',(-0.,-0.,1.));
#573 = ADVANCED_FACE('',(#574),#593,.F.);
#574 = FACE_BOUND('',#575,.T.);
#575 = EDGE_LOOP('',(#576,#577,#585,#592));
#576 = ORIENTED_EDGE('',*,*,#307,.F.);
#577 = ORIENTED_EDGE('',*,*,#578,.F.);
#578 = EDGE_CURVE('',#579,#308,#581,.T.);
#579 = VERTEX_POINT('',#580);
#580 = CARTESIAN_POINT('',(13.435028842544,-91.5,-11.73502884254));
#581 = LINE('',#582,#583);
#582 = CARTESIAN_POINT('',(13.435028842544,-87.4,-11.73502884254));
#583 = VECTOR('',#584,1.);
#584 = DIRECTION('',(-0.,-1.,-0.));
#585 = ORIENTED_EDGE('',*,*,#586,.T.);
#586 = EDGE_CURVE('',#579,#579,#587,.T.);
#587 = CIRCLE('',#588,1.7);
#588 = AXIS2_PLACEMENT_3D('',#589,#590,#591);
#589 = CARTESIAN_POINT('',(13.435028842544,-91.5,-13.43502884254));
#590 = DIRECTION('',(0.,1.,0.));
#591 = DIRECTION('',(-0.,-0.,1.));
#592 = ORIENTED_EDGE('',*,*,#578,.T.);
#593 = CYLINDRICAL_SURFACE('',#594,1.7);
#594 = AXIS2_PLACEMENT_3D('',#595,#596,#597);
#595 = CARTESIAN_POINT('',(13.435028842544,-87.4,-13.43502884254));
#596 = DIRECTION('',(-0.,-1.,-0.));
#597 = DIRECTION('',(-0.,-0.,1.));
#598 = ADVANCED_FACE('',(#599),#618,.F.);
#599 = FACE_BOUND('',#600,.T.);
#600 = EDGE_LOOP('',(#601,#602,#610,#617));
#601 = ORIENTED_EDGE('',*,*,#318,.F.);
#602 = ORIENTED_EDGE('',*,*,#603,.F.);
#603 = EDGE_CURVE('',#604,#319,#606,.T.);
#604 = VERTEX_POINT('',#605);
#605 = CARTESIAN_POINT('',(13.435028842544,-91.5,15.135028842544));
#606 = LINE('',#607,#608);
#607 = CARTESIAN_POINT('',(13.435028842544,-87.4,15.135028842544));
#608 = VECTOR('',#609,1.);
#609 = DIRECTION('',(-0.,-1.,-0.));
#610 = ORIENTED_EDGE('',*,*,#611,.T.);
#611 = EDGE_CURVE('',#604,#604,#612,.T.);
#612 = CIRCLE('',#613,1.7);
#613 = AXIS2_PLACEMENT_3D('',#614,#615,#616);
#614 = CARTESIAN_POINT('',(13.435028842544,-91.5,13.435028842544));
#615 = DIRECTION('',(0.,1.,0.));
#616 = DIRECTION('',(-0.,-0.,1.));
#617 = ORIENTED_EDGE('',*,*,#603,.T.);
#618 = CYLINDRICAL_SURFACE('',#619,1.7);
#619 = AXIS2_PLACEMENT_3D('',#620,#621,#622);
#620 = CARTESIAN_POINT('',(13.435028842544,-87.4,13.435028842544));
#621 = DIRECTION('',(-0.,-1.,-0.));
#622 = DIRECTION('',(-0.,-0.,1.));
#623 = ADVANCED_FACE('',(#624,#660),#711,.F.);
#624 = FACE_BOUND('',#625,.T.);
#625 = EDGE_LOOP('',(#626,#634,#635,#636,#644,#653));
#626 = ORIENTED_EDGE('',*,*,#627,.F.);
#627 = EDGE_CURVE('',#350,#628,#630,.T.);
#628 = VERTEX_POINT('',#629);
#629 = CARTESIAN_POINT('',(-14.10980206986,-87.5,16.255433262426));
#630 = LINE('',#631,#632);
#631 = CARTESIAN_POINT('',(-14.10980206986,-80.4,16.255433262426));
#632 = VECTOR('',#633,1.);
#633 = DIRECTION('',(-0.,-1.,-0.));
#634 = ORIENTED_EDGE('',*,*,#349,.T.);
#635 = ORIENTED_EDGE('',*,*,#338,.T.);
#636 = ORIENTED_EDGE('',*,*,#637,.T.);
#637 = EDGE_CURVE('',#341,#638,#640,.T.);
#638 = VERTEX_POINT('',#639);
#639 = CARTESIAN_POINT('',(14.109802069866,-87.5,16.255433262426));
#640 = LINE('',#641,#642);
#641 = CARTESIAN_POINT('',(14.109802069866,-80.4,16.255433262426));
#642 = VECTOR('',#643,1.);
#643 = DIRECTION('',(-0.,-1.,-0.));
#644 = ORIENTED_EDGE('',*,*,#645,.F.);
#645 = EDGE_CURVE('',#646,#638,#648,.T.);
#646 = VERTEX_POINT('',#647);
#647 = CARTESIAN_POINT('',(-5.272104470329E-15,-87.5,21.525));
#648 = CIRCLE('',#649,21.525);
#649 = AXIS2_PLACEMENT_3D('',#650,#651,#652);
#650 = CARTESIAN_POINT('',(0.,-87.5,0.));
#651 = DIRECTION('',(0.,1.,0.));
#652 = DIRECTION('',(-0.,-0.,1.));
#653 = ORIENTED_EDGE('',*,*,#654,.F.);
#654 = EDGE_CURVE('',#628,#646,#655,.T.);
#655 = CIRCLE('',#656,21.525);
#656 = AXIS2_PLACEMENT_3D('',#657,#658,#659);
#657 = CARTESIAN_POINT('',(0.,-87.5,0.));
#658 = DIRECTION('',(0.,1.,0.));
#659 = DIRECTION('',(-0.,-0.,1.));
#660 = FACE_BOUND('',#661,.T.);
#661 = EDGE_LOOP('',(#662));
#662 = ORIENTED_EDGE('',*,*,#663,.F.);
#663 = EDGE_CURVE('',#664,#664,#666,.T.);
#664 = VERTEX_POINT('',#665);
#665 = CARTESIAN_POINT('',(-3.91160401821,-84.,21.166600553814));
#666 = B_SPLINE_CURVE_WITH_KNOTS('',7,(#667,#668,#669,#670,#671,#672,
    #673,#674,#675,#676,#677,#678,#679,#680,#681,#682,#683,#684,#685,
    #686,#687,#688,#689,#690,#691,#692,#693,#694,#695,#696,#697,#698,
    #699,#700,#701,#702,#703,#704,#705,#706,#707,#708,#709,#710),
  .UNSPECIFIED.,.T.,.F.,(8,6,6,6,6,6,6,8),(0.,0.152745660851,
    0.285760714038,0.421970875683,0.588690971526,0.714472258828,
    0.837892367667,1.),.UNSPECIFIED.);
#667 = CARTESIAN_POINT('',(-3.91160401821,-84.,21.166600553814));
#668 = CARTESIAN_POINT('',(-3.91160401821,-84.20322676796,
    21.166600553814));
#669 = CARTESIAN_POINT('',(-3.939562090571,-84.40635754488,
    21.161433767013));
#670 = CARTESIAN_POINT('',(-3.995439456405,-84.60690799475,
    21.151108176507));
#671 = CARTESIAN_POINT('',(-4.079983009925,-84.80206112448,
    21.135242341403));
#672 = CARTESIAN_POINT('',(-4.194388814297,-84.98813427331,
    21.113142313285));
#673 = CARTESIAN_POINT('',(-4.339957152382,-85.15999471981,
    21.083721286582));
#674 = CARTESIAN_POINT('',(-4.671769757363,-85.44039014891,
    21.012499769095));
#675 = CARTESIAN_POINT('',(-4.855809628476,-85.55886730399,
    20.971612567572));
#676 = CARTESIAN_POINT('',(-5.065492681701,-85.65172786928,
    20.922879903538));
#677 = CARTESIAN_POINT('',(-5.292925445487,-85.70963640873,
    20.866933478617));
#678 = CARTESIAN_POINT('',(-5.527792260442,-85.72758019149,
    20.805458813564));
#679 = CARTESIAN_POINT('',(-5.759414129106,-85.70510148844,
    20.741425314284));
#680 = CARTESIAN_POINT('',(-6.202590272888,-85.58667580822,
    20.613296068667));
#681 = CARTESIAN_POINT('',(-6.405677626272,-85.49107678092,
    20.551506647112));
#682 = CARTESIAN_POINT('',(-6.584308342833,-85.36790438966,
    20.494717395175));
#683 = CARTESIAN_POINT('',(-6.737188144812,-85.2239483509,
    20.444458923653));
#684 = CARTESIAN_POINT('',(-6.864060205706,-85.06518488254,
    20.401725438704));
#685 = CARTESIAN_POINT('',(-6.965463375602,-84.89691917926,
    20.366998145313));
#686 = CARTESIAN_POINT('',(-7.137080492476,-84.51195872138,
    20.307577341371));
#687 = CARTESIAN_POINT('',(-7.196483731562,-84.29002459045,
    20.28643653805));
#688 = CARTESIAN_POINT('',(-7.222782564447,-84.06301416293,
    20.276946170301));
#689 = CARTESIAN_POINT('',(-7.216581034077,-83.83443871844,
    20.279175781326));
#690 = CARTESIAN_POINT('',(-7.17753960971,-83.60805301142,
    20.293220407192));
#691 = CARTESIAN_POINT('',(-7.104668121867,-83.38822593642,
    20.31901460526));
#692 = CARTESIAN_POINT('',(-6.915212117679,-83.02469215159,
    20.384133236868));
#693 = CARTESIAN_POINT('',(-6.812694820036,-82.87351294817,
    20.418944447886));
#694 = CARTESIAN_POINT('',(-6.688248747208,-82.73158867338,
    20.460474713792));
#695 = CARTESIAN_POINT('',(-6.541643605634,-82.60342516136,
    20.50823346204));
#696 = CARTESIAN_POINT('',(-6.373342694137,-82.49393733932,
    20.561327145751));
#697 = CARTESIAN_POINT('',(-6.18466059581,-82.40853301735,
    20.618479822419));
#698 = CARTESIAN_POINT('',(-5.775956745702,-82.2993190352,
    20.736642581696));
#699 = CARTESIAN_POINT('',(-5.561900979063,-82.275803345,20.796023923292
    ));
#700 = CARTESIAN_POINT('',(-5.343980057112,-82.28691137958,
    20.853533554606));
#701 = CARTESIAN_POINT('',(-5.131064518696,-82.33275726928,
    20.906643938891));
#702 = CARTESIAN_POINT('',(-4.931873968034,-82.4097204446,
    20.953765012501));
#703 = CARTESIAN_POINT('',(-4.753429573502,-82.51060109583,
    20.994171470957));
#704 = CARTESIAN_POINT('',(-4.398214705738,-82.77449774655,
    21.071875815551));
#705 = CARTESIAN_POINT('',(-4.23251262997,-82.95227255365,21.10575876968
    ));
#706 = CARTESIAN_POINT('',(-4.102485968606,-83.14774881629,
    21.131014504611));
#707 = CARTESIAN_POINT('',(-4.00655807391,-83.35440834341,
    21.149054055751));
#708 = CARTESIAN_POINT('',(-3.943271634841,-83.56751986892,
    21.160748085841));
#709 = CARTESIAN_POINT('',(-3.91160401821,-83.78371694638,
    21.166600553814));
#710 = CARTESIAN_POINT('',(-3.91160401821,-84.,21.166600553814));
#711 = CYLINDRICAL_SURFACE('',#712,21.525);
#712 = AXIS2_PLACEMENT_3D('',#713,#714,#715);
#713 = CARTESIAN_POINT('',(0.,-80.4,0.));
#714 = DIRECTION('',(-0.,-1.,-0.));
#715 = DIRECTION('',(-0.,-0.,1.));
#716 = ADVANCED_FACE('',(#717),#761,.F.);
#717 = FACE_BOUND('',#718,.T.);
#718 = EDGE_LOOP('',(#719,#729,#736,#737,#744,#745,#746,#754));
#719 = ORIENTED_EDGE('',*,*,#720,.T.);
#720 = EDGE_CURVE('',#721,#723,#725,.T.);
#721 = VERTEX_POINT('',#722);
#722 = CARTESIAN_POINT('',(13.435028842544,-87.5,16.335028842544));
#723 = VERTEX_POINT('',#724);
#724 = CARTESIAN_POINT('',(13.435028842544,-91.5,16.335028842544));
#725 = LINE('',#726,#727);
#726 = CARTESIAN_POINT('',(13.435028842544,-80.4,16.335028842544));
#727 = VECTOR('',#728,1.);
#728 = DIRECTION('',(-0.,-1.,-0.));
#729 = ORIENTED_EDGE('',*,*,#730,.F.);
#730 = EDGE_CURVE('',#723,#723,#731,.T.);
#731 = CIRCLE('',#732,2.9);
#732 = AXIS2_PLACEMENT_3D('',#733,#734,#735);
#733 = CARTESIAN_POINT('',(13.435028842544,-91.5,13.435028842544));
#734 = DIRECTION('',(0.,1.,0.));
#735 = DIRECTION('',(-0.,-0.,1.));
#736 = ORIENTED_EDGE('',*,*,#720,.F.);
#737 = ORIENTED_EDGE('',*,*,#738,.T.);
#738 = EDGE_CURVE('',#721,#638,#739,.T.);
#739 = CIRCLE('',#740,2.9);
#740 = AXIS2_PLACEMENT_3D('',#741,#742,#743);
#741 = CARTESIAN_POINT('',(13.435028842544,-87.5,13.435028842544));
#742 = DIRECTION('',(0.,1.,0.));
#743 = DIRECTION('',(-0.,-0.,1.));
#744 = ORIENTED_EDGE('',*,*,#637,.F.);
#745 = ORIENTED_EDGE('',*,*,#412,.T.);
#746 = ORIENTED_EDGE('',*,*,#747,.T.);
#747 = EDGE_CURVE('',#404,#748,#750,.T.);
#748 = VERTEX_POINT('',#749);
#749 = CARTESIAN_POINT('',(16.255433262426,-87.5,14.109802069866));
#750 = LINE('',#751,#752);
#751 = CARTESIAN_POINT('',(16.255433262426,-80.4,14.109802069866));
#752 = VECTOR('',#753,1.);
#753 = DIRECTION('',(-0.,-1.,-0.));
#754 = ORIENTED_EDGE('',*,*,#755,.T.);
#755 = EDGE_CURVE('',#748,#721,#756,.T.);
#756 = CIRCLE('',#757,2.9);
#757 = AXIS2_PLACEMENT_3D('',#758,#759,#760);
#758 = CARTESIAN_POINT('',(13.435028842544,-87.5,13.435028842544));
#759 = DIRECTION('',(0.,1.,0.));
#760 = DIRECTION('',(-0.,-0.,1.));
#761 = CYLINDRICAL_SURFACE('',#762,2.9);
#762 = AXIS2_PLACEMENT_3D('',#763,#764,#765);
#763 = CARTESIAN_POINT('',(13.435028842544,-80.4,13.435028842544));
#764 = DIRECTION('',(-0.,-1.,-0.));
#765 = DIRECTION('',(-0.,-0.,1.));
#766 = ADVANCED_FACE('',(#767,#786),#837,.F.);
#767 = FACE_BOUND('',#768,.T.);
#768 = EDGE_LOOP('',(#769,#770,#771,#779));
#769 = ORIENTED_EDGE('',*,*,#747,.F.);
#770 = ORIENTED_EDGE('',*,*,#403,.T.);
#771 = ORIENTED_EDGE('',*,*,#772,.T.);
#772 = EDGE_CURVE('',#395,#773,#775,.T.);
#773 = VERTEX_POINT('',#774);
#774 = CARTESIAN_POINT('',(16.255433262426,-87.5,-14.10980206986));
#775 = LINE('',#776,#777);
#776 = CARTESIAN_POINT('',(16.255433262426,-80.4,-14.10980206986));
#777 = VECTOR('',#778,1.);
#778 = DIRECTION('',(-0.,-1.,-0.));
#779 = ORIENTED_EDGE('',*,*,#780,.F.);
#780 = EDGE_CURVE('',#748,#773,#781,.T.);
#781 = CIRCLE('',#782,21.525);
#782 = AXIS2_PLACEMENT_3D('',#783,#784,#785);
#783 = CARTESIAN_POINT('',(0.,-87.5,0.));
#784 = DIRECTION('',(0.,1.,0.));
#785 = DIRECTION('',(-0.,-0.,1.));
#786 = FACE_BOUND('',#787,.T.);
#787 = EDGE_LOOP('',(#788));
#788 = ORIENTED_EDGE('',*,*,#789,.F.);
#789 = EDGE_CURVE('',#790,#790,#792,.T.);
#790 = VERTEX_POINT('',#791);
#791 = CARTESIAN_POINT('',(20.286615800466,-84.,7.195751827592));
#792 = B_SPLINE_CURVE_WITH_KNOTS('',7,(#793,#794,#795,#796,#797,#798,
    #799,#800,#801,#802,#803,#804,#805,#806,#807,#808,#809,#810,#811,
    #812,#813,#814,#815,#816,#817,#818,#819,#820,#821,#822,#823,#824,
    #825,#826,#827,#828,#829,#830,#831,#832,#833,#834,#835,#836),
  .UNSPECIFIED.,.T.,.F.,(8,6,6,6,6,6,6,8),(0.,0.15274566131,
    0.285760714897,0.421970876951,0.588690970382,0.714472258034,
    0.837892367216,1.),.UNSPECIFIED.);
#793 = CARTESIAN_POINT('',(20.286615800466,-84.,7.195751827592));
#794 = CARTESIAN_POINT('',(20.286615800466,-83.79677323203,
    7.195751827592));
#795 = CARTESIAN_POINT('',(20.296120268021,-83.59364245511,
    7.168956033286));
#796 = CARTESIAN_POINT('',(20.31511672725,-83.39309200524,7.115402019724
    ));
#797 = CARTESIAN_POINT('',(20.343648287758,-83.19793887551,
    7.034252237098));
#798 = CARTESIAN_POINT('',(20.38171200417,-83.01186572668,6.924123890112
    ));
#799 = CARTESIAN_POINT('',(20.429016816682,-82.84000528018,
    6.783347497992));
#800 = CARTESIAN_POINT('',(20.533243475733,-82.55960985108,
    6.460378594039));
#801 = CARTESIAN_POINT('',(20.589854056081,-82.441132696,6.280551789585)
  );
#802 = CARTESIAN_POINT('',(20.652491857645,-82.34827213071,
    6.074594606731));
#803 = CARTESIAN_POINT('',(20.717757214306,-82.29036359126,
    5.849658843179));
#804 = CARTESIAN_POINT('',(20.781952000159,-82.2724198085,5.615520882397
    ));
#805 = CARTESIAN_POINT('',(20.842308297421,-82.29489851155,
    5.382913710421));
#806 = CARTESIAN_POINT('',(20.952933187639,-82.41332419177,
    4.935047288746));
#807 = CARTESIAN_POINT('',(21.00096565558,-82.50892321907,4.728273770751
    ));
#808 = CARTESIAN_POINT('',(21.04110007902,-82.63209561033,4.545180406344
    ));
#809 = CARTESIAN_POINT('',(21.074014866917,-82.7760516491,4.387653378344
    ));
#810 = CARTESIAN_POINT('',(21.100442613806,-82.93481511745,
    4.256412208104));
#811 = CARTESIAN_POINT('',(21.121069480472,-83.10308082073,
    4.151230840255));
#812 = CARTESIAN_POINT('',(21.155418112852,-83.48804127491,
    3.972895657062));
#813 = CARTESIAN_POINT('',(21.166811260649,-83.70997542407,
    3.910880536146));
#814 = CARTESIAN_POINT('',(21.17174177661,-83.9369858109,3.883359899745)
  );
#815 = CARTESIAN_POINT('',(21.17057191088,-84.16556130755,3.889845389719
    ));
#816 = CARTESIAN_POINT('',(21.16321420292,-84.39194697433,3.930678560609
    ));
#817 = CARTESIAN_POINT('',(21.149116888579,-84.61177406714,
    4.006684225569));
#818 = CARTESIAN_POINT('',(21.110783276094,-84.9753078484,4.203317251966
    ));
#819 = CARTESIAN_POINT('',(21.089672020351,-85.12648705182,
    4.309505441561));
#820 = CARTESIAN_POINT('',(21.063415249237,-85.26841132661,
    4.438044034985));
#821 = CARTESIAN_POINT('',(21.031472967686,-85.39657483863,
    4.588887186037));
#822 = CARTESIAN_POINT('',(20.993302990811,-85.50606266067,
    4.761186892729));
#823 = CARTESIAN_POINT('',(20.948457611537,-85.59146698264,
    4.953166721454));
#824 = CARTESIAN_POINT('',(20.846437637798,-85.70068096479,
    5.366196017911));
#825 = CARTESIAN_POINT('',(20.790835504811,-85.724196655,5.581264420444)
  );
#826 = CARTESIAN_POINT('',(20.731679845516,-85.71308862041,
    5.798744290527));
#827 = CARTESIAN_POINT('',(20.671217018303,-85.66724273071,
    6.009689747798));
#828 = CARTESIAN_POINT('',(20.612429789772,-85.59027955539,6.20575436167
    ));
#829 = CARTESIAN_POINT('',(20.558200612007,-85.48939890416,
    6.380494969726));
#830 = CARTESIAN_POINT('',(20.447887114527,-85.22550225344,
    6.726972241308));
#831 = CARTESIAN_POINT('',(20.394379575674,-85.04772744634,
    6.887415925449));
#832 = CARTESIAN_POINT('',(20.351238353034,-84.8522511837,7.012650184822
    ));
#833 = CARTESIAN_POINT('',(20.318897115245,-84.64559165658,
    7.104745954133));
#834 = CARTESIAN_POINT('',(20.297381222842,-84.43248013107,
    7.165400633126));
#835 = CARTESIAN_POINT('',(20.286615800466,-84.21628305361,
    7.195751827592));
#836 = CARTESIAN_POINT('',(20.286615800466,-84.,7.195751827592));
#837 = CYLINDRICAL_SURFACE('',#838,21.525);
#838 = AXIS2_PLACEMENT_3D('',#839,#840,#841);
#839 = CARTESIAN_POINT('',(0.,-80.4,0.));
#840 = DIRECTION('',(-0.,-1.,-0.));
#841 = DIRECTION('',(-0.,-0.,1.));
#842 = ADVANCED_FACE('',(#843),#887,.F.);
#843 = FACE_BOUND('',#844,.T.);
#844 = EDGE_LOOP('',(#845,#855,#862,#863,#870,#871,#872,#880));
#845 = ORIENTED_EDGE('',*,*,#846,.T.);
#846 = EDGE_CURVE('',#847,#849,#851,.T.);
#847 = VERTEX_POINT('',#848);
#848 = CARTESIAN_POINT('',(13.435028842544,-87.5,-10.53502884254));
#849 = VERTEX_POINT('',#850);
#850 = CARTESIAN_POINT('',(13.435028842544,-91.5,-10.53502884254));
#851 = LINE('',#852,#853);
#852 = CARTESIAN_POINT('',(13.435028842544,-80.4,-10.53502884254));
#853 = VECTOR('',#854,1.);
#854 = DIRECTION('',(-0.,-1.,-0.));
#855 = ORIENTED_EDGE('',*,*,#856,.F.);
#856 = EDGE_CURVE('',#849,#849,#857,.T.);
#857 = CIRCLE('',#858,2.9);
#858 = AXIS2_PLACEMENT_3D('',#859,#860,#861);
#859 = CARTESIAN_POINT('',(13.435028842544,-91.5,-13.43502884254));
#860 = DIRECTION('',(0.,1.,0.));
#861 = DIRECTION('',(-0.,-0.,1.));
#862 = ORIENTED_EDGE('',*,*,#846,.F.);
#863 = ORIENTED_EDGE('',*,*,#864,.T.);
#864 = EDGE_CURVE('',#847,#773,#865,.T.);
#865 = CIRCLE('',#866,2.9);
#866 = AXIS2_PLACEMENT_3D('',#867,#868,#869);
#867 = CARTESIAN_POINT('',(13.435028842544,-87.5,-13.43502884254));
#868 = DIRECTION('',(0.,1.,0.));
#869 = DIRECTION('',(-0.,-0.,1.));
#870 = ORIENTED_EDGE('',*,*,#772,.F.);
#871 = ORIENTED_EDGE('',*,*,#394,.T.);
#872 = ORIENTED_EDGE('',*,*,#873,.T.);
#873 = EDGE_CURVE('',#386,#874,#876,.T.);
#874 = VERTEX_POINT('',#875);
#875 = CARTESIAN_POINT('',(14.109802069866,-87.5,-16.25543326242));
#876 = LINE('',#877,#878);
#877 = CARTESIAN_POINT('',(14.109802069866,-80.4,-16.25543326242));
#878 = VECTOR('',#879,1.);
#879 = DIRECTION('',(-0.,-1.,-0.));
#880 = ORIENTED_EDGE('',*,*,#881,.T.);
#881 = EDGE_CURVE('',#874,#847,#882,.T.);
#882 = CIRCLE('',#883,2.9);
#883 = AXIS2_PLACEMENT_3D('',#884,#885,#886);
#884 = CARTESIAN_POINT('',(13.435028842544,-87.5,-13.43502884254));
#885 = DIRECTION('',(0.,1.,0.));
#886 = DIRECTION('',(-0.,-0.,1.));
#887 = CYLINDRICAL_SURFACE('',#888,2.9);
#888 = AXIS2_PLACEMENT_3D('',#889,#890,#891);
#889 = CARTESIAN_POINT('',(13.435028842544,-80.4,-13.43502884254));
#890 = DIRECTION('',(-0.,-1.,-0.));
#891 = DIRECTION('',(-0.,-0.,1.));
#892 = ADVANCED_FACE('',(#893,#912),#963,.F.);
#893 = FACE_BOUND('',#894,.T.);
#894 = EDGE_LOOP('',(#895,#896,#897,#905));
#895 = ORIENTED_EDGE('',*,*,#873,.F.);
#896 = ORIENTED_EDGE('',*,*,#385,.T.);
#897 = ORIENTED_EDGE('',*,*,#898,.T.);
#898 = EDGE_CURVE('',#377,#899,#901,.T.);
#899 = VERTEX_POINT('',#900);
#900 = CARTESIAN_POINT('',(-14.10980206986,-87.5,-16.25543326242));
#901 = LINE('',#902,#903);
#902 = CARTESIAN_POINT('',(-14.10980206986,-80.4,-16.25543326242));
#903 = VECTOR('',#904,1.);
#904 = DIRECTION('',(-0.,-1.,-0.));
#905 = ORIENTED_EDGE('',*,*,#906,.F.);
#906 = EDGE_CURVE('',#874,#899,#907,.T.);
#907 = CIRCLE('',#908,21.525);
#908 = AXIS2_PLACEMENT_3D('',#909,#910,#911);
#909 = CARTESIAN_POINT('',(0.,-87.5,0.));
#910 = DIRECTION('',(0.,1.,0.));
#911 = DIRECTION('',(-0.,-0.,1.));
#912 = FACE_BOUND('',#913,.T.);
#913 = EDGE_LOOP('',(#914));
#914 = ORIENTED_EDGE('',*,*,#915,.F.);
#915 = EDGE_CURVE('',#916,#916,#918,.T.);
#916 = VERTEX_POINT('',#917);
#917 = CARTESIAN_POINT('',(3.91160401821,-84.,-21.16660055381));
#918 = B_SPLINE_CURVE_WITH_KNOTS('',7,(#919,#920,#921,#922,#923,#924,
    #925,#926,#927,#928,#929,#930,#931,#932,#933,#934,#935,#936,#937,
    #938,#939,#940,#941,#942,#943,#944,#945,#946,#947,#948,#949,#950,
    #951,#952,#953,#954,#955,#956,#957,#958,#959,#960,#961,#962),
  .UNSPECIFIED.,.T.,.F.,(8,6,6,6,6,6,6,8),(0.,0.152745660979,
    0.285760714277,0.421970876036,0.588690972019,0.714472259427,
    0.837892367445,1.),.UNSPECIFIED.);
#919 = CARTESIAN_POINT('',(3.91160401821,-84.,-21.16660055381));
#920 = CARTESIAN_POINT('',(3.91160401821,-84.20322676796,-21.16660055381
    ));
#921 = CARTESIAN_POINT('',(3.939562090571,-84.40635754488,
    -21.16143376701));
#922 = CARTESIAN_POINT('',(3.995439456405,-84.60690799475,-21.1511081765
    ));
#923 = CARTESIAN_POINT('',(4.079983009925,-84.80206112448,-21.1352423414
    ));
#924 = CARTESIAN_POINT('',(4.194388814297,-84.98813427331,
    -21.11314231328));
#925 = CARTESIAN_POINT('',(4.339957152383,-85.15999471981,
    -21.08372128658));
#926 = CARTESIAN_POINT('',(4.671769757363,-85.44039014891,
    -21.01249976909));
#927 = CARTESIAN_POINT('',(4.855809628476,-85.55886730399,
    -20.97161256757));
#928 = CARTESIAN_POINT('',(5.065492681702,-85.65172786928,
    -20.92287990353));
#929 = CARTESIAN_POINT('',(5.292925445488,-85.70963640873,
    -20.86693347861));
#930 = CARTESIAN_POINT('',(5.527792260442,-85.72758019149,
    -20.80545881356));
#931 = CARTESIAN_POINT('',(5.759414129106,-85.70510148844,
    -20.74142531428));
#932 = CARTESIAN_POINT('',(6.202590272888,-85.58667580822,
    -20.61329606866));
#933 = CARTESIAN_POINT('',(6.405677626273,-85.49107678092,
    -20.55150664711));
#934 = CARTESIAN_POINT('',(6.584308342832,-85.36790438966,
    -20.49471739517));
#935 = CARTESIAN_POINT('',(6.737188144812,-85.2239483509,-20.44445892365
    ));
#936 = CARTESIAN_POINT('',(6.864060205706,-85.06518488254,-20.4017254387
    ));
#937 = CARTESIAN_POINT('',(6.965463375602,-84.89691917926,
    -20.36699814531));
#938 = CARTESIAN_POINT('',(7.137080492476,-84.51195872138,
    -20.30757734137));
#939 = CARTESIAN_POINT('',(7.196483731562,-84.29002459045,
    -20.28643653805));
#940 = CARTESIAN_POINT('',(7.222782564447,-84.06301416293,-20.2769461703
    ));
#941 = CARTESIAN_POINT('',(7.216581034077,-83.83443871844,
    -20.27917578132));
#942 = CARTESIAN_POINT('',(7.17753960971,-83.60805301142,-20.29322040719
    ));
#943 = CARTESIAN_POINT('',(7.104668121867,-83.38822593642,
    -20.31901460526));
#944 = CARTESIAN_POINT('',(6.915212117679,-83.02469215159,
    -20.38413323686));
#945 = CARTESIAN_POINT('',(6.812694820036,-82.87351294817,
    -20.41894444788));
#946 = CARTESIAN_POINT('',(6.688248747208,-82.73158867338,
    -20.46047471379));
#947 = CARTESIAN_POINT('',(6.541643605634,-82.60342516136,
    -20.50823346204));
#948 = CARTESIAN_POINT('',(6.373342694137,-82.49393733932,
    -20.56132714575));
#949 = CARTESIAN_POINT('',(6.18466059581,-82.40853301735,-20.61847982241
    ));
#950 = CARTESIAN_POINT('',(5.775956747217,-82.2993190356,-20.73664258125
    ));
#951 = CARTESIAN_POINT('',(5.561900973139,-82.27580334462,
    -20.79602392491));
#952 = CARTESIAN_POINT('',(5.343980067623,-82.28691137849,
    -20.85353355185));
#953 = CARTESIAN_POINT('',(5.131064508534,-82.332757272,-20.90664394143)
  );
#954 = CARTESIAN_POINT('',(4.931873973352,-82.40972044215,
    -20.95376501123));
#955 = CARTESIAN_POINT('',(4.753429572271,-82.51060109675,
    -20.99417147122));
#956 = CARTESIAN_POINT('',(4.398214705738,-82.77449774655,
    -21.07187581555));
#957 = CARTESIAN_POINT('',(4.232512629969,-82.95227255365,
    -21.10575876968));
#958 = CARTESIAN_POINT('',(4.102485968606,-83.14774881629,
    -21.13101450461));
#959 = CARTESIAN_POINT('',(4.00655807391,-83.35440834341,-21.14905405575
    ));
#960 = CARTESIAN_POINT('',(3.943271634841,-83.56751986892,
    -21.16074808584));
#961 = CARTESIAN_POINT('',(3.91160401821,-83.78371694638,-21.16660055381
    ));
#962 = CARTESIAN_POINT('',(3.91160401821,-84.,-21.16660055381));
#963 = CYLINDRICAL_SURFACE('',#964,21.525);
#964 = AXIS2_PLACEMENT_3D('',#965,#966,#967);
#965 = CARTESIAN_POINT('',(0.,-80.4,0.));
#966 = DIRECTION('',(-0.,-1.,-0.));
#967 = DIRECTION('',(-0.,-0.,1.));
#968 = ADVANCED_FACE('',(#969),#1013,.F.);
#969 = FACE_BOUND('',#970,.T.);
#970 = EDGE_LOOP('',(#971,#981,#988,#989,#996,#997,#998,#1006));
#971 = ORIENTED_EDGE('',*,*,#972,.T.);
#972 = EDGE_CURVE('',#973,#975,#977,.T.);
#973 = VERTEX_POINT('',#974);
#974 = CARTESIAN_POINT('',(-13.43502884254,-87.5,-10.53502884254));
#975 = VERTEX_POINT('',#976);
#976 = CARTESIAN_POINT('',(-13.43502884254,-91.5,-10.53502884254));
#977 = LINE('',#978,#979);
#978 = CARTESIAN_POINT('',(-13.43502884254,-80.4,-10.53502884254));
#979 = VECTOR('',#980,1.);
#980 = DIRECTION('',(-0.,-1.,-0.));
#981 = ORIENTED_EDGE('',*,*,#982,.F.);
#982 = EDGE_CURVE('',#975,#975,#983,.T.);
#983 = CIRCLE('',#984,2.9);
#984 = AXIS2_PLACEMENT_3D('',#985,#986,#987);
#985 = CARTESIAN_POINT('',(-13.43502884254,-91.5,-13.43502884254));
#986 = DIRECTION('',(0.,1.,0.));
#987 = DIRECTION('',(-0.,-0.,1.));
#988 = ORIENTED_EDGE('',*,*,#972,.F.);
#989 = ORIENTED_EDGE('',*,*,#990,.T.);
#990 = EDGE_CURVE('',#973,#899,#991,.T.);
#991 = CIRCLE('',#992,2.9);
#992 = AXIS2_PLACEMENT_3D('',#993,#994,#995);
#993 = CARTESIAN_POINT('',(-13.43502884254,-87.5,-13.43502884254));
#994 = DIRECTION('',(0.,1.,0.));
#995 = DIRECTION('',(-0.,-0.,1.));
#996 = ORIENTED_EDGE('',*,*,#898,.F.);
#997 = ORIENTED_EDGE('',*,*,#376,.T.);
#998 = ORIENTED_EDGE('',*,*,#999,.T.);
#999 = EDGE_CURVE('',#368,#1000,#1002,.T.);
#1000 = VERTEX_POINT('',#1001);
#1001 = CARTESIAN_POINT('',(-16.25543326242,-87.5,-14.10980206986));
#1002 = LINE('',#1003,#1004);
#1003 = CARTESIAN_POINT('',(-16.25543326242,-80.4,-14.10980206986));
#1004 = VECTOR('',#1005,1.);
#1005 = DIRECTION('',(-0.,-1.,-0.));
#1006 = ORIENTED_EDGE('',*,*,#1007,.T.);
#1007 = EDGE_CURVE('',#1000,#973,#1008,.T.);
#1008 = CIRCLE('',#1009,2.9);
#1009 = AXIS2_PLACEMENT_3D('',#1010,#1011,#1012);
#1010 = CARTESIAN_POINT('',(-13.43502884254,-87.5,-13.43502884254));
#1011 = DIRECTION('',(0.,1.,0.));
#1012 = DIRECTION('',(-0.,-0.,1.));
#1013 = CYLINDRICAL_SURFACE('',#1014,2.9);
#1014 = AXIS2_PLACEMENT_3D('',#1015,#1016,#1017);
#1015 = CARTESIAN_POINT('',(-13.43502884254,-80.4,-13.43502884254));
#1016 = DIRECTION('',(-0.,-1.,-0.));
#1017 = DIRECTION('',(-0.,-0.,1.));
#1018 = ADVANCED_FACE('',(#1019,#1038),#1089,.F.);
#1019 = FACE_BOUND('',#1020,.T.);
#1020 = EDGE_LOOP('',(#1021,#1022,#1023,#1031));
#1021 = ORIENTED_EDGE('',*,*,#999,.F.);
#1022 = ORIENTED_EDGE('',*,*,#367,.T.);
#1023 = ORIENTED_EDGE('',*,*,#1024,.T.);
#1024 = EDGE_CURVE('',#359,#1025,#1027,.T.);
#1025 = VERTEX_POINT('',#1026);
#1026 = CARTESIAN_POINT('',(-16.25543326242,-87.5,14.109802069866));
#1027 = LINE('',#1028,#1029);
#1028 = CARTESIAN_POINT('',(-16.25543326242,-80.4,14.109802069866));
#1029 = VECTOR('',#1030,1.);
#1030 = DIRECTION('',(-0.,-1.,-0.));
#1031 = ORIENTED_EDGE('',*,*,#1032,.F.);
#1032 = EDGE_CURVE('',#1000,#1025,#1033,.T.);
#1033 = CIRCLE('',#1034,21.525);
#1034 = AXIS2_PLACEMENT_3D('',#1035,#1036,#1037);
#1035 = CARTESIAN_POINT('',(0.,-87.5,0.));
#1036 = DIRECTION('',(0.,1.,0.));
#1037 = DIRECTION('',(-0.,-0.,1.));
#1038 = FACE_BOUND('',#1039,.T.);
#1039 = EDGE_LOOP('',(#1040));
#1040 = ORIENTED_EDGE('',*,*,#1041,.F.);
#1041 = EDGE_CURVE('',#1042,#1042,#1044,.T.);
#1042 = VERTEX_POINT('',#1043);
#1043 = CARTESIAN_POINT('',(-20.28661580046,-84.,-7.195751827592));
#1044 = B_SPLINE_CURVE_WITH_KNOTS('',7,(#1045,#1046,#1047,#1048,#1049,
    #1050,#1051,#1052,#1053,#1054,#1055,#1056,#1057,#1058,#1059,#1060,
    #1061,#1062,#1063,#1064,#1065,#1066,#1067,#1068,#1069,#1070,#1071,
    #1072,#1073,#1074,#1075,#1076,#1077,#1078,#1079,#1080,#1081,#1082,
    #1083,#1084,#1085,#1086,#1087,#1088),.UNSPECIFIED.,.T.,.F.,(8,6,6,6,
    6,6,6,8),(0.,0.15274566131,0.285760714897,0.421970876951,
    0.588690970381,0.714472258034,0.837892367216,1.),.UNSPECIFIED.);
#1045 = CARTESIAN_POINT('',(-20.28661580046,-84.,-7.195751827592));
#1046 = CARTESIAN_POINT('',(-20.28661580046,-83.79677323203,
    -7.195751827592));
#1047 = CARTESIAN_POINT('',(-20.29612026802,-83.59364245511,
    -7.168956033286));
#1048 = CARTESIAN_POINT('',(-20.31511672725,-83.39309200524,
    -7.115402019724));
#1049 = CARTESIAN_POINT('',(-20.34364828775,-83.19793887551,
    -7.034252237098));
#1050 = CARTESIAN_POINT('',(-20.38171200417,-83.01186572668,
    -6.924123890112));
#1051 = CARTESIAN_POINT('',(-20.42901681668,-82.84000528018,
    -6.783347497992));
#1052 = CARTESIAN_POINT('',(-20.53324347573,-82.55960985108,
    -6.460378594039));
#1053 = CARTESIAN_POINT('',(-20.58985405608,-82.441132696,
    -6.280551789585));
#1054 = CARTESIAN_POINT('',(-20.65249185764,-82.34827213071,
    -6.074594606731));
#1055 = CARTESIAN_POINT('',(-20.7177572143,-82.29036359126,
    -5.849658843179));
#1056 = CARTESIAN_POINT('',(-20.78195200015,-82.2724198085,
    -5.615520882397));
#1057 = CARTESIAN_POINT('',(-20.84230829742,-82.29489851155,
    -5.382913710421));
#1058 = CARTESIAN_POINT('',(-20.95293318764,-82.41332419177,
    -4.935047288746));
#1059 = CARTESIAN_POINT('',(-21.00096565558,-82.50892321907,
    -4.728273770751));
#1060 = CARTESIAN_POINT('',(-21.04110007902,-82.63209561033,
    -4.545180406344));
#1061 = CARTESIAN_POINT('',(-21.07401486691,-82.77605164909,
    -4.387653378345));
#1062 = CARTESIAN_POINT('',(-21.1004426138,-82.93481511745,
    -4.256412208104));
#1063 = CARTESIAN_POINT('',(-21.12106948047,-83.10308082073,
    -4.151230840255));
#1064 = CARTESIAN_POINT('',(-21.15541811285,-83.48804127491,
    -3.972895657062));
#1065 = CARTESIAN_POINT('',(-21.16681126064,-83.70997542407,
    -3.910880536146));
#1066 = CARTESIAN_POINT('',(-21.17174177661,-83.9369858109,
    -3.883359899744));
#1067 = CARTESIAN_POINT('',(-21.17057191088,-84.16556130755,
    -3.889845389719));
#1068 = CARTESIAN_POINT('',(-21.16321420292,-84.39194697433,
    -3.930678560609));
#1069 = CARTESIAN_POINT('',(-21.14911688857,-84.61177406714,
    -4.006684225569));
#1070 = CARTESIAN_POINT('',(-21.11078327609,-84.9753078484,
    -4.203317251965));
#1071 = CARTESIAN_POINT('',(-21.08967202035,-85.12648705182,
    -4.309505441561));
#1072 = CARTESIAN_POINT('',(-21.06341524923,-85.26841132661,
    -4.438044034984));
#1073 = CARTESIAN_POINT('',(-21.03147296768,-85.39657483863,
    -4.588887186037));
#1074 = CARTESIAN_POINT('',(-20.99330299081,-85.50606266067,
    -4.761186892729));
#1075 = CARTESIAN_POINT('',(-20.94845761153,-85.59146698264,
    -4.953166721454));
#1076 = CARTESIAN_POINT('',(-20.84643763779,-85.70068096479,
    -5.36619601791));
#1077 = CARTESIAN_POINT('',(-20.79083550481,-85.724196655,
    -5.581264420444));
#1078 = CARTESIAN_POINT('',(-20.73167984551,-85.71308862041,
    -5.798744290527));
#1079 = CARTESIAN_POINT('',(-20.6712170183,-85.66724273071,
    -6.009689747798));
#1080 = CARTESIAN_POINT('',(-20.61242978977,-85.59027955539,
    -6.20575436167));
#1081 = CARTESIAN_POINT('',(-20.558200612,-85.48939890416,
    -6.380494969725));
#1082 = CARTESIAN_POINT('',(-20.44788711452,-85.22550225344,
    -6.726972241308));
#1083 = CARTESIAN_POINT('',(-20.39437957567,-85.04772744634,
    -6.887415925449));
#1084 = CARTESIAN_POINT('',(-20.35123835303,-84.8522511837,
    -7.012650184822));
#1085 = CARTESIAN_POINT('',(-20.31889711524,-84.64559165658,
    -7.104745954132));
#1086 = CARTESIAN_POINT('',(-20.29738122284,-84.43248013107,
    -7.165400633126));
#1087 = CARTESIAN_POINT('',(-20.28661580046,-84.21628305361,
    -7.195751827592));
#1088 = CARTESIAN_POINT('',(-20.28661580046,-84.,-7.195751827592));
#1089 = CYLINDRICAL_SURFACE('',#1090,21.525);
#1090 = AXIS2_PLACEMENT_3D('',#1091,#1092,#1093);
#1091 = CARTESIAN_POINT('',(0.,-80.4,0.));
#1092 = DIRECTION('',(-0.,-1.,-0.));
#1093 = DIRECTION('',(-0.,-0.,1.));
#1094 = ADVANCED_FACE('',(#1095),#1132,.F.);
#1095 = FACE_BOUND('',#1096,.T.);
#1096 = EDGE_LOOP('',(#1097,#1107,#1114,#1115,#1122,#1123,#1124,#1125));
#1097 = ORIENTED_EDGE('',*,*,#1098,.T.);
#1098 = EDGE_CURVE('',#1099,#1101,#1103,.T.);
#1099 = VERTEX_POINT('',#1100);
#1100 = CARTESIAN_POINT('',(-13.43502884254,-87.5,16.335028842544));
#1101 = VERTEX_POINT('',#1102);
#1102 = CARTESIAN_POINT('',(-13.43502884254,-91.5,16.335028842544));
#1103 = LINE('',#1104,#1105);
#1104 = CARTESIAN_POINT('',(-13.43502884254,-80.4,16.335028842544));
#1105 = VECTOR('',#1106,1.);
#1106 = DIRECTION('',(-0.,-1.,-0.));
#1107 = ORIENTED_EDGE('',*,*,#1108,.F.);
#1108 = EDGE_CURVE('',#1101,#1101,#1109,.T.);
#1109 = CIRCLE('',#1110,2.9);
#1110 = AXIS2_PLACEMENT_3D('',#1111,#1112,#1113);
#1111 = CARTESIAN_POINT('',(-13.43502884254,-91.5,13.435028842544));
#1112 = DIRECTION('',(0.,1.,0.));
#1113 = DIRECTION('',(-0.,-0.,1.));
#1114 = ORIENTED_EDGE('',*,*,#1098,.F.);
#1115 = ORIENTED_EDGE('',*,*,#1116,.T.);
#1116 = EDGE_CURVE('',#1099,#1025,#1117,.T.);
#1117 = CIRCLE('',#1118,2.9);
#1118 = AXIS2_PLACEMENT_3D('',#1119,#1120,#1121);
#1119 = CARTESIAN_POINT('',(-13.43502884254,-87.5,13.435028842544));
#1120 = DIRECTION('',(0.,1.,0.));
#1121 = DIRECTION('',(-0.,-0.,1.));
#1122 = ORIENTED_EDGE('',*,*,#1024,.F.);
#1123 = ORIENTED_EDGE('',*,*,#358,.T.);
#1124 = ORIENTED_EDGE('',*,*,#627,.T.);
#1125 = ORIENTED_EDGE('',*,*,#1126,.T.);
#1126 = EDGE_CURVE('',#628,#1099,#1127,.T.);
#1127 = CIRCLE('',#1128,2.9);
#1128 = AXIS2_PLACEMENT_3D('',#1129,#1130,#1131);
#1129 = CARTESIAN_POINT('',(-13.43502884254,-87.5,13.435028842544));
#1130 = DIRECTION('',(0.,1.,0.));
#1131 = DIRECTION('',(-0.,-0.,1.));
#1132 = CYLINDRICAL_SURFACE('',#1133,2.9);
#1133 = AXIS2_PLACEMENT_3D('',#1134,#1135,#1136);
#1134 = CARTESIAN_POINT('',(-13.43502884254,-80.4,13.435028842544));
#1135 = DIRECTION('',(-0.,-1.,-0.));
#1136 = DIRECTION('',(-0.,-0.,1.));
#1137 = ADVANCED_FACE('',(#1138,#1141),#1152,.T.);
#1138 = FACE_BOUND('',#1139,.F.);
#1139 = EDGE_LOOP('',(#1140));
#1140 = ORIENTED_EDGE('',*,*,#436,.T.);
#1141 = FACE_BOUND('',#1142,.F.);
#1142 = EDGE_LOOP('',(#1143));
#1143 = ORIENTED_EDGE('',*,*,#1144,.F.);
#1144 = EDGE_CURVE('',#1145,#1145,#1147,.T.);
#1145 = VERTEX_POINT('',#1146);
#1146 = CARTESIAN_POINT('',(23.997931028439,-84.,8.190195745785));
#1147 = CIRCLE('',#1148,1.7);
#1148 = AXIS2_PLACEMENT_3D('',#1149,#1150,#1151);
#1149 = CARTESIAN_POINT('',(24.437923405113,-84.,6.548121841094));
#1150 = DIRECTION('',(-0.965925826289,-0.,-0.258819045103));
#1151 = DIRECTION('',(-0.258819045103,-0.,0.965925826289));
#1152 = PLANE('',#1153);
#1153 = AXIS2_PLACEMENT_3D('',#1154,#1155,#1156);
#1154 = CARTESIAN_POINT('',(24.437923405113,-84.,6.548121841094));
#1155 = DIRECTION('',(0.965925826289,-0.,0.258819045103));
#1156 = DIRECTION('',(0.258819045103,0.,-0.965925826289));
#1157 = ADVANCED_FACE('',(#1158,#1161),#1172,.T.);
#1158 = FACE_BOUND('',#1159,.F.);
#1159 = EDGE_LOOP('',(#1160));
#1160 = ORIENTED_EDGE('',*,*,#461,.T.);
#1161 = FACE_BOUND('',#1162,.F.);
#1162 = EDGE_LOOP('',(#1163));
#1163 = ORIENTED_EDGE('',*,*,#1164,.F.);
#1164 = EDGE_CURVE('',#1165,#1165,#1167,.T.);
#1165 = VERTEX_POINT('',#1166);
#1166 = CARTESIAN_POINT('',(4.906047936402,-84.,-24.87791578178));
#1167 = CIRCLE('',#1168,1.7);
#1168 = AXIS2_PLACEMENT_3D('',#1169,#1170,#1171);
#1169 = CARTESIAN_POINT('',(6.548121841094,-84.,-24.43792340511));
#1170 = DIRECTION('',(-0.258819045103,0.,0.965925826289));
#1171 = DIRECTION('',(-0.965925826289,-0.,-0.258819045103));
#1172 = PLANE('',#1173);
#1173 = AXIS2_PLACEMENT_3D('',#1174,#1175,#1176);
#1174 = CARTESIAN_POINT('',(6.548121841094,-84.,-24.43792340511));
#1175 = DIRECTION('',(0.258819045103,-0.,-0.965925826289));
#1176 = DIRECTION('',(0.965925826289,0.,0.258819045103));
#1177 = ADVANCED_FACE('',(#1178,#1181),#1192,.T.);
#1178 = FACE_BOUND('',#1179,.F.);
#1179 = EDGE_LOOP('',(#1180));
#1180 = ORIENTED_EDGE('',*,*,#486,.T.);
#1181 = FACE_BOUND('',#1182,.F.);
#1182 = EDGE_LOOP('',(#1183));
#1183 = ORIENTED_EDGE('',*,*,#1184,.F.);
#1184 = EDGE_CURVE('',#1185,#1185,#1187,.T.);
#1185 = VERTEX_POINT('',#1186);
#1186 = CARTESIAN_POINT('',(-23.99793102843,-84.,-8.190195745785));
#1187 = CIRCLE('',#1188,1.7);
#1188 = AXIS2_PLACEMENT_3D('',#1189,#1190,#1191);
#1189 = CARTESIAN_POINT('',(-24.43792340511,-84.,-6.548121841094));
#1190 = DIRECTION('',(0.965925826289,0.,0.258819045103));
#1191 = DIRECTION('',(0.258819045103,-0.,-0.965925826289));
#1192 = PLANE('',#1193);
#1193 = AXIS2_PLACEMENT_3D('',#1194,#1195,#1196);
#1194 = CARTESIAN_POINT('',(-24.43792340511,-84.,-6.548121841094));
#1195 = DIRECTION('',(-0.965925826289,-0.,-0.258819045103));
#1196 = DIRECTION('',(-0.258819045103,0.,0.965925826289));
#1197 = ADVANCED_FACE('',(#1198,#1201),#1212,.T.);
#1198 = FACE_BOUND('',#1199,.F.);
#1199 = EDGE_LOOP('',(#1200));
#1200 = ORIENTED_EDGE('',*,*,#511,.T.);
#1201 = FACE_BOUND('',#1202,.F.);
#1202 = EDGE_LOOP('',(#1203));
#1203 = ORIENTED_EDGE('',*,*,#1204,.F.);
#1204 = EDGE_CURVE('',#1205,#1205,#1207,.T.);
#1205 = VERTEX_POINT('',#1206);
#1206 = CARTESIAN_POINT('',(-4.906047936402,-84.,24.877915781788));
#1207 = CIRCLE('',#1208,1.7);
#1208 = AXIS2_PLACEMENT_3D('',#1209,#1210,#1211);
#1209 = CARTESIAN_POINT('',(-6.548121841094,-84.,24.437923405113));
#1210 = DIRECTION('',(0.258819045103,0.,-0.965925826289));
#1211 = DIRECTION('',(0.965925826289,-0.,0.258819045103));
#1212 = PLANE('',#1213);
#1213 = AXIS2_PLACEMENT_3D('',#1214,#1215,#1216);
#1214 = CARTESIAN_POINT('',(-6.548121841094,-84.,24.437923405113));
#1215 = DIRECTION('',(-0.258819045103,-0.,0.965925826289));
#1216 = DIRECTION('',(-0.965925826289,0.,-0.258819045103));
#1217 = ADVANCED_FACE('',(#1218,#1221),#1224,.F.);
#1218 = FACE_BOUND('',#1219,.T.);
#1219 = EDGE_LOOP('',(#1220));
#1220 = ORIENTED_EDGE('',*,*,#982,.T.);
#1221 = FACE_BOUND('',#1222,.T.);
#1222 = EDGE_LOOP('',(#1223));
#1223 = ORIENTED_EDGE('',*,*,#536,.F.);
#1224 = PLANE('',#1225);
#1225 = AXIS2_PLACEMENT_3D('',#1226,#1227,#1228);
#1226 = CARTESIAN_POINT('',(-13.43502884254,-91.5,-13.43502884254));
#1227 = DIRECTION('',(-0.,-1.,-0.));
#1228 = DIRECTION('',(0.,0.,-1.));
#1229 = ADVANCED_FACE('',(#1230,#1233),#1236,.F.);
#1230 = FACE_BOUND('',#1231,.T.);
#1231 = EDGE_LOOP('',(#1232));
#1232 = ORIENTED_EDGE('',*,*,#1108,.T.);
#1233 = FACE_BOUND('',#1234,.T.);
#1234 = EDGE_LOOP('',(#1235));
#1235 = ORIENTED_EDGE('',*,*,#561,.F.);
#1236 = PLANE('',#1237);
#1237 = AXIS2_PLACEMENT_3D('',#1238,#1239,#1240);
#1238 = CARTESIAN_POINT('',(-13.43502884254,-91.5,13.435028842544));
#1239 = DIRECTION('',(-0.,-1.,-0.));
#1240 = DIRECTION('',(0.,0.,-1.));
#1241 = ADVANCED_FACE('',(#1242,#1245),#1248,.F.);
#1242 = FACE_BOUND('',#1243,.T.);
#1243 = EDGE_LOOP('',(#1244));
#1244 = ORIENTED_EDGE('',*,*,#856,.T.);
#1245 = FACE_BOUND('',#1246,.T.);
#1246 = EDGE_LOOP('',(#1247));
#1247 = ORIENTED_EDGE('',*,*,#586,.F.);
#1248 = PLANE('',#1249);
#1249 = AXIS2_PLACEMENT_3D('',#1250,#1251,#1252);
#1250 = CARTESIAN_POINT('',(13.435028842544,-91.5,-13.43502884254));
#1251 = DIRECTION('',(-0.,-1.,-0.));
#1252 = DIRECTION('',(0.,0.,-1.));
#1253 = ADVANCED_FACE('',(#1254,#1257),#1260,.F.);
#1254 = FACE_BOUND('',#1255,.T.);
#1255 = EDGE_LOOP('',(#1256));
#1256 = ORIENTED_EDGE('',*,*,#730,.T.);
#1257 = FACE_BOUND('',#1258,.T.);
#1258 = EDGE_LOOP('',(#1259));
#1259 = ORIENTED_EDGE('',*,*,#611,.F.);
#1260 = PLANE('',#1261);
#1261 = AXIS2_PLACEMENT_3D('',#1262,#1263,#1264);
#1262 = CARTESIAN_POINT('',(13.435028842544,-91.5,13.435028842544));
#1263 = DIRECTION('',(-0.,-1.,-0.));
#1264 = DIRECTION('',(0.,0.,-1.));
#1265 = ADVANCED_FACE('',(#1266),#1281,.F.);
#1266 = FACE_BOUND('',#1267,.T.);
#1267 = EDGE_LOOP('',(#1268,#1269,#1270,#1271,#1272,#1273,#1274,#1275,
    #1276,#1277,#1278,#1279,#1280));
#1268 = ORIENTED_EDGE('',*,*,#755,.F.);
#1269 = ORIENTED_EDGE('',*,*,#780,.T.);
#1270 = ORIENTED_EDGE('',*,*,#864,.F.);
#1271 = ORIENTED_EDGE('',*,*,#881,.F.);
#1272 = ORIENTED_EDGE('',*,*,#906,.T.);
#1273 = ORIENTED_EDGE('',*,*,#990,.F.);
#1274 = ORIENTED_EDGE('',*,*,#1007,.F.);
#1275 = ORIENTED_EDGE('',*,*,#1032,.T.);
#1276 = ORIENTED_EDGE('',*,*,#1116,.F.);
#1277 = ORIENTED_EDGE('',*,*,#1126,.F.);
#1278 = ORIENTED_EDGE('',*,*,#654,.T.);
#1279 = ORIENTED_EDGE('',*,*,#645,.T.);
#1280 = ORIENTED_EDGE('',*,*,#738,.F.);
#1281 = PLANE('',#1282);
#1282 = AXIS2_PLACEMENT_3D('',#1283,#1284,#1285);
#1283 = CARTESIAN_POINT('',(0.,-87.5,0.));
#1284 = DIRECTION('',(-0.,-1.,-0.));
#1285 = DIRECTION('',(0.,0.,-1.));
#1286 = ADVANCED_FACE('',(#1287),#1298,.F.);
#1287 = FACE_BOUND('',#1288,.T.);
#1288 = EDGE_LOOP('',(#1289,#1290,#1296,#1297));
#1289 = ORIENTED_EDGE('',*,*,#1204,.F.);
#1290 = ORIENTED_EDGE('',*,*,#1291,.F.);
#1291 = EDGE_CURVE('',#664,#1205,#1292,.T.);
#1292 = LINE('',#1293,#1294);
#1293 = CARTESIAN_POINT('',(-3.896653660503,-84.,21.11080505926));
#1294 = VECTOR('',#1295,1.);
#1295 = DIRECTION('',(-0.258819045103,6.410849575098E-34,0.965925826289)
  );
#1296 = ORIENTED_EDGE('',*,*,#663,.T.);
#1297 = ORIENTED_EDGE('',*,*,#1291,.T.);
#1298 = CYLINDRICAL_SURFACE('',#1299,1.7);
#1299 = AXIS2_PLACEMENT_3D('',#1300,#1301,#1302);
#1300 = CARTESIAN_POINT('',(-5.538727565194,-84.,20.670812682586));
#1301 = DIRECTION('',(-0.258819045103,-0.,0.965925826289));
#1302 = DIRECTION('',(0.965925826289,-0.,0.258819045103));
#1303 = ADVANCED_FACE('',(#1304),#1315,.F.);
#1304 = FACE_BOUND('',#1305,.T.);
#1305 = EDGE_LOOP('',(#1306,#1307,#1313,#1314));
#1306 = ORIENTED_EDGE('',*,*,#1144,.F.);
#1307 = ORIENTED_EDGE('',*,*,#1308,.F.);
#1308 = EDGE_CURVE('',#790,#1145,#1309,.T.);
#1309 = LINE('',#1310,#1311);
#1310 = CARTESIAN_POINT('',(20.230820305912,-84.,7.180801469885));
#1311 = VECTOR('',#1312,1.);
#1312 = DIRECTION('',(0.965925826289,2.9722835542E-33,0.258819045103));
#1313 = ORIENTED_EDGE('',*,*,#789,.T.);
#1314 = ORIENTED_EDGE('',*,*,#1308,.T.);
#1315 = CYLINDRICAL_SURFACE('',#1316,1.7);
#1316 = AXIS2_PLACEMENT_3D('',#1317,#1318,#1319);
#1317 = CARTESIAN_POINT('',(20.670812682586,-84.,5.538727565194));
#1318 = DIRECTION('',(0.965925826289,-0.,0.258819045103));
#1319 = DIRECTION('',(-0.258819045103,-0.,0.965925826289));
#1320 = ADVANCED_FACE('',(#1321),#1332,.F.);
#1321 = FACE_BOUND('',#1322,.T.);
#1322 = EDGE_LOOP('',(#1323,#1324,#1330,#1331));
#1323 = ORIENTED_EDGE('',*,*,#1164,.F.);
#1324 = ORIENTED_EDGE('',*,*,#1325,.F.);
#1325 = EDGE_CURVE('',#916,#1165,#1326,.T.);
#1326 = LINE('',#1327,#1328);
#1327 = CARTESIAN_POINT('',(3.896653660503,-84.,-21.11080505926));
#1328 = VECTOR('',#1329,1.);
#1329 = DIRECTION('',(0.258819045103,1.229901607214E-32,-0.965925826289)
  );
#1330 = ORIENTED_EDGE('',*,*,#915,.T.);
#1331 = ORIENTED_EDGE('',*,*,#1325,.T.);
#1332 = CYLINDRICAL_SURFACE('',#1333,1.7);
#1333 = AXIS2_PLACEMENT_3D('',#1334,#1335,#1336);
#1334 = CARTESIAN_POINT('',(5.538727565194,-84.,-20.67081268258));
#1335 = DIRECTION('',(0.258819045103,-0.,-0.965925826289));
#1336 = DIRECTION('',(-0.965925826289,-0.,-0.258819045103));
#1337 = ADVANCED_FACE('',(#1338),#1349,.F.);
#1338 = FACE_BOUND('',#1339,.T.);
#1339 = EDGE_LOOP('',(#1340,#1341,#1347,#1348));
#1340 = ORIENTED_EDGE('',*,*,#1184,.F.);
#1341 = ORIENTED_EDGE('',*,*,#1342,.F.);
#1342 = EDGE_CURVE('',#1042,#1185,#1343,.T.);
#1343 = LINE('',#1344,#1345);
#1344 = CARTESIAN_POINT('',(-20.23082030591,-84.,-7.180801469885));
#1345 = VECTOR('',#1346,1.);
#1346 = DIRECTION('',(-0.965925826289,2.165207517603E-33,-0.258819045103
    ));
#1347 = ORIENTED_EDGE('',*,*,#1041,.T.);
#1348 = ORIENTED_EDGE('',*,*,#1342,.T.);
#1349 = CYLINDRICAL_SURFACE('',#1350,1.7);
#1350 = AXIS2_PLACEMENT_3D('',#1351,#1352,#1353);
#1351 = CARTESIAN_POINT('',(-20.67081268258,-84.,-5.538727565194));
#1352 = DIRECTION('',(-0.965925826289,-0.,-0.258819045103));
#1353 = DIRECTION('',(0.258819045103,-0.,-0.965925826289));
#1354 = ( GEOMETRIC_REPRESENTATION_CONTEXT(3) 
GLOBAL_UNCERTAINTY_ASSIGNED_CONTEXT((#1358)) 
GLOBAL_UNIT_ASSIGNED_CONTEXT((#1355,#1356,#1357)) REPRESENTATION_CONTEXT
('Context #1','3D Context with UNIT and UNCERTAINTY') );
#1355 = ( LENGTH_UNIT() NAMED_UNIT(*) SI_UNIT(.MILLI.,.METRE.) );
#1356 = ( NAMED_UNIT(*) PLANE_ANGLE_UNIT() SI_UNIT($,.RADIAN.) );
#1357 = ( NAMED_UNIT(*) SI_UNIT($,.STERADIAN.) SOLID_ANGLE_UNIT() );
#1358 = UNCERTAINTY_MEASURE_WITH_UNIT(LENGTH_MEASURE(1.E-07),#1355,
  'distance_accuracy_value','confusion accuracy');
#1359 = PRODUCT_RELATED_PRODUCT_CATEGORY('part',$,(#7));
ENDSEC;
END-ISO-10303-21;
