ISO-10303-21;
HEADER;
FILE_DESCRIPTION(('FreeCAD Model'),'2;1');
FILE_NAME('Open CASCADE Shape Model','2026-09-22T18:42:03',('FreeCAD'),(
    'FreeCAD'),'Open CASCADE STEP processor 7.8','FreeCAD','Unknown');
FILE_SCHEMA(('AUTOMOTIVE_DESIGN { 1 0 10303 214 1 1 1 1 }'));
ENDSEC;
DATA;
#1 = APPLICATION_PROTOCOL_DEFINITION('international standard',
  'automotive_design',2000,#2);
#2 = APPLICATION_CONTEXT(
  'core data for automotive mechanical design processes');
#3 = SHAPE_DEFINITION_REPRESENTATION(#4,#10);
#4 = PRODUCT_DEFINITION_SHAPE('','',#5);
#5 = PRODUCT_DEFINITION('design','',#6,#9);
#6 = PRODUCT_DEFINITION_FORMATION('','',#7);
#7 = PRODUCT('Open CASCADE STEP translator 7.8 12',
  'Open CASCADE STEP translator 7.8 12','',(#8));
#8 = PRODUCT_CONTEXT('',#2,'mechanical');
#9 = PRODUCT_DEFINITION_CONTEXT('part definition',#2,'design');
#10 = ADVANCED_BREP_SHAPE_REPRESENTATION('',(#11,#15),#1479);
#11 = AXIS2_PLACEMENT_3D('',#12,#13,#14);
#12 = CARTESIAN_POINT('',(0.,0.,0.));
#13 = DIRECTION('',(0.,0.,1.));
#14 = DIRECTION('',(1.,0.,-0.));
#15 = MANIFOLD_SOLID_BREP('',#16);
#16 = CLOSED_SHELL('',(#17,#59,#239,#359,#425,#442,#474,#546,#615,#640,
    #665,#734,#795,#813,#838,#855,#880,#968,#992,#1010,#1035,#1060,#1085
    ,#1103,#1113,#1131,#1161,#1179,#1189,#1207,#1218,#1229,#1247,#1258,
    #1283,#1308,#1319,#1344,#1369,#1387,#1397,#1407,#1425,#1443,#1461));
#17 = ADVANCED_FACE('',(#18),#54,.F.);
#18 = FACE_BOUND('',#19,.F.);
#19 = EDGE_LOOP('',(#20,#31,#39,#48));
#20 = ORIENTED_EDGE('',*,*,#21,.F.);
#21 = EDGE_CURVE('',#22,#24,#26,.T.);
#22 = VERTEX_POINT('',#23);
#23 = CARTESIAN_POINT('',(86.,-53.,35.));
#24 = VERTEX_POINT('',#25);
#25 = CARTESIAN_POINT('',(86.,-58.,30.));
#26 = CIRCLE('',#27,5.);
#27 = AXIS2_PLACEMENT_3D('',#28,#29,#30);
#28 = CARTESIAN_POINT('',(86.,-53.,30.));
#29 = DIRECTION('',(1.,0.,1.110223024625E-16));
#30 = DIRECTION('',(1.110223024625E-16,0.,-1.));
#31 = ORIENTED_EDGE('',*,*,#32,.F.);
#32 = EDGE_CURVE('',#33,#22,#35,.T.);
#33 = VERTEX_POINT('',#34);
#34 = CARTESIAN_POINT('',(83.,-53.,35.));
#35 = LINE('',#36,#37);
#36 = CARTESIAN_POINT('',(79.,-53.,35.));
#37 = VECTOR('',#38,1.);
#38 = DIRECTION('',(1.,0.,1.110223024625E-16));
#39 = ORIENTED_EDGE('',*,*,#40,.T.);
#40 = EDGE_CURVE('',#33,#41,#43,.T.);
#41 = VERTEX_POINT('',#42);
#42 = CARTESIAN_POINT('',(83.,-58.,30.));
#43 = CIRCLE('',#44,5.);
#44 = AXIS2_PLACEMENT_3D('',#45,#46,#47);
#45 = CARTESIAN_POINT('',(83.,-53.,30.));
#46 = DIRECTION('',(1.,0.,1.110223024625E-16));
#47 = DIRECTION('',(1.110223024625E-16,0.,-1.));
#48 = ORIENTED_EDGE('',*,*,#49,.T.);
#49 = EDGE_CURVE('',#41,#24,#50,.T.);
#50 = LINE('',#51,#52);
#51 = CARTESIAN_POINT('',(79.,-58.,30.));
#52 = VECTOR('',#53,1.);
#53 = DIRECTION('',(1.,0.,1.110223024625E-16));
#54 = CYLINDRICAL_SURFACE('',#55,5.);
#55 = AXIS2_PLACEMENT_3D('',#56,#57,#58);
#56 = CARTESIAN_POINT('',(79.,-53.,30.));
#57 = DIRECTION('',(1.,0.,1.110223024625E-16));
#58 = DIRECTION('',(1.110223024625E-16,0.,-1.));
#59 = ADVANCED_FACE('',(#60,#130,#141,#201,#212,#223),#234,.T.);
#60 = FACE_BOUND('',#61,.T.);
#61 = EDGE_LOOP('',(#62,#73,#81,#90,#98,#107,#115,#124));
#62 = ORIENTED_EDGE('',*,*,#63,.T.);
#63 = EDGE_CURVE('',#64,#66,#68,.T.);
#64 = VERTEX_POINT('',#65);
#65 = CARTESIAN_POINT('',(86.,-67.,47.));
#66 = VERTEX_POINT('',#67);
#67 = CARTESIAN_POINT('',(86.,-72.,42.));
#68 = CIRCLE('',#69,5.);
#69 = AXIS2_PLACEMENT_3D('',#70,#71,#72);
#70 = CARTESIAN_POINT('',(86.,-67.,42.));
#71 = DIRECTION('',(1.,-0.,1.110223024625E-16));
#72 = DIRECTION('',(1.110223024625E-16,0.,-1.));
#73 = ORIENTED_EDGE('',*,*,#74,.T.);
#74 = EDGE_CURVE('',#66,#75,#77,.T.);
#75 = VERTEX_POINT('',#76);
#76 = CARTESIAN_POINT('',(86.,-72.,-42.));
#77 = LINE('',#78,#79);
#78 = CARTESIAN_POINT('',(86.,-72.,42.));
#79 = VECTOR('',#80,1.);
#80 = DIRECTION('',(1.110223024625E-16,0.,-1.));
#81 = ORIENTED_EDGE('',*,*,#82,.T.);
#82 = EDGE_CURVE('',#75,#83,#85,.T.);
#83 = VERTEX_POINT('',#84);
#84 = CARTESIAN_POINT('',(86.,-67.,-47.));
#85 = CIRCLE('',#86,5.);
#86 = AXIS2_PLACEMENT_3D('',#87,#88,#89);
#87 = CARTESIAN_POINT('',(86.,-67.,-42.));
#88 = DIRECTION('',(1.,-0.,1.110223024625E-16));
#89 = DIRECTION('',(1.110223024625E-16,0.,-1.));
#90 = ORIENTED_EDGE('',*,*,#91,.T.);
#91 = EDGE_CURVE('',#83,#92,#94,.T.);
#92 = VERTEX_POINT('',#93);
#93 = CARTESIAN_POINT('',(86.,67.,-47.));
#94 = LINE('',#95,#96);
#95 = CARTESIAN_POINT('',(86.,-67.,-47.));
#96 = VECTOR('',#97,1.);
#97 = DIRECTION('',(0.,1.,0.));
#98 = ORIENTED_EDGE('',*,*,#99,.T.);
#99 = EDGE_CURVE('',#92,#100,#102,.T.);
#100 = VERTEX_POINT('',#101);
#101 = CARTESIAN_POINT('',(86.,72.,-42.));
#102 = CIRCLE('',#103,5.);
#103 = AXIS2_PLACEMENT_3D('',#104,#105,#106);
#104 = CARTESIAN_POINT('',(86.,67.,-42.));
#105 = DIRECTION('',(1.,-0.,1.110223024625E-16));
#106 = DIRECTION('',(1.110223024625E-16,0.,-1.));
#107 = ORIENTED_EDGE('',*,*,#108,.F.);
#108 = EDGE_CURVE('',#109,#100,#111,.T.);
#109 = VERTEX_POINT('',#110);
#110 = CARTESIAN_POINT('',(86.,72.,42.));
#111 = LINE('',#112,#113);
#112 = CARTESIAN_POINT('',(86.,72.,42.));
#113 = VECTOR('',#114,1.);
#114 = DIRECTION('',(1.110223024625E-16,0.,-1.));
#115 = ORIENTED_EDGE('',*,*,#116,.T.);
#116 = EDGE_CURVE('',#109,#117,#119,.T.);
#117 = VERTEX_POINT('',#118);
#118 = CARTESIAN_POINT('',(86.,67.,47.));
#119 = CIRCLE('',#120,5.);
#120 = AXIS2_PLACEMENT_3D('',#121,#122,#123);
#121 = CARTESIAN_POINT('',(86.,67.,42.));
#122 = DIRECTION('',(1.,-0.,1.110223024625E-16));
#123 = DIRECTION('',(1.110223024625E-16,0.,-1.));
#124 = ORIENTED_EDGE('',*,*,#125,.F.);
#125 = EDGE_CURVE('',#64,#117,#126,.T.);
#126 = LINE('',#127,#128);
#127 = CARTESIAN_POINT('',(86.,-67.,47.));
#128 = VECTOR('',#129,1.);
#129 = DIRECTION('',(0.,1.,0.));
#130 = FACE_BOUND('',#131,.T.);
#131 = EDGE_LOOP('',(#132));
#132 = ORIENTED_EDGE('',*,*,#133,.F.);
#133 = EDGE_CURVE('',#134,#134,#136,.T.);
#134 = VERTEX_POINT('',#135);
#135 = CARTESIAN_POINT('',(86.,62.,-38.75));
#136 = CIRCLE('',#137,1.25);
#137 = AXIS2_PLACEMENT_3D('',#138,#139,#140);
#138 = CARTESIAN_POINT('',(86.,62.,-40.));
#139 = DIRECTION('',(1.,0.,0.));
#140 = DIRECTION('',(-0.,0.,1.));
#141 = FACE_BOUND('',#142,.T.);
#142 = EDGE_LOOP('',(#143,#144,#152,#161,#169,#178,#186,#195));
#143 = ORIENTED_EDGE('',*,*,#21,.F.);
#144 = ORIENTED_EDGE('',*,*,#145,.T.);
#145 = EDGE_CURVE('',#22,#146,#148,.T.);
#146 = VERTEX_POINT('',#147);
#147 = CARTESIAN_POINT('',(86.,53.,35.));
#148 = LINE('',#149,#150);
#149 = CARTESIAN_POINT('',(86.,-26.5,35.));
#150 = VECTOR('',#151,1.);
#151 = DIRECTION('',(-0.,1.,0.));
#152 = ORIENTED_EDGE('',*,*,#153,.F.);
#153 = EDGE_CURVE('',#154,#146,#156,.T.);
#154 = VERTEX_POINT('',#155);
#155 = CARTESIAN_POINT('',(86.,58.,30.));
#156 = CIRCLE('',#157,5.);
#157 = AXIS2_PLACEMENT_3D('',#158,#159,#160);
#158 = CARTESIAN_POINT('',(86.,53.,30.));
#159 = DIRECTION('',(1.,0.,1.110223024625E-16));
#160 = DIRECTION('',(1.110223024625E-16,0.,-1.));
#161 = ORIENTED_EDGE('',*,*,#162,.F.);
#162 = EDGE_CURVE('',#163,#154,#165,.T.);
#163 = VERTEX_POINT('',#164);
#164 = CARTESIAN_POINT('',(86.,58.,-30.));
#165 = LINE('',#166,#167);
#166 = CARTESIAN_POINT('',(86.,58.,15.));
#167 = VECTOR('',#168,1.);
#168 = DIRECTION('',(-1.110223024625E-16,0.,1.));
#169 = ORIENTED_EDGE('',*,*,#170,.F.);
#170 = EDGE_CURVE('',#171,#163,#173,.T.);
#171 = VERTEX_POINT('',#172);
#172 = CARTESIAN_POINT('',(86.,53.,-35.));
#173 = CIRCLE('',#174,5.);
#174 = AXIS2_PLACEMENT_3D('',#175,#176,#177);
#175 = CARTESIAN_POINT('',(86.,53.,-30.));
#176 = DIRECTION('',(1.,0.,1.110223024625E-16));
#177 = DIRECTION('',(1.110223024625E-16,0.,-1.));
#178 = ORIENTED_EDGE('',*,*,#179,.F.);
#179 = EDGE_CURVE('',#180,#171,#182,.T.);
#180 = VERTEX_POINT('',#181);
#181 = CARTESIAN_POINT('',(86.,-53.,-35.));
#182 = LINE('',#183,#184);
#183 = CARTESIAN_POINT('',(86.,-26.5,-35.));
#184 = VECTOR('',#185,1.);
#185 = DIRECTION('',(-0.,1.,0.));
#186 = ORIENTED_EDGE('',*,*,#187,.F.);
#187 = EDGE_CURVE('',#188,#180,#190,.T.);
#188 = VERTEX_POINT('',#189);
#189 = CARTESIAN_POINT('',(86.,-58.,-30.));
#190 = CIRCLE('',#191,5.);
#191 = AXIS2_PLACEMENT_3D('',#192,#193,#194);
#192 = CARTESIAN_POINT('',(86.,-53.,-30.));
#193 = DIRECTION('',(1.,0.,1.110223024625E-16));
#194 = DIRECTION('',(1.110223024625E-16,0.,-1.));
#195 = ORIENTED_EDGE('',*,*,#196,.T.);
#196 = EDGE_CURVE('',#188,#24,#197,.T.);
#197 = LINE('',#198,#199);
#198 = CARTESIAN_POINT('',(86.,-58.,15.));
#199 = VECTOR('',#200,1.);
#200 = DIRECTION('',(-1.110223024625E-16,0.,1.));
#201 = FACE_BOUND('',#202,.T.);
#202 = EDGE_LOOP('',(#203));
#203 = ORIENTED_EDGE('',*,*,#204,.F.);
#204 = EDGE_CURVE('',#205,#205,#207,.T.);
#205 = VERTEX_POINT('',#206);
#206 = CARTESIAN_POINT('',(86.,62.,42.25));
#207 = CIRCLE('',#208,1.25);
#208 = AXIS2_PLACEMENT_3D('',#209,#210,#211);
#209 = CARTESIAN_POINT('',(86.,62.,41.));
#210 = DIRECTION('',(1.,0.,0.));
#211 = DIRECTION('',(-0.,0.,1.));
#212 = FACE_BOUND('',#213,.T.);
#213 = EDGE_LOOP('',(#214));
#214 = ORIENTED_EDGE('',*,*,#215,.F.);
#215 = EDGE_CURVE('',#216,#216,#218,.T.);
#216 = VERTEX_POINT('',#217);
#217 = CARTESIAN_POINT('',(86.,-62.,-38.75));
#218 = CIRCLE('',#219,1.25);
#219 = AXIS2_PLACEMENT_3D('',#220,#221,#222);
#220 = CARTESIAN_POINT('',(86.,-62.,-40.));
#221 = DIRECTION('',(1.,0.,0.));
#222 = DIRECTION('',(-0.,0.,1.));
#223 = FACE_BOUND('',#224,.T.);
#224 = EDGE_LOOP('',(#225));
#225 = ORIENTED_EDGE('',*,*,#226,.F.);
#226 = EDGE_CURVE('',#227,#227,#229,.T.);
#227 = VERTEX_POINT('',#228);
#228 = CARTESIAN_POINT('',(86.,-62.,42.25));
#229 = CIRCLE('',#230,1.25);
#230 = AXIS2_PLACEMENT_3D('',#231,#232,#233);
#231 = CARTESIAN_POINT('',(86.,-62.,41.));
#232 = DIRECTION('',(1.,0.,0.));
#233 = DIRECTION('',(-0.,0.,1.));
#234 = PLANE('',#235);
#235 = AXIS2_PLACEMENT_3D('',#236,#237,#238);
#236 = CARTESIAN_POINT('',(86.,-1.947283091167E-15,0.));
#237 = DIRECTION('',(1.,0.,0.));
#238 = DIRECTION('',(-0.,0.,1.));
#239 = ADVANCED_FACE('',(#240),#354,.T.);
#240 = FACE_BOUND('',#241,.T.);
#241 = EDGE_LOOP('',(#242,#250,#258,#266,#274,#282,#290,#298,#306,#314,
    #322,#330,#338,#346,#352,#353));
#242 = ORIENTED_EDGE('',*,*,#243,.F.);
#243 = EDGE_CURVE('',#244,#188,#246,.T.);
#244 = VERTEX_POINT('',#245);
#245 = CARTESIAN_POINT('',(83.,-58.,-30.));
#246 = LINE('',#247,#248);
#247 = CARTESIAN_POINT('',(79.,-58.,-30.));
#248 = VECTOR('',#249,1.);
#249 = DIRECTION('',(1.,0.,1.110223024625E-16));
#250 = ORIENTED_EDGE('',*,*,#251,.F.);
#251 = EDGE_CURVE('',#252,#244,#254,.T.);
#252 = VERTEX_POINT('',#253);
#253 = CARTESIAN_POINT('',(83.,-58.,-37.));
#254 = LINE('',#255,#256);
#255 = CARTESIAN_POINT('',(83.,-58.,-47.));
#256 = VECTOR('',#257,1.);
#257 = DIRECTION('',(0.,0.,1.));
#258 = ORIENTED_EDGE('',*,*,#259,.F.);
#259 = EDGE_CURVE('',#260,#252,#262,.T.);
#260 = VERTEX_POINT('',#261);
#261 = CARTESIAN_POINT('',(80.,-58.,-37.));
#262 = LINE('',#263,#264);
#263 = CARTESIAN_POINT('',(80.,-58.,-37.));
#264 = VECTOR('',#265,1.);
#265 = DIRECTION('',(1.,0.,0.));
#266 = ORIENTED_EDGE('',*,*,#267,.T.);
#267 = EDGE_CURVE('',#260,#268,#270,.T.);
#268 = VERTEX_POINT('',#269);
#269 = CARTESIAN_POINT('',(80.,-58.,-43.));
#270 = LINE('',#271,#272);
#271 = CARTESIAN_POINT('',(80.,-58.,-20.));
#272 = VECTOR('',#273,1.);
#273 = DIRECTION('',(0.,0.,-1.));
#274 = ORIENTED_EDGE('',*,*,#275,.T.);
#275 = EDGE_CURVE('',#268,#276,#278,.T.);
#276 = VERTEX_POINT('',#277);
#277 = CARTESIAN_POINT('',(83.,-58.,-43.));
#278 = LINE('',#279,#280);
#279 = CARTESIAN_POINT('',(80.,-58.,-43.));
#280 = VECTOR('',#281,1.);
#281 = DIRECTION('',(1.,0.,0.));
#282 = ORIENTED_EDGE('',*,*,#283,.F.);
#283 = EDGE_CURVE('',#284,#276,#286,.T.);
#284 = VERTEX_POINT('',#285);
#285 = CARTESIAN_POINT('',(83.,-58.,-47.));
#286 = LINE('',#287,#288);
#287 = CARTESIAN_POINT('',(83.,-58.,-47.));
#288 = VECTOR('',#289,1.);
#289 = DIRECTION('',(0.,0.,1.));
#290 = ORIENTED_EDGE('',*,*,#291,.F.);
#291 = EDGE_CURVE('',#292,#284,#294,.T.);
#292 = VERTEX_POINT('',#293);
#293 = CARTESIAN_POINT('',(78.,-58.,-47.));
#294 = LINE('',#295,#296);
#295 = CARTESIAN_POINT('',(78.,-58.,-47.));
#296 = VECTOR('',#297,1.);
#297 = DIRECTION('',(1.,0.,-0.));
#298 = ORIENTED_EDGE('',*,*,#299,.T.);
#299 = EDGE_CURVE('',#292,#300,#302,.T.);
#300 = VERTEX_POINT('',#301);
#301 = CARTESIAN_POINT('',(78.,-58.,47.));
#302 = LINE('',#303,#304);
#303 = CARTESIAN_POINT('',(78.,-58.,-47.));
#304 = VECTOR('',#305,1.);
#305 = DIRECTION('',(0.,0.,1.));
#306 = ORIENTED_EDGE('',*,*,#307,.T.);
#307 = EDGE_CURVE('',#300,#308,#310,.T.);
#308 = VERTEX_POINT('',#309);
#309 = CARTESIAN_POINT('',(83.,-58.,47.));
#310 = LINE('',#311,#312);
#311 = CARTESIAN_POINT('',(78.,-58.,47.));
#312 = VECTOR('',#313,1.);
#313 = DIRECTION('',(1.,0.,-0.));
#314 = ORIENTED_EDGE('',*,*,#315,.F.);
#315 = EDGE_CURVE('',#316,#308,#318,.T.);
#316 = VERTEX_POINT('',#317);
#317 = CARTESIAN_POINT('',(83.,-58.,44.));
#318 = LINE('',#319,#320);
#319 = CARTESIAN_POINT('',(83.,-58.,-47.));
#320 = VECTOR('',#321,1.);
#321 = DIRECTION('',(0.,0.,1.));
#322 = ORIENTED_EDGE('',*,*,#323,.F.);
#323 = EDGE_CURVE('',#324,#316,#326,.T.);
#324 = VERTEX_POINT('',#325);
#325 = CARTESIAN_POINT('',(80.,-58.,44.));
#326 = LINE('',#327,#328);
#327 = CARTESIAN_POINT('',(80.,-58.,44.));
#328 = VECTOR('',#329,1.);
#329 = DIRECTION('',(1.,0.,0.));
#330 = ORIENTED_EDGE('',*,*,#331,.T.);
#331 = EDGE_CURVE('',#324,#332,#334,.T.);
#332 = VERTEX_POINT('',#333);
#333 = CARTESIAN_POINT('',(80.,-58.,38.));
#334 = LINE('',#335,#336);
#335 = CARTESIAN_POINT('',(80.,-58.,20.5));
#336 = VECTOR('',#337,1.);
#337 = DIRECTION('',(0.,0.,-1.));
#338 = ORIENTED_EDGE('',*,*,#339,.T.);
#339 = EDGE_CURVE('',#332,#340,#342,.T.);
#340 = VERTEX_POINT('',#341);
#341 = CARTESIAN_POINT('',(83.,-58.,38.));
#342 = LINE('',#343,#344);
#343 = CARTESIAN_POINT('',(80.,-58.,38.));
#344 = VECTOR('',#345,1.);
#345 = DIRECTION('',(1.,0.,0.));
#346 = ORIENTED_EDGE('',*,*,#347,.F.);
#347 = EDGE_CURVE('',#41,#340,#348,.T.);
#348 = LINE('',#349,#350);
#349 = CARTESIAN_POINT('',(83.,-58.,-47.));
#350 = VECTOR('',#351,1.);
#351 = DIRECTION('',(0.,0.,1.));
#352 = ORIENTED_EDGE('',*,*,#49,.T.);
#353 = ORIENTED_EDGE('',*,*,#196,.F.);
#354 = PLANE('',#355);
#355 = AXIS2_PLACEMENT_3D('',#356,#357,#358);
#356 = CARTESIAN_POINT('',(81.5,-58.,0.));
#357 = DIRECTION('',(0.,1.,0.));
#358 = DIRECTION('',(0.,-0.,1.));
#359 = ADVANCED_FACE('',(#360),#420,.T.);
#360 = FACE_BOUND('',#361,.T.);
#361 = EDGE_LOOP('',(#362,#370,#371,#372,#379,#380,#388,#396,#405,#413)
  );
#362 = ORIENTED_EDGE('',*,*,#363,.T.);
#363 = EDGE_CURVE('',#364,#33,#366,.T.);
#364 = VERTEX_POINT('',#365);
#365 = CARTESIAN_POINT('',(83.,53.,35.));
#366 = LINE('',#367,#368);
#367 = CARTESIAN_POINT('',(83.,-26.5,35.));
#368 = VECTOR('',#369,1.);
#369 = DIRECTION('',(0.,-1.,0.));
#370 = ORIENTED_EDGE('',*,*,#40,.T.);
#371 = ORIENTED_EDGE('',*,*,#347,.T.);
#372 = ORIENTED_EDGE('',*,*,#373,.T.);
#373 = EDGE_CURVE('',#340,#316,#374,.T.);
#374 = CIRCLE('',#375,5.);
#375 = AXIS2_PLACEMENT_3D('',#376,#377,#378);
#376 = CARTESIAN_POINT('',(83.,-62.,41.));
#377 = DIRECTION('',(1.,0.,0.));
#378 = DIRECTION('',(-0.,0.,1.));
#379 = ORIENTED_EDGE('',*,*,#315,.T.);
#380 = ORIENTED_EDGE('',*,*,#381,.T.);
#381 = EDGE_CURVE('',#308,#382,#384,.T.);
#382 = VERTEX_POINT('',#383);
#383 = CARTESIAN_POINT('',(83.,58.,47.));
#384 = LINE('',#385,#386);
#385 = CARTESIAN_POINT('',(83.,-67.,47.));
#386 = VECTOR('',#387,1.);
#387 = DIRECTION('',(0.,1.,0.));
#388 = ORIENTED_EDGE('',*,*,#389,.F.);
#389 = EDGE_CURVE('',#390,#382,#392,.T.);
#390 = VERTEX_POINT('',#391);
#391 = CARTESIAN_POINT('',(83.,58.,44.));
#392 = LINE('',#393,#394);
#393 = CARTESIAN_POINT('',(83.,58.,-47.));
#394 = VECTOR('',#395,1.);
#395 = DIRECTION('',(0.,0.,1.));
#396 = ORIENTED_EDGE('',*,*,#397,.T.);
#397 = EDGE_CURVE('',#390,#398,#400,.T.);
#398 = VERTEX_POINT('',#399);
#399 = CARTESIAN_POINT('',(83.,58.,38.));
#400 = CIRCLE('',#401,5.);
#401 = AXIS2_PLACEMENT_3D('',#402,#403,#404);
#402 = CARTESIAN_POINT('',(83.,62.,41.));
#403 = DIRECTION('',(1.,0.,0.));
#404 = DIRECTION('',(-0.,0.,1.));
#405 = ORIENTED_EDGE('',*,*,#406,.F.);
#406 = EDGE_CURVE('',#407,#398,#409,.T.);
#407 = VERTEX_POINT('',#408);
#408 = CARTESIAN_POINT('',(83.,58.,30.));
#409 = LINE('',#410,#411);
#410 = CARTESIAN_POINT('',(83.,58.,-47.));
#411 = VECTOR('',#412,1.);
#412 = DIRECTION('',(0.,0.,1.));
#413 = ORIENTED_EDGE('',*,*,#414,.T.);
#414 = EDGE_CURVE('',#407,#364,#415,.T.);
#415 = CIRCLE('',#416,5.);
#416 = AXIS2_PLACEMENT_3D('',#417,#418,#419);
#417 = CARTESIAN_POINT('',(83.,53.,30.));
#418 = DIRECTION('',(1.,0.,1.110223024625E-16));
#419 = DIRECTION('',(1.110223024625E-16,0.,-1.));
#420 = PLANE('',#421);
#421 = AXIS2_PLACEMENT_3D('',#422,#423,#424);
#422 = CARTESIAN_POINT('',(83.,0.,9.736415455836E-16));
#423 = DIRECTION('',(-1.,-0.,-1.110223024625E-16));
#424 = DIRECTION('',(-1.110223024625E-16,0.,1.));
#425 = ADVANCED_FACE('',(#426),#437,.T.);
#426 = FACE_BOUND('',#427,.T.);
#427 = EDGE_LOOP('',(#428,#429,#430,#436));
#428 = ORIENTED_EDGE('',*,*,#32,.F.);
#429 = ORIENTED_EDGE('',*,*,#363,.F.);
#430 = ORIENTED_EDGE('',*,*,#431,.T.);
#431 = EDGE_CURVE('',#364,#146,#432,.T.);
#432 = LINE('',#433,#434);
#433 = CARTESIAN_POINT('',(79.,53.,35.));
#434 = VECTOR('',#435,1.);
#435 = DIRECTION('',(1.,0.,1.110223024625E-16));
#436 = ORIENTED_EDGE('',*,*,#145,.F.);
#437 = PLANE('',#438);
#438 = AXIS2_PLACEMENT_3D('',#439,#440,#441);
#439 = CARTESIAN_POINT('',(79.,-53.,35.));
#440 = DIRECTION('',(1.110223024625E-16,0.,-1.));
#441 = DIRECTION('',(1.,0.,1.110223024625E-16));
#442 = ADVANCED_FACE('',(#443),#469,.T.);
#443 = FACE_BOUND('',#444,.T.);
#444 = EDGE_LOOP('',(#445,#446,#454,#463));
#445 = ORIENTED_EDGE('',*,*,#63,.F.);
#446 = ORIENTED_EDGE('',*,*,#447,.F.);
#447 = EDGE_CURVE('',#448,#64,#450,.T.);
#448 = VERTEX_POINT('',#449);
#449 = CARTESIAN_POINT('',(83.,-67.,47.));
#450 = LINE('',#451,#452);
#451 = CARTESIAN_POINT('',(83.,-67.,47.));
#452 = VECTOR('',#453,1.);
#453 = DIRECTION('',(1.,0.,1.110223024625E-16));
#454 = ORIENTED_EDGE('',*,*,#455,.T.);
#455 = EDGE_CURVE('',#448,#456,#458,.T.);
#456 = VERTEX_POINT('',#457);
#457 = CARTESIAN_POINT('',(83.,-72.,42.));
#458 = CIRCLE('',#459,5.);
#459 = AXIS2_PLACEMENT_3D('',#460,#461,#462);
#460 = CARTESIAN_POINT('',(83.,-67.,42.));
#461 = DIRECTION('',(1.,-0.,1.110223024625E-16));
#462 = DIRECTION('',(1.110223024625E-16,0.,-1.));
#463 = ORIENTED_EDGE('',*,*,#464,.T.);
#464 = EDGE_CURVE('',#456,#66,#465,.T.);
#465 = LINE('',#466,#467);
#466 = CARTESIAN_POINT('',(83.,-72.,42.));
#467 = VECTOR('',#468,1.);
#468 = DIRECTION('',(1.,0.,1.110223024625E-16));
#469 = CYLINDRICAL_SURFACE('',#470,5.);
#470 = AXIS2_PLACEMENT_3D('',#471,#472,#473);
#471 = CARTESIAN_POINT('',(83.,-67.,42.));
#472 = DIRECTION('',(1.,0.,1.110223024625E-16));
#473 = DIRECTION('',(1.110223024625E-16,0.,-1.));
#474 = ADVANCED_FACE('',(#475),#541,.T.);
#475 = FACE_BOUND('',#476,.T.);
#476 = EDGE_LOOP('',(#477,#478,#479,#487,#495,#503,#511,#517,#518,#519,
    #527,#535));
#477 = ORIENTED_EDGE('',*,*,#447,.T.);
#478 = ORIENTED_EDGE('',*,*,#125,.T.);
#479 = ORIENTED_EDGE('',*,*,#480,.F.);
#480 = EDGE_CURVE('',#481,#117,#483,.T.);
#481 = VERTEX_POINT('',#482);
#482 = CARTESIAN_POINT('',(83.,67.,47.));
#483 = LINE('',#484,#485);
#484 = CARTESIAN_POINT('',(83.,67.,47.));
#485 = VECTOR('',#486,1.);
#486 = DIRECTION('',(1.,0.,1.110223024625E-16));
#487 = ORIENTED_EDGE('',*,*,#488,.T.);
#488 = EDGE_CURVE('',#481,#489,#491,.T.);
#489 = VERTEX_POINT('',#490);
#490 = CARTESIAN_POINT('',(83.,72.,47.));
#491 = LINE('',#492,#493);
#492 = CARTESIAN_POINT('',(83.,58.,47.));
#493 = VECTOR('',#494,1.);
#494 = DIRECTION('',(-0.,1.,0.));
#495 = ORIENTED_EDGE('',*,*,#496,.F.);
#496 = EDGE_CURVE('',#497,#489,#499,.T.);
#497 = VERTEX_POINT('',#498);
#498 = CARTESIAN_POINT('',(78.,72.,47.));
#499 = LINE('',#500,#501);
#500 = CARTESIAN_POINT('',(78.,72.,47.));
#501 = VECTOR('',#502,1.);
#502 = DIRECTION('',(1.,0.,-0.));
#503 = ORIENTED_EDGE('',*,*,#504,.F.);
#504 = EDGE_CURVE('',#505,#497,#507,.T.);
#505 = VERTEX_POINT('',#506);
#506 = CARTESIAN_POINT('',(78.,58.,47.));
#507 = LINE('',#508,#509);
#508 = CARTESIAN_POINT('',(78.,58.,47.));
#509 = VECTOR('',#510,1.);
#510 = DIRECTION('',(-0.,1.,0.));
#511 = ORIENTED_EDGE('',*,*,#512,.T.);
#512 = EDGE_CURVE('',#505,#382,#513,.T.);
#513 = LINE('',#514,#515);
#514 = CARTESIAN_POINT('',(78.,58.,47.));
#515 = VECTOR('',#516,1.);
#516 = DIRECTION('',(1.,0.,-0.));
#517 = ORIENTED_EDGE('',*,*,#381,.F.);
#518 = ORIENTED_EDGE('',*,*,#307,.F.);
#519 = ORIENTED_EDGE('',*,*,#520,.F.);
#520 = EDGE_CURVE('',#521,#300,#523,.T.);
#521 = VERTEX_POINT('',#522);
#522 = CARTESIAN_POINT('',(78.,-72.,47.));
#523 = LINE('',#524,#525);
#524 = CARTESIAN_POINT('',(78.,-72.,47.));
#525 = VECTOR('',#526,1.);
#526 = DIRECTION('',(-0.,1.,0.));
#527 = ORIENTED_EDGE('',*,*,#528,.T.);
#528 = EDGE_CURVE('',#521,#529,#531,.T.);
#529 = VERTEX_POINT('',#530);
#530 = CARTESIAN_POINT('',(83.,-72.,47.));
#531 = LINE('',#532,#533);
#532 = CARTESIAN_POINT('',(78.,-72.,47.));
#533 = VECTOR('',#534,1.);
#534 = DIRECTION('',(1.,0.,-0.));
#535 = ORIENTED_EDGE('',*,*,#536,.T.);
#536 = EDGE_CURVE('',#529,#448,#537,.T.);
#537 = LINE('',#538,#539);
#538 = CARTESIAN_POINT('',(83.,-72.,47.));
#539 = VECTOR('',#540,1.);
#540 = DIRECTION('',(-0.,1.,0.));
#541 = PLANE('',#542);
#542 = AXIS2_PLACEMENT_3D('',#543,#544,#545);
#543 = CARTESIAN_POINT('',(83.703821656051,0.,47.));
#544 = DIRECTION('',(0.,0.,1.));
#545 = DIRECTION('',(1.,0.,-0.));
#546 = ADVANCED_FACE('',(#547,#588,#599),#610,.T.);
#547 = FACE_BOUND('',#548,.T.);
#548 = EDGE_LOOP('',(#549,#557,#558,#559,#565,#566,#574,#582));
#549 = ORIENTED_EDGE('',*,*,#550,.T.);
#550 = EDGE_CURVE('',#551,#75,#553,.T.);
#551 = VERTEX_POINT('',#552);
#552 = CARTESIAN_POINT('',(83.,-72.,-42.));
#553 = LINE('',#554,#555);
#554 = CARTESIAN_POINT('',(83.,-72.,-42.));
#555 = VECTOR('',#556,1.);
#556 = DIRECTION('',(1.,0.,1.110223024625E-16));
#557 = ORIENTED_EDGE('',*,*,#74,.F.);
#558 = ORIENTED_EDGE('',*,*,#464,.F.);
#559 = ORIENTED_EDGE('',*,*,#560,.T.);
#560 = EDGE_CURVE('',#456,#529,#561,.T.);
#561 = LINE('',#562,#563);
#562 = CARTESIAN_POINT('',(83.,-72.,-47.));
#563 = VECTOR('',#564,1.);
#564 = DIRECTION('',(0.,0.,1.));
#565 = ORIENTED_EDGE('',*,*,#528,.F.);
#566 = ORIENTED_EDGE('',*,*,#567,.F.);
#567 = EDGE_CURVE('',#568,#521,#570,.T.);
#568 = VERTEX_POINT('',#569);
#569 = CARTESIAN_POINT('',(78.,-72.,-47.));
#570 = LINE('',#571,#572);
#571 = CARTESIAN_POINT('',(78.,-72.,-47.));
#572 = VECTOR('',#573,1.);
#573 = DIRECTION('',(0.,0.,1.));
#574 = ORIENTED_EDGE('',*,*,#575,.T.);
#575 = EDGE_CURVE('',#568,#576,#578,.T.);
#576 = VERTEX_POINT('',#577);
#577 = CARTESIAN_POINT('',(83.,-72.,-47.));
#578 = LINE('',#579,#580);
#579 = CARTESIAN_POINT('',(78.,-72.,-47.));
#580 = VECTOR('',#581,1.);
#581 = DIRECTION('',(1.,0.,-0.));
#582 = ORIENTED_EDGE('',*,*,#583,.T.);
#583 = EDGE_CURVE('',#576,#551,#584,.T.);
#584 = LINE('',#585,#586);
#585 = CARTESIAN_POINT('',(83.,-72.,-47.));
#586 = VECTOR('',#587,1.);
#587 = DIRECTION('',(0.,0.,1.));
#588 = FACE_BOUND('',#589,.T.);
#589 = EDGE_LOOP('',(#590));
#590 = ORIENTED_EDGE('',*,*,#591,.T.);
#591 = EDGE_CURVE('',#592,#592,#594,.T.);
#592 = VERTEX_POINT('',#593);
#593 = CARTESIAN_POINT('',(82.,-72.,26.25));
#594 = CIRCLE('',#595,1.25);
#595 = AXIS2_PLACEMENT_3D('',#596,#597,#598);
#596 = CARTESIAN_POINT('',(82.,-72.,25.));
#597 = DIRECTION('',(0.,1.,0.));
#598 = DIRECTION('',(0.,-0.,1.));
#599 = FACE_BOUND('',#600,.T.);
#600 = EDGE_LOOP('',(#601));
#601 = ORIENTED_EDGE('',*,*,#602,.T.);
#602 = EDGE_CURVE('',#603,#603,#605,.T.);
#603 = VERTEX_POINT('',#604);
#604 = CARTESIAN_POINT('',(82.,-72.,-23.75));
#605 = CIRCLE('',#606,1.25);
#606 = AXIS2_PLACEMENT_3D('',#607,#608,#609);
#607 = CARTESIAN_POINT('',(82.,-72.,-25.));
#608 = DIRECTION('',(0.,1.,0.));
#609 = DIRECTION('',(0.,-0.,1.));
#610 = PLANE('',#611);
#611 = AXIS2_PLACEMENT_3D('',#612,#613,#614);
#612 = CARTESIAN_POINT('',(81.852941176471,-72.,0.));
#613 = DIRECTION('',(-0.,-1.,-0.));
#614 = DIRECTION('',(0.,0.,-1.));
#615 = ADVANCED_FACE('',(#616),#635,.T.);
#616 = FACE_BOUND('',#617,.T.);
#617 = EDGE_LOOP('',(#618,#619,#627,#634));
#618 = ORIENTED_EDGE('',*,*,#116,.F.);
#619 = ORIENTED_EDGE('',*,*,#620,.F.);
#620 = EDGE_CURVE('',#621,#109,#623,.T.);
#621 = VERTEX_POINT('',#622);
#622 = CARTESIAN_POINT('',(83.,72.,42.));
#623 = LINE('',#624,#625);
#624 = CARTESIAN_POINT('',(83.,72.,42.));
#625 = VECTOR('',#626,1.);
#626 = DIRECTION('',(1.,0.,1.110223024625E-16));
#627 = ORIENTED_EDGE('',*,*,#628,.T.);
#628 = EDGE_CURVE('',#621,#481,#629,.T.);
#629 = CIRCLE('',#630,5.);
#630 = AXIS2_PLACEMENT_3D('',#631,#632,#633);
#631 = CARTESIAN_POINT('',(83.,67.,42.));
#632 = DIRECTION('',(1.,-0.,1.110223024625E-16));
#633 = DIRECTION('',(1.110223024625E-16,0.,-1.));
#634 = ORIENTED_EDGE('',*,*,#480,.T.);
#635 = CYLINDRICAL_SURFACE('',#636,5.);
#636 = AXIS2_PLACEMENT_3D('',#637,#638,#639);
#637 = CARTESIAN_POINT('',(83.,67.,42.));
#638 = DIRECTION('',(1.,0.,1.110223024625E-16));
#639 = DIRECTION('',(1.110223024625E-16,0.,-1.));
#640 = ADVANCED_FACE('',(#641),#660,.T.);
#641 = FACE_BOUND('',#642,.T.);
#642 = EDGE_LOOP('',(#643,#644,#645,#654));
#643 = ORIENTED_EDGE('',*,*,#82,.F.);
#644 = ORIENTED_EDGE('',*,*,#550,.F.);
#645 = ORIENTED_EDGE('',*,*,#646,.T.);
#646 = EDGE_CURVE('',#551,#647,#649,.T.);
#647 = VERTEX_POINT('',#648);
#648 = CARTESIAN_POINT('',(83.,-67.,-47.));
#649 = CIRCLE('',#650,5.);
#650 = AXIS2_PLACEMENT_3D('',#651,#652,#653);
#651 = CARTESIAN_POINT('',(83.,-67.,-42.));
#652 = DIRECTION('',(1.,-0.,1.110223024625E-16));
#653 = DIRECTION('',(1.110223024625E-16,0.,-1.));
#654 = ORIENTED_EDGE('',*,*,#655,.T.);
#655 = EDGE_CURVE('',#647,#83,#656,.T.);
#656 = LINE('',#657,#658);
#657 = CARTESIAN_POINT('',(83.,-67.,-47.));
#658 = VECTOR('',#659,1.);
#659 = DIRECTION('',(1.,0.,1.110223024625E-16));
#660 = CYLINDRICAL_SURFACE('',#661,5.);
#661 = AXIS2_PLACEMENT_3D('',#662,#663,#664);
#662 = CARTESIAN_POINT('',(83.,-67.,-42.));
#663 = DIRECTION('',(1.,0.,1.110223024625E-16));
#664 = DIRECTION('',(1.110223024625E-16,0.,-1.));
#665 = ADVANCED_FACE('',(#666,#707,#718),#729,.T.);
#666 = FACE_BOUND('',#667,.T.);
#667 = EDGE_LOOP('',(#668,#676,#684,#692,#698,#699,#705,#706));
#668 = ORIENTED_EDGE('',*,*,#669,.F.);
#669 = EDGE_CURVE('',#670,#100,#672,.T.);
#670 = VERTEX_POINT('',#671);
#671 = CARTESIAN_POINT('',(83.,72.,-42.));
#672 = LINE('',#673,#674);
#673 = CARTESIAN_POINT('',(83.,72.,-42.));
#674 = VECTOR('',#675,1.);
#675 = DIRECTION('',(1.,0.,1.110223024625E-16));
#676 = ORIENTED_EDGE('',*,*,#677,.F.);
#677 = EDGE_CURVE('',#678,#670,#680,.T.);
#678 = VERTEX_POINT('',#679);
#679 = CARTESIAN_POINT('',(83.,72.,-47.));
#680 = LINE('',#681,#682);
#681 = CARTESIAN_POINT('',(83.,72.,-47.));
#682 = VECTOR('',#683,1.);
#683 = DIRECTION('',(0.,0.,1.));
#684 = ORIENTED_EDGE('',*,*,#685,.F.);
#685 = EDGE_CURVE('',#686,#678,#688,.T.);
#686 = VERTEX_POINT('',#687);
#687 = CARTESIAN_POINT('',(78.,72.,-47.));
#688 = LINE('',#689,#690);
#689 = CARTESIAN_POINT('',(78.,72.,-47.));
#690 = VECTOR('',#691,1.);
#691 = DIRECTION('',(1.,0.,-0.));
#692 = ORIENTED_EDGE('',*,*,#693,.T.);
#693 = EDGE_CURVE('',#686,#497,#694,.T.);
#694 = LINE('',#695,#696);
#695 = CARTESIAN_POINT('',(78.,72.,-47.));
#696 = VECTOR('',#697,1.);
#697 = DIRECTION('',(0.,0.,1.));
#698 = ORIENTED_EDGE('',*,*,#496,.T.);
#699 = ORIENTED_EDGE('',*,*,#700,.F.);
#700 = EDGE_CURVE('',#621,#489,#701,.T.);
#701 = LINE('',#702,#703);
#702 = CARTESIAN_POINT('',(83.,72.,-47.));
#703 = VECTOR('',#704,1.);
#704 = DIRECTION('',(0.,0.,1.));
#705 = ORIENTED_EDGE('',*,*,#620,.T.);
#706 = ORIENTED_EDGE('',*,*,#108,.T.);
#707 = FACE_BOUND('',#708,.T.);
#708 = EDGE_LOOP('',(#709));
#709 = ORIENTED_EDGE('',*,*,#710,.T.);
#710 = EDGE_CURVE('',#711,#711,#713,.T.);
#711 = VERTEX_POINT('',#712);
#712 = CARTESIAN_POINT('',(82.,72.,-26.25));
#713 = CIRCLE('',#714,1.25);
#714 = AXIS2_PLACEMENT_3D('',#715,#716,#717);
#715 = CARTESIAN_POINT('',(82.,72.,-25.));
#716 = DIRECTION('',(0.,-1.,0.));
#717 = DIRECTION('',(0.,-0.,-1.));
#718 = FACE_BOUND('',#719,.T.);
#719 = EDGE_LOOP('',(#720));
#720 = ORIENTED_EDGE('',*,*,#721,.T.);
#721 = EDGE_CURVE('',#722,#722,#724,.T.);
#722 = VERTEX_POINT('',#723);
#723 = CARTESIAN_POINT('',(82.,72.,23.75));
#724 = CIRCLE('',#725,1.25);
#725 = AXIS2_PLACEMENT_3D('',#726,#727,#728);
#726 = CARTESIAN_POINT('',(82.,72.,25.));
#727 = DIRECTION('',(0.,-1.,0.));
#728 = DIRECTION('',(0.,-0.,-1.));
#729 = PLANE('',#730);
#730 = AXIS2_PLACEMENT_3D('',#731,#732,#733);
#731 = CARTESIAN_POINT('',(81.852941176471,72.,0.));
#732 = DIRECTION('',(0.,1.,0.));
#733 = DIRECTION('',(0.,-0.,1.));
#734 = ADVANCED_FACE('',(#735),#790,.T.);
#735 = FACE_BOUND('',#736,.T.);
#736 = EDGE_LOOP('',(#737,#738,#744,#745,#751,#752,#760,#768,#774,#775,
    #783,#789));
#737 = ORIENTED_EDGE('',*,*,#655,.F.);
#738 = ORIENTED_EDGE('',*,*,#739,.F.);
#739 = EDGE_CURVE('',#576,#647,#740,.T.);
#740 = LINE('',#741,#742);
#741 = CARTESIAN_POINT('',(83.,-72.,-47.));
#742 = VECTOR('',#743,1.);
#743 = DIRECTION('',(-0.,1.,0.));
#744 = ORIENTED_EDGE('',*,*,#575,.F.);
#745 = ORIENTED_EDGE('',*,*,#746,.T.);
#746 = EDGE_CURVE('',#568,#292,#747,.T.);
#747 = LINE('',#748,#749);
#748 = CARTESIAN_POINT('',(78.,-72.,-47.));
#749 = VECTOR('',#750,1.);
#750 = DIRECTION('',(-0.,1.,0.));
#751 = ORIENTED_EDGE('',*,*,#291,.T.);
#752 = ORIENTED_EDGE('',*,*,#753,.T.);
#753 = EDGE_CURVE('',#284,#754,#756,.T.);
#754 = VERTEX_POINT('',#755);
#755 = CARTESIAN_POINT('',(83.,58.,-47.));
#756 = LINE('',#757,#758);
#757 = CARTESIAN_POINT('',(83.,-67.,-47.));
#758 = VECTOR('',#759,1.);
#759 = DIRECTION('',(0.,1.,0.));
#760 = ORIENTED_EDGE('',*,*,#761,.F.);
#761 = EDGE_CURVE('',#762,#754,#764,.T.);
#762 = VERTEX_POINT('',#763);
#763 = CARTESIAN_POINT('',(78.,58.,-47.));
#764 = LINE('',#765,#766);
#765 = CARTESIAN_POINT('',(78.,58.,-47.));
#766 = VECTOR('',#767,1.);
#767 = DIRECTION('',(1.,0.,-0.));
#768 = ORIENTED_EDGE('',*,*,#769,.T.);
#769 = EDGE_CURVE('',#762,#686,#770,.T.);
#770 = LINE('',#771,#772);
#771 = CARTESIAN_POINT('',(78.,58.,-47.));
#772 = VECTOR('',#773,1.);
#773 = DIRECTION('',(-0.,1.,0.));
#774 = ORIENTED_EDGE('',*,*,#685,.T.);
#775 = ORIENTED_EDGE('',*,*,#776,.F.);
#776 = EDGE_CURVE('',#777,#678,#779,.T.);
#777 = VERTEX_POINT('',#778);
#778 = CARTESIAN_POINT('',(83.,67.,-47.));
#779 = LINE('',#780,#781);
#780 = CARTESIAN_POINT('',(83.,58.,-47.));
#781 = VECTOR('',#782,1.);
#782 = DIRECTION('',(-0.,1.,0.));
#783 = ORIENTED_EDGE('',*,*,#784,.T.);
#784 = EDGE_CURVE('',#777,#92,#785,.T.);
#785 = LINE('',#786,#787);
#786 = CARTESIAN_POINT('',(83.,67.,-47.));
#787 = VECTOR('',#788,1.);
#788 = DIRECTION('',(1.,0.,1.110223024625E-16));
#789 = ORIENTED_EDGE('',*,*,#91,.F.);
#790 = PLANE('',#791);
#791 = AXIS2_PLACEMENT_3D('',#792,#793,#794);
#792 = CARTESIAN_POINT('',(83.703821656051,0.,-47.));
#793 = DIRECTION('',(-0.,-0.,-1.));
#794 = DIRECTION('',(-1.,0.,0.));
#795 = ADVANCED_FACE('',(#796),#808,.T.);
#796 = FACE_BOUND('',#797,.T.);
#797 = EDGE_LOOP('',(#798,#799,#800,#807));
#798 = ORIENTED_EDGE('',*,*,#99,.F.);
#799 = ORIENTED_EDGE('',*,*,#784,.F.);
#800 = ORIENTED_EDGE('',*,*,#801,.T.);
#801 = EDGE_CURVE('',#777,#670,#802,.T.);
#802 = CIRCLE('',#803,5.);
#803 = AXIS2_PLACEMENT_3D('',#804,#805,#806);
#804 = CARTESIAN_POINT('',(83.,67.,-42.));
#805 = DIRECTION('',(1.,-0.,1.110223024625E-16));
#806 = DIRECTION('',(1.110223024625E-16,0.,-1.));
#807 = ORIENTED_EDGE('',*,*,#669,.T.);
#808 = CYLINDRICAL_SURFACE('',#809,5.);
#809 = AXIS2_PLACEMENT_3D('',#810,#811,#812);
#810 = CARTESIAN_POINT('',(83.,67.,-42.));
#811 = DIRECTION('',(1.,0.,1.110223024625E-16));
#812 = DIRECTION('',(1.110223024625E-16,0.,-1.));
#813 = ADVANCED_FACE('',(#814),#833,.F.);
#814 = FACE_BOUND('',#815,.F.);
#815 = EDGE_LOOP('',(#816,#817,#825,#832));
#816 = ORIENTED_EDGE('',*,*,#133,.F.);
#817 = ORIENTED_EDGE('',*,*,#818,.F.);
#818 = EDGE_CURVE('',#819,#134,#821,.T.);
#819 = VERTEX_POINT('',#820);
#820 = CARTESIAN_POINT('',(78.,62.,-38.75));
#821 = LINE('',#822,#823);
#822 = CARTESIAN_POINT('',(77.9,62.,-38.75));
#823 = VECTOR('',#824,1.);
#824 = DIRECTION('',(1.,0.,0.));
#825 = ORIENTED_EDGE('',*,*,#826,.T.);
#826 = EDGE_CURVE('',#819,#819,#827,.T.);
#827 = CIRCLE('',#828,1.25);
#828 = AXIS2_PLACEMENT_3D('',#829,#830,#831);
#829 = CARTESIAN_POINT('',(78.,62.,-40.));
#830 = DIRECTION('',(1.,0.,0.));
#831 = DIRECTION('',(-0.,0.,1.));
#832 = ORIENTED_EDGE('',*,*,#818,.T.);
#833 = CYLINDRICAL_SURFACE('',#834,1.25);
#834 = AXIS2_PLACEMENT_3D('',#835,#836,#837);
#835 = CARTESIAN_POINT('',(77.9,62.,-40.));
#836 = DIRECTION('',(1.,0.,0.));
#837 = DIRECTION('',(-0.,0.,1.));
#838 = ADVANCED_FACE('',(#839),#850,.F.);
#839 = FACE_BOUND('',#840,.F.);
#840 = EDGE_LOOP('',(#841,#842,#848,#849));
#841 = ORIENTED_EDGE('',*,*,#153,.F.);
#842 = ORIENTED_EDGE('',*,*,#843,.F.);
#843 = EDGE_CURVE('',#407,#154,#844,.T.);
#844 = LINE('',#845,#846);
#845 = CARTESIAN_POINT('',(79.,58.,30.));
#846 = VECTOR('',#847,1.);
#847 = DIRECTION('',(1.,0.,1.110223024625E-16));
#848 = ORIENTED_EDGE('',*,*,#414,.T.);
#849 = ORIENTED_EDGE('',*,*,#431,.T.);
#850 = CYLINDRICAL_SURFACE('',#851,5.);
#851 = AXIS2_PLACEMENT_3D('',#852,#853,#854);
#852 = CARTESIAN_POINT('',(79.,53.,30.));
#853 = DIRECTION('',(1.,0.,1.110223024625E-16));
#854 = DIRECTION('',(1.110223024625E-16,0.,-1.));
#855 = ADVANCED_FACE('',(#856),#875,.F.);
#856 = FACE_BOUND('',#857,.F.);
#857 = EDGE_LOOP('',(#858,#859,#860,#869));
#858 = ORIENTED_EDGE('',*,*,#187,.F.);
#859 = ORIENTED_EDGE('',*,*,#243,.F.);
#860 = ORIENTED_EDGE('',*,*,#861,.T.);
#861 = EDGE_CURVE('',#244,#862,#864,.T.);
#862 = VERTEX_POINT('',#863);
#863 = CARTESIAN_POINT('',(83.,-53.,-35.));
#864 = CIRCLE('',#865,5.);
#865 = AXIS2_PLACEMENT_3D('',#866,#867,#868);
#866 = CARTESIAN_POINT('',(83.,-53.,-30.));
#867 = DIRECTION('',(1.,0.,1.110223024625E-16));
#868 = DIRECTION('',(1.110223024625E-16,0.,-1.));
#869 = ORIENTED_EDGE('',*,*,#870,.T.);
#870 = EDGE_CURVE('',#862,#180,#871,.T.);
#871 = LINE('',#872,#873);
#872 = CARTESIAN_POINT('',(79.,-53.,-35.));
#873 = VECTOR('',#874,1.);
#874 = DIRECTION('',(1.,0.,1.110223024625E-16));
#875 = CYLINDRICAL_SURFACE('',#876,5.);
#876 = AXIS2_PLACEMENT_3D('',#877,#878,#879);
#877 = CARTESIAN_POINT('',(79.,-53.,-30.));
#878 = DIRECTION('',(1.,0.,1.110223024625E-16));
#879 = DIRECTION('',(1.110223024625E-16,0.,-1.));
#880 = ADVANCED_FACE('',(#881),#963,.T.);
#881 = FACE_BOUND('',#882,.T.);
#882 = EDGE_LOOP('',(#883,#893,#899,#900,#901,#902,#910,#918,#924,#925,
    #926,#932,#933,#941,#949,#957));
#883 = ORIENTED_EDGE('',*,*,#884,.T.);
#884 = EDGE_CURVE('',#885,#887,#889,.T.);
#885 = VERTEX_POINT('',#886);
#886 = CARTESIAN_POINT('',(83.,58.,-37.));
#887 = VERTEX_POINT('',#888);
#888 = CARTESIAN_POINT('',(83.,58.,-30.));
#889 = LINE('',#890,#891);
#890 = CARTESIAN_POINT('',(83.,58.,-47.));
#891 = VECTOR('',#892,1.);
#892 = DIRECTION('',(0.,0.,1.));
#893 = ORIENTED_EDGE('',*,*,#894,.T.);
#894 = EDGE_CURVE('',#887,#163,#895,.T.);
#895 = LINE('',#896,#897);
#896 = CARTESIAN_POINT('',(79.,58.,-30.));
#897 = VECTOR('',#898,1.);
#898 = DIRECTION('',(1.,0.,1.110223024625E-16));
#899 = ORIENTED_EDGE('',*,*,#162,.T.);
#900 = ORIENTED_EDGE('',*,*,#843,.F.);
#901 = ORIENTED_EDGE('',*,*,#406,.T.);
#902 = ORIENTED_EDGE('',*,*,#903,.F.);
#903 = EDGE_CURVE('',#904,#398,#906,.T.);
#904 = VERTEX_POINT('',#905);
#905 = CARTESIAN_POINT('',(80.,58.,38.));
#906 = LINE('',#907,#908);
#907 = CARTESIAN_POINT('',(80.,58.,38.));
#908 = VECTOR('',#909,1.);
#909 = DIRECTION('',(1.,0.,0.));
#910 = ORIENTED_EDGE('',*,*,#911,.T.);
#911 = EDGE_CURVE('',#904,#912,#914,.T.);
#912 = VERTEX_POINT('',#913);
#913 = CARTESIAN_POINT('',(80.,58.,44.));
#914 = LINE('',#915,#916);
#915 = CARTESIAN_POINT('',(80.,58.,20.5));
#916 = VECTOR('',#917,1.);
#917 = DIRECTION('',(0.,0.,1.));
#918 = ORIENTED_EDGE('',*,*,#919,.T.);
#919 = EDGE_CURVE('',#912,#390,#920,.T.);
#920 = LINE('',#921,#922);
#921 = CARTESIAN_POINT('',(80.,58.,44.));
#922 = VECTOR('',#923,1.);
#923 = DIRECTION('',(1.,0.,0.));
#924 = ORIENTED_EDGE('',*,*,#389,.T.);
#925 = ORIENTED_EDGE('',*,*,#512,.F.);
#926 = ORIENTED_EDGE('',*,*,#927,.F.);
#927 = EDGE_CURVE('',#762,#505,#928,.T.);
#928 = LINE('',#929,#930);
#929 = CARTESIAN_POINT('',(78.,58.,-47.));
#930 = VECTOR('',#931,1.);
#931 = DIRECTION('',(0.,0.,1.));
#932 = ORIENTED_EDGE('',*,*,#761,.T.);
#933 = ORIENTED_EDGE('',*,*,#934,.T.);
#934 = EDGE_CURVE('',#754,#935,#937,.T.);
#935 = VERTEX_POINT('',#936);
#936 = CARTESIAN_POINT('',(83.,58.,-43.));
#937 = LINE('',#938,#939);
#938 = CARTESIAN_POINT('',(83.,58.,-47.));
#939 = VECTOR('',#940,1.);
#940 = DIRECTION('',(0.,0.,1.));
#941 = ORIENTED_EDGE('',*,*,#942,.F.);
#942 = EDGE_CURVE('',#943,#935,#945,.T.);
#943 = VERTEX_POINT('',#944);
#944 = CARTESIAN_POINT('',(80.,58.,-43.));
#945 = LINE('',#946,#947);
#946 = CARTESIAN_POINT('',(80.,58.,-43.));
#947 = VECTOR('',#948,1.);
#948 = DIRECTION('',(1.,0.,0.));
#949 = ORIENTED_EDGE('',*,*,#950,.T.);
#950 = EDGE_CURVE('',#943,#951,#953,.T.);
#951 = VERTEX_POINT('',#952);
#952 = CARTESIAN_POINT('',(80.,58.,-37.));
#953 = LINE('',#954,#955);
#954 = CARTESIAN_POINT('',(80.,58.,-20.));
#955 = VECTOR('',#956,1.);
#956 = DIRECTION('',(0.,0.,1.));
#957 = ORIENTED_EDGE('',*,*,#958,.T.);
#958 = EDGE_CURVE('',#951,#885,#959,.T.);
#959 = LINE('',#960,#961);
#960 = CARTESIAN_POINT('',(80.,58.,-37.));
#961 = VECTOR('',#962,1.);
#962 = DIRECTION('',(1.,0.,0.));
#963 = PLANE('',#964);
#964 = AXIS2_PLACEMENT_3D('',#965,#966,#967);
#965 = CARTESIAN_POINT('',(81.5,58.,0.));
#966 = DIRECTION('',(-0.,-1.,-0.));
#967 = DIRECTION('',(0.,0.,-1.));
#968 = ADVANCED_FACE('',(#969),#987,.F.);
#969 = FACE_BOUND('',#970,.F.);
#970 = EDGE_LOOP('',(#971,#972,#980,#986));
#971 = ORIENTED_EDGE('',*,*,#870,.F.);
#972 = ORIENTED_EDGE('',*,*,#973,.F.);
#973 = EDGE_CURVE('',#974,#862,#976,.T.);
#974 = VERTEX_POINT('',#975);
#975 = CARTESIAN_POINT('',(83.,53.,-35.));
#976 = LINE('',#977,#978);
#977 = CARTESIAN_POINT('',(83.,-26.5,-35.));
#978 = VECTOR('',#979,1.);
#979 = DIRECTION('',(0.,-1.,0.));
#980 = ORIENTED_EDGE('',*,*,#981,.T.);
#981 = EDGE_CURVE('',#974,#171,#982,.T.);
#982 = LINE('',#983,#984);
#983 = CARTESIAN_POINT('',(79.,53.,-35.));
#984 = VECTOR('',#985,1.);
#985 = DIRECTION('',(1.,0.,1.110223024625E-16));
#986 = ORIENTED_EDGE('',*,*,#179,.F.);
#987 = PLANE('',#988);
#988 = AXIS2_PLACEMENT_3D('',#989,#990,#991);
#989 = CARTESIAN_POINT('',(79.,-53.,-35.));
#990 = DIRECTION('',(1.110223024625E-16,0.,-1.));
#991 = DIRECTION('',(1.,0.,1.110223024625E-16));
#992 = ADVANCED_FACE('',(#993),#1005,.F.);
#993 = FACE_BOUND('',#994,.F.);
#994 = EDGE_LOOP('',(#995,#996,#997,#1004));
#995 = ORIENTED_EDGE('',*,*,#170,.F.);
#996 = ORIENTED_EDGE('',*,*,#981,.F.);
#997 = ORIENTED_EDGE('',*,*,#998,.T.);
#998 = EDGE_CURVE('',#974,#887,#999,.T.);
#999 = CIRCLE('',#1000,5.);
#1000 = AXIS2_PLACEMENT_3D('',#1001,#1002,#1003);
#1001 = CARTESIAN_POINT('',(83.,53.,-30.));
#1002 = DIRECTION('',(1.,0.,1.110223024625E-16));
#1003 = DIRECTION('',(1.110223024625E-16,0.,-1.));
#1004 = ORIENTED_EDGE('',*,*,#894,.T.);
#1005 = CYLINDRICAL_SURFACE('',#1006,5.);
#1006 = AXIS2_PLACEMENT_3D('',#1007,#1008,#1009);
#1007 = CARTESIAN_POINT('',(79.,53.,-30.));
#1008 = DIRECTION('',(1.,0.,1.110223024625E-16));
#1009 = DIRECTION('',(1.110223024625E-16,0.,-1.));
#1010 = ADVANCED_FACE('',(#1011),#1030,.F.);
#1011 = FACE_BOUND('',#1012,.F.);
#1012 = EDGE_LOOP('',(#1013,#1014,#1022,#1029));
#1013 = ORIENTED_EDGE('',*,*,#204,.F.);
#1014 = ORIENTED_EDGE('',*,*,#1015,.F.);
#1015 = EDGE_CURVE('',#1016,#205,#1018,.T.);
#1016 = VERTEX_POINT('',#1017);
#1017 = CARTESIAN_POINT('',(78.,62.,42.25));
#1018 = LINE('',#1019,#1020);
#1019 = CARTESIAN_POINT('',(77.9,62.,42.25));
#1020 = VECTOR('',#1021,1.);
#1021 = DIRECTION('',(1.,0.,0.));
#1022 = ORIENTED_EDGE('',*,*,#1023,.T.);
#1023 = EDGE_CURVE('',#1016,#1016,#1024,.T.);
#1024 = CIRCLE('',#1025,1.25);
#1025 = AXIS2_PLACEMENT_3D('',#1026,#1027,#1028);
#1026 = CARTESIAN_POINT('',(78.,62.,41.));
#1027 = DIRECTION('',(1.,0.,0.));
#1028 = DIRECTION('',(-0.,0.,1.));
#1029 = ORIENTED_EDGE('',*,*,#1015,.T.);
#1030 = CYLINDRICAL_SURFACE('',#1031,1.25);
#1031 = AXIS2_PLACEMENT_3D('',#1032,#1033,#1034);
#1032 = CARTESIAN_POINT('',(77.9,62.,41.));
#1033 = DIRECTION('',(1.,0.,0.));
#1034 = DIRECTION('',(-0.,0.,1.));
#1035 = ADVANCED_FACE('',(#1036),#1055,.F.);
#1036 = FACE_BOUND('',#1037,.F.);
#1037 = EDGE_LOOP('',(#1038,#1039,#1047,#1054));
#1038 = ORIENTED_EDGE('',*,*,#215,.F.);
#1039 = ORIENTED_EDGE('',*,*,#1040,.F.);
#1040 = EDGE_CURVE('',#1041,#216,#1043,.T.);
#1041 = VERTEX_POINT('',#1042);
#1042 = CARTESIAN_POINT('',(78.,-62.,-38.75));
#1043 = LINE('',#1044,#1045);
#1044 = CARTESIAN_POINT('',(77.9,-62.,-38.75));
#1045 = VECTOR('',#1046,1.);
#1046 = DIRECTION('',(1.,0.,0.));
#1047 = ORIENTED_EDGE('',*,*,#1048,.T.);
#1048 = EDGE_CURVE('',#1041,#1041,#1049,.T.);
#1049 = CIRCLE('',#1050,1.25);
#1050 = AXIS2_PLACEMENT_3D('',#1051,#1052,#1053);
#1051 = CARTESIAN_POINT('',(78.,-62.,-40.));
#1052 = DIRECTION('',(1.,0.,0.));
#1053 = DIRECTION('',(-0.,0.,1.));
#1054 = ORIENTED_EDGE('',*,*,#1040,.T.);
#1055 = CYLINDRICAL_SURFACE('',#1056,1.25);
#1056 = AXIS2_PLACEMENT_3D('',#1057,#1058,#1059);
#1057 = CARTESIAN_POINT('',(77.9,-62.,-40.));
#1058 = DIRECTION('',(1.,0.,0.));
#1059 = DIRECTION('',(-0.,0.,1.));
#1060 = ADVANCED_FACE('',(#1061),#1080,.F.);
#1061 = FACE_BOUND('',#1062,.F.);
#1062 = EDGE_LOOP('',(#1063,#1064,#1072,#1079));
#1063 = ORIENTED_EDGE('',*,*,#226,.F.);
#1064 = ORIENTED_EDGE('',*,*,#1065,.F.);
#1065 = EDGE_CURVE('',#1066,#227,#1068,.T.);
#1066 = VERTEX_POINT('',#1067);
#1067 = CARTESIAN_POINT('',(78.,-62.,42.25));
#1068 = LINE('',#1069,#1070);
#1069 = CARTESIAN_POINT('',(77.9,-62.,42.25));
#1070 = VECTOR('',#1071,1.);
#1071 = DIRECTION('',(1.,0.,0.));
#1072 = ORIENTED_EDGE('',*,*,#1073,.T.);
#1073 = EDGE_CURVE('',#1066,#1066,#1074,.T.);
#1074 = CIRCLE('',#1075,1.25);
#1075 = AXIS2_PLACEMENT_3D('',#1076,#1077,#1078);
#1076 = CARTESIAN_POINT('',(78.,-62.,41.));
#1077 = DIRECTION('',(1.,0.,0.));
#1078 = DIRECTION('',(-0.,0.,1.));
#1079 = ORIENTED_EDGE('',*,*,#1065,.T.);
#1080 = CYLINDRICAL_SURFACE('',#1081,1.25);
#1081 = AXIS2_PLACEMENT_3D('',#1082,#1083,#1084);
#1082 = CARTESIAN_POINT('',(77.9,-62.,41.));
#1083 = DIRECTION('',(1.,0.,0.));
#1084 = DIRECTION('',(-0.,0.,1.));
#1085 = ADVANCED_FACE('',(#1086),#1098,.T.);
#1086 = FACE_BOUND('',#1087,.T.);
#1087 = EDGE_LOOP('',(#1088,#1089,#1096,#1097));
#1088 = ORIENTED_EDGE('',*,*,#339,.F.);
#1089 = ORIENTED_EDGE('',*,*,#1090,.T.);
#1090 = EDGE_CURVE('',#332,#324,#1091,.T.);
#1091 = CIRCLE('',#1092,5.);
#1092 = AXIS2_PLACEMENT_3D('',#1093,#1094,#1095);
#1093 = CARTESIAN_POINT('',(80.,-62.,41.));
#1094 = DIRECTION('',(1.,0.,0.));
#1095 = DIRECTION('',(-0.,0.,1.));
#1096 = ORIENTED_EDGE('',*,*,#323,.T.);
#1097 = ORIENTED_EDGE('',*,*,#373,.F.);
#1098 = CYLINDRICAL_SURFACE('',#1099,5.);
#1099 = AXIS2_PLACEMENT_3D('',#1100,#1101,#1102);
#1100 = CARTESIAN_POINT('',(80.,-62.,41.));
#1101 = DIRECTION('',(1.,0.,0.));
#1102 = DIRECTION('',(-0.,0.,1.));
#1103 = ADVANCED_FACE('',(#1104),#1108,.F.);
#1104 = FACE_BOUND('',#1105,.F.);
#1105 = EDGE_LOOP('',(#1106,#1107));
#1106 = ORIENTED_EDGE('',*,*,#331,.T.);
#1107 = ORIENTED_EDGE('',*,*,#1090,.T.);
#1108 = PLANE('',#1109);
#1109 = AXIS2_PLACEMENT_3D('',#1110,#1111,#1112);
#1110 = CARTESIAN_POINT('',(80.,-62.,41.));
#1111 = DIRECTION('',(1.,0.,0.));
#1112 = DIRECTION('',(-0.,0.,1.));
#1113 = ADVANCED_FACE('',(#1114,#1120,#1123),#1126,.F.);
#1114 = FACE_BOUND('',#1115,.F.);
#1115 = EDGE_LOOP('',(#1116,#1117,#1118,#1119));
#1116 = ORIENTED_EDGE('',*,*,#567,.F.);
#1117 = ORIENTED_EDGE('',*,*,#746,.T.);
#1118 = ORIENTED_EDGE('',*,*,#299,.T.);
#1119 = ORIENTED_EDGE('',*,*,#520,.F.);
#1120 = FACE_BOUND('',#1121,.F.);
#1121 = EDGE_LOOP('',(#1122));
#1122 = ORIENTED_EDGE('',*,*,#1048,.F.);
#1123 = FACE_BOUND('',#1124,.F.);
#1124 = EDGE_LOOP('',(#1125));
#1125 = ORIENTED_EDGE('',*,*,#1073,.F.);
#1126 = PLANE('',#1127);
#1127 = AXIS2_PLACEMENT_3D('',#1128,#1129,#1130);
#1128 = CARTESIAN_POINT('',(78.,-72.,-47.));
#1129 = DIRECTION('',(1.,0.,-0.));
#1130 = DIRECTION('',(0.,0.,1.));
#1131 = ADVANCED_FACE('',(#1132),#1156,.T.);
#1132 = FACE_BOUND('',#1133,.T.);
#1133 = EDGE_LOOP('',(#1134,#1135,#1136,#1143,#1144,#1145,#1146,#1147,
    #1148,#1155));
#1134 = ORIENTED_EDGE('',*,*,#753,.F.);
#1135 = ORIENTED_EDGE('',*,*,#283,.T.);
#1136 = ORIENTED_EDGE('',*,*,#1137,.T.);
#1137 = EDGE_CURVE('',#276,#252,#1138,.T.);
#1138 = CIRCLE('',#1139,5.);
#1139 = AXIS2_PLACEMENT_3D('',#1140,#1141,#1142);
#1140 = CARTESIAN_POINT('',(83.,-62.,-40.));
#1141 = DIRECTION('',(1.,0.,0.));
#1142 = DIRECTION('',(-0.,0.,1.));
#1143 = ORIENTED_EDGE('',*,*,#251,.T.);
#1144 = ORIENTED_EDGE('',*,*,#861,.T.);
#1145 = ORIENTED_EDGE('',*,*,#973,.F.);
#1146 = ORIENTED_EDGE('',*,*,#998,.T.);
#1147 = ORIENTED_EDGE('',*,*,#884,.F.);
#1148 = ORIENTED_EDGE('',*,*,#1149,.T.);
#1149 = EDGE_CURVE('',#885,#935,#1150,.T.);
#1150 = CIRCLE('',#1151,5.);
#1151 = AXIS2_PLACEMENT_3D('',#1152,#1153,#1154);
#1152 = CARTESIAN_POINT('',(83.,62.,-40.));
#1153 = DIRECTION('',(1.,0.,0.));
#1154 = DIRECTION('',(-0.,0.,1.));
#1155 = ORIENTED_EDGE('',*,*,#934,.F.);
#1156 = PLANE('',#1157);
#1157 = AXIS2_PLACEMENT_3D('',#1158,#1159,#1160);
#1158 = CARTESIAN_POINT('',(83.,0.,9.736415455836E-16));
#1159 = DIRECTION('',(-1.,-0.,-1.110223024625E-16));
#1160 = DIRECTION('',(-1.110223024625E-16,0.,1.));
#1161 = ADVANCED_FACE('',(#1162),#1174,.T.);
#1162 = FACE_BOUND('',#1163,.T.);
#1163 = EDGE_LOOP('',(#1164,#1165,#1172,#1173));
#1164 = ORIENTED_EDGE('',*,*,#275,.F.);
#1165 = ORIENTED_EDGE('',*,*,#1166,.T.);
#1166 = EDGE_CURVE('',#268,#260,#1167,.T.);
#1167 = CIRCLE('',#1168,5.);
#1168 = AXIS2_PLACEMENT_3D('',#1169,#1170,#1171);
#1169 = CARTESIAN_POINT('',(80.,-62.,-40.));
#1170 = DIRECTION('',(1.,0.,0.));
#1171 = DIRECTION('',(-0.,0.,1.));
#1172 = ORIENTED_EDGE('',*,*,#259,.T.);
#1173 = ORIENTED_EDGE('',*,*,#1137,.F.);
#1174 = CYLINDRICAL_SURFACE('',#1175,5.);
#1175 = AXIS2_PLACEMENT_3D('',#1176,#1177,#1178);
#1176 = CARTESIAN_POINT('',(80.,-62.,-40.));
#1177 = DIRECTION('',(1.,0.,0.));
#1178 = DIRECTION('',(-0.,0.,1.));
#1179 = ADVANCED_FACE('',(#1180),#1184,.F.);
#1180 = FACE_BOUND('',#1181,.F.);
#1181 = EDGE_LOOP('',(#1182,#1183));
#1182 = ORIENTED_EDGE('',*,*,#267,.T.);
#1183 = ORIENTED_EDGE('',*,*,#1166,.T.);
#1184 = PLANE('',#1185);
#1185 = AXIS2_PLACEMENT_3D('',#1186,#1187,#1188);
#1186 = CARTESIAN_POINT('',(80.,-62.,-40.));
#1187 = DIRECTION('',(1.,0.,0.));
#1188 = DIRECTION('',(-0.,0.,1.));
#1189 = ADVANCED_FACE('',(#1190),#1202,.T.);
#1190 = FACE_BOUND('',#1191,.T.);
#1191 = EDGE_LOOP('',(#1192,#1193,#1200,#1201));
#1192 = ORIENTED_EDGE('',*,*,#919,.F.);
#1193 = ORIENTED_EDGE('',*,*,#1194,.T.);
#1194 = EDGE_CURVE('',#912,#904,#1195,.T.);
#1195 = CIRCLE('',#1196,5.);
#1196 = AXIS2_PLACEMENT_3D('',#1197,#1198,#1199);
#1197 = CARTESIAN_POINT('',(80.,62.,41.));
#1198 = DIRECTION('',(1.,0.,0.));
#1199 = DIRECTION('',(-0.,0.,1.));
#1200 = ORIENTED_EDGE('',*,*,#903,.T.);
#1201 = ORIENTED_EDGE('',*,*,#397,.F.);
#1202 = CYLINDRICAL_SURFACE('',#1203,5.);
#1203 = AXIS2_PLACEMENT_3D('',#1204,#1205,#1206);
#1204 = CARTESIAN_POINT('',(80.,62.,41.));
#1205 = DIRECTION('',(1.,0.,0.));
#1206 = DIRECTION('',(-0.,0.,1.));
#1207 = ADVANCED_FACE('',(#1208),#1213,.T.);
#1208 = FACE_BOUND('',#1209,.T.);
#1209 = EDGE_LOOP('',(#1210,#1211,#1212));
#1210 = ORIENTED_EDGE('',*,*,#560,.F.);
#1211 = ORIENTED_EDGE('',*,*,#455,.F.);
#1212 = ORIENTED_EDGE('',*,*,#536,.F.);
#1213 = PLANE('',#1214);
#1214 = AXIS2_PLACEMENT_3D('',#1215,#1216,#1217);
#1215 = CARTESIAN_POINT('',(83.,-72.,-47.));
#1216 = DIRECTION('',(1.,0.,-0.));
#1217 = DIRECTION('',(0.,0.,1.));
#1218 = ADVANCED_FACE('',(#1219),#1224,.T.);
#1219 = FACE_BOUND('',#1220,.T.);
#1220 = EDGE_LOOP('',(#1221,#1222,#1223));
#1221 = ORIENTED_EDGE('',*,*,#488,.F.);
#1222 = ORIENTED_EDGE('',*,*,#628,.F.);
#1223 = ORIENTED_EDGE('',*,*,#700,.T.);
#1224 = PLANE('',#1225);
#1225 = AXIS2_PLACEMENT_3D('',#1226,#1227,#1228);
#1226 = CARTESIAN_POINT('',(83.,58.,-47.));
#1227 = DIRECTION('',(1.,0.,-0.));
#1228 = DIRECTION('',(0.,0.,1.));
#1229 = ADVANCED_FACE('',(#1230,#1236,#1239),#1242,.F.);
#1230 = FACE_BOUND('',#1231,.F.);
#1231 = EDGE_LOOP('',(#1232,#1233,#1234,#1235));
#1232 = ORIENTED_EDGE('',*,*,#927,.F.);
#1233 = ORIENTED_EDGE('',*,*,#769,.T.);
#1234 = ORIENTED_EDGE('',*,*,#693,.T.);
#1235 = ORIENTED_EDGE('',*,*,#504,.F.);
#1236 = FACE_BOUND('',#1237,.F.);
#1237 = EDGE_LOOP('',(#1238));
#1238 = ORIENTED_EDGE('',*,*,#826,.F.);
#1239 = FACE_BOUND('',#1240,.F.);
#1240 = EDGE_LOOP('',(#1241));
#1241 = ORIENTED_EDGE('',*,*,#1023,.F.);
#1242 = PLANE('',#1243);
#1243 = AXIS2_PLACEMENT_3D('',#1244,#1245,#1246);
#1244 = CARTESIAN_POINT('',(78.,58.,-47.));
#1245 = DIRECTION('',(1.,0.,-0.));
#1246 = DIRECTION('',(0.,0.,1.));
#1247 = ADVANCED_FACE('',(#1248),#1253,.T.);
#1248 = FACE_BOUND('',#1249,.T.);
#1249 = EDGE_LOOP('',(#1250,#1251,#1252));
#1250 = ORIENTED_EDGE('',*,*,#583,.F.);
#1251 = ORIENTED_EDGE('',*,*,#739,.T.);
#1252 = ORIENTED_EDGE('',*,*,#646,.F.);
#1253 = PLANE('',#1254);
#1254 = AXIS2_PLACEMENT_3D('',#1255,#1256,#1257);
#1255 = CARTESIAN_POINT('',(83.,-72.,-47.));
#1256 = DIRECTION('',(1.,0.,-0.));
#1257 = DIRECTION('',(0.,0.,1.));
#1258 = ADVANCED_FACE('',(#1259),#1278,.F.);
#1259 = FACE_BOUND('',#1260,.F.);
#1260 = EDGE_LOOP('',(#1261,#1269,#1276,#1277));
#1261 = ORIENTED_EDGE('',*,*,#1262,.T.);
#1262 = EDGE_CURVE('',#592,#1263,#1265,.T.);
#1263 = VERTEX_POINT('',#1264);
#1264 = CARTESIAN_POINT('',(82.,-65.5,26.25));
#1265 = LINE('',#1266,#1267);
#1266 = CARTESIAN_POINT('',(82.,-72.1,26.25));
#1267 = VECTOR('',#1268,1.);
#1268 = DIRECTION('',(0.,1.,0.));
#1269 = ORIENTED_EDGE('',*,*,#1270,.F.);
#1270 = EDGE_CURVE('',#1263,#1263,#1271,.T.);
#1271 = CIRCLE('',#1272,1.25);
#1272 = AXIS2_PLACEMENT_3D('',#1273,#1274,#1275);
#1273 = CARTESIAN_POINT('',(82.,-65.5,25.));
#1274 = DIRECTION('',(0.,1.,0.));
#1275 = DIRECTION('',(0.,-0.,1.));
#1276 = ORIENTED_EDGE('',*,*,#1262,.F.);
#1277 = ORIENTED_EDGE('',*,*,#591,.T.);
#1278 = CYLINDRICAL_SURFACE('',#1279,1.25);
#1279 = AXIS2_PLACEMENT_3D('',#1280,#1281,#1282);
#1280 = CARTESIAN_POINT('',(82.,-72.1,25.));
#1281 = DIRECTION('',(0.,1.,0.));
#1282 = DIRECTION('',(0.,-0.,1.));
#1283 = ADVANCED_FACE('',(#1284),#1303,.F.);
#1284 = FACE_BOUND('',#1285,.F.);
#1285 = EDGE_LOOP('',(#1286,#1294,#1301,#1302));
#1286 = ORIENTED_EDGE('',*,*,#1287,.T.);
#1287 = EDGE_CURVE('',#603,#1288,#1290,.T.);
#1288 = VERTEX_POINT('',#1289);
#1289 = CARTESIAN_POINT('',(82.,-65.5,-23.75));
#1290 = LINE('',#1291,#1292);
#1291 = CARTESIAN_POINT('',(82.,-72.1,-23.75));
#1292 = VECTOR('',#1293,1.);
#1293 = DIRECTION('',(0.,1.,0.));
#1294 = ORIENTED_EDGE('',*,*,#1295,.F.);
#1295 = EDGE_CURVE('',#1288,#1288,#1296,.T.);
#1296 = CIRCLE('',#1297,1.25);
#1297 = AXIS2_PLACEMENT_3D('',#1298,#1299,#1300);
#1298 = CARTESIAN_POINT('',(82.,-65.5,-25.));
#1299 = DIRECTION('',(0.,1.,0.));
#1300 = DIRECTION('',(0.,-0.,1.));
#1301 = ORIENTED_EDGE('',*,*,#1287,.F.);
#1302 = ORIENTED_EDGE('',*,*,#602,.T.);
#1303 = CYLINDRICAL_SURFACE('',#1304,1.25);
#1304 = AXIS2_PLACEMENT_3D('',#1305,#1306,#1307);
#1305 = CARTESIAN_POINT('',(82.,-72.1,-25.));
#1306 = DIRECTION('',(0.,1.,0.));
#1307 = DIRECTION('',(0.,-0.,1.));
#1308 = ADVANCED_FACE('',(#1309),#1314,.T.);
#1309 = FACE_BOUND('',#1310,.T.);
#1310 = EDGE_LOOP('',(#1311,#1312,#1313));
#1311 = ORIENTED_EDGE('',*,*,#801,.F.);
#1312 = ORIENTED_EDGE('',*,*,#776,.T.);
#1313 = ORIENTED_EDGE('',*,*,#677,.T.);
#1314 = PLANE('',#1315);
#1315 = AXIS2_PLACEMENT_3D('',#1316,#1317,#1318);
#1316 = CARTESIAN_POINT('',(83.,58.,-47.));
#1317 = DIRECTION('',(1.,0.,-0.));
#1318 = DIRECTION('',(0.,0.,1.));
#1319 = ADVANCED_FACE('',(#1320),#1339,.F.);
#1320 = FACE_BOUND('',#1321,.F.);
#1321 = EDGE_LOOP('',(#1322,#1330,#1337,#1338));
#1322 = ORIENTED_EDGE('',*,*,#1323,.T.);
#1323 = EDGE_CURVE('',#711,#1324,#1326,.T.);
#1324 = VERTEX_POINT('',#1325);
#1325 = CARTESIAN_POINT('',(82.,65.5,-26.25));
#1326 = LINE('',#1327,#1328);
#1327 = CARTESIAN_POINT('',(82.,72.1,-26.25));
#1328 = VECTOR('',#1329,1.);
#1329 = DIRECTION('',(0.,-1.,0.));
#1330 = ORIENTED_EDGE('',*,*,#1331,.F.);
#1331 = EDGE_CURVE('',#1324,#1324,#1332,.T.);
#1332 = CIRCLE('',#1333,1.25);
#1333 = AXIS2_PLACEMENT_3D('',#1334,#1335,#1336);
#1334 = CARTESIAN_POINT('',(82.,65.5,-25.));
#1335 = DIRECTION('',(0.,-1.,0.));
#1336 = DIRECTION('',(0.,-0.,-1.));
#1337 = ORIENTED_EDGE('',*,*,#1323,.F.);
#1338 = ORIENTED_EDGE('',*,*,#710,.T.);
#1339 = CYLINDRICAL_SURFACE('',#1340,1.25);
#1340 = AXIS2_PLACEMENT_3D('',#1341,#1342,#1343);
#1341 = CARTESIAN_POINT('',(82.,72.1,-25.));
#1342 = DIRECTION('',(0.,-1.,0.));
#1343 = DIRECTION('',(0.,-0.,-1.));
#1344 = ADVANCED_FACE('',(#1345),#1364,.F.);
#1345 = FACE_BOUND('',#1346,.F.);
#1346 = EDGE_LOOP('',(#1347,#1355,#1362,#1363));
#1347 = ORIENTED_EDGE('',*,*,#1348,.T.);
#1348 = EDGE_CURVE('',#722,#1349,#1351,.T.);
#1349 = VERTEX_POINT('',#1350);
#1350 = CARTESIAN_POINT('',(82.,65.5,23.75));
#1351 = LINE('',#1352,#1353);
#1352 = CARTESIAN_POINT('',(82.,72.1,23.75));
#1353 = VECTOR('',#1354,1.);
#1354 = DIRECTION('',(0.,-1.,0.));
#1355 = ORIENTED_EDGE('',*,*,#1356,.F.);
#1356 = EDGE_CURVE('',#1349,#1349,#1357,.T.);
#1357 = CIRCLE('',#1358,1.25);
#1358 = AXIS2_PLACEMENT_3D('',#1359,#1360,#1361);
#1359 = CARTESIAN_POINT('',(82.,65.5,25.));
#1360 = DIRECTION('',(0.,-1.,0.));
#1361 = DIRECTION('',(0.,-0.,-1.));
#1362 = ORIENTED_EDGE('',*,*,#1348,.F.);
#1363 = ORIENTED_EDGE('',*,*,#721,.T.);
#1364 = CYLINDRICAL_SURFACE('',#1365,1.25);
#1365 = AXIS2_PLACEMENT_3D('',#1366,#1367,#1368);
#1366 = CARTESIAN_POINT('',(82.,72.1,25.));
#1367 = DIRECTION('',(0.,-1.,0.));
#1368 = DIRECTION('',(0.,-0.,-1.));
#1369 = ADVANCED_FACE('',(#1370),#1382,.T.);
#1370 = FACE_BOUND('',#1371,.T.);
#1371 = EDGE_LOOP('',(#1372,#1373,#1380,#1381));
#1372 = ORIENTED_EDGE('',*,*,#958,.F.);
#1373 = ORIENTED_EDGE('',*,*,#1374,.T.);
#1374 = EDGE_CURVE('',#951,#943,#1375,.T.);
#1375 = CIRCLE('',#1376,5.);
#1376 = AXIS2_PLACEMENT_3D('',#1377,#1378,#1379);
#1377 = CARTESIAN_POINT('',(80.,62.,-40.));
#1378 = DIRECTION('',(1.,0.,0.));
#1379 = DIRECTION('',(-0.,0.,1.));
#1380 = ORIENTED_EDGE('',*,*,#942,.T.);
#1381 = ORIENTED_EDGE('',*,*,#1149,.F.);
#1382 = CYLINDRICAL_SURFACE('',#1383,5.);
#1383 = AXIS2_PLACEMENT_3D('',#1384,#1385,#1386);
#1384 = CARTESIAN_POINT('',(80.,62.,-40.));
#1385 = DIRECTION('',(1.,0.,0.));
#1386 = DIRECTION('',(-0.,0.,1.));
#1387 = ADVANCED_FACE('',(#1388),#1392,.F.);
#1388 = FACE_BOUND('',#1389,.F.);
#1389 = EDGE_LOOP('',(#1390,#1391));
#1390 = ORIENTED_EDGE('',*,*,#950,.T.);
#1391 = ORIENTED_EDGE('',*,*,#1374,.T.);
#1392 = PLANE('',#1393);
#1393 = AXIS2_PLACEMENT_3D('',#1394,#1395,#1396);
#1394 = CARTESIAN_POINT('',(80.,62.,-40.));
#1395 = DIRECTION('',(1.,0.,0.));
#1396 = DIRECTION('',(-0.,0.,1.));
#1397 = ADVANCED_FACE('',(#1398),#1402,.F.);
#1398 = FACE_BOUND('',#1399,.F.);
#1399 = EDGE_LOOP('',(#1400,#1401));
#1400 = ORIENTED_EDGE('',*,*,#911,.T.);
#1401 = ORIENTED_EDGE('',*,*,#1194,.T.);
#1402 = PLANE('',#1403);
#1403 = AXIS2_PLACEMENT_3D('',#1404,#1405,#1406);
#1404 = CARTESIAN_POINT('',(80.,62.,41.));
#1405 = DIRECTION('',(1.,0.,0.));
#1406 = DIRECTION('',(-0.,0.,1.));
#1407 = ADVANCED_FACE('',(#1408),#1420,.F.);
#1408 = FACE_BOUND('',#1409,.F.);
#1409 = EDGE_LOOP('',(#1410,#1418,#1419));
#1410 = ORIENTED_EDGE('',*,*,#1411,.F.);
#1411 = EDGE_CURVE('',#1263,#1412,#1414,.T.);
#1412 = VERTEX_POINT('',#1413);
#1413 = CARTESIAN_POINT('',(82.,-64.74892422621,25.));
#1414 = LINE('',#1415,#1416);
#1415 = CARTESIAN_POINT('',(82.,-65.5,26.25));
#1416 = VECTOR('',#1417,1.);
#1417 = DIRECTION('',(2.099454382277E-16,0.51503807491,-0.857167300702)
  );
#1418 = ORIENTED_EDGE('',*,*,#1270,.T.);
#1419 = ORIENTED_EDGE('',*,*,#1411,.T.);
#1420 = CONICAL_SURFACE('',#1421,1.25,1.029744258677);
#1421 = AXIS2_PLACEMENT_3D('',#1422,#1423,#1424);
#1422 = CARTESIAN_POINT('',(82.,-65.5,25.));
#1423 = DIRECTION('',(-0.,-1.,-0.));
#1424 = DIRECTION('',(0.,-0.,1.));
#1425 = ADVANCED_FACE('',(#1426),#1438,.F.);
#1426 = FACE_BOUND('',#1427,.F.);
#1427 = EDGE_LOOP('',(#1428,#1436,#1437));
#1428 = ORIENTED_EDGE('',*,*,#1429,.F.);
#1429 = EDGE_CURVE('',#1288,#1430,#1432,.T.);
#1430 = VERTEX_POINT('',#1431);
#1431 = CARTESIAN_POINT('',(82.,-64.74892422621,-25.));
#1432 = LINE('',#1433,#1434);
#1433 = CARTESIAN_POINT('',(82.,-65.5,-23.75));
#1434 = VECTOR('',#1435,1.);
#1435 = DIRECTION('',(2.099454382277E-16,0.51503807491,-0.857167300702)
  );
#1436 = ORIENTED_EDGE('',*,*,#1295,.T.);
#1437 = ORIENTED_EDGE('',*,*,#1429,.T.);
#1438 = CONICAL_SURFACE('',#1439,1.25,1.029744258677);
#1439 = AXIS2_PLACEMENT_3D('',#1440,#1441,#1442);
#1440 = CARTESIAN_POINT('',(82.,-65.5,-25.));
#1441 = DIRECTION('',(-0.,-1.,-0.));
#1442 = DIRECTION('',(0.,-0.,1.));
#1443 = ADVANCED_FACE('',(#1444),#1456,.F.);
#1444 = FACE_BOUND('',#1445,.F.);
#1445 = EDGE_LOOP('',(#1446,#1454,#1455));
#1446 = ORIENTED_EDGE('',*,*,#1447,.F.);
#1447 = EDGE_CURVE('',#1324,#1448,#1450,.T.);
#1448 = VERTEX_POINT('',#1449);
#1449 = CARTESIAN_POINT('',(82.,64.748924226216,-25.));
#1450 = LINE('',#1451,#1452);
#1451 = CARTESIAN_POINT('',(82.,65.5,-26.25));
#1452 = VECTOR('',#1453,1.);
#1453 = DIRECTION('',(2.099454382277E-16,-0.51503807491,0.857167300702)
  );
#1454 = ORIENTED_EDGE('',*,*,#1331,.T.);
#1455 = ORIENTED_EDGE('',*,*,#1447,.T.);
#1456 = CONICAL_SURFACE('',#1457,1.25,1.029744258677);
#1457 = AXIS2_PLACEMENT_3D('',#1458,#1459,#1460);
#1458 = CARTESIAN_POINT('',(82.,65.5,-25.));
#1459 = DIRECTION('',(-0.,1.,-0.));
#1460 = DIRECTION('',(0.,-0.,-1.));
#1461 = ADVANCED_FACE('',(#1462),#1474,.F.);
#1462 = FACE_BOUND('',#1463,.F.);
#1463 = EDGE_LOOP('',(#1464,#1472,#1473));
#1464 = ORIENTED_EDGE('',*,*,#1465,.F.);
#1465 = EDGE_CURVE('',#1349,#1466,#1468,.T.);
#1466 = VERTEX_POINT('',#1467);
#1467 = CARTESIAN_POINT('',(82.,64.748924226216,25.));
#1468 = LINE('',#1469,#1470);
#1469 = CARTESIAN_POINT('',(82.,65.5,23.75));
#1470 = VECTOR('',#1471,1.);
#1471 = DIRECTION('',(2.099454382277E-16,-0.51503807491,0.857167300702)
  );
#1472 = ORIENTED_EDGE('',*,*,#1356,.T.);
#1473 = ORIENTED_EDGE('',*,*,#1465,.T.);
#1474 = CONICAL_SURFACE('',#1475,1.25,1.029744258677);
#1475 = AXIS2_PLACEMENT_3D('',#1476,#1477,#1478);
#1476 = CARTESIAN_POINT('',(82.,65.5,25.));
#1477 = DIRECTION('',(-0.,1.,-0.));
#1478 = DIRECTION('',(0.,-0.,-1.));
#1479 = ( GEOMETRIC_REPRESENTATION_CONTEXT(3) 
GLOBAL_UNCERTAINTY_ASSIGNED_CONTEXT((#1483)) 
GLOBAL_UNIT_ASSIGNED_CONTEXT((#1480,#1481,#1482)) REPRESENTATION_CONTEXT
('Context #1','3D Context with UNIT and UNCERTAINTY') );
#1480 = ( LENGTH_UNIT() NAMED_UNIT(*) SI_UNIT(.MILLI.,.METRE.) );
#1481 = ( NAMED_UNIT(*) PLANE_ANGLE_UNIT() SI_UNIT($,.RADIAN.) );
#1482 = ( NAMED_UNIT(*) SI_UNIT($,.STERADIAN.) SOLID_ANGLE_UNIT() );
#1483 = UNCERTAINTY_MEASURE_WITH_UNIT(LENGTH_MEASURE(1.E-07),#1480,
  'distance_accuracy_value','confusion accuracy');
#1484 = PRODUCT_RELATED_PRODUCT_CATEGORY('part',$,(#7));
ENDSEC;
END-ISO-10303-21;
