ISO-10303-21;
HEADER;
FILE_DESCRIPTION(('FreeCAD Model'),'2;1');
FILE_NAME('Open CASCADE Shape Model','2026-09-22T18:42:10',('FreeCAD'),(
    'FreeCAD'),'Open CASCADE STEP processor 7.8','FreeCAD','Unknown');
FILE_SCHEMA(('AUTOMOTIVE_DESIGN { 1 0 10303 214 1 1 1 1 }'));
ENDSEC;
DATA;
#1 = APPLICATION_PROTOCOL_DEFINITION('international standard',
  'automotive_design',2000,#2);
#2 = APPLICATION_CONTEXT(
  'core data for automotive mechanical design processes');
#3 = SHAPE_DEFINITION_REPRESENTATION(#4,#10);
#4 = PRODUCT_DEFINITION_SHAPE('','',#5);
#5 = PRODUCT_DEFINITION('design','',#6,#9);
#6 = PRODUCT_DEFINITION_FORMATION('','',#7);
#7 = PRODUCT('Open CASCADE STEP translator 7.8 38',
  'Open CASCADE STEP translator 7.8 38','',(#8));
#8 = PRODUCT_CONTEXT('',#2,'mechanical');
#9 = PRODUCT_DEFINITION_CONTEXT('part definition',#2,'design');
#10 = ADVANCED_BREP_SHAPE_REPRESENTATION('',(#11,#15),#1610);
#11 = AXIS2_PLACEMENT_3D('',#12,#13,#14);
#12 = CARTESIAN_POINT('',(0.,0.,0.));
#13 = DIRECTION('',(0.,0.,1.));
#14 = DIRECTION('',(1.,0.,-0.));
#15 = MANIFOLD_SOLID_BREP('',#16);
#16 = CLOSED_SHELL('',(#17,#57,#157,#182,#207,#291,#310,#327,#344,#361,
    #373,#398,#423,#448,#473,#493,#505,#617,#642,#684,#709,#733,#758,
    #783,#807,#832,#850,#875,#900,#986,#1028,#1048,#1073,#1098,#1123,
    #1148,#1173,#1198,#1223,#1240,#1265,#1285,#1305,#1391,#1411,#1431,
    #1451,#1471,#1491,#1508,#1525,#1542,#1559,#1576,#1593));
#17 = ADVANCED_FACE('',(#18),#52,.F.);
#18 = FACE_BOUND('',#19,.T.);
#19 = EDGE_LOOP('',(#20,#30,#38,#46));
#20 = ORIENTED_EDGE('',*,*,#21,.F.);
#21 = EDGE_CURVE('',#22,#24,#26,.T.);
#22 = VERTEX_POINT('',#23);
#23 = CARTESIAN_POINT('',(-9.,-136.6,-34.41699475574));
#24 = VERTEX_POINT('',#25);
#25 = CARTESIAN_POINT('',(-9.,-136.6,-21.93171219946));
#26 = LINE('',#27,#28);
#27 = CARTESIAN_POINT('',(-9.,-136.6,-45.));
#28 = VECTOR('',#29,1.);
#29 = DIRECTION('',(-0.,-0.,1.));
#30 = ORIENTED_EDGE('',*,*,#31,.T.);
#31 = EDGE_CURVE('',#22,#32,#34,.T.);
#32 = VERTEX_POINT('',#33);
#33 = CARTESIAN_POINT('',(-9.,-139.6,-34.41699475574));
#34 = LINE('',#35,#36);
#35 = CARTESIAN_POINT('',(-9.,-136.6,-34.41699475574));
#36 = VECTOR('',#37,1.);
#37 = DIRECTION('',(-0.,-1.,-0.));
#38 = ORIENTED_EDGE('',*,*,#39,.T.);
#39 = EDGE_CURVE('',#32,#40,#42,.T.);
#40 = VERTEX_POINT('',#41);
#41 = CARTESIAN_POINT('',(-9.,-139.6,-21.93171219946));
#42 = LINE('',#43,#44);
#43 = CARTESIAN_POINT('',(-9.,-139.6,-45.));
#44 = VECTOR('',#45,1.);
#45 = DIRECTION('',(-0.,-0.,1.));
#46 = ORIENTED_EDGE('',*,*,#47,.F.);
#47 = EDGE_CURVE('',#24,#40,#48,.T.);
#48 = LINE('',#49,#50);
#49 = CARTESIAN_POINT('',(-9.,-136.6,-21.93171219946));
#50 = VECTOR('',#51,1.);
#51 = DIRECTION('',(-0.,-1.,-0.));
#52 = PLANE('',#53);
#53 = AXIS2_PLACEMENT_3D('',#54,#55,#56);
#54 = CARTESIAN_POINT('',(-9.,-136.6,-45.));
#55 = DIRECTION('',(1.,-0.,-0.));
#56 = DIRECTION('',(0.,0.,-1.));
#57 = ADVANCED_FACE('',(#58,#130,#141),#152,.T.);
#58 = FACE_BOUND('',#59,.F.);
#59 = EDGE_LOOP('',(#60,#71,#78,#79,#88,#97,#106,#114,#123));
#60 = ORIENTED_EDGE('',*,*,#61,.F.);
#61 = EDGE_CURVE('',#62,#64,#66,.T.);
#62 = VERTEX_POINT('',#63);
#63 = CARTESIAN_POINT('',(-10.56,-136.6,-19.29990673552));
#64 = VERTEX_POINT('',#65);
#65 = CARTESIAN_POINT('',(-5.388445916248E-15,-136.6,22.));
#66 = CIRCLE('',#67,22.);
#67 = AXIS2_PLACEMENT_3D('',#68,#69,#70);
#68 = CARTESIAN_POINT('',(0.,-136.6,0.));
#69 = DIRECTION('',(0.,1.,0.));
#70 = DIRECTION('',(-0.,-0.,1.));
#71 = ORIENTED_EDGE('',*,*,#72,.F.);
#72 = EDGE_CURVE('',#24,#62,#73,.T.);
#73 = CIRCLE('',#74,3.);
#74 = AXIS2_PLACEMENT_3D('',#75,#76,#77);
#75 = CARTESIAN_POINT('',(-12.,-136.6,-21.93171219946));
#76 = DIRECTION('',(0.,-1.,0.));
#77 = DIRECTION('',(-0.,-0.,1.));
#78 = ORIENTED_EDGE('',*,*,#21,.F.);
#79 = ORIENTED_EDGE('',*,*,#80,.T.);
#80 = EDGE_CURVE('',#22,#81,#83,.T.);
#81 = VERTEX_POINT('',#82);
#82 = CARTESIAN_POINT('',(-9.75,-136.6,-36.40130823904));
#83 = CIRCLE('',#84,3.);
#84 = AXIS2_PLACEMENT_3D('',#85,#86,#87);
#85 = CARTESIAN_POINT('',(-12.,-136.6,-34.41699475574));
#86 = DIRECTION('',(0.,1.,0.));
#87 = DIRECTION('',(-0.,-0.,1.));
#88 = ORIENTED_EDGE('',*,*,#89,.F.);
#89 = EDGE_CURVE('',#90,#81,#92,.T.);
#90 = VERTEX_POINT('',#91);
#91 = CARTESIAN_POINT('',(9.75,-136.6,-36.40130823904));
#92 = CIRCLE('',#93,13.);
#93 = AXIS2_PLACEMENT_3D('',#94,#95,#96);
#94 = CARTESIAN_POINT('',(0.,-136.6,-45.));
#95 = DIRECTION('',(0.,1.,0.));
#96 = DIRECTION('',(-0.,-0.,1.));
#97 = ORIENTED_EDGE('',*,*,#98,.T.);
#98 = EDGE_CURVE('',#90,#99,#101,.T.);
#99 = VERTEX_POINT('',#100);
#100 = CARTESIAN_POINT('',(9.,-136.6,-34.41699475574));
#101 = CIRCLE('',#102,3.);
#102 = AXIS2_PLACEMENT_3D('',#103,#104,#105);
#103 = CARTESIAN_POINT('',(12.,-136.6,-34.41699475574));
#104 = DIRECTION('',(0.,1.,0.));
#105 = DIRECTION('',(-0.,-0.,1.));
#106 = ORIENTED_EDGE('',*,*,#107,.T.);
#107 = EDGE_CURVE('',#99,#108,#110,.T.);
#108 = VERTEX_POINT('',#109);
#109 = CARTESIAN_POINT('',(9.,-136.6,-21.93171219946));
#110 = LINE('',#111,#112);
#111 = CARTESIAN_POINT('',(9.,-136.6,-45.));
#112 = VECTOR('',#113,1.);
#113 = DIRECTION('',(-0.,-0.,1.));
#114 = ORIENTED_EDGE('',*,*,#115,.T.);
#115 = EDGE_CURVE('',#108,#116,#118,.T.);
#116 = VERTEX_POINT('',#117);
#117 = CARTESIAN_POINT('',(10.56,-136.6,-19.29990673552));
#118 = CIRCLE('',#119,3.);
#119 = AXIS2_PLACEMENT_3D('',#120,#121,#122);
#120 = CARTESIAN_POINT('',(12.,-136.6,-21.93171219946));
#121 = DIRECTION('',(0.,1.,0.));
#122 = DIRECTION('',(-0.,-0.,1.));
#123 = ORIENTED_EDGE('',*,*,#124,.F.);
#124 = EDGE_CURVE('',#64,#116,#125,.T.);
#125 = CIRCLE('',#126,22.);
#126 = AXIS2_PLACEMENT_3D('',#127,#128,#129);
#127 = CARTESIAN_POINT('',(0.,-136.6,0.));
#128 = DIRECTION('',(0.,1.,0.));
#129 = DIRECTION('',(-0.,-0.,1.));
#130 = FACE_BOUND('',#131,.F.);
#131 = EDGE_LOOP('',(#132));
#132 = ORIENTED_EDGE('',*,*,#133,.T.);
#133 = EDGE_CURVE('',#134,#134,#136,.T.);
#134 = VERTEX_POINT('',#135);
#135 = CARTESIAN_POINT('',(-4.776122516675E-15,-136.6,19.5));
#136 = CIRCLE('',#137,19.5);
#137 = AXIS2_PLACEMENT_3D('',#138,#139,#140);
#138 = CARTESIAN_POINT('',(0.,-136.6,0.));
#139 = DIRECTION('',(0.,1.,0.));
#140 = DIRECTION('',(-0.,-0.,1.));
#141 = FACE_BOUND('',#142,.F.);
#142 = EDGE_LOOP('',(#143));
#143 = ORIENTED_EDGE('',*,*,#144,.T.);
#144 = EDGE_CURVE('',#145,#145,#147,.T.);
#145 = VERTEX_POINT('',#146);
#146 = CARTESIAN_POINT('',(-1.126675055216E-15,-136.6,-40.4));
#147 = CIRCLE('',#148,4.6);
#148 = AXIS2_PLACEMENT_3D('',#149,#150,#151);
#149 = CARTESIAN_POINT('',(0.,-136.6,-45.));
#150 = DIRECTION('',(0.,1.,0.));
#151 = DIRECTION('',(-0.,-0.,1.));
#152 = PLANE('',#153);
#153 = AXIS2_PLACEMENT_3D('',#154,#155,#156);
#154 = CARTESIAN_POINT('',(-8.431636461863E-16,-136.6,-15.6888066646));
#155 = DIRECTION('',(-0.,1.,-0.));
#156 = DIRECTION('',(0.,0.,1.));
#157 = ADVANCED_FACE('',(#158),#177,.F.);
#158 = FACE_BOUND('',#159,.T.);
#159 = EDGE_LOOP('',(#160,#161,#169,#176));
#160 = ORIENTED_EDGE('',*,*,#80,.T.);
#161 = ORIENTED_EDGE('',*,*,#162,.T.);
#162 = EDGE_CURVE('',#81,#163,#165,.T.);
#163 = VERTEX_POINT('',#164);
#164 = CARTESIAN_POINT('',(-9.75,-139.6,-36.40130823904));
#165 = LINE('',#166,#167);
#166 = CARTESIAN_POINT('',(-9.75,-136.6,-36.40130823904));
#167 = VECTOR('',#168,1.);
#168 = DIRECTION('',(-0.,-1.,-0.));
#169 = ORIENTED_EDGE('',*,*,#170,.F.);
#170 = EDGE_CURVE('',#32,#163,#171,.T.);
#171 = CIRCLE('',#172,3.);
#172 = AXIS2_PLACEMENT_3D('',#173,#174,#175);
#173 = CARTESIAN_POINT('',(-12.,-139.6,-34.41699475574));
#174 = DIRECTION('',(0.,1.,0.));
#175 = DIRECTION('',(-0.,-0.,1.));
#176 = ORIENTED_EDGE('',*,*,#31,.F.);
#177 = CYLINDRICAL_SURFACE('',#178,3.);
#178 = AXIS2_PLACEMENT_3D('',#179,#180,#181);
#179 = CARTESIAN_POINT('',(-12.,-136.6,-34.41699475574));
#180 = DIRECTION('',(-0.,-1.,-0.));
#181 = DIRECTION('',(1.,-0.,-0.));
#182 = ADVANCED_FACE('',(#183),#202,.F.);
#183 = FACE_BOUND('',#184,.F.);
#184 = EDGE_LOOP('',(#185,#186,#194,#201));
#185 = ORIENTED_EDGE('',*,*,#72,.T.);
#186 = ORIENTED_EDGE('',*,*,#187,.T.);
#187 = EDGE_CURVE('',#62,#188,#190,.T.);
#188 = VERTEX_POINT('',#189);
#189 = CARTESIAN_POINT('',(-10.56,-139.6,-19.29990673552));
#190 = LINE('',#191,#192);
#191 = CARTESIAN_POINT('',(-10.56,-136.6,-19.29990673552));
#192 = VECTOR('',#193,1.);
#193 = DIRECTION('',(-0.,-1.,-0.));
#194 = ORIENTED_EDGE('',*,*,#195,.F.);
#195 = EDGE_CURVE('',#40,#188,#196,.T.);
#196 = CIRCLE('',#197,3.);
#197 = AXIS2_PLACEMENT_3D('',#198,#199,#200);
#198 = CARTESIAN_POINT('',(-12.,-139.6,-21.93171219946));
#199 = DIRECTION('',(0.,-1.,0.));
#200 = DIRECTION('',(-0.,-0.,1.));
#201 = ORIENTED_EDGE('',*,*,#47,.F.);
#202 = CYLINDRICAL_SURFACE('',#203,3.);
#203 = AXIS2_PLACEMENT_3D('',#204,#205,#206);
#204 = CARTESIAN_POINT('',(-12.,-136.6,-21.93171219946));
#205 = DIRECTION('',(-0.,-1.,-0.));
#206 = DIRECTION('',(1.,-0.,-0.));
#207 = ADVANCED_FACE('',(#208,#264,#275),#286,.T.);
#208 = FACE_BOUND('',#209,.F.);
#209 = EDGE_LOOP('',(#210,#219,#228,#237,#245,#254,#261,#262,#263));
#210 = ORIENTED_EDGE('',*,*,#211,.T.);
#211 = EDGE_CURVE('',#188,#212,#214,.T.);
#212 = VERTEX_POINT('',#213);
#213 = CARTESIAN_POINT('',(-5.388445916248E-15,-139.6,22.));
#214 = CIRCLE('',#215,22.);
#215 = AXIS2_PLACEMENT_3D('',#216,#217,#218);
#216 = CARTESIAN_POINT('',(0.,-139.6,0.));
#217 = DIRECTION('',(0.,1.,0.));
#218 = DIRECTION('',(-0.,-0.,1.));
#219 = ORIENTED_EDGE('',*,*,#220,.T.);
#220 = EDGE_CURVE('',#212,#221,#223,.T.);
#221 = VERTEX_POINT('',#222);
#222 = CARTESIAN_POINT('',(10.56,-139.6,-19.29990673552));
#223 = CIRCLE('',#224,22.);
#224 = AXIS2_PLACEMENT_3D('',#225,#226,#227);
#225 = CARTESIAN_POINT('',(0.,-139.6,0.));
#226 = DIRECTION('',(0.,1.,0.));
#227 = DIRECTION('',(-0.,-0.,1.));
#228 = ORIENTED_EDGE('',*,*,#229,.F.);
#229 = EDGE_CURVE('',#230,#221,#232,.T.);
#230 = VERTEX_POINT('',#231);
#231 = CARTESIAN_POINT('',(9.,-139.6,-21.93171219946));
#232 = CIRCLE('',#233,3.);
#233 = AXIS2_PLACEMENT_3D('',#234,#235,#236);
#234 = CARTESIAN_POINT('',(12.,-139.6,-21.93171219946));
#235 = DIRECTION('',(0.,1.,0.));
#236 = DIRECTION('',(-0.,-0.,1.));
#237 = ORIENTED_EDGE('',*,*,#238,.F.);
#238 = EDGE_CURVE('',#239,#230,#241,.T.);
#239 = VERTEX_POINT('',#240);
#240 = CARTESIAN_POINT('',(9.,-139.6,-34.41699475574));
#241 = LINE('',#242,#243);
#242 = CARTESIAN_POINT('',(9.,-139.6,-45.));
#243 = VECTOR('',#244,1.);
#244 = DIRECTION('',(-0.,-0.,1.));
#245 = ORIENTED_EDGE('',*,*,#246,.F.);
#246 = EDGE_CURVE('',#247,#239,#249,.T.);
#247 = VERTEX_POINT('',#248);
#248 = CARTESIAN_POINT('',(9.75,-139.6,-36.40130823904));
#249 = CIRCLE('',#250,3.);
#250 = AXIS2_PLACEMENT_3D('',#251,#252,#253);
#251 = CARTESIAN_POINT('',(12.,-139.6,-34.41699475574));
#252 = DIRECTION('',(0.,1.,0.));
#253 = DIRECTION('',(-0.,-0.,1.));
#254 = ORIENTED_EDGE('',*,*,#255,.T.);
#255 = EDGE_CURVE('',#247,#163,#256,.T.);
#256 = CIRCLE('',#257,13.);
#257 = AXIS2_PLACEMENT_3D('',#258,#259,#260);
#258 = CARTESIAN_POINT('',(0.,-139.6,-45.));
#259 = DIRECTION('',(0.,1.,0.));
#260 = DIRECTION('',(-0.,-0.,1.));
#261 = ORIENTED_EDGE('',*,*,#170,.F.);
#262 = ORIENTED_EDGE('',*,*,#39,.T.);
#263 = ORIENTED_EDGE('',*,*,#195,.T.);
#264 = FACE_BOUND('',#265,.F.);
#265 = EDGE_LOOP('',(#266));
#266 = ORIENTED_EDGE('',*,*,#267,.F.);
#267 = EDGE_CURVE('',#268,#268,#270,.T.);
#268 = VERTEX_POINT('',#269);
#269 = CARTESIAN_POINT('',(-9.797174393179E-16,-139.6,-41.));
#270 = CIRCLE('',#271,4.);
#271 = AXIS2_PLACEMENT_3D('',#272,#273,#274);
#272 = CARTESIAN_POINT('',(0.,-139.6,-45.));
#273 = DIRECTION('',(0.,1.,0.));
#274 = DIRECTION('',(-0.,-0.,1.));
#275 = FACE_BOUND('',#276,.F.);
#276 = EDGE_LOOP('',(#277));
#277 = ORIENTED_EDGE('',*,*,#278,.F.);
#278 = EDGE_CURVE('',#279,#279,#281,.T.);
#279 = VERTEX_POINT('',#280);
#280 = CARTESIAN_POINT('',(-4.531193156845E-15,-139.6,18.5));
#281 = CIRCLE('',#282,18.5);
#282 = AXIS2_PLACEMENT_3D('',#283,#284,#285);
#283 = CARTESIAN_POINT('',(0.,-139.6,0.));
#284 = DIRECTION('',(0.,1.,0.));
#285 = DIRECTION('',(-0.,-0.,1.));
#286 = PLANE('',#287);
#287 = AXIS2_PLACEMENT_3D('',#288,#289,#290);
#288 = CARTESIAN_POINT('',(1.405272743644E-16,-139.6,-15.6888066646));
#289 = DIRECTION('',(-0.,-1.,-0.));
#290 = DIRECTION('',(0.,0.,-1.));
#291 = ADVANCED_FACE('',(#292),#305,.T.);
#292 = FACE_BOUND('',#293,.F.);
#293 = EDGE_LOOP('',(#294,#295,#301,#302,#303,#304));
#294 = ORIENTED_EDGE('',*,*,#124,.T.);
#295 = ORIENTED_EDGE('',*,*,#296,.T.);
#296 = EDGE_CURVE('',#116,#221,#297,.T.);
#297 = LINE('',#298,#299);
#298 = CARTESIAN_POINT('',(10.56,-136.6,-19.29990673552));
#299 = VECTOR('',#300,1.);
#300 = DIRECTION('',(-0.,-1.,-0.));
#301 = ORIENTED_EDGE('',*,*,#220,.F.);
#302 = ORIENTED_EDGE('',*,*,#211,.F.);
#303 = ORIENTED_EDGE('',*,*,#187,.F.);
#304 = ORIENTED_EDGE('',*,*,#61,.T.);
#305 = CYLINDRICAL_SURFACE('',#306,22.);
#306 = AXIS2_PLACEMENT_3D('',#307,#308,#309);
#307 = CARTESIAN_POINT('',(0.,-136.6,0.));
#308 = DIRECTION('',(-0.,-1.,-0.));
#309 = DIRECTION('',(-0.,-0.,1.));
#310 = ADVANCED_FACE('',(#311),#322,.F.);
#311 = FACE_BOUND('',#312,.T.);
#312 = EDGE_LOOP('',(#313,#314,#315,#316));
#313 = ORIENTED_EDGE('',*,*,#115,.T.);
#314 = ORIENTED_EDGE('',*,*,#296,.T.);
#315 = ORIENTED_EDGE('',*,*,#229,.F.);
#316 = ORIENTED_EDGE('',*,*,#317,.F.);
#317 = EDGE_CURVE('',#108,#230,#318,.T.);
#318 = LINE('',#319,#320);
#319 = CARTESIAN_POINT('',(9.,-136.6,-21.93171219946));
#320 = VECTOR('',#321,1.);
#321 = DIRECTION('',(-0.,-1.,-0.));
#322 = CYLINDRICAL_SURFACE('',#323,3.);
#323 = AXIS2_PLACEMENT_3D('',#324,#325,#326);
#324 = CARTESIAN_POINT('',(12.,-136.6,-21.93171219946));
#325 = DIRECTION('',(-0.,-1.,-0.));
#326 = DIRECTION('',(-1.,-0.,-0.));
#327 = ADVANCED_FACE('',(#328),#339,.T.);
#328 = FACE_BOUND('',#329,.F.);
#329 = EDGE_LOOP('',(#330,#331,#337,#338));
#330 = ORIENTED_EDGE('',*,*,#107,.F.);
#331 = ORIENTED_EDGE('',*,*,#332,.T.);
#332 = EDGE_CURVE('',#99,#239,#333,.T.);
#333 = LINE('',#334,#335);
#334 = CARTESIAN_POINT('',(9.,-136.6,-34.41699475574));
#335 = VECTOR('',#336,1.);
#336 = DIRECTION('',(-0.,-1.,-0.));
#337 = ORIENTED_EDGE('',*,*,#238,.T.);
#338 = ORIENTED_EDGE('',*,*,#317,.F.);
#339 = PLANE('',#340);
#340 = AXIS2_PLACEMENT_3D('',#341,#342,#343);
#341 = CARTESIAN_POINT('',(9.,-136.6,-45.));
#342 = DIRECTION('',(1.,-0.,-0.));
#343 = DIRECTION('',(0.,0.,-1.));
#344 = ADVANCED_FACE('',(#345),#356,.T.);
#345 = FACE_BOUND('',#346,.F.);
#346 = EDGE_LOOP('',(#347,#348,#354,#355));
#347 = ORIENTED_EDGE('',*,*,#255,.F.);
#348 = ORIENTED_EDGE('',*,*,#349,.F.);
#349 = EDGE_CURVE('',#90,#247,#350,.T.);
#350 = LINE('',#351,#352);
#351 = CARTESIAN_POINT('',(9.75,-136.6,-36.40130823904));
#352 = VECTOR('',#353,1.);
#353 = DIRECTION('',(-0.,-1.,-0.));
#354 = ORIENTED_EDGE('',*,*,#89,.T.);
#355 = ORIENTED_EDGE('',*,*,#162,.T.);
#356 = CYLINDRICAL_SURFACE('',#357,13.);
#357 = AXIS2_PLACEMENT_3D('',#358,#359,#360);
#358 = CARTESIAN_POINT('',(0.,-136.6,-45.));
#359 = DIRECTION('',(-0.,-1.,-0.));
#360 = DIRECTION('',(-0.,-0.,1.));
#361 = ADVANCED_FACE('',(#362),#368,.F.);
#362 = FACE_BOUND('',#363,.T.);
#363 = EDGE_LOOP('',(#364,#365,#366,#367));
#364 = ORIENTED_EDGE('',*,*,#98,.T.);
#365 = ORIENTED_EDGE('',*,*,#332,.T.);
#366 = ORIENTED_EDGE('',*,*,#246,.F.);
#367 = ORIENTED_EDGE('',*,*,#349,.F.);
#368 = CYLINDRICAL_SURFACE('',#369,3.);
#369 = AXIS2_PLACEMENT_3D('',#370,#371,#372);
#370 = CARTESIAN_POINT('',(12.,-136.6,-34.41699475574));
#371 = DIRECTION('',(-0.,-1.,-0.));
#372 = DIRECTION('',(-0.75,-0.,-0.661437827766));
#373 = ADVANCED_FACE('',(#374),#393,.T.);
#374 = FACE_BOUND('',#375,.F.);
#375 = EDGE_LOOP('',(#376,#377,#385,#392));
#376 = ORIENTED_EDGE('',*,*,#133,.F.);
#377 = ORIENTED_EDGE('',*,*,#378,.F.);
#378 = EDGE_CURVE('',#379,#134,#381,.T.);
#379 = VERTEX_POINT('',#380);
#380 = CARTESIAN_POINT('',(-4.776122516675E-15,-132.3,19.5));
#381 = LINE('',#382,#383);
#382 = CARTESIAN_POINT('',(-4.776122516675E-15,-132.3,19.5));
#383 = VECTOR('',#384,1.);
#384 = DIRECTION('',(-0.,-1.,-0.));
#385 = ORIENTED_EDGE('',*,*,#386,.T.);
#386 = EDGE_CURVE('',#379,#379,#387,.T.);
#387 = CIRCLE('',#388,19.5);
#388 = AXIS2_PLACEMENT_3D('',#389,#390,#391);
#389 = CARTESIAN_POINT('',(0.,-132.3,0.));
#390 = DIRECTION('',(0.,1.,0.));
#391 = DIRECTION('',(-0.,-0.,1.));
#392 = ORIENTED_EDGE('',*,*,#378,.T.);
#393 = CYLINDRICAL_SURFACE('',#394,19.5);
#394 = AXIS2_PLACEMENT_3D('',#395,#396,#397);
#395 = CARTESIAN_POINT('',(0.,-132.3,0.));
#396 = DIRECTION('',(-0.,-1.,-0.));
#397 = DIRECTION('',(-0.,-0.,1.));
#398 = ADVANCED_FACE('',(#399),#418,.F.);
#399 = FACE_BOUND('',#400,.T.);
#400 = EDGE_LOOP('',(#401,#409,#416,#417));
#401 = ORIENTED_EDGE('',*,*,#402,.T.);
#402 = EDGE_CURVE('',#145,#403,#405,.T.);
#403 = VERTEX_POINT('',#404);
#404 = CARTESIAN_POINT('',(-1.126675055216E-15,-137.1,-40.4));
#405 = LINE('',#406,#407);
#406 = CARTESIAN_POINT('',(-1.126675055216E-15,-131.1,-40.4));
#407 = VECTOR('',#408,1.);
#408 = DIRECTION('',(-0.,-1.,-0.));
#409 = ORIENTED_EDGE('',*,*,#410,.F.);
#410 = EDGE_CURVE('',#403,#403,#411,.T.);
#411 = CIRCLE('',#412,4.6);
#412 = AXIS2_PLACEMENT_3D('',#413,#414,#415);
#413 = CARTESIAN_POINT('',(0.,-137.1,-45.));
#414 = DIRECTION('',(0.,1.,0.));
#415 = DIRECTION('',(-0.,-0.,1.));
#416 = ORIENTED_EDGE('',*,*,#402,.F.);
#417 = ORIENTED_EDGE('',*,*,#144,.T.);
#418 = CYLINDRICAL_SURFACE('',#419,4.6);
#419 = AXIS2_PLACEMENT_3D('',#420,#421,#422);
#420 = CARTESIAN_POINT('',(0.,-131.1,-45.));
#421 = DIRECTION('',(-0.,-1.,-0.));
#422 = DIRECTION('',(-0.,-0.,1.));
#423 = ADVANCED_FACE('',(#424),#443,.F.);
#424 = FACE_BOUND('',#425,.T.);
#425 = EDGE_LOOP('',(#426,#434,#435,#436));
#426 = ORIENTED_EDGE('',*,*,#427,.T.);
#427 = EDGE_CURVE('',#428,#268,#430,.T.);
#428 = VERTEX_POINT('',#429);
#429 = CARTESIAN_POINT('',(-9.797174393179E-16,-137.1,-41.));
#430 = LINE('',#431,#432);
#431 = CARTESIAN_POINT('',(-9.797174393179E-16,-131.1,-41.));
#432 = VECTOR('',#433,1.);
#433 = DIRECTION('',(-0.,-1.,-0.));
#434 = ORIENTED_EDGE('',*,*,#267,.F.);
#435 = ORIENTED_EDGE('',*,*,#427,.F.);
#436 = ORIENTED_EDGE('',*,*,#437,.T.);
#437 = EDGE_CURVE('',#428,#428,#438,.T.);
#438 = CIRCLE('',#439,4.);
#439 = AXIS2_PLACEMENT_3D('',#440,#441,#442);
#440 = CARTESIAN_POINT('',(0.,-137.1,-45.));
#441 = DIRECTION('',(0.,1.,0.));
#442 = DIRECTION('',(-0.,-0.,1.));
#443 = CYLINDRICAL_SURFACE('',#444,4.);
#444 = AXIS2_PLACEMENT_3D('',#445,#446,#447);
#445 = CARTESIAN_POINT('',(0.,-131.1,-45.));
#446 = DIRECTION('',(-0.,-1.,-0.));
#447 = DIRECTION('',(-0.,-0.,1.));
#448 = ADVANCED_FACE('',(#449),#468,.T.);
#449 = FACE_BOUND('',#450,.F.);
#450 = EDGE_LOOP('',(#451,#460,#466,#467));
#451 = ORIENTED_EDGE('',*,*,#452,.F.);
#452 = EDGE_CURVE('',#453,#453,#455,.T.);
#453 = VERTEX_POINT('',#454);
#454 = CARTESIAN_POINT('',(-4.531193156845E-15,-148.6,18.5));
#455 = CIRCLE('',#456,18.5);
#456 = AXIS2_PLACEMENT_3D('',#457,#458,#459);
#457 = CARTESIAN_POINT('',(0.,-148.6,0.));
#458 = DIRECTION('',(0.,1.,0.));
#459 = DIRECTION('',(-0.,-0.,1.));
#460 = ORIENTED_EDGE('',*,*,#461,.F.);
#461 = EDGE_CURVE('',#279,#453,#462,.T.);
#462 = LINE('',#463,#464);
#463 = CARTESIAN_POINT('',(-4.531193156845E-15,-136.5,18.5));
#464 = VECTOR('',#465,1.);
#465 = DIRECTION('',(-0.,-1.,-0.));
#466 = ORIENTED_EDGE('',*,*,#278,.T.);
#467 = ORIENTED_EDGE('',*,*,#461,.T.);
#468 = CYLINDRICAL_SURFACE('',#469,18.5);
#469 = AXIS2_PLACEMENT_3D('',#470,#471,#472);
#470 = CARTESIAN_POINT('',(0.,-136.5,0.));
#471 = DIRECTION('',(-0.,-1.,-0.));
#472 = DIRECTION('',(-0.,-0.,1.));
#473 = ADVANCED_FACE('',(#474,#477),#488,.F.);
#474 = FACE_BOUND('',#475,.T.);
#475 = EDGE_LOOP('',(#476));
#476 = ORIENTED_EDGE('',*,*,#386,.T.);
#477 = FACE_BOUND('',#478,.T.);
#478 = EDGE_LOOP('',(#479));
#479 = ORIENTED_EDGE('',*,*,#480,.F.);
#480 = EDGE_CURVE('',#481,#481,#483,.T.);
#481 = VERTEX_POINT('',#482);
#482 = CARTESIAN_POINT('',(-4.292387031011E-15,-132.3,17.525));
#483 = CIRCLE('',#484,17.525);
#484 = AXIS2_PLACEMENT_3D('',#485,#486,#487);
#485 = CARTESIAN_POINT('',(0.,-132.3,0.));
#486 = DIRECTION('',(0.,1.,0.));
#487 = DIRECTION('',(-0.,-0.,1.));
#488 = PLANE('',#489);
#489 = AXIS2_PLACEMENT_3D('',#490,#491,#492);
#490 = CARTESIAN_POINT('',(0.,-132.3,0.));
#491 = DIRECTION('',(-0.,-1.,-0.));
#492 = DIRECTION('',(0.,0.,-1.));
#493 = ADVANCED_FACE('',(#494,#497),#500,.F.);
#494 = FACE_BOUND('',#495,.T.);
#495 = EDGE_LOOP('',(#496));
#496 = ORIENTED_EDGE('',*,*,#410,.T.);
#497 = FACE_BOUND('',#498,.T.);
#498 = EDGE_LOOP('',(#499));
#499 = ORIENTED_EDGE('',*,*,#437,.F.);
#500 = PLANE('',#501);
#501 = AXIS2_PLACEMENT_3D('',#502,#503,#504);
#502 = CARTESIAN_POINT('',(0.,-137.1,-45.));
#503 = DIRECTION('',(-0.,-1.,-0.));
#504 = DIRECTION('',(0.,0.,-1.));
#505 = ADVANCED_FACE('',(#506,#587,#590,#601),#612,.T.);
#506 = FACE_BOUND('',#507,.F.);
#507 = EDGE_LOOP('',(#508,#519,#528,#536,#545,#554,#563,#571,#580));
#508 = ORIENTED_EDGE('',*,*,#509,.F.);
#509 = EDGE_CURVE('',#510,#512,#514,.T.);
#510 = VERTEX_POINT('',#511);
#511 = CARTESIAN_POINT('',(-10.56,-148.6,-19.29990673552));
#512 = VERTEX_POINT('',#513);
#513 = CARTESIAN_POINT('',(-5.388445916248E-15,-148.6,22.));
#514 = CIRCLE('',#515,22.);
#515 = AXIS2_PLACEMENT_3D('',#516,#517,#518);
#516 = CARTESIAN_POINT('',(0.,-148.6,0.));
#517 = DIRECTION('',(0.,1.,0.));
#518 = DIRECTION('',(-0.,-0.,1.));
#519 = ORIENTED_EDGE('',*,*,#520,.F.);
#520 = EDGE_CURVE('',#521,#510,#523,.T.);
#521 = VERTEX_POINT('',#522);
#522 = CARTESIAN_POINT('',(-9.,-148.6,-21.93171219946));
#523 = CIRCLE('',#524,3.);
#524 = AXIS2_PLACEMENT_3D('',#525,#526,#527);
#525 = CARTESIAN_POINT('',(-12.,-148.6,-21.93171219946));
#526 = DIRECTION('',(0.,-1.,0.));
#527 = DIRECTION('',(-0.,-0.,1.));
#528 = ORIENTED_EDGE('',*,*,#529,.F.);
#529 = EDGE_CURVE('',#530,#521,#532,.T.);
#530 = VERTEX_POINT('',#531);
#531 = CARTESIAN_POINT('',(-9.,-148.6,-34.41699475574));
#532 = LINE('',#533,#534);
#533 = CARTESIAN_POINT('',(-9.,-148.6,-45.));
#534 = VECTOR('',#535,1.);
#535 = DIRECTION('',(-0.,-0.,1.));
#536 = ORIENTED_EDGE('',*,*,#537,.T.);
#537 = EDGE_CURVE('',#530,#538,#540,.T.);
#538 = VERTEX_POINT('',#539);
#539 = CARTESIAN_POINT('',(-9.75,-148.6,-36.40130823904));
#540 = CIRCLE('',#541,3.);
#541 = AXIS2_PLACEMENT_3D('',#542,#543,#544);
#542 = CARTESIAN_POINT('',(-12.,-148.6,-34.41699475574));
#543 = DIRECTION('',(0.,1.,0.));
#544 = DIRECTION('',(-0.,-0.,1.));
#545 = ORIENTED_EDGE('',*,*,#546,.F.);
#546 = EDGE_CURVE('',#547,#538,#549,.T.);
#547 = VERTEX_POINT('',#548);
#548 = CARTESIAN_POINT('',(9.75,-148.6,-36.40130823904));
#549 = CIRCLE('',#550,13.);
#550 = AXIS2_PLACEMENT_3D('',#551,#552,#553);
#551 = CARTESIAN_POINT('',(0.,-148.6,-45.));
#552 = DIRECTION('',(0.,1.,0.));
#553 = DIRECTION('',(-0.,-0.,1.));
#554 = ORIENTED_EDGE('',*,*,#555,.T.);
#555 = EDGE_CURVE('',#547,#556,#558,.T.);
#556 = VERTEX_POINT('',#557);
#557 = CARTESIAN_POINT('',(9.,-148.6,-34.41699475574));
#558 = CIRCLE('',#559,3.);
#559 = AXIS2_PLACEMENT_3D('',#560,#561,#562);
#560 = CARTESIAN_POINT('',(12.,-148.6,-34.41699475574));
#561 = DIRECTION('',(0.,1.,0.));
#562 = DIRECTION('',(-0.,-0.,1.));
#563 = ORIENTED_EDGE('',*,*,#564,.T.);
#564 = EDGE_CURVE('',#556,#565,#567,.T.);
#565 = VERTEX_POINT('',#566);
#566 = CARTESIAN_POINT('',(9.,-148.6,-21.93171219946));
#567 = LINE('',#568,#569);
#568 = CARTESIAN_POINT('',(9.,-148.6,-45.));
#569 = VECTOR('',#570,1.);
#570 = DIRECTION('',(-0.,-0.,1.));
#571 = ORIENTED_EDGE('',*,*,#572,.T.);
#572 = EDGE_CURVE('',#565,#573,#575,.T.);
#573 = VERTEX_POINT('',#574);
#574 = CARTESIAN_POINT('',(10.56,-148.6,-19.29990673552));
#575 = CIRCLE('',#576,3.);
#576 = AXIS2_PLACEMENT_3D('',#577,#578,#579);
#577 = CARTESIAN_POINT('',(12.,-148.6,-21.93171219946));
#578 = DIRECTION('',(0.,1.,0.));
#579 = DIRECTION('',(-0.,-0.,1.));
#580 = ORIENTED_EDGE('',*,*,#581,.F.);
#581 = EDGE_CURVE('',#512,#573,#582,.T.);
#582 = CIRCLE('',#583,22.);
#583 = AXIS2_PLACEMENT_3D('',#584,#585,#586);
#584 = CARTESIAN_POINT('',(0.,-148.6,0.));
#585 = DIRECTION('',(0.,1.,0.));
#586 = DIRECTION('',(-0.,-0.,1.));
#587 = FACE_BOUND('',#588,.F.);
#588 = EDGE_LOOP('',(#589));
#589 = ORIENTED_EDGE('',*,*,#452,.T.);
#590 = FACE_BOUND('',#591,.F.);
#591 = EDGE_LOOP('',(#592));
#592 = ORIENTED_EDGE('',*,*,#593,.T.);
#593 = EDGE_CURVE('',#594,#594,#596,.T.);
#594 = VERTEX_POINT('',#595);
#595 = CARTESIAN_POINT('',(-3.061616997868E-16,-148.6,-21.75));
#596 = CIRCLE('',#597,1.25);
#597 = AXIS2_PLACEMENT_3D('',#598,#599,#600);
#598 = CARTESIAN_POINT('',(0.,-148.6,-23.));
#599 = DIRECTION('',(0.,1.,0.));
#600 = DIRECTION('',(-0.,-0.,1.));
#601 = FACE_BOUND('',#602,.F.);
#602 = EDGE_LOOP('',(#603));
#603 = ORIENTED_EDGE('',*,*,#604,.T.);
#604 = EDGE_CURVE('',#605,#605,#607,.T.);
#605 = VERTEX_POINT('',#606);
#606 = CARTESIAN_POINT('',(-9.797174393179E-16,-148.6,-41.));
#607 = CIRCLE('',#608,4.);
#608 = AXIS2_PLACEMENT_3D('',#609,#610,#611);
#609 = CARTESIAN_POINT('',(0.,-148.6,-45.));
#610 = DIRECTION('',(0.,1.,0.));
#611 = DIRECTION('',(-0.,-0.,1.));
#612 = PLANE('',#613);
#613 = AXIS2_PLACEMENT_3D('',#614,#615,#616);
#614 = CARTESIAN_POINT('',(-8.431636461863E-16,-148.6,-15.6888066646));
#615 = DIRECTION('',(-0.,1.,-0.));
#616 = DIRECTION('',(0.,0.,1.));
#617 = ADVANCED_FACE('',(#618),#637,.F.);
#618 = FACE_BOUND('',#619,.T.);
#619 = EDGE_LOOP('',(#620,#628,#635,#636));
#620 = ORIENTED_EDGE('',*,*,#621,.T.);
#621 = EDGE_CURVE('',#481,#622,#624,.T.);
#622 = VERTEX_POINT('',#623);
#623 = CARTESIAN_POINT('',(-4.292387031011E-15,-133.1,17.525));
#624 = LINE('',#625,#626);
#625 = CARTESIAN_POINT('',(-4.292387031011E-15,-131.1,17.525));
#626 = VECTOR('',#627,1.);
#627 = DIRECTION('',(-0.,-1.,-0.));
#628 = ORIENTED_EDGE('',*,*,#629,.F.);
#629 = EDGE_CURVE('',#622,#622,#630,.T.);
#630 = CIRCLE('',#631,17.525);
#631 = AXIS2_PLACEMENT_3D('',#632,#633,#634);
#632 = CARTESIAN_POINT('',(0.,-133.1,0.));
#633 = DIRECTION('',(0.,1.,0.));
#634 = DIRECTION('',(-0.,-0.,1.));
#635 = ORIENTED_EDGE('',*,*,#621,.F.);
#636 = ORIENTED_EDGE('',*,*,#480,.T.);
#637 = CYLINDRICAL_SURFACE('',#638,17.525);
#638 = AXIS2_PLACEMENT_3D('',#639,#640,#641);
#639 = CARTESIAN_POINT('',(0.,-131.1,0.));
#640 = DIRECTION('',(-0.,-1.,-0.));
#641 = DIRECTION('',(-0.,-0.,1.));
#642 = ADVANCED_FACE('',(#643),#679,.T.);
#643 = FACE_BOUND('',#644,.F.);
#644 = EDGE_LOOP('',(#645,#646,#654,#663,#672,#678));
#645 = ORIENTED_EDGE('',*,*,#581,.T.);
#646 = ORIENTED_EDGE('',*,*,#647,.T.);
#647 = EDGE_CURVE('',#573,#648,#650,.T.);
#648 = VERTEX_POINT('',#649);
#649 = CARTESIAN_POINT('',(10.56,-151.6,-19.29990673552));
#650 = LINE('',#651,#652);
#651 = CARTESIAN_POINT('',(10.56,-148.6,-19.29990673552));
#652 = VECTOR('',#653,1.);
#653 = DIRECTION('',(-0.,-1.,-0.));
#654 = ORIENTED_EDGE('',*,*,#655,.F.);
#655 = EDGE_CURVE('',#656,#648,#658,.T.);
#656 = VERTEX_POINT('',#657);
#657 = CARTESIAN_POINT('',(-5.388445916248E-15,-151.6,22.));
#658 = CIRCLE('',#659,22.);
#659 = AXIS2_PLACEMENT_3D('',#660,#661,#662);
#660 = CARTESIAN_POINT('',(0.,-151.6,0.));
#661 = DIRECTION('',(0.,1.,0.));
#662 = DIRECTION('',(-0.,-0.,1.));
#663 = ORIENTED_EDGE('',*,*,#664,.F.);
#664 = EDGE_CURVE('',#665,#656,#667,.T.);
#665 = VERTEX_POINT('',#666);
#666 = CARTESIAN_POINT('',(-10.56,-151.6,-19.29990673552));
#667 = CIRCLE('',#668,22.);
#668 = AXIS2_PLACEMENT_3D('',#669,#670,#671);
#669 = CARTESIAN_POINT('',(0.,-151.6,0.));
#670 = DIRECTION('',(0.,1.,0.));
#671 = DIRECTION('',(-0.,-0.,1.));
#672 = ORIENTED_EDGE('',*,*,#673,.F.);
#673 = EDGE_CURVE('',#510,#665,#674,.T.);
#674 = LINE('',#675,#676);
#675 = CARTESIAN_POINT('',(-10.56,-148.6,-19.29990673552));
#676 = VECTOR('',#677,1.);
#677 = DIRECTION('',(-0.,-1.,-0.));
#678 = ORIENTED_EDGE('',*,*,#509,.T.);
#679 = CYLINDRICAL_SURFACE('',#680,22.);
#680 = AXIS2_PLACEMENT_3D('',#681,#682,#683);
#681 = CARTESIAN_POINT('',(0.,-148.6,0.));
#682 = DIRECTION('',(-0.,-1.,-0.));
#683 = DIRECTION('',(-0.,-0.,1.));
#684 = ADVANCED_FACE('',(#685),#704,.F.);
#685 = FACE_BOUND('',#686,.F.);
#686 = EDGE_LOOP('',(#687,#688,#689,#698));
#687 = ORIENTED_EDGE('',*,*,#520,.T.);
#688 = ORIENTED_EDGE('',*,*,#673,.T.);
#689 = ORIENTED_EDGE('',*,*,#690,.F.);
#690 = EDGE_CURVE('',#691,#665,#693,.T.);
#691 = VERTEX_POINT('',#692);
#692 = CARTESIAN_POINT('',(-9.,-151.6,-21.93171219946));
#693 = CIRCLE('',#694,3.);
#694 = AXIS2_PLACEMENT_3D('',#695,#696,#697);
#695 = CARTESIAN_POINT('',(-12.,-151.6,-21.93171219946));
#696 = DIRECTION('',(0.,-1.,0.));
#697 = DIRECTION('',(-0.,-0.,1.));
#698 = ORIENTED_EDGE('',*,*,#699,.F.);
#699 = EDGE_CURVE('',#521,#691,#700,.T.);
#700 = LINE('',#701,#702);
#701 = CARTESIAN_POINT('',(-9.,-148.6,-21.93171219946));
#702 = VECTOR('',#703,1.);
#703 = DIRECTION('',(-0.,-1.,-0.));
#704 = CYLINDRICAL_SURFACE('',#705,3.);
#705 = AXIS2_PLACEMENT_3D('',#706,#707,#708);
#706 = CARTESIAN_POINT('',(-12.,-148.6,-21.93171219946));
#707 = DIRECTION('',(-0.,-1.,-0.));
#708 = DIRECTION('',(1.,-0.,-0.));
#709 = ADVANCED_FACE('',(#710),#728,.F.);
#710 = FACE_BOUND('',#711,.T.);
#711 = EDGE_LOOP('',(#712,#713,#721,#727));
#712 = ORIENTED_EDGE('',*,*,#529,.F.);
#713 = ORIENTED_EDGE('',*,*,#714,.T.);
#714 = EDGE_CURVE('',#530,#715,#717,.T.);
#715 = VERTEX_POINT('',#716);
#716 = CARTESIAN_POINT('',(-9.,-151.6,-34.41699475574));
#717 = LINE('',#718,#719);
#718 = CARTESIAN_POINT('',(-9.,-148.6,-34.41699475574));
#719 = VECTOR('',#720,1.);
#720 = DIRECTION('',(-0.,-1.,-0.));
#721 = ORIENTED_EDGE('',*,*,#722,.T.);
#722 = EDGE_CURVE('',#715,#691,#723,.T.);
#723 = LINE('',#724,#725);
#724 = CARTESIAN_POINT('',(-9.,-151.6,-45.));
#725 = VECTOR('',#726,1.);
#726 = DIRECTION('',(-0.,-0.,1.));
#727 = ORIENTED_EDGE('',*,*,#699,.F.);
#728 = PLANE('',#729);
#729 = AXIS2_PLACEMENT_3D('',#730,#731,#732);
#730 = CARTESIAN_POINT('',(-9.,-148.6,-45.));
#731 = DIRECTION('',(1.,-0.,-0.));
#732 = DIRECTION('',(0.,0.,-1.));
#733 = ADVANCED_FACE('',(#734),#753,.F.);
#734 = FACE_BOUND('',#735,.T.);
#735 = EDGE_LOOP('',(#736,#737,#738,#747));
#736 = ORIENTED_EDGE('',*,*,#572,.T.);
#737 = ORIENTED_EDGE('',*,*,#647,.T.);
#738 = ORIENTED_EDGE('',*,*,#739,.F.);
#739 = EDGE_CURVE('',#740,#648,#742,.T.);
#740 = VERTEX_POINT('',#741);
#741 = CARTESIAN_POINT('',(9.,-151.6,-21.93171219946));
#742 = CIRCLE('',#743,3.);
#743 = AXIS2_PLACEMENT_3D('',#744,#745,#746);
#744 = CARTESIAN_POINT('',(12.,-151.6,-21.93171219946));
#745 = DIRECTION('',(0.,1.,0.));
#746 = DIRECTION('',(-0.,-0.,1.));
#747 = ORIENTED_EDGE('',*,*,#748,.F.);
#748 = EDGE_CURVE('',#565,#740,#749,.T.);
#749 = LINE('',#750,#751);
#750 = CARTESIAN_POINT('',(9.,-148.6,-21.93171219946));
#751 = VECTOR('',#752,1.);
#752 = DIRECTION('',(-0.,-1.,-0.));
#753 = CYLINDRICAL_SURFACE('',#754,3.);
#754 = AXIS2_PLACEMENT_3D('',#755,#756,#757);
#755 = CARTESIAN_POINT('',(12.,-148.6,-21.93171219946));
#756 = DIRECTION('',(-0.,-1.,-0.));
#757 = DIRECTION('',(-1.,-0.,-0.));
#758 = ADVANCED_FACE('',(#759),#778,.F.);
#759 = FACE_BOUND('',#760,.T.);
#760 = EDGE_LOOP('',(#761,#762,#770,#777));
#761 = ORIENTED_EDGE('',*,*,#537,.T.);
#762 = ORIENTED_EDGE('',*,*,#763,.T.);
#763 = EDGE_CURVE('',#538,#764,#766,.T.);
#764 = VERTEX_POINT('',#765);
#765 = CARTESIAN_POINT('',(-9.75,-151.6,-36.40130823904));
#766 = LINE('',#767,#768);
#767 = CARTESIAN_POINT('',(-9.75,-148.6,-36.40130823904));
#768 = VECTOR('',#769,1.);
#769 = DIRECTION('',(-0.,-1.,-0.));
#770 = ORIENTED_EDGE('',*,*,#771,.F.);
#771 = EDGE_CURVE('',#715,#764,#772,.T.);
#772 = CIRCLE('',#773,3.);
#773 = AXIS2_PLACEMENT_3D('',#774,#775,#776);
#774 = CARTESIAN_POINT('',(-12.,-151.6,-34.41699475574));
#775 = DIRECTION('',(0.,1.,0.));
#776 = DIRECTION('',(-0.,-0.,1.));
#777 = ORIENTED_EDGE('',*,*,#714,.F.);
#778 = CYLINDRICAL_SURFACE('',#779,3.);
#779 = AXIS2_PLACEMENT_3D('',#780,#781,#782);
#780 = CARTESIAN_POINT('',(-12.,-148.6,-34.41699475574));
#781 = DIRECTION('',(-0.,-1.,-0.));
#782 = DIRECTION('',(1.,-0.,-0.));
#783 = ADVANCED_FACE('',(#784),#802,.T.);
#784 = FACE_BOUND('',#785,.F.);
#785 = EDGE_LOOP('',(#786,#787,#795,#801));
#786 = ORIENTED_EDGE('',*,*,#564,.F.);
#787 = ORIENTED_EDGE('',*,*,#788,.T.);
#788 = EDGE_CURVE('',#556,#789,#791,.T.);
#789 = VERTEX_POINT('',#790);
#790 = CARTESIAN_POINT('',(9.,-151.6,-34.41699475574));
#791 = LINE('',#792,#793);
#792 = CARTESIAN_POINT('',(9.,-148.6,-34.41699475574));
#793 = VECTOR('',#794,1.);
#794 = DIRECTION('',(-0.,-1.,-0.));
#795 = ORIENTED_EDGE('',*,*,#796,.T.);
#796 = EDGE_CURVE('',#789,#740,#797,.T.);
#797 = LINE('',#798,#799);
#798 = CARTESIAN_POINT('',(9.,-151.6,-45.));
#799 = VECTOR('',#800,1.);
#800 = DIRECTION('',(-0.,-0.,1.));
#801 = ORIENTED_EDGE('',*,*,#748,.F.);
#802 = PLANE('',#803);
#803 = AXIS2_PLACEMENT_3D('',#804,#805,#806);
#804 = CARTESIAN_POINT('',(9.,-148.6,-45.));
#805 = DIRECTION('',(1.,-0.,-0.));
#806 = DIRECTION('',(0.,0.,-1.));
#807 = ADVANCED_FACE('',(#808),#827,.T.);
#808 = FACE_BOUND('',#809,.F.);
#809 = EDGE_LOOP('',(#810,#819,#825,#826));
#810 = ORIENTED_EDGE('',*,*,#811,.F.);
#811 = EDGE_CURVE('',#812,#764,#814,.T.);
#812 = VERTEX_POINT('',#813);
#813 = CARTESIAN_POINT('',(9.75,-151.6,-36.40130823904));
#814 = CIRCLE('',#815,13.);
#815 = AXIS2_PLACEMENT_3D('',#816,#817,#818);
#816 = CARTESIAN_POINT('',(0.,-151.6,-45.));
#817 = DIRECTION('',(0.,1.,0.));
#818 = DIRECTION('',(-0.,-0.,1.));
#819 = ORIENTED_EDGE('',*,*,#820,.F.);
#820 = EDGE_CURVE('',#547,#812,#821,.T.);
#821 = LINE('',#822,#823);
#822 = CARTESIAN_POINT('',(9.75,-148.6,-36.40130823904));
#823 = VECTOR('',#824,1.);
#824 = DIRECTION('',(-0.,-1.,-0.));
#825 = ORIENTED_EDGE('',*,*,#546,.T.);
#826 = ORIENTED_EDGE('',*,*,#763,.T.);
#827 = CYLINDRICAL_SURFACE('',#828,13.);
#828 = AXIS2_PLACEMENT_3D('',#829,#830,#831);
#829 = CARTESIAN_POINT('',(0.,-148.6,-45.));
#830 = DIRECTION('',(-0.,-1.,-0.));
#831 = DIRECTION('',(-0.,-0.,1.));
#832 = ADVANCED_FACE('',(#833),#845,.F.);
#833 = FACE_BOUND('',#834,.T.);
#834 = EDGE_LOOP('',(#835,#836,#837,#844));
#835 = ORIENTED_EDGE('',*,*,#555,.T.);
#836 = ORIENTED_EDGE('',*,*,#788,.T.);
#837 = ORIENTED_EDGE('',*,*,#838,.F.);
#838 = EDGE_CURVE('',#812,#789,#839,.T.);
#839 = CIRCLE('',#840,3.);
#840 = AXIS2_PLACEMENT_3D('',#841,#842,#843);
#841 = CARTESIAN_POINT('',(12.,-151.6,-34.41699475574));
#842 = DIRECTION('',(0.,1.,0.));
#843 = DIRECTION('',(-0.,-0.,1.));
#844 = ORIENTED_EDGE('',*,*,#820,.F.);
#845 = CYLINDRICAL_SURFACE('',#846,3.);
#846 = AXIS2_PLACEMENT_3D('',#847,#848,#849);
#847 = CARTESIAN_POINT('',(12.,-148.6,-34.41699475574));
#848 = DIRECTION('',(-0.,-1.,-0.));
#849 = DIRECTION('',(-0.75,-0.,-0.661437827766));
#850 = ADVANCED_FACE('',(#851),#870,.F.);
#851 = FACE_BOUND('',#852,.T.);
#852 = EDGE_LOOP('',(#853,#862,#868,#869));
#853 = ORIENTED_EDGE('',*,*,#854,.F.);
#854 = EDGE_CURVE('',#855,#855,#857,.T.);
#855 = VERTEX_POINT('',#856);
#856 = CARTESIAN_POINT('',(-3.061616997868E-16,-151.6,-21.75));
#857 = CIRCLE('',#858,1.25);
#858 = AXIS2_PLACEMENT_3D('',#859,#860,#861);
#859 = CARTESIAN_POINT('',(0.,-151.6,-23.));
#860 = DIRECTION('',(0.,1.,0.));
#861 = DIRECTION('',(-0.,-0.,1.));
#862 = ORIENTED_EDGE('',*,*,#863,.F.);
#863 = EDGE_CURVE('',#594,#855,#864,.T.);
#864 = LINE('',#865,#866);
#865 = CARTESIAN_POINT('',(-3.061616997868E-16,-148.5,-21.75));
#866 = VECTOR('',#867,1.);
#867 = DIRECTION('',(-0.,-1.,-0.));
#868 = ORIENTED_EDGE('',*,*,#593,.T.);
#869 = ORIENTED_EDGE('',*,*,#863,.T.);
#870 = CYLINDRICAL_SURFACE('',#871,1.25);
#871 = AXIS2_PLACEMENT_3D('',#872,#873,#874);
#872 = CARTESIAN_POINT('',(0.,-148.5,-23.));
#873 = DIRECTION('',(-0.,-1.,-0.));
#874 = DIRECTION('',(-0.,-0.,1.));
#875 = ADVANCED_FACE('',(#876),#895,.F.);
#876 = FACE_BOUND('',#877,.T.);
#877 = EDGE_LOOP('',(#878,#887,#893,#894));
#878 = ORIENTED_EDGE('',*,*,#879,.F.);
#879 = EDGE_CURVE('',#880,#880,#882,.T.);
#880 = VERTEX_POINT('',#881);
#881 = CARTESIAN_POINT('',(-9.797174393179E-16,-151.1,-41.));
#882 = CIRCLE('',#883,4.);
#883 = AXIS2_PLACEMENT_3D('',#884,#885,#886);
#884 = CARTESIAN_POINT('',(0.,-151.1,-45.));
#885 = DIRECTION('',(0.,1.,0.));
#886 = DIRECTION('',(-0.,-0.,1.));
#887 = ORIENTED_EDGE('',*,*,#888,.F.);
#888 = EDGE_CURVE('',#605,#880,#889,.T.);
#889 = LINE('',#890,#891);
#890 = CARTESIAN_POINT('',(-9.797174393179E-16,-131.1,-41.));
#891 = VECTOR('',#892,1.);
#892 = DIRECTION('',(-0.,-1.,-0.));
#893 = ORIENTED_EDGE('',*,*,#604,.T.);
#894 = ORIENTED_EDGE('',*,*,#888,.T.);
#895 = CYLINDRICAL_SURFACE('',#896,4.);
#896 = AXIS2_PLACEMENT_3D('',#897,#898,#899);
#897 = CARTESIAN_POINT('',(0.,-131.1,-45.));
#898 = DIRECTION('',(-0.,-1.,-0.));
#899 = DIRECTION('',(-0.,-0.,1.));
#900 = ADVANCED_FACE('',(#901,#904,#915,#926,#937,#948,#959,#970),#981,
  .F.);
#901 = FACE_BOUND('',#902,.T.);
#902 = EDGE_LOOP('',(#903));
#903 = ORIENTED_EDGE('',*,*,#629,.T.);
#904 = FACE_BOUND('',#905,.T.);
#905 = EDGE_LOOP('',(#906));
#906 = ORIENTED_EDGE('',*,*,#907,.F.);
#907 = EDGE_CURVE('',#908,#908,#910,.T.);
#908 = VERTEX_POINT('',#909);
#909 = CARTESIAN_POINT('',(-13.5,-133.1,1.7));
#910 = CIRCLE('',#911,1.7);
#911 = AXIS2_PLACEMENT_3D('',#912,#913,#914);
#912 = CARTESIAN_POINT('',(-13.5,-133.1,1.653273178849E-15));
#913 = DIRECTION('',(0.,1.,0.));
#914 = DIRECTION('',(-0.,-0.,1.));
#915 = FACE_BOUND('',#916,.T.);
#916 = EDGE_LOOP('',(#917));
#917 = ORIENTED_EDGE('',*,*,#918,.F.);
#918 = EDGE_CURVE('',#919,#919,#921,.T.);
#919 = VERTEX_POINT('',#920);
#920 = CARTESIAN_POINT('',(-6.75,-133.1,-9.99134295109));
#921 = CIRCLE('',#922,1.7);
#922 = AXIS2_PLACEMENT_3D('',#923,#924,#925);
#923 = CARTESIAN_POINT('',(-6.75,-133.1,-11.69134295109));
#924 = DIRECTION('',(0.,1.,0.));
#925 = DIRECTION('',(-0.,-0.,1.));
#926 = FACE_BOUND('',#927,.T.);
#927 = EDGE_LOOP('',(#928));
#928 = ORIENTED_EDGE('',*,*,#929,.F.);
#929 = EDGE_CURVE('',#930,#930,#932,.T.);
#930 = VERTEX_POINT('',#931);
#931 = CARTESIAN_POINT('',(-1.469576158977E-15,-133.1,6.));
#932 = CIRCLE('',#933,6.);
#933 = AXIS2_PLACEMENT_3D('',#934,#935,#936);
#934 = CARTESIAN_POINT('',(0.,-133.1,0.));
#935 = DIRECTION('',(0.,1.,0.));
#936 = DIRECTION('',(-0.,-0.,1.));
#937 = FACE_BOUND('',#938,.T.);
#938 = EDGE_LOOP('',(#939));
#939 = ORIENTED_EDGE('',*,*,#940,.F.);
#940 = EDGE_CURVE('',#941,#941,#943,.T.);
#941 = VERTEX_POINT('',#942);
#942 = CARTESIAN_POINT('',(-6.75,-133.1,13.39134295109));
#943 = CIRCLE('',#944,1.7);
#944 = AXIS2_PLACEMENT_3D('',#945,#946,#947);
#945 = CARTESIAN_POINT('',(-6.75,-133.1,11.69134295109));
#946 = DIRECTION('',(0.,1.,0.));
#947 = DIRECTION('',(-0.,-0.,1.));
#948 = FACE_BOUND('',#949,.T.);
#949 = EDGE_LOOP('',(#950));
#950 = ORIENTED_EDGE('',*,*,#951,.F.);
#951 = EDGE_CURVE('',#952,#952,#954,.T.);
#952 = VERTEX_POINT('',#953);
#953 = CARTESIAN_POINT('',(6.75,-133.1,-9.99134295109));
#954 = CIRCLE('',#955,1.7);
#955 = AXIS2_PLACEMENT_3D('',#956,#957,#958);
#956 = CARTESIAN_POINT('',(6.75,-133.1,-11.69134295109));
#957 = DIRECTION('',(0.,1.,0.));
#958 = DIRECTION('',(-0.,-0.,1.));
#959 = FACE_BOUND('',#960,.T.);
#960 = EDGE_LOOP('',(#961));
#961 = ORIENTED_EDGE('',*,*,#962,.F.);
#962 = EDGE_CURVE('',#963,#963,#965,.T.);
#963 = VERTEX_POINT('',#964);
#964 = CARTESIAN_POINT('',(13.5,-133.1,1.7));
#965 = CIRCLE('',#966,1.7);
#966 = AXIS2_PLACEMENT_3D('',#967,#968,#969);
#967 = CARTESIAN_POINT('',(13.5,-133.1,0.));
#968 = DIRECTION('',(0.,1.,0.));
#969 = DIRECTION('',(-0.,-0.,1.));
#970 = FACE_BOUND('',#971,.T.);
#971 = EDGE_LOOP('',(#972));
#972 = ORIENTED_EDGE('',*,*,#973,.F.);
#973 = EDGE_CURVE('',#974,#974,#976,.T.);
#974 = VERTEX_POINT('',#975);
#975 = CARTESIAN_POINT('',(6.75,-133.1,13.39134295109));
#976 = CIRCLE('',#977,1.7);
#977 = AXIS2_PLACEMENT_3D('',#978,#979,#980);
#978 = CARTESIAN_POINT('',(6.75,-133.1,11.69134295109));
#979 = DIRECTION('',(0.,1.,0.));
#980 = DIRECTION('',(-0.,-0.,1.));
#981 = PLANE('',#982);
#982 = AXIS2_PLACEMENT_3D('',#983,#984,#985);
#983 = CARTESIAN_POINT('',(0.,-133.1,0.));
#984 = DIRECTION('',(-0.,-1.,-0.));
#985 = DIRECTION('',(0.,0.,-1.));
#986 = ADVANCED_FACE('',(#987,#998,#1009,#1012),#1023,.T.);
#987 = FACE_BOUND('',#988,.F.);
#988 = EDGE_LOOP('',(#989,#990,#991,#992,#993,#994,#995,#996,#997));
#989 = ORIENTED_EDGE('',*,*,#664,.T.);
#990 = ORIENTED_EDGE('',*,*,#655,.T.);
#991 = ORIENTED_EDGE('',*,*,#739,.F.);
#992 = ORIENTED_EDGE('',*,*,#796,.F.);
#993 = ORIENTED_EDGE('',*,*,#838,.F.);
#994 = ORIENTED_EDGE('',*,*,#811,.T.);
#995 = ORIENTED_EDGE('',*,*,#771,.F.);
#996 = ORIENTED_EDGE('',*,*,#722,.T.);
#997 = ORIENTED_EDGE('',*,*,#690,.T.);
#998 = FACE_BOUND('',#999,.F.);
#999 = EDGE_LOOP('',(#1000));
#1000 = ORIENTED_EDGE('',*,*,#1001,.F.);
#1001 = EDGE_CURVE('',#1002,#1002,#1004,.T.);
#1002 = VERTEX_POINT('',#1003);
#1003 = CARTESIAN_POINT('',(-1.126675055216E-15,-151.6,-40.4));
#1004 = CIRCLE('',#1005,4.6);
#1005 = AXIS2_PLACEMENT_3D('',#1006,#1007,#1008);
#1006 = CARTESIAN_POINT('',(0.,-151.6,-45.));
#1007 = DIRECTION('',(0.,1.,0.));
#1008 = DIRECTION('',(-0.,-0.,1.));
#1009 = FACE_BOUND('',#1010,.F.);
#1010 = EDGE_LOOP('',(#1011));
#1011 = ORIENTED_EDGE('',*,*,#854,.F.);
#1012 = FACE_BOUND('',#1013,.F.);
#1013 = EDGE_LOOP('',(#1014));
#1014 = ORIENTED_EDGE('',*,*,#1015,.F.);
#1015 = EDGE_CURVE('',#1016,#1016,#1018,.T.);
#1016 = VERTEX_POINT('',#1017);
#1017 = CARTESIAN_POINT('',(-4.531193156845E-15,-151.6,18.5));
#1018 = CIRCLE('',#1019,18.5);
#1019 = AXIS2_PLACEMENT_3D('',#1020,#1021,#1022);
#1020 = CARTESIAN_POINT('',(0.,-151.6,0.));
#1021 = DIRECTION('',(0.,1.,0.));
#1022 = DIRECTION('',(-0.,-0.,1.));
#1023 = PLANE('',#1024);
#1024 = AXIS2_PLACEMENT_3D('',#1025,#1026,#1027);
#1025 = CARTESIAN_POINT('',(1.405272743644E-16,-151.6,-15.6888066646));
#1026 = DIRECTION('',(-0.,-1.,-0.));
#1027 = DIRECTION('',(0.,0.,-1.));
#1028 = ADVANCED_FACE('',(#1029,#1040),#1043,.T.);
#1029 = FACE_BOUND('',#1030,.F.);
#1030 = EDGE_LOOP('',(#1031));
#1031 = ORIENTED_EDGE('',*,*,#1032,.T.);
#1032 = EDGE_CURVE('',#1033,#1033,#1035,.T.);
#1033 = VERTEX_POINT('',#1034);
#1034 = CARTESIAN_POINT('',(-1.126675055216E-15,-151.1,-40.4));
#1035 = CIRCLE('',#1036,4.6);
#1036 = AXIS2_PLACEMENT_3D('',#1037,#1038,#1039);
#1037 = CARTESIAN_POINT('',(0.,-151.1,-45.));
#1038 = DIRECTION('',(0.,1.,0.));
#1039 = DIRECTION('',(-0.,-0.,1.));
#1040 = FACE_BOUND('',#1041,.F.);
#1041 = EDGE_LOOP('',(#1042));
#1042 = ORIENTED_EDGE('',*,*,#879,.F.);
#1043 = PLANE('',#1044);
#1044 = AXIS2_PLACEMENT_3D('',#1045,#1046,#1047);
#1045 = CARTESIAN_POINT('',(0.,-151.1,-45.));
#1046 = DIRECTION('',(-0.,-1.,-0.));
#1047 = DIRECTION('',(0.,0.,-1.));
#1048 = ADVANCED_FACE('',(#1049),#1068,.F.);
#1049 = FACE_BOUND('',#1050,.T.);
#1050 = EDGE_LOOP('',(#1051,#1060,#1066,#1067));
#1051 = ORIENTED_EDGE('',*,*,#1052,.F.);
#1052 = EDGE_CURVE('',#1053,#1053,#1055,.T.);
#1053 = VERTEX_POINT('',#1054);
#1054 = CARTESIAN_POINT('',(-13.5,-145.1,1.7));
#1055 = CIRCLE('',#1056,1.7);
#1056 = AXIS2_PLACEMENT_3D('',#1057,#1058,#1059);
#1057 = CARTESIAN_POINT('',(-13.5,-145.1,1.653273178849E-15));
#1058 = DIRECTION('',(0.,1.,0.));
#1059 = DIRECTION('',(-0.,-0.,1.));
#1060 = ORIENTED_EDGE('',*,*,#1061,.F.);
#1061 = EDGE_CURVE('',#908,#1053,#1062,.T.);
#1062 = LINE('',#1063,#1064);
#1063 = CARTESIAN_POINT('',(-13.5,-132.1,1.7));
#1064 = VECTOR('',#1065,1.);
#1065 = DIRECTION('',(-0.,-1.,-0.));
#1066 = ORIENTED_EDGE('',*,*,#907,.T.);
#1067 = ORIENTED_EDGE('',*,*,#1061,.T.);
#1068 = CYLINDRICAL_SURFACE('',#1069,1.7);
#1069 = AXIS2_PLACEMENT_3D('',#1070,#1071,#1072);
#1070 = CARTESIAN_POINT('',(-13.5,-132.1,1.653273178849E-15));
#1071 = DIRECTION('',(-0.,-1.,-0.));
#1072 = DIRECTION('',(-0.,-0.,1.));
#1073 = ADVANCED_FACE('',(#1074),#1093,.F.);
#1074 = FACE_BOUND('',#1075,.T.);
#1075 = EDGE_LOOP('',(#1076,#1085,#1091,#1092));
#1076 = ORIENTED_EDGE('',*,*,#1077,.F.);
#1077 = EDGE_CURVE('',#1078,#1078,#1080,.T.);
#1078 = VERTEX_POINT('',#1079);
#1079 = CARTESIAN_POINT('',(-6.75,-145.1,-9.99134295109));
#1080 = CIRCLE('',#1081,1.7);
#1081 = AXIS2_PLACEMENT_3D('',#1082,#1083,#1084);
#1082 = CARTESIAN_POINT('',(-6.75,-145.1,-11.69134295109));
#1083 = DIRECTION('',(0.,1.,0.));
#1084 = DIRECTION('',(-0.,-0.,1.));
#1085 = ORIENTED_EDGE('',*,*,#1086,.F.);
#1086 = EDGE_CURVE('',#919,#1078,#1087,.T.);
#1087 = LINE('',#1088,#1089);
#1088 = CARTESIAN_POINT('',(-6.75,-132.1,-9.99134295109));
#1089 = VECTOR('',#1090,1.);
#1090 = DIRECTION('',(-0.,-1.,-0.));
#1091 = ORIENTED_EDGE('',*,*,#918,.T.);
#1092 = ORIENTED_EDGE('',*,*,#1086,.T.);
#1093 = CYLINDRICAL_SURFACE('',#1094,1.7);
#1094 = AXIS2_PLACEMENT_3D('',#1095,#1096,#1097);
#1095 = CARTESIAN_POINT('',(-6.75,-132.1,-11.69134295109));
#1096 = DIRECTION('',(-0.,-1.,-0.));
#1097 = DIRECTION('',(-0.,-0.,1.));
#1098 = ADVANCED_FACE('',(#1099),#1118,.F.);
#1099 = FACE_BOUND('',#1100,.T.);
#1100 = EDGE_LOOP('',(#1101,#1110,#1116,#1117));
#1101 = ORIENTED_EDGE('',*,*,#1102,.F.);
#1102 = EDGE_CURVE('',#1103,#1103,#1105,.T.);
#1103 = VERTEX_POINT('',#1104);
#1104 = CARTESIAN_POINT('',(-1.469576158977E-15,-155.1,6.));
#1105 = CIRCLE('',#1106,6.);
#1106 = AXIS2_PLACEMENT_3D('',#1107,#1108,#1109);
#1107 = CARTESIAN_POINT('',(0.,-155.1,0.));
#1108 = DIRECTION('',(0.,1.,0.));
#1109 = DIRECTION('',(-0.,-0.,1.));
#1110 = ORIENTED_EDGE('',*,*,#1111,.F.);
#1111 = EDGE_CURVE('',#930,#1103,#1112,.T.);
#1112 = LINE('',#1113,#1114);
#1113 = CARTESIAN_POINT('',(-1.469576158977E-15,-131.1,6.));
#1114 = VECTOR('',#1115,1.);
#1115 = DIRECTION('',(-0.,-1.,-0.));
#1116 = ORIENTED_EDGE('',*,*,#929,.T.);
#1117 = ORIENTED_EDGE('',*,*,#1111,.T.);
#1118 = CYLINDRICAL_SURFACE('',#1119,6.);
#1119 = AXIS2_PLACEMENT_3D('',#1120,#1121,#1122);
#1120 = CARTESIAN_POINT('',(0.,-131.1,0.));
#1121 = DIRECTION('',(-0.,-1.,-0.));
#1122 = DIRECTION('',(-0.,-0.,1.));
#1123 = ADVANCED_FACE('',(#1124),#1143,.F.);
#1124 = FACE_BOUND('',#1125,.T.);
#1125 = EDGE_LOOP('',(#1126,#1135,#1141,#1142));
#1126 = ORIENTED_EDGE('',*,*,#1127,.F.);
#1127 = EDGE_CURVE('',#1128,#1128,#1130,.T.);
#1128 = VERTEX_POINT('',#1129);
#1129 = CARTESIAN_POINT('',(-6.75,-145.1,13.39134295109));
#1130 = CIRCLE('',#1131,1.7);
#1131 = AXIS2_PLACEMENT_3D('',#1132,#1133,#1134);
#1132 = CARTESIAN_POINT('',(-6.75,-145.1,11.69134295109));
#1133 = DIRECTION('',(0.,1.,0.));
#1134 = DIRECTION('',(-0.,-0.,1.));
#1135 = ORIENTED_EDGE('',*,*,#1136,.F.);
#1136 = EDGE_CURVE('',#941,#1128,#1137,.T.);
#1137 = LINE('',#1138,#1139);
#1138 = CARTESIAN_POINT('',(-6.75,-132.1,13.39134295109));
#1139 = VECTOR('',#1140,1.);
#1140 = DIRECTION('',(-0.,-1.,-0.));
#1141 = ORIENTED_EDGE('',*,*,#940,.T.);
#1142 = ORIENTED_EDGE('',*,*,#1136,.T.);
#1143 = CYLINDRICAL_SURFACE('',#1144,1.7);
#1144 = AXIS2_PLACEMENT_3D('',#1145,#1146,#1147);
#1145 = CARTESIAN_POINT('',(-6.75,-132.1,11.69134295109));
#1146 = DIRECTION('',(-0.,-1.,-0.));
#1147 = DIRECTION('',(-0.,-0.,1.));
#1148 = ADVANCED_FACE('',(#1149),#1168,.F.);
#1149 = FACE_BOUND('',#1150,.T.);
#1150 = EDGE_LOOP('',(#1151,#1160,#1166,#1167));
#1151 = ORIENTED_EDGE('',*,*,#1152,.F.);
#1152 = EDGE_CURVE('',#1153,#1153,#1155,.T.);
#1153 = VERTEX_POINT('',#1154);
#1154 = CARTESIAN_POINT('',(6.75,-145.1,-9.99134295109));
#1155 = CIRCLE('',#1156,1.7);
#1156 = AXIS2_PLACEMENT_3D('',#1157,#1158,#1159);
#1157 = CARTESIAN_POINT('',(6.75,-145.1,-11.69134295109));
#1158 = DIRECTION('',(0.,1.,0.));
#1159 = DIRECTION('',(-0.,-0.,1.));
#1160 = ORIENTED_EDGE('',*,*,#1161,.F.);
#1161 = EDGE_CURVE('',#952,#1153,#1162,.T.);
#1162 = LINE('',#1163,#1164);
#1163 = CARTESIAN_POINT('',(6.75,-132.1,-9.99134295109));
#1164 = VECTOR('',#1165,1.);
#1165 = DIRECTION('',(-0.,-1.,-0.));
#1166 = ORIENTED_EDGE('',*,*,#951,.T.);
#1167 = ORIENTED_EDGE('',*,*,#1161,.T.);
#1168 = CYLINDRICAL_SURFACE('',#1169,1.7);
#1169 = AXIS2_PLACEMENT_3D('',#1170,#1171,#1172);
#1170 = CARTESIAN_POINT('',(6.75,-132.1,-11.69134295109));
#1171 = DIRECTION('',(-0.,-1.,-0.));
#1172 = DIRECTION('',(-0.,-0.,1.));
#1173 = ADVANCED_FACE('',(#1174),#1193,.F.);
#1174 = FACE_BOUND('',#1175,.T.);
#1175 = EDGE_LOOP('',(#1176,#1185,#1191,#1192));
#1176 = ORIENTED_EDGE('',*,*,#1177,.F.);
#1177 = EDGE_CURVE('',#1178,#1178,#1180,.T.);
#1178 = VERTEX_POINT('',#1179);
#1179 = CARTESIAN_POINT('',(13.5,-145.1,1.7));
#1180 = CIRCLE('',#1181,1.7);
#1181 = AXIS2_PLACEMENT_3D('',#1182,#1183,#1184);
#1182 = CARTESIAN_POINT('',(13.5,-145.1,0.));
#1183 = DIRECTION('',(0.,1.,0.));
#1184 = DIRECTION('',(-0.,-0.,1.));
#1185 = ORIENTED_EDGE('',*,*,#1186,.F.);
#1186 = EDGE_CURVE('',#963,#1178,#1187,.T.);
#1187 = LINE('',#1188,#1189);
#1188 = CARTESIAN_POINT('',(13.5,-132.1,1.7));
#1189 = VECTOR('',#1190,1.);
#1190 = DIRECTION('',(-0.,-1.,-0.));
#1191 = ORIENTED_EDGE('',*,*,#962,.T.);
#1192 = ORIENTED_EDGE('',*,*,#1186,.T.);
#1193 = CYLINDRICAL_SURFACE('',#1194,1.7);
#1194 = AXIS2_PLACEMENT_3D('',#1195,#1196,#1197);
#1195 = CARTESIAN_POINT('',(13.5,-132.1,0.));
#1196 = DIRECTION('',(-0.,-1.,-0.));
#1197 = DIRECTION('',(-0.,-0.,1.));
#1198 = ADVANCED_FACE('',(#1199),#1218,.F.);
#1199 = FACE_BOUND('',#1200,.T.);
#1200 = EDGE_LOOP('',(#1201,#1210,#1216,#1217));
#1201 = ORIENTED_EDGE('',*,*,#1202,.F.);
#1202 = EDGE_CURVE('',#1203,#1203,#1205,.T.);
#1203 = VERTEX_POINT('',#1204);
#1204 = CARTESIAN_POINT('',(6.75,-145.1,13.39134295109));
#1205 = CIRCLE('',#1206,1.7);
#1206 = AXIS2_PLACEMENT_3D('',#1207,#1208,#1209);
#1207 = CARTESIAN_POINT('',(6.75,-145.1,11.69134295109));
#1208 = DIRECTION('',(0.,1.,0.));
#1209 = DIRECTION('',(-0.,-0.,1.));
#1210 = ORIENTED_EDGE('',*,*,#1211,.F.);
#1211 = EDGE_CURVE('',#974,#1203,#1212,.T.);
#1212 = LINE('',#1213,#1214);
#1213 = CARTESIAN_POINT('',(6.75,-132.1,13.39134295109));
#1214 = VECTOR('',#1215,1.);
#1215 = DIRECTION('',(-0.,-1.,-0.));
#1216 = ORIENTED_EDGE('',*,*,#973,.T.);
#1217 = ORIENTED_EDGE('',*,*,#1211,.T.);
#1218 = CYLINDRICAL_SURFACE('',#1219,1.7);
#1219 = AXIS2_PLACEMENT_3D('',#1220,#1221,#1222);
#1220 = CARTESIAN_POINT('',(6.75,-132.1,11.69134295109));
#1221 = DIRECTION('',(-0.,-1.,-0.));
#1222 = DIRECTION('',(-0.,-0.,1.));
#1223 = ADVANCED_FACE('',(#1224),#1235,.F.);
#1224 = FACE_BOUND('',#1225,.T.);
#1225 = EDGE_LOOP('',(#1226,#1227,#1233,#1234));
#1226 = ORIENTED_EDGE('',*,*,#1001,.F.);
#1227 = ORIENTED_EDGE('',*,*,#1228,.F.);
#1228 = EDGE_CURVE('',#1033,#1002,#1229,.T.);
#1229 = LINE('',#1230,#1231);
#1230 = CARTESIAN_POINT('',(-1.126675055216E-15,-151.1,-40.4));
#1231 = VECTOR('',#1232,1.);
#1232 = DIRECTION('',(-0.,-1.,-0.));
#1233 = ORIENTED_EDGE('',*,*,#1032,.T.);
#1234 = ORIENTED_EDGE('',*,*,#1228,.T.);
#1235 = CYLINDRICAL_SURFACE('',#1236,4.6);
#1236 = AXIS2_PLACEMENT_3D('',#1237,#1238,#1239);
#1237 = CARTESIAN_POINT('',(0.,-151.1,-45.));
#1238 = DIRECTION('',(-0.,-1.,-0.));
#1239 = DIRECTION('',(-0.,-0.,1.));
#1240 = ADVANCED_FACE('',(#1241),#1260,.T.);
#1241 = FACE_BOUND('',#1242,.F.);
#1242 = EDGE_LOOP('',(#1243,#1251,#1258,#1259));
#1243 = ORIENTED_EDGE('',*,*,#1244,.T.);
#1244 = EDGE_CURVE('',#1016,#1245,#1247,.T.);
#1245 = VERTEX_POINT('',#1246);
#1246 = CARTESIAN_POINT('',(-4.531193156845E-15,-152.7,18.5));
#1247 = LINE('',#1248,#1249);
#1248 = CARTESIAN_POINT('',(-4.531193156845E-15,-136.5,18.5));
#1249 = VECTOR('',#1250,1.);
#1250 = DIRECTION('',(-0.,-1.,-0.));
#1251 = ORIENTED_EDGE('',*,*,#1252,.F.);
#1252 = EDGE_CURVE('',#1245,#1245,#1253,.T.);
#1253 = CIRCLE('',#1254,18.5);
#1254 = AXIS2_PLACEMENT_3D('',#1255,#1256,#1257);
#1255 = CARTESIAN_POINT('',(0.,-152.7,0.));
#1256 = DIRECTION('',(0.,1.,0.));
#1257 = DIRECTION('',(-0.,-0.,1.));
#1258 = ORIENTED_EDGE('',*,*,#1244,.F.);
#1259 = ORIENTED_EDGE('',*,*,#1015,.T.);
#1260 = CYLINDRICAL_SURFACE('',#1261,18.5);
#1261 = AXIS2_PLACEMENT_3D('',#1262,#1263,#1264);
#1262 = CARTESIAN_POINT('',(0.,-136.5,0.));
#1263 = DIRECTION('',(-0.,-1.,-0.));
#1264 = DIRECTION('',(-0.,-0.,1.));
#1265 = ADVANCED_FACE('',(#1266,#1277),#1280,.T.);
#1266 = FACE_BOUND('',#1267,.F.);
#1267 = EDGE_LOOP('',(#1268));
#1268 = ORIENTED_EDGE('',*,*,#1269,.T.);
#1269 = EDGE_CURVE('',#1270,#1270,#1272,.T.);
#1270 = VERTEX_POINT('',#1271);
#1271 = CARTESIAN_POINT('',(-13.5,-145.1,2.9));
#1272 = CIRCLE('',#1273,2.9);
#1273 = AXIS2_PLACEMENT_3D('',#1274,#1275,#1276);
#1274 = CARTESIAN_POINT('',(-13.5,-145.1,1.653273178849E-15));
#1275 = DIRECTION('',(0.,1.,0.));
#1276 = DIRECTION('',(-0.,-0.,1.));
#1277 = FACE_BOUND('',#1278,.F.);
#1278 = EDGE_LOOP('',(#1279));
#1279 = ORIENTED_EDGE('',*,*,#1052,.F.);
#1280 = PLANE('',#1281);
#1281 = AXIS2_PLACEMENT_3D('',#1282,#1283,#1284);
#1282 = CARTESIAN_POINT('',(-13.5,-145.1,1.653273178849E-15));
#1283 = DIRECTION('',(-0.,-1.,-0.));
#1284 = DIRECTION('',(0.,0.,-1.));
#1285 = ADVANCED_FACE('',(#1286,#1297),#1300,.T.);
#1286 = FACE_BOUND('',#1287,.F.);
#1287 = EDGE_LOOP('',(#1288));
#1288 = ORIENTED_EDGE('',*,*,#1289,.T.);
#1289 = EDGE_CURVE('',#1290,#1290,#1292,.T.);
#1290 = VERTEX_POINT('',#1291);
#1291 = CARTESIAN_POINT('',(-6.75,-145.1,-8.79134295109));
#1292 = CIRCLE('',#1293,2.9);
#1293 = AXIS2_PLACEMENT_3D('',#1294,#1295,#1296);
#1294 = CARTESIAN_POINT('',(-6.75,-145.1,-11.69134295109));
#1295 = DIRECTION('',(0.,1.,0.));
#1296 = DIRECTION('',(-0.,-0.,1.));
#1297 = FACE_BOUND('',#1298,.F.);
#1298 = EDGE_LOOP('',(#1299));
#1299 = ORIENTED_EDGE('',*,*,#1077,.F.);
#1300 = PLANE('',#1301);
#1301 = AXIS2_PLACEMENT_3D('',#1302,#1303,#1304);
#1302 = CARTESIAN_POINT('',(-6.75,-145.1,-11.69134295109));
#1303 = DIRECTION('',(-0.,-1.,-0.));
#1304 = DIRECTION('',(0.,0.,-1.));
#1305 = ADVANCED_FACE('',(#1306,#1317,#1328,#1339,#1350,#1361,#1364,
    #1375),#1386,.T.);
#1306 = FACE_BOUND('',#1307,.F.);
#1307 = EDGE_LOOP('',(#1308));
#1308 = ORIENTED_EDGE('',*,*,#1309,.T.);
#1309 = EDGE_CURVE('',#1310,#1310,#1312,.T.);
#1310 = VERTEX_POINT('',#1311);
#1311 = CARTESIAN_POINT('',(-4.286263797016E-15,-155.1,17.5));
#1312 = CIRCLE('',#1313,17.5);
#1313 = AXIS2_PLACEMENT_3D('',#1314,#1315,#1316);
#1314 = CARTESIAN_POINT('',(0.,-155.1,0.));
#1315 = DIRECTION('',(0.,1.,0.));
#1316 = DIRECTION('',(-0.,-0.,1.));
#1317 = FACE_BOUND('',#1318,.F.);
#1318 = EDGE_LOOP('',(#1319));
#1319 = ORIENTED_EDGE('',*,*,#1320,.F.);
#1320 = EDGE_CURVE('',#1321,#1321,#1323,.T.);
#1321 = VERTEX_POINT('',#1322);
#1322 = CARTESIAN_POINT('',(-6.75,-155.1,-8.79134295109));
#1323 = CIRCLE('',#1324,2.9);
#1324 = AXIS2_PLACEMENT_3D('',#1325,#1326,#1327);
#1325 = CARTESIAN_POINT('',(-6.75,-155.1,-11.69134295109));
#1326 = DIRECTION('',(0.,1.,0.));
#1327 = DIRECTION('',(-0.,-0.,1.));
#1328 = FACE_BOUND('',#1329,.F.);
#1329 = EDGE_LOOP('',(#1330));
#1330 = ORIENTED_EDGE('',*,*,#1331,.F.);
#1331 = EDGE_CURVE('',#1332,#1332,#1334,.T.);
#1332 = VERTEX_POINT('',#1333);
#1333 = CARTESIAN_POINT('',(-13.5,-155.1,2.9));
#1334 = CIRCLE('',#1335,2.9);
#1335 = AXIS2_PLACEMENT_3D('',#1336,#1337,#1338);
#1336 = CARTESIAN_POINT('',(-13.5,-155.1,1.653273178849E-15));
#1337 = DIRECTION('',(0.,1.,0.));
#1338 = DIRECTION('',(-0.,-0.,1.));
#1339 = FACE_BOUND('',#1340,.F.);
#1340 = EDGE_LOOP('',(#1341));
#1341 = ORIENTED_EDGE('',*,*,#1342,.F.);
#1342 = EDGE_CURVE('',#1343,#1343,#1345,.T.);
#1343 = VERTEX_POINT('',#1344);
#1344 = CARTESIAN_POINT('',(-6.75,-155.1,14.59134295109));
#1345 = CIRCLE('',#1346,2.9);
#1346 = AXIS2_PLACEMENT_3D('',#1347,#1348,#1349);
#1347 = CARTESIAN_POINT('',(-6.75,-155.1,11.69134295109));
#1348 = DIRECTION('',(0.,1.,0.));
#1349 = DIRECTION('',(-0.,-0.,1.));
#1350 = FACE_BOUND('',#1351,.F.);
#1351 = EDGE_LOOP('',(#1352));
#1352 = ORIENTED_EDGE('',*,*,#1353,.F.);
#1353 = EDGE_CURVE('',#1354,#1354,#1356,.T.);
#1354 = VERTEX_POINT('',#1355);
#1355 = CARTESIAN_POINT('',(6.75,-155.1,-8.79134295109));
#1356 = CIRCLE('',#1357,2.9);
#1357 = AXIS2_PLACEMENT_3D('',#1358,#1359,#1360);
#1358 = CARTESIAN_POINT('',(6.75,-155.1,-11.69134295109));
#1359 = DIRECTION('',(0.,1.,0.));
#1360 = DIRECTION('',(-0.,-0.,1.));
#1361 = FACE_BOUND('',#1362,.F.);
#1362 = EDGE_LOOP('',(#1363));
#1363 = ORIENTED_EDGE('',*,*,#1102,.F.);
#1364 = FACE_BOUND('',#1365,.F.);
#1365 = EDGE_LOOP('',(#1366));
#1366 = ORIENTED_EDGE('',*,*,#1367,.F.);
#1367 = EDGE_CURVE('',#1368,#1368,#1370,.T.);
#1368 = VERTEX_POINT('',#1369);
#1369 = CARTESIAN_POINT('',(6.75,-155.1,14.59134295109));
#1370 = CIRCLE('',#1371,2.9);
#1371 = AXIS2_PLACEMENT_3D('',#1372,#1373,#1374);
#1372 = CARTESIAN_POINT('',(6.75,-155.1,11.69134295109));
#1373 = DIRECTION('',(0.,1.,0.));
#1374 = DIRECTION('',(-0.,-0.,1.));
#1375 = FACE_BOUND('',#1376,.F.);
#1376 = EDGE_LOOP('',(#1377));
#1377 = ORIENTED_EDGE('',*,*,#1378,.F.);
#1378 = EDGE_CURVE('',#1379,#1379,#1381,.T.);
#1379 = VERTEX_POINT('',#1380);
#1380 = CARTESIAN_POINT('',(13.5,-155.1,2.9));
#1381 = CIRCLE('',#1382,2.9);
#1382 = AXIS2_PLACEMENT_3D('',#1383,#1384,#1385);
#1383 = CARTESIAN_POINT('',(13.5,-155.1,0.));
#1384 = DIRECTION('',(0.,1.,0.));
#1385 = DIRECTION('',(-0.,-0.,1.));
#1386 = PLANE('',#1387);
#1387 = AXIS2_PLACEMENT_3D('',#1388,#1389,#1390);
#1388 = CARTESIAN_POINT('',(0.,-155.1,0.));
#1389 = DIRECTION('',(-0.,-1.,-0.));
#1390 = DIRECTION('',(0.,0.,-1.));
#1391 = ADVANCED_FACE('',(#1392,#1403),#1406,.T.);
#1392 = FACE_BOUND('',#1393,.F.);
#1393 = EDGE_LOOP('',(#1394));
#1394 = ORIENTED_EDGE('',*,*,#1395,.T.);
#1395 = EDGE_CURVE('',#1396,#1396,#1398,.T.);
#1396 = VERTEX_POINT('',#1397);
#1397 = CARTESIAN_POINT('',(-6.75,-145.1,14.59134295109));
#1398 = CIRCLE('',#1399,2.9);
#1399 = AXIS2_PLACEMENT_3D('',#1400,#1401,#1402);
#1400 = CARTESIAN_POINT('',(-6.75,-145.1,11.69134295109));
#1401 = DIRECTION('',(0.,1.,0.));
#1402 = DIRECTION('',(-0.,-0.,1.));
#1403 = FACE_BOUND('',#1404,.F.);
#1404 = EDGE_LOOP('',(#1405));
#1405 = ORIENTED_EDGE('',*,*,#1127,.F.);
#1406 = PLANE('',#1407);
#1407 = AXIS2_PLACEMENT_3D('',#1408,#1409,#1410);
#1408 = CARTESIAN_POINT('',(-6.75,-145.1,11.69134295109));
#1409 = DIRECTION('',(-0.,-1.,-0.));
#1410 = DIRECTION('',(0.,0.,-1.));
#1411 = ADVANCED_FACE('',(#1412,#1423),#1426,.T.);
#1412 = FACE_BOUND('',#1413,.F.);
#1413 = EDGE_LOOP('',(#1414));
#1414 = ORIENTED_EDGE('',*,*,#1415,.T.);
#1415 = EDGE_CURVE('',#1416,#1416,#1418,.T.);
#1416 = VERTEX_POINT('',#1417);
#1417 = CARTESIAN_POINT('',(6.75,-145.1,-8.79134295109));
#1418 = CIRCLE('',#1419,2.9);
#1419 = AXIS2_PLACEMENT_3D('',#1420,#1421,#1422);
#1420 = CARTESIAN_POINT('',(6.75,-145.1,-11.69134295109));
#1421 = DIRECTION('',(0.,1.,0.));
#1422 = DIRECTION('',(-0.,-0.,1.));
#1423 = FACE_BOUND('',#1424,.F.);
#1424 = EDGE_LOOP('',(#1425));
#1425 = ORIENTED_EDGE('',*,*,#1152,.F.);
#1426 = PLANE('',#1427);
#1427 = AXIS2_PLACEMENT_3D('',#1428,#1429,#1430);
#1428 = CARTESIAN_POINT('',(6.75,-145.1,-11.69134295109));
#1429 = DIRECTION('',(-0.,-1.,-0.));
#1430 = DIRECTION('',(0.,0.,-1.));
#1431 = ADVANCED_FACE('',(#1432,#1443),#1446,.T.);
#1432 = FACE_BOUND('',#1433,.F.);
#1433 = EDGE_LOOP('',(#1434));
#1434 = ORIENTED_EDGE('',*,*,#1435,.T.);
#1435 = EDGE_CURVE('',#1436,#1436,#1438,.T.);
#1436 = VERTEX_POINT('',#1437);
#1437 = CARTESIAN_POINT('',(13.5,-145.1,2.9));
#1438 = CIRCLE('',#1439,2.9);
#1439 = AXIS2_PLACEMENT_3D('',#1440,#1441,#1442);
#1440 = CARTESIAN_POINT('',(13.5,-145.1,0.));
#1441 = DIRECTION('',(0.,1.,0.));
#1442 = DIRECTION('',(-0.,-0.,1.));
#1443 = FACE_BOUND('',#1444,.F.);
#1444 = EDGE_LOOP('',(#1445));
#1445 = ORIENTED_EDGE('',*,*,#1177,.F.);
#1446 = PLANE('',#1447);
#1447 = AXIS2_PLACEMENT_3D('',#1448,#1449,#1450);
#1448 = CARTESIAN_POINT('',(13.5,-145.1,0.));
#1449 = DIRECTION('',(-0.,-1.,-0.));
#1450 = DIRECTION('',(0.,0.,-1.));
#1451 = ADVANCED_FACE('',(#1452,#1463),#1466,.T.);
#1452 = FACE_BOUND('',#1453,.F.);
#1453 = EDGE_LOOP('',(#1454));
#1454 = ORIENTED_EDGE('',*,*,#1455,.T.);
#1455 = EDGE_CURVE('',#1456,#1456,#1458,.T.);
#1456 = VERTEX_POINT('',#1457);
#1457 = CARTESIAN_POINT('',(6.75,-145.1,14.59134295109));
#1458 = CIRCLE('',#1459,2.9);
#1459 = AXIS2_PLACEMENT_3D('',#1460,#1461,#1462);
#1460 = CARTESIAN_POINT('',(6.75,-145.1,11.69134295109));
#1461 = DIRECTION('',(0.,1.,0.));
#1462 = DIRECTION('',(-0.,-0.,1.));
#1463 = FACE_BOUND('',#1464,.F.);
#1464 = EDGE_LOOP('',(#1465));
#1465 = ORIENTED_EDGE('',*,*,#1202,.F.);
#1466 = PLANE('',#1467);
#1467 = AXIS2_PLACEMENT_3D('',#1468,#1469,#1470);
#1468 = CARTESIAN_POINT('',(6.75,-145.1,11.69134295109));
#1469 = DIRECTION('',(-0.,-1.,-0.));
#1470 = DIRECTION('',(0.,0.,-1.));
#1471 = ADVANCED_FACE('',(#1472,#1475),#1486,.T.);
#1472 = FACE_BOUND('',#1473,.F.);
#1473 = EDGE_LOOP('',(#1474));
#1474 = ORIENTED_EDGE('',*,*,#1252,.T.);
#1475 = FACE_BOUND('',#1476,.F.);
#1476 = EDGE_LOOP('',(#1477));
#1477 = ORIENTED_EDGE('',*,*,#1478,.F.);
#1478 = EDGE_CURVE('',#1479,#1479,#1481,.T.);
#1479 = VERTEX_POINT('',#1480);
#1480 = CARTESIAN_POINT('',(-4.286263797016E-15,-152.7,17.5));
#1481 = CIRCLE('',#1482,17.5);
#1482 = AXIS2_PLACEMENT_3D('',#1483,#1484,#1485);
#1483 = CARTESIAN_POINT('',(0.,-152.7,0.));
#1484 = DIRECTION('',(0.,1.,0.));
#1485 = DIRECTION('',(-0.,-0.,1.));
#1486 = PLANE('',#1487);
#1487 = AXIS2_PLACEMENT_3D('',#1488,#1489,#1490);
#1488 = CARTESIAN_POINT('',(0.,-152.7,0.));
#1489 = DIRECTION('',(-0.,-1.,-0.));
#1490 = DIRECTION('',(0.,0.,-1.));
#1491 = ADVANCED_FACE('',(#1492),#1503,.F.);
#1492 = FACE_BOUND('',#1493,.T.);
#1493 = EDGE_LOOP('',(#1494,#1495,#1501,#1502));
#1494 = ORIENTED_EDGE('',*,*,#1331,.F.);
#1495 = ORIENTED_EDGE('',*,*,#1496,.F.);
#1496 = EDGE_CURVE('',#1270,#1332,#1497,.T.);
#1497 = LINE('',#1498,#1499);
#1498 = CARTESIAN_POINT('',(-13.5,-145.1,2.9));
#1499 = VECTOR('',#1500,1.);
#1500 = DIRECTION('',(-0.,-1.,-0.));
#1501 = ORIENTED_EDGE('',*,*,#1269,.T.);
#1502 = ORIENTED_EDGE('',*,*,#1496,.T.);
#1503 = CYLINDRICAL_SURFACE('',#1504,2.9);
#1504 = AXIS2_PLACEMENT_3D('',#1505,#1506,#1507);
#1505 = CARTESIAN_POINT('',(-13.5,-145.1,1.653273178849E-15));
#1506 = DIRECTION('',(-0.,-1.,-0.));
#1507 = DIRECTION('',(-0.,-0.,1.));
#1508 = ADVANCED_FACE('',(#1509),#1520,.F.);
#1509 = FACE_BOUND('',#1510,.T.);
#1510 = EDGE_LOOP('',(#1511,#1512,#1518,#1519));
#1511 = ORIENTED_EDGE('',*,*,#1320,.F.);
#1512 = ORIENTED_EDGE('',*,*,#1513,.F.);
#1513 = EDGE_CURVE('',#1290,#1321,#1514,.T.);
#1514 = LINE('',#1515,#1516);
#1515 = CARTESIAN_POINT('',(-6.75,-145.1,-8.79134295109));
#1516 = VECTOR('',#1517,1.);
#1517 = DIRECTION('',(-0.,-1.,-0.));
#1518 = ORIENTED_EDGE('',*,*,#1289,.T.);
#1519 = ORIENTED_EDGE('',*,*,#1513,.T.);
#1520 = CYLINDRICAL_SURFACE('',#1521,2.9);
#1521 = AXIS2_PLACEMENT_3D('',#1522,#1523,#1524);
#1522 = CARTESIAN_POINT('',(-6.75,-145.1,-11.69134295109));
#1523 = DIRECTION('',(-0.,-1.,-0.));
#1524 = DIRECTION('',(-0.,-0.,1.));
#1525 = ADVANCED_FACE('',(#1526),#1537,.T.);
#1526 = FACE_BOUND('',#1527,.F.);
#1527 = EDGE_LOOP('',(#1528,#1534,#1535,#1536));
#1528 = ORIENTED_EDGE('',*,*,#1529,.T.);
#1529 = EDGE_CURVE('',#1479,#1310,#1530,.T.);
#1530 = LINE('',#1531,#1532);
#1531 = CARTESIAN_POINT('',(-4.286263797016E-15,-152.6,17.5));
#1532 = VECTOR('',#1533,1.);
#1533 = DIRECTION('',(-0.,-1.,-0.));
#1534 = ORIENTED_EDGE('',*,*,#1309,.F.);
#1535 = ORIENTED_EDGE('',*,*,#1529,.F.);
#1536 = ORIENTED_EDGE('',*,*,#1478,.T.);
#1537 = CYLINDRICAL_SURFACE('',#1538,17.5);
#1538 = AXIS2_PLACEMENT_3D('',#1539,#1540,#1541);
#1539 = CARTESIAN_POINT('',(0.,-152.6,0.));
#1540 = DIRECTION('',(-0.,-1.,-0.));
#1541 = DIRECTION('',(-0.,-0.,1.));
#1542 = ADVANCED_FACE('',(#1543),#1554,.F.);
#1543 = FACE_BOUND('',#1544,.T.);
#1544 = EDGE_LOOP('',(#1545,#1546,#1552,#1553));
#1545 = ORIENTED_EDGE('',*,*,#1342,.F.);
#1546 = ORIENTED_EDGE('',*,*,#1547,.F.);
#1547 = EDGE_CURVE('',#1396,#1343,#1548,.T.);
#1548 = LINE('',#1549,#1550);
#1549 = CARTESIAN_POINT('',(-6.75,-145.1,14.59134295109));
#1550 = VECTOR('',#1551,1.);
#1551 = DIRECTION('',(-0.,-1.,-0.));
#1552 = ORIENTED_EDGE('',*,*,#1395,.T.);
#1553 = ORIENTED_EDGE('',*,*,#1547,.T.);
#1554 = CYLINDRICAL_SURFACE('',#1555,2.9);
#1555 = AXIS2_PLACEMENT_3D('',#1556,#1557,#1558);
#1556 = CARTESIAN_POINT('',(-6.75,-145.1,11.69134295109));
#1557 = DIRECTION('',(-0.,-1.,-0.));
#1558 = DIRECTION('',(-0.,-0.,1.));
#1559 = ADVANCED_FACE('',(#1560),#1571,.F.);
#1560 = FACE_BOUND('',#1561,.T.);
#1561 = EDGE_LOOP('',(#1562,#1563,#1569,#1570));
#1562 = ORIENTED_EDGE('',*,*,#1353,.F.);
#1563 = ORIENTED_EDGE('',*,*,#1564,.F.);
#1564 = EDGE_CURVE('',#1416,#1354,#1565,.T.);
#1565 = LINE('',#1566,#1567);
#1566 = CARTESIAN_POINT('',(6.75,-145.1,-8.79134295109));
#1567 = VECTOR('',#1568,1.);
#1568 = DIRECTION('',(-0.,-1.,-0.));
#1569 = ORIENTED_EDGE('',*,*,#1415,.T.);
#1570 = ORIENTED_EDGE('',*,*,#1564,.T.);
#1571 = CYLINDRICAL_SURFACE('',#1572,2.9);
#1572 = AXIS2_PLACEMENT_3D('',#1573,#1574,#1575);
#1573 = CARTESIAN_POINT('',(6.75,-145.1,-11.69134295109));
#1574 = DIRECTION('',(-0.,-1.,-0.));
#1575 = DIRECTION('',(-0.,-0.,1.));
#1576 = ADVANCED_FACE('',(#1577),#1588,.F.);
#1577 = FACE_BOUND('',#1578,.T.);
#1578 = EDGE_LOOP('',(#1579,#1580,#1586,#1587));
#1579 = ORIENTED_EDGE('',*,*,#1367,.F.);
#1580 = ORIENTED_EDGE('',*,*,#1581,.F.);
#1581 = EDGE_CURVE('',#1456,#1368,#1582,.T.);
#1582 = LINE('',#1583,#1584);
#1583 = CARTESIAN_POINT('',(6.75,-145.1,14.59134295109));
#1584 = VECTOR('',#1585,1.);
#1585 = DIRECTION('',(-0.,-1.,-0.));
#1586 = ORIENTED_EDGE('',*,*,#1455,.T.);
#1587 = ORIENTED_EDGE('',*,*,#1581,.T.);
#1588 = CYLINDRICAL_SURFACE('',#1589,2.9);
#1589 = AXIS2_PLACEMENT_3D('',#1590,#1591,#1592);
#1590 = CARTESIAN_POINT('',(6.75,-145.1,11.69134295109));
#1591 = DIRECTION('',(-0.,-1.,-0.));
#1592 = DIRECTION('',(-0.,-0.,1.));
#1593 = ADVANCED_FACE('',(#1594),#1605,.F.);
#1594 = FACE_BOUND('',#1595,.T.);
#1595 = EDGE_LOOP('',(#1596,#1597,#1603,#1604));
#1596 = ORIENTED_EDGE('',*,*,#1378,.F.);
#1597 = ORIENTED_EDGE('',*,*,#1598,.F.);
#1598 = EDGE_CURVE('',#1436,#1379,#1599,.T.);
#1599 = LINE('',#1600,#1601);
#1600 = CARTESIAN_POINT('',(13.5,-145.1,2.9));
#1601 = VECTOR('',#1602,1.);
#1602 = DIRECTION('',(-0.,-1.,-0.));
#1603 = ORIENTED_EDGE('',*,*,#1435,.T.);
#1604 = ORIENTED_EDGE('',*,*,#1598,.T.);
#1605 = CYLINDRICAL_SURFACE('',#1606,2.9);
#1606 = AXIS2_PLACEMENT_3D('',#1607,#1608,#1609);
#1607 = CARTESIAN_POINT('',(13.5,-145.1,0.));
#1608 = DIRECTION('',(-0.,-1.,-0.));
#1609 = DIRECTION('',(-0.,-0.,1.));
#1610 = ( GEOMETRIC_REPRESENTATION_CONTEXT(3) 
GLOBAL_UNCERTAINTY_ASSIGNED_CONTEXT((#1614)) 
GLOBAL_UNIT_ASSIGNED_CONTEXT((#1611,#1612,#1613)) REPRESENTATION_CONTEXT
('Context #1','3D Context with UNIT and UNCERTAINTY') );
#1611 = ( LENGTH_UNIT() NAMED_UNIT(*) SI_UNIT(.MILLI.,.METRE.) );
#1612 = ( NAMED_UNIT(*) PLANE_ANGLE_UNIT() SI_UNIT($,.RADIAN.) );
#1613 = ( NAMED_UNIT(*) SI_UNIT($,.STERADIAN.) SOLID_ANGLE_UNIT() );
#1614 = UNCERTAINTY_MEASURE_WITH_UNIT(LENGTH_MEASURE(1.E-07),#1611,
  'distance_accuracy_value','confusion accuracy');
#1615 = PRODUCT_RELATED_PRODUCT_CATEGORY('part',$,(#7));
ENDSEC;
END-ISO-10303-21;
