ISO-10303-21;
HEADER;
FILE_DESCRIPTION(('FreeCAD Model'),'2;1');
FILE_NAME('Open CASCADE Shape Model','2026-09-22T09:38:09',('FreeCAD'),(
    'FreeCAD'),'Open CASCADE STEP processor 7.8','FreeCAD','Unknown');
FILE_SCHEMA(('AUTOMOTIVE_DESIGN { 1 0 10303 214 1 1 1 1 }'));
ENDSEC;
DATA;
#1 = APPLICATION_PROTOCOL_DEFINITION('international standard',
  'automotive_design',2000,#2);
#2 = APPLICATION_CONTEXT(
  'core data for automotive mechanical design processes');
#3 = SHAPE_DEFINITION_REPRESENTATION(#4,#10);
#4 = PRODUCT_DEFINITION_SHAPE('','',#5);
#5 = PRODUCT_DEFINITION('design','',#6,#9);
#6 = PRODUCT_DEFINITION_FORMATION('','',#7);
#7 = PRODUCT('Open CASCADE STEP translator 7.8 19',
  'Open CASCADE STEP translator 7.8 19','',(#8));
#8 = PRODUCT_CONTEXT('',#2,'mechanical');
#9 = PRODUCT_DEFINITION_CONTEXT('part definition',#2,'design');
#10 = ADVANCED_BREP_SHAPE_REPRESENTATION('',(#11,#15),#465);
#11 = AXIS2_PLACEMENT_3D('',#12,#13,#14);
#12 = CARTESIAN_POINT('',(0.,0.,0.));
#13 = DIRECTION('',(0.,0.,1.));
#14 = DIRECTION('',(1.,0.,-0.));
#15 = MANIFOLD_SOLID_BREP('',#16);
#16 = CLOSED_SHELL('',(#17,#62,#95,#133,#213,#293,#313,#332,#347,#372,
    #389,#414,#431,#448));
#17 = ADVANCED_FACE('',(#18),#54,.F.);
#18 = FACE_BOUND('',#19,.F.);
#19 = EDGE_LOOP('',(#20,#30,#39,#47));
#20 = ORIENTED_EDGE('',*,*,#21,.T.);
#21 = EDGE_CURVE('',#22,#24,#26,.T.);
#22 = VERTEX_POINT('',#23);
#23 = CARTESIAN_POINT('',(13.,174.,35.));
#24 = VERTEX_POINT('',#25);
#25 = CARTESIAN_POINT('',(13.,182.,35.));
#26 = LINE('',#27,#28);
#27 = CARTESIAN_POINT('',(13.,174.,35.));
#28 = VECTOR('',#29,1.);
#29 = DIRECTION('',(0.,1.,0.));
#30 = ORIENTED_EDGE('',*,*,#31,.T.);
#31 = EDGE_CURVE('',#24,#32,#34,.T.);
#32 = VERTEX_POINT('',#33);
#33 = CARTESIAN_POINT('',(16.,182.,0.));
#34 = B_SPLINE_CURVE_WITH_KNOTS('',3,(#35,#36,#37,#38),.UNSPECIFIED.,.F.
  ,.F.,(4,4),(0.,1.),.PIECEWISE_BEZIER_KNOTS.);
#35 = CARTESIAN_POINT('',(13.,182.,35.));
#36 = CARTESIAN_POINT('',(13.,182.,25.));
#37 = CARTESIAN_POINT('',(16.,182.,17.));
#38 = CARTESIAN_POINT('',(16.,182.,0.));
#39 = ORIENTED_EDGE('',*,*,#40,.F.);
#40 = EDGE_CURVE('',#41,#32,#43,.T.);
#41 = VERTEX_POINT('',#42);
#42 = CARTESIAN_POINT('',(16.,174.,0.));
#43 = LINE('',#44,#45);
#44 = CARTESIAN_POINT('',(16.,174.,0.));
#45 = VECTOR('',#46,1.);
#46 = DIRECTION('',(0.,1.,0.));
#47 = ORIENTED_EDGE('',*,*,#48,.F.);
#48 = EDGE_CURVE('',#22,#41,#49,.T.);
#49 = B_SPLINE_CURVE_WITH_KNOTS('',3,(#50,#51,#52,#53),.UNSPECIFIED.,.F.
  ,.F.,(4,4),(0.,1.),.PIECEWISE_BEZIER_KNOTS.);
#50 = CARTESIAN_POINT('',(13.,174.,35.));
#51 = CARTESIAN_POINT('',(13.,174.,25.));
#52 = CARTESIAN_POINT('',(16.,174.,17.));
#53 = CARTESIAN_POINT('',(16.,174.,0.));
#54 = SURFACE_OF_LINEAR_EXTRUSION('',#55,#60);
#55 = B_SPLINE_CURVE_WITH_KNOTS('',3,(#56,#57,#58,#59),.UNSPECIFIED.,.F.
  ,.F.,(4,4),(0.,1.),.PIECEWISE_BEZIER_KNOTS.);
#56 = CARTESIAN_POINT('',(13.,174.,35.));
#57 = CARTESIAN_POINT('',(13.,174.,25.));
#58 = CARTESIAN_POINT('',(16.,174.,17.));
#59 = CARTESIAN_POINT('',(16.,174.,0.));
#60 = VECTOR('',#61,1.);
#61 = DIRECTION('',(-0.,-1.,-0.));
#62 = ADVANCED_FACE('',(#63),#90,.T.);
#63 = FACE_BOUND('',#64,.F.);
#64 = EDGE_LOOP('',(#65,#75,#82,#83));
#65 = ORIENTED_EDGE('',*,*,#66,.T.);
#66 = EDGE_CURVE('',#67,#69,#71,.T.);
#67 = VERTEX_POINT('',#68);
#68 = CARTESIAN_POINT('',(-13.,174.,35.));
#69 = VERTEX_POINT('',#70);
#70 = CARTESIAN_POINT('',(-13.,182.,35.));
#71 = LINE('',#72,#73);
#72 = CARTESIAN_POINT('',(-13.,174.,35.));
#73 = VECTOR('',#74,1.);
#74 = DIRECTION('',(0.,1.,0.));
#75 = ORIENTED_EDGE('',*,*,#76,.T.);
#76 = EDGE_CURVE('',#69,#24,#77,.T.);
#77 = CIRCLE('',#78,13.);
#78 = AXIS2_PLACEMENT_3D('',#79,#80,#81);
#79 = CARTESIAN_POINT('',(0.,182.,35.));
#80 = DIRECTION('',(0.,1.,0.));
#81 = DIRECTION('',(-1.,0.,-0.));
#82 = ORIENTED_EDGE('',*,*,#21,.F.);
#83 = ORIENTED_EDGE('',*,*,#84,.F.);
#84 = EDGE_CURVE('',#67,#22,#85,.T.);
#85 = CIRCLE('',#86,13.);
#86 = AXIS2_PLACEMENT_3D('',#87,#88,#89);
#87 = CARTESIAN_POINT('',(0.,174.,35.));
#88 = DIRECTION('',(0.,1.,0.));
#89 = DIRECTION('',(-1.,0.,-0.));
#90 = CYLINDRICAL_SURFACE('',#91,13.);
#91 = AXIS2_PLACEMENT_3D('',#92,#93,#94);
#92 = CARTESIAN_POINT('',(0.,174.,35.));
#93 = DIRECTION('',(-0.,-1.,-0.));
#94 = DIRECTION('',(-1.,0.,-0.));
#95 = ADVANCED_FACE('',(#96),#125,.F.);
#96 = FACE_BOUND('',#97,.F.);
#97 = EDGE_LOOP('',(#98,#107,#108,#117));
#98 = ORIENTED_EDGE('',*,*,#99,.F.);
#99 = EDGE_CURVE('',#41,#100,#102,.T.);
#100 = VERTEX_POINT('',#101);
#101 = CARTESIAN_POINT('',(16.034744108161,174.,-25.64685588498));
#102 = B_SPLINE_CURVE_WITH_KNOTS('',3,(#103,#104,#105,#106),
  .UNSPECIFIED.,.F.,.F.,(4,4),(0.,1.),.PIECEWISE_BEZIER_KNOTS.);
#103 = CARTESIAN_POINT('',(16.,174.,0.));
#104 = CARTESIAN_POINT('',(16.,174.,-34.));
#105 = CARTESIAN_POINT('',(16.,174.,-64.));
#106 = CARTESIAN_POINT('',(18.,174.,-92.));
#107 = ORIENTED_EDGE('',*,*,#40,.T.);
#108 = ORIENTED_EDGE('',*,*,#109,.T.);
#109 = EDGE_CURVE('',#32,#110,#112,.T.);
#110 = VERTEX_POINT('',#111);
#111 = CARTESIAN_POINT('',(16.034744108161,182.,-25.64685588498));
#112 = B_SPLINE_CURVE_WITH_KNOTS('',3,(#113,#114,#115,#116),
  .UNSPECIFIED.,.F.,.F.,(4,4),(0.,1.),.PIECEWISE_BEZIER_KNOTS.);
#113 = CARTESIAN_POINT('',(16.,182.,0.));
#114 = CARTESIAN_POINT('',(16.,182.,-34.));
#115 = CARTESIAN_POINT('',(16.,182.,-64.));
#116 = CARTESIAN_POINT('',(18.,182.,-92.));
#117 = ORIENTED_EDGE('',*,*,#118,.T.);
#118 = EDGE_CURVE('',#110,#100,#119,.T.);
#119 = B_SPLINE_CURVE_WITH_KNOTS('',4,(#120,#121,#122,#123,#124),
  .UNSPECIFIED.,.F.,.F.,(5,5),(0.,1.),.PIECEWISE_BEZIER_KNOTS.);
#120 = CARTESIAN_POINT('',(16.034744108161,182.0000006,-25.64685588498)
  );
#121 = CARTESIAN_POINT('',(16.034744108161,180.0000003,-25.64685588498)
  );
#122 = CARTESIAN_POINT('',(16.034744108161,178.,-25.64685588498));
#123 = CARTESIAN_POINT('',(16.034744108161,175.9999997,-25.64685588498)
  );
#124 = CARTESIAN_POINT('',(16.034744108161,173.9999994,-25.64685588498)
  );
#125 = SURFACE_OF_LINEAR_EXTRUSION('',#126,#131);
#126 = B_SPLINE_CURVE_WITH_KNOTS('',3,(#127,#128,#129,#130),
  .UNSPECIFIED.,.F.,.F.,(4,4),(0.,1.),.PIECEWISE_BEZIER_KNOTS.);
#127 = CARTESIAN_POINT('',(16.,174.,0.));
#128 = CARTESIAN_POINT('',(16.,174.,-34.));
#129 = CARTESIAN_POINT('',(16.,174.,-64.));
#130 = CARTESIAN_POINT('',(18.,174.,-92.));
#131 = VECTOR('',#132,1.);
#132 = DIRECTION('',(-0.,-1.,-0.));
#133 = ADVANCED_FACE('',(#134,#164,#175,#186,#197),#208,.F.);
#134 = FACE_BOUND('',#135,.F.);
#135 = EDGE_LOOP('',(#136,#137,#138,#139,#148,#157));
#136 = ORIENTED_EDGE('',*,*,#84,.T.);
#137 = ORIENTED_EDGE('',*,*,#48,.T.);
#138 = ORIENTED_EDGE('',*,*,#99,.T.);
#139 = ORIENTED_EDGE('',*,*,#140,.T.);
#140 = EDGE_CURVE('',#100,#141,#143,.T.);
#141 = VERTEX_POINT('',#142);
#142 = CARTESIAN_POINT('',(-15.63691796222,174.,-26.66984232516));
#143 = CIRCLE('',#144,17.);
#144 = AXIS2_PLACEMENT_3D('',#145,#146,#147);
#145 = CARTESIAN_POINT('',(0.,174.,-20.));
#146 = DIRECTION('',(0.,1.,0.));
#147 = DIRECTION('',(0.,-0.,1.));
#148 = ORIENTED_EDGE('',*,*,#149,.T.);
#149 = EDGE_CURVE('',#141,#150,#152,.T.);
#150 = VERTEX_POINT('',#151);
#151 = CARTESIAN_POINT('',(-16.,174.,0.));
#152 = B_SPLINE_CURVE_WITH_KNOTS('',3,(#153,#154,#155,#156),
  .UNSPECIFIED.,.F.,.F.,(4,4),(0.,1.),.PIECEWISE_BEZIER_KNOTS.);
#153 = CARTESIAN_POINT('',(-14.,174.,-92.));
#154 = CARTESIAN_POINT('',(-14.,174.,-60.));
#155 = CARTESIAN_POINT('',(-16.,174.,-35.));
#156 = CARTESIAN_POINT('',(-16.,174.,0.));
#157 = ORIENTED_EDGE('',*,*,#158,.T.);
#158 = EDGE_CURVE('',#150,#67,#159,.T.);
#159 = B_SPLINE_CURVE_WITH_KNOTS('',3,(#160,#161,#162,#163),
  .UNSPECIFIED.,.F.,.F.,(4,4),(0.,1.),.PIECEWISE_BEZIER_KNOTS.);
#160 = CARTESIAN_POINT('',(-16.,174.,0.));
#161 = CARTESIAN_POINT('',(-16.,174.,17.));
#162 = CARTESIAN_POINT('',(-13.,174.,25.));
#163 = CARTESIAN_POINT('',(-13.,174.,35.));
#164 = FACE_BOUND('',#165,.F.);
#165 = EDGE_LOOP('',(#166));
#166 = ORIENTED_EDGE('',*,*,#167,.F.);
#167 = EDGE_CURVE('',#168,#168,#170,.T.);
#168 = VERTEX_POINT('',#169);
#169 = CARTESIAN_POINT('',(-9.,174.,-17.8));
#170 = CIRCLE('',#171,2.2);
#171 = AXIS2_PLACEMENT_3D('',#172,#173,#174);
#172 = CARTESIAN_POINT('',(-9.,174.,-20.));
#173 = DIRECTION('',(0.,1.,0.));
#174 = DIRECTION('',(0.,-0.,1.));
#175 = FACE_BOUND('',#176,.F.);
#176 = EDGE_LOOP('',(#177));
#177 = ORIENTED_EDGE('',*,*,#178,.F.);
#178 = EDGE_CURVE('',#179,#179,#181,.T.);
#179 = VERTEX_POINT('',#180);
#180 = CARTESIAN_POINT('',(-2.498279470261E-15,174.,10.2));
#181 = CIRCLE('',#182,10.2);
#182 = AXIS2_PLACEMENT_3D('',#183,#184,#185);
#183 = CARTESIAN_POINT('',(0.,174.,0.));
#184 = DIRECTION('',(0.,1.,0.));
#185 = DIRECTION('',(0.,-0.,1.));
#186 = FACE_BOUND('',#187,.F.);
#187 = EDGE_LOOP('',(#188));
#188 = ORIENTED_EDGE('',*,*,#189,.F.);
#189 = EDGE_CURVE('',#190,#190,#192,.T.);
#190 = VERTEX_POINT('',#191);
#191 = CARTESIAN_POINT('',(9.,174.,-17.8));
#192 = CIRCLE('',#193,2.2);
#193 = AXIS2_PLACEMENT_3D('',#194,#195,#196);
#194 = CARTESIAN_POINT('',(9.,174.,-20.));
#195 = DIRECTION('',(0.,1.,0.));
#196 = DIRECTION('',(0.,-0.,1.));
#197 = FACE_BOUND('',#198,.F.);
#198 = EDGE_LOOP('',(#199));
#199 = ORIENTED_EDGE('',*,*,#200,.F.);
#200 = EDGE_CURVE('',#201,#201,#203,.T.);
#201 = VERTEX_POINT('',#202);
#202 = CARTESIAN_POINT('',(-9.858406733136E-16,174.,39.025));
#203 = CIRCLE('',#204,4.025);
#204 = AXIS2_PLACEMENT_3D('',#205,#206,#207);
#205 = CARTESIAN_POINT('',(0.,174.,35.));
#206 = DIRECTION('',(0.,1.,0.));
#207 = DIRECTION('',(0.,-0.,1.));
#208 = PLANE('',#209);
#209 = AXIS2_PLACEMENT_3D('',#210,#211,#212);
#210 = CARTESIAN_POINT('',(0.427730284864,174.,-55.48643732979));
#211 = DIRECTION('',(0.,1.,0.));
#212 = DIRECTION('',(0.,-0.,1.));
#213 = ADVANCED_FACE('',(#214,#244,#255,#266,#277),#288,.T.);
#214 = FACE_BOUND('',#215,.T.);
#215 = EDGE_LOOP('',(#216,#217,#218,#219,#228,#237));
#216 = ORIENTED_EDGE('',*,*,#76,.T.);
#217 = ORIENTED_EDGE('',*,*,#31,.T.);
#218 = ORIENTED_EDGE('',*,*,#109,.T.);
#219 = ORIENTED_EDGE('',*,*,#220,.T.);
#220 = EDGE_CURVE('',#110,#221,#223,.T.);
#221 = VERTEX_POINT('',#222);
#222 = CARTESIAN_POINT('',(-15.63691796222,182.,-26.66984232516));
#223 = CIRCLE('',#224,17.);
#224 = AXIS2_PLACEMENT_3D('',#225,#226,#227);
#225 = CARTESIAN_POINT('',(0.,182.,-20.));
#226 = DIRECTION('',(0.,1.,0.));
#227 = DIRECTION('',(0.,-0.,1.));
#228 = ORIENTED_EDGE('',*,*,#229,.T.);
#229 = EDGE_CURVE('',#221,#230,#232,.T.);
#230 = VERTEX_POINT('',#231);
#231 = CARTESIAN_POINT('',(-16.,182.,0.));
#232 = B_SPLINE_CURVE_WITH_KNOTS('',3,(#233,#234,#235,#236),
  .UNSPECIFIED.,.F.,.F.,(4,4),(0.,1.),.PIECEWISE_BEZIER_KNOTS.);
#233 = CARTESIAN_POINT('',(-14.,182.,-92.));
#234 = CARTESIAN_POINT('',(-14.,182.,-60.));
#235 = CARTESIAN_POINT('',(-16.,182.,-35.));
#236 = CARTESIAN_POINT('',(-16.,182.,0.));
#237 = ORIENTED_EDGE('',*,*,#238,.T.);
#238 = EDGE_CURVE('',#230,#69,#239,.T.);
#239 = B_SPLINE_CURVE_WITH_KNOTS('',3,(#240,#241,#242,#243),
  .UNSPECIFIED.,.F.,.F.,(4,4),(0.,1.),.PIECEWISE_BEZIER_KNOTS.);
#240 = CARTESIAN_POINT('',(-16.,182.,0.));
#241 = CARTESIAN_POINT('',(-16.,182.,17.));
#242 = CARTESIAN_POINT('',(-13.,182.,25.));
#243 = CARTESIAN_POINT('',(-13.,182.,35.));
#244 = FACE_BOUND('',#245,.T.);
#245 = EDGE_LOOP('',(#246));
#246 = ORIENTED_EDGE('',*,*,#247,.F.);
#247 = EDGE_CURVE('',#248,#248,#250,.T.);
#248 = VERTEX_POINT('',#249);
#249 = CARTESIAN_POINT('',(-9.,182.,-15.6));
#250 = CIRCLE('',#251,4.4);
#251 = AXIS2_PLACEMENT_3D('',#252,#253,#254);
#252 = CARTESIAN_POINT('',(-9.,182.,-20.));
#253 = DIRECTION('',(0.,1.,0.));
#254 = DIRECTION('',(0.,-0.,1.));
#255 = FACE_BOUND('',#256,.T.);
#256 = EDGE_LOOP('',(#257));
#257 = ORIENTED_EDGE('',*,*,#258,.F.);
#258 = EDGE_CURVE('',#259,#259,#261,.T.);
#259 = VERTEX_POINT('',#260);
#260 = CARTESIAN_POINT('',(-2.498279470261E-15,182.,10.2));
#261 = CIRCLE('',#262,10.2);
#262 = AXIS2_PLACEMENT_3D('',#263,#264,#265);
#263 = CARTESIAN_POINT('',(0.,182.,0.));
#264 = DIRECTION('',(0.,1.,0.));
#265 = DIRECTION('',(0.,-0.,1.));
#266 = FACE_BOUND('',#267,.T.);
#267 = EDGE_LOOP('',(#268));
#268 = ORIENTED_EDGE('',*,*,#269,.F.);
#269 = EDGE_CURVE('',#270,#270,#272,.T.);
#270 = VERTEX_POINT('',#271);
#271 = CARTESIAN_POINT('',(-9.858406733136E-16,182.,39.025));
#272 = CIRCLE('',#273,4.025);
#273 = AXIS2_PLACEMENT_3D('',#274,#275,#276);
#274 = CARTESIAN_POINT('',(0.,182.,35.));
#275 = DIRECTION('',(0.,1.,0.));
#276 = DIRECTION('',(0.,-0.,1.));
#277 = FACE_BOUND('',#278,.T.);
#278 = EDGE_LOOP('',(#279));
#279 = ORIENTED_EDGE('',*,*,#280,.F.);
#280 = EDGE_CURVE('',#281,#281,#283,.T.);
#281 = VERTEX_POINT('',#282);
#282 = CARTESIAN_POINT('',(9.,182.,-15.6));
#283 = CIRCLE('',#284,4.4);
#284 = AXIS2_PLACEMENT_3D('',#285,#286,#287);
#285 = CARTESIAN_POINT('',(9.,182.,-20.));
#286 = DIRECTION('',(0.,1.,0.));
#287 = DIRECTION('',(0.,-0.,1.));
#288 = PLANE('',#289);
#289 = AXIS2_PLACEMENT_3D('',#290,#291,#292);
#290 = CARTESIAN_POINT('',(0.427730284864,182.,-55.48643732979));
#291 = DIRECTION('',(0.,1.,0.));
#292 = DIRECTION('',(0.,-0.,1.));
#293 = ADVANCED_FACE('',(#294),#305,.F.);
#294 = FACE_BOUND('',#295,.F.);
#295 = EDGE_LOOP('',(#296,#302,#303,#304));
#296 = ORIENTED_EDGE('',*,*,#297,.T.);
#297 = EDGE_CURVE('',#150,#230,#298,.T.);
#298 = LINE('',#299,#300);
#299 = CARTESIAN_POINT('',(-16.,174.,0.));
#300 = VECTOR('',#301,1.);
#301 = DIRECTION('',(0.,1.,0.));
#302 = ORIENTED_EDGE('',*,*,#238,.T.);
#303 = ORIENTED_EDGE('',*,*,#66,.F.);
#304 = ORIENTED_EDGE('',*,*,#158,.F.);
#305 = SURFACE_OF_LINEAR_EXTRUSION('',#306,#311);
#306 = B_SPLINE_CURVE_WITH_KNOTS('',3,(#307,#308,#309,#310),
  .UNSPECIFIED.,.F.,.F.,(4,4),(0.,1.),.PIECEWISE_BEZIER_KNOTS.);
#307 = CARTESIAN_POINT('',(-16.,174.,0.));
#308 = CARTESIAN_POINT('',(-16.,174.,17.));
#309 = CARTESIAN_POINT('',(-13.,174.,25.));
#310 = CARTESIAN_POINT('',(-13.,174.,35.));
#311 = VECTOR('',#312,1.);
#312 = DIRECTION('',(-0.,-1.,-0.));
#313 = ADVANCED_FACE('',(#314),#327,.T.);
#314 = FACE_BOUND('',#315,.T.);
#315 = EDGE_LOOP('',(#316,#317,#318,#319));
#316 = ORIENTED_EDGE('',*,*,#220,.F.);
#317 = ORIENTED_EDGE('',*,*,#118,.T.);
#318 = ORIENTED_EDGE('',*,*,#140,.T.);
#319 = ORIENTED_EDGE('',*,*,#320,.F.);
#320 = EDGE_CURVE('',#221,#141,#321,.T.);
#321 = B_SPLINE_CURVE_WITH_KNOTS('',4,(#322,#323,#324,#325,#326),
  .UNSPECIFIED.,.F.,.F.,(5,5),(0.,1.),.PIECEWISE_BEZIER_KNOTS.);
#322 = CARTESIAN_POINT('',(-15.63691796222,182.0000006,-26.66984232516)
  );
#323 = CARTESIAN_POINT('',(-15.63691796222,180.0000003,-26.66984232516)
  );
#324 = CARTESIAN_POINT('',(-15.63691796222,178.,-26.66984232516));
#325 = CARTESIAN_POINT('',(-15.63691796222,175.9999997,-26.66984232516)
  );
#326 = CARTESIAN_POINT('',(-15.63691796222,173.9999994,-26.66984232516)
  );
#327 = CYLINDRICAL_SURFACE('',#328,17.);
#328 = AXIS2_PLACEMENT_3D('',#329,#330,#331);
#329 = CARTESIAN_POINT('',(0.,173.,-20.));
#330 = DIRECTION('',(0.,1.,0.));
#331 = DIRECTION('',(0.,-0.,1.));
#332 = ADVANCED_FACE('',(#333),#339,.F.);
#333 = FACE_BOUND('',#334,.F.);
#334 = EDGE_LOOP('',(#335,#336,#337,#338));
#335 = ORIENTED_EDGE('',*,*,#149,.F.);
#336 = ORIENTED_EDGE('',*,*,#320,.F.);
#337 = ORIENTED_EDGE('',*,*,#229,.T.);
#338 = ORIENTED_EDGE('',*,*,#297,.F.);
#339 = SURFACE_OF_LINEAR_EXTRUSION('',#340,#345);
#340 = B_SPLINE_CURVE_WITH_KNOTS('',3,(#341,#342,#343,#344),
  .UNSPECIFIED.,.F.,.F.,(4,4),(0.,1.),.PIECEWISE_BEZIER_KNOTS.);
#341 = CARTESIAN_POINT('',(-14.,174.,-92.));
#342 = CARTESIAN_POINT('',(-14.,174.,-60.));
#343 = CARTESIAN_POINT('',(-16.,174.,-35.));
#344 = CARTESIAN_POINT('',(-16.,174.,0.));
#345 = VECTOR('',#346,1.);
#346 = DIRECTION('',(-0.,-1.,-0.));
#347 = ADVANCED_FACE('',(#348),#367,.F.);
#348 = FACE_BOUND('',#349,.F.);
#349 = EDGE_LOOP('',(#350,#359,#365,#366));
#350 = ORIENTED_EDGE('',*,*,#351,.F.);
#351 = EDGE_CURVE('',#352,#352,#354,.T.);
#352 = VERTEX_POINT('',#353);
#353 = CARTESIAN_POINT('',(-9.,179.8,-17.8));
#354 = CIRCLE('',#355,2.2);
#355 = AXIS2_PLACEMENT_3D('',#356,#357,#358);
#356 = CARTESIAN_POINT('',(-9.,179.8,-20.));
#357 = DIRECTION('',(0.,1.,0.));
#358 = DIRECTION('',(0.,-0.,1.));
#359 = ORIENTED_EDGE('',*,*,#360,.F.);
#360 = EDGE_CURVE('',#168,#352,#361,.T.);
#361 = LINE('',#362,#363);
#362 = CARTESIAN_POINT('',(-9.,173.,-17.8));
#363 = VECTOR('',#364,1.);
#364 = DIRECTION('',(0.,1.,0.));
#365 = ORIENTED_EDGE('',*,*,#167,.T.);
#366 = ORIENTED_EDGE('',*,*,#360,.T.);
#367 = CYLINDRICAL_SURFACE('',#368,2.2);
#368 = AXIS2_PLACEMENT_3D('',#369,#370,#371);
#369 = CARTESIAN_POINT('',(-9.,173.,-20.));
#370 = DIRECTION('',(0.,1.,0.));
#371 = DIRECTION('',(0.,-0.,1.));
#372 = ADVANCED_FACE('',(#373),#384,.F.);
#373 = FACE_BOUND('',#374,.F.);
#374 = EDGE_LOOP('',(#375,#376,#382,#383));
#375 = ORIENTED_EDGE('',*,*,#258,.F.);
#376 = ORIENTED_EDGE('',*,*,#377,.F.);
#377 = EDGE_CURVE('',#179,#259,#378,.T.);
#378 = LINE('',#379,#380);
#379 = CARTESIAN_POINT('',(-2.498279470261E-15,173.,10.2));
#380 = VECTOR('',#381,1.);
#381 = DIRECTION('',(0.,1.,0.));
#382 = ORIENTED_EDGE('',*,*,#178,.T.);
#383 = ORIENTED_EDGE('',*,*,#377,.T.);
#384 = CYLINDRICAL_SURFACE('',#385,10.2);
#385 = AXIS2_PLACEMENT_3D('',#386,#387,#388);
#386 = CARTESIAN_POINT('',(0.,173.,0.));
#387 = DIRECTION('',(0.,1.,0.));
#388 = DIRECTION('',(0.,-0.,1.));
#389 = ADVANCED_FACE('',(#390),#409,.F.);
#390 = FACE_BOUND('',#391,.F.);
#391 = EDGE_LOOP('',(#392,#401,#407,#408));
#392 = ORIENTED_EDGE('',*,*,#393,.F.);
#393 = EDGE_CURVE('',#394,#394,#396,.T.);
#394 = VERTEX_POINT('',#395);
#395 = CARTESIAN_POINT('',(9.,179.8,-17.8));
#396 = CIRCLE('',#397,2.2);
#397 = AXIS2_PLACEMENT_3D('',#398,#399,#400);
#398 = CARTESIAN_POINT('',(9.,179.8,-20.));
#399 = DIRECTION('',(0.,1.,0.));
#400 = DIRECTION('',(0.,-0.,1.));
#401 = ORIENTED_EDGE('',*,*,#402,.F.);
#402 = EDGE_CURVE('',#190,#394,#403,.T.);
#403 = LINE('',#404,#405);
#404 = CARTESIAN_POINT('',(9.,173.,-17.8));
#405 = VECTOR('',#406,1.);
#406 = DIRECTION('',(0.,1.,0.));
#407 = ORIENTED_EDGE('',*,*,#189,.T.);
#408 = ORIENTED_EDGE('',*,*,#402,.T.);
#409 = CYLINDRICAL_SURFACE('',#410,2.2);
#410 = AXIS2_PLACEMENT_3D('',#411,#412,#413);
#411 = CARTESIAN_POINT('',(9.,173.,-20.));
#412 = DIRECTION('',(0.,1.,0.));
#413 = DIRECTION('',(0.,-0.,1.));
#414 = ADVANCED_FACE('',(#415),#426,.F.);
#415 = FACE_BOUND('',#416,.F.);
#416 = EDGE_LOOP('',(#417,#418,#424,#425));
#417 = ORIENTED_EDGE('',*,*,#269,.F.);
#418 = ORIENTED_EDGE('',*,*,#419,.F.);
#419 = EDGE_CURVE('',#201,#270,#420,.T.);
#420 = LINE('',#421,#422);
#421 = CARTESIAN_POINT('',(-9.858406733136E-16,173.,39.025));
#422 = VECTOR('',#423,1.);
#423 = DIRECTION('',(0.,1.,0.));
#424 = ORIENTED_EDGE('',*,*,#200,.T.);
#425 = ORIENTED_EDGE('',*,*,#419,.T.);
#426 = CYLINDRICAL_SURFACE('',#427,4.025);
#427 = AXIS2_PLACEMENT_3D('',#428,#429,#430);
#428 = CARTESIAN_POINT('',(0.,173.,35.));
#429 = DIRECTION('',(0.,1.,0.));
#430 = DIRECTION('',(0.,-0.,1.));
#431 = ADVANCED_FACE('',(#432),#443,.F.);
#432 = FACE_BOUND('',#433,.F.);
#433 = EDGE_LOOP('',(#434,#435,#441,#442));
#434 = ORIENTED_EDGE('',*,*,#247,.F.);
#435 = ORIENTED_EDGE('',*,*,#436,.F.);
#436 = EDGE_CURVE('',#352,#248,#437,.T.);
#437 = LINE('',#438,#439);
#438 = CARTESIAN_POINT('',(-9.,179.8,-17.8));
#439 = VECTOR('',#440,1.);
#440 = DIRECTION('',(-1.731912112471E-16,0.707106781187,0.707106781187)
  );
#441 = ORIENTED_EDGE('',*,*,#351,.T.);
#442 = ORIENTED_EDGE('',*,*,#436,.T.);
#443 = CONICAL_SURFACE('',#444,2.2,0.785398163397);
#444 = AXIS2_PLACEMENT_3D('',#445,#446,#447);
#445 = CARTESIAN_POINT('',(-9.,179.8,-20.));
#446 = DIRECTION('',(0.,1.,0.));
#447 = DIRECTION('',(0.,-0.,1.));
#448 = ADVANCED_FACE('',(#449),#460,.F.);
#449 = FACE_BOUND('',#450,.F.);
#450 = EDGE_LOOP('',(#451,#452,#458,#459));
#451 = ORIENTED_EDGE('',*,*,#280,.F.);
#452 = ORIENTED_EDGE('',*,*,#453,.F.);
#453 = EDGE_CURVE('',#394,#281,#454,.T.);
#454 = LINE('',#455,#456);
#455 = CARTESIAN_POINT('',(9.,179.8,-17.8));
#456 = VECTOR('',#457,1.);
#457 = DIRECTION('',(-1.731912112471E-16,0.707106781187,0.707106781187)
  );
#458 = ORIENTED_EDGE('',*,*,#393,.T.);
#459 = ORIENTED_EDGE('',*,*,#453,.T.);
#460 = CONICAL_SURFACE('',#461,2.2,0.785398163397);
#461 = AXIS2_PLACEMENT_3D('',#462,#463,#464);
#462 = CARTESIAN_POINT('',(9.,179.8,-20.));
#463 = DIRECTION('',(0.,1.,0.));
#464 = DIRECTION('',(0.,-0.,1.));
#465 = ( GEOMETRIC_REPRESENTATION_CONTEXT(3) 
GLOBAL_UNCERTAINTY_ASSIGNED_CONTEXT((#469)) GLOBAL_UNIT_ASSIGNED_CONTEXT
((#466,#467,#468)) REPRESENTATION_CONTEXT('Context #1',
  '3D Context with UNIT and UNCERTAINTY') );
#466 = ( LENGTH_UNIT() NAMED_UNIT(*) SI_UNIT(.MILLI.,.METRE.) );
#467 = ( NAMED_UNIT(*) PLANE_ANGLE_UNIT() SI_UNIT($,.RADIAN.) );
#468 = ( NAMED_UNIT(*) SI_UNIT($,.STERADIAN.) SOLID_ANGLE_UNIT() );
#469 = UNCERTAINTY_MEASURE_WITH_UNIT(LENGTH_MEASURE(1.E-06),#466,
  'distance_accuracy_value','confusion accuracy');
#470 = PRODUCT_RELATED_PRODUCT_CATEGORY('part',$,(#7));
ENDSEC;
END-ISO-10303-21;
