ISO-10303-21;
HEADER;
FILE_DESCRIPTION(('FreeCAD Model'),'2;1');
FILE_NAME('Open CASCADE Shape Model','2026-09-22T09:38:08',('FreeCAD'),(
    'FreeCAD'),'Open CASCADE STEP processor 7.8','FreeCAD','Unknown');
FILE_SCHEMA(('AUTOMOTIVE_DESIGN { 1 0 10303 214 1 1 1 1 }'));
ENDSEC;
DATA;
#1 = APPLICATION_PROTOCOL_DEFINITION('international standard',
  'automotive_design',2000,#2);
#2 = APPLICATION_CONTEXT(
  'core data for automotive mechanical design processes');
#3 = SHAPE_DEFINITION_REPRESENTATION(#4,#10);
#4 = PRODUCT_DEFINITION_SHAPE('','',#5);
#5 = PRODUCT_DEFINITION('design','',#6,#9);
#6 = PRODUCT_DEFINITION_FORMATION('','',#7);
#7 = PRODUCT('Open CASCADE STEP translator 7.8 12',
  'Open CASCADE STEP translator 7.8 12','',(#8));
#8 = PRODUCT_CONTEXT('',#2,'mechanical');
#9 = PRODUCT_DEFINITION_CONTEXT('part definition',#2,'design');
#10 = ADVANCED_BREP_SHAPE_REPRESENTATION('',(#11,#15),#1299);
#11 = AXIS2_PLACEMENT_3D('',#12,#13,#14);
#12 = CARTESIAN_POINT('',(0.,0.,0.));
#13 = DIRECTION('',(0.,0.,1.));
#14 = DIRECTION('',(1.,0.,-0.));
#15 = MANIFOLD_SOLID_BREP('',#16);
#16 = CLOSED_SHELL('',(#17,#59,#95,#131,#392,#707,#727,#747,#759,#776,
    #798,#815,#832,#849,#866,#878,#895,#912,#934,#951,#968,#985,#1002,
    #1014,#1036,#1053,#1070,#1087,#1104,#1116,#1133,#1150,#1167,#1198,
    #1229,#1271,#1285));
#17 = ADVANCED_FACE('',(#18),#54,.T.);
#18 = FACE_BOUND('',#19,.T.);
#19 = EDGE_LOOP('',(#20,#30,#39,#47));
#20 = ORIENTED_EDGE('',*,*,#21,.T.);
#21 = EDGE_CURVE('',#22,#24,#26,.T.);
#22 = VERTEX_POINT('',#23);
#23 = CARTESIAN_POINT('',(28.284271247462,184.,-28.28427124746));
#24 = VERTEX_POINT('',#25);
#25 = CARTESIAN_POINT('',(28.284271247462,192.,-28.28427124746));
#26 = LINE('',#27,#28);
#27 = CARTESIAN_POINT('',(28.284271247462,184.,-28.28427124746));
#28 = VECTOR('',#29,1.);
#29 = DIRECTION('',(0.,1.,0.));
#30 = ORIENTED_EDGE('',*,*,#31,.T.);
#31 = EDGE_CURVE('',#24,#32,#34,.T.);
#32 = VERTEX_POINT('',#33);
#33 = CARTESIAN_POINT('',(-28.28427124746,192.,-28.28427124746));
#34 = CIRCLE('',#35,40.);
#35 = AXIS2_PLACEMENT_3D('',#36,#37,#38);
#36 = CARTESIAN_POINT('',(-6.593716957763E-15,192.,2.220607455696E-15));
#37 = DIRECTION('',(0.,-1.,0.));
#38 = DIRECTION('',(0.707106781187,-0.,-0.707106781187));
#39 = ORIENTED_EDGE('',*,*,#40,.F.);
#40 = EDGE_CURVE('',#41,#32,#43,.T.);
#41 = VERTEX_POINT('',#42);
#42 = CARTESIAN_POINT('',(-28.28427124746,184.,-28.28427124746));
#43 = LINE('',#44,#45);
#44 = CARTESIAN_POINT('',(-28.28427124746,184.,-28.28427124746));
#45 = VECTOR('',#46,1.);
#46 = DIRECTION('',(0.,1.,0.));
#47 = ORIENTED_EDGE('',*,*,#48,.F.);
#48 = EDGE_CURVE('',#22,#41,#49,.T.);
#49 = CIRCLE('',#50,40.);
#50 = AXIS2_PLACEMENT_3D('',#51,#52,#53);
#51 = CARTESIAN_POINT('',(-6.593716957763E-15,184.,2.220607455696E-15));
#52 = DIRECTION('',(0.,-1.,0.));
#53 = DIRECTION('',(0.707106781187,-0.,-0.707106781187));
#54 = CYLINDRICAL_SURFACE('',#55,40.);
#55 = AXIS2_PLACEMENT_3D('',#56,#57,#58);
#56 = CARTESIAN_POINT('',(-6.593716957763E-15,184.,2.220607455696E-15));
#57 = DIRECTION('',(0.,-1.,0.));
#58 = DIRECTION('',(0.707106781187,-0.,-0.707106781187));
#59 = ADVANCED_FACE('',(#60),#87,.T.);
#60 = FACE_BOUND('',#61,.T.);
#61 = EDGE_LOOP('',(#62,#72,#79,#80));
#62 = ORIENTED_EDGE('',*,*,#63,.T.);
#63 = EDGE_CURVE('',#64,#66,#68,.T.);
#64 = VERTEX_POINT('',#65);
#65 = CARTESIAN_POINT('',(18.,184.,-55.));
#66 = VERTEX_POINT('',#67);
#67 = CARTESIAN_POINT('',(18.,192.,-55.));
#68 = LINE('',#69,#70);
#69 = CARTESIAN_POINT('',(18.,184.,-55.));
#70 = VECTOR('',#71,1.);
#71 = DIRECTION('',(0.,1.,0.));
#72 = ORIENTED_EDGE('',*,*,#73,.T.);
#73 = EDGE_CURVE('',#66,#24,#74,.T.);
#74 = B_SPLINE_CURVE_WITH_KNOTS('',3,(#75,#76,#77,#78),.UNSPECIFIED.,.F.
  ,.F.,(4,4),(0.,1.),.PIECEWISE_BEZIER_KNOTS.);
#75 = CARTESIAN_POINT('',(18.,192.,-55.));
#76 = CARTESIAN_POINT('',(18.,192.,-42.));
#77 = CARTESIAN_POINT('',(20.5,192.,-36.06854249492));
#78 = CARTESIAN_POINT('',(28.284271247462,192.,-28.28427124746));
#79 = ORIENTED_EDGE('',*,*,#21,.F.);
#80 = ORIENTED_EDGE('',*,*,#81,.F.);
#81 = EDGE_CURVE('',#64,#22,#82,.T.);
#82 = B_SPLINE_CURVE_WITH_KNOTS('',3,(#83,#84,#85,#86),.UNSPECIFIED.,.F.
  ,.F.,(4,4),(0.,1.),.PIECEWISE_BEZIER_KNOTS.);
#83 = CARTESIAN_POINT('',(18.,184.,-55.));
#84 = CARTESIAN_POINT('',(18.,184.,-42.));
#85 = CARTESIAN_POINT('',(20.5,184.,-36.06854249492));
#86 = CARTESIAN_POINT('',(28.284271247462,184.,-28.28427124746));
#87 = SURFACE_OF_LINEAR_EXTRUSION('',#88,#93);
#88 = B_SPLINE_CURVE_WITH_KNOTS('',3,(#89,#90,#91,#92),.UNSPECIFIED.,.F.
  ,.F.,(4,4),(0.,1.),.PIECEWISE_BEZIER_KNOTS.);
#89 = CARTESIAN_POINT('',(18.,184.,-55.));
#90 = CARTESIAN_POINT('',(18.,184.,-42.));
#91 = CARTESIAN_POINT('',(20.5,184.,-36.06854249492));
#92 = CARTESIAN_POINT('',(28.284271247462,184.,-28.28427124746));
#93 = VECTOR('',#94,1.);
#94 = DIRECTION('',(-0.,-1.,-0.));
#95 = ADVANCED_FACE('',(#96),#123,.T.);
#96 = FACE_BOUND('',#97,.T.);
#97 = EDGE_LOOP('',(#98,#99,#108,#116));
#98 = ORIENTED_EDGE('',*,*,#40,.T.);
#99 = ORIENTED_EDGE('',*,*,#100,.T.);
#100 = EDGE_CURVE('',#32,#101,#103,.T.);
#101 = VERTEX_POINT('',#102);
#102 = CARTESIAN_POINT('',(-18.,192.,-55.));
#103 = B_SPLINE_CURVE_WITH_KNOTS('',3,(#104,#105,#106,#107),
  .UNSPECIFIED.,.F.,.F.,(4,4),(0.,1.),.PIECEWISE_BEZIER_KNOTS.);
#104 = CARTESIAN_POINT('',(-28.28427124746,192.,-28.28427124746));
#105 = CARTESIAN_POINT('',(-20.5,192.,-36.06854249492));
#106 = CARTESIAN_POINT('',(-18.,192.,-42.));
#107 = CARTESIAN_POINT('',(-18.,192.,-55.));
#108 = ORIENTED_EDGE('',*,*,#109,.F.);
#109 = EDGE_CURVE('',#110,#101,#112,.T.);
#110 = VERTEX_POINT('',#111);
#111 = CARTESIAN_POINT('',(-18.,184.,-55.));
#112 = LINE('',#113,#114);
#113 = CARTESIAN_POINT('',(-18.,184.,-55.));
#114 = VECTOR('',#115,1.);
#115 = DIRECTION('',(0.,1.,0.));
#116 = ORIENTED_EDGE('',*,*,#117,.F.);
#117 = EDGE_CURVE('',#41,#110,#118,.T.);
#118 = B_SPLINE_CURVE_WITH_KNOTS('',3,(#119,#120,#121,#122),
  .UNSPECIFIED.,.F.,.F.,(4,4),(0.,1.),.PIECEWISE_BEZIER_KNOTS.);
#119 = CARTESIAN_POINT('',(-28.28427124746,184.,-28.28427124746));
#120 = CARTESIAN_POINT('',(-20.5,184.,-36.06854249492));
#121 = CARTESIAN_POINT('',(-18.,184.,-42.));
#122 = CARTESIAN_POINT('',(-18.,184.,-55.));
#123 = SURFACE_OF_LINEAR_EXTRUSION('',#124,#129);
#124 = B_SPLINE_CURVE_WITH_KNOTS('',3,(#125,#126,#127,#128),
  .UNSPECIFIED.,.F.,.F.,(4,4),(0.,1.),.PIECEWISE_BEZIER_KNOTS.);
#125 = CARTESIAN_POINT('',(-28.28427124746,184.,-28.28427124746));
#126 = CARTESIAN_POINT('',(-20.5,184.,-36.06854249492));
#127 = CARTESIAN_POINT('',(-18.,184.,-42.));
#128 = CARTESIAN_POINT('',(-18.,184.,-55.));
#129 = VECTOR('',#130,1.);
#130 = DIRECTION('',(-0.,-1.,-0.));
#131 = ADVANCED_FACE('',(#132,#162,#173,#226,#237,#248,#301,#354,#365,
    #376),#387,.T.);
#132 = FACE_BOUND('',#133,.T.);
#133 = EDGE_LOOP('',(#134,#135,#136,#145,#154,#161));
#134 = ORIENTED_EDGE('',*,*,#48,.T.);
#135 = ORIENTED_EDGE('',*,*,#117,.T.);
#136 = ORIENTED_EDGE('',*,*,#137,.T.);
#137 = EDGE_CURVE('',#110,#138,#140,.T.);
#138 = VERTEX_POINT('',#139);
#139 = CARTESIAN_POINT('',(-17.,184.,-130.));
#140 = B_SPLINE_CURVE_WITH_KNOTS('',3,(#141,#142,#143,#144),
  .UNSPECIFIED.,.F.,.F.,(4,4),(0.,1.),.PIECEWISE_BEZIER_KNOTS.);
#141 = CARTESIAN_POINT('',(-18.,184.,-55.));
#142 = CARTESIAN_POINT('',(-18.,184.,-78.));
#143 = CARTESIAN_POINT('',(-17.,184.,-104.));
#144 = CARTESIAN_POINT('',(-17.,184.,-130.));
#145 = ORIENTED_EDGE('',*,*,#146,.T.);
#146 = EDGE_CURVE('',#138,#147,#149,.T.);
#147 = VERTEX_POINT('',#148);
#148 = CARTESIAN_POINT('',(17.,184.,-130.));
#149 = CIRCLE('',#150,17.);
#150 = AXIS2_PLACEMENT_3D('',#151,#152,#153);
#151 = CARTESIAN_POINT('',(0.,184.,-130.));
#152 = DIRECTION('',(0.,-1.,0.));
#153 = DIRECTION('',(-1.,0.,0.));
#154 = ORIENTED_EDGE('',*,*,#155,.T.);
#155 = EDGE_CURVE('',#147,#64,#156,.T.);
#156 = B_SPLINE_CURVE_WITH_KNOTS('',3,(#157,#158,#159,#160),
  .UNSPECIFIED.,.F.,.F.,(4,4),(0.,1.),.PIECEWISE_BEZIER_KNOTS.);
#157 = CARTESIAN_POINT('',(17.,184.,-130.));
#158 = CARTESIAN_POINT('',(17.,184.,-104.));
#159 = CARTESIAN_POINT('',(18.,184.,-78.));
#160 = CARTESIAN_POINT('',(18.,184.,-55.));
#161 = ORIENTED_EDGE('',*,*,#81,.T.);
#162 = FACE_BOUND('',#163,.T.);
#163 = EDGE_LOOP('',(#164));
#164 = ORIENTED_EDGE('',*,*,#165,.T.);
#165 = EDGE_CURVE('',#166,#166,#168,.T.);
#166 = VERTEX_POINT('',#167);
#167 = CARTESIAN_POINT('',(-5.755839955993E-15,184.,23.5));
#168 = CIRCLE('',#169,23.5);
#169 = AXIS2_PLACEMENT_3D('',#170,#171,#172);
#170 = CARTESIAN_POINT('',(0.,184.,0.));
#171 = DIRECTION('',(0.,1.,0.));
#172 = DIRECTION('',(0.,-0.,1.));
#173 = FACE_BOUND('',#174,.T.);
#174 = EDGE_LOOP('',(#175,#186,#194,#203,#211,#220));
#175 = ORIENTED_EDGE('',*,*,#176,.F.);
#176 = EDGE_CURVE('',#177,#179,#181,.T.);
#177 = VERTEX_POINT('',#178);
#178 = CARTESIAN_POINT('',(-8.,184.,-42.));
#179 = VERTEX_POINT('',#180);
#180 = CARTESIAN_POINT('',(-10.,184.,-44.));
#181 = CIRCLE('',#182,2.);
#182 = AXIS2_PLACEMENT_3D('',#183,#184,#185);
#183 = CARTESIAN_POINT('',(-8.,184.,-44.));
#184 = DIRECTION('',(-0.,-1.,0.));
#185 = DIRECTION('',(-1.,0.,3.5527136788E-15));
#186 = ORIENTED_EDGE('',*,*,#187,.T.);
#187 = EDGE_CURVE('',#177,#188,#190,.T.);
#188 = VERTEX_POINT('',#189);
#189 = CARTESIAN_POINT('',(3.253273710192,184.,-42.));
#190 = LINE('',#191,#192);
#191 = CARTESIAN_POINT('',(-4.,184.,-42.));
#192 = VECTOR('',#193,1.);
#193 = DIRECTION('',(1.,-0.,0.));
#194 = ORIENTED_EDGE('',*,*,#195,.F.);
#195 = EDGE_CURVE('',#196,#188,#198,.T.);
#196 = VERTEX_POINT('',#197);
#197 = CARTESIAN_POINT('',(4.343250411383,184.,-45.6768872326));
#198 = CIRCLE('',#199,2.);
#199 = AXIS2_PLACEMENT_3D('',#200,#201,#202);
#200 = CARTESIAN_POINT('',(3.253273710192,184.,-44.));
#201 = DIRECTION('',(-0.,-1.,0.));
#202 = DIRECTION('',(1.33226762955E-15,-0.,1.));
#203 = ORIENTED_EDGE('',*,*,#204,.T.);
#204 = EDGE_CURVE('',#196,#205,#207,.T.);
#205 = VERTEX_POINT('',#206);
#206 = CARTESIAN_POINT('',(-6.910023298809,184.,-52.99151514422));
#207 = LINE('',#208,#209);
#208 = CARTESIAN_POINT('',(1.651638047435,184.,-47.42643526916));
#209 = VECTOR('',#210,1.);
#210 = DIRECTION('',(-0.838443616301,0.,-0.544988350595));
#211 = ORIENTED_EDGE('',*,*,#212,.F.);
#212 = EDGE_CURVE('',#213,#205,#215,.T.);
#213 = VERTEX_POINT('',#214);
#214 = CARTESIAN_POINT('',(-10.,184.,-51.31462791162));
#215 = CIRCLE('',#216,2.);
#216 = AXIS2_PLACEMENT_3D('',#217,#218,#219);
#217 = CARTESIAN_POINT('',(-8.,184.,-51.31462791162));
#218 = DIRECTION('',(0.,-1.,-0.));
#219 = DIRECTION('',(0.544988350595,0.,-0.838443616301));
#220 = ORIENTED_EDGE('',*,*,#221,.T.);
#221 = EDGE_CURVE('',#213,#179,#222,.T.);
#222 = LINE('',#223,#224);
#223 = CARTESIAN_POINT('',(-10.,184.,-51.04528585215));
#224 = VECTOR('',#225,1.);
#225 = DIRECTION('',(0.,0.,1.));
#226 = FACE_BOUND('',#227,.T.);
#227 = EDGE_LOOP('',(#228));
#228 = ORIENTED_EDGE('',*,*,#229,.T.);
#229 = EDGE_CURVE('',#230,#230,#232,.T.);
#230 = VERTEX_POINT('',#231);
#231 = CARTESIAN_POINT('',(-5.388445916248E-16,184.,-63.8));
#232 = CIRCLE('',#233,2.2);
#233 = AXIS2_PLACEMENT_3D('',#234,#235,#236);
#234 = CARTESIAN_POINT('',(0.,184.,-66.));
#235 = DIRECTION('',(0.,1.,0.));
#236 = DIRECTION('',(0.,-0.,1.));
#237 = FACE_BOUND('',#238,.T.);
#238 = EDGE_LOOP('',(#239));
#239 = ORIENTED_EDGE('',*,*,#240,.T.);
#240 = EDGE_CURVE('',#241,#241,#243,.T.);
#241 = VERTEX_POINT('',#242);
#242 = CARTESIAN_POINT('',(-5.388445916248E-16,184.,-90.8));
#243 = CIRCLE('',#244,2.2);
#244 = AXIS2_PLACEMENT_3D('',#245,#246,#247);
#245 = CARTESIAN_POINT('',(0.,184.,-93.));
#246 = DIRECTION('',(0.,1.,0.));
#247 = DIRECTION('',(0.,-0.,1.));
#248 = FACE_BOUND('',#249,.T.);
#249 = EDGE_LOOP('',(#250,#261,#269,#278,#286,#295));
#250 = ORIENTED_EDGE('',*,*,#251,.F.);
#251 = EDGE_CURVE('',#252,#254,#256,.T.);
#252 = VERTEX_POINT('',#253);
#253 = CARTESIAN_POINT('',(10.,184.,-73.84131112314));
#254 = VERTEX_POINT('',#255);
#255 = CARTESIAN_POINT('',(6.853075311273,184.,-72.2028472821));
#256 = CIRCLE('',#257,2.);
#257 = AXIS2_PLACEMENT_3D('',#258,#259,#260);
#258 = CARTESIAN_POINT('',(8.,184.,-73.84131112314));
#259 = DIRECTION('',(0.,-1.,-0.));
#260 = DIRECTION('',(-0.573462344363,-0.,0.819231920519));
#261 = ORIENTED_EDGE('',*,*,#262,.T.);
#262 = EDGE_CURVE('',#252,#263,#265,.T.);
#263 = VERTEX_POINT('',#264);
#264 = CARTESIAN_POINT('',(10.,184.,-82.));
#265 = LINE('',#266,#267);
#266 = CARTESIAN_POINT('',(10.,184.,-62.30862745791));
#267 = VECTOR('',#268,1.);
#268 = DIRECTION('',(0.,0.,-1.));
#269 = ORIENTED_EDGE('',*,*,#270,.F.);
#270 = EDGE_CURVE('',#271,#263,#273,.T.);
#271 = VERTEX_POINT('',#272);
#272 = CARTESIAN_POINT('',(8.,184.,-84.));
#273 = CIRCLE('',#274,2.);
#274 = AXIS2_PLACEMENT_3D('',#275,#276,#277);
#275 = CARTESIAN_POINT('',(8.,184.,-82.));
#276 = DIRECTION('',(0.,-1.,-0.));
#277 = DIRECTION('',(1.,0.,0.));
#278 = ORIENTED_EDGE('',*,*,#279,.T.);
#279 = EDGE_CURVE('',#271,#280,#282,.T.);
#280 = VERTEX_POINT('',#281);
#281 = CARTESIAN_POINT('',(-3.655269824076,184.,-84.));
#282 = LINE('',#283,#284);
#283 = CARTESIAN_POINT('',(4.,184.,-84.));
#284 = VECTOR('',#285,1.);
#285 = DIRECTION('',(-1.,0.,0.));
#286 = ORIENTED_EDGE('',*,*,#287,.F.);
#287 = EDGE_CURVE('',#288,#280,#290,.T.);
#288 = VERTEX_POINT('',#289);
#289 = CARTESIAN_POINT('',(-4.802194512803,184.,-80.36153615896));
#290 = CIRCLE('',#291,2.);
#291 = AXIS2_PLACEMENT_3D('',#292,#293,#294);
#292 = CARTESIAN_POINT('',(-3.655269824076,184.,-82.));
#293 = DIRECTION('',(0.,-1.,-0.));
#294 = DIRECTION('',(-1.7763568394E-15,0.,-1.));
#295 = ORIENTED_EDGE('',*,*,#296,.T.);
#296 = EDGE_CURVE('',#288,#254,#297,.T.);
#297 = LINE('',#298,#299);
#298 = CARTESIAN_POINT('',(3.758915946661,184.,-74.36875883733));
#299 = VECTOR('',#300,1.);
#300 = DIRECTION('',(0.819231920519,-0.,0.573462344363));
#301 = FACE_BOUND('',#302,.T.);
#302 = EDGE_LOOP('',(#303,#314,#322,#331,#339,#348));
#303 = ORIENTED_EDGE('',*,*,#304,.F.);
#304 = EDGE_CURVE('',#305,#307,#309,.T.);
#305 = VERTEX_POINT('',#306);
#306 = CARTESIAN_POINT('',(-8.,184.,-101.5));
#307 = VERTEX_POINT('',#308);
#308 = CARTESIAN_POINT('',(-10.,184.,-103.5));
#309 = CIRCLE('',#310,2.);
#310 = AXIS2_PLACEMENT_3D('',#311,#312,#313);
#311 = CARTESIAN_POINT('',(-8.,184.,-103.5));
#312 = DIRECTION('',(-0.,-1.,-0.));
#313 = DIRECTION('',(-1.,0.,0.));
#314 = ORIENTED_EDGE('',*,*,#315,.T.);
#315 = EDGE_CURVE('',#305,#316,#318,.T.);
#316 = VERTEX_POINT('',#317);
#317 = CARTESIAN_POINT('',(2.779365403436,184.,-101.5));
#318 = LINE('',#319,#320);
#319 = CARTESIAN_POINT('',(-4.,184.,-101.5));
#320 = VECTOR('',#321,1.);
#321 = DIRECTION('',(1.,-0.,0.));
#322 = ORIENTED_EDGE('',*,*,#323,.F.);
#323 = EDGE_CURVE('',#324,#316,#326,.T.);
#324 = VERTEX_POINT('',#325);
#325 = CARTESIAN_POINT('',(3.808356914292,184.,-105.2149858514));
#326 = CIRCLE('',#327,2.);
#327 = AXIS2_PLACEMENT_3D('',#328,#329,#330);
#328 = CARTESIAN_POINT('',(2.779365403436,184.,-103.5));
#329 = DIRECTION('',(-0.,-1.,0.));
#330 = DIRECTION('',(-2.886579864025E-15,0.,1.));
#331 = ORIENTED_EDGE('',*,*,#332,.T.);
#332 = EDGE_CURVE('',#324,#333,#335,.T.);
#333 = VERTEX_POINT('',#334);
#334 = CARTESIAN_POINT('',(-6.971008489145,184.,-111.6826050934));
#335 = LINE('',#336,#337);
#336 = CARTESIAN_POINT('',(14.416837914644,184.,-98.84989725121));
#337 = VECTOR('',#338,1.);
#338 = DIRECTION('',(-0.857492925713,0.,-0.514495755428));
#339 = ORIENTED_EDGE('',*,*,#340,.F.);
#340 = EDGE_CURVE('',#341,#333,#343,.T.);
#341 = VERTEX_POINT('',#342);
#342 = CARTESIAN_POINT('',(-10.,184.,-109.967619242));
#343 = CIRCLE('',#344,2.);
#344 = AXIS2_PLACEMENT_3D('',#345,#346,#347);
#345 = CARTESIAN_POINT('',(-8.,184.,-109.967619242));
#346 = DIRECTION('',(0.,-1.,-0.));
#347 = DIRECTION('',(0.514495755428,0.,-0.857492925713));
#348 = ORIENTED_EDGE('',*,*,#349,.T.);
#349 = EDGE_CURVE('',#341,#307,#350,.T.);
#350 = LINE('',#351,#352);
#351 = CARTESIAN_POINT('',(-10.,184.,-80.37178151736));
#352 = VECTOR('',#353,1.);
#353 = DIRECTION('',(0.,0.,1.));
#354 = FACE_BOUND('',#355,.T.);
#355 = EDGE_LOOP('',(#356));
#356 = ORIENTED_EDGE('',*,*,#357,.T.);
#357 = EDGE_CURVE('',#358,#358,#360,.T.);
#358 = VERTEX_POINT('',#359);
#359 = CARTESIAN_POINT('',(-9.858406733136E-16,184.,-125.975));
#360 = CIRCLE('',#361,4.025);
#361 = AXIS2_PLACEMENT_3D('',#362,#363,#364);
#362 = CARTESIAN_POINT('',(0.,184.,-130.));
#363 = DIRECTION('',(0.,1.,0.));
#364 = DIRECTION('',(0.,-0.,1.));
#365 = FACE_BOUND('',#366,.T.);
#366 = EDGE_LOOP('',(#367));
#367 = ORIENTED_EDGE('',*,*,#368,.T.);
#368 = EDGE_CURVE('',#369,#369,#371,.T.);
#369 = VERTEX_POINT('',#370);
#370 = CARTESIAN_POINT('',(31.,184.,14.2));
#371 = CIRCLE('',#372,2.2);
#372 = AXIS2_PLACEMENT_3D('',#373,#374,#375);
#373 = CARTESIAN_POINT('',(31.,184.,12.));
#374 = DIRECTION('',(0.,1.,0.));
#375 = DIRECTION('',(0.,-0.,1.));
#376 = FACE_BOUND('',#377,.T.);
#377 = EDGE_LOOP('',(#378));
#378 = ORIENTED_EDGE('',*,*,#379,.T.);
#379 = EDGE_CURVE('',#380,#380,#382,.T.);
#380 = VERTEX_POINT('',#381);
#381 = CARTESIAN_POINT('',(31.,184.,-9.8));
#382 = CIRCLE('',#383,2.2);
#383 = AXIS2_PLACEMENT_3D('',#384,#385,#386);
#384 = CARTESIAN_POINT('',(31.,184.,-12.));
#385 = DIRECTION('',(0.,1.,0.));
#386 = DIRECTION('',(0.,-0.,1.));
#387 = PLANE('',#388);
#388 = AXIS2_PLACEMENT_3D('',#389,#390,#391);
#389 = CARTESIAN_POINT('',(-3.703026155839E-15,184.,-50.77594379267));
#390 = DIRECTION('',(-0.,-1.,-0.));
#391 = DIRECTION('',(0.,0.,-1.));
#392 = ADVANCED_FACE('',(#393,#423,#477,#488,#541,#552,#605,#658,#669,
    #680,#691),#702,.F.);
#393 = FACE_BOUND('',#394,.F.);
#394 = EDGE_LOOP('',(#395,#396,#397,#406,#415,#422));
#395 = ORIENTED_EDGE('',*,*,#31,.T.);
#396 = ORIENTED_EDGE('',*,*,#100,.T.);
#397 = ORIENTED_EDGE('',*,*,#398,.T.);
#398 = EDGE_CURVE('',#101,#399,#401,.T.);
#399 = VERTEX_POINT('',#400);
#400 = CARTESIAN_POINT('',(-17.,192.,-130.));
#401 = B_SPLINE_CURVE_WITH_KNOTS('',3,(#402,#403,#404,#405),
  .UNSPECIFIED.,.F.,.F.,(4,4),(0.,1.),.PIECEWISE_BEZIER_KNOTS.);
#402 = CARTESIAN_POINT('',(-18.,192.,-55.));
#403 = CARTESIAN_POINT('',(-18.,192.,-78.));
#404 = CARTESIAN_POINT('',(-17.,192.,-104.));
#405 = CARTESIAN_POINT('',(-17.,192.,-130.));
#406 = ORIENTED_EDGE('',*,*,#407,.T.);
#407 = EDGE_CURVE('',#399,#408,#410,.T.);
#408 = VERTEX_POINT('',#409);
#409 = CARTESIAN_POINT('',(17.,192.,-130.));
#410 = CIRCLE('',#411,17.);
#411 = AXIS2_PLACEMENT_3D('',#412,#413,#414);
#412 = CARTESIAN_POINT('',(0.,192.,-130.));
#413 = DIRECTION('',(0.,-1.,0.));
#414 = DIRECTION('',(-1.,0.,0.));
#415 = ORIENTED_EDGE('',*,*,#416,.T.);
#416 = EDGE_CURVE('',#408,#66,#417,.T.);
#417 = B_SPLINE_CURVE_WITH_KNOTS('',3,(#418,#419,#420,#421),
  .UNSPECIFIED.,.F.,.F.,(4,4),(0.,1.),.PIECEWISE_BEZIER_KNOTS.);
#418 = CARTESIAN_POINT('',(17.,192.,-130.));
#419 = CARTESIAN_POINT('',(17.,192.,-104.));
#420 = CARTESIAN_POINT('',(18.,192.,-78.));
#421 = CARTESIAN_POINT('',(18.,192.,-55.));
#422 = ORIENTED_EDGE('',*,*,#73,.T.);
#423 = FACE_BOUND('',#424,.F.);
#424 = EDGE_LOOP('',(#425,#435,#444,#453,#461,#470));
#425 = ORIENTED_EDGE('',*,*,#426,.T.);
#426 = EDGE_CURVE('',#427,#429,#431,.T.);
#427 = VERTEX_POINT('',#428);
#428 = CARTESIAN_POINT('',(-25.23885892824,192.,18.));
#429 = VERTEX_POINT('',#430);
#430 = CARTESIAN_POINT('',(-28.84441020371,192.,18.));
#431 = LINE('',#432,#433);
#432 = CARTESIAN_POINT('',(-18.,192.,18.));
#433 = VECTOR('',#434,1.);
#434 = DIRECTION('',(-1.,0.,0.));
#435 = ORIENTED_EDGE('',*,*,#436,.T.);
#436 = EDGE_CURVE('',#429,#437,#439,.T.);
#437 = VERTEX_POINT('',#438);
#438 = CARTESIAN_POINT('',(-8.327598234202E-15,192.,34.));
#439 = CIRCLE('',#440,34.);
#440 = AXIS2_PLACEMENT_3D('',#441,#442,#443);
#441 = CARTESIAN_POINT('',(0.,192.,0.));
#442 = DIRECTION('',(0.,1.,0.));
#443 = DIRECTION('',(0.,-0.,1.));
#444 = ORIENTED_EDGE('',*,*,#445,.T.);
#445 = EDGE_CURVE('',#437,#446,#448,.T.);
#446 = VERTEX_POINT('',#447);
#447 = CARTESIAN_POINT('',(14.,192.,30.983866769659));
#448 = CIRCLE('',#449,34.);
#449 = AXIS2_PLACEMENT_3D('',#450,#451,#452);
#450 = CARTESIAN_POINT('',(0.,192.,0.));
#451 = DIRECTION('',(0.,1.,0.));
#452 = DIRECTION('',(0.,-0.,1.));
#453 = ORIENTED_EDGE('',*,*,#454,.F.);
#454 = EDGE_CURVE('',#455,#446,#457,.T.);
#455 = VERTEX_POINT('',#456);
#456 = CARTESIAN_POINT('',(14.,192.,27.658633371879));
#457 = LINE('',#458,#459);
#458 = CARTESIAN_POINT('',(14.,192.,-16.38797189633));
#459 = VECTOR('',#460,1.);
#460 = DIRECTION('',(0.,-0.,1.));
#461 = ORIENTED_EDGE('',*,*,#462,.F.);
#462 = EDGE_CURVE('',#463,#455,#465,.T.);
#463 = VERTEX_POINT('',#464);
#464 = CARTESIAN_POINT('',(-7.592810154714E-15,192.,31.));
#465 = CIRCLE('',#466,31.);
#466 = AXIS2_PLACEMENT_3D('',#467,#468,#469);
#467 = CARTESIAN_POINT('',(0.,192.,0.));
#468 = DIRECTION('',(0.,1.,0.));
#469 = DIRECTION('',(0.,-0.,1.));
#470 = ORIENTED_EDGE('',*,*,#471,.F.);
#471 = EDGE_CURVE('',#427,#463,#472,.T.);
#472 = CIRCLE('',#473,31.);
#473 = AXIS2_PLACEMENT_3D('',#474,#475,#476);
#474 = CARTESIAN_POINT('',(0.,192.,0.));
#475 = DIRECTION('',(0.,1.,0.));
#476 = DIRECTION('',(0.,-0.,1.));
#477 = FACE_BOUND('',#478,.F.);
#478 = EDGE_LOOP('',(#479));
#479 = ORIENTED_EDGE('',*,*,#480,.T.);
#480 = EDGE_CURVE('',#481,#481,#483,.T.);
#481 = VERTEX_POINT('',#482);
#482 = CARTESIAN_POINT('',(-5.755839955993E-15,192.,23.5));
#483 = CIRCLE('',#484,23.5);
#484 = AXIS2_PLACEMENT_3D('',#485,#486,#487);
#485 = CARTESIAN_POINT('',(0.,192.,0.));
#486 = DIRECTION('',(0.,1.,0.));
#487 = DIRECTION('',(0.,-0.,1.));
#488 = FACE_BOUND('',#489,.F.);
#489 = EDGE_LOOP('',(#490,#501,#509,#518,#526,#535));
#490 = ORIENTED_EDGE('',*,*,#491,.F.);
#491 = EDGE_CURVE('',#492,#494,#496,.T.);
#492 = VERTEX_POINT('',#493);
#493 = CARTESIAN_POINT('',(-8.,192.,-42.));
#494 = VERTEX_POINT('',#495);
#495 = CARTESIAN_POINT('',(-10.,192.,-44.));
#496 = CIRCLE('',#497,2.);
#497 = AXIS2_PLACEMENT_3D('',#498,#499,#500);
#498 = CARTESIAN_POINT('',(-8.,192.,-44.));
#499 = DIRECTION('',(-0.,-1.,0.));
#500 = DIRECTION('',(-1.,0.,3.5527136788E-15));
#501 = ORIENTED_EDGE('',*,*,#502,.T.);
#502 = EDGE_CURVE('',#492,#503,#505,.T.);
#503 = VERTEX_POINT('',#504);
#504 = CARTESIAN_POINT('',(3.253273710192,192.,-42.));
#505 = LINE('',#506,#507);
#506 = CARTESIAN_POINT('',(-4.,192.,-42.));
#507 = VECTOR('',#508,1.);
#508 = DIRECTION('',(1.,-0.,0.));
#509 = ORIENTED_EDGE('',*,*,#510,.F.);
#510 = EDGE_CURVE('',#511,#503,#513,.T.);
#511 = VERTEX_POINT('',#512);
#512 = CARTESIAN_POINT('',(4.343250411383,192.,-45.6768872326));
#513 = CIRCLE('',#514,2.);
#514 = AXIS2_PLACEMENT_3D('',#515,#516,#517);
#515 = CARTESIAN_POINT('',(3.253273710192,192.,-44.));
#516 = DIRECTION('',(-0.,-1.,0.));
#517 = DIRECTION('',(1.33226762955E-15,-0.,1.));
#518 = ORIENTED_EDGE('',*,*,#519,.T.);
#519 = EDGE_CURVE('',#511,#520,#522,.T.);
#520 = VERTEX_POINT('',#521);
#521 = CARTESIAN_POINT('',(-6.910023298809,192.,-52.99151514422));
#522 = LINE('',#523,#524);
#523 = CARTESIAN_POINT('',(1.651638047435,192.,-47.42643526916));
#524 = VECTOR('',#525,1.);
#525 = DIRECTION('',(-0.838443616301,0.,-0.544988350595));
#526 = ORIENTED_EDGE('',*,*,#527,.F.);
#527 = EDGE_CURVE('',#528,#520,#530,.T.);
#528 = VERTEX_POINT('',#529);
#529 = CARTESIAN_POINT('',(-10.,192.,-51.31462791162));
#530 = CIRCLE('',#531,2.);
#531 = AXIS2_PLACEMENT_3D('',#532,#533,#534);
#532 = CARTESIAN_POINT('',(-8.,192.,-51.31462791162));
#533 = DIRECTION('',(0.,-1.,-0.));
#534 = DIRECTION('',(0.544988350595,0.,-0.838443616301));
#535 = ORIENTED_EDGE('',*,*,#536,.T.);
#536 = EDGE_CURVE('',#528,#494,#537,.T.);
#537 = LINE('',#538,#539);
#538 = CARTESIAN_POINT('',(-10.,192.,-51.04528585215));
#539 = VECTOR('',#540,1.);
#540 = DIRECTION('',(0.,0.,1.));
#541 = FACE_BOUND('',#542,.F.);
#542 = EDGE_LOOP('',(#543));
#543 = ORIENTED_EDGE('',*,*,#544,.T.);
#544 = EDGE_CURVE('',#545,#545,#547,.T.);
#545 = VERTEX_POINT('',#546);
#546 = CARTESIAN_POINT('',(-5.388445916248E-16,192.,-63.8));
#547 = CIRCLE('',#548,2.2);
#548 = AXIS2_PLACEMENT_3D('',#549,#550,#551);
#549 = CARTESIAN_POINT('',(0.,192.,-66.));
#550 = DIRECTION('',(0.,1.,0.));
#551 = DIRECTION('',(0.,-0.,1.));
#552 = FACE_BOUND('',#553,.F.);
#553 = EDGE_LOOP('',(#554,#565,#573,#582,#590,#599));
#554 = ORIENTED_EDGE('',*,*,#555,.F.);
#555 = EDGE_CURVE('',#556,#558,#560,.T.);
#556 = VERTEX_POINT('',#557);
#557 = CARTESIAN_POINT('',(10.,192.,-73.84131112314));
#558 = VERTEX_POINT('',#559);
#559 = CARTESIAN_POINT('',(6.853075311273,192.,-72.2028472821));
#560 = CIRCLE('',#561,2.);
#561 = AXIS2_PLACEMENT_3D('',#562,#563,#564);
#562 = CARTESIAN_POINT('',(8.,192.,-73.84131112314));
#563 = DIRECTION('',(0.,-1.,-0.));
#564 = DIRECTION('',(-0.573462344363,-0.,0.819231920519));
#565 = ORIENTED_EDGE('',*,*,#566,.T.);
#566 = EDGE_CURVE('',#556,#567,#569,.T.);
#567 = VERTEX_POINT('',#568);
#568 = CARTESIAN_POINT('',(10.,192.,-82.));
#569 = LINE('',#570,#571);
#570 = CARTESIAN_POINT('',(10.,192.,-62.30862745791));
#571 = VECTOR('',#572,1.);
#572 = DIRECTION('',(0.,0.,-1.));
#573 = ORIENTED_EDGE('',*,*,#574,.F.);
#574 = EDGE_CURVE('',#575,#567,#577,.T.);
#575 = VERTEX_POINT('',#576);
#576 = CARTESIAN_POINT('',(8.,192.,-84.));
#577 = CIRCLE('',#578,2.);
#578 = AXIS2_PLACEMENT_3D('',#579,#580,#581);
#579 = CARTESIAN_POINT('',(8.,192.,-82.));
#580 = DIRECTION('',(0.,-1.,-0.));
#581 = DIRECTION('',(1.,0.,0.));
#582 = ORIENTED_EDGE('',*,*,#583,.T.);
#583 = EDGE_CURVE('',#575,#584,#586,.T.);
#584 = VERTEX_POINT('',#585);
#585 = CARTESIAN_POINT('',(-3.655269824076,192.,-84.));
#586 = LINE('',#587,#588);
#587 = CARTESIAN_POINT('',(4.,192.,-84.));
#588 = VECTOR('',#589,1.);
#589 = DIRECTION('',(-1.,0.,0.));
#590 = ORIENTED_EDGE('',*,*,#591,.F.);
#591 = EDGE_CURVE('',#592,#584,#594,.T.);
#592 = VERTEX_POINT('',#593);
#593 = CARTESIAN_POINT('',(-4.802194512803,192.,-80.36153615896));
#594 = CIRCLE('',#595,2.);
#595 = AXIS2_PLACEMENT_3D('',#596,#597,#598);
#596 = CARTESIAN_POINT('',(-3.655269824076,192.,-82.));
#597 = DIRECTION('',(0.,-1.,-0.));
#598 = DIRECTION('',(-1.7763568394E-15,0.,-1.));
#599 = ORIENTED_EDGE('',*,*,#600,.T.);
#600 = EDGE_CURVE('',#592,#558,#601,.T.);
#601 = LINE('',#602,#603);
#602 = CARTESIAN_POINT('',(3.758915946661,192.,-74.36875883733));
#603 = VECTOR('',#604,1.);
#604 = DIRECTION('',(0.819231920519,-0.,0.573462344363));
#605 = FACE_BOUND('',#606,.F.);
#606 = EDGE_LOOP('',(#607,#618,#626,#635,#643,#652));
#607 = ORIENTED_EDGE('',*,*,#608,.F.);
#608 = EDGE_CURVE('',#609,#611,#613,.T.);
#609 = VERTEX_POINT('',#610);
#610 = CARTESIAN_POINT('',(-8.,192.,-101.5));
#611 = VERTEX_POINT('',#612);
#612 = CARTESIAN_POINT('',(-10.,192.,-103.5));
#613 = CIRCLE('',#614,2.);
#614 = AXIS2_PLACEMENT_3D('',#615,#616,#617);
#615 = CARTESIAN_POINT('',(-8.,192.,-103.5));
#616 = DIRECTION('',(-0.,-1.,-0.));
#617 = DIRECTION('',(-1.,0.,0.));
#618 = ORIENTED_EDGE('',*,*,#619,.T.);
#619 = EDGE_CURVE('',#609,#620,#622,.T.);
#620 = VERTEX_POINT('',#621);
#621 = CARTESIAN_POINT('',(2.779365403436,192.,-101.5));
#622 = LINE('',#623,#624);
#623 = CARTESIAN_POINT('',(-4.,192.,-101.5));
#624 = VECTOR('',#625,1.);
#625 = DIRECTION('',(1.,-0.,0.));
#626 = ORIENTED_EDGE('',*,*,#627,.F.);
#627 = EDGE_CURVE('',#628,#620,#630,.T.);
#628 = VERTEX_POINT('',#629);
#629 = CARTESIAN_POINT('',(3.808356914292,192.,-105.2149858514));
#630 = CIRCLE('',#631,2.);
#631 = AXIS2_PLACEMENT_3D('',#632,#633,#634);
#632 = CARTESIAN_POINT('',(2.779365403436,192.,-103.5));
#633 = DIRECTION('',(-0.,-1.,0.));
#634 = DIRECTION('',(-2.886579864025E-15,0.,1.));
#635 = ORIENTED_EDGE('',*,*,#636,.T.);
#636 = EDGE_CURVE('',#628,#637,#639,.T.);
#637 = VERTEX_POINT('',#638);
#638 = CARTESIAN_POINT('',(-6.971008489145,192.,-111.6826050934));
#639 = LINE('',#640,#641);
#640 = CARTESIAN_POINT('',(14.416837914644,192.,-98.84989725121));
#641 = VECTOR('',#642,1.);
#642 = DIRECTION('',(-0.857492925713,0.,-0.514495755428));
#643 = ORIENTED_EDGE('',*,*,#644,.F.);
#644 = EDGE_CURVE('',#645,#637,#647,.T.);
#645 = VERTEX_POINT('',#646);
#646 = CARTESIAN_POINT('',(-10.,192.,-109.967619242));
#647 = CIRCLE('',#648,2.);
#648 = AXIS2_PLACEMENT_3D('',#649,#650,#651);
#649 = CARTESIAN_POINT('',(-8.,192.,-109.967619242));
#650 = DIRECTION('',(0.,-1.,-0.));
#651 = DIRECTION('',(0.514495755428,0.,-0.857492925713));
#652 = ORIENTED_EDGE('',*,*,#653,.T.);
#653 = EDGE_CURVE('',#645,#611,#654,.T.);
#654 = LINE('',#655,#656);
#655 = CARTESIAN_POINT('',(-10.,192.,-80.37178151736));
#656 = VECTOR('',#657,1.);
#657 = DIRECTION('',(0.,0.,1.));
#658 = FACE_BOUND('',#659,.F.);
#659 = EDGE_LOOP('',(#660));
#660 = ORIENTED_EDGE('',*,*,#661,.T.);
#661 = EDGE_CURVE('',#662,#662,#664,.T.);
#662 = VERTEX_POINT('',#663);
#663 = CARTESIAN_POINT('',(-5.388445916248E-16,192.,-90.8));
#664 = CIRCLE('',#665,2.2);
#665 = AXIS2_PLACEMENT_3D('',#666,#667,#668);
#666 = CARTESIAN_POINT('',(0.,192.,-93.));
#667 = DIRECTION('',(0.,1.,0.));
#668 = DIRECTION('',(0.,-0.,1.));
#669 = FACE_BOUND('',#670,.F.);
#670 = EDGE_LOOP('',(#671));
#671 = ORIENTED_EDGE('',*,*,#672,.T.);
#672 = EDGE_CURVE('',#673,#673,#675,.T.);
#673 = VERTEX_POINT('',#674);
#674 = CARTESIAN_POINT('',(-9.858406733136E-16,192.,-125.975));
#675 = CIRCLE('',#676,4.025);
#676 = AXIS2_PLACEMENT_3D('',#677,#678,#679);
#677 = CARTESIAN_POINT('',(0.,192.,-130.));
#678 = DIRECTION('',(0.,1.,0.));
#679 = DIRECTION('',(0.,-0.,1.));
#680 = FACE_BOUND('',#681,.F.);
#681 = EDGE_LOOP('',(#682));
#682 = ORIENTED_EDGE('',*,*,#683,.T.);
#683 = EDGE_CURVE('',#684,#684,#686,.T.);
#684 = VERTEX_POINT('',#685);
#685 = CARTESIAN_POINT('',(31.,192.,14.2));
#686 = CIRCLE('',#687,2.2);
#687 = AXIS2_PLACEMENT_3D('',#688,#689,#690);
#688 = CARTESIAN_POINT('',(31.,192.,12.));
#689 = DIRECTION('',(0.,1.,0.));
#690 = DIRECTION('',(0.,-0.,1.));
#691 = FACE_BOUND('',#692,.F.);
#692 = EDGE_LOOP('',(#693));
#693 = ORIENTED_EDGE('',*,*,#694,.T.);
#694 = EDGE_CURVE('',#695,#695,#697,.T.);
#695 = VERTEX_POINT('',#696);
#696 = CARTESIAN_POINT('',(31.,192.,-9.8));
#697 = CIRCLE('',#698,2.2);
#698 = AXIS2_PLACEMENT_3D('',#699,#700,#701);
#699 = CARTESIAN_POINT('',(31.,192.,-12.));
#700 = DIRECTION('',(0.,1.,0.));
#701 = DIRECTION('',(0.,-0.,1.));
#702 = PLANE('',#703);
#703 = AXIS2_PLACEMENT_3D('',#704,#705,#706);
#704 = CARTESIAN_POINT('',(-3.703026155839E-15,192.,-50.77594379267));
#705 = DIRECTION('',(-0.,-1.,-0.));
#706 = DIRECTION('',(0.,0.,-1.));
#707 = ADVANCED_FACE('',(#708),#719,.T.);
#708 = FACE_BOUND('',#709,.T.);
#709 = EDGE_LOOP('',(#710,#716,#717,#718));
#710 = ORIENTED_EDGE('',*,*,#711,.T.);
#711 = EDGE_CURVE('',#147,#408,#712,.T.);
#712 = LINE('',#713,#714);
#713 = CARTESIAN_POINT('',(17.,184.,-130.));
#714 = VECTOR('',#715,1.);
#715 = DIRECTION('',(0.,1.,0.));
#716 = ORIENTED_EDGE('',*,*,#416,.T.);
#717 = ORIENTED_EDGE('',*,*,#63,.F.);
#718 = ORIENTED_EDGE('',*,*,#155,.F.);
#719 = SURFACE_OF_LINEAR_EXTRUSION('',#720,#725);
#720 = B_SPLINE_CURVE_WITH_KNOTS('',3,(#721,#722,#723,#724),
  .UNSPECIFIED.,.F.,.F.,(4,4),(0.,1.),.PIECEWISE_BEZIER_KNOTS.);
#721 = CARTESIAN_POINT('',(17.,184.,-130.));
#722 = CARTESIAN_POINT('',(17.,184.,-104.));
#723 = CARTESIAN_POINT('',(18.,184.,-78.));
#724 = CARTESIAN_POINT('',(18.,184.,-55.));
#725 = VECTOR('',#726,1.);
#726 = DIRECTION('',(-0.,-1.,-0.));
#727 = ADVANCED_FACE('',(#728),#739,.T.);
#728 = FACE_BOUND('',#729,.T.);
#729 = EDGE_LOOP('',(#730,#731,#732,#738));
#730 = ORIENTED_EDGE('',*,*,#109,.T.);
#731 = ORIENTED_EDGE('',*,*,#398,.T.);
#732 = ORIENTED_EDGE('',*,*,#733,.F.);
#733 = EDGE_CURVE('',#138,#399,#734,.T.);
#734 = LINE('',#735,#736);
#735 = CARTESIAN_POINT('',(-17.,184.,-130.));
#736 = VECTOR('',#737,1.);
#737 = DIRECTION('',(0.,1.,0.));
#738 = ORIENTED_EDGE('',*,*,#137,.F.);
#739 = SURFACE_OF_LINEAR_EXTRUSION('',#740,#745);
#740 = B_SPLINE_CURVE_WITH_KNOTS('',3,(#741,#742,#743,#744),
  .UNSPECIFIED.,.F.,.F.,(4,4),(0.,1.),.PIECEWISE_BEZIER_KNOTS.);
#741 = CARTESIAN_POINT('',(-18.,184.,-55.));
#742 = CARTESIAN_POINT('',(-18.,184.,-78.));
#743 = CARTESIAN_POINT('',(-17.,184.,-104.));
#744 = CARTESIAN_POINT('',(-17.,184.,-130.));
#745 = VECTOR('',#746,1.);
#746 = DIRECTION('',(-0.,-1.,-0.));
#747 = ADVANCED_FACE('',(#748),#754,.T.);
#748 = FACE_BOUND('',#749,.T.);
#749 = EDGE_LOOP('',(#750,#751,#752,#753));
#750 = ORIENTED_EDGE('',*,*,#733,.T.);
#751 = ORIENTED_EDGE('',*,*,#407,.T.);
#752 = ORIENTED_EDGE('',*,*,#711,.F.);
#753 = ORIENTED_EDGE('',*,*,#146,.F.);
#754 = CYLINDRICAL_SURFACE('',#755,17.);
#755 = AXIS2_PLACEMENT_3D('',#756,#757,#758);
#756 = CARTESIAN_POINT('',(0.,184.,-130.));
#757 = DIRECTION('',(0.,-1.,0.));
#758 = DIRECTION('',(-1.,0.,0.));
#759 = ADVANCED_FACE('',(#760),#771,.F.);
#760 = FACE_BOUND('',#761,.F.);
#761 = EDGE_LOOP('',(#762,#763,#769,#770));
#762 = ORIENTED_EDGE('',*,*,#480,.F.);
#763 = ORIENTED_EDGE('',*,*,#764,.F.);
#764 = EDGE_CURVE('',#166,#481,#765,.T.);
#765 = LINE('',#766,#767);
#766 = CARTESIAN_POINT('',(-5.755839955993E-15,183.,23.5));
#767 = VECTOR('',#768,1.);
#768 = DIRECTION('',(0.,1.,0.));
#769 = ORIENTED_EDGE('',*,*,#165,.T.);
#770 = ORIENTED_EDGE('',*,*,#764,.T.);
#771 = CYLINDRICAL_SURFACE('',#772,23.5);
#772 = AXIS2_PLACEMENT_3D('',#773,#774,#775);
#773 = CARTESIAN_POINT('',(0.,183.,0.));
#774 = DIRECTION('',(0.,1.,0.));
#775 = DIRECTION('',(0.,-0.,1.));
#776 = ADVANCED_FACE('',(#777),#793,.F.);
#777 = FACE_BOUND('',#778,.T.);
#778 = EDGE_LOOP('',(#779,#780,#786,#787));
#779 = ORIENTED_EDGE('',*,*,#176,.T.);
#780 = ORIENTED_EDGE('',*,*,#781,.T.);
#781 = EDGE_CURVE('',#179,#494,#782,.T.);
#782 = LINE('',#783,#784);
#783 = CARTESIAN_POINT('',(-10.,183.,-44.));
#784 = VECTOR('',#785,1.);
#785 = DIRECTION('',(0.,1.,0.));
#786 = ORIENTED_EDGE('',*,*,#491,.F.);
#787 = ORIENTED_EDGE('',*,*,#788,.F.);
#788 = EDGE_CURVE('',#177,#492,#789,.T.);
#789 = LINE('',#790,#791);
#790 = CARTESIAN_POINT('',(-8.,183.,-42.));
#791 = VECTOR('',#792,1.);
#792 = DIRECTION('',(0.,1.,0.));
#793 = CYLINDRICAL_SURFACE('',#794,2.);
#794 = AXIS2_PLACEMENT_3D('',#795,#796,#797);
#795 = CARTESIAN_POINT('',(-8.,183.,-44.));
#796 = DIRECTION('',(-0.,-1.,-0.));
#797 = DIRECTION('',(-1.,0.,3.5527136788E-15));
#798 = ADVANCED_FACE('',(#799),#810,.T.);
#799 = FACE_BOUND('',#800,.T.);
#800 = EDGE_LOOP('',(#801,#802,#803,#804));
#801 = ORIENTED_EDGE('',*,*,#187,.F.);
#802 = ORIENTED_EDGE('',*,*,#788,.T.);
#803 = ORIENTED_EDGE('',*,*,#502,.T.);
#804 = ORIENTED_EDGE('',*,*,#805,.F.);
#805 = EDGE_CURVE('',#188,#503,#806,.T.);
#806 = LINE('',#807,#808);
#807 = CARTESIAN_POINT('',(3.253273710192,183.,-42.));
#808 = VECTOR('',#809,1.);
#809 = DIRECTION('',(0.,1.,0.));
#810 = PLANE('',#811);
#811 = AXIS2_PLACEMENT_3D('',#812,#813,#814);
#812 = CARTESIAN_POINT('',(-8.,183.,-42.));
#813 = DIRECTION('',(0.,0.,-1.));
#814 = DIRECTION('',(1.,0.,0.));
#815 = ADVANCED_FACE('',(#816),#827,.T.);
#816 = FACE_BOUND('',#817,.T.);
#817 = EDGE_LOOP('',(#818,#819,#825,#826));
#818 = ORIENTED_EDGE('',*,*,#221,.F.);
#819 = ORIENTED_EDGE('',*,*,#820,.T.);
#820 = EDGE_CURVE('',#213,#528,#821,.T.);
#821 = LINE('',#822,#823);
#822 = CARTESIAN_POINT('',(-10.,183.,-51.31462791162));
#823 = VECTOR('',#824,1.);
#824 = DIRECTION('',(0.,1.,0.));
#825 = ORIENTED_EDGE('',*,*,#536,.T.);
#826 = ORIENTED_EDGE('',*,*,#781,.F.);
#827 = PLANE('',#828);
#828 = AXIS2_PLACEMENT_3D('',#829,#830,#831);
#829 = CARTESIAN_POINT('',(-10.,183.,-51.31462791162));
#830 = DIRECTION('',(1.,0.,0.));
#831 = DIRECTION('',(0.,0.,1.));
#832 = ADVANCED_FACE('',(#833),#844,.F.);
#833 = FACE_BOUND('',#834,.T.);
#834 = EDGE_LOOP('',(#835,#836,#837,#838));
#835 = ORIENTED_EDGE('',*,*,#195,.T.);
#836 = ORIENTED_EDGE('',*,*,#805,.T.);
#837 = ORIENTED_EDGE('',*,*,#510,.F.);
#838 = ORIENTED_EDGE('',*,*,#839,.F.);
#839 = EDGE_CURVE('',#196,#511,#840,.T.);
#840 = LINE('',#841,#842);
#841 = CARTESIAN_POINT('',(4.343250411383,183.,-45.6768872326));
#842 = VECTOR('',#843,1.);
#843 = DIRECTION('',(0.,1.,0.));
#844 = CYLINDRICAL_SURFACE('',#845,2.);
#845 = AXIS2_PLACEMENT_3D('',#846,#847,#848);
#846 = CARTESIAN_POINT('',(3.253273710192,183.,-44.));
#847 = DIRECTION('',(-0.,-1.,-0.));
#848 = DIRECTION('',(1.33226762955E-15,-0.,1.));
#849 = ADVANCED_FACE('',(#850),#861,.F.);
#850 = FACE_BOUND('',#851,.T.);
#851 = EDGE_LOOP('',(#852,#853,#859,#860));
#852 = ORIENTED_EDGE('',*,*,#212,.T.);
#853 = ORIENTED_EDGE('',*,*,#854,.T.);
#854 = EDGE_CURVE('',#205,#520,#855,.T.);
#855 = LINE('',#856,#857);
#856 = CARTESIAN_POINT('',(-6.910023298809,183.,-52.99151514422));
#857 = VECTOR('',#858,1.);
#858 = DIRECTION('',(0.,1.,0.));
#859 = ORIENTED_EDGE('',*,*,#527,.F.);
#860 = ORIENTED_EDGE('',*,*,#820,.F.);
#861 = CYLINDRICAL_SURFACE('',#862,2.);
#862 = AXIS2_PLACEMENT_3D('',#863,#864,#865);
#863 = CARTESIAN_POINT('',(-8.,183.,-51.31462791162));
#864 = DIRECTION('',(-0.,-1.,-0.));
#865 = DIRECTION('',(0.544988350595,0.,-0.838443616301));
#866 = ADVANCED_FACE('',(#867),#873,.T.);
#867 = FACE_BOUND('',#868,.T.);
#868 = EDGE_LOOP('',(#869,#870,#871,#872));
#869 = ORIENTED_EDGE('',*,*,#204,.F.);
#870 = ORIENTED_EDGE('',*,*,#839,.T.);
#871 = ORIENTED_EDGE('',*,*,#519,.T.);
#872 = ORIENTED_EDGE('',*,*,#854,.F.);
#873 = PLANE('',#874);
#874 = AXIS2_PLACEMENT_3D('',#875,#876,#877);
#875 = CARTESIAN_POINT('',(4.343250411383,183.,-45.6768872326));
#876 = DIRECTION('',(-0.544988350595,0.,0.838443616301));
#877 = DIRECTION('',(-0.838443616301,0.,-0.544988350595));
#878 = ADVANCED_FACE('',(#879),#890,.F.);
#879 = FACE_BOUND('',#880,.F.);
#880 = EDGE_LOOP('',(#881,#882,#888,#889));
#881 = ORIENTED_EDGE('',*,*,#544,.F.);
#882 = ORIENTED_EDGE('',*,*,#883,.F.);
#883 = EDGE_CURVE('',#230,#545,#884,.T.);
#884 = LINE('',#885,#886);
#885 = CARTESIAN_POINT('',(-5.388445916248E-16,183.,-63.8));
#886 = VECTOR('',#887,1.);
#887 = DIRECTION('',(0.,1.,0.));
#888 = ORIENTED_EDGE('',*,*,#229,.T.);
#889 = ORIENTED_EDGE('',*,*,#883,.T.);
#890 = CYLINDRICAL_SURFACE('',#891,2.2);
#891 = AXIS2_PLACEMENT_3D('',#892,#893,#894);
#892 = CARTESIAN_POINT('',(0.,183.,-66.));
#893 = DIRECTION('',(0.,1.,0.));
#894 = DIRECTION('',(0.,-0.,1.));
#895 = ADVANCED_FACE('',(#896),#907,.F.);
#896 = FACE_BOUND('',#897,.F.);
#897 = EDGE_LOOP('',(#898,#899,#905,#906));
#898 = ORIENTED_EDGE('',*,*,#661,.F.);
#899 = ORIENTED_EDGE('',*,*,#900,.F.);
#900 = EDGE_CURVE('',#241,#662,#901,.T.);
#901 = LINE('',#902,#903);
#902 = CARTESIAN_POINT('',(-5.388445916248E-16,183.,-90.8));
#903 = VECTOR('',#904,1.);
#904 = DIRECTION('',(0.,1.,0.));
#905 = ORIENTED_EDGE('',*,*,#240,.T.);
#906 = ORIENTED_EDGE('',*,*,#900,.T.);
#907 = CYLINDRICAL_SURFACE('',#908,2.2);
#908 = AXIS2_PLACEMENT_3D('',#909,#910,#911);
#909 = CARTESIAN_POINT('',(0.,183.,-93.));
#910 = DIRECTION('',(0.,1.,0.));
#911 = DIRECTION('',(0.,-0.,1.));
#912 = ADVANCED_FACE('',(#913),#929,.F.);
#913 = FACE_BOUND('',#914,.T.);
#914 = EDGE_LOOP('',(#915,#916,#922,#923));
#915 = ORIENTED_EDGE('',*,*,#251,.T.);
#916 = ORIENTED_EDGE('',*,*,#917,.T.);
#917 = EDGE_CURVE('',#254,#558,#918,.T.);
#918 = LINE('',#919,#920);
#919 = CARTESIAN_POINT('',(6.853075311273,183.,-72.2028472821));
#920 = VECTOR('',#921,1.);
#921 = DIRECTION('',(0.,1.,0.));
#922 = ORIENTED_EDGE('',*,*,#555,.F.);
#923 = ORIENTED_EDGE('',*,*,#924,.F.);
#924 = EDGE_CURVE('',#252,#556,#925,.T.);
#925 = LINE('',#926,#927);
#926 = CARTESIAN_POINT('',(10.,183.,-73.84131112314));
#927 = VECTOR('',#928,1.);
#928 = DIRECTION('',(0.,1.,0.));
#929 = CYLINDRICAL_SURFACE('',#930,2.);
#930 = AXIS2_PLACEMENT_3D('',#931,#932,#933);
#931 = CARTESIAN_POINT('',(8.,183.,-73.84131112314));
#932 = DIRECTION('',(0.,-1.,-0.));
#933 = DIRECTION('',(-0.573462344363,-0.,0.819231920519));
#934 = ADVANCED_FACE('',(#935),#946,.T.);
#935 = FACE_BOUND('',#936,.T.);
#936 = EDGE_LOOP('',(#937,#938,#939,#940));
#937 = ORIENTED_EDGE('',*,*,#262,.F.);
#938 = ORIENTED_EDGE('',*,*,#924,.T.);
#939 = ORIENTED_EDGE('',*,*,#566,.T.);
#940 = ORIENTED_EDGE('',*,*,#941,.F.);
#941 = EDGE_CURVE('',#263,#567,#942,.T.);
#942 = LINE('',#943,#944);
#943 = CARTESIAN_POINT('',(10.,183.,-82.));
#944 = VECTOR('',#945,1.);
#945 = DIRECTION('',(0.,1.,0.));
#946 = PLANE('',#947);
#947 = AXIS2_PLACEMENT_3D('',#948,#949,#950);
#948 = CARTESIAN_POINT('',(10.,183.,-73.84131112314));
#949 = DIRECTION('',(-1.,0.,0.));
#950 = DIRECTION('',(0.,0.,-1.));
#951 = ADVANCED_FACE('',(#952),#963,.T.);
#952 = FACE_BOUND('',#953,.T.);
#953 = EDGE_LOOP('',(#954,#955,#961,#962));
#954 = ORIENTED_EDGE('',*,*,#296,.F.);
#955 = ORIENTED_EDGE('',*,*,#956,.T.);
#956 = EDGE_CURVE('',#288,#592,#957,.T.);
#957 = LINE('',#958,#959);
#958 = CARTESIAN_POINT('',(-4.802194512803,183.,-80.36153615896));
#959 = VECTOR('',#960,1.);
#960 = DIRECTION('',(0.,1.,0.));
#961 = ORIENTED_EDGE('',*,*,#600,.T.);
#962 = ORIENTED_EDGE('',*,*,#917,.F.);
#963 = PLANE('',#964);
#964 = AXIS2_PLACEMENT_3D('',#965,#966,#967);
#965 = CARTESIAN_POINT('',(-4.802194512803,183.,-80.36153615896));
#966 = DIRECTION('',(0.573462344363,0.,-0.819231920519));
#967 = DIRECTION('',(0.819231920519,0.,0.573462344363));
#968 = ADVANCED_FACE('',(#969),#980,.F.);
#969 = FACE_BOUND('',#970,.T.);
#970 = EDGE_LOOP('',(#971,#972,#973,#974));
#971 = ORIENTED_EDGE('',*,*,#270,.T.);
#972 = ORIENTED_EDGE('',*,*,#941,.T.);
#973 = ORIENTED_EDGE('',*,*,#574,.F.);
#974 = ORIENTED_EDGE('',*,*,#975,.F.);
#975 = EDGE_CURVE('',#271,#575,#976,.T.);
#976 = LINE('',#977,#978);
#977 = CARTESIAN_POINT('',(8.,183.,-84.));
#978 = VECTOR('',#979,1.);
#979 = DIRECTION('',(0.,1.,0.));
#980 = CYLINDRICAL_SURFACE('',#981,2.);
#981 = AXIS2_PLACEMENT_3D('',#982,#983,#984);
#982 = CARTESIAN_POINT('',(8.,183.,-82.));
#983 = DIRECTION('',(0.,-1.,-0.));
#984 = DIRECTION('',(1.,0.,0.));
#985 = ADVANCED_FACE('',(#986),#997,.F.);
#986 = FACE_BOUND('',#987,.T.);
#987 = EDGE_LOOP('',(#988,#989,#995,#996));
#988 = ORIENTED_EDGE('',*,*,#287,.T.);
#989 = ORIENTED_EDGE('',*,*,#990,.T.);
#990 = EDGE_CURVE('',#280,#584,#991,.T.);
#991 = LINE('',#992,#993);
#992 = CARTESIAN_POINT('',(-3.655269824076,183.,-84.));
#993 = VECTOR('',#994,1.);
#994 = DIRECTION('',(0.,1.,0.));
#995 = ORIENTED_EDGE('',*,*,#591,.F.);
#996 = ORIENTED_EDGE('',*,*,#956,.F.);
#997 = CYLINDRICAL_SURFACE('',#998,2.);
#998 = AXIS2_PLACEMENT_3D('',#999,#1000,#1001);
#999 = CARTESIAN_POINT('',(-3.655269824076,183.,-82.));
#1000 = DIRECTION('',(-0.,-1.,-0.));
#1001 = DIRECTION('',(-1.7763568394E-15,0.,-1.));
#1002 = ADVANCED_FACE('',(#1003),#1009,.T.);
#1003 = FACE_BOUND('',#1004,.T.);
#1004 = EDGE_LOOP('',(#1005,#1006,#1007,#1008));
#1005 = ORIENTED_EDGE('',*,*,#279,.F.);
#1006 = ORIENTED_EDGE('',*,*,#975,.T.);
#1007 = ORIENTED_EDGE('',*,*,#583,.T.);
#1008 = ORIENTED_EDGE('',*,*,#990,.F.);
#1009 = PLANE('',#1010);
#1010 = AXIS2_PLACEMENT_3D('',#1011,#1012,#1013);
#1011 = CARTESIAN_POINT('',(8.,183.,-84.));
#1012 = DIRECTION('',(0.,-0.,1.));
#1013 = DIRECTION('',(-1.,0.,0.));
#1014 = ADVANCED_FACE('',(#1015),#1031,.F.);
#1015 = FACE_BOUND('',#1016,.T.);
#1016 = EDGE_LOOP('',(#1017,#1018,#1024,#1025));
#1017 = ORIENTED_EDGE('',*,*,#304,.T.);
#1018 = ORIENTED_EDGE('',*,*,#1019,.T.);
#1019 = EDGE_CURVE('',#307,#611,#1020,.T.);
#1020 = LINE('',#1021,#1022);
#1021 = CARTESIAN_POINT('',(-10.,183.,-103.5));
#1022 = VECTOR('',#1023,1.);
#1023 = DIRECTION('',(0.,1.,0.));
#1024 = ORIENTED_EDGE('',*,*,#608,.F.);
#1025 = ORIENTED_EDGE('',*,*,#1026,.F.);
#1026 = EDGE_CURVE('',#305,#609,#1027,.T.);
#1027 = LINE('',#1028,#1029);
#1028 = CARTESIAN_POINT('',(-8.,183.,-101.5));
#1029 = VECTOR('',#1030,1.);
#1030 = DIRECTION('',(0.,1.,0.));
#1031 = CYLINDRICAL_SURFACE('',#1032,2.);
#1032 = AXIS2_PLACEMENT_3D('',#1033,#1034,#1035);
#1033 = CARTESIAN_POINT('',(-8.,183.,-103.5));
#1034 = DIRECTION('',(-0.,-1.,-0.));
#1035 = DIRECTION('',(-1.,0.,0.));
#1036 = ADVANCED_FACE('',(#1037),#1048,.T.);
#1037 = FACE_BOUND('',#1038,.T.);
#1038 = EDGE_LOOP('',(#1039,#1040,#1041,#1042));
#1039 = ORIENTED_EDGE('',*,*,#315,.F.);
#1040 = ORIENTED_EDGE('',*,*,#1026,.T.);
#1041 = ORIENTED_EDGE('',*,*,#619,.T.);
#1042 = ORIENTED_EDGE('',*,*,#1043,.F.);
#1043 = EDGE_CURVE('',#316,#620,#1044,.T.);
#1044 = LINE('',#1045,#1046);
#1045 = CARTESIAN_POINT('',(2.779365403436,183.,-101.5));
#1046 = VECTOR('',#1047,1.);
#1047 = DIRECTION('',(0.,1.,0.));
#1048 = PLANE('',#1049);
#1049 = AXIS2_PLACEMENT_3D('',#1050,#1051,#1052);
#1050 = CARTESIAN_POINT('',(-8.,183.,-101.5));
#1051 = DIRECTION('',(0.,0.,-1.));
#1052 = DIRECTION('',(1.,0.,0.));
#1053 = ADVANCED_FACE('',(#1054),#1065,.T.);
#1054 = FACE_BOUND('',#1055,.T.);
#1055 = EDGE_LOOP('',(#1056,#1057,#1063,#1064));
#1056 = ORIENTED_EDGE('',*,*,#349,.F.);
#1057 = ORIENTED_EDGE('',*,*,#1058,.T.);
#1058 = EDGE_CURVE('',#341,#645,#1059,.T.);
#1059 = LINE('',#1060,#1061);
#1060 = CARTESIAN_POINT('',(-10.,183.,-109.967619242));
#1061 = VECTOR('',#1062,1.);
#1062 = DIRECTION('',(0.,1.,0.));
#1063 = ORIENTED_EDGE('',*,*,#653,.T.);
#1064 = ORIENTED_EDGE('',*,*,#1019,.F.);
#1065 = PLANE('',#1066);
#1066 = AXIS2_PLACEMENT_3D('',#1067,#1068,#1069);
#1067 = CARTESIAN_POINT('',(-10.,183.,-109.967619242));
#1068 = DIRECTION('',(1.,0.,0.));
#1069 = DIRECTION('',(0.,0.,1.));
#1070 = ADVANCED_FACE('',(#1071),#1082,.F.);
#1071 = FACE_BOUND('',#1072,.T.);
#1072 = EDGE_LOOP('',(#1073,#1074,#1075,#1076));
#1073 = ORIENTED_EDGE('',*,*,#323,.T.);
#1074 = ORIENTED_EDGE('',*,*,#1043,.T.);
#1075 = ORIENTED_EDGE('',*,*,#627,.F.);
#1076 = ORIENTED_EDGE('',*,*,#1077,.F.);
#1077 = EDGE_CURVE('',#324,#628,#1078,.T.);
#1078 = LINE('',#1079,#1080);
#1079 = CARTESIAN_POINT('',(3.808356914292,183.,-105.2149858514));
#1080 = VECTOR('',#1081,1.);
#1081 = DIRECTION('',(0.,1.,0.));
#1082 = CYLINDRICAL_SURFACE('',#1083,2.);
#1083 = AXIS2_PLACEMENT_3D('',#1084,#1085,#1086);
#1084 = CARTESIAN_POINT('',(2.779365403436,183.,-103.5));
#1085 = DIRECTION('',(-0.,-1.,-0.));
#1086 = DIRECTION('',(-2.886579864025E-15,0.,1.));
#1087 = ADVANCED_FACE('',(#1088),#1099,.F.);
#1088 = FACE_BOUND('',#1089,.T.);
#1089 = EDGE_LOOP('',(#1090,#1091,#1097,#1098));
#1090 = ORIENTED_EDGE('',*,*,#340,.T.);
#1091 = ORIENTED_EDGE('',*,*,#1092,.T.);
#1092 = EDGE_CURVE('',#333,#637,#1093,.T.);
#1093 = LINE('',#1094,#1095);
#1094 = CARTESIAN_POINT('',(-6.971008489145,183.,-111.6826050934));
#1095 = VECTOR('',#1096,1.);
#1096 = DIRECTION('',(0.,1.,0.));
#1097 = ORIENTED_EDGE('',*,*,#644,.F.);
#1098 = ORIENTED_EDGE('',*,*,#1058,.F.);
#1099 = CYLINDRICAL_SURFACE('',#1100,2.);
#1100 = AXIS2_PLACEMENT_3D('',#1101,#1102,#1103);
#1101 = CARTESIAN_POINT('',(-8.,183.,-109.967619242));
#1102 = DIRECTION('',(-0.,-1.,-0.));
#1103 = DIRECTION('',(0.514495755428,0.,-0.857492925713));
#1104 = ADVANCED_FACE('',(#1105),#1111,.T.);
#1105 = FACE_BOUND('',#1106,.T.);
#1106 = EDGE_LOOP('',(#1107,#1108,#1109,#1110));
#1107 = ORIENTED_EDGE('',*,*,#332,.F.);
#1108 = ORIENTED_EDGE('',*,*,#1077,.T.);
#1109 = ORIENTED_EDGE('',*,*,#636,.T.);
#1110 = ORIENTED_EDGE('',*,*,#1092,.F.);
#1111 = PLANE('',#1112);
#1112 = AXIS2_PLACEMENT_3D('',#1113,#1114,#1115);
#1113 = CARTESIAN_POINT('',(3.808356914292,183.,-105.2149858514));
#1114 = DIRECTION('',(-0.514495755428,0.,0.857492925713));
#1115 = DIRECTION('',(-0.857492925713,0.,-0.514495755428));
#1116 = ADVANCED_FACE('',(#1117),#1128,.F.);
#1117 = FACE_BOUND('',#1118,.F.);
#1118 = EDGE_LOOP('',(#1119,#1120,#1126,#1127));
#1119 = ORIENTED_EDGE('',*,*,#672,.F.);
#1120 = ORIENTED_EDGE('',*,*,#1121,.F.);
#1121 = EDGE_CURVE('',#358,#673,#1122,.T.);
#1122 = LINE('',#1123,#1124);
#1123 = CARTESIAN_POINT('',(-9.858406733136E-16,183.,-125.975));
#1124 = VECTOR('',#1125,1.);
#1125 = DIRECTION('',(0.,1.,0.));
#1126 = ORIENTED_EDGE('',*,*,#357,.T.);
#1127 = ORIENTED_EDGE('',*,*,#1121,.T.);
#1128 = CYLINDRICAL_SURFACE('',#1129,4.025);
#1129 = AXIS2_PLACEMENT_3D('',#1130,#1131,#1132);
#1130 = CARTESIAN_POINT('',(0.,183.,-130.));
#1131 = DIRECTION('',(0.,1.,0.));
#1132 = DIRECTION('',(0.,-0.,1.));
#1133 = ADVANCED_FACE('',(#1134),#1145,.F.);
#1134 = FACE_BOUND('',#1135,.F.);
#1135 = EDGE_LOOP('',(#1136,#1137,#1143,#1144));
#1136 = ORIENTED_EDGE('',*,*,#683,.F.);
#1137 = ORIENTED_EDGE('',*,*,#1138,.F.);
#1138 = EDGE_CURVE('',#369,#684,#1139,.T.);
#1139 = LINE('',#1140,#1141);
#1140 = CARTESIAN_POINT('',(31.,183.,14.2));
#1141 = VECTOR('',#1142,1.);
#1142 = DIRECTION('',(0.,1.,0.));
#1143 = ORIENTED_EDGE('',*,*,#368,.T.);
#1144 = ORIENTED_EDGE('',*,*,#1138,.T.);
#1145 = CYLINDRICAL_SURFACE('',#1146,2.2);
#1146 = AXIS2_PLACEMENT_3D('',#1147,#1148,#1149);
#1147 = CARTESIAN_POINT('',(31.,183.,12.));
#1148 = DIRECTION('',(0.,1.,0.));
#1149 = DIRECTION('',(0.,-0.,1.));
#1150 = ADVANCED_FACE('',(#1151),#1162,.F.);
#1151 = FACE_BOUND('',#1152,.F.);
#1152 = EDGE_LOOP('',(#1153,#1154,#1160,#1161));
#1153 = ORIENTED_EDGE('',*,*,#694,.F.);
#1154 = ORIENTED_EDGE('',*,*,#1155,.F.);
#1155 = EDGE_CURVE('',#380,#695,#1156,.T.);
#1156 = LINE('',#1157,#1158);
#1157 = CARTESIAN_POINT('',(31.,183.,-9.8));
#1158 = VECTOR('',#1159,1.);
#1159 = DIRECTION('',(0.,1.,0.));
#1160 = ORIENTED_EDGE('',*,*,#379,.T.);
#1161 = ORIENTED_EDGE('',*,*,#1155,.T.);
#1162 = CYLINDRICAL_SURFACE('',#1163,2.2);
#1163 = AXIS2_PLACEMENT_3D('',#1164,#1165,#1166);
#1164 = CARTESIAN_POINT('',(31.,183.,-12.));
#1165 = DIRECTION('',(0.,1.,0.));
#1166 = DIRECTION('',(0.,-0.,1.));
#1167 = ADVANCED_FACE('',(#1168),#1193,.T.);
#1168 = FACE_BOUND('',#1169,.T.);
#1169 = EDGE_LOOP('',(#1170,#1178,#1186,#1192));
#1170 = ORIENTED_EDGE('',*,*,#1171,.F.);
#1171 = EDGE_CURVE('',#1172,#429,#1174,.T.);
#1172 = VERTEX_POINT('',#1173);
#1173 = CARTESIAN_POINT('',(-28.84441020371,190.8,18.));
#1174 = LINE('',#1175,#1176);
#1175 = CARTESIAN_POINT('',(-28.84441020371,190.8,18.));
#1176 = VECTOR('',#1177,1.);
#1177 = DIRECTION('',(0.,1.,0.));
#1178 = ORIENTED_EDGE('',*,*,#1179,.T.);
#1179 = EDGE_CURVE('',#1172,#1180,#1182,.T.);
#1180 = VERTEX_POINT('',#1181);
#1181 = CARTESIAN_POINT('',(-25.23885892824,190.8,18.));
#1182 = LINE('',#1183,#1184);
#1183 = CARTESIAN_POINT('',(-18.,190.8,18.));
#1184 = VECTOR('',#1185,1.);
#1185 = DIRECTION('',(1.,0.,0.));
#1186 = ORIENTED_EDGE('',*,*,#1187,.T.);
#1187 = EDGE_CURVE('',#1180,#427,#1188,.T.);
#1188 = LINE('',#1189,#1190);
#1189 = CARTESIAN_POINT('',(-25.23885892824,190.,18.));
#1190 = VECTOR('',#1191,1.);
#1191 = DIRECTION('',(0.,1.,0.));
#1192 = ORIENTED_EDGE('',*,*,#426,.T.);
#1193 = PLANE('',#1194);
#1194 = AXIS2_PLACEMENT_3D('',#1195,#1196,#1197);
#1195 = CARTESIAN_POINT('',(-36.,190.,18.));
#1196 = DIRECTION('',(0.,0.,1.));
#1197 = DIRECTION('',(1.,0.,-0.));
#1198 = ADVANCED_FACE('',(#1199),#1224,.F.);
#1199 = FACE_BOUND('',#1200,.F.);
#1200 = EDGE_LOOP('',(#1201,#1209,#1217,#1223));
#1201 = ORIENTED_EDGE('',*,*,#1202,.F.);
#1202 = EDGE_CURVE('',#1203,#446,#1205,.T.);
#1203 = VERTEX_POINT('',#1204);
#1204 = CARTESIAN_POINT('',(14.,190.8,30.983866769659));
#1205 = LINE('',#1206,#1207);
#1206 = CARTESIAN_POINT('',(14.,190.8,30.983866769659));
#1207 = VECTOR('',#1208,1.);
#1208 = DIRECTION('',(0.,1.,0.));
#1209 = ORIENTED_EDGE('',*,*,#1210,.T.);
#1210 = EDGE_CURVE('',#1203,#1211,#1213,.T.);
#1211 = VERTEX_POINT('',#1212);
#1212 = CARTESIAN_POINT('',(14.,190.8,27.658633371879));
#1213 = LINE('',#1214,#1215);
#1214 = CARTESIAN_POINT('',(14.,190.8,9.));
#1215 = VECTOR('',#1216,1.);
#1216 = DIRECTION('',(-0.,0.,-1.));
#1217 = ORIENTED_EDGE('',*,*,#1218,.T.);
#1218 = EDGE_CURVE('',#1211,#455,#1219,.T.);
#1219 = LINE('',#1220,#1221);
#1220 = CARTESIAN_POINT('',(14.,190.,27.658633371879));
#1221 = VECTOR('',#1222,1.);
#1222 = DIRECTION('',(0.,1.,0.));
#1223 = ORIENTED_EDGE('',*,*,#454,.T.);
#1224 = PLANE('',#1225);
#1225 = AXIS2_PLACEMENT_3D('',#1226,#1227,#1228);
#1226 = CARTESIAN_POINT('',(14.,190.,18.));
#1227 = DIRECTION('',(1.,0.,-0.));
#1228 = DIRECTION('',(0.,0.,1.));
#1229 = ADVANCED_FACE('',(#1230),#1266,.T.);
#1230 = FACE_BOUND('',#1231,.T.);
#1231 = EDGE_LOOP('',(#1232,#1241,#1248,#1249,#1258,#1265));
#1232 = ORIENTED_EDGE('',*,*,#1233,.T.);
#1233 = EDGE_CURVE('',#1172,#1234,#1236,.T.);
#1234 = VERTEX_POINT('',#1235);
#1235 = CARTESIAN_POINT('',(-8.327598234202E-15,190.8,34.));
#1236 = CIRCLE('',#1237,34.);
#1237 = AXIS2_PLACEMENT_3D('',#1238,#1239,#1240);
#1238 = CARTESIAN_POINT('',(0.,190.8,0.));
#1239 = DIRECTION('',(0.,1.,0.));
#1240 = DIRECTION('',(0.,-0.,1.));
#1241 = ORIENTED_EDGE('',*,*,#1242,.T.);
#1242 = EDGE_CURVE('',#1234,#1203,#1243,.T.);
#1243 = CIRCLE('',#1244,34.);
#1244 = AXIS2_PLACEMENT_3D('',#1245,#1246,#1247);
#1245 = CARTESIAN_POINT('',(0.,190.8,0.));
#1246 = DIRECTION('',(0.,1.,0.));
#1247 = DIRECTION('',(0.,-0.,1.));
#1248 = ORIENTED_EDGE('',*,*,#1210,.T.);
#1249 = ORIENTED_EDGE('',*,*,#1250,.F.);
#1250 = EDGE_CURVE('',#1251,#1211,#1253,.T.);
#1251 = VERTEX_POINT('',#1252);
#1252 = CARTESIAN_POINT('',(-7.592810154714E-15,190.8,31.));
#1253 = CIRCLE('',#1254,31.);
#1254 = AXIS2_PLACEMENT_3D('',#1255,#1256,#1257);
#1255 = CARTESIAN_POINT('',(0.,190.8,0.));
#1256 = DIRECTION('',(0.,1.,0.));
#1257 = DIRECTION('',(0.,-0.,1.));
#1258 = ORIENTED_EDGE('',*,*,#1259,.F.);
#1259 = EDGE_CURVE('',#1180,#1251,#1260,.T.);
#1260 = CIRCLE('',#1261,31.);
#1261 = AXIS2_PLACEMENT_3D('',#1262,#1263,#1264);
#1262 = CARTESIAN_POINT('',(0.,190.8,0.));
#1263 = DIRECTION('',(0.,1.,0.));
#1264 = DIRECTION('',(0.,-0.,1.));
#1265 = ORIENTED_EDGE('',*,*,#1179,.F.);
#1266 = PLANE('',#1267);
#1267 = AXIS2_PLACEMENT_3D('',#1268,#1269,#1270);
#1268 = CARTESIAN_POINT('',(0.,190.8,0.));
#1269 = DIRECTION('',(0.,1.,0.));
#1270 = DIRECTION('',(0.,-0.,1.));
#1271 = ADVANCED_FACE('',(#1272),#1280,.T.);
#1272 = FACE_BOUND('',#1273,.T.);
#1273 = EDGE_LOOP('',(#1274,#1275,#1276,#1277,#1278,#1279));
#1274 = ORIENTED_EDGE('',*,*,#1250,.T.);
#1275 = ORIENTED_EDGE('',*,*,#1218,.T.);
#1276 = ORIENTED_EDGE('',*,*,#462,.F.);
#1277 = ORIENTED_EDGE('',*,*,#471,.F.);
#1278 = ORIENTED_EDGE('',*,*,#1187,.F.);
#1279 = ORIENTED_EDGE('',*,*,#1259,.T.);
#1280 = CYLINDRICAL_SURFACE('',#1281,31.);
#1281 = AXIS2_PLACEMENT_3D('',#1282,#1283,#1284);
#1282 = CARTESIAN_POINT('',(0.,190.,0.));
#1283 = DIRECTION('',(0.,1.,0.));
#1284 = DIRECTION('',(0.,-0.,1.));
#1285 = ADVANCED_FACE('',(#1286),#1294,.F.);
#1286 = FACE_BOUND('',#1287,.F.);
#1287 = EDGE_LOOP('',(#1288,#1289,#1290,#1291,#1292,#1293));
#1288 = ORIENTED_EDGE('',*,*,#1171,.F.);
#1289 = ORIENTED_EDGE('',*,*,#1233,.T.);
#1290 = ORIENTED_EDGE('',*,*,#1242,.T.);
#1291 = ORIENTED_EDGE('',*,*,#1202,.T.);
#1292 = ORIENTED_EDGE('',*,*,#445,.F.);
#1293 = ORIENTED_EDGE('',*,*,#436,.F.);
#1294 = CYLINDRICAL_SURFACE('',#1295,34.);
#1295 = AXIS2_PLACEMENT_3D('',#1296,#1297,#1298);
#1296 = CARTESIAN_POINT('',(0.,190.8,0.));
#1297 = DIRECTION('',(0.,1.,0.));
#1298 = DIRECTION('',(0.,-0.,1.));
#1299 = ( GEOMETRIC_REPRESENTATION_CONTEXT(3) 
GLOBAL_UNCERTAINTY_ASSIGNED_CONTEXT((#1303)) 
GLOBAL_UNIT_ASSIGNED_CONTEXT((#1300,#1301,#1302)) REPRESENTATION_CONTEXT
('Context #1','3D Context with UNIT and UNCERTAINTY') );
#1300 = ( LENGTH_UNIT() NAMED_UNIT(*) SI_UNIT(.MILLI.,.METRE.) );
#1301 = ( NAMED_UNIT(*) PLANE_ANGLE_UNIT() SI_UNIT($,.RADIAN.) );
#1302 = ( NAMED_UNIT(*) SI_UNIT($,.STERADIAN.) SOLID_ANGLE_UNIT() );
#1303 = UNCERTAINTY_MEASURE_WITH_UNIT(LENGTH_MEASURE(1.E-07),#1300,
  'distance_accuracy_value','confusion accuracy');
#1304 = PRODUCT_RELATED_PRODUCT_CATEGORY('part',$,(#7));
ENDSEC;
END-ISO-10303-21;
