ISO-10303-21;
HEADER;
FILE_DESCRIPTION(('FreeCAD Model'),'2;1');
FILE_NAME('Open CASCADE Shape Model','2026-09-22T14:17:47',('FreeCAD'),(
    'FreeCAD'),'Open CASCADE STEP processor 7.8','FreeCAD','Unknown');
FILE_SCHEMA(('AUTOMOTIVE_DESIGN { 1 0 10303 214 1 1 1 1 }'));
ENDSEC;
DATA;
#1 = APPLICATION_PROTOCOL_DEFINITION('international standard',
  'automotive_design',2000,#2);
#2 = APPLICATION_CONTEXT(
  'core data for automotive mechanical design processes');
#3 = SHAPE_DEFINITION_REPRESENTATION(#4,#10);
#4 = PRODUCT_DEFINITION_SHAPE('','',#5);
#5 = PRODUCT_DEFINITION('design','',#6,#9);
#6 = PRODUCT_DEFINITION_FORMATION('','',#7);
#7 = PRODUCT('Open CASCADE STEP translator 7.8 11',
  'Open CASCADE STEP translator 7.8 11','',(#8));
#8 = PRODUCT_CONTEXT('',#2,'mechanical');
#9 = PRODUCT_DEFINITION_CONTEXT('part definition',#2,'design');
#10 = ADVANCED_BREP_SHAPE_REPRESENTATION('',(#11,#15),#2471);
#11 = AXIS2_PLACEMENT_3D('',#12,#13,#14);
#12 = CARTESIAN_POINT('',(0.,0.,0.));
#13 = DIRECTION('',(0.,0.,1.));
#14 = DIRECTION('',(1.,0.,-0.));
#15 = MANIFOLD_SOLID_BREP('',#16);
#16 = CLOSED_SHELL('',(#17,#50,#75,#108,#133,#166,#191,#224,#249,#291,
    #398,#546,#570,#595,#651,#682,#713,#744,#839,#861,#885,#910,#934,
    #958,#976,#998,#1023,#1048,#1073,#1098,#1110,#1135,#1160,#1185,#1210
    ,#1235,#1260,#1285,#1297,#1307,#1317,#1335,#1353,#1371,#1389,#1407,
    #1425,#1697,#1729,#1753,#1778,#1802,#1827,#1851,#1876,#1893,#1909,
    #1941,#1965,#1990,#2014,#2039,#2063,#2088,#2105,#2121,#2152,#2176,
    #2211,#2235,#2254,#2266,#2291,#2309,#2340,#2364,#2388,#2416,#2428,
    #2453));
#17 = ADVANCED_FACE('',(#18),#45,.F.);
#18 = FACE_BOUND('',#19,.F.);
#19 = EDGE_LOOP('',(#20,#29,#37,#44));
#20 = ORIENTED_EDGE('',*,*,#21,.T.);
#21 = EDGE_CURVE('',#22,#22,#24,.T.);
#22 = VERTEX_POINT('',#23);
#23 = CARTESIAN_POINT('',(-82.,73.5,23.3));
#24 = CIRCLE('',#25,1.7);
#25 = AXIS2_PLACEMENT_3D('',#26,#27,#28);
#26 = CARTESIAN_POINT('',(-82.,73.5,25.));
#27 = DIRECTION('',(0.,-1.,0.));
#28 = DIRECTION('',(0.,-0.,-1.));
#29 = ORIENTED_EDGE('',*,*,#30,.T.);
#30 = EDGE_CURVE('',#22,#31,#33,.T.);
#31 = VERTEX_POINT('',#32);
#32 = CARTESIAN_POINT('',(-82.,72.,23.3));
#33 = LINE('',#34,#35);
#34 = CARTESIAN_POINT('',(-82.,75.1,23.3));
#35 = VECTOR('',#36,1.);
#36 = DIRECTION('',(0.,-1.,0.));
#37 = ORIENTED_EDGE('',*,*,#38,.F.);
#38 = EDGE_CURVE('',#31,#31,#39,.T.);
#39 = CIRCLE('',#40,1.7);
#40 = AXIS2_PLACEMENT_3D('',#41,#42,#43);
#41 = CARTESIAN_POINT('',(-82.,72.,25.));
#42 = DIRECTION('',(0.,-1.,0.));
#43 = DIRECTION('',(0.,-0.,-1.));
#44 = ORIENTED_EDGE('',*,*,#30,.F.);
#45 = CYLINDRICAL_SURFACE('',#46,1.7);
#46 = AXIS2_PLACEMENT_3D('',#47,#48,#49);
#47 = CARTESIAN_POINT('',(-82.,75.1,25.));
#48 = DIRECTION('',(0.,-1.,0.));
#49 = DIRECTION('',(0.,-0.,-1.));
#50 = ADVANCED_FACE('',(#51),#70,.F.);
#51 = FACE_BOUND('',#52,.F.);
#52 = EDGE_LOOP('',(#53,#54,#62,#69));
#53 = ORIENTED_EDGE('',*,*,#21,.F.);
#54 = ORIENTED_EDGE('',*,*,#55,.F.);
#55 = EDGE_CURVE('',#56,#22,#58,.T.);
#56 = VERTEX_POINT('',#57);
#57 = CARTESIAN_POINT('',(-82.,75.,21.8));
#58 = LINE('',#59,#60);
#59 = CARTESIAN_POINT('',(-82.,75.,21.8));
#60 = VECTOR('',#61,1.);
#61 = DIRECTION('',(1.731912112471E-16,-0.707106781187,0.707106781187));
#62 = ORIENTED_EDGE('',*,*,#63,.T.);
#63 = EDGE_CURVE('',#56,#56,#64,.T.);
#64 = CIRCLE('',#65,3.2);
#65 = AXIS2_PLACEMENT_3D('',#66,#67,#68);
#66 = CARTESIAN_POINT('',(-82.,75.,25.));
#67 = DIRECTION('',(0.,-1.,0.));
#68 = DIRECTION('',(0.,-0.,-1.));
#69 = ORIENTED_EDGE('',*,*,#55,.T.);
#70 = CONICAL_SURFACE('',#71,3.2,0.785398163397);
#71 = AXIS2_PLACEMENT_3D('',#72,#73,#74);
#72 = CARTESIAN_POINT('',(-82.,75.,25.));
#73 = DIRECTION('',(-0.,1.,-0.));
#74 = DIRECTION('',(0.,-0.,-1.));
#75 = ADVANCED_FACE('',(#76),#103,.F.);
#76 = FACE_BOUND('',#77,.F.);
#77 = EDGE_LOOP('',(#78,#87,#95,#102));
#78 = ORIENTED_EDGE('',*,*,#79,.T.);
#79 = EDGE_CURVE('',#80,#80,#82,.T.);
#80 = VERTEX_POINT('',#81);
#81 = CARTESIAN_POINT('',(82.,73.5,23.3));
#82 = CIRCLE('',#83,1.7);
#83 = AXIS2_PLACEMENT_3D('',#84,#85,#86);
#84 = CARTESIAN_POINT('',(82.,73.5,25.));
#85 = DIRECTION('',(0.,-1.,0.));
#86 = DIRECTION('',(0.,-0.,-1.));
#87 = ORIENTED_EDGE('',*,*,#88,.T.);
#88 = EDGE_CURVE('',#80,#89,#91,.T.);
#89 = VERTEX_POINT('',#90);
#90 = CARTESIAN_POINT('',(82.,72.,23.3));
#91 = LINE('',#92,#93);
#92 = CARTESIAN_POINT('',(82.,75.1,23.3));
#93 = VECTOR('',#94,1.);
#94 = DIRECTION('',(0.,-1.,0.));
#95 = ORIENTED_EDGE('',*,*,#96,.F.);
#96 = EDGE_CURVE('',#89,#89,#97,.T.);
#97 = CIRCLE('',#98,1.7);
#98 = AXIS2_PLACEMENT_3D('',#99,#100,#101);
#99 = CARTESIAN_POINT('',(82.,72.,25.));
#100 = DIRECTION('',(0.,-1.,0.));
#101 = DIRECTION('',(0.,-0.,-1.));
#102 = ORIENTED_EDGE('',*,*,#88,.F.);
#103 = CYLINDRICAL_SURFACE('',#104,1.7);
#104 = AXIS2_PLACEMENT_3D('',#105,#106,#107);
#105 = CARTESIAN_POINT('',(82.,75.1,25.));
#106 = DIRECTION('',(0.,-1.,0.));
#107 = DIRECTION('',(0.,-0.,-1.));
#108 = ADVANCED_FACE('',(#109),#128,.F.);
#109 = FACE_BOUND('',#110,.F.);
#110 = EDGE_LOOP('',(#111,#112,#120,#127));
#111 = ORIENTED_EDGE('',*,*,#79,.F.);
#112 = ORIENTED_EDGE('',*,*,#113,.F.);
#113 = EDGE_CURVE('',#114,#80,#116,.T.);
#114 = VERTEX_POINT('',#115);
#115 = CARTESIAN_POINT('',(82.,75.,21.8));
#116 = LINE('',#117,#118);
#117 = CARTESIAN_POINT('',(82.,75.,21.8));
#118 = VECTOR('',#119,1.);
#119 = DIRECTION('',(1.731912112471E-16,-0.707106781187,0.707106781187)
  );
#120 = ORIENTED_EDGE('',*,*,#121,.T.);
#121 = EDGE_CURVE('',#114,#114,#122,.T.);
#122 = CIRCLE('',#123,3.2);
#123 = AXIS2_PLACEMENT_3D('',#124,#125,#126);
#124 = CARTESIAN_POINT('',(82.,75.,25.));
#125 = DIRECTION('',(0.,-1.,0.));
#126 = DIRECTION('',(0.,-0.,-1.));
#127 = ORIENTED_EDGE('',*,*,#113,.T.);
#128 = CONICAL_SURFACE('',#129,3.2,0.785398163397);
#129 = AXIS2_PLACEMENT_3D('',#130,#131,#132);
#130 = CARTESIAN_POINT('',(82.,75.,25.));
#131 = DIRECTION('',(-0.,1.,-0.));
#132 = DIRECTION('',(0.,-0.,-1.));
#133 = ADVANCED_FACE('',(#134),#161,.F.);
#134 = FACE_BOUND('',#135,.F.);
#135 = EDGE_LOOP('',(#136,#145,#153,#160));
#136 = ORIENTED_EDGE('',*,*,#137,.T.);
#137 = EDGE_CURVE('',#138,#138,#140,.T.);
#138 = VERTEX_POINT('',#139);
#139 = CARTESIAN_POINT('',(-82.,73.5,-26.7));
#140 = CIRCLE('',#141,1.7);
#141 = AXIS2_PLACEMENT_3D('',#142,#143,#144);
#142 = CARTESIAN_POINT('',(-82.,73.5,-25.));
#143 = DIRECTION('',(0.,-1.,0.));
#144 = DIRECTION('',(0.,-0.,-1.));
#145 = ORIENTED_EDGE('',*,*,#146,.T.);
#146 = EDGE_CURVE('',#138,#147,#149,.T.);
#147 = VERTEX_POINT('',#148);
#148 = CARTESIAN_POINT('',(-82.,72.,-26.7));
#149 = LINE('',#150,#151);
#150 = CARTESIAN_POINT('',(-82.,75.1,-26.7));
#151 = VECTOR('',#152,1.);
#152 = DIRECTION('',(0.,-1.,0.));
#153 = ORIENTED_EDGE('',*,*,#154,.F.);
#154 = EDGE_CURVE('',#147,#147,#155,.T.);
#155 = CIRCLE('',#156,1.7);
#156 = AXIS2_PLACEMENT_3D('',#157,#158,#159);
#157 = CARTESIAN_POINT('',(-82.,72.,-25.));
#158 = DIRECTION('',(0.,-1.,0.));
#159 = DIRECTION('',(0.,-0.,-1.));
#160 = ORIENTED_EDGE('',*,*,#146,.F.);
#161 = CYLINDRICAL_SURFACE('',#162,1.7);
#162 = AXIS2_PLACEMENT_3D('',#163,#164,#165);
#163 = CARTESIAN_POINT('',(-82.,75.1,-25.));
#164 = DIRECTION('',(0.,-1.,0.));
#165 = DIRECTION('',(0.,-0.,-1.));
#166 = ADVANCED_FACE('',(#167),#186,.F.);
#167 = FACE_BOUND('',#168,.F.);
#168 = EDGE_LOOP('',(#169,#170,#178,#185));
#169 = ORIENTED_EDGE('',*,*,#137,.F.);
#170 = ORIENTED_EDGE('',*,*,#171,.F.);
#171 = EDGE_CURVE('',#172,#138,#174,.T.);
#172 = VERTEX_POINT('',#173);
#173 = CARTESIAN_POINT('',(-82.,75.,-28.2));
#174 = LINE('',#175,#176);
#175 = CARTESIAN_POINT('',(-82.,75.,-28.2));
#176 = VECTOR('',#177,1.);
#177 = DIRECTION('',(1.731912112471E-16,-0.707106781187,0.707106781187)
  );
#178 = ORIENTED_EDGE('',*,*,#179,.T.);
#179 = EDGE_CURVE('',#172,#172,#180,.T.);
#180 = CIRCLE('',#181,3.2);
#181 = AXIS2_PLACEMENT_3D('',#182,#183,#184);
#182 = CARTESIAN_POINT('',(-82.,75.,-25.));
#183 = DIRECTION('',(0.,-1.,0.));
#184 = DIRECTION('',(0.,-0.,-1.));
#185 = ORIENTED_EDGE('',*,*,#171,.T.);
#186 = CONICAL_SURFACE('',#187,3.2,0.785398163397);
#187 = AXIS2_PLACEMENT_3D('',#188,#189,#190);
#188 = CARTESIAN_POINT('',(-82.,75.,-25.));
#189 = DIRECTION('',(-0.,1.,-0.));
#190 = DIRECTION('',(0.,-0.,-1.));
#191 = ADVANCED_FACE('',(#192),#219,.F.);
#192 = FACE_BOUND('',#193,.F.);
#193 = EDGE_LOOP('',(#194,#203,#211,#218));
#194 = ORIENTED_EDGE('',*,*,#195,.T.);
#195 = EDGE_CURVE('',#196,#196,#198,.T.);
#196 = VERTEX_POINT('',#197);
#197 = CARTESIAN_POINT('',(82.,73.5,-26.7));
#198 = CIRCLE('',#199,1.7);
#199 = AXIS2_PLACEMENT_3D('',#200,#201,#202);
#200 = CARTESIAN_POINT('',(82.,73.5,-25.));
#201 = DIRECTION('',(0.,-1.,0.));
#202 = DIRECTION('',(0.,-0.,-1.));
#203 = ORIENTED_EDGE('',*,*,#204,.T.);
#204 = EDGE_CURVE('',#196,#205,#207,.T.);
#205 = VERTEX_POINT('',#206);
#206 = CARTESIAN_POINT('',(82.,72.,-26.7));
#207 = LINE('',#208,#209);
#208 = CARTESIAN_POINT('',(82.,75.1,-26.7));
#209 = VECTOR('',#210,1.);
#210 = DIRECTION('',(0.,-1.,0.));
#211 = ORIENTED_EDGE('',*,*,#212,.F.);
#212 = EDGE_CURVE('',#205,#205,#213,.T.);
#213 = CIRCLE('',#214,1.7);
#214 = AXIS2_PLACEMENT_3D('',#215,#216,#217);
#215 = CARTESIAN_POINT('',(82.,72.,-25.));
#216 = DIRECTION('',(0.,-1.,0.));
#217 = DIRECTION('',(0.,-0.,-1.));
#218 = ORIENTED_EDGE('',*,*,#204,.F.);
#219 = CYLINDRICAL_SURFACE('',#220,1.7);
#220 = AXIS2_PLACEMENT_3D('',#221,#222,#223);
#221 = CARTESIAN_POINT('',(82.,75.1,-25.));
#222 = DIRECTION('',(0.,-1.,0.));
#223 = DIRECTION('',(0.,-0.,-1.));
#224 = ADVANCED_FACE('',(#225),#244,.F.);
#225 = FACE_BOUND('',#226,.F.);
#226 = EDGE_LOOP('',(#227,#228,#236,#243));
#227 = ORIENTED_EDGE('',*,*,#195,.F.);
#228 = ORIENTED_EDGE('',*,*,#229,.F.);
#229 = EDGE_CURVE('',#230,#196,#232,.T.);
#230 = VERTEX_POINT('',#231);
#231 = CARTESIAN_POINT('',(82.,75.,-28.2));
#232 = LINE('',#233,#234);
#233 = CARTESIAN_POINT('',(82.,75.,-28.2));
#234 = VECTOR('',#235,1.);
#235 = DIRECTION('',(1.731912112471E-16,-0.707106781187,0.707106781187)
  );
#236 = ORIENTED_EDGE('',*,*,#237,.T.);
#237 = EDGE_CURVE('',#230,#230,#238,.T.);
#238 = CIRCLE('',#239,3.2);
#239 = AXIS2_PLACEMENT_3D('',#240,#241,#242);
#240 = CARTESIAN_POINT('',(82.,75.,-25.));
#241 = DIRECTION('',(0.,-1.,0.));
#242 = DIRECTION('',(0.,-0.,-1.));
#243 = ORIENTED_EDGE('',*,*,#229,.T.);
#244 = CONICAL_SURFACE('',#245,3.2,0.785398163397);
#245 = AXIS2_PLACEMENT_3D('',#246,#247,#248);
#246 = CARTESIAN_POINT('',(82.,75.,-25.));
#247 = DIRECTION('',(-0.,1.,-0.));
#248 = DIRECTION('',(0.,-0.,-1.));
#249 = ADVANCED_FACE('',(#250),#286,.T.);
#250 = FACE_BOUND('',#251,.T.);
#251 = EDGE_LOOP('',(#252,#263,#271,#280));
#252 = ORIENTED_EDGE('',*,*,#253,.F.);
#253 = EDGE_CURVE('',#254,#256,#258,.T.);
#254 = VERTEX_POINT('',#255);
#255 = CARTESIAN_POINT('',(-86.,72.,-42.));
#256 = VERTEX_POINT('',#257);
#257 = CARTESIAN_POINT('',(-81.,72.,-47.));
#258 = CIRCLE('',#259,5.);
#259 = AXIS2_PLACEMENT_3D('',#260,#261,#262);
#260 = CARTESIAN_POINT('',(-81.,72.,-42.));
#261 = DIRECTION('',(0.,-1.,1.110223024625E-16));
#262 = DIRECTION('',(1.,0.,0.));
#263 = ORIENTED_EDGE('',*,*,#264,.F.);
#264 = EDGE_CURVE('',#265,#254,#267,.T.);
#265 = VERTEX_POINT('',#266);
#266 = CARTESIAN_POINT('',(-86.,75.,-42.));
#267 = LINE('',#268,#269);
#268 = CARTESIAN_POINT('',(-86.,75.,-42.));
#269 = VECTOR('',#270,1.);
#270 = DIRECTION('',(0.,-1.,1.110223024625E-16));
#271 = ORIENTED_EDGE('',*,*,#272,.T.);
#272 = EDGE_CURVE('',#265,#273,#275,.T.);
#273 = VERTEX_POINT('',#274);
#274 = CARTESIAN_POINT('',(-81.,75.,-47.));
#275 = CIRCLE('',#276,5.);
#276 = AXIS2_PLACEMENT_3D('',#277,#278,#279);
#277 = CARTESIAN_POINT('',(-81.,75.,-42.));
#278 = DIRECTION('',(0.,-1.,1.110223024625E-16));
#279 = DIRECTION('',(1.,0.,0.));
#280 = ORIENTED_EDGE('',*,*,#281,.T.);
#281 = EDGE_CURVE('',#273,#256,#282,.T.);
#282 = LINE('',#283,#284);
#283 = CARTESIAN_POINT('',(-81.,75.,-47.));
#284 = VECTOR('',#285,1.);
#285 = DIRECTION('',(0.,-1.,1.110223024625E-16));
#286 = CYLINDRICAL_SURFACE('',#287,5.);
#287 = AXIS2_PLACEMENT_3D('',#288,#289,#290);
#288 = CARTESIAN_POINT('',(-81.,75.,-42.));
#289 = DIRECTION('',(0.,-1.,1.110223024625E-16));
#290 = DIRECTION('',(1.,0.,0.));
#291 = ADVANCED_FACE('',(#292,#349,#360,#371,#382),#393,.T.);
#292 = FACE_BOUND('',#293,.T.);
#293 = EDGE_LOOP('',(#294,#302,#310,#318,#326,#334,#342,#348));
#294 = ORIENTED_EDGE('',*,*,#295,.T.);
#295 = EDGE_CURVE('',#273,#296,#298,.T.);
#296 = VERTEX_POINT('',#297);
#297 = CARTESIAN_POINT('',(81.,75.,-47.));
#298 = LINE('',#299,#300);
#299 = CARTESIAN_POINT('',(-81.,75.,-47.));
#300 = VECTOR('',#301,1.);
#301 = DIRECTION('',(1.,0.,0.));
#302 = ORIENTED_EDGE('',*,*,#303,.T.);
#303 = EDGE_CURVE('',#296,#304,#306,.T.);
#304 = VERTEX_POINT('',#305);
#305 = CARTESIAN_POINT('',(81.,72.,-47.));
#306 = LINE('',#307,#308);
#307 = CARTESIAN_POINT('',(81.,75.,-47.));
#308 = VECTOR('',#309,1.);
#309 = DIRECTION('',(0.,-1.,1.110223024625E-16));
#310 = ORIENTED_EDGE('',*,*,#311,.F.);
#311 = EDGE_CURVE('',#312,#304,#314,.T.);
#312 = VERTEX_POINT('',#313);
#313 = CARTESIAN_POINT('',(77.5,72.,-47.));
#314 = LINE('',#315,#316);
#315 = CARTESIAN_POINT('',(-81.,72.,-47.));
#316 = VECTOR('',#317,1.);
#317 = DIRECTION('',(1.,0.,0.));
#318 = ORIENTED_EDGE('',*,*,#319,.F.);
#319 = EDGE_CURVE('',#320,#312,#322,.T.);
#320 = VERTEX_POINT('',#321);
#321 = CARTESIAN_POINT('',(77.5,61.,-47.));
#322 = LINE('',#323,#324);
#323 = CARTESIAN_POINT('',(77.5,61.,-47.));
#324 = VECTOR('',#325,1.);
#325 = DIRECTION('',(-0.,1.,0.));
#326 = ORIENTED_EDGE('',*,*,#327,.F.);
#327 = EDGE_CURVE('',#328,#320,#330,.T.);
#328 = VERTEX_POINT('',#329);
#329 = CARTESIAN_POINT('',(-77.5,61.,-47.));
#330 = LINE('',#331,#332);
#331 = CARTESIAN_POINT('',(-77.5,61.,-47.));
#332 = VECTOR('',#333,1.);
#333 = DIRECTION('',(1.,0.,-0.));
#334 = ORIENTED_EDGE('',*,*,#335,.T.);
#335 = EDGE_CURVE('',#328,#336,#338,.T.);
#336 = VERTEX_POINT('',#337);
#337 = CARTESIAN_POINT('',(-77.5,72.,-47.));
#338 = LINE('',#339,#340);
#339 = CARTESIAN_POINT('',(-77.5,61.,-47.));
#340 = VECTOR('',#341,1.);
#341 = DIRECTION('',(-0.,1.,0.));
#342 = ORIENTED_EDGE('',*,*,#343,.F.);
#343 = EDGE_CURVE('',#256,#336,#344,.T.);
#344 = LINE('',#345,#346);
#345 = CARTESIAN_POINT('',(-81.,72.,-47.));
#346 = VECTOR('',#347,1.);
#347 = DIRECTION('',(1.,0.,0.));
#348 = ORIENTED_EDGE('',*,*,#281,.F.);
#349 = FACE_BOUND('',#350,.T.);
#350 = EDGE_LOOP('',(#351));
#351 = ORIENTED_EDGE('',*,*,#352,.T.);
#352 = EDGE_CURVE('',#353,#353,#355,.T.);
#353 = VERTEX_POINT('',#354);
#354 = CARTESIAN_POINT('',(71.25,67.,-47.));
#355 = CIRCLE('',#356,1.25);
#356 = AXIS2_PLACEMENT_3D('',#357,#358,#359);
#357 = CARTESIAN_POINT('',(70.,67.,-47.));
#358 = DIRECTION('',(0.,0.,1.));
#359 = DIRECTION('',(1.,0.,-0.));
#360 = FACE_BOUND('',#361,.T.);
#361 = EDGE_LOOP('',(#362));
#362 = ORIENTED_EDGE('',*,*,#363,.T.);
#363 = EDGE_CURVE('',#364,#364,#366,.T.);
#364 = VERTEX_POINT('',#365);
#365 = CARTESIAN_POINT('',(36.25,67.,-47.));
#366 = CIRCLE('',#367,1.25);
#367 = AXIS2_PLACEMENT_3D('',#368,#369,#370);
#368 = CARTESIAN_POINT('',(35.,67.,-47.));
#369 = DIRECTION('',(0.,0.,1.));
#370 = DIRECTION('',(1.,0.,-0.));
#371 = FACE_BOUND('',#372,.T.);
#372 = EDGE_LOOP('',(#373));
#373 = ORIENTED_EDGE('',*,*,#374,.T.);
#374 = EDGE_CURVE('',#375,#375,#377,.T.);
#375 = VERTEX_POINT('',#376);
#376 = CARTESIAN_POINT('',(-33.75,67.,-47.));
#377 = CIRCLE('',#378,1.25);
#378 = AXIS2_PLACEMENT_3D('',#379,#380,#381);
#379 = CARTESIAN_POINT('',(-35.,67.,-47.));
#380 = DIRECTION('',(0.,0.,1.));
#381 = DIRECTION('',(1.,0.,-0.));
#382 = FACE_BOUND('',#383,.T.);
#383 = EDGE_LOOP('',(#384));
#384 = ORIENTED_EDGE('',*,*,#385,.T.);
#385 = EDGE_CURVE('',#386,#386,#388,.T.);
#386 = VERTEX_POINT('',#387);
#387 = CARTESIAN_POINT('',(-68.75,67.,-47.));
#388 = CIRCLE('',#389,1.25);
#389 = AXIS2_PLACEMENT_3D('',#390,#391,#392);
#390 = CARTESIAN_POINT('',(-70.,67.,-47.));
#391 = DIRECTION('',(0.,0.,1.));
#392 = DIRECTION('',(1.,0.,-0.));
#393 = PLANE('',#394);
#394 = AXIS2_PLACEMENT_3D('',#395,#396,#397);
#395 = CARTESIAN_POINT('',(0.,68.21875,-47.));
#396 = DIRECTION('',(-0.,-0.,-1.));
#397 = DIRECTION('',(-1.,0.,0.));
#398 = ADVANCED_FACE('',(#399,#452,#455,#466,#477,#480,#491,#494,#505,
    #516,#527,#530),#541,.T.);
#399 = FACE_BOUND('',#400,.T.);
#400 = EDGE_LOOP('',(#401,#402,#410,#419,#427,#436,#444,#451));
#401 = ORIENTED_EDGE('',*,*,#272,.F.);
#402 = ORIENTED_EDGE('',*,*,#403,.T.);
#403 = EDGE_CURVE('',#265,#404,#406,.T.);
#404 = VERTEX_POINT('',#405);
#405 = CARTESIAN_POINT('',(-86.,75.,42.));
#406 = LINE('',#407,#408);
#407 = CARTESIAN_POINT('',(-86.,75.,-42.));
#408 = VECTOR('',#409,1.);
#409 = DIRECTION('',(0.,1.110223024625E-16,1.));
#410 = ORIENTED_EDGE('',*,*,#411,.F.);
#411 = EDGE_CURVE('',#412,#404,#414,.T.);
#412 = VERTEX_POINT('',#413);
#413 = CARTESIAN_POINT('',(-81.,75.,47.));
#414 = CIRCLE('',#415,5.);
#415 = AXIS2_PLACEMENT_3D('',#416,#417,#418);
#416 = CARTESIAN_POINT('',(-81.,75.,42.));
#417 = DIRECTION('',(0.,-1.,1.110223024625E-16));
#418 = DIRECTION('',(1.,0.,0.));
#419 = ORIENTED_EDGE('',*,*,#420,.T.);
#420 = EDGE_CURVE('',#412,#421,#423,.T.);
#421 = VERTEX_POINT('',#422);
#422 = CARTESIAN_POINT('',(81.,75.,47.));
#423 = LINE('',#424,#425);
#424 = CARTESIAN_POINT('',(-81.,75.,47.));
#425 = VECTOR('',#426,1.);
#426 = DIRECTION('',(1.,0.,0.));
#427 = ORIENTED_EDGE('',*,*,#428,.F.);
#428 = EDGE_CURVE('',#429,#421,#431,.T.);
#429 = VERTEX_POINT('',#430);
#430 = CARTESIAN_POINT('',(86.,75.,42.));
#431 = CIRCLE('',#432,5.);
#432 = AXIS2_PLACEMENT_3D('',#433,#434,#435);
#433 = CARTESIAN_POINT('',(81.,75.,42.));
#434 = DIRECTION('',(0.,-1.,1.110223024625E-16));
#435 = DIRECTION('',(1.,0.,0.));
#436 = ORIENTED_EDGE('',*,*,#437,.F.);
#437 = EDGE_CURVE('',#438,#429,#440,.T.);
#438 = VERTEX_POINT('',#439);
#439 = CARTESIAN_POINT('',(86.,75.,-42.));
#440 = LINE('',#441,#442);
#441 = CARTESIAN_POINT('',(86.,75.,-42.));
#442 = VECTOR('',#443,1.);
#443 = DIRECTION('',(0.,1.110223024625E-16,1.));
#444 = ORIENTED_EDGE('',*,*,#445,.F.);
#445 = EDGE_CURVE('',#296,#438,#446,.T.);
#446 = CIRCLE('',#447,5.);
#447 = AXIS2_PLACEMENT_3D('',#448,#449,#450);
#448 = CARTESIAN_POINT('',(81.,75.,-42.));
#449 = DIRECTION('',(0.,-1.,1.110223024625E-16));
#450 = DIRECTION('',(1.,0.,0.));
#451 = ORIENTED_EDGE('',*,*,#295,.F.);
#452 = FACE_BOUND('',#453,.T.);
#453 = EDGE_LOOP('',(#454));
#454 = ORIENTED_EDGE('',*,*,#237,.T.);
#455 = FACE_BOUND('',#456,.T.);
#456 = EDGE_LOOP('',(#457));
#457 = ORIENTED_EDGE('',*,*,#458,.F.);
#458 = EDGE_CURVE('',#459,#459,#461,.T.);
#459 = VERTEX_POINT('',#460);
#460 = CARTESIAN_POINT('',(30.,75.,-27.8));
#461 = CIRCLE('',#462,2.2);
#462 = AXIS2_PLACEMENT_3D('',#463,#464,#465);
#463 = CARTESIAN_POINT('',(30.,75.,-30.));
#464 = DIRECTION('',(0.,1.,0.));
#465 = DIRECTION('',(0.,-0.,1.));
#466 = FACE_BOUND('',#467,.T.);
#467 = EDGE_LOOP('',(#468));
#468 = ORIENTED_EDGE('',*,*,#469,.F.);
#469 = EDGE_CURVE('',#470,#470,#472,.T.);
#470 = VERTEX_POINT('',#471);
#471 = CARTESIAN_POINT('',(-30.,75.,-27.8));
#472 = CIRCLE('',#473,2.2);
#473 = AXIS2_PLACEMENT_3D('',#474,#475,#476);
#474 = CARTESIAN_POINT('',(-30.,75.,-30.));
#475 = DIRECTION('',(0.,1.,0.));
#476 = DIRECTION('',(0.,-0.,1.));
#477 = FACE_BOUND('',#478,.T.);
#478 = EDGE_LOOP('',(#479));
#479 = ORIENTED_EDGE('',*,*,#179,.T.);
#480 = FACE_BOUND('',#481,.T.);
#481 = EDGE_LOOP('',(#482));
#482 = ORIENTED_EDGE('',*,*,#483,.F.);
#483 = EDGE_CURVE('',#484,#484,#486,.T.);
#484 = VERTEX_POINT('',#485);
#485 = CARTESIAN_POINT('',(-8.082668874373E-15,75.,33.));
#486 = CIRCLE('',#487,33.);
#487 = AXIS2_PLACEMENT_3D('',#488,#489,#490);
#488 = CARTESIAN_POINT('',(0.,75.,0.));
#489 = DIRECTION('',(0.,1.,0.));
#490 = DIRECTION('',(0.,-0.,1.));
#491 = FACE_BOUND('',#492,.T.);
#492 = EDGE_LOOP('',(#493));
#493 = ORIENTED_EDGE('',*,*,#121,.T.);
#494 = FACE_BOUND('',#495,.T.);
#495 = EDGE_LOOP('',(#496));
#496 = ORIENTED_EDGE('',*,*,#497,.T.);
#497 = EDGE_CURVE('',#498,#498,#500,.T.);
#498 = VERTEX_POINT('',#499);
#499 = CARTESIAN_POINT('',(45.,75.,33.75));
#500 = CIRCLE('',#501,1.25);
#501 = AXIS2_PLACEMENT_3D('',#502,#503,#504);
#502 = CARTESIAN_POINT('',(45.,75.,35.));
#503 = DIRECTION('',(0.,-1.,0.));
#504 = DIRECTION('',(0.,-0.,-1.));
#505 = FACE_BOUND('',#506,.T.);
#506 = EDGE_LOOP('',(#507));
#507 = ORIENTED_EDGE('',*,*,#508,.F.);
#508 = EDGE_CURVE('',#509,#509,#511,.T.);
#509 = VERTEX_POINT('',#510);
#510 = CARTESIAN_POINT('',(30.,75.,32.2));
#511 = CIRCLE('',#512,2.2);
#512 = AXIS2_PLACEMENT_3D('',#513,#514,#515);
#513 = CARTESIAN_POINT('',(30.,75.,30.));
#514 = DIRECTION('',(0.,1.,0.));
#515 = DIRECTION('',(0.,-0.,1.));
#516 = FACE_BOUND('',#517,.T.);
#517 = EDGE_LOOP('',(#518));
#518 = ORIENTED_EDGE('',*,*,#519,.F.);
#519 = EDGE_CURVE('',#520,#520,#522,.T.);
#520 = VERTEX_POINT('',#521);
#521 = CARTESIAN_POINT('',(-30.,75.,32.2));
#522 = CIRCLE('',#523,2.2);
#523 = AXIS2_PLACEMENT_3D('',#524,#525,#526);
#524 = CARTESIAN_POINT('',(-30.,75.,30.));
#525 = DIRECTION('',(0.,1.,0.));
#526 = DIRECTION('',(0.,-0.,1.));
#527 = FACE_BOUND('',#528,.T.);
#528 = EDGE_LOOP('',(#529));
#529 = ORIENTED_EDGE('',*,*,#63,.T.);
#530 = FACE_BOUND('',#531,.T.);
#531 = EDGE_LOOP('',(#532));
#532 = ORIENTED_EDGE('',*,*,#533,.T.);
#533 = EDGE_CURVE('',#534,#534,#536,.T.);
#534 = VERTEX_POINT('',#535);
#535 = CARTESIAN_POINT('',(-45.,75.,33.75));
#536 = CIRCLE('',#537,1.25);
#537 = AXIS2_PLACEMENT_3D('',#538,#539,#540);
#538 = CARTESIAN_POINT('',(-45.,75.,35.));
#539 = DIRECTION('',(0.,-1.,0.));
#540 = DIRECTION('',(0.,-0.,-1.));
#541 = PLANE('',#542);
#542 = AXIS2_PLACEMENT_3D('',#543,#544,#545);
#543 = CARTESIAN_POINT('',(1.738801825988E-15,75.,0.));
#544 = DIRECTION('',(-0.,1.,-1.110223024625E-16));
#545 = DIRECTION('',(-1.,0.,0.));
#546 = ADVANCED_FACE('',(#547),#565,.F.);
#547 = FACE_BOUND('',#548,.F.);
#548 = EDGE_LOOP('',(#549,#550,#551,#559));
#549 = ORIENTED_EDGE('',*,*,#264,.F.);
#550 = ORIENTED_EDGE('',*,*,#403,.T.);
#551 = ORIENTED_EDGE('',*,*,#552,.T.);
#552 = EDGE_CURVE('',#404,#553,#555,.T.);
#553 = VERTEX_POINT('',#554);
#554 = CARTESIAN_POINT('',(-86.,72.,42.));
#555 = LINE('',#556,#557);
#556 = CARTESIAN_POINT('',(-86.,75.,42.));
#557 = VECTOR('',#558,1.);
#558 = DIRECTION('',(0.,-1.,1.110223024625E-16));
#559 = ORIENTED_EDGE('',*,*,#560,.F.);
#560 = EDGE_CURVE('',#254,#553,#561,.T.);
#561 = LINE('',#562,#563);
#562 = CARTESIAN_POINT('',(-86.,72.,-42.));
#563 = VECTOR('',#564,1.);
#564 = DIRECTION('',(0.,1.110223024625E-16,1.));
#565 = PLANE('',#566);
#566 = AXIS2_PLACEMENT_3D('',#567,#568,#569);
#567 = CARTESIAN_POINT('',(-86.,75.,-42.));
#568 = DIRECTION('',(1.,0.,0.));
#569 = DIRECTION('',(0.,-1.,1.110223024625E-16));
#570 = ADVANCED_FACE('',(#571),#590,.T.);
#571 = FACE_BOUND('',#572,.T.);
#572 = EDGE_LOOP('',(#573,#582,#588,#589));
#573 = ORIENTED_EDGE('',*,*,#574,.F.);
#574 = EDGE_CURVE('',#575,#553,#577,.T.);
#575 = VERTEX_POINT('',#576);
#576 = CARTESIAN_POINT('',(-81.,72.,47.));
#577 = CIRCLE('',#578,5.);
#578 = AXIS2_PLACEMENT_3D('',#579,#580,#581);
#579 = CARTESIAN_POINT('',(-81.,72.,42.));
#580 = DIRECTION('',(0.,-1.,1.110223024625E-16));
#581 = DIRECTION('',(1.,0.,0.));
#582 = ORIENTED_EDGE('',*,*,#583,.F.);
#583 = EDGE_CURVE('',#412,#575,#584,.T.);
#584 = LINE('',#585,#586);
#585 = CARTESIAN_POINT('',(-81.,75.,47.));
#586 = VECTOR('',#587,1.);
#587 = DIRECTION('',(0.,-1.,1.110223024625E-16));
#588 = ORIENTED_EDGE('',*,*,#411,.T.);
#589 = ORIENTED_EDGE('',*,*,#552,.T.);
#590 = CYLINDRICAL_SURFACE('',#591,5.);
#591 = AXIS2_PLACEMENT_3D('',#592,#593,#594);
#592 = CARTESIAN_POINT('',(-81.,75.,42.));
#593 = DIRECTION('',(0.,-1.,1.110223024625E-16));
#594 = DIRECTION('',(1.,0.,0.));
#595 = ADVANCED_FACE('',(#596),#646,.T.);
#596 = FACE_BOUND('',#597,.T.);
#597 = EDGE_LOOP('',(#598,#599,#600,#608,#616,#624,#632,#640));
#598 = ORIENTED_EDGE('',*,*,#420,.F.);
#599 = ORIENTED_EDGE('',*,*,#583,.T.);
#600 = ORIENTED_EDGE('',*,*,#601,.T.);
#601 = EDGE_CURVE('',#575,#602,#604,.T.);
#602 = VERTEX_POINT('',#603);
#603 = CARTESIAN_POINT('',(-77.5,72.,47.));
#604 = LINE('',#605,#606);
#605 = CARTESIAN_POINT('',(-81.,72.,47.));
#606 = VECTOR('',#607,1.);
#607 = DIRECTION('',(1.,0.,0.));
#608 = ORIENTED_EDGE('',*,*,#609,.F.);
#609 = EDGE_CURVE('',#610,#602,#612,.T.);
#610 = VERTEX_POINT('',#611);
#611 = CARTESIAN_POINT('',(-77.5,65.,47.));
#612 = LINE('',#613,#614);
#613 = CARTESIAN_POINT('',(-77.5,65.,47.));
#614 = VECTOR('',#615,1.);
#615 = DIRECTION('',(-0.,1.,0.));
#616 = ORIENTED_EDGE('',*,*,#617,.T.);
#617 = EDGE_CURVE('',#610,#618,#620,.T.);
#618 = VERTEX_POINT('',#619);
#619 = CARTESIAN_POINT('',(77.5,65.,47.));
#620 = LINE('',#621,#622);
#621 = CARTESIAN_POINT('',(-77.5,65.,47.));
#622 = VECTOR('',#623,1.);
#623 = DIRECTION('',(1.,0.,-0.));
#624 = ORIENTED_EDGE('',*,*,#625,.T.);
#625 = EDGE_CURVE('',#618,#626,#628,.T.);
#626 = VERTEX_POINT('',#627);
#627 = CARTESIAN_POINT('',(77.5,72.,47.));
#628 = LINE('',#629,#630);
#629 = CARTESIAN_POINT('',(77.5,65.,47.));
#630 = VECTOR('',#631,1.);
#631 = DIRECTION('',(-0.,1.,0.));
#632 = ORIENTED_EDGE('',*,*,#633,.T.);
#633 = EDGE_CURVE('',#626,#634,#636,.T.);
#634 = VERTEX_POINT('',#635);
#635 = CARTESIAN_POINT('',(81.,72.,47.));
#636 = LINE('',#637,#638);
#637 = CARTESIAN_POINT('',(-81.,72.,47.));
#638 = VECTOR('',#639,1.);
#639 = DIRECTION('',(1.,0.,0.));
#640 = ORIENTED_EDGE('',*,*,#641,.F.);
#641 = EDGE_CURVE('',#421,#634,#642,.T.);
#642 = LINE('',#643,#644);
#643 = CARTESIAN_POINT('',(81.,75.,47.));
#644 = VECTOR('',#645,1.);
#645 = DIRECTION('',(0.,-1.,1.110223024625E-16));
#646 = PLANE('',#647);
#647 = AXIS2_PLACEMENT_3D('',#648,#649,#650);
#648 = CARTESIAN_POINT('',(0.,70.142441860465,47.));
#649 = DIRECTION('',(0.,0.,1.));
#650 = DIRECTION('',(1.,0.,-0.));
#651 = ADVANCED_FACE('',(#652),#677,.F.);
#652 = FACE_BOUND('',#653,.F.);
#653 = EDGE_LOOP('',(#654,#662,#663,#671));
#654 = ORIENTED_EDGE('',*,*,#655,.F.);
#655 = EDGE_CURVE('',#328,#656,#658,.T.);
#656 = VERTEX_POINT('',#657);
#657 = CARTESIAN_POINT('',(-77.5,61.,-39.));
#658 = LINE('',#659,#660);
#659 = CARTESIAN_POINT('',(-77.5,61.,-47.));
#660 = VECTOR('',#661,1.);
#661 = DIRECTION('',(0.,0.,1.));
#662 = ORIENTED_EDGE('',*,*,#335,.T.);
#663 = ORIENTED_EDGE('',*,*,#664,.T.);
#664 = EDGE_CURVE('',#336,#665,#667,.T.);
#665 = VERTEX_POINT('',#666);
#666 = CARTESIAN_POINT('',(-77.5,72.,-39.));
#667 = LINE('',#668,#669);
#668 = CARTESIAN_POINT('',(-77.5,72.,-47.));
#669 = VECTOR('',#670,1.);
#670 = DIRECTION('',(0.,0.,1.));
#671 = ORIENTED_EDGE('',*,*,#672,.F.);
#672 = EDGE_CURVE('',#656,#665,#673,.T.);
#673 = LINE('',#674,#675);
#674 = CARTESIAN_POINT('',(-77.5,61.,-39.));
#675 = VECTOR('',#676,1.);
#676 = DIRECTION('',(-0.,1.,0.));
#677 = PLANE('',#678);
#678 = AXIS2_PLACEMENT_3D('',#679,#680,#681);
#679 = CARTESIAN_POINT('',(-77.5,61.,-47.));
#680 = DIRECTION('',(1.,0.,-0.));
#681 = DIRECTION('',(0.,0.,1.));
#682 = ADVANCED_FACE('',(#683),#708,.F.);
#683 = FACE_BOUND('',#684,.F.);
#684 = EDGE_LOOP('',(#685,#693,#701,#707));
#685 = ORIENTED_EDGE('',*,*,#686,.F.);
#686 = EDGE_CURVE('',#687,#610,#689,.T.);
#687 = VERTEX_POINT('',#688);
#688 = CARTESIAN_POINT('',(-77.5,65.,39.));
#689 = LINE('',#690,#691);
#690 = CARTESIAN_POINT('',(-77.5,65.,39.));
#691 = VECTOR('',#692,1.);
#692 = DIRECTION('',(0.,0.,1.));
#693 = ORIENTED_EDGE('',*,*,#694,.T.);
#694 = EDGE_CURVE('',#687,#695,#697,.T.);
#695 = VERTEX_POINT('',#696);
#696 = CARTESIAN_POINT('',(-77.5,72.,39.));
#697 = LINE('',#698,#699);
#698 = CARTESIAN_POINT('',(-77.5,65.,39.));
#699 = VECTOR('',#700,1.);
#700 = DIRECTION('',(-0.,1.,0.));
#701 = ORIENTED_EDGE('',*,*,#702,.T.);
#702 = EDGE_CURVE('',#695,#602,#703,.T.);
#703 = LINE('',#704,#705);
#704 = CARTESIAN_POINT('',(-77.5,72.,39.));
#705 = VECTOR('',#706,1.);
#706 = DIRECTION('',(0.,0.,1.));
#707 = ORIENTED_EDGE('',*,*,#609,.F.);
#708 = PLANE('',#709);
#709 = AXIS2_PLACEMENT_3D('',#710,#711,#712);
#710 = CARTESIAN_POINT('',(-77.5,65.,39.));
#711 = DIRECTION('',(1.,0.,-0.));
#712 = DIRECTION('',(0.,0.,1.));
#713 = ADVANCED_FACE('',(#714),#739,.T.);
#714 = FACE_BOUND('',#715,.T.);
#715 = EDGE_LOOP('',(#716,#717,#725,#733));
#716 = ORIENTED_EDGE('',*,*,#672,.F.);
#717 = ORIENTED_EDGE('',*,*,#718,.T.);
#718 = EDGE_CURVE('',#656,#719,#721,.T.);
#719 = VERTEX_POINT('',#720);
#720 = CARTESIAN_POINT('',(77.5,61.,-39.));
#721 = LINE('',#722,#723);
#722 = CARTESIAN_POINT('',(-77.5,61.,-39.));
#723 = VECTOR('',#724,1.);
#724 = DIRECTION('',(1.,0.,-0.));
#725 = ORIENTED_EDGE('',*,*,#726,.T.);
#726 = EDGE_CURVE('',#719,#727,#729,.T.);
#727 = VERTEX_POINT('',#728);
#728 = CARTESIAN_POINT('',(77.5,72.,-39.));
#729 = LINE('',#730,#731);
#730 = CARTESIAN_POINT('',(77.5,61.,-39.));
#731 = VECTOR('',#732,1.);
#732 = DIRECTION('',(-0.,1.,0.));
#733 = ORIENTED_EDGE('',*,*,#734,.F.);
#734 = EDGE_CURVE('',#665,#727,#735,.T.);
#735 = LINE('',#736,#737);
#736 = CARTESIAN_POINT('',(-77.5,72.,-39.));
#737 = VECTOR('',#738,1.);
#738 = DIRECTION('',(1.,0.,-0.));
#739 = PLANE('',#740);
#740 = AXIS2_PLACEMENT_3D('',#741,#742,#743);
#741 = CARTESIAN_POINT('',(-77.5,61.,-39.));
#742 = DIRECTION('',(0.,0.,1.));
#743 = DIRECTION('',(1.,0.,-0.));
#744 = ADVANCED_FACE('',(#745),#834,.F.);
#745 = FACE_BOUND('',#746,.F.);
#746 = EDGE_LOOP('',(#747,#748,#756,#764,#772,#780,#788,#796,#804,#812,
    #820,#828));
#747 = ORIENTED_EDGE('',*,*,#694,.F.);
#748 = ORIENTED_EDGE('',*,*,#749,.T.);
#749 = EDGE_CURVE('',#687,#750,#752,.T.);
#750 = VERTEX_POINT('',#751);
#751 = CARTESIAN_POINT('',(77.5,65.,39.));
#752 = LINE('',#753,#754);
#753 = CARTESIAN_POINT('',(-77.5,65.,39.));
#754 = VECTOR('',#755,1.);
#755 = DIRECTION('',(1.,0.,-0.));
#756 = ORIENTED_EDGE('',*,*,#757,.T.);
#757 = EDGE_CURVE('',#750,#758,#760,.T.);
#758 = VERTEX_POINT('',#759);
#759 = CARTESIAN_POINT('',(77.5,72.,39.));
#760 = LINE('',#761,#762);
#761 = CARTESIAN_POINT('',(77.5,65.,39.));
#762 = VECTOR('',#763,1.);
#763 = DIRECTION('',(-0.,1.,0.));
#764 = ORIENTED_EDGE('',*,*,#765,.F.);
#765 = EDGE_CURVE('',#766,#758,#768,.T.);
#766 = VERTEX_POINT('',#767);
#767 = CARTESIAN_POINT('',(48.,72.,39.));
#768 = LINE('',#769,#770);
#769 = CARTESIAN_POINT('',(-77.5,72.,39.));
#770 = VECTOR('',#771,1.);
#771 = DIRECTION('',(1.,0.,-0.));
#772 = ORIENTED_EDGE('',*,*,#773,.F.);
#773 = EDGE_CURVE('',#774,#766,#776,.T.);
#774 = VERTEX_POINT('',#775);
#775 = CARTESIAN_POINT('',(48.,66.,39.));
#776 = LINE('',#777,#778);
#777 = CARTESIAN_POINT('',(48.,66.,39.));
#778 = VECTOR('',#779,1.);
#779 = DIRECTION('',(0.,1.,0.));
#780 = ORIENTED_EDGE('',*,*,#781,.T.);
#781 = EDGE_CURVE('',#774,#782,#784,.T.);
#782 = VERTEX_POINT('',#783);
#783 = CARTESIAN_POINT('',(42.,66.,39.));
#784 = LINE('',#785,#786);
#785 = CARTESIAN_POINT('',(-16.25,66.,39.));
#786 = VECTOR('',#787,1.);
#787 = DIRECTION('',(-1.,0.,0.));
#788 = ORIENTED_EDGE('',*,*,#789,.T.);
#789 = EDGE_CURVE('',#782,#790,#792,.T.);
#790 = VERTEX_POINT('',#791);
#791 = CARTESIAN_POINT('',(42.,72.,39.));
#792 = LINE('',#793,#794);
#793 = CARTESIAN_POINT('',(42.,66.,39.));
#794 = VECTOR('',#795,1.);
#795 = DIRECTION('',(0.,1.,0.));
#796 = ORIENTED_EDGE('',*,*,#797,.F.);
#797 = EDGE_CURVE('',#798,#790,#800,.T.);
#798 = VERTEX_POINT('',#799);
#799 = CARTESIAN_POINT('',(-42.,72.,39.));
#800 = LINE('',#801,#802);
#801 = CARTESIAN_POINT('',(-77.5,72.,39.));
#802 = VECTOR('',#803,1.);
#803 = DIRECTION('',(1.,0.,-0.));
#804 = ORIENTED_EDGE('',*,*,#805,.F.);
#805 = EDGE_CURVE('',#806,#798,#808,.T.);
#806 = VERTEX_POINT('',#807);
#807 = CARTESIAN_POINT('',(-42.,66.,39.));
#808 = LINE('',#809,#810);
#809 = CARTESIAN_POINT('',(-42.,66.,39.));
#810 = VECTOR('',#811,1.);
#811 = DIRECTION('',(0.,1.,0.));
#812 = ORIENTED_EDGE('',*,*,#813,.T.);
#813 = EDGE_CURVE('',#806,#814,#816,.T.);
#814 = VERTEX_POINT('',#815);
#815 = CARTESIAN_POINT('',(-48.,66.,39.));
#816 = LINE('',#817,#818);
#817 = CARTESIAN_POINT('',(-61.25,66.,39.));
#818 = VECTOR('',#819,1.);
#819 = DIRECTION('',(-1.,0.,0.));
#820 = ORIENTED_EDGE('',*,*,#821,.T.);
#821 = EDGE_CURVE('',#814,#822,#824,.T.);
#822 = VERTEX_POINT('',#823);
#823 = CARTESIAN_POINT('',(-48.,72.,39.));
#824 = LINE('',#825,#826);
#825 = CARTESIAN_POINT('',(-48.,66.,39.));
#826 = VECTOR('',#827,1.);
#827 = DIRECTION('',(0.,1.,0.));
#828 = ORIENTED_EDGE('',*,*,#829,.F.);
#829 = EDGE_CURVE('',#695,#822,#830,.T.);
#830 = LINE('',#831,#832);
#831 = CARTESIAN_POINT('',(-77.5,72.,39.));
#832 = VECTOR('',#833,1.);
#833 = DIRECTION('',(1.,0.,-0.));
#834 = PLANE('',#835);
#835 = AXIS2_PLACEMENT_3D('',#836,#837,#838);
#836 = CARTESIAN_POINT('',(-77.5,65.,39.));
#837 = DIRECTION('',(0.,0.,1.));
#838 = DIRECTION('',(1.,0.,-0.));
#839 = ADVANCED_FACE('',(#840),#856,.T.);
#840 = FACE_BOUND('',#841,.T.);
#841 = EDGE_LOOP('',(#842,#848,#849,#855));
#842 = ORIENTED_EDGE('',*,*,#843,.F.);
#843 = EDGE_CURVE('',#320,#719,#844,.T.);
#844 = LINE('',#845,#846);
#845 = CARTESIAN_POINT('',(77.5,61.,-47.));
#846 = VECTOR('',#847,1.);
#847 = DIRECTION('',(0.,0.,1.));
#848 = ORIENTED_EDGE('',*,*,#319,.T.);
#849 = ORIENTED_EDGE('',*,*,#850,.T.);
#850 = EDGE_CURVE('',#312,#727,#851,.T.);
#851 = LINE('',#852,#853);
#852 = CARTESIAN_POINT('',(77.5,72.,-47.));
#853 = VECTOR('',#854,1.);
#854 = DIRECTION('',(0.,0.,1.));
#855 = ORIENTED_EDGE('',*,*,#726,.F.);
#856 = PLANE('',#857);
#857 = AXIS2_PLACEMENT_3D('',#858,#859,#860);
#858 = CARTESIAN_POINT('',(77.5,61.,-47.));
#859 = DIRECTION('',(1.,0.,-0.));
#860 = DIRECTION('',(0.,0.,1.));
#861 = ADVANCED_FACE('',(#862),#880,.T.);
#862 = FACE_BOUND('',#863,.T.);
#863 = EDGE_LOOP('',(#864,#871,#872,#879));
#864 = ORIENTED_EDGE('',*,*,#865,.F.);
#865 = EDGE_CURVE('',#798,#822,#866,.T.);
#866 = CIRCLE('',#867,5.);
#867 = AXIS2_PLACEMENT_3D('',#868,#869,#870);
#868 = CARTESIAN_POINT('',(-45.,72.,35.));
#869 = DIRECTION('',(0.,1.,0.));
#870 = DIRECTION('',(0.,-0.,1.));
#871 = ORIENTED_EDGE('',*,*,#805,.F.);
#872 = ORIENTED_EDGE('',*,*,#873,.T.);
#873 = EDGE_CURVE('',#806,#814,#874,.T.);
#874 = CIRCLE('',#875,5.);
#875 = AXIS2_PLACEMENT_3D('',#876,#877,#878);
#876 = CARTESIAN_POINT('',(-45.,66.,35.));
#877 = DIRECTION('',(0.,1.,0.));
#878 = DIRECTION('',(0.,-0.,1.));
#879 = ORIENTED_EDGE('',*,*,#821,.T.);
#880 = CYLINDRICAL_SURFACE('',#881,5.);
#881 = AXIS2_PLACEMENT_3D('',#882,#883,#884);
#882 = CARTESIAN_POINT('',(-45.,66.,35.));
#883 = DIRECTION('',(0.,1.,0.));
#884 = DIRECTION('',(0.,-0.,1.));
#885 = ADVANCED_FACE('',(#886),#905,.T.);
#886 = FACE_BOUND('',#887,.T.);
#887 = EDGE_LOOP('',(#888,#897,#898,#899));
#888 = ORIENTED_EDGE('',*,*,#889,.F.);
#889 = EDGE_CURVE('',#304,#890,#892,.T.);
#890 = VERTEX_POINT('',#891);
#891 = CARTESIAN_POINT('',(86.,72.,-42.));
#892 = CIRCLE('',#893,5.);
#893 = AXIS2_PLACEMENT_3D('',#894,#895,#896);
#894 = CARTESIAN_POINT('',(81.,72.,-42.));
#895 = DIRECTION('',(0.,-1.,1.110223024625E-16));
#896 = DIRECTION('',(1.,0.,0.));
#897 = ORIENTED_EDGE('',*,*,#303,.F.);
#898 = ORIENTED_EDGE('',*,*,#445,.T.);
#899 = ORIENTED_EDGE('',*,*,#900,.T.);
#900 = EDGE_CURVE('',#438,#890,#901,.T.);
#901 = LINE('',#902,#903);
#902 = CARTESIAN_POINT('',(86.,75.,-42.));
#903 = VECTOR('',#904,1.);
#904 = DIRECTION('',(0.,-1.,1.110223024625E-16));
#905 = CYLINDRICAL_SURFACE('',#906,5.);
#906 = AXIS2_PLACEMENT_3D('',#907,#908,#909);
#907 = CARTESIAN_POINT('',(81.,75.,-42.));
#908 = DIRECTION('',(0.,-1.,1.110223024625E-16));
#909 = DIRECTION('',(1.,0.,0.));
#910 = ADVANCED_FACE('',(#911),#929,.T.);
#911 = FACE_BOUND('',#912,.T.);
#912 = EDGE_LOOP('',(#913,#920,#921,#928));
#913 = ORIENTED_EDGE('',*,*,#914,.F.);
#914 = EDGE_CURVE('',#766,#790,#915,.T.);
#915 = CIRCLE('',#916,5.);
#916 = AXIS2_PLACEMENT_3D('',#917,#918,#919);
#917 = CARTESIAN_POINT('',(45.,72.,35.));
#918 = DIRECTION('',(0.,1.,0.));
#919 = DIRECTION('',(0.,-0.,1.));
#920 = ORIENTED_EDGE('',*,*,#773,.F.);
#921 = ORIENTED_EDGE('',*,*,#922,.T.);
#922 = EDGE_CURVE('',#774,#782,#923,.T.);
#923 = CIRCLE('',#924,5.);
#924 = AXIS2_PLACEMENT_3D('',#925,#926,#927);
#925 = CARTESIAN_POINT('',(45.,66.,35.));
#926 = DIRECTION('',(0.,1.,0.));
#927 = DIRECTION('',(0.,-0.,1.));
#928 = ORIENTED_EDGE('',*,*,#789,.T.);
#929 = CYLINDRICAL_SURFACE('',#930,5.);
#930 = AXIS2_PLACEMENT_3D('',#931,#932,#933);
#931 = CARTESIAN_POINT('',(45.,66.,35.));
#932 = DIRECTION('',(0.,1.,0.));
#933 = DIRECTION('',(0.,-0.,1.));
#934 = ADVANCED_FACE('',(#935),#953,.T.);
#935 = FACE_BOUND('',#936,.T.);
#936 = EDGE_LOOP('',(#937,#938,#939,#947));
#937 = ORIENTED_EDGE('',*,*,#900,.F.);
#938 = ORIENTED_EDGE('',*,*,#437,.T.);
#939 = ORIENTED_EDGE('',*,*,#940,.T.);
#940 = EDGE_CURVE('',#429,#941,#943,.T.);
#941 = VERTEX_POINT('',#942);
#942 = CARTESIAN_POINT('',(86.,72.,42.));
#943 = LINE('',#944,#945);
#944 = CARTESIAN_POINT('',(86.,75.,42.));
#945 = VECTOR('',#946,1.);
#946 = DIRECTION('',(0.,-1.,1.110223024625E-16));
#947 = ORIENTED_EDGE('',*,*,#948,.F.);
#948 = EDGE_CURVE('',#890,#941,#949,.T.);
#949 = LINE('',#950,#951);
#950 = CARTESIAN_POINT('',(86.,72.,-42.));
#951 = VECTOR('',#952,1.);
#952 = DIRECTION('',(0.,1.110223024625E-16,1.));
#953 = PLANE('',#954);
#954 = AXIS2_PLACEMENT_3D('',#955,#956,#957);
#955 = CARTESIAN_POINT('',(86.,75.,-42.));
#956 = DIRECTION('',(1.,0.,0.));
#957 = DIRECTION('',(0.,-1.,1.110223024625E-16));
#958 = ADVANCED_FACE('',(#959),#971,.T.);
#959 = FACE_BOUND('',#960,.T.);
#960 = EDGE_LOOP('',(#961,#968,#969,#970));
#961 = ORIENTED_EDGE('',*,*,#962,.F.);
#962 = EDGE_CURVE('',#941,#634,#963,.T.);
#963 = CIRCLE('',#964,5.);
#964 = AXIS2_PLACEMENT_3D('',#965,#966,#967);
#965 = CARTESIAN_POINT('',(81.,72.,42.));
#966 = DIRECTION('',(0.,-1.,1.110223024625E-16));
#967 = DIRECTION('',(1.,0.,0.));
#968 = ORIENTED_EDGE('',*,*,#940,.F.);
#969 = ORIENTED_EDGE('',*,*,#428,.T.);
#970 = ORIENTED_EDGE('',*,*,#641,.T.);
#971 = CYLINDRICAL_SURFACE('',#972,5.);
#972 = AXIS2_PLACEMENT_3D('',#973,#974,#975);
#973 = CARTESIAN_POINT('',(81.,75.,42.));
#974 = DIRECTION('',(0.,-1.,1.110223024625E-16));
#975 = DIRECTION('',(1.,0.,0.));
#976 = ADVANCED_FACE('',(#977),#993,.T.);
#977 = FACE_BOUND('',#978,.T.);
#978 = EDGE_LOOP('',(#979,#985,#986,#992));
#979 = ORIENTED_EDGE('',*,*,#980,.F.);
#980 = EDGE_CURVE('',#750,#618,#981,.T.);
#981 = LINE('',#982,#983);
#982 = CARTESIAN_POINT('',(77.5,65.,39.));
#983 = VECTOR('',#984,1.);
#984 = DIRECTION('',(0.,0.,1.));
#985 = ORIENTED_EDGE('',*,*,#757,.T.);
#986 = ORIENTED_EDGE('',*,*,#987,.T.);
#987 = EDGE_CURVE('',#758,#626,#988,.T.);
#988 = LINE('',#989,#990);
#989 = CARTESIAN_POINT('',(77.5,72.,39.));
#990 = VECTOR('',#991,1.);
#991 = DIRECTION('',(0.,0.,1.));
#992 = ORIENTED_EDGE('',*,*,#625,.F.);
#993 = PLANE('',#994);
#994 = AXIS2_PLACEMENT_3D('',#995,#996,#997);
#995 = CARTESIAN_POINT('',(77.5,65.,39.));
#996 = DIRECTION('',(1.,0.,-0.));
#997 = DIRECTION('',(0.,0.,1.));
#998 = ADVANCED_FACE('',(#999),#1018,.F.);
#999 = FACE_BOUND('',#1000,.F.);
#1000 = EDGE_LOOP('',(#1001,#1002,#1010,#1017));
#1001 = ORIENTED_EDGE('',*,*,#469,.F.);
#1002 = ORIENTED_EDGE('',*,*,#1003,.F.);
#1003 = EDGE_CURVE('',#1004,#470,#1006,.T.);
#1004 = VERTEX_POINT('',#1005);
#1005 = CARTESIAN_POINT('',(-30.,72.,-27.8));
#1006 = LINE('',#1007,#1008);
#1007 = CARTESIAN_POINT('',(-30.,70.,-27.8));
#1008 = VECTOR('',#1009,1.);
#1009 = DIRECTION('',(0.,1.,0.));
#1010 = ORIENTED_EDGE('',*,*,#1011,.T.);
#1011 = EDGE_CURVE('',#1004,#1004,#1012,.T.);
#1012 = CIRCLE('',#1013,2.2);
#1013 = AXIS2_PLACEMENT_3D('',#1014,#1015,#1016);
#1014 = CARTESIAN_POINT('',(-30.,72.,-30.));
#1015 = DIRECTION('',(0.,1.,0.));
#1016 = DIRECTION('',(0.,-0.,1.));
#1017 = ORIENTED_EDGE('',*,*,#1003,.T.);
#1018 = CYLINDRICAL_SURFACE('',#1019,2.2);
#1019 = AXIS2_PLACEMENT_3D('',#1020,#1021,#1022);
#1020 = CARTESIAN_POINT('',(-30.,70.,-30.));
#1021 = DIRECTION('',(0.,1.,0.));
#1022 = DIRECTION('',(0.,-0.,1.));
#1023 = ADVANCED_FACE('',(#1024),#1043,.F.);
#1024 = FACE_BOUND('',#1025,.F.);
#1025 = EDGE_LOOP('',(#1026,#1027,#1035,#1042));
#1026 = ORIENTED_EDGE('',*,*,#483,.F.);
#1027 = ORIENTED_EDGE('',*,*,#1028,.F.);
#1028 = EDGE_CURVE('',#1029,#484,#1031,.T.);
#1029 = VERTEX_POINT('',#1030);
#1030 = CARTESIAN_POINT('',(-8.082668874373E-15,72.,33.));
#1031 = LINE('',#1032,#1033);
#1032 = CARTESIAN_POINT('',(-8.082668874373E-15,70.,33.));
#1033 = VECTOR('',#1034,1.);
#1034 = DIRECTION('',(0.,1.,0.));
#1035 = ORIENTED_EDGE('',*,*,#1036,.T.);
#1036 = EDGE_CURVE('',#1029,#1029,#1037,.T.);
#1037 = CIRCLE('',#1038,33.);
#1038 = AXIS2_PLACEMENT_3D('',#1039,#1040,#1041);
#1039 = CARTESIAN_POINT('',(0.,72.,0.));
#1040 = DIRECTION('',(0.,1.,0.));
#1041 = DIRECTION('',(0.,-0.,1.));
#1042 = ORIENTED_EDGE('',*,*,#1028,.T.);
#1043 = CYLINDRICAL_SURFACE('',#1044,33.);
#1044 = AXIS2_PLACEMENT_3D('',#1045,#1046,#1047);
#1045 = CARTESIAN_POINT('',(0.,70.,0.));
#1046 = DIRECTION('',(0.,1.,0.));
#1047 = DIRECTION('',(0.,-0.,1.));
#1048 = ADVANCED_FACE('',(#1049),#1068,.F.);
#1049 = FACE_BOUND('',#1050,.F.);
#1050 = EDGE_LOOP('',(#1051,#1052,#1060,#1067));
#1051 = ORIENTED_EDGE('',*,*,#458,.F.);
#1052 = ORIENTED_EDGE('',*,*,#1053,.F.);
#1053 = EDGE_CURVE('',#1054,#459,#1056,.T.);
#1054 = VERTEX_POINT('',#1055);
#1055 = CARTESIAN_POINT('',(30.,72.,-27.8));
#1056 = LINE('',#1057,#1058);
#1057 = CARTESIAN_POINT('',(30.,70.,-27.8));
#1058 = VECTOR('',#1059,1.);
#1059 = DIRECTION('',(0.,1.,0.));
#1060 = ORIENTED_EDGE('',*,*,#1061,.T.);
#1061 = EDGE_CURVE('',#1054,#1054,#1062,.T.);
#1062 = CIRCLE('',#1063,2.2);
#1063 = AXIS2_PLACEMENT_3D('',#1064,#1065,#1066);
#1064 = CARTESIAN_POINT('',(30.,72.,-30.));
#1065 = DIRECTION('',(0.,1.,0.));
#1066 = DIRECTION('',(0.,-0.,1.));
#1067 = ORIENTED_EDGE('',*,*,#1053,.T.);
#1068 = CYLINDRICAL_SURFACE('',#1069,2.2);
#1069 = AXIS2_PLACEMENT_3D('',#1070,#1071,#1072);
#1070 = CARTESIAN_POINT('',(30.,70.,-30.));
#1071 = DIRECTION('',(0.,1.,0.));
#1072 = DIRECTION('',(0.,-0.,1.));
#1073 = ADVANCED_FACE('',(#1074),#1093,.F.);
#1074 = FACE_BOUND('',#1075,.F.);
#1075 = EDGE_LOOP('',(#1076,#1077,#1085,#1092));
#1076 = ORIENTED_EDGE('',*,*,#519,.F.);
#1077 = ORIENTED_EDGE('',*,*,#1078,.F.);
#1078 = EDGE_CURVE('',#1079,#520,#1081,.T.);
#1079 = VERTEX_POINT('',#1080);
#1080 = CARTESIAN_POINT('',(-30.,72.,32.2));
#1081 = LINE('',#1082,#1083);
#1082 = CARTESIAN_POINT('',(-30.,70.,32.2));
#1083 = VECTOR('',#1084,1.);
#1084 = DIRECTION('',(0.,1.,0.));
#1085 = ORIENTED_EDGE('',*,*,#1086,.T.);
#1086 = EDGE_CURVE('',#1079,#1079,#1087,.T.);
#1087 = CIRCLE('',#1088,2.2);
#1088 = AXIS2_PLACEMENT_3D('',#1089,#1090,#1091);
#1089 = CARTESIAN_POINT('',(-30.,72.,30.));
#1090 = DIRECTION('',(0.,1.,0.));
#1091 = DIRECTION('',(0.,-0.,1.));
#1092 = ORIENTED_EDGE('',*,*,#1078,.T.);
#1093 = CYLINDRICAL_SURFACE('',#1094,2.2);
#1094 = AXIS2_PLACEMENT_3D('',#1095,#1096,#1097);
#1095 = CARTESIAN_POINT('',(-30.,70.,30.));
#1096 = DIRECTION('',(0.,1.,0.));
#1097 = DIRECTION('',(0.,-0.,1.));
#1098 = ADVANCED_FACE('',(#1099),#1105,.F.);
#1099 = FACE_BOUND('',#1100,.F.);
#1100 = EDGE_LOOP('',(#1101,#1102,#1103,#1104));
#1101 = ORIENTED_EDGE('',*,*,#327,.F.);
#1102 = ORIENTED_EDGE('',*,*,#655,.T.);
#1103 = ORIENTED_EDGE('',*,*,#718,.T.);
#1104 = ORIENTED_EDGE('',*,*,#843,.F.);
#1105 = PLANE('',#1106);
#1106 = AXIS2_PLACEMENT_3D('',#1107,#1108,#1109);
#1107 = CARTESIAN_POINT('',(-77.5,61.,-47.));
#1108 = DIRECTION('',(-0.,1.,0.));
#1109 = DIRECTION('',(0.,0.,1.));
#1110 = ADVANCED_FACE('',(#1111),#1130,.F.);
#1111 = FACE_BOUND('',#1112,.F.);
#1112 = EDGE_LOOP('',(#1113,#1121,#1128,#1129));
#1113 = ORIENTED_EDGE('',*,*,#1114,.T.);
#1114 = EDGE_CURVE('',#353,#1115,#1117,.T.);
#1115 = VERTEX_POINT('',#1116);
#1116 = CARTESIAN_POINT('',(71.25,67.,-40.5));
#1117 = LINE('',#1118,#1119);
#1118 = CARTESIAN_POINT('',(71.25,67.,-47.1));
#1119 = VECTOR('',#1120,1.);
#1120 = DIRECTION('',(0.,0.,1.));
#1121 = ORIENTED_EDGE('',*,*,#1122,.F.);
#1122 = EDGE_CURVE('',#1115,#1115,#1123,.T.);
#1123 = CIRCLE('',#1124,1.25);
#1124 = AXIS2_PLACEMENT_3D('',#1125,#1126,#1127);
#1125 = CARTESIAN_POINT('',(70.,67.,-40.5));
#1126 = DIRECTION('',(0.,0.,1.));
#1127 = DIRECTION('',(1.,0.,-0.));
#1128 = ORIENTED_EDGE('',*,*,#1114,.F.);
#1129 = ORIENTED_EDGE('',*,*,#352,.T.);
#1130 = CYLINDRICAL_SURFACE('',#1131,1.25);
#1131 = AXIS2_PLACEMENT_3D('',#1132,#1133,#1134);
#1132 = CARTESIAN_POINT('',(70.,67.,-47.1));
#1133 = DIRECTION('',(0.,0.,1.));
#1134 = DIRECTION('',(1.,0.,-0.));
#1135 = ADVANCED_FACE('',(#1136),#1155,.F.);
#1136 = FACE_BOUND('',#1137,.F.);
#1137 = EDGE_LOOP('',(#1138,#1146,#1153,#1154));
#1138 = ORIENTED_EDGE('',*,*,#1139,.T.);
#1139 = EDGE_CURVE('',#364,#1140,#1142,.T.);
#1140 = VERTEX_POINT('',#1141);
#1141 = CARTESIAN_POINT('',(36.25,67.,-40.5));
#1142 = LINE('',#1143,#1144);
#1143 = CARTESIAN_POINT('',(36.25,67.,-47.1));
#1144 = VECTOR('',#1145,1.);
#1145 = DIRECTION('',(0.,0.,1.));
#1146 = ORIENTED_EDGE('',*,*,#1147,.F.);
#1147 = EDGE_CURVE('',#1140,#1140,#1148,.T.);
#1148 = CIRCLE('',#1149,1.25);
#1149 = AXIS2_PLACEMENT_3D('',#1150,#1151,#1152);
#1150 = CARTESIAN_POINT('',(35.,67.,-40.5));
#1151 = DIRECTION('',(0.,0.,1.));
#1152 = DIRECTION('',(1.,0.,-0.));
#1153 = ORIENTED_EDGE('',*,*,#1139,.F.);
#1154 = ORIENTED_EDGE('',*,*,#363,.T.);
#1155 = CYLINDRICAL_SURFACE('',#1156,1.25);
#1156 = AXIS2_PLACEMENT_3D('',#1157,#1158,#1159);
#1157 = CARTESIAN_POINT('',(35.,67.,-47.1));
#1158 = DIRECTION('',(0.,0.,1.));
#1159 = DIRECTION('',(1.,0.,-0.));
#1160 = ADVANCED_FACE('',(#1161),#1180,.F.);
#1161 = FACE_BOUND('',#1162,.F.);
#1162 = EDGE_LOOP('',(#1163,#1171,#1178,#1179));
#1163 = ORIENTED_EDGE('',*,*,#1164,.T.);
#1164 = EDGE_CURVE('',#375,#1165,#1167,.T.);
#1165 = VERTEX_POINT('',#1166);
#1166 = CARTESIAN_POINT('',(-33.75,67.,-40.5));
#1167 = LINE('',#1168,#1169);
#1168 = CARTESIAN_POINT('',(-33.75,67.,-47.1));
#1169 = VECTOR('',#1170,1.);
#1170 = DIRECTION('',(0.,0.,1.));
#1171 = ORIENTED_EDGE('',*,*,#1172,.F.);
#1172 = EDGE_CURVE('',#1165,#1165,#1173,.T.);
#1173 = CIRCLE('',#1174,1.25);
#1174 = AXIS2_PLACEMENT_3D('',#1175,#1176,#1177);
#1175 = CARTESIAN_POINT('',(-35.,67.,-40.5));
#1176 = DIRECTION('',(0.,0.,1.));
#1177 = DIRECTION('',(1.,0.,-0.));
#1178 = ORIENTED_EDGE('',*,*,#1164,.F.);
#1179 = ORIENTED_EDGE('',*,*,#374,.T.);
#1180 = CYLINDRICAL_SURFACE('',#1181,1.25);
#1181 = AXIS2_PLACEMENT_3D('',#1182,#1183,#1184);
#1182 = CARTESIAN_POINT('',(-35.,67.,-47.1));
#1183 = DIRECTION('',(0.,0.,1.));
#1184 = DIRECTION('',(1.,0.,-0.));
#1185 = ADVANCED_FACE('',(#1186),#1205,.F.);
#1186 = FACE_BOUND('',#1187,.F.);
#1187 = EDGE_LOOP('',(#1188,#1196,#1203,#1204));
#1188 = ORIENTED_EDGE('',*,*,#1189,.T.);
#1189 = EDGE_CURVE('',#386,#1190,#1192,.T.);
#1190 = VERTEX_POINT('',#1191);
#1191 = CARTESIAN_POINT('',(-68.75,67.,-40.5));
#1192 = LINE('',#1193,#1194);
#1193 = CARTESIAN_POINT('',(-68.75,67.,-47.1));
#1194 = VECTOR('',#1195,1.);
#1195 = DIRECTION('',(0.,0.,1.));
#1196 = ORIENTED_EDGE('',*,*,#1197,.F.);
#1197 = EDGE_CURVE('',#1190,#1190,#1198,.T.);
#1198 = CIRCLE('',#1199,1.25);
#1199 = AXIS2_PLACEMENT_3D('',#1200,#1201,#1202);
#1200 = CARTESIAN_POINT('',(-70.,67.,-40.5));
#1201 = DIRECTION('',(0.,0.,1.));
#1202 = DIRECTION('',(1.,0.,-0.));
#1203 = ORIENTED_EDGE('',*,*,#1189,.F.);
#1204 = ORIENTED_EDGE('',*,*,#385,.T.);
#1205 = CYLINDRICAL_SURFACE('',#1206,1.25);
#1206 = AXIS2_PLACEMENT_3D('',#1207,#1208,#1209);
#1207 = CARTESIAN_POINT('',(-70.,67.,-47.1));
#1208 = DIRECTION('',(0.,0.,1.));
#1209 = DIRECTION('',(1.,0.,-0.));
#1210 = ADVANCED_FACE('',(#1211),#1230,.F.);
#1211 = FACE_BOUND('',#1212,.F.);
#1212 = EDGE_LOOP('',(#1213,#1221,#1228,#1229));
#1213 = ORIENTED_EDGE('',*,*,#1214,.T.);
#1214 = EDGE_CURVE('',#498,#1215,#1217,.T.);
#1215 = VERTEX_POINT('',#1216);
#1216 = CARTESIAN_POINT('',(45.,68.5,33.75));
#1217 = LINE('',#1218,#1219);
#1218 = CARTESIAN_POINT('',(45.,75.1,33.75));
#1219 = VECTOR('',#1220,1.);
#1220 = DIRECTION('',(0.,-1.,0.));
#1221 = ORIENTED_EDGE('',*,*,#1222,.F.);
#1222 = EDGE_CURVE('',#1215,#1215,#1223,.T.);
#1223 = CIRCLE('',#1224,1.25);
#1224 = AXIS2_PLACEMENT_3D('',#1225,#1226,#1227);
#1225 = CARTESIAN_POINT('',(45.,68.5,35.));
#1226 = DIRECTION('',(0.,-1.,0.));
#1227 = DIRECTION('',(0.,-0.,-1.));
#1228 = ORIENTED_EDGE('',*,*,#1214,.F.);
#1229 = ORIENTED_EDGE('',*,*,#497,.T.);
#1230 = CYLINDRICAL_SURFACE('',#1231,1.25);
#1231 = AXIS2_PLACEMENT_3D('',#1232,#1233,#1234);
#1232 = CARTESIAN_POINT('',(45.,75.1,35.));
#1233 = DIRECTION('',(0.,-1.,0.));
#1234 = DIRECTION('',(0.,-0.,-1.));
#1235 = ADVANCED_FACE('',(#1236),#1255,.F.);
#1236 = FACE_BOUND('',#1237,.F.);
#1237 = EDGE_LOOP('',(#1238,#1239,#1247,#1254));
#1238 = ORIENTED_EDGE('',*,*,#508,.F.);
#1239 = ORIENTED_EDGE('',*,*,#1240,.F.);
#1240 = EDGE_CURVE('',#1241,#509,#1243,.T.);
#1241 = VERTEX_POINT('',#1242);
#1242 = CARTESIAN_POINT('',(30.,72.,32.2));
#1243 = LINE('',#1244,#1245);
#1244 = CARTESIAN_POINT('',(30.,70.,32.2));
#1245 = VECTOR('',#1246,1.);
#1246 = DIRECTION('',(0.,1.,0.));
#1247 = ORIENTED_EDGE('',*,*,#1248,.T.);
#1248 = EDGE_CURVE('',#1241,#1241,#1249,.T.);
#1249 = CIRCLE('',#1250,2.2);
#1250 = AXIS2_PLACEMENT_3D('',#1251,#1252,#1253);
#1251 = CARTESIAN_POINT('',(30.,72.,30.));
#1252 = DIRECTION('',(0.,1.,0.));
#1253 = DIRECTION('',(0.,-0.,1.));
#1254 = ORIENTED_EDGE('',*,*,#1240,.T.);
#1255 = CYLINDRICAL_SURFACE('',#1256,2.2);
#1256 = AXIS2_PLACEMENT_3D('',#1257,#1258,#1259);
#1257 = CARTESIAN_POINT('',(30.,70.,30.));
#1258 = DIRECTION('',(0.,1.,0.));
#1259 = DIRECTION('',(0.,-0.,1.));
#1260 = ADVANCED_FACE('',(#1261),#1280,.F.);
#1261 = FACE_BOUND('',#1262,.F.);
#1262 = EDGE_LOOP('',(#1263,#1271,#1278,#1279));
#1263 = ORIENTED_EDGE('',*,*,#1264,.T.);
#1264 = EDGE_CURVE('',#534,#1265,#1267,.T.);
#1265 = VERTEX_POINT('',#1266);
#1266 = CARTESIAN_POINT('',(-45.,68.5,33.75));
#1267 = LINE('',#1268,#1269);
#1268 = CARTESIAN_POINT('',(-45.,75.1,33.75));
#1269 = VECTOR('',#1270,1.);
#1270 = DIRECTION('',(0.,-1.,0.));
#1271 = ORIENTED_EDGE('',*,*,#1272,.F.);
#1272 = EDGE_CURVE('',#1265,#1265,#1273,.T.);
#1273 = CIRCLE('',#1274,1.25);
#1274 = AXIS2_PLACEMENT_3D('',#1275,#1276,#1277);
#1275 = CARTESIAN_POINT('',(-45.,68.5,35.));
#1276 = DIRECTION('',(0.,-1.,0.));
#1277 = DIRECTION('',(0.,-0.,-1.));
#1278 = ORIENTED_EDGE('',*,*,#1264,.F.);
#1279 = ORIENTED_EDGE('',*,*,#533,.T.);
#1280 = CYLINDRICAL_SURFACE('',#1281,1.25);
#1281 = AXIS2_PLACEMENT_3D('',#1282,#1283,#1284);
#1282 = CARTESIAN_POINT('',(-45.,75.1,35.));
#1283 = DIRECTION('',(0.,-1.,0.));
#1284 = DIRECTION('',(0.,-0.,-1.));
#1285 = ADVANCED_FACE('',(#1286),#1292,.F.);
#1286 = FACE_BOUND('',#1287,.F.);
#1287 = EDGE_LOOP('',(#1288,#1289,#1290,#1291));
#1288 = ORIENTED_EDGE('',*,*,#749,.F.);
#1289 = ORIENTED_EDGE('',*,*,#686,.T.);
#1290 = ORIENTED_EDGE('',*,*,#617,.T.);
#1291 = ORIENTED_EDGE('',*,*,#980,.F.);
#1292 = PLANE('',#1293);
#1293 = AXIS2_PLACEMENT_3D('',#1294,#1295,#1296);
#1294 = CARTESIAN_POINT('',(-77.5,65.,39.));
#1295 = DIRECTION('',(-0.,1.,0.));
#1296 = DIRECTION('',(0.,0.,1.));
#1297 = ADVANCED_FACE('',(#1298),#1302,.F.);
#1298 = FACE_BOUND('',#1299,.F.);
#1299 = EDGE_LOOP('',(#1300,#1301));
#1300 = ORIENTED_EDGE('',*,*,#813,.F.);
#1301 = ORIENTED_EDGE('',*,*,#873,.T.);
#1302 = PLANE('',#1303);
#1303 = AXIS2_PLACEMENT_3D('',#1304,#1305,#1306);
#1304 = CARTESIAN_POINT('',(-45.,66.,35.));
#1305 = DIRECTION('',(0.,1.,0.));
#1306 = DIRECTION('',(0.,-0.,1.));
#1307 = ADVANCED_FACE('',(#1308),#1312,.F.);
#1308 = FACE_BOUND('',#1309,.F.);
#1309 = EDGE_LOOP('',(#1310,#1311));
#1310 = ORIENTED_EDGE('',*,*,#781,.F.);
#1311 = ORIENTED_EDGE('',*,*,#922,.T.);
#1312 = PLANE('',#1313);
#1313 = AXIS2_PLACEMENT_3D('',#1314,#1315,#1316);
#1314 = CARTESIAN_POINT('',(45.,66.,35.));
#1315 = DIRECTION('',(0.,1.,0.));
#1316 = DIRECTION('',(0.,-0.,1.));
#1317 = ADVANCED_FACE('',(#1318),#1330,.F.);
#1318 = FACE_BOUND('',#1319,.F.);
#1319 = EDGE_LOOP('',(#1320,#1328,#1329));
#1320 = ORIENTED_EDGE('',*,*,#1321,.F.);
#1321 = EDGE_CURVE('',#1115,#1322,#1324,.T.);
#1322 = VERTEX_POINT('',#1323);
#1323 = CARTESIAN_POINT('',(70.,67.,-39.74892422621));
#1324 = LINE('',#1325,#1326);
#1325 = CARTESIAN_POINT('',(71.25,67.,-40.5));
#1326 = VECTOR('',#1327,1.);
#1327 = DIRECTION('',(-0.857167300702,2.099454382277E-16,0.51503807491)
  );
#1328 = ORIENTED_EDGE('',*,*,#1122,.T.);
#1329 = ORIENTED_EDGE('',*,*,#1321,.T.);
#1330 = CONICAL_SURFACE('',#1331,1.25,1.029744258677);
#1331 = AXIS2_PLACEMENT_3D('',#1332,#1333,#1334);
#1332 = CARTESIAN_POINT('',(70.,67.,-40.5));
#1333 = DIRECTION('',(-0.,-0.,-1.));
#1334 = DIRECTION('',(1.,0.,-0.));
#1335 = ADVANCED_FACE('',(#1336),#1348,.F.);
#1336 = FACE_BOUND('',#1337,.F.);
#1337 = EDGE_LOOP('',(#1338,#1346,#1347));
#1338 = ORIENTED_EDGE('',*,*,#1339,.F.);
#1339 = EDGE_CURVE('',#1140,#1340,#1342,.T.);
#1340 = VERTEX_POINT('',#1341);
#1341 = CARTESIAN_POINT('',(35.,67.,-39.74892422621));
#1342 = LINE('',#1343,#1344);
#1343 = CARTESIAN_POINT('',(36.25,67.,-40.5));
#1344 = VECTOR('',#1345,1.);
#1345 = DIRECTION('',(-0.857167300702,2.099454382277E-16,0.51503807491)
  );
#1346 = ORIENTED_EDGE('',*,*,#1147,.T.);
#1347 = ORIENTED_EDGE('',*,*,#1339,.T.);
#1348 = CONICAL_SURFACE('',#1349,1.25,1.029744258677);
#1349 = AXIS2_PLACEMENT_3D('',#1350,#1351,#1352);
#1350 = CARTESIAN_POINT('',(35.,67.,-40.5));
#1351 = DIRECTION('',(-0.,-0.,-1.));
#1352 = DIRECTION('',(1.,0.,-0.));
#1353 = ADVANCED_FACE('',(#1354),#1366,.F.);
#1354 = FACE_BOUND('',#1355,.F.);
#1355 = EDGE_LOOP('',(#1356,#1364,#1365));
#1356 = ORIENTED_EDGE('',*,*,#1357,.F.);
#1357 = EDGE_CURVE('',#1165,#1358,#1360,.T.);
#1358 = VERTEX_POINT('',#1359);
#1359 = CARTESIAN_POINT('',(-35.,67.,-39.74892422621));
#1360 = LINE('',#1361,#1362);
#1361 = CARTESIAN_POINT('',(-33.75,67.,-40.5));
#1362 = VECTOR('',#1363,1.);
#1363 = DIRECTION('',(-0.857167300702,2.099454382277E-16,0.51503807491)
  );
#1364 = ORIENTED_EDGE('',*,*,#1172,.T.);
#1365 = ORIENTED_EDGE('',*,*,#1357,.T.);
#1366 = CONICAL_SURFACE('',#1367,1.25,1.029744258677);
#1367 = AXIS2_PLACEMENT_3D('',#1368,#1369,#1370);
#1368 = CARTESIAN_POINT('',(-35.,67.,-40.5));
#1369 = DIRECTION('',(-0.,-0.,-1.));
#1370 = DIRECTION('',(1.,0.,-0.));
#1371 = ADVANCED_FACE('',(#1372),#1384,.F.);
#1372 = FACE_BOUND('',#1373,.F.);
#1373 = EDGE_LOOP('',(#1374,#1382,#1383));
#1374 = ORIENTED_EDGE('',*,*,#1375,.F.);
#1375 = EDGE_CURVE('',#1190,#1376,#1378,.T.);
#1376 = VERTEX_POINT('',#1377);
#1377 = CARTESIAN_POINT('',(-70.,67.,-39.74892422621));
#1378 = LINE('',#1379,#1380);
#1379 = CARTESIAN_POINT('',(-68.75,67.,-40.5));
#1380 = VECTOR('',#1381,1.);
#1381 = DIRECTION('',(-0.857167300702,2.099454382277E-16,0.51503807491)
  );
#1382 = ORIENTED_EDGE('',*,*,#1197,.T.);
#1383 = ORIENTED_EDGE('',*,*,#1375,.T.);
#1384 = CONICAL_SURFACE('',#1385,1.25,1.029744258677);
#1385 = AXIS2_PLACEMENT_3D('',#1386,#1387,#1388);
#1386 = CARTESIAN_POINT('',(-70.,67.,-40.5));
#1387 = DIRECTION('',(-0.,-0.,-1.));
#1388 = DIRECTION('',(1.,0.,-0.));
#1389 = ADVANCED_FACE('',(#1390),#1402,.F.);
#1390 = FACE_BOUND('',#1391,.F.);
#1391 = EDGE_LOOP('',(#1392,#1400,#1401));
#1392 = ORIENTED_EDGE('',*,*,#1393,.F.);
#1393 = EDGE_CURVE('',#1215,#1394,#1396,.T.);
#1394 = VERTEX_POINT('',#1395);
#1395 = CARTESIAN_POINT('',(45.,67.748924226216,35.));
#1396 = LINE('',#1397,#1398);
#1397 = CARTESIAN_POINT('',(45.,68.5,33.75));
#1398 = VECTOR('',#1399,1.);
#1399 = DIRECTION('',(2.099454382277E-16,-0.51503807491,0.857167300702)
  );
#1400 = ORIENTED_EDGE('',*,*,#1222,.T.);
#1401 = ORIENTED_EDGE('',*,*,#1393,.T.);
#1402 = CONICAL_SURFACE('',#1403,1.25,1.029744258677);
#1403 = AXIS2_PLACEMENT_3D('',#1404,#1405,#1406);
#1404 = CARTESIAN_POINT('',(45.,68.5,35.));
#1405 = DIRECTION('',(-0.,1.,-0.));
#1406 = DIRECTION('',(0.,-0.,-1.));
#1407 = ADVANCED_FACE('',(#1408),#1420,.F.);
#1408 = FACE_BOUND('',#1409,.F.);
#1409 = EDGE_LOOP('',(#1410,#1418,#1419));
#1410 = ORIENTED_EDGE('',*,*,#1411,.F.);
#1411 = EDGE_CURVE('',#1265,#1412,#1414,.T.);
#1412 = VERTEX_POINT('',#1413);
#1413 = CARTESIAN_POINT('',(-45.,67.748924226216,35.));
#1414 = LINE('',#1415,#1416);
#1415 = CARTESIAN_POINT('',(-45.,68.5,33.75));
#1416 = VECTOR('',#1417,1.);
#1417 = DIRECTION('',(2.099454382277E-16,-0.51503807491,0.857167300702)
  );
#1418 = ORIENTED_EDGE('',*,*,#1272,.T.);
#1419 = ORIENTED_EDGE('',*,*,#1411,.T.);
#1420 = CONICAL_SURFACE('',#1421,1.25,1.029744258677);
#1421 = AXIS2_PLACEMENT_3D('',#1422,#1423,#1424);
#1422 = CARTESIAN_POINT('',(-45.,68.5,35.));
#1423 = DIRECTION('',(-0.,1.,-0.));
#1424 = DIRECTION('',(0.,-0.,-1.));
#1425 = ADVANCED_FACE('',(#1426,#1448,#1451,#1521,#1591,#1634,#1668,
    #1671,#1674,#1677,#1680,#1683,#1686,#1689),#1692,.T.);
#1426 = FACE_BOUND('',#1427,.T.);
#1427 = EDGE_LOOP('',(#1428,#1429,#1430,#1431,#1432,#1433,#1434,#1435,
    #1436,#1437,#1438,#1439,#1440,#1441,#1442,#1443,#1444,#1445,#1446,
    #1447));
#1428 = ORIENTED_EDGE('',*,*,#560,.F.);
#1429 = ORIENTED_EDGE('',*,*,#253,.T.);
#1430 = ORIENTED_EDGE('',*,*,#343,.T.);
#1431 = ORIENTED_EDGE('',*,*,#664,.T.);
#1432 = ORIENTED_EDGE('',*,*,#734,.T.);
#1433 = ORIENTED_EDGE('',*,*,#850,.F.);
#1434 = ORIENTED_EDGE('',*,*,#311,.T.);
#1435 = ORIENTED_EDGE('',*,*,#889,.T.);
#1436 = ORIENTED_EDGE('',*,*,#948,.T.);
#1437 = ORIENTED_EDGE('',*,*,#962,.T.);
#1438 = ORIENTED_EDGE('',*,*,#633,.F.);
#1439 = ORIENTED_EDGE('',*,*,#987,.F.);
#1440 = ORIENTED_EDGE('',*,*,#765,.F.);
#1441 = ORIENTED_EDGE('',*,*,#914,.T.);
#1442 = ORIENTED_EDGE('',*,*,#797,.F.);
#1443 = ORIENTED_EDGE('',*,*,#865,.T.);
#1444 = ORIENTED_EDGE('',*,*,#829,.F.);
#1445 = ORIENTED_EDGE('',*,*,#702,.T.);
#1446 = ORIENTED_EDGE('',*,*,#601,.F.);
#1447 = ORIENTED_EDGE('',*,*,#574,.T.);
#1448 = FACE_BOUND('',#1449,.T.);
#1449 = EDGE_LOOP('',(#1450));
#1450 = ORIENTED_EDGE('',*,*,#1036,.T.);
#1451 = FACE_BOUND('',#1452,.T.);
#1452 = EDGE_LOOP('',(#1453,#1464,#1472,#1481,#1489,#1498,#1506,#1515));
#1453 = ORIENTED_EDGE('',*,*,#1454,.F.);
#1454 = EDGE_CURVE('',#1455,#1457,#1459,.T.);
#1455 = VERTEX_POINT('',#1456);
#1456 = CARTESIAN_POINT('',(-78.,72.,-31.));
#1457 = VERTEX_POINT('',#1458);
#1458 = CARTESIAN_POINT('',(-75.,72.,-34.));
#1459 = CIRCLE('',#1460,3.);
#1460 = AXIS2_PLACEMENT_3D('',#1461,#1462,#1463);
#1461 = CARTESIAN_POINT('',(-75.,72.,-31.));
#1462 = DIRECTION('',(0.,-1.,1.110223024625E-16));
#1463 = DIRECTION('',(1.,0.,0.));
#1464 = ORIENTED_EDGE('',*,*,#1465,.T.);
#1465 = EDGE_CURVE('',#1455,#1466,#1468,.T.);
#1466 = VERTEX_POINT('',#1467);
#1467 = CARTESIAN_POINT('',(-78.,72.,12.));
#1468 = LINE('',#1469,#1470);
#1469 = CARTESIAN_POINT('',(-78.,72.,-15.5));
#1470 = VECTOR('',#1471,1.);
#1471 = DIRECTION('',(-0.,1.110223024625E-16,1.));
#1472 = ORIENTED_EDGE('',*,*,#1473,.F.);
#1473 = EDGE_CURVE('',#1474,#1466,#1476,.T.);
#1474 = VERTEX_POINT('',#1475);
#1475 = CARTESIAN_POINT('',(-75.,72.,15.));
#1476 = CIRCLE('',#1477,3.);
#1477 = AXIS2_PLACEMENT_3D('',#1478,#1479,#1480);
#1478 = CARTESIAN_POINT('',(-75.,72.,12.));
#1479 = DIRECTION('',(0.,-1.,1.110223024625E-16));
#1480 = DIRECTION('',(1.,0.,0.));
#1481 = ORIENTED_EDGE('',*,*,#1482,.F.);
#1482 = EDGE_CURVE('',#1483,#1474,#1485,.T.);
#1483 = VERTEX_POINT('',#1484);
#1484 = CARTESIAN_POINT('',(-42.,72.,15.));
#1485 = LINE('',#1486,#1487);
#1486 = CARTESIAN_POINT('',(-37.5,72.,15.));
#1487 = VECTOR('',#1488,1.);
#1488 = DIRECTION('',(-1.,0.,0.));
#1489 = ORIENTED_EDGE('',*,*,#1490,.F.);
#1490 = EDGE_CURVE('',#1491,#1483,#1493,.T.);
#1491 = VERTEX_POINT('',#1492);
#1492 = CARTESIAN_POINT('',(-39.,72.,12.));
#1493 = CIRCLE('',#1494,3.);
#1494 = AXIS2_PLACEMENT_3D('',#1495,#1496,#1497);
#1495 = CARTESIAN_POINT('',(-42.,72.,12.));
#1496 = DIRECTION('',(0.,-1.,1.110223024625E-16));
#1497 = DIRECTION('',(1.,0.,0.));
#1498 = ORIENTED_EDGE('',*,*,#1499,.F.);
#1499 = EDGE_CURVE('',#1500,#1491,#1502,.T.);
#1500 = VERTEX_POINT('',#1501);
#1501 = CARTESIAN_POINT('',(-39.,72.,-31.));
#1502 = LINE('',#1503,#1504);
#1503 = CARTESIAN_POINT('',(-39.,72.,-15.5));
#1504 = VECTOR('',#1505,1.);
#1505 = DIRECTION('',(-0.,1.110223024625E-16,1.));
#1506 = ORIENTED_EDGE('',*,*,#1507,.F.);
#1507 = EDGE_CURVE('',#1508,#1500,#1510,.T.);
#1508 = VERTEX_POINT('',#1509);
#1509 = CARTESIAN_POINT('',(-42.,72.,-34.));
#1510 = CIRCLE('',#1511,3.);
#1511 = AXIS2_PLACEMENT_3D('',#1512,#1513,#1514);
#1512 = CARTESIAN_POINT('',(-42.,72.,-31.));
#1513 = DIRECTION('',(0.,-1.,1.110223024625E-16));
#1514 = DIRECTION('',(1.,0.,0.));
#1515 = ORIENTED_EDGE('',*,*,#1516,.T.);
#1516 = EDGE_CURVE('',#1508,#1457,#1517,.T.);
#1517 = LINE('',#1518,#1519);
#1518 = CARTESIAN_POINT('',(-37.5,72.,-34.));
#1519 = VECTOR('',#1520,1.);
#1520 = DIRECTION('',(-1.,0.,0.));
#1521 = FACE_BOUND('',#1522,.T.);
#1522 = EDGE_LOOP('',(#1523,#1534,#1542,#1551,#1559,#1568,#1576,#1585));
#1523 = ORIENTED_EDGE('',*,*,#1524,.F.);
#1524 = EDGE_CURVE('',#1525,#1527,#1529,.T.);
#1525 = VERTEX_POINT('',#1526);
#1526 = CARTESIAN_POINT('',(39.,72.,-31.));
#1527 = VERTEX_POINT('',#1528);
#1528 = CARTESIAN_POINT('',(42.,72.,-34.));
#1529 = CIRCLE('',#1530,3.);
#1530 = AXIS2_PLACEMENT_3D('',#1531,#1532,#1533);
#1531 = CARTESIAN_POINT('',(42.,72.,-31.));
#1532 = DIRECTION('',(0.,-1.,1.110223024625E-16));
#1533 = DIRECTION('',(1.,0.,0.));
#1534 = ORIENTED_EDGE('',*,*,#1535,.T.);
#1535 = EDGE_CURVE('',#1525,#1536,#1538,.T.);
#1536 = VERTEX_POINT('',#1537);
#1537 = CARTESIAN_POINT('',(39.,72.,12.));
#1538 = LINE('',#1539,#1540);
#1539 = CARTESIAN_POINT('',(39.,72.,-15.5));
#1540 = VECTOR('',#1541,1.);
#1541 = DIRECTION('',(-0.,1.110223024625E-16,1.));
#1542 = ORIENTED_EDGE('',*,*,#1543,.F.);
#1543 = EDGE_CURVE('',#1544,#1536,#1546,.T.);
#1544 = VERTEX_POINT('',#1545);
#1545 = CARTESIAN_POINT('',(42.,72.,15.));
#1546 = CIRCLE('',#1547,3.);
#1547 = AXIS2_PLACEMENT_3D('',#1548,#1549,#1550);
#1548 = CARTESIAN_POINT('',(42.,72.,12.));
#1549 = DIRECTION('',(0.,-1.,1.110223024625E-16));
#1550 = DIRECTION('',(1.,0.,0.));
#1551 = ORIENTED_EDGE('',*,*,#1552,.F.);
#1552 = EDGE_CURVE('',#1553,#1544,#1555,.T.);
#1553 = VERTEX_POINT('',#1554);
#1554 = CARTESIAN_POINT('',(75.,72.,15.));
#1555 = LINE('',#1556,#1557);
#1556 = CARTESIAN_POINT('',(21.,72.,15.));
#1557 = VECTOR('',#1558,1.);
#1558 = DIRECTION('',(-1.,0.,0.));
#1559 = ORIENTED_EDGE('',*,*,#1560,.F.);
#1560 = EDGE_CURVE('',#1561,#1553,#1563,.T.);
#1561 = VERTEX_POINT('',#1562);
#1562 = CARTESIAN_POINT('',(78.,72.,12.));
#1563 = CIRCLE('',#1564,3.);
#1564 = AXIS2_PLACEMENT_3D('',#1565,#1566,#1567);
#1565 = CARTESIAN_POINT('',(75.,72.,12.));
#1566 = DIRECTION('',(0.,-1.,1.110223024625E-16));
#1567 = DIRECTION('',(1.,0.,0.));
#1568 = ORIENTED_EDGE('',*,*,#1569,.F.);
#1569 = EDGE_CURVE('',#1570,#1561,#1572,.T.);
#1570 = VERTEX_POINT('',#1571);
#1571 = CARTESIAN_POINT('',(78.,72.,-31.));
#1572 = LINE('',#1573,#1574);
#1573 = CARTESIAN_POINT('',(78.,72.,-15.5));
#1574 = VECTOR('',#1575,1.);
#1575 = DIRECTION('',(-0.,1.110223024625E-16,1.));
#1576 = ORIENTED_EDGE('',*,*,#1577,.F.);
#1577 = EDGE_CURVE('',#1578,#1570,#1580,.T.);
#1578 = VERTEX_POINT('',#1579);
#1579 = CARTESIAN_POINT('',(75.,72.,-34.));
#1580 = CIRCLE('',#1581,3.);
#1581 = AXIS2_PLACEMENT_3D('',#1582,#1583,#1584);
#1582 = CARTESIAN_POINT('',(75.,72.,-31.));
#1583 = DIRECTION('',(0.,-1.,1.110223024625E-16));
#1584 = DIRECTION('',(1.,0.,0.));
#1585 = ORIENTED_EDGE('',*,*,#1586,.T.);
#1586 = EDGE_CURVE('',#1578,#1527,#1587,.T.);
#1587 = LINE('',#1588,#1589);
#1588 = CARTESIAN_POINT('',(21.,72.,-34.));
#1589 = VECTOR('',#1590,1.);
#1590 = DIRECTION('',(-1.,0.,0.));
#1591 = FACE_BOUND('',#1592,.T.);
#1592 = EDGE_LOOP('',(#1593,#1603,#1611,#1620,#1628));
#1593 = ORIENTED_EDGE('',*,*,#1594,.F.);
#1594 = EDGE_CURVE('',#1595,#1597,#1599,.T.);
#1595 = VERTEX_POINT('',#1596);
#1596 = CARTESIAN_POINT('',(32.5,72.,22.));
#1597 = VERTEX_POINT('',#1598);
#1598 = CARTESIAN_POINT('',(43.5,72.,22.));
#1599 = LINE('',#1600,#1601);
#1600 = CARTESIAN_POINT('',(32.5,72.,22.));
#1601 = VECTOR('',#1602,1.);
#1602 = DIRECTION('',(1.,0.,-0.));
#1603 = ORIENTED_EDGE('',*,*,#1604,.T.);
#1604 = EDGE_CURVE('',#1595,#1605,#1607,.T.);
#1605 = VERTEX_POINT('',#1606);
#1606 = CARTESIAN_POINT('',(32.5,72.,25.101020514434));
#1607 = LINE('',#1608,#1609);
#1608 = CARTESIAN_POINT('',(32.5,72.,22.));
#1609 = VECTOR('',#1610,1.);
#1610 = DIRECTION('',(0.,0.,1.));
#1611 = ORIENTED_EDGE('',*,*,#1612,.F.);
#1612 = EDGE_CURVE('',#1613,#1605,#1615,.T.);
#1613 = VERTEX_POINT('',#1614);
#1614 = CARTESIAN_POINT('',(35.5,72.,30.));
#1615 = CIRCLE('',#1616,5.5);
#1616 = AXIS2_PLACEMENT_3D('',#1617,#1618,#1619);
#1617 = CARTESIAN_POINT('',(30.,72.,30.));
#1618 = DIRECTION('',(0.,1.,0.));
#1619 = DIRECTION('',(0.,-0.,1.));
#1620 = ORIENTED_EDGE('',*,*,#1621,.T.);
#1621 = EDGE_CURVE('',#1613,#1622,#1624,.T.);
#1622 = VERTEX_POINT('',#1623);
#1623 = CARTESIAN_POINT('',(43.5,72.,30.));
#1624 = LINE('',#1625,#1626);
#1625 = CARTESIAN_POINT('',(32.5,72.,30.));
#1626 = VECTOR('',#1627,1.);
#1627 = DIRECTION('',(1.,0.,-0.));
#1628 = ORIENTED_EDGE('',*,*,#1629,.F.);
#1629 = EDGE_CURVE('',#1597,#1622,#1630,.T.);
#1630 = LINE('',#1631,#1632);
#1631 = CARTESIAN_POINT('',(43.5,72.,22.));
#1632 = VECTOR('',#1633,1.);
#1633 = DIRECTION('',(0.,0.,1.));
#1634 = FACE_BOUND('',#1635,.T.);
#1635 = EDGE_LOOP('',(#1636,#1646,#1654,#1662));
#1636 = ORIENTED_EDGE('',*,*,#1637,.F.);
#1637 = EDGE_CURVE('',#1638,#1640,#1642,.T.);
#1638 = VERTEX_POINT('',#1639);
#1639 = CARTESIAN_POINT('',(-77.5,72.,22.));
#1640 = VERTEX_POINT('',#1641);
#1641 = CARTESIAN_POINT('',(-68.5,72.,22.));
#1642 = LINE('',#1643,#1644);
#1643 = CARTESIAN_POINT('',(-77.5,72.,22.));
#1644 = VECTOR('',#1645,1.);
#1645 = DIRECTION('',(1.,0.,-0.));
#1646 = ORIENTED_EDGE('',*,*,#1647,.T.);
#1647 = EDGE_CURVE('',#1638,#1648,#1650,.T.);
#1648 = VERTEX_POINT('',#1649);
#1649 = CARTESIAN_POINT('',(-77.5,72.,30.));
#1650 = LINE('',#1651,#1652);
#1651 = CARTESIAN_POINT('',(-77.5,72.,22.));
#1652 = VECTOR('',#1653,1.);
#1653 = DIRECTION('',(0.,0.,1.));
#1654 = ORIENTED_EDGE('',*,*,#1655,.T.);
#1655 = EDGE_CURVE('',#1648,#1656,#1658,.T.);
#1656 = VERTEX_POINT('',#1657);
#1657 = CARTESIAN_POINT('',(-68.5,72.,30.));
#1658 = LINE('',#1659,#1660);
#1659 = CARTESIAN_POINT('',(-77.5,72.,30.));
#1660 = VECTOR('',#1661,1.);
#1661 = DIRECTION('',(1.,0.,-0.));
#1662 = ORIENTED_EDGE('',*,*,#1663,.F.);
#1663 = EDGE_CURVE('',#1640,#1656,#1664,.T.);
#1664 = LINE('',#1665,#1666);
#1665 = CARTESIAN_POINT('',(-68.5,72.,22.));
#1666 = VECTOR('',#1667,1.);
#1667 = DIRECTION('',(0.,0.,1.));
#1668 = FACE_BOUND('',#1669,.T.);
#1669 = EDGE_LOOP('',(#1670));
#1670 = ORIENTED_EDGE('',*,*,#1248,.T.);
#1671 = FACE_BOUND('',#1672,.T.);
#1672 = EDGE_LOOP('',(#1673));
#1673 = ORIENTED_EDGE('',*,*,#1011,.T.);
#1674 = FACE_BOUND('',#1675,.T.);
#1675 = EDGE_LOOP('',(#1676));
#1676 = ORIENTED_EDGE('',*,*,#1061,.T.);
#1677 = FACE_BOUND('',#1678,.T.);
#1678 = EDGE_LOOP('',(#1679));
#1679 = ORIENTED_EDGE('',*,*,#1086,.T.);
#1680 = FACE_BOUND('',#1681,.T.);
#1681 = EDGE_LOOP('',(#1682));
#1682 = ORIENTED_EDGE('',*,*,#154,.F.);
#1683 = FACE_BOUND('',#1684,.T.);
#1684 = EDGE_LOOP('',(#1685));
#1685 = ORIENTED_EDGE('',*,*,#212,.F.);
#1686 = FACE_BOUND('',#1687,.T.);
#1687 = EDGE_LOOP('',(#1688));
#1688 = ORIENTED_EDGE('',*,*,#38,.F.);
#1689 = FACE_BOUND('',#1690,.T.);
#1690 = EDGE_LOOP('',(#1691));
#1691 = ORIENTED_EDGE('',*,*,#96,.F.);
#1692 = PLANE('',#1693);
#1693 = AXIS2_PLACEMENT_3D('',#1694,#1695,#1696);
#1694 = CARTESIAN_POINT('',(-2.104619328987E-15,72.,1.779065229211));
#1695 = DIRECTION('',(-0.,-1.,-0.));
#1696 = DIRECTION('',(0.,0.,-1.));
#1697 = ADVANCED_FACE('',(#1698),#1724,.F.);
#1698 = FACE_BOUND('',#1699,.F.);
#1699 = EDGE_LOOP('',(#1700,#1701,#1709,#1718));
#1700 = ORIENTED_EDGE('',*,*,#1454,.F.);
#1701 = ORIENTED_EDGE('',*,*,#1702,.F.);
#1702 = EDGE_CURVE('',#1703,#1455,#1705,.T.);
#1703 = VERTEX_POINT('',#1704);
#1704 = CARTESIAN_POINT('',(-78.,73.5,-31.));
#1705 = LINE('',#1706,#1707);
#1706 = CARTESIAN_POINT('',(-78.,73.5,-31.));
#1707 = VECTOR('',#1708,1.);
#1708 = DIRECTION('',(0.,-1.,1.110223024625E-16));
#1709 = ORIENTED_EDGE('',*,*,#1710,.T.);
#1710 = EDGE_CURVE('',#1703,#1711,#1713,.T.);
#1711 = VERTEX_POINT('',#1712);
#1712 = CARTESIAN_POINT('',(-75.,73.5,-34.));
#1713 = CIRCLE('',#1714,3.);
#1714 = AXIS2_PLACEMENT_3D('',#1715,#1716,#1717);
#1715 = CARTESIAN_POINT('',(-75.,73.5,-31.));
#1716 = DIRECTION('',(0.,-1.,1.110223024625E-16));
#1717 = DIRECTION('',(1.,0.,0.));
#1718 = ORIENTED_EDGE('',*,*,#1719,.T.);
#1719 = EDGE_CURVE('',#1711,#1457,#1720,.T.);
#1720 = LINE('',#1721,#1722);
#1721 = CARTESIAN_POINT('',(-75.,73.5,-34.));
#1722 = VECTOR('',#1723,1.);
#1723 = DIRECTION('',(0.,-1.,1.110223024625E-16));
#1724 = CYLINDRICAL_SURFACE('',#1725,3.);
#1725 = AXIS2_PLACEMENT_3D('',#1726,#1727,#1728);
#1726 = CARTESIAN_POINT('',(-75.,73.5,-31.));
#1727 = DIRECTION('',(0.,-1.,1.110223024625E-16));
#1728 = DIRECTION('',(1.,0.,0.));
#1729 = ADVANCED_FACE('',(#1730),#1748,.T.);
#1730 = FACE_BOUND('',#1731,.T.);
#1731 = EDGE_LOOP('',(#1732,#1740,#1741,#1742));
#1732 = ORIENTED_EDGE('',*,*,#1733,.F.);
#1733 = EDGE_CURVE('',#1711,#1734,#1736,.T.);
#1734 = VERTEX_POINT('',#1735);
#1735 = CARTESIAN_POINT('',(-42.,73.5,-34.));
#1736 = LINE('',#1737,#1738);
#1737 = CARTESIAN_POINT('',(-75.,73.5,-34.));
#1738 = VECTOR('',#1739,1.);
#1739 = DIRECTION('',(1.,0.,0.));
#1740 = ORIENTED_EDGE('',*,*,#1719,.T.);
#1741 = ORIENTED_EDGE('',*,*,#1516,.F.);
#1742 = ORIENTED_EDGE('',*,*,#1743,.F.);
#1743 = EDGE_CURVE('',#1734,#1508,#1744,.T.);
#1744 = LINE('',#1745,#1746);
#1745 = CARTESIAN_POINT('',(-42.,73.5,-34.));
#1746 = VECTOR('',#1747,1.);
#1747 = DIRECTION('',(0.,-1.,1.110223024625E-16));
#1748 = PLANE('',#1749);
#1749 = AXIS2_PLACEMENT_3D('',#1750,#1751,#1752);
#1750 = CARTESIAN_POINT('',(-75.,73.5,-34.));
#1751 = DIRECTION('',(0.,1.110223024625E-16,1.));
#1752 = DIRECTION('',(0.,-1.,1.110223024625E-16));
#1753 = ADVANCED_FACE('',(#1754),#1773,.F.);
#1754 = FACE_BOUND('',#1755,.F.);
#1755 = EDGE_LOOP('',(#1756,#1765,#1771,#1772));
#1756 = ORIENTED_EDGE('',*,*,#1757,.T.);
#1757 = EDGE_CURVE('',#1734,#1758,#1760,.T.);
#1758 = VERTEX_POINT('',#1759);
#1759 = CARTESIAN_POINT('',(-39.,73.5,-31.));
#1760 = CIRCLE('',#1761,3.);
#1761 = AXIS2_PLACEMENT_3D('',#1762,#1763,#1764);
#1762 = CARTESIAN_POINT('',(-42.,73.5,-31.));
#1763 = DIRECTION('',(0.,-1.,1.110223024625E-16));
#1764 = DIRECTION('',(1.,0.,0.));
#1765 = ORIENTED_EDGE('',*,*,#1766,.T.);
#1766 = EDGE_CURVE('',#1758,#1500,#1767,.T.);
#1767 = LINE('',#1768,#1769);
#1768 = CARTESIAN_POINT('',(-39.,73.5,-31.));
#1769 = VECTOR('',#1770,1.);
#1770 = DIRECTION('',(0.,-1.,1.110223024625E-16));
#1771 = ORIENTED_EDGE('',*,*,#1507,.F.);
#1772 = ORIENTED_EDGE('',*,*,#1743,.F.);
#1773 = CYLINDRICAL_SURFACE('',#1774,3.);
#1774 = AXIS2_PLACEMENT_3D('',#1775,#1776,#1777);
#1775 = CARTESIAN_POINT('',(-42.,73.5,-31.));
#1776 = DIRECTION('',(0.,-1.,1.110223024625E-16));
#1777 = DIRECTION('',(1.,0.,0.));
#1778 = ADVANCED_FACE('',(#1779),#1797,.F.);
#1779 = FACE_BOUND('',#1780,.F.);
#1780 = EDGE_LOOP('',(#1781,#1782,#1790,#1796));
#1781 = ORIENTED_EDGE('',*,*,#1766,.F.);
#1782 = ORIENTED_EDGE('',*,*,#1783,.T.);
#1783 = EDGE_CURVE('',#1758,#1784,#1786,.T.);
#1784 = VERTEX_POINT('',#1785);
#1785 = CARTESIAN_POINT('',(-39.,73.5,12.));
#1786 = LINE('',#1787,#1788);
#1787 = CARTESIAN_POINT('',(-39.,73.5,-31.));
#1788 = VECTOR('',#1789,1.);
#1789 = DIRECTION('',(0.,1.110223024625E-16,1.));
#1790 = ORIENTED_EDGE('',*,*,#1791,.T.);
#1791 = EDGE_CURVE('',#1784,#1491,#1792,.T.);
#1792 = LINE('',#1793,#1794);
#1793 = CARTESIAN_POINT('',(-39.,73.5,12.));
#1794 = VECTOR('',#1795,1.);
#1795 = DIRECTION('',(0.,-1.,1.110223024625E-16));
#1796 = ORIENTED_EDGE('',*,*,#1499,.F.);
#1797 = PLANE('',#1798);
#1798 = AXIS2_PLACEMENT_3D('',#1799,#1800,#1801);
#1799 = CARTESIAN_POINT('',(-39.,73.5,-31.));
#1800 = DIRECTION('',(1.,0.,0.));
#1801 = DIRECTION('',(0.,-1.,1.110223024625E-16));
#1802 = ADVANCED_FACE('',(#1803),#1822,.F.);
#1803 = FACE_BOUND('',#1804,.F.);
#1804 = EDGE_LOOP('',(#1805,#1806,#1807,#1816));
#1805 = ORIENTED_EDGE('',*,*,#1490,.F.);
#1806 = ORIENTED_EDGE('',*,*,#1791,.F.);
#1807 = ORIENTED_EDGE('',*,*,#1808,.T.);
#1808 = EDGE_CURVE('',#1784,#1809,#1811,.T.);
#1809 = VERTEX_POINT('',#1810);
#1810 = CARTESIAN_POINT('',(-42.,73.5,15.));
#1811 = CIRCLE('',#1812,3.);
#1812 = AXIS2_PLACEMENT_3D('',#1813,#1814,#1815);
#1813 = CARTESIAN_POINT('',(-42.,73.5,12.));
#1814 = DIRECTION('',(0.,-1.,1.110223024625E-16));
#1815 = DIRECTION('',(1.,0.,0.));
#1816 = ORIENTED_EDGE('',*,*,#1817,.T.);
#1817 = EDGE_CURVE('',#1809,#1483,#1818,.T.);
#1818 = LINE('',#1819,#1820);
#1819 = CARTESIAN_POINT('',(-42.,73.5,15.));
#1820 = VECTOR('',#1821,1.);
#1821 = DIRECTION('',(0.,-1.,1.110223024625E-16));
#1822 = CYLINDRICAL_SURFACE('',#1823,3.);
#1823 = AXIS2_PLACEMENT_3D('',#1824,#1825,#1826);
#1824 = CARTESIAN_POINT('',(-42.,73.5,12.));
#1825 = DIRECTION('',(0.,-1.,1.110223024625E-16));
#1826 = DIRECTION('',(1.,0.,0.));
#1827 = ADVANCED_FACE('',(#1828),#1846,.F.);
#1828 = FACE_BOUND('',#1829,.F.);
#1829 = EDGE_LOOP('',(#1830,#1838,#1844,#1845));
#1830 = ORIENTED_EDGE('',*,*,#1831,.F.);
#1831 = EDGE_CURVE('',#1832,#1809,#1834,.T.);
#1832 = VERTEX_POINT('',#1833);
#1833 = CARTESIAN_POINT('',(-75.,73.5,15.));
#1834 = LINE('',#1835,#1836);
#1835 = CARTESIAN_POINT('',(-75.,73.5,15.));
#1836 = VECTOR('',#1837,1.);
#1837 = DIRECTION('',(1.,0.,0.));
#1838 = ORIENTED_EDGE('',*,*,#1839,.T.);
#1839 = EDGE_CURVE('',#1832,#1474,#1840,.T.);
#1840 = LINE('',#1841,#1842);
#1841 = CARTESIAN_POINT('',(-75.,73.5,15.));
#1842 = VECTOR('',#1843,1.);
#1843 = DIRECTION('',(0.,-1.,1.110223024625E-16));
#1844 = ORIENTED_EDGE('',*,*,#1482,.F.);
#1845 = ORIENTED_EDGE('',*,*,#1817,.F.);
#1846 = PLANE('',#1847);
#1847 = AXIS2_PLACEMENT_3D('',#1848,#1849,#1850);
#1848 = CARTESIAN_POINT('',(-75.,73.5,15.));
#1849 = DIRECTION('',(0.,1.110223024625E-16,1.));
#1850 = DIRECTION('',(0.,-1.,1.110223024625E-16));
#1851 = ADVANCED_FACE('',(#1852),#1871,.F.);
#1852 = FACE_BOUND('',#1853,.F.);
#1853 = EDGE_LOOP('',(#1854,#1855,#1856,#1865));
#1854 = ORIENTED_EDGE('',*,*,#1473,.F.);
#1855 = ORIENTED_EDGE('',*,*,#1839,.F.);
#1856 = ORIENTED_EDGE('',*,*,#1857,.T.);
#1857 = EDGE_CURVE('',#1832,#1858,#1860,.T.);
#1858 = VERTEX_POINT('',#1859);
#1859 = CARTESIAN_POINT('',(-78.,73.5,12.));
#1860 = CIRCLE('',#1861,3.);
#1861 = AXIS2_PLACEMENT_3D('',#1862,#1863,#1864);
#1862 = CARTESIAN_POINT('',(-75.,73.5,12.));
#1863 = DIRECTION('',(0.,-1.,1.110223024625E-16));
#1864 = DIRECTION('',(1.,0.,0.));
#1865 = ORIENTED_EDGE('',*,*,#1866,.T.);
#1866 = EDGE_CURVE('',#1858,#1466,#1867,.T.);
#1867 = LINE('',#1868,#1869);
#1868 = CARTESIAN_POINT('',(-78.,73.5,12.));
#1869 = VECTOR('',#1870,1.);
#1870 = DIRECTION('',(0.,-1.,1.110223024625E-16));
#1871 = CYLINDRICAL_SURFACE('',#1872,3.);
#1872 = AXIS2_PLACEMENT_3D('',#1873,#1874,#1875);
#1873 = CARTESIAN_POINT('',(-75.,73.5,12.));
#1874 = DIRECTION('',(0.,-1.,1.110223024625E-16));
#1875 = DIRECTION('',(1.,0.,0.));
#1876 = ADVANCED_FACE('',(#1877),#1888,.T.);
#1877 = FACE_BOUND('',#1878,.T.);
#1878 = EDGE_LOOP('',(#1879,#1880,#1886,#1887));
#1879 = ORIENTED_EDGE('',*,*,#1702,.F.);
#1880 = ORIENTED_EDGE('',*,*,#1881,.T.);
#1881 = EDGE_CURVE('',#1703,#1858,#1882,.T.);
#1882 = LINE('',#1883,#1884);
#1883 = CARTESIAN_POINT('',(-78.,73.5,-31.));
#1884 = VECTOR('',#1885,1.);
#1885 = DIRECTION('',(0.,1.110223024625E-16,1.));
#1886 = ORIENTED_EDGE('',*,*,#1866,.T.);
#1887 = ORIENTED_EDGE('',*,*,#1465,.F.);
#1888 = PLANE('',#1889);
#1889 = AXIS2_PLACEMENT_3D('',#1890,#1891,#1892);
#1890 = CARTESIAN_POINT('',(-78.,73.5,-31.));
#1891 = DIRECTION('',(1.,0.,0.));
#1892 = DIRECTION('',(0.,-1.,1.110223024625E-16));
#1893 = ADVANCED_FACE('',(#1894),#1904,.F.);
#1894 = FACE_BOUND('',#1895,.F.);
#1895 = EDGE_LOOP('',(#1896,#1897,#1898,#1899,#1900,#1901,#1902,#1903));
#1896 = ORIENTED_EDGE('',*,*,#1710,.F.);
#1897 = ORIENTED_EDGE('',*,*,#1881,.T.);
#1898 = ORIENTED_EDGE('',*,*,#1857,.F.);
#1899 = ORIENTED_EDGE('',*,*,#1831,.T.);
#1900 = ORIENTED_EDGE('',*,*,#1808,.F.);
#1901 = ORIENTED_EDGE('',*,*,#1783,.F.);
#1902 = ORIENTED_EDGE('',*,*,#1757,.F.);
#1903 = ORIENTED_EDGE('',*,*,#1733,.F.);
#1904 = PLANE('',#1905);
#1905 = AXIS2_PLACEMENT_3D('',#1906,#1907,#1908);
#1906 = CARTESIAN_POINT('',(-58.5,73.5,-9.5));
#1907 = DIRECTION('',(-0.,1.,-1.110223024625E-16));
#1908 = DIRECTION('',(-1.,0.,0.));
#1909 = ADVANCED_FACE('',(#1910),#1936,.F.);
#1910 = FACE_BOUND('',#1911,.F.);
#1911 = EDGE_LOOP('',(#1912,#1913,#1921,#1930));
#1912 = ORIENTED_EDGE('',*,*,#1524,.F.);
#1913 = ORIENTED_EDGE('',*,*,#1914,.F.);
#1914 = EDGE_CURVE('',#1915,#1525,#1917,.T.);
#1915 = VERTEX_POINT('',#1916);
#1916 = CARTESIAN_POINT('',(39.,73.5,-31.));
#1917 = LINE('',#1918,#1919);
#1918 = CARTESIAN_POINT('',(39.,73.5,-31.));
#1919 = VECTOR('',#1920,1.);
#1920 = DIRECTION('',(0.,-1.,1.110223024625E-16));
#1921 = ORIENTED_EDGE('',*,*,#1922,.T.);
#1922 = EDGE_CURVE('',#1915,#1923,#1925,.T.);
#1923 = VERTEX_POINT('',#1924);
#1924 = CARTESIAN_POINT('',(42.,73.5,-34.));
#1925 = CIRCLE('',#1926,3.);
#1926 = AXIS2_PLACEMENT_3D('',#1927,#1928,#1929);
#1927 = CARTESIAN_POINT('',(42.,73.5,-31.));
#1928 = DIRECTION('',(0.,-1.,1.110223024625E-16));
#1929 = DIRECTION('',(1.,0.,0.));
#1930 = ORIENTED_EDGE('',*,*,#1931,.T.);
#1931 = EDGE_CURVE('',#1923,#1527,#1932,.T.);
#1932 = LINE('',#1933,#1934);
#1933 = CARTESIAN_POINT('',(42.,73.5,-34.));
#1934 = VECTOR('',#1935,1.);
#1935 = DIRECTION('',(0.,-1.,1.110223024625E-16));
#1936 = CYLINDRICAL_SURFACE('',#1937,3.);
#1937 = AXIS2_PLACEMENT_3D('',#1938,#1939,#1940);
#1938 = CARTESIAN_POINT('',(42.,73.5,-31.));
#1939 = DIRECTION('',(0.,-1.,1.110223024625E-16));
#1940 = DIRECTION('',(1.,0.,0.));
#1941 = ADVANCED_FACE('',(#1942),#1960,.T.);
#1942 = FACE_BOUND('',#1943,.T.);
#1943 = EDGE_LOOP('',(#1944,#1952,#1953,#1954));
#1944 = ORIENTED_EDGE('',*,*,#1945,.F.);
#1945 = EDGE_CURVE('',#1923,#1946,#1948,.T.);
#1946 = VERTEX_POINT('',#1947);
#1947 = CARTESIAN_POINT('',(75.,73.5,-34.));
#1948 = LINE('',#1949,#1950);
#1949 = CARTESIAN_POINT('',(42.,73.5,-34.));
#1950 = VECTOR('',#1951,1.);
#1951 = DIRECTION('',(1.,0.,0.));
#1952 = ORIENTED_EDGE('',*,*,#1931,.T.);
#1953 = ORIENTED_EDGE('',*,*,#1586,.F.);
#1954 = ORIENTED_EDGE('',*,*,#1955,.F.);
#1955 = EDGE_CURVE('',#1946,#1578,#1956,.T.);
#1956 = LINE('',#1957,#1958);
#1957 = CARTESIAN_POINT('',(75.,73.5,-34.));
#1958 = VECTOR('',#1959,1.);
#1959 = DIRECTION('',(0.,-1.,1.110223024625E-16));
#1960 = PLANE('',#1961);
#1961 = AXIS2_PLACEMENT_3D('',#1962,#1963,#1964);
#1962 = CARTESIAN_POINT('',(42.,73.5,-34.));
#1963 = DIRECTION('',(0.,1.110223024625E-16,1.));
#1964 = DIRECTION('',(0.,-1.,1.110223024625E-16));
#1965 = ADVANCED_FACE('',(#1966),#1985,.F.);
#1966 = FACE_BOUND('',#1967,.F.);
#1967 = EDGE_LOOP('',(#1968,#1977,#1983,#1984));
#1968 = ORIENTED_EDGE('',*,*,#1969,.T.);
#1969 = EDGE_CURVE('',#1946,#1970,#1972,.T.);
#1970 = VERTEX_POINT('',#1971);
#1971 = CARTESIAN_POINT('',(78.,73.5,-31.));
#1972 = CIRCLE('',#1973,3.);
#1973 = AXIS2_PLACEMENT_3D('',#1974,#1975,#1976);
#1974 = CARTESIAN_POINT('',(75.,73.5,-31.));
#1975 = DIRECTION('',(0.,-1.,1.110223024625E-16));
#1976 = DIRECTION('',(1.,0.,0.));
#1977 = ORIENTED_EDGE('',*,*,#1978,.T.);
#1978 = EDGE_CURVE('',#1970,#1570,#1979,.T.);
#1979 = LINE('',#1980,#1981);
#1980 = CARTESIAN_POINT('',(78.,73.5,-31.));
#1981 = VECTOR('',#1982,1.);
#1982 = DIRECTION('',(0.,-1.,1.110223024625E-16));
#1983 = ORIENTED_EDGE('',*,*,#1577,.F.);
#1984 = ORIENTED_EDGE('',*,*,#1955,.F.);
#1985 = CYLINDRICAL_SURFACE('',#1986,3.);
#1986 = AXIS2_PLACEMENT_3D('',#1987,#1988,#1989);
#1987 = CARTESIAN_POINT('',(75.,73.5,-31.));
#1988 = DIRECTION('',(0.,-1.,1.110223024625E-16));
#1989 = DIRECTION('',(1.,0.,0.));
#1990 = ADVANCED_FACE('',(#1991),#2009,.F.);
#1991 = FACE_BOUND('',#1992,.F.);
#1992 = EDGE_LOOP('',(#1993,#1994,#2002,#2008));
#1993 = ORIENTED_EDGE('',*,*,#1978,.F.);
#1994 = ORIENTED_EDGE('',*,*,#1995,.T.);
#1995 = EDGE_CURVE('',#1970,#1996,#1998,.T.);
#1996 = VERTEX_POINT('',#1997);
#1997 = CARTESIAN_POINT('',(78.,73.5,12.));
#1998 = LINE('',#1999,#2000);
#1999 = CARTESIAN_POINT('',(78.,73.5,-31.));
#2000 = VECTOR('',#2001,1.);
#2001 = DIRECTION('',(0.,1.110223024625E-16,1.));
#2002 = ORIENTED_EDGE('',*,*,#2003,.T.);
#2003 = EDGE_CURVE('',#1996,#1561,#2004,.T.);
#2004 = LINE('',#2005,#2006);
#2005 = CARTESIAN_POINT('',(78.,73.5,12.));
#2006 = VECTOR('',#2007,1.);
#2007 = DIRECTION('',(0.,-1.,1.110223024625E-16));
#2008 = ORIENTED_EDGE('',*,*,#1569,.F.);
#2009 = PLANE('',#2010);
#2010 = AXIS2_PLACEMENT_3D('',#2011,#2012,#2013);
#2011 = CARTESIAN_POINT('',(78.,73.5,-31.));
#2012 = DIRECTION('',(1.,0.,0.));
#2013 = DIRECTION('',(0.,-1.,1.110223024625E-16));
#2014 = ADVANCED_FACE('',(#2015),#2034,.F.);
#2015 = FACE_BOUND('',#2016,.F.);
#2016 = EDGE_LOOP('',(#2017,#2018,#2019,#2028));
#2017 = ORIENTED_EDGE('',*,*,#1560,.F.);
#2018 = ORIENTED_EDGE('',*,*,#2003,.F.);
#2019 = ORIENTED_EDGE('',*,*,#2020,.T.);
#2020 = EDGE_CURVE('',#1996,#2021,#2023,.T.);
#2021 = VERTEX_POINT('',#2022);
#2022 = CARTESIAN_POINT('',(75.,73.5,15.));
#2023 = CIRCLE('',#2024,3.);
#2024 = AXIS2_PLACEMENT_3D('',#2025,#2026,#2027);
#2025 = CARTESIAN_POINT('',(75.,73.5,12.));
#2026 = DIRECTION('',(0.,-1.,1.110223024625E-16));
#2027 = DIRECTION('',(1.,0.,0.));
#2028 = ORIENTED_EDGE('',*,*,#2029,.T.);
#2029 = EDGE_CURVE('',#2021,#1553,#2030,.T.);
#2030 = LINE('',#2031,#2032);
#2031 = CARTESIAN_POINT('',(75.,73.5,15.));
#2032 = VECTOR('',#2033,1.);
#2033 = DIRECTION('',(0.,-1.,1.110223024625E-16));
#2034 = CYLINDRICAL_SURFACE('',#2035,3.);
#2035 = AXIS2_PLACEMENT_3D('',#2036,#2037,#2038);
#2036 = CARTESIAN_POINT('',(75.,73.5,12.));
#2037 = DIRECTION('',(0.,-1.,1.110223024625E-16));
#2038 = DIRECTION('',(1.,0.,0.));
#2039 = ADVANCED_FACE('',(#2040),#2058,.F.);
#2040 = FACE_BOUND('',#2041,.F.);
#2041 = EDGE_LOOP('',(#2042,#2050,#2056,#2057));
#2042 = ORIENTED_EDGE('',*,*,#2043,.F.);
#2043 = EDGE_CURVE('',#2044,#2021,#2046,.T.);
#2044 = VERTEX_POINT('',#2045);
#2045 = CARTESIAN_POINT('',(42.,73.5,15.));
#2046 = LINE('',#2047,#2048);
#2047 = CARTESIAN_POINT('',(42.,73.5,15.));
#2048 = VECTOR('',#2049,1.);
#2049 = DIRECTION('',(1.,0.,0.));
#2050 = ORIENTED_EDGE('',*,*,#2051,.T.);
#2051 = EDGE_CURVE('',#2044,#1544,#2052,.T.);
#2052 = LINE('',#2053,#2054);
#2053 = CARTESIAN_POINT('',(42.,73.5,15.));
#2054 = VECTOR('',#2055,1.);
#2055 = DIRECTION('',(0.,-1.,1.110223024625E-16));
#2056 = ORIENTED_EDGE('',*,*,#1552,.F.);
#2057 = ORIENTED_EDGE('',*,*,#2029,.F.);
#2058 = PLANE('',#2059);
#2059 = AXIS2_PLACEMENT_3D('',#2060,#2061,#2062);
#2060 = CARTESIAN_POINT('',(42.,73.5,15.));
#2061 = DIRECTION('',(0.,1.110223024625E-16,1.));
#2062 = DIRECTION('',(0.,-1.,1.110223024625E-16));
#2063 = ADVANCED_FACE('',(#2064),#2083,.F.);
#2064 = FACE_BOUND('',#2065,.F.);
#2065 = EDGE_LOOP('',(#2066,#2067,#2068,#2077));
#2066 = ORIENTED_EDGE('',*,*,#1543,.F.);
#2067 = ORIENTED_EDGE('',*,*,#2051,.F.);
#2068 = ORIENTED_EDGE('',*,*,#2069,.T.);
#2069 = EDGE_CURVE('',#2044,#2070,#2072,.T.);
#2070 = VERTEX_POINT('',#2071);
#2071 = CARTESIAN_POINT('',(39.,73.5,12.));
#2072 = CIRCLE('',#2073,3.);
#2073 = AXIS2_PLACEMENT_3D('',#2074,#2075,#2076);
#2074 = CARTESIAN_POINT('',(42.,73.5,12.));
#2075 = DIRECTION('',(0.,-1.,1.110223024625E-16));
#2076 = DIRECTION('',(1.,0.,0.));
#2077 = ORIENTED_EDGE('',*,*,#2078,.T.);
#2078 = EDGE_CURVE('',#2070,#1536,#2079,.T.);
#2079 = LINE('',#2080,#2081);
#2080 = CARTESIAN_POINT('',(39.,73.5,12.));
#2081 = VECTOR('',#2082,1.);
#2082 = DIRECTION('',(0.,-1.,1.110223024625E-16));
#2083 = CYLINDRICAL_SURFACE('',#2084,3.);
#2084 = AXIS2_PLACEMENT_3D('',#2085,#2086,#2087);
#2085 = CARTESIAN_POINT('',(42.,73.5,12.));
#2086 = DIRECTION('',(0.,-1.,1.110223024625E-16));
#2087 = DIRECTION('',(1.,0.,0.));
#2088 = ADVANCED_FACE('',(#2089),#2100,.T.);
#2089 = FACE_BOUND('',#2090,.T.);
#2090 = EDGE_LOOP('',(#2091,#2092,#2098,#2099));
#2091 = ORIENTED_EDGE('',*,*,#1914,.F.);
#2092 = ORIENTED_EDGE('',*,*,#2093,.T.);
#2093 = EDGE_CURVE('',#1915,#2070,#2094,.T.);
#2094 = LINE('',#2095,#2096);
#2095 = CARTESIAN_POINT('',(39.,73.5,-31.));
#2096 = VECTOR('',#2097,1.);
#2097 = DIRECTION('',(0.,1.110223024625E-16,1.));
#2098 = ORIENTED_EDGE('',*,*,#2078,.T.);
#2099 = ORIENTED_EDGE('',*,*,#1535,.F.);
#2100 = PLANE('',#2101);
#2101 = AXIS2_PLACEMENT_3D('',#2102,#2103,#2104);
#2102 = CARTESIAN_POINT('',(39.,73.5,-31.));
#2103 = DIRECTION('',(1.,0.,0.));
#2104 = DIRECTION('',(0.,-1.,1.110223024625E-16));
#2105 = ADVANCED_FACE('',(#2106),#2116,.F.);
#2106 = FACE_BOUND('',#2107,.F.);
#2107 = EDGE_LOOP('',(#2108,#2109,#2110,#2111,#2112,#2113,#2114,#2115));
#2108 = ORIENTED_EDGE('',*,*,#1922,.F.);
#2109 = ORIENTED_EDGE('',*,*,#2093,.T.);
#2110 = ORIENTED_EDGE('',*,*,#2069,.F.);
#2111 = ORIENTED_EDGE('',*,*,#2043,.T.);
#2112 = ORIENTED_EDGE('',*,*,#2020,.F.);
#2113 = ORIENTED_EDGE('',*,*,#1995,.F.);
#2114 = ORIENTED_EDGE('',*,*,#1969,.F.);
#2115 = ORIENTED_EDGE('',*,*,#1945,.F.);
#2116 = PLANE('',#2117);
#2117 = AXIS2_PLACEMENT_3D('',#2118,#2119,#2120);
#2118 = CARTESIAN_POINT('',(58.5,73.5,-9.5));
#2119 = DIRECTION('',(-0.,1.,-1.110223024625E-16));
#2120 = DIRECTION('',(-1.,0.,0.));
#2121 = ADVANCED_FACE('',(#2122),#2147,.F.);
#2122 = FACE_BOUND('',#2123,.F.);
#2123 = EDGE_LOOP('',(#2124,#2132,#2140,#2146));
#2124 = ORIENTED_EDGE('',*,*,#2125,.F.);
#2125 = EDGE_CURVE('',#2126,#1595,#2128,.T.);
#2126 = VERTEX_POINT('',#2127);
#2127 = CARTESIAN_POINT('',(32.5,43.,22.));
#2128 = LINE('',#2129,#2130);
#2129 = CARTESIAN_POINT('',(32.5,43.,22.));
#2130 = VECTOR('',#2131,1.);
#2131 = DIRECTION('',(-0.,1.,0.));
#2132 = ORIENTED_EDGE('',*,*,#2133,.T.);
#2133 = EDGE_CURVE('',#2126,#2134,#2136,.T.);
#2134 = VERTEX_POINT('',#2135);
#2135 = CARTESIAN_POINT('',(43.5,43.,22.));
#2136 = LINE('',#2137,#2138);
#2137 = CARTESIAN_POINT('',(32.5,43.,22.));
#2138 = VECTOR('',#2139,1.);
#2139 = DIRECTION('',(1.,0.,-0.));
#2140 = ORIENTED_EDGE('',*,*,#2141,.T.);
#2141 = EDGE_CURVE('',#2134,#1597,#2142,.T.);
#2142 = LINE('',#2143,#2144);
#2143 = CARTESIAN_POINT('',(43.5,43.,22.));
#2144 = VECTOR('',#2145,1.);
#2145 = DIRECTION('',(-0.,1.,0.));
#2146 = ORIENTED_EDGE('',*,*,#1594,.F.);
#2147 = PLANE('',#2148);
#2148 = AXIS2_PLACEMENT_3D('',#2149,#2150,#2151);
#2149 = CARTESIAN_POINT('',(32.5,43.,22.));
#2150 = DIRECTION('',(0.,0.,1.));
#2151 = DIRECTION('',(1.,0.,-0.));
#2152 = ADVANCED_FACE('',(#2153),#2171,.T.);
#2153 = FACE_BOUND('',#2154,.T.);
#2154 = EDGE_LOOP('',(#2155,#2163,#2164,#2165));
#2155 = ORIENTED_EDGE('',*,*,#2156,.F.);
#2156 = EDGE_CURVE('',#2134,#2157,#2159,.T.);
#2157 = VERTEX_POINT('',#2158);
#2158 = CARTESIAN_POINT('',(43.5,43.,30.));
#2159 = LINE('',#2160,#2161);
#2160 = CARTESIAN_POINT('',(43.5,43.,22.));
#2161 = VECTOR('',#2162,1.);
#2162 = DIRECTION('',(0.,0.,1.));
#2163 = ORIENTED_EDGE('',*,*,#2141,.T.);
#2164 = ORIENTED_EDGE('',*,*,#1629,.T.);
#2165 = ORIENTED_EDGE('',*,*,#2166,.F.);
#2166 = EDGE_CURVE('',#2157,#1622,#2167,.T.);
#2167 = LINE('',#2168,#2169);
#2168 = CARTESIAN_POINT('',(43.5,43.,30.));
#2169 = VECTOR('',#2170,1.);
#2170 = DIRECTION('',(-0.,1.,0.));
#2171 = PLANE('',#2172);
#2172 = AXIS2_PLACEMENT_3D('',#2173,#2174,#2175);
#2173 = CARTESIAN_POINT('',(43.5,43.,22.));
#2174 = DIRECTION('',(1.,0.,-0.));
#2175 = DIRECTION('',(0.,0.,1.));
#2176 = ADVANCED_FACE('',(#2177,#2195),#2206,.T.);
#2177 = FACE_BOUND('',#2178,.T.);
#2178 = EDGE_LOOP('',(#2179,#2187,#2193,#2194));
#2179 = ORIENTED_EDGE('',*,*,#2180,.F.);
#2180 = EDGE_CURVE('',#2181,#1613,#2183,.T.);
#2181 = VERTEX_POINT('',#2182);
#2182 = CARTESIAN_POINT('',(35.5,43.,30.));
#2183 = LINE('',#2184,#2185);
#2184 = CARTESIAN_POINT('',(35.5,42.9,30.));
#2185 = VECTOR('',#2186,1.);
#2186 = DIRECTION('',(0.,1.,0.));
#2187 = ORIENTED_EDGE('',*,*,#2188,.T.);
#2188 = EDGE_CURVE('',#2181,#2157,#2189,.T.);
#2189 = LINE('',#2190,#2191);
#2190 = CARTESIAN_POINT('',(32.5,43.,30.));
#2191 = VECTOR('',#2192,1.);
#2192 = DIRECTION('',(1.,0.,-0.));
#2193 = ORIENTED_EDGE('',*,*,#2166,.T.);
#2194 = ORIENTED_EDGE('',*,*,#1621,.F.);
#2195 = FACE_BOUND('',#2196,.T.);
#2196 = EDGE_LOOP('',(#2197));
#2197 = ORIENTED_EDGE('',*,*,#2198,.T.);
#2198 = EDGE_CURVE('',#2199,#2199,#2201,.T.);
#2199 = VERTEX_POINT('',#2200);
#2200 = CARTESIAN_POINT('',(36.75,48.,30.));
#2201 = CIRCLE('',#2202,1.25);
#2202 = AXIS2_PLACEMENT_3D('',#2203,#2204,#2205);
#2203 = CARTESIAN_POINT('',(38.,48.,30.));
#2204 = DIRECTION('',(0.,0.,-1.));
#2205 = DIRECTION('',(-1.,0.,-0.));
#2206 = PLANE('',#2207);
#2207 = AXIS2_PLACEMENT_3D('',#2208,#2209,#2210);
#2208 = CARTESIAN_POINT('',(32.5,43.,30.));
#2209 = DIRECTION('',(0.,0.,1.));
#2210 = DIRECTION('',(1.,0.,-0.));
#2211 = ADVANCED_FACE('',(#2212),#2230,.F.);
#2212 = FACE_BOUND('',#2213,.F.);
#2213 = EDGE_LOOP('',(#2214,#2222,#2223,#2224));
#2214 = ORIENTED_EDGE('',*,*,#2215,.F.);
#2215 = EDGE_CURVE('',#2126,#2216,#2218,.T.);
#2216 = VERTEX_POINT('',#2217);
#2217 = CARTESIAN_POINT('',(32.5,43.,25.101020514434));
#2218 = LINE('',#2219,#2220);
#2219 = CARTESIAN_POINT('',(32.5,43.,22.));
#2220 = VECTOR('',#2221,1.);
#2221 = DIRECTION('',(0.,0.,1.));
#2222 = ORIENTED_EDGE('',*,*,#2125,.T.);
#2223 = ORIENTED_EDGE('',*,*,#1604,.T.);
#2224 = ORIENTED_EDGE('',*,*,#2225,.F.);
#2225 = EDGE_CURVE('',#2216,#1605,#2226,.T.);
#2226 = LINE('',#2227,#2228);
#2227 = CARTESIAN_POINT('',(32.5,42.9,25.101020514434));
#2228 = VECTOR('',#2229,1.);
#2229 = DIRECTION('',(0.,1.,0.));
#2230 = PLANE('',#2231);
#2231 = AXIS2_PLACEMENT_3D('',#2232,#2233,#2234);
#2232 = CARTESIAN_POINT('',(32.5,43.,22.));
#2233 = DIRECTION('',(1.,0.,-0.));
#2234 = DIRECTION('',(0.,0.,1.));
#2235 = ADVANCED_FACE('',(#2236),#2249,.F.);
#2236 = FACE_BOUND('',#2237,.F.);
#2237 = EDGE_LOOP('',(#2238,#2239,#2240,#2241,#2248));
#2238 = ORIENTED_EDGE('',*,*,#2156,.F.);
#2239 = ORIENTED_EDGE('',*,*,#2133,.F.);
#2240 = ORIENTED_EDGE('',*,*,#2215,.T.);
#2241 = ORIENTED_EDGE('',*,*,#2242,.F.);
#2242 = EDGE_CURVE('',#2181,#2216,#2243,.T.);
#2243 = CIRCLE('',#2244,5.5);
#2244 = AXIS2_PLACEMENT_3D('',#2245,#2246,#2247);
#2245 = CARTESIAN_POINT('',(30.,43.,30.));
#2246 = DIRECTION('',(0.,1.,0.));
#2247 = DIRECTION('',(0.,-0.,1.));
#2248 = ORIENTED_EDGE('',*,*,#2188,.T.);
#2249 = PLANE('',#2250);
#2250 = AXIS2_PLACEMENT_3D('',#2251,#2252,#2253);
#2251 = CARTESIAN_POINT('',(32.5,43.,22.));
#2252 = DIRECTION('',(-0.,1.,0.));
#2253 = DIRECTION('',(0.,0.,1.));
#2254 = ADVANCED_FACE('',(#2255),#2261,.F.);
#2255 = FACE_BOUND('',#2256,.F.);
#2256 = EDGE_LOOP('',(#2257,#2258,#2259,#2260));
#2257 = ORIENTED_EDGE('',*,*,#1612,.F.);
#2258 = ORIENTED_EDGE('',*,*,#2180,.F.);
#2259 = ORIENTED_EDGE('',*,*,#2242,.T.);
#2260 = ORIENTED_EDGE('',*,*,#2225,.T.);
#2261 = CYLINDRICAL_SURFACE('',#2262,5.5);
#2262 = AXIS2_PLACEMENT_3D('',#2263,#2264,#2265);
#2263 = CARTESIAN_POINT('',(30.,42.9,30.));
#2264 = DIRECTION('',(0.,1.,0.));
#2265 = DIRECTION('',(0.,-0.,1.));
#2266 = ADVANCED_FACE('',(#2267),#2286,.F.);
#2267 = FACE_BOUND('',#2268,.F.);
#2268 = EDGE_LOOP('',(#2269,#2277,#2284,#2285));
#2269 = ORIENTED_EDGE('',*,*,#2270,.T.);
#2270 = EDGE_CURVE('',#2199,#2271,#2273,.T.);
#2271 = VERTEX_POINT('',#2272);
#2272 = CARTESIAN_POINT('',(36.75,48.,23.5));
#2273 = LINE('',#2274,#2275);
#2274 = CARTESIAN_POINT('',(36.75,48.,30.1));
#2275 = VECTOR('',#2276,1.);
#2276 = DIRECTION('',(0.,0.,-1.));
#2277 = ORIENTED_EDGE('',*,*,#2278,.F.);
#2278 = EDGE_CURVE('',#2271,#2271,#2279,.T.);
#2279 = CIRCLE('',#2280,1.25);
#2280 = AXIS2_PLACEMENT_3D('',#2281,#2282,#2283);
#2281 = CARTESIAN_POINT('',(38.,48.,23.5));
#2282 = DIRECTION('',(0.,0.,-1.));
#2283 = DIRECTION('',(-1.,0.,-0.));
#2284 = ORIENTED_EDGE('',*,*,#2270,.F.);
#2285 = ORIENTED_EDGE('',*,*,#2198,.T.);
#2286 = CYLINDRICAL_SURFACE('',#2287,1.25);
#2287 = AXIS2_PLACEMENT_3D('',#2288,#2289,#2290);
#2288 = CARTESIAN_POINT('',(38.,48.,30.1));
#2289 = DIRECTION('',(0.,0.,-1.));
#2290 = DIRECTION('',(-1.,0.,-0.));
#2291 = ADVANCED_FACE('',(#2292),#2304,.F.);
#2292 = FACE_BOUND('',#2293,.F.);
#2293 = EDGE_LOOP('',(#2294,#2302,#2303));
#2294 = ORIENTED_EDGE('',*,*,#2295,.F.);
#2295 = EDGE_CURVE('',#2271,#2296,#2298,.T.);
#2296 = VERTEX_POINT('',#2297);
#2297 = CARTESIAN_POINT('',(38.,48.,22.748924226216));
#2298 = LINE('',#2299,#2300);
#2299 = CARTESIAN_POINT('',(36.75,48.,23.5));
#2300 = VECTOR('',#2301,1.);
#2301 = DIRECTION('',(0.857167300702,2.099454382277E-16,-0.51503807491)
  );
#2302 = ORIENTED_EDGE('',*,*,#2278,.T.);
#2303 = ORIENTED_EDGE('',*,*,#2295,.T.);
#2304 = CONICAL_SURFACE('',#2305,1.25,1.029744258677);
#2305 = AXIS2_PLACEMENT_3D('',#2306,#2307,#2308);
#2306 = CARTESIAN_POINT('',(38.,48.,23.5));
#2307 = DIRECTION('',(-0.,-0.,1.));
#2308 = DIRECTION('',(-1.,0.,-0.));
#2309 = ADVANCED_FACE('',(#2310),#2335,.F.);
#2310 = FACE_BOUND('',#2311,.F.);
#2311 = EDGE_LOOP('',(#2312,#2320,#2328,#2334));
#2312 = ORIENTED_EDGE('',*,*,#2313,.F.);
#2313 = EDGE_CURVE('',#2314,#1638,#2316,.T.);
#2314 = VERTEX_POINT('',#2315);
#2315 = CARTESIAN_POINT('',(-77.5,43.,22.));
#2316 = LINE('',#2317,#2318);
#2317 = CARTESIAN_POINT('',(-77.5,43.,22.));
#2318 = VECTOR('',#2319,1.);
#2319 = DIRECTION('',(-0.,1.,0.));
#2320 = ORIENTED_EDGE('',*,*,#2321,.T.);
#2321 = EDGE_CURVE('',#2314,#2322,#2324,.T.);
#2322 = VERTEX_POINT('',#2323);
#2323 = CARTESIAN_POINT('',(-68.5,43.,22.));
#2324 = LINE('',#2325,#2326);
#2325 = CARTESIAN_POINT('',(-77.5,43.,22.));
#2326 = VECTOR('',#2327,1.);
#2327 = DIRECTION('',(1.,0.,-0.));
#2328 = ORIENTED_EDGE('',*,*,#2329,.T.);
#2329 = EDGE_CURVE('',#2322,#1640,#2330,.T.);
#2330 = LINE('',#2331,#2332);
#2331 = CARTESIAN_POINT('',(-68.5,43.,22.));
#2332 = VECTOR('',#2333,1.);
#2333 = DIRECTION('',(-0.,1.,0.));
#2334 = ORIENTED_EDGE('',*,*,#1637,.F.);
#2335 = PLANE('',#2336);
#2336 = AXIS2_PLACEMENT_3D('',#2337,#2338,#2339);
#2337 = CARTESIAN_POINT('',(-77.5,43.,22.));
#2338 = DIRECTION('',(0.,0.,1.));
#2339 = DIRECTION('',(1.,0.,-0.));
#2340 = ADVANCED_FACE('',(#2341),#2359,.F.);
#2341 = FACE_BOUND('',#2342,.F.);
#2342 = EDGE_LOOP('',(#2343,#2351,#2352,#2353));
#2343 = ORIENTED_EDGE('',*,*,#2344,.F.);
#2344 = EDGE_CURVE('',#2314,#2345,#2347,.T.);
#2345 = VERTEX_POINT('',#2346);
#2346 = CARTESIAN_POINT('',(-77.5,43.,30.));
#2347 = LINE('',#2348,#2349);
#2348 = CARTESIAN_POINT('',(-77.5,43.,22.));
#2349 = VECTOR('',#2350,1.);
#2350 = DIRECTION('',(0.,0.,1.));
#2351 = ORIENTED_EDGE('',*,*,#2313,.T.);
#2352 = ORIENTED_EDGE('',*,*,#1647,.T.);
#2353 = ORIENTED_EDGE('',*,*,#2354,.F.);
#2354 = EDGE_CURVE('',#2345,#1648,#2355,.T.);
#2355 = LINE('',#2356,#2357);
#2356 = CARTESIAN_POINT('',(-77.5,43.,30.));
#2357 = VECTOR('',#2358,1.);
#2358 = DIRECTION('',(-0.,1.,0.));
#2359 = PLANE('',#2360);
#2360 = AXIS2_PLACEMENT_3D('',#2361,#2362,#2363);
#2361 = CARTESIAN_POINT('',(-77.5,43.,22.));
#2362 = DIRECTION('',(1.,0.,-0.));
#2363 = DIRECTION('',(0.,0.,1.));
#2364 = ADVANCED_FACE('',(#2365),#2383,.T.);
#2365 = FACE_BOUND('',#2366,.T.);
#2366 = EDGE_LOOP('',(#2367,#2375,#2376,#2377));
#2367 = ORIENTED_EDGE('',*,*,#2368,.F.);
#2368 = EDGE_CURVE('',#2322,#2369,#2371,.T.);
#2369 = VERTEX_POINT('',#2370);
#2370 = CARTESIAN_POINT('',(-68.5,43.,30.));
#2371 = LINE('',#2372,#2373);
#2372 = CARTESIAN_POINT('',(-68.5,43.,22.));
#2373 = VECTOR('',#2374,1.);
#2374 = DIRECTION('',(0.,0.,1.));
#2375 = ORIENTED_EDGE('',*,*,#2329,.T.);
#2376 = ORIENTED_EDGE('',*,*,#1663,.T.);
#2377 = ORIENTED_EDGE('',*,*,#2378,.F.);
#2378 = EDGE_CURVE('',#2369,#1656,#2379,.T.);
#2379 = LINE('',#2380,#2381);
#2380 = CARTESIAN_POINT('',(-68.5,43.,30.));
#2381 = VECTOR('',#2382,1.);
#2382 = DIRECTION('',(-0.,1.,0.));
#2383 = PLANE('',#2384);
#2384 = AXIS2_PLACEMENT_3D('',#2385,#2386,#2387);
#2385 = CARTESIAN_POINT('',(-68.5,43.,22.));
#2386 = DIRECTION('',(1.,0.,-0.));
#2387 = DIRECTION('',(0.,0.,1.));
#2388 = ADVANCED_FACE('',(#2389,#2400),#2411,.T.);
#2389 = FACE_BOUND('',#2390,.T.);
#2390 = EDGE_LOOP('',(#2391,#2392,#2398,#2399));
#2391 = ORIENTED_EDGE('',*,*,#2354,.F.);
#2392 = ORIENTED_EDGE('',*,*,#2393,.T.);
#2393 = EDGE_CURVE('',#2345,#2369,#2394,.T.);
#2394 = LINE('',#2395,#2396);
#2395 = CARTESIAN_POINT('',(-77.5,43.,30.));
#2396 = VECTOR('',#2397,1.);
#2397 = DIRECTION('',(1.,0.,-0.));
#2398 = ORIENTED_EDGE('',*,*,#2378,.T.);
#2399 = ORIENTED_EDGE('',*,*,#1655,.F.);
#2400 = FACE_BOUND('',#2401,.T.);
#2401 = EDGE_LOOP('',(#2402));
#2402 = ORIENTED_EDGE('',*,*,#2403,.T.);
#2403 = EDGE_CURVE('',#2404,#2404,#2406,.T.);
#2404 = VERTEX_POINT('',#2405);
#2405 = CARTESIAN_POINT('',(-75.25,48.,30.));
#2406 = CIRCLE('',#2407,1.25);
#2407 = AXIS2_PLACEMENT_3D('',#2408,#2409,#2410);
#2408 = CARTESIAN_POINT('',(-74.,48.,30.));
#2409 = DIRECTION('',(0.,0.,-1.));
#2410 = DIRECTION('',(-1.,0.,-0.));
#2411 = PLANE('',#2412);
#2412 = AXIS2_PLACEMENT_3D('',#2413,#2414,#2415);
#2413 = CARTESIAN_POINT('',(-77.5,43.,30.));
#2414 = DIRECTION('',(0.,0.,1.));
#2415 = DIRECTION('',(1.,0.,-0.));
#2416 = ADVANCED_FACE('',(#2417),#2423,.F.);
#2417 = FACE_BOUND('',#2418,.F.);
#2418 = EDGE_LOOP('',(#2419,#2420,#2421,#2422));
#2419 = ORIENTED_EDGE('',*,*,#2321,.F.);
#2420 = ORIENTED_EDGE('',*,*,#2344,.T.);
#2421 = ORIENTED_EDGE('',*,*,#2393,.T.);
#2422 = ORIENTED_EDGE('',*,*,#2368,.F.);
#2423 = PLANE('',#2424);
#2424 = AXIS2_PLACEMENT_3D('',#2425,#2426,#2427);
#2425 = CARTESIAN_POINT('',(-77.5,43.,22.));
#2426 = DIRECTION('',(-0.,1.,0.));
#2427 = DIRECTION('',(0.,0.,1.));
#2428 = ADVANCED_FACE('',(#2429),#2448,.F.);
#2429 = FACE_BOUND('',#2430,.F.);
#2430 = EDGE_LOOP('',(#2431,#2439,#2446,#2447));
#2431 = ORIENTED_EDGE('',*,*,#2432,.T.);
#2432 = EDGE_CURVE('',#2404,#2433,#2435,.T.);
#2433 = VERTEX_POINT('',#2434);
#2434 = CARTESIAN_POINT('',(-75.25,48.,23.5));
#2435 = LINE('',#2436,#2437);
#2436 = CARTESIAN_POINT('',(-75.25,48.,30.1));
#2437 = VECTOR('',#2438,1.);
#2438 = DIRECTION('',(0.,0.,-1.));
#2439 = ORIENTED_EDGE('',*,*,#2440,.F.);
#2440 = EDGE_CURVE('',#2433,#2433,#2441,.T.);
#2441 = CIRCLE('',#2442,1.25);
#2442 = AXIS2_PLACEMENT_3D('',#2443,#2444,#2445);
#2443 = CARTESIAN_POINT('',(-74.,48.,23.5));
#2444 = DIRECTION('',(0.,0.,-1.));
#2445 = DIRECTION('',(-1.,0.,-0.));
#2446 = ORIENTED_EDGE('',*,*,#2432,.F.);
#2447 = ORIENTED_EDGE('',*,*,#2403,.T.);
#2448 = CYLINDRICAL_SURFACE('',#2449,1.25);
#2449 = AXIS2_PLACEMENT_3D('',#2450,#2451,#2452);
#2450 = CARTESIAN_POINT('',(-74.,48.,30.1));
#2451 = DIRECTION('',(0.,0.,-1.));
#2452 = DIRECTION('',(-1.,0.,-0.));
#2453 = ADVANCED_FACE('',(#2454),#2466,.F.);
#2454 = FACE_BOUND('',#2455,.F.);
#2455 = EDGE_LOOP('',(#2456,#2464,#2465));
#2456 = ORIENTED_EDGE('',*,*,#2457,.F.);
#2457 = EDGE_CURVE('',#2433,#2458,#2460,.T.);
#2458 = VERTEX_POINT('',#2459);
#2459 = CARTESIAN_POINT('',(-74.,48.,22.748924226216));
#2460 = LINE('',#2461,#2462);
#2461 = CARTESIAN_POINT('',(-75.25,48.,23.5));
#2462 = VECTOR('',#2463,1.);
#2463 = DIRECTION('',(0.857167300702,2.099454382277E-16,-0.51503807491)
  );
#2464 = ORIENTED_EDGE('',*,*,#2440,.T.);
#2465 = ORIENTED_EDGE('',*,*,#2457,.T.);
#2466 = CONICAL_SURFACE('',#2467,1.25,1.029744258677);
#2467 = AXIS2_PLACEMENT_3D('',#2468,#2469,#2470);
#2468 = CARTESIAN_POINT('',(-74.,48.,23.5));
#2469 = DIRECTION('',(-0.,-0.,1.));
#2470 = DIRECTION('',(-1.,0.,-0.));
#2471 = ( GEOMETRIC_REPRESENTATION_CONTEXT(3) 
GLOBAL_UNCERTAINTY_ASSIGNED_CONTEXT((#2475)) 
GLOBAL_UNIT_ASSIGNED_CONTEXT((#2472,#2473,#2474)) REPRESENTATION_CONTEXT
('Context #1','3D Context with UNIT and UNCERTAINTY') );
#2472 = ( LENGTH_UNIT() NAMED_UNIT(*) SI_UNIT(.MILLI.,.METRE.) );
#2473 = ( NAMED_UNIT(*) PLANE_ANGLE_UNIT() SI_UNIT($,.RADIAN.) );
#2474 = ( NAMED_UNIT(*) SI_UNIT($,.STERADIAN.) SOLID_ANGLE_UNIT() );
#2475 = UNCERTAINTY_MEASURE_WITH_UNIT(LENGTH_MEASURE(1.E-07),#2472,
  'distance_accuracy_value','confusion accuracy');
#2476 = PRODUCT_RELATED_PRODUCT_CATEGORY('part',$,(#7));
ENDSEC;
END-ISO-10303-21;
