ISO-10303-21;
HEADER;
FILE_DESCRIPTION(('FreeCAD Model'),'2;1');
FILE_NAME('Open CASCADE Shape Model','2026-09-22T14:17:53',('FreeCAD'),(
    'FreeCAD'),'Open CASCADE STEP processor 7.8','FreeCAD','Unknown');
FILE_SCHEMA(('AUTOMOTIVE_DESIGN { 1 0 10303 214 1 1 1 1 }'));
ENDSEC;
DATA;
#1 = APPLICATION_PROTOCOL_DEFINITION('international standard',
  'automotive_design',2000,#2);
#2 = APPLICATION_CONTEXT(
  'core data for automotive mechanical design processes');
#3 = SHAPE_DEFINITION_REPRESENTATION(#4,#10);
#4 = PRODUCT_DEFINITION_SHAPE('','',#5);
#5 = PRODUCT_DEFINITION('design','',#6,#9);
#6 = PRODUCT_DEFINITION_FORMATION('','',#7);
#7 = PRODUCT('Open CASCADE STEP translator 7.8 24',
  'Open CASCADE STEP translator 7.8 24','',(#8));
#8 = PRODUCT_CONTEXT('',#2,'mechanical');
#9 = PRODUCT_DEFINITION_CONTEXT('part definition',#2,'design');
#10 = ADVANCED_BREP_SHAPE_REPRESENTATION('',(#11,#15),#934);
#11 = AXIS2_PLACEMENT_3D('',#12,#13,#14);
#12 = CARTESIAN_POINT('',(0.,0.,0.));
#13 = DIRECTION('',(0.,0.,1.));
#14 = DIRECTION('',(1.,0.,-0.));
#15 = MANIFOLD_SOLID_BREP('',#16);
#16 = CLOSED_SHELL('',(#17,#50,#137,#223,#254,#278,#302,#319,#344,#369,
    #394,#419,#444,#469,#494,#519,#544,#569,#594,#661,#678,#695,#712,
    #729,#754,#779,#804,#829,#883,#900,#917));
#17 = ADVANCED_FACE('',(#18),#45,.T.);
#18 = FACE_BOUND('',#19,.T.);
#19 = EDGE_LOOP('',(#20,#29,#37,#44));
#20 = ORIENTED_EDGE('',*,*,#21,.F.);
#21 = EDGE_CURVE('',#22,#22,#24,.T.);
#22 = VERTEX_POINT('',#23);
#23 = CARTESIAN_POINT('',(-7.592810154714E-15,75.,31.));
#24 = CIRCLE('',#25,31.);
#25 = AXIS2_PLACEMENT_3D('',#26,#27,#28);
#26 = CARTESIAN_POINT('',(0.,75.,0.));
#27 = DIRECTION('',(0.,1.,0.));
#28 = DIRECTION('',(0.,-0.,1.));
#29 = ORIENTED_EDGE('',*,*,#30,.F.);
#30 = EDGE_CURVE('',#31,#22,#33,.T.);
#31 = VERTEX_POINT('',#32);
#32 = CARTESIAN_POINT('',(-7.592810154714E-15,72.,31.));
#33 = LINE('',#34,#35);
#34 = CARTESIAN_POINT('',(-7.592810154714E-15,72.,31.));
#35 = VECTOR('',#36,1.);
#36 = DIRECTION('',(0.,1.,0.));
#37 = ORIENTED_EDGE('',*,*,#38,.T.);
#38 = EDGE_CURVE('',#31,#31,#39,.T.);
#39 = CIRCLE('',#40,31.);
#40 = AXIS2_PLACEMENT_3D('',#41,#42,#43);
#41 = CARTESIAN_POINT('',(0.,72.,0.));
#42 = DIRECTION('',(0.,1.,0.));
#43 = DIRECTION('',(0.,-0.,1.));
#44 = ORIENTED_EDGE('',*,*,#30,.T.);
#45 = CYLINDRICAL_SURFACE('',#46,31.);
#46 = AXIS2_PLACEMENT_3D('',#47,#48,#49);
#47 = CARTESIAN_POINT('',(0.,72.,0.));
#48 = DIRECTION('',(0.,1.,0.));
#49 = DIRECTION('',(0.,-0.,1.));
#50 = ADVANCED_FACE('',(#51,#85,#96,#107,#118,#121),#132,.F.);
#51 = FACE_BOUND('',#52,.F.);
#52 = EDGE_LOOP('',(#53,#63,#71,#79));
#53 = ORIENTED_EDGE('',*,*,#54,.F.);
#54 = EDGE_CURVE('',#55,#57,#59,.T.);
#55 = VERTEX_POINT('',#56);
#56 = CARTESIAN_POINT('',(-39.,75.,-39.));
#57 = VERTEX_POINT('',#58);
#58 = CARTESIAN_POINT('',(39.,75.,-39.));
#59 = LINE('',#60,#61);
#60 = CARTESIAN_POINT('',(-39.,75.,-39.));
#61 = VECTOR('',#62,1.);
#62 = DIRECTION('',(1.,0.,-0.));
#63 = ORIENTED_EDGE('',*,*,#64,.T.);
#64 = EDGE_CURVE('',#55,#65,#67,.T.);
#65 = VERTEX_POINT('',#66);
#66 = CARTESIAN_POINT('',(-39.,75.,39.));
#67 = LINE('',#68,#69);
#68 = CARTESIAN_POINT('',(-39.,75.,-39.));
#69 = VECTOR('',#70,1.);
#70 = DIRECTION('',(0.,0.,1.));
#71 = ORIENTED_EDGE('',*,*,#72,.T.);
#72 = EDGE_CURVE('',#65,#73,#75,.T.);
#73 = VERTEX_POINT('',#74);
#74 = CARTESIAN_POINT('',(39.,75.,39.));
#75 = LINE('',#76,#77);
#76 = CARTESIAN_POINT('',(-39.,75.,39.));
#77 = VECTOR('',#78,1.);
#78 = DIRECTION('',(1.,0.,-0.));
#79 = ORIENTED_EDGE('',*,*,#80,.F.);
#80 = EDGE_CURVE('',#57,#73,#81,.T.);
#81 = LINE('',#82,#83);
#82 = CARTESIAN_POINT('',(39.,75.,-39.));
#83 = VECTOR('',#84,1.);
#84 = DIRECTION('',(0.,0.,1.));
#85 = FACE_BOUND('',#86,.F.);
#86 = EDGE_LOOP('',(#87));
#87 = ORIENTED_EDGE('',*,*,#88,.T.);
#88 = EDGE_CURVE('',#89,#89,#91,.T.);
#89 = VERTEX_POINT('',#90);
#90 = CARTESIAN_POINT('',(-30.,75.,-32.2));
#91 = CIRCLE('',#92,2.2);
#92 = AXIS2_PLACEMENT_3D('',#93,#94,#95);
#93 = CARTESIAN_POINT('',(-30.,75.,-30.));
#94 = DIRECTION('',(0.,-1.,0.));
#95 = DIRECTION('',(0.,-0.,-1.));
#96 = FACE_BOUND('',#97,.F.);
#97 = EDGE_LOOP('',(#98));
#98 = ORIENTED_EDGE('',*,*,#99,.T.);
#99 = EDGE_CURVE('',#100,#100,#102,.T.);
#100 = VERTEX_POINT('',#101);
#101 = CARTESIAN_POINT('',(-30.,75.,27.8));
#102 = CIRCLE('',#103,2.2);
#103 = AXIS2_PLACEMENT_3D('',#104,#105,#106);
#104 = CARTESIAN_POINT('',(-30.,75.,30.));
#105 = DIRECTION('',(0.,-1.,0.));
#106 = DIRECTION('',(0.,-0.,-1.));
#107 = FACE_BOUND('',#108,.F.);
#108 = EDGE_LOOP('',(#109));
#109 = ORIENTED_EDGE('',*,*,#110,.T.);
#110 = EDGE_CURVE('',#111,#111,#113,.T.);
#111 = VERTEX_POINT('',#112);
#112 = CARTESIAN_POINT('',(30.,75.,-32.2));
#113 = CIRCLE('',#114,2.2);
#114 = AXIS2_PLACEMENT_3D('',#115,#116,#117);
#115 = CARTESIAN_POINT('',(30.,75.,-30.));
#116 = DIRECTION('',(0.,-1.,0.));
#117 = DIRECTION('',(0.,-0.,-1.));
#118 = FACE_BOUND('',#119,.F.);
#119 = EDGE_LOOP('',(#120));
#120 = ORIENTED_EDGE('',*,*,#21,.F.);
#121 = FACE_BOUND('',#122,.F.);
#122 = EDGE_LOOP('',(#123));
#123 = ORIENTED_EDGE('',*,*,#124,.T.);
#124 = EDGE_CURVE('',#125,#125,#127,.T.);
#125 = VERTEX_POINT('',#126);
#126 = CARTESIAN_POINT('',(30.,75.,27.8));
#127 = CIRCLE('',#128,2.2);
#128 = AXIS2_PLACEMENT_3D('',#129,#130,#131);
#129 = CARTESIAN_POINT('',(30.,75.,30.));
#130 = DIRECTION('',(0.,-1.,0.));
#131 = DIRECTION('',(0.,-0.,-1.));
#132 = PLANE('',#133);
#133 = AXIS2_PLACEMENT_3D('',#134,#135,#136);
#134 = CARTESIAN_POINT('',(-39.,75.,-39.));
#135 = DIRECTION('',(-0.,1.,0.));
#136 = DIRECTION('',(0.,0.,1.));
#137 = ADVANCED_FACE('',(#138,#141,#152,#163,#174,#185,#196,#207),#218,
  .F.);
#138 = FACE_BOUND('',#139,.F.);
#139 = EDGE_LOOP('',(#140));
#140 = ORIENTED_EDGE('',*,*,#38,.T.);
#141 = FACE_BOUND('',#142,.F.);
#142 = EDGE_LOOP('',(#143));
#143 = ORIENTED_EDGE('',*,*,#144,.T.);
#144 = EDGE_CURVE('',#145,#145,#147,.T.);
#145 = VERTEX_POINT('',#146);
#146 = CARTESIAN_POINT('',(-21.65063509461,72.,-14.2));
#147 = CIRCLE('',#148,1.7);
#148 = AXIS2_PLACEMENT_3D('',#149,#150,#151);
#149 = CARTESIAN_POINT('',(-21.65063509461,72.,-12.5));
#150 = DIRECTION('',(0.,-1.,0.));
#151 = DIRECTION('',(0.,-0.,-1.));
#152 = FACE_BOUND('',#153,.F.);
#153 = EDGE_LOOP('',(#154));
#154 = ORIENTED_EDGE('',*,*,#155,.T.);
#155 = EDGE_CURVE('',#156,#156,#158,.T.);
#156 = VERTEX_POINT('',#157);
#157 = CARTESIAN_POINT('',(-5.008805408513E-15,72.,-26.7));
#158 = CIRCLE('',#159,1.7);
#159 = AXIS2_PLACEMENT_3D('',#160,#161,#162);
#160 = CARTESIAN_POINT('',(-4.592425496803E-15,72.,-25.));
#161 = DIRECTION('',(0.,-1.,0.));
#162 = DIRECTION('',(0.,-0.,-1.));
#163 = FACE_BOUND('',#164,.F.);
#164 = EDGE_LOOP('',(#165));
#165 = ORIENTED_EDGE('',*,*,#166,.T.);
#166 = EDGE_CURVE('',#167,#167,#169,.T.);
#167 = VERTEX_POINT('',#168);
#168 = CARTESIAN_POINT('',(-21.65063509461,72.,10.8));
#169 = CIRCLE('',#170,1.7);
#170 = AXIS2_PLACEMENT_3D('',#171,#172,#173);
#171 = CARTESIAN_POINT('',(-21.65063509461,72.,12.5));
#172 = DIRECTION('',(0.,-1.,0.));
#173 = DIRECTION('',(0.,-0.,-1.));
#174 = FACE_BOUND('',#175,.F.);
#175 = EDGE_LOOP('',(#176));
#176 = ORIENTED_EDGE('',*,*,#177,.T.);
#177 = EDGE_CURVE('',#178,#178,#180,.T.);
#178 = VERTEX_POINT('',#179);
#179 = CARTESIAN_POINT('',(21.650635094611,72.,-14.2));
#180 = CIRCLE('',#181,1.7);
#181 = AXIS2_PLACEMENT_3D('',#182,#183,#184);
#182 = CARTESIAN_POINT('',(21.650635094611,72.,-12.5));
#183 = DIRECTION('',(0.,-1.,0.));
#184 = DIRECTION('',(0.,-0.,-1.));
#185 = FACE_BOUND('',#186,.F.);
#186 = EDGE_LOOP('',(#187));
#187 = ORIENTED_EDGE('',*,*,#188,.F.);
#188 = EDGE_CURVE('',#189,#189,#191,.T.);
#189 = VERTEX_POINT('',#190);
#190 = CARTESIAN_POINT('',(-4.947573068555E-15,72.,20.2));
#191 = CIRCLE('',#192,20.2);
#192 = AXIS2_PLACEMENT_3D('',#193,#194,#195);
#193 = CARTESIAN_POINT('',(0.,72.,0.));
#194 = DIRECTION('',(0.,1.,0.));
#195 = DIRECTION('',(0.,-0.,1.));
#196 = FACE_BOUND('',#197,.F.);
#197 = EDGE_LOOP('',(#198));
#198 = ORIENTED_EDGE('',*,*,#199,.T.);
#199 = EDGE_CURVE('',#200,#200,#202,.T.);
#200 = VERTEX_POINT('',#201);
#201 = CARTESIAN_POINT('',(1.114428587224E-15,72.,23.3));
#202 = CIRCLE('',#203,1.7);
#203 = AXIS2_PLACEMENT_3D('',#204,#205,#206);
#204 = CARTESIAN_POINT('',(1.530808498934E-15,72.,25.));
#205 = DIRECTION('',(0.,-1.,0.));
#206 = DIRECTION('',(0.,-0.,-1.));
#207 = FACE_BOUND('',#208,.F.);
#208 = EDGE_LOOP('',(#209));
#209 = ORIENTED_EDGE('',*,*,#210,.T.);
#210 = EDGE_CURVE('',#211,#211,#213,.T.);
#211 = VERTEX_POINT('',#212);
#212 = CARTESIAN_POINT('',(21.650635094611,72.,10.8));
#213 = CIRCLE('',#214,1.7);
#214 = AXIS2_PLACEMENT_3D('',#215,#216,#217);
#215 = CARTESIAN_POINT('',(21.650635094611,72.,12.5));
#216 = DIRECTION('',(0.,-1.,0.));
#217 = DIRECTION('',(0.,-0.,-1.));
#218 = PLANE('',#219);
#219 = AXIS2_PLACEMENT_3D('',#220,#221,#222);
#220 = CARTESIAN_POINT('',(0.,72.,0.));
#221 = DIRECTION('',(0.,1.,0.));
#222 = DIRECTION('',(0.,-0.,1.));
#223 = ADVANCED_FACE('',(#224),#249,.F.);
#224 = FACE_BOUND('',#225,.F.);
#225 = EDGE_LOOP('',(#226,#234,#235,#243));
#226 = ORIENTED_EDGE('',*,*,#227,.F.);
#227 = EDGE_CURVE('',#55,#228,#230,.T.);
#228 = VERTEX_POINT('',#229);
#229 = CARTESIAN_POINT('',(-39.,78.,-39.));
#230 = LINE('',#231,#232);
#231 = CARTESIAN_POINT('',(-39.,75.,-39.));
#232 = VECTOR('',#233,1.);
#233 = DIRECTION('',(-0.,1.,0.));
#234 = ORIENTED_EDGE('',*,*,#54,.T.);
#235 = ORIENTED_EDGE('',*,*,#236,.T.);
#236 = EDGE_CURVE('',#57,#237,#239,.T.);
#237 = VERTEX_POINT('',#238);
#238 = CARTESIAN_POINT('',(39.,78.,-39.));
#239 = LINE('',#240,#241);
#240 = CARTESIAN_POINT('',(39.,75.,-39.));
#241 = VECTOR('',#242,1.);
#242 = DIRECTION('',(-0.,1.,0.));
#243 = ORIENTED_EDGE('',*,*,#244,.F.);
#244 = EDGE_CURVE('',#228,#237,#245,.T.);
#245 = LINE('',#246,#247);
#246 = CARTESIAN_POINT('',(-39.,78.,-39.));
#247 = VECTOR('',#248,1.);
#248 = DIRECTION('',(1.,0.,-0.));
#249 = PLANE('',#250);
#250 = AXIS2_PLACEMENT_3D('',#251,#252,#253);
#251 = CARTESIAN_POINT('',(-39.,75.,-39.));
#252 = DIRECTION('',(0.,0.,1.));
#253 = DIRECTION('',(1.,0.,-0.));
#254 = ADVANCED_FACE('',(#255),#273,.T.);
#255 = FACE_BOUND('',#256,.T.);
#256 = EDGE_LOOP('',(#257,#258,#259,#267));
#257 = ORIENTED_EDGE('',*,*,#80,.F.);
#258 = ORIENTED_EDGE('',*,*,#236,.T.);
#259 = ORIENTED_EDGE('',*,*,#260,.T.);
#260 = EDGE_CURVE('',#237,#261,#263,.T.);
#261 = VERTEX_POINT('',#262);
#262 = CARTESIAN_POINT('',(39.,78.,39.));
#263 = LINE('',#264,#265);
#264 = CARTESIAN_POINT('',(39.,78.,-39.));
#265 = VECTOR('',#266,1.);
#266 = DIRECTION('',(0.,0.,1.));
#267 = ORIENTED_EDGE('',*,*,#268,.F.);
#268 = EDGE_CURVE('',#73,#261,#269,.T.);
#269 = LINE('',#270,#271);
#270 = CARTESIAN_POINT('',(39.,75.,39.));
#271 = VECTOR('',#272,1.);
#272 = DIRECTION('',(-0.,1.,0.));
#273 = PLANE('',#274);
#274 = AXIS2_PLACEMENT_3D('',#275,#276,#277);
#275 = CARTESIAN_POINT('',(39.,75.,-39.));
#276 = DIRECTION('',(1.,0.,-0.));
#277 = DIRECTION('',(0.,0.,1.));
#278 = ADVANCED_FACE('',(#279),#297,.F.);
#279 = FACE_BOUND('',#280,.F.);
#280 = EDGE_LOOP('',(#281,#282,#283,#291));
#281 = ORIENTED_EDGE('',*,*,#64,.F.);
#282 = ORIENTED_EDGE('',*,*,#227,.T.);
#283 = ORIENTED_EDGE('',*,*,#284,.T.);
#284 = EDGE_CURVE('',#228,#285,#287,.T.);
#285 = VERTEX_POINT('',#286);
#286 = CARTESIAN_POINT('',(-39.,78.,39.));
#287 = LINE('',#288,#289);
#288 = CARTESIAN_POINT('',(-39.,78.,-39.));
#289 = VECTOR('',#290,1.);
#290 = DIRECTION('',(0.,0.,1.));
#291 = ORIENTED_EDGE('',*,*,#292,.F.);
#292 = EDGE_CURVE('',#65,#285,#293,.T.);
#293 = LINE('',#294,#295);
#294 = CARTESIAN_POINT('',(-39.,75.,39.));
#295 = VECTOR('',#296,1.);
#296 = DIRECTION('',(-0.,1.,0.));
#297 = PLANE('',#298);
#298 = AXIS2_PLACEMENT_3D('',#299,#300,#301);
#299 = CARTESIAN_POINT('',(-39.,75.,-39.));
#300 = DIRECTION('',(1.,0.,-0.));
#301 = DIRECTION('',(0.,0.,1.));
#302 = ADVANCED_FACE('',(#303),#314,.T.);
#303 = FACE_BOUND('',#304,.T.);
#304 = EDGE_LOOP('',(#305,#306,#307,#308));
#305 = ORIENTED_EDGE('',*,*,#292,.F.);
#306 = ORIENTED_EDGE('',*,*,#72,.T.);
#307 = ORIENTED_EDGE('',*,*,#268,.T.);
#308 = ORIENTED_EDGE('',*,*,#309,.F.);
#309 = EDGE_CURVE('',#285,#261,#310,.T.);
#310 = LINE('',#311,#312);
#311 = CARTESIAN_POINT('',(-39.,78.,39.));
#312 = VECTOR('',#313,1.);
#313 = DIRECTION('',(1.,0.,-0.));
#314 = PLANE('',#315);
#315 = AXIS2_PLACEMENT_3D('',#316,#317,#318);
#316 = CARTESIAN_POINT('',(-39.,75.,39.));
#317 = DIRECTION('',(0.,0.,1.));
#318 = DIRECTION('',(1.,0.,-0.));
#319 = ADVANCED_FACE('',(#320),#339,.F.);
#320 = FACE_BOUND('',#321,.F.);
#321 = EDGE_LOOP('',(#322,#331,#337,#338));
#322 = ORIENTED_EDGE('',*,*,#323,.T.);
#323 = EDGE_CURVE('',#324,#324,#326,.T.);
#324 = VERTEX_POINT('',#325);
#325 = CARTESIAN_POINT('',(-30.,75.7,-32.2));
#326 = CIRCLE('',#327,2.2);
#327 = AXIS2_PLACEMENT_3D('',#328,#329,#330);
#328 = CARTESIAN_POINT('',(-30.,75.7,-30.));
#329 = DIRECTION('',(0.,-1.,0.));
#330 = DIRECTION('',(0.,-0.,-1.));
#331 = ORIENTED_EDGE('',*,*,#332,.T.);
#332 = EDGE_CURVE('',#324,#89,#333,.T.);
#333 = LINE('',#334,#335);
#334 = CARTESIAN_POINT('',(-30.,78.1,-32.2));
#335 = VECTOR('',#336,1.);
#336 = DIRECTION('',(0.,-1.,0.));
#337 = ORIENTED_EDGE('',*,*,#88,.F.);
#338 = ORIENTED_EDGE('',*,*,#332,.F.);
#339 = CYLINDRICAL_SURFACE('',#340,2.2);
#340 = AXIS2_PLACEMENT_3D('',#341,#342,#343);
#341 = CARTESIAN_POINT('',(-30.,78.1,-30.));
#342 = DIRECTION('',(0.,-1.,0.));
#343 = DIRECTION('',(0.,-0.,-1.));
#344 = ADVANCED_FACE('',(#345),#364,.F.);
#345 = FACE_BOUND('',#346,.F.);
#346 = EDGE_LOOP('',(#347,#356,#362,#363));
#347 = ORIENTED_EDGE('',*,*,#348,.T.);
#348 = EDGE_CURVE('',#349,#349,#351,.T.);
#349 = VERTEX_POINT('',#350);
#350 = CARTESIAN_POINT('',(-30.,75.7,27.8));
#351 = CIRCLE('',#352,2.2);
#352 = AXIS2_PLACEMENT_3D('',#353,#354,#355);
#353 = CARTESIAN_POINT('',(-30.,75.7,30.));
#354 = DIRECTION('',(0.,-1.,0.));
#355 = DIRECTION('',(0.,-0.,-1.));
#356 = ORIENTED_EDGE('',*,*,#357,.T.);
#357 = EDGE_CURVE('',#349,#100,#358,.T.);
#358 = LINE('',#359,#360);
#359 = CARTESIAN_POINT('',(-30.,78.1,27.8));
#360 = VECTOR('',#361,1.);
#361 = DIRECTION('',(0.,-1.,0.));
#362 = ORIENTED_EDGE('',*,*,#99,.F.);
#363 = ORIENTED_EDGE('',*,*,#357,.F.);
#364 = CYLINDRICAL_SURFACE('',#365,2.2);
#365 = AXIS2_PLACEMENT_3D('',#366,#367,#368);
#366 = CARTESIAN_POINT('',(-30.,78.1,30.));
#367 = DIRECTION('',(0.,-1.,0.));
#368 = DIRECTION('',(0.,-0.,-1.));
#369 = ADVANCED_FACE('',(#370),#389,.F.);
#370 = FACE_BOUND('',#371,.F.);
#371 = EDGE_LOOP('',(#372,#381,#387,#388));
#372 = ORIENTED_EDGE('',*,*,#373,.T.);
#373 = EDGE_CURVE('',#374,#374,#376,.T.);
#374 = VERTEX_POINT('',#375);
#375 = CARTESIAN_POINT('',(30.,75.7,-32.2));
#376 = CIRCLE('',#377,2.2);
#377 = AXIS2_PLACEMENT_3D('',#378,#379,#380);
#378 = CARTESIAN_POINT('',(30.,75.7,-30.));
#379 = DIRECTION('',(0.,-1.,0.));
#380 = DIRECTION('',(0.,-0.,-1.));
#381 = ORIENTED_EDGE('',*,*,#382,.T.);
#382 = EDGE_CURVE('',#374,#111,#383,.T.);
#383 = LINE('',#384,#385);
#384 = CARTESIAN_POINT('',(30.,78.1,-32.2));
#385 = VECTOR('',#386,1.);
#386 = DIRECTION('',(0.,-1.,0.));
#387 = ORIENTED_EDGE('',*,*,#110,.F.);
#388 = ORIENTED_EDGE('',*,*,#382,.F.);
#389 = CYLINDRICAL_SURFACE('',#390,2.2);
#390 = AXIS2_PLACEMENT_3D('',#391,#392,#393);
#391 = CARTESIAN_POINT('',(30.,78.1,-30.));
#392 = DIRECTION('',(0.,-1.,0.));
#393 = DIRECTION('',(0.,-0.,-1.));
#394 = ADVANCED_FACE('',(#395),#414,.F.);
#395 = FACE_BOUND('',#396,.F.);
#396 = EDGE_LOOP('',(#397,#406,#412,#413));
#397 = ORIENTED_EDGE('',*,*,#398,.T.);
#398 = EDGE_CURVE('',#399,#399,#401,.T.);
#399 = VERTEX_POINT('',#400);
#400 = CARTESIAN_POINT('',(30.,75.7,27.8));
#401 = CIRCLE('',#402,2.2);
#402 = AXIS2_PLACEMENT_3D('',#403,#404,#405);
#403 = CARTESIAN_POINT('',(30.,75.7,30.));
#404 = DIRECTION('',(0.,-1.,0.));
#405 = DIRECTION('',(0.,-0.,-1.));
#406 = ORIENTED_EDGE('',*,*,#407,.T.);
#407 = EDGE_CURVE('',#399,#125,#408,.T.);
#408 = LINE('',#409,#410);
#409 = CARTESIAN_POINT('',(30.,78.1,27.8));
#410 = VECTOR('',#411,1.);
#411 = DIRECTION('',(0.,-1.,0.));
#412 = ORIENTED_EDGE('',*,*,#124,.F.);
#413 = ORIENTED_EDGE('',*,*,#407,.F.);
#414 = CYLINDRICAL_SURFACE('',#415,2.2);
#415 = AXIS2_PLACEMENT_3D('',#416,#417,#418);
#416 = CARTESIAN_POINT('',(30.,78.1,30.));
#417 = DIRECTION('',(0.,-1.,0.));
#418 = DIRECTION('',(0.,-0.,-1.));
#419 = ADVANCED_FACE('',(#420),#439,.F.);
#420 = FACE_BOUND('',#421,.F.);
#421 = EDGE_LOOP('',(#422,#431,#437,#438));
#422 = ORIENTED_EDGE('',*,*,#423,.T.);
#423 = EDGE_CURVE('',#424,#424,#426,.T.);
#424 = VERTEX_POINT('',#425);
#425 = CARTESIAN_POINT('',(-21.65063509461,73.5,-14.2));
#426 = CIRCLE('',#427,1.7);
#427 = AXIS2_PLACEMENT_3D('',#428,#429,#430);
#428 = CARTESIAN_POINT('',(-21.65063509461,73.5,-12.5));
#429 = DIRECTION('',(0.,-1.,0.));
#430 = DIRECTION('',(0.,-0.,-1.));
#431 = ORIENTED_EDGE('',*,*,#432,.T.);
#432 = EDGE_CURVE('',#424,#145,#433,.T.);
#433 = LINE('',#434,#435);
#434 = CARTESIAN_POINT('',(-21.65063509461,75.1,-14.2));
#435 = VECTOR('',#436,1.);
#436 = DIRECTION('',(0.,-1.,0.));
#437 = ORIENTED_EDGE('',*,*,#144,.F.);
#438 = ORIENTED_EDGE('',*,*,#432,.F.);
#439 = CYLINDRICAL_SURFACE('',#440,1.7);
#440 = AXIS2_PLACEMENT_3D('',#441,#442,#443);
#441 = CARTESIAN_POINT('',(-21.65063509461,75.1,-12.5));
#442 = DIRECTION('',(0.,-1.,0.));
#443 = DIRECTION('',(0.,-0.,-1.));
#444 = ADVANCED_FACE('',(#445),#464,.F.);
#445 = FACE_BOUND('',#446,.F.);
#446 = EDGE_LOOP('',(#447,#456,#462,#463));
#447 = ORIENTED_EDGE('',*,*,#448,.T.);
#448 = EDGE_CURVE('',#449,#449,#451,.T.);
#449 = VERTEX_POINT('',#450);
#450 = CARTESIAN_POINT('',(-5.008805408513E-15,73.5,-26.7));
#451 = CIRCLE('',#452,1.7);
#452 = AXIS2_PLACEMENT_3D('',#453,#454,#455);
#453 = CARTESIAN_POINT('',(-4.592425496803E-15,73.5,-25.));
#454 = DIRECTION('',(0.,-1.,0.));
#455 = DIRECTION('',(0.,-0.,-1.));
#456 = ORIENTED_EDGE('',*,*,#457,.T.);
#457 = EDGE_CURVE('',#449,#156,#458,.T.);
#458 = LINE('',#459,#460);
#459 = CARTESIAN_POINT('',(-5.008805408513E-15,75.1,-26.7));
#460 = VECTOR('',#461,1.);
#461 = DIRECTION('',(0.,-1.,0.));
#462 = ORIENTED_EDGE('',*,*,#155,.F.);
#463 = ORIENTED_EDGE('',*,*,#457,.F.);
#464 = CYLINDRICAL_SURFACE('',#465,1.7);
#465 = AXIS2_PLACEMENT_3D('',#466,#467,#468);
#466 = CARTESIAN_POINT('',(-4.592425496803E-15,75.1,-25.));
#467 = DIRECTION('',(0.,-1.,0.));
#468 = DIRECTION('',(0.,-0.,-1.));
#469 = ADVANCED_FACE('',(#470),#489,.F.);
#470 = FACE_BOUND('',#471,.F.);
#471 = EDGE_LOOP('',(#472,#481,#487,#488));
#472 = ORIENTED_EDGE('',*,*,#473,.T.);
#473 = EDGE_CURVE('',#474,#474,#476,.T.);
#474 = VERTEX_POINT('',#475);
#475 = CARTESIAN_POINT('',(-21.65063509461,73.5,10.8));
#476 = CIRCLE('',#477,1.7);
#477 = AXIS2_PLACEMENT_3D('',#478,#479,#480);
#478 = CARTESIAN_POINT('',(-21.65063509461,73.5,12.5));
#479 = DIRECTION('',(0.,-1.,0.));
#480 = DIRECTION('',(0.,-0.,-1.));
#481 = ORIENTED_EDGE('',*,*,#482,.T.);
#482 = EDGE_CURVE('',#474,#167,#483,.T.);
#483 = LINE('',#484,#485);
#484 = CARTESIAN_POINT('',(-21.65063509461,75.1,10.8));
#485 = VECTOR('',#486,1.);
#486 = DIRECTION('',(0.,-1.,0.));
#487 = ORIENTED_EDGE('',*,*,#166,.F.);
#488 = ORIENTED_EDGE('',*,*,#482,.F.);
#489 = CYLINDRICAL_SURFACE('',#490,1.7);
#490 = AXIS2_PLACEMENT_3D('',#491,#492,#493);
#491 = CARTESIAN_POINT('',(-21.65063509461,75.1,12.5));
#492 = DIRECTION('',(0.,-1.,0.));
#493 = DIRECTION('',(0.,-0.,-1.));
#494 = ADVANCED_FACE('',(#495),#514,.F.);
#495 = FACE_BOUND('',#496,.F.);
#496 = EDGE_LOOP('',(#497,#506,#512,#513));
#497 = ORIENTED_EDGE('',*,*,#498,.T.);
#498 = EDGE_CURVE('',#499,#499,#501,.T.);
#499 = VERTEX_POINT('',#500);
#500 = CARTESIAN_POINT('',(21.650635094611,73.5,-14.2));
#501 = CIRCLE('',#502,1.7);
#502 = AXIS2_PLACEMENT_3D('',#503,#504,#505);
#503 = CARTESIAN_POINT('',(21.650635094611,73.5,-12.5));
#504 = DIRECTION('',(0.,-1.,0.));
#505 = DIRECTION('',(0.,-0.,-1.));
#506 = ORIENTED_EDGE('',*,*,#507,.T.);
#507 = EDGE_CURVE('',#499,#178,#508,.T.);
#508 = LINE('',#509,#510);
#509 = CARTESIAN_POINT('',(21.650635094611,75.1,-14.2));
#510 = VECTOR('',#511,1.);
#511 = DIRECTION('',(0.,-1.,0.));
#512 = ORIENTED_EDGE('',*,*,#177,.F.);
#513 = ORIENTED_EDGE('',*,*,#507,.F.);
#514 = CYLINDRICAL_SURFACE('',#515,1.7);
#515 = AXIS2_PLACEMENT_3D('',#516,#517,#518);
#516 = CARTESIAN_POINT('',(21.650635094611,75.1,-12.5));
#517 = DIRECTION('',(0.,-1.,0.));
#518 = DIRECTION('',(0.,-0.,-1.));
#519 = ADVANCED_FACE('',(#520),#539,.F.);
#520 = FACE_BOUND('',#521,.F.);
#521 = EDGE_LOOP('',(#522,#531,#537,#538));
#522 = ORIENTED_EDGE('',*,*,#523,.F.);
#523 = EDGE_CURVE('',#524,#524,#526,.T.);
#524 = VERTEX_POINT('',#525);
#525 = CARTESIAN_POINT('',(-4.947573068555E-15,75.,20.2));
#526 = CIRCLE('',#527,20.2);
#527 = AXIS2_PLACEMENT_3D('',#528,#529,#530);
#528 = CARTESIAN_POINT('',(0.,75.,0.));
#529 = DIRECTION('',(0.,1.,0.));
#530 = DIRECTION('',(0.,-0.,1.));
#531 = ORIENTED_EDGE('',*,*,#532,.F.);
#532 = EDGE_CURVE('',#189,#524,#533,.T.);
#533 = LINE('',#534,#535);
#534 = CARTESIAN_POINT('',(-4.947573068555E-15,71.,20.2));
#535 = VECTOR('',#536,1.);
#536 = DIRECTION('',(0.,1.,0.));
#537 = ORIENTED_EDGE('',*,*,#188,.T.);
#538 = ORIENTED_EDGE('',*,*,#532,.T.);
#539 = CYLINDRICAL_SURFACE('',#540,20.2);
#540 = AXIS2_PLACEMENT_3D('',#541,#542,#543);
#541 = CARTESIAN_POINT('',(0.,71.,0.));
#542 = DIRECTION('',(0.,1.,0.));
#543 = DIRECTION('',(0.,-0.,1.));
#544 = ADVANCED_FACE('',(#545),#564,.F.);
#545 = FACE_BOUND('',#546,.F.);
#546 = EDGE_LOOP('',(#547,#556,#562,#563));
#547 = ORIENTED_EDGE('',*,*,#548,.T.);
#548 = EDGE_CURVE('',#549,#549,#551,.T.);
#549 = VERTEX_POINT('',#550);
#550 = CARTESIAN_POINT('',(1.114428587224E-15,73.5,23.3));
#551 = CIRCLE('',#552,1.7);
#552 = AXIS2_PLACEMENT_3D('',#553,#554,#555);
#553 = CARTESIAN_POINT('',(1.530808498934E-15,73.5,25.));
#554 = DIRECTION('',(0.,-1.,0.));
#555 = DIRECTION('',(0.,-0.,-1.));
#556 = ORIENTED_EDGE('',*,*,#557,.T.);
#557 = EDGE_CURVE('',#549,#200,#558,.T.);
#558 = LINE('',#559,#560);
#559 = CARTESIAN_POINT('',(1.114428587224E-15,75.1,23.3));
#560 = VECTOR('',#561,1.);
#561 = DIRECTION('',(0.,-1.,0.));
#562 = ORIENTED_EDGE('',*,*,#199,.F.);
#563 = ORIENTED_EDGE('',*,*,#557,.F.);
#564 = CYLINDRICAL_SURFACE('',#565,1.7);
#565 = AXIS2_PLACEMENT_3D('',#566,#567,#568);
#566 = CARTESIAN_POINT('',(1.530808498934E-15,75.1,25.));
#567 = DIRECTION('',(0.,-1.,0.));
#568 = DIRECTION('',(0.,-0.,-1.));
#569 = ADVANCED_FACE('',(#570),#589,.F.);
#570 = FACE_BOUND('',#571,.F.);
#571 = EDGE_LOOP('',(#572,#581,#587,#588));
#572 = ORIENTED_EDGE('',*,*,#573,.T.);
#573 = EDGE_CURVE('',#574,#574,#576,.T.);
#574 = VERTEX_POINT('',#575);
#575 = CARTESIAN_POINT('',(21.650635094611,73.5,10.8));
#576 = CIRCLE('',#577,1.7);
#577 = AXIS2_PLACEMENT_3D('',#578,#579,#580);
#578 = CARTESIAN_POINT('',(21.650635094611,73.5,12.5));
#579 = DIRECTION('',(0.,-1.,0.));
#580 = DIRECTION('',(0.,-0.,-1.));
#581 = ORIENTED_EDGE('',*,*,#582,.T.);
#582 = EDGE_CURVE('',#574,#211,#583,.T.);
#583 = LINE('',#584,#585);
#584 = CARTESIAN_POINT('',(21.650635094611,75.1,10.8));
#585 = VECTOR('',#586,1.);
#586 = DIRECTION('',(0.,-1.,0.));
#587 = ORIENTED_EDGE('',*,*,#210,.F.);
#588 = ORIENTED_EDGE('',*,*,#582,.F.);
#589 = CYLINDRICAL_SURFACE('',#590,1.7);
#590 = AXIS2_PLACEMENT_3D('',#591,#592,#593);
#591 = CARTESIAN_POINT('',(21.650635094611,75.1,12.5));
#592 = DIRECTION('',(0.,-1.,0.));
#593 = DIRECTION('',(0.,-0.,-1.));
#594 = ADVANCED_FACE('',(#595,#601,#612,#623,#634,#645),#656,.T.);
#595 = FACE_BOUND('',#596,.T.);
#596 = EDGE_LOOP('',(#597,#598,#599,#600));
#597 = ORIENTED_EDGE('',*,*,#244,.F.);
#598 = ORIENTED_EDGE('',*,*,#284,.T.);
#599 = ORIENTED_EDGE('',*,*,#309,.T.);
#600 = ORIENTED_EDGE('',*,*,#260,.F.);
#601 = FACE_BOUND('',#602,.T.);
#602 = EDGE_LOOP('',(#603));
#603 = ORIENTED_EDGE('',*,*,#604,.T.);
#604 = EDGE_CURVE('',#605,#605,#607,.T.);
#605 = VERTEX_POINT('',#606);
#606 = CARTESIAN_POINT('',(-30.,78.,-34.5));
#607 = CIRCLE('',#608,4.5);
#608 = AXIS2_PLACEMENT_3D('',#609,#610,#611);
#609 = CARTESIAN_POINT('',(-30.,78.,-30.));
#610 = DIRECTION('',(0.,-1.,0.));
#611 = DIRECTION('',(0.,-0.,-1.));
#612 = FACE_BOUND('',#613,.T.);
#613 = EDGE_LOOP('',(#614));
#614 = ORIENTED_EDGE('',*,*,#615,.T.);
#615 = EDGE_CURVE('',#616,#616,#618,.T.);
#616 = VERTEX_POINT('',#617);
#617 = CARTESIAN_POINT('',(-30.,78.,25.5));
#618 = CIRCLE('',#619,4.5);
#619 = AXIS2_PLACEMENT_3D('',#620,#621,#622);
#620 = CARTESIAN_POINT('',(-30.,78.,30.));
#621 = DIRECTION('',(0.,-1.,0.));
#622 = DIRECTION('',(0.,-0.,-1.));
#623 = FACE_BOUND('',#624,.T.);
#624 = EDGE_LOOP('',(#625));
#625 = ORIENTED_EDGE('',*,*,#626,.T.);
#626 = EDGE_CURVE('',#627,#627,#629,.T.);
#627 = VERTEX_POINT('',#628);
#628 = CARTESIAN_POINT('',(30.,78.,-34.5));
#629 = CIRCLE('',#630,4.5);
#630 = AXIS2_PLACEMENT_3D('',#631,#632,#633);
#631 = CARTESIAN_POINT('',(30.,78.,-30.));
#632 = DIRECTION('',(0.,-1.,0.));
#633 = DIRECTION('',(0.,-0.,-1.));
#634 = FACE_BOUND('',#635,.T.);
#635 = EDGE_LOOP('',(#636));
#636 = ORIENTED_EDGE('',*,*,#637,.F.);
#637 = EDGE_CURVE('',#638,#638,#640,.T.);
#638 = VERTEX_POINT('',#639);
#639 = CARTESIAN_POINT('',(-7.102951435055E-15,78.,29.));
#640 = CIRCLE('',#641,29.);
#641 = AXIS2_PLACEMENT_3D('',#642,#643,#644);
#642 = CARTESIAN_POINT('',(0.,78.,0.));
#643 = DIRECTION('',(0.,1.,0.));
#644 = DIRECTION('',(0.,-0.,1.));
#645 = FACE_BOUND('',#646,.T.);
#646 = EDGE_LOOP('',(#647));
#647 = ORIENTED_EDGE('',*,*,#648,.T.);
#648 = EDGE_CURVE('',#649,#649,#651,.T.);
#649 = VERTEX_POINT('',#650);
#650 = CARTESIAN_POINT('',(30.,78.,25.5));
#651 = CIRCLE('',#652,4.5);
#652 = AXIS2_PLACEMENT_3D('',#653,#654,#655);
#653 = CARTESIAN_POINT('',(30.,78.,30.));
#654 = DIRECTION('',(0.,-1.,0.));
#655 = DIRECTION('',(0.,-0.,-1.));
#656 = PLANE('',#657);
#657 = AXIS2_PLACEMENT_3D('',#658,#659,#660);
#658 = CARTESIAN_POINT('',(-39.,78.,-39.));
#659 = DIRECTION('',(-0.,1.,0.));
#660 = DIRECTION('',(0.,0.,1.));
#661 = ADVANCED_FACE('',(#662),#673,.F.);
#662 = FACE_BOUND('',#663,.F.);
#663 = EDGE_LOOP('',(#664,#665,#671,#672));
#664 = ORIENTED_EDGE('',*,*,#323,.F.);
#665 = ORIENTED_EDGE('',*,*,#666,.F.);
#666 = EDGE_CURVE('',#605,#324,#667,.T.);
#667 = LINE('',#668,#669);
#668 = CARTESIAN_POINT('',(-30.,78.,-34.5));
#669 = VECTOR('',#670,1.);
#670 = DIRECTION('',(1.731912112471E-16,-0.707106781187,0.707106781187)
  );
#671 = ORIENTED_EDGE('',*,*,#604,.T.);
#672 = ORIENTED_EDGE('',*,*,#666,.T.);
#673 = CONICAL_SURFACE('',#674,4.5,0.785398163397);
#674 = AXIS2_PLACEMENT_3D('',#675,#676,#677);
#675 = CARTESIAN_POINT('',(-30.,78.,-30.));
#676 = DIRECTION('',(-0.,1.,-0.));
#677 = DIRECTION('',(0.,-0.,-1.));
#678 = ADVANCED_FACE('',(#679),#690,.F.);
#679 = FACE_BOUND('',#680,.F.);
#680 = EDGE_LOOP('',(#681,#682,#688,#689));
#681 = ORIENTED_EDGE('',*,*,#348,.F.);
#682 = ORIENTED_EDGE('',*,*,#683,.F.);
#683 = EDGE_CURVE('',#616,#349,#684,.T.);
#684 = LINE('',#685,#686);
#685 = CARTESIAN_POINT('',(-30.,78.,25.5));
#686 = VECTOR('',#687,1.);
#687 = DIRECTION('',(1.731912112471E-16,-0.707106781187,0.707106781187)
  );
#688 = ORIENTED_EDGE('',*,*,#615,.T.);
#689 = ORIENTED_EDGE('',*,*,#683,.T.);
#690 = CONICAL_SURFACE('',#691,4.5,0.785398163397);
#691 = AXIS2_PLACEMENT_3D('',#692,#693,#694);
#692 = CARTESIAN_POINT('',(-30.,78.,30.));
#693 = DIRECTION('',(-0.,1.,-0.));
#694 = DIRECTION('',(0.,-0.,-1.));
#695 = ADVANCED_FACE('',(#696),#707,.F.);
#696 = FACE_BOUND('',#697,.F.);
#697 = EDGE_LOOP('',(#698,#699,#705,#706));
#698 = ORIENTED_EDGE('',*,*,#373,.F.);
#699 = ORIENTED_EDGE('',*,*,#700,.F.);
#700 = EDGE_CURVE('',#627,#374,#701,.T.);
#701 = LINE('',#702,#703);
#702 = CARTESIAN_POINT('',(30.,78.,-34.5));
#703 = VECTOR('',#704,1.);
#704 = DIRECTION('',(1.731912112471E-16,-0.707106781187,0.707106781187)
  );
#705 = ORIENTED_EDGE('',*,*,#626,.T.);
#706 = ORIENTED_EDGE('',*,*,#700,.T.);
#707 = CONICAL_SURFACE('',#708,4.5,0.785398163397);
#708 = AXIS2_PLACEMENT_3D('',#709,#710,#711);
#709 = CARTESIAN_POINT('',(30.,78.,-30.));
#710 = DIRECTION('',(-0.,1.,-0.));
#711 = DIRECTION('',(0.,-0.,-1.));
#712 = ADVANCED_FACE('',(#713),#724,.F.);
#713 = FACE_BOUND('',#714,.F.);
#714 = EDGE_LOOP('',(#715,#716,#722,#723));
#715 = ORIENTED_EDGE('',*,*,#398,.F.);
#716 = ORIENTED_EDGE('',*,*,#717,.F.);
#717 = EDGE_CURVE('',#649,#399,#718,.T.);
#718 = LINE('',#719,#720);
#719 = CARTESIAN_POINT('',(30.,78.,25.5));
#720 = VECTOR('',#721,1.);
#721 = DIRECTION('',(1.731912112471E-16,-0.707106781187,0.707106781187)
  );
#722 = ORIENTED_EDGE('',*,*,#648,.T.);
#723 = ORIENTED_EDGE('',*,*,#717,.T.);
#724 = CONICAL_SURFACE('',#725,4.5,0.785398163397);
#725 = AXIS2_PLACEMENT_3D('',#726,#727,#728);
#726 = CARTESIAN_POINT('',(30.,78.,30.));
#727 = DIRECTION('',(-0.,1.,-0.));
#728 = DIRECTION('',(0.,-0.,-1.));
#729 = ADVANCED_FACE('',(#730),#749,.F.);
#730 = FACE_BOUND('',#731,.F.);
#731 = EDGE_LOOP('',(#732,#733,#741,#748));
#732 = ORIENTED_EDGE('',*,*,#423,.F.);
#733 = ORIENTED_EDGE('',*,*,#734,.F.);
#734 = EDGE_CURVE('',#735,#424,#737,.T.);
#735 = VERTEX_POINT('',#736);
#736 = CARTESIAN_POINT('',(-21.65063509461,75.,-15.7));
#737 = LINE('',#738,#739);
#738 = CARTESIAN_POINT('',(-21.65063509461,75.,-15.7));
#739 = VECTOR('',#740,1.);
#740 = DIRECTION('',(1.731912112471E-16,-0.707106781187,0.707106781187)
  );
#741 = ORIENTED_EDGE('',*,*,#742,.T.);
#742 = EDGE_CURVE('',#735,#735,#743,.T.);
#743 = CIRCLE('',#744,3.2);
#744 = AXIS2_PLACEMENT_3D('',#745,#746,#747);
#745 = CARTESIAN_POINT('',(-21.65063509461,75.,-12.5));
#746 = DIRECTION('',(0.,-1.,0.));
#747 = DIRECTION('',(0.,-0.,-1.));
#748 = ORIENTED_EDGE('',*,*,#734,.T.);
#749 = CONICAL_SURFACE('',#750,3.2,0.785398163397);
#750 = AXIS2_PLACEMENT_3D('',#751,#752,#753);
#751 = CARTESIAN_POINT('',(-21.65063509461,75.,-12.5));
#752 = DIRECTION('',(-0.,1.,-0.));
#753 = DIRECTION('',(0.,-0.,-1.));
#754 = ADVANCED_FACE('',(#755),#774,.F.);
#755 = FACE_BOUND('',#756,.F.);
#756 = EDGE_LOOP('',(#757,#758,#766,#773));
#757 = ORIENTED_EDGE('',*,*,#448,.F.);
#758 = ORIENTED_EDGE('',*,*,#759,.F.);
#759 = EDGE_CURVE('',#760,#449,#762,.T.);
#760 = VERTEX_POINT('',#761);
#761 = CARTESIAN_POINT('',(-5.376199448257E-15,75.,-28.2));
#762 = LINE('',#763,#764);
#763 = CARTESIAN_POINT('',(-5.376199448257E-15,75.,-28.2));
#764 = VECTOR('',#765,1.);
#765 = DIRECTION('',(1.731912112471E-16,-0.707106781187,0.707106781187)
  );
#766 = ORIENTED_EDGE('',*,*,#767,.T.);
#767 = EDGE_CURVE('',#760,#760,#768,.T.);
#768 = CIRCLE('',#769,3.2);
#769 = AXIS2_PLACEMENT_3D('',#770,#771,#772);
#770 = CARTESIAN_POINT('',(-4.592425496803E-15,75.,-25.));
#771 = DIRECTION('',(0.,-1.,0.));
#772 = DIRECTION('',(0.,-0.,-1.));
#773 = ORIENTED_EDGE('',*,*,#759,.T.);
#774 = CONICAL_SURFACE('',#775,3.2,0.785398163397);
#775 = AXIS2_PLACEMENT_3D('',#776,#777,#778);
#776 = CARTESIAN_POINT('',(-4.592425496803E-15,75.,-25.));
#777 = DIRECTION('',(-0.,1.,-0.));
#778 = DIRECTION('',(0.,-0.,-1.));
#779 = ADVANCED_FACE('',(#780),#799,.F.);
#780 = FACE_BOUND('',#781,.F.);
#781 = EDGE_LOOP('',(#782,#783,#791,#798));
#782 = ORIENTED_EDGE('',*,*,#473,.F.);
#783 = ORIENTED_EDGE('',*,*,#784,.F.);
#784 = EDGE_CURVE('',#785,#474,#787,.T.);
#785 = VERTEX_POINT('',#786);
#786 = CARTESIAN_POINT('',(-21.65063509461,75.,9.3));
#787 = LINE('',#788,#789);
#788 = CARTESIAN_POINT('',(-21.65063509461,75.,9.3));
#789 = VECTOR('',#790,1.);
#790 = DIRECTION('',(1.731912112471E-16,-0.707106781187,0.707106781187)
  );
#791 = ORIENTED_EDGE('',*,*,#792,.T.);
#792 = EDGE_CURVE('',#785,#785,#793,.T.);
#793 = CIRCLE('',#794,3.2);
#794 = AXIS2_PLACEMENT_3D('',#795,#796,#797);
#795 = CARTESIAN_POINT('',(-21.65063509461,75.,12.5));
#796 = DIRECTION('',(0.,-1.,0.));
#797 = DIRECTION('',(0.,-0.,-1.));
#798 = ORIENTED_EDGE('',*,*,#784,.T.);
#799 = CONICAL_SURFACE('',#800,3.2,0.785398163397);
#800 = AXIS2_PLACEMENT_3D('',#801,#802,#803);
#801 = CARTESIAN_POINT('',(-21.65063509461,75.,12.5));
#802 = DIRECTION('',(-0.,1.,-0.));
#803 = DIRECTION('',(0.,-0.,-1.));
#804 = ADVANCED_FACE('',(#805),#824,.F.);
#805 = FACE_BOUND('',#806,.F.);
#806 = EDGE_LOOP('',(#807,#808,#816,#823));
#807 = ORIENTED_EDGE('',*,*,#498,.F.);
#808 = ORIENTED_EDGE('',*,*,#809,.F.);
#809 = EDGE_CURVE('',#810,#499,#812,.T.);
#810 = VERTEX_POINT('',#811);
#811 = CARTESIAN_POINT('',(21.650635094611,75.,-15.7));
#812 = LINE('',#813,#814);
#813 = CARTESIAN_POINT('',(21.650635094611,75.,-15.7));
#814 = VECTOR('',#815,1.);
#815 = DIRECTION('',(1.731912112471E-16,-0.707106781187,0.707106781187)
  );
#816 = ORIENTED_EDGE('',*,*,#817,.T.);
#817 = EDGE_CURVE('',#810,#810,#818,.T.);
#818 = CIRCLE('',#819,3.2);
#819 = AXIS2_PLACEMENT_3D('',#820,#821,#822);
#820 = CARTESIAN_POINT('',(21.650635094611,75.,-12.5));
#821 = DIRECTION('',(0.,-1.,0.));
#822 = DIRECTION('',(0.,-0.,-1.));
#823 = ORIENTED_EDGE('',*,*,#809,.T.);
#824 = CONICAL_SURFACE('',#825,3.2,0.785398163397);
#825 = AXIS2_PLACEMENT_3D('',#826,#827,#828);
#826 = CARTESIAN_POINT('',(21.650635094611,75.,-12.5));
#827 = DIRECTION('',(-0.,1.,-0.));
#828 = DIRECTION('',(0.,-0.,-1.));
#829 = ADVANCED_FACE('',(#830,#841,#844,#847,#850,#853,#856,#867),#878,
  .T.);
#830 = FACE_BOUND('',#831,.T.);
#831 = EDGE_LOOP('',(#832));
#832 = ORIENTED_EDGE('',*,*,#833,.T.);
#833 = EDGE_CURVE('',#834,#834,#836,.T.);
#834 = VERTEX_POINT('',#835);
#835 = CARTESIAN_POINT('',(-7.102951435055E-15,75.,29.));
#836 = CIRCLE('',#837,29.);
#837 = AXIS2_PLACEMENT_3D('',#838,#839,#840);
#838 = CARTESIAN_POINT('',(0.,75.,0.));
#839 = DIRECTION('',(0.,1.,0.));
#840 = DIRECTION('',(0.,-0.,1.));
#841 = FACE_BOUND('',#842,.T.);
#842 = EDGE_LOOP('',(#843));
#843 = ORIENTED_EDGE('',*,*,#742,.T.);
#844 = FACE_BOUND('',#845,.T.);
#845 = EDGE_LOOP('',(#846));
#846 = ORIENTED_EDGE('',*,*,#767,.T.);
#847 = FACE_BOUND('',#848,.T.);
#848 = EDGE_LOOP('',(#849));
#849 = ORIENTED_EDGE('',*,*,#792,.T.);
#850 = FACE_BOUND('',#851,.T.);
#851 = EDGE_LOOP('',(#852));
#852 = ORIENTED_EDGE('',*,*,#817,.T.);
#853 = FACE_BOUND('',#854,.T.);
#854 = EDGE_LOOP('',(#855));
#855 = ORIENTED_EDGE('',*,*,#523,.F.);
#856 = FACE_BOUND('',#857,.T.);
#857 = EDGE_LOOP('',(#858));
#858 = ORIENTED_EDGE('',*,*,#859,.T.);
#859 = EDGE_CURVE('',#860,#860,#862,.T.);
#860 = VERTEX_POINT('',#861);
#861 = CARTESIAN_POINT('',(7.470345474799E-16,75.,21.8));
#862 = CIRCLE('',#863,3.2);
#863 = AXIS2_PLACEMENT_3D('',#864,#865,#866);
#864 = CARTESIAN_POINT('',(1.530808498934E-15,75.,25.));
#865 = DIRECTION('',(0.,-1.,0.));
#866 = DIRECTION('',(0.,-0.,-1.));
#867 = FACE_BOUND('',#868,.T.);
#868 = EDGE_LOOP('',(#869));
#869 = ORIENTED_EDGE('',*,*,#870,.T.);
#870 = EDGE_CURVE('',#871,#871,#873,.T.);
#871 = VERTEX_POINT('',#872);
#872 = CARTESIAN_POINT('',(21.650635094611,75.,9.3));
#873 = CIRCLE('',#874,3.2);
#874 = AXIS2_PLACEMENT_3D('',#875,#876,#877);
#875 = CARTESIAN_POINT('',(21.650635094611,75.,12.5));
#876 = DIRECTION('',(0.,-1.,0.));
#877 = DIRECTION('',(0.,-0.,-1.));
#878 = PLANE('',#879);
#879 = AXIS2_PLACEMENT_3D('',#880,#881,#882);
#880 = CARTESIAN_POINT('',(0.,75.,0.));
#881 = DIRECTION('',(0.,1.,0.));
#882 = DIRECTION('',(0.,-0.,1.));
#883 = ADVANCED_FACE('',(#884),#895,.F.);
#884 = FACE_BOUND('',#885,.F.);
#885 = EDGE_LOOP('',(#886,#887,#893,#894));
#886 = ORIENTED_EDGE('',*,*,#548,.F.);
#887 = ORIENTED_EDGE('',*,*,#888,.F.);
#888 = EDGE_CURVE('',#860,#549,#889,.T.);
#889 = LINE('',#890,#891);
#890 = CARTESIAN_POINT('',(7.470345474799E-16,75.,21.8));
#891 = VECTOR('',#892,1.);
#892 = DIRECTION('',(1.731912112471E-16,-0.707106781187,0.707106781187)
  );
#893 = ORIENTED_EDGE('',*,*,#859,.T.);
#894 = ORIENTED_EDGE('',*,*,#888,.T.);
#895 = CONICAL_SURFACE('',#896,3.2,0.785398163397);
#896 = AXIS2_PLACEMENT_3D('',#897,#898,#899);
#897 = CARTESIAN_POINT('',(1.530808498934E-15,75.,25.));
#898 = DIRECTION('',(-0.,1.,-0.));
#899 = DIRECTION('',(0.,-0.,-1.));
#900 = ADVANCED_FACE('',(#901),#912,.F.);
#901 = FACE_BOUND('',#902,.F.);
#902 = EDGE_LOOP('',(#903,#904,#910,#911));
#903 = ORIENTED_EDGE('',*,*,#573,.F.);
#904 = ORIENTED_EDGE('',*,*,#905,.F.);
#905 = EDGE_CURVE('',#871,#574,#906,.T.);
#906 = LINE('',#907,#908);
#907 = CARTESIAN_POINT('',(21.650635094611,75.,9.3));
#908 = VECTOR('',#909,1.);
#909 = DIRECTION('',(1.731912112471E-16,-0.707106781187,0.707106781187)
  );
#910 = ORIENTED_EDGE('',*,*,#870,.T.);
#911 = ORIENTED_EDGE('',*,*,#905,.T.);
#912 = CONICAL_SURFACE('',#913,3.2,0.785398163397);
#913 = AXIS2_PLACEMENT_3D('',#914,#915,#916);
#914 = CARTESIAN_POINT('',(21.650635094611,75.,12.5));
#915 = DIRECTION('',(-0.,1.,-0.));
#916 = DIRECTION('',(0.,-0.,-1.));
#917 = ADVANCED_FACE('',(#918),#929,.F.);
#918 = FACE_BOUND('',#919,.F.);
#919 = EDGE_LOOP('',(#920,#921,#927,#928));
#920 = ORIENTED_EDGE('',*,*,#637,.F.);
#921 = ORIENTED_EDGE('',*,*,#922,.F.);
#922 = EDGE_CURVE('',#834,#638,#923,.T.);
#923 = LINE('',#924,#925);
#924 = CARTESIAN_POINT('',(-7.102951435055E-15,74.9,29.));
#925 = VECTOR('',#926,1.);
#926 = DIRECTION('',(0.,1.,0.));
#927 = ORIENTED_EDGE('',*,*,#833,.T.);
#928 = ORIENTED_EDGE('',*,*,#922,.T.);
#929 = CYLINDRICAL_SURFACE('',#930,29.);
#930 = AXIS2_PLACEMENT_3D('',#931,#932,#933);
#931 = CARTESIAN_POINT('',(0.,74.9,0.));
#932 = DIRECTION('',(0.,1.,0.));
#933 = DIRECTION('',(0.,-0.,1.));
#934 = ( GEOMETRIC_REPRESENTATION_CONTEXT(3) 
GLOBAL_UNCERTAINTY_ASSIGNED_CONTEXT((#938)) GLOBAL_UNIT_ASSIGNED_CONTEXT
((#935,#936,#937)) REPRESENTATION_CONTEXT('Context #1',
  '3D Context with UNIT and UNCERTAINTY') );
#935 = ( LENGTH_UNIT() NAMED_UNIT(*) SI_UNIT(.MILLI.,.METRE.) );
#936 = ( NAMED_UNIT(*) PLANE_ANGLE_UNIT() SI_UNIT($,.RADIAN.) );
#937 = ( NAMED_UNIT(*) SI_UNIT($,.STERADIAN.) SOLID_ANGLE_UNIT() );
#938 = UNCERTAINTY_MEASURE_WITH_UNIT(LENGTH_MEASURE(1.E-07),#935,
  'distance_accuracy_value','confusion accuracy');
#939 = PRODUCT_RELATED_PRODUCT_CATEGORY('part',$,(#7));
ENDSEC;
END-ISO-10303-21;
