ISO-10303-21;
HEADER;
FILE_DESCRIPTION(('FreeCAD Model'),'2;1');
FILE_NAME('Open CASCADE Shape Model','2026-09-22T19:53:18',('FreeCAD'),(
    'FreeCAD'),'Open CASCADE STEP processor 7.8','FreeCAD','Unknown');
FILE_SCHEMA(('AUTOMOTIVE_DESIGN { 1 0 10303 214 1 1 1 1 }'));
ENDSEC;
DATA;
#1 = APPLICATION_PROTOCOL_DEFINITION('international standard',
  'automotive_design',2000,#2);
#2 = APPLICATION_CONTEXT(
  'core data for automotive mechanical design processes');
#3 = SHAPE_DEFINITION_REPRESENTATION(#4,#10);
#4 = PRODUCT_DEFINITION_SHAPE('','',#5);
#5 = PRODUCT_DEFINITION('design','',#6,#9);
#6 = PRODUCT_DEFINITION_FORMATION('','',#7);
#7 = PRODUCT('Open CASCADE STEP translator 7.8 40',
  'Open CASCADE STEP translator 7.8 40','',(#8));
#8 = PRODUCT_CONTEXT('',#2,'mechanical');
#9 = PRODUCT_DEFINITION_CONTEXT('part definition',#2,'design');
#10 = ADVANCED_BREP_SHAPE_REPRESENTATION('',(#11,#15),#935);
#11 = AXIS2_PLACEMENT_3D('',#12,#13,#14);
#12 = CARTESIAN_POINT('',(0.,0.,0.));
#13 = DIRECTION('',(0.,0.,1.));
#14 = DIRECTION('',(1.,0.,-0.));
#15 = MANIFOLD_SOLID_BREP('',#16);
#16 = CLOSED_SHELL('',(#17,#59,#95,#131,#225,#319,#339,#359,#379,#399,
    #419,#439,#451,#476,#501,#526,#551,#571,#591,#644,#697,#714,#731,
    #756,#781,#806,#831,#856,#881,#890,#899,#908,#917,#926));
#17 = ADVANCED_FACE('',(#18),#54,.T.);
#18 = FACE_BOUND('',#19,.F.);
#19 = EDGE_LOOP('',(#20,#30,#39,#47));
#20 = ORIENTED_EDGE('',*,*,#21,.T.);
#21 = EDGE_CURVE('',#22,#24,#26,.T.);
#22 = VERTEX_POINT('',#23);
#23 = CARTESIAN_POINT('',(8.,-140.1,-13.27591804735));
#24 = VERTEX_POINT('',#25);
#25 = CARTESIAN_POINT('',(8.,-148.1,-13.27591804735));
#26 = LINE('',#27,#28);
#27 = CARTESIAN_POINT('',(8.,-140.1,-13.27591804735));
#28 = VECTOR('',#29,1.);
#29 = DIRECTION('',(-0.,-1.,-0.));
#30 = ORIENTED_EDGE('',*,*,#31,.T.);
#31 = EDGE_CURVE('',#24,#32,#34,.T.);
#32 = VERTEX_POINT('',#33);
#33 = CARTESIAN_POINT('',(-8.,-148.1,-13.27591804735));
#34 = CIRCLE('',#35,15.5);
#35 = AXIS2_PLACEMENT_3D('',#36,#37,#38);
#36 = CARTESIAN_POINT('',(-3.225501528282E-15,-148.1,-2.49356300863E-16)
  );
#37 = DIRECTION('',(-0.,-1.,0.));
#38 = DIRECTION('',(0.516129032258,-0.,-0.856510841765));
#39 = ORIENTED_EDGE('',*,*,#40,.F.);
#40 = EDGE_CURVE('',#41,#32,#43,.T.);
#41 = VERTEX_POINT('',#42);
#42 = CARTESIAN_POINT('',(-8.,-140.1,-13.27591804735));
#43 = LINE('',#44,#45);
#44 = CARTESIAN_POINT('',(-8.,-140.1,-13.27591804735));
#45 = VECTOR('',#46,1.);
#46 = DIRECTION('',(-0.,-1.,-0.));
#47 = ORIENTED_EDGE('',*,*,#48,.F.);
#48 = EDGE_CURVE('',#22,#41,#49,.T.);
#49 = CIRCLE('',#50,15.5);
#50 = AXIS2_PLACEMENT_3D('',#51,#52,#53);
#51 = CARTESIAN_POINT('',(-3.225501528282E-15,-140.1,-2.49356300863E-16)
  );
#52 = DIRECTION('',(-0.,-1.,0.));
#53 = DIRECTION('',(0.516129032258,-0.,-0.856510841765));
#54 = CYLINDRICAL_SURFACE('',#55,15.5);
#55 = AXIS2_PLACEMENT_3D('',#56,#57,#58);
#56 = CARTESIAN_POINT('',(-3.225501528282E-15,-140.1,-2.49356300863E-16)
  );
#57 = DIRECTION('',(-0.,1.,-0.));
#58 = DIRECTION('',(0.516129032258,-0.,-0.856510841765));
#59 = ADVANCED_FACE('',(#60),#87,.F.);
#60 = FACE_BOUND('',#61,.F.);
#61 = EDGE_LOOP('',(#62,#72,#79,#80));
#62 = ORIENTED_EDGE('',*,*,#63,.T.);
#63 = EDGE_CURVE('',#64,#66,#68,.T.);
#64 = VERTEX_POINT('',#65);
#65 = CARTESIAN_POINT('',(7.,-140.1,-32.));
#66 = VERTEX_POINT('',#67);
#67 = CARTESIAN_POINT('',(7.,-148.1,-32.));
#68 = LINE('',#69,#70);
#69 = CARTESIAN_POINT('',(7.,-140.1,-32.));
#70 = VECTOR('',#71,1.);
#71 = DIRECTION('',(-0.,-1.,-0.));
#72 = ORIENTED_EDGE('',*,*,#73,.T.);
#73 = EDGE_CURVE('',#66,#24,#74,.T.);
#74 = B_SPLINE_CURVE_WITH_KNOTS('',3,(#75,#76,#77,#78),.UNSPECIFIED.,.F.
  ,.F.,(4,4),(0.,1.),.PIECEWISE_BEZIER_KNOTS.);
#75 = CARTESIAN_POINT('',(7.,-148.1,-32.));
#76 = CARTESIAN_POINT('',(7.,-148.1,-23.));
#77 = CARTESIAN_POINT('',(6.5,-148.1,-14.17981033993));
#78 = CARTESIAN_POINT('',(8.,-148.1,-13.27591804735));
#79 = ORIENTED_EDGE('',*,*,#21,.F.);
#80 = ORIENTED_EDGE('',*,*,#81,.F.);
#81 = EDGE_CURVE('',#64,#22,#82,.T.);
#82 = B_SPLINE_CURVE_WITH_KNOTS('',3,(#83,#84,#85,#86),.UNSPECIFIED.,.F.
  ,.F.,(4,4),(0.,1.),.PIECEWISE_BEZIER_KNOTS.);
#83 = CARTESIAN_POINT('',(7.,-140.1,-32.));
#84 = CARTESIAN_POINT('',(7.,-140.1,-23.));
#85 = CARTESIAN_POINT('',(6.5,-140.1,-14.17981033993));
#86 = CARTESIAN_POINT('',(8.,-140.1,-13.27591804735));
#87 = SURFACE_OF_LINEAR_EXTRUSION('',#88,#93);
#88 = B_SPLINE_CURVE_WITH_KNOTS('',3,(#89,#90,#91,#92),.UNSPECIFIED.,.F.
  ,.F.,(4,4),(0.,1.),.PIECEWISE_BEZIER_KNOTS.);
#89 = CARTESIAN_POINT('',(7.,-140.1,-32.));
#90 = CARTESIAN_POINT('',(7.,-140.1,-23.));
#91 = CARTESIAN_POINT('',(6.5,-140.1,-14.17981033993));
#92 = CARTESIAN_POINT('',(8.,-140.1,-13.27591804735));
#93 = VECTOR('',#94,1.);
#94 = DIRECTION('',(-0.,1.,-0.));
#95 = ADVANCED_FACE('',(#96),#123,.F.);
#96 = FACE_BOUND('',#97,.F.);
#97 = EDGE_LOOP('',(#98,#99,#108,#116));
#98 = ORIENTED_EDGE('',*,*,#40,.T.);
#99 = ORIENTED_EDGE('',*,*,#100,.T.);
#100 = EDGE_CURVE('',#32,#101,#103,.T.);
#101 = VERTEX_POINT('',#102);
#102 = CARTESIAN_POINT('',(-7.,-148.1,-32.));
#103 = B_SPLINE_CURVE_WITH_KNOTS('',3,(#104,#105,#106,#107),
  .UNSPECIFIED.,.F.,.F.,(4,4),(0.,1.),.PIECEWISE_BEZIER_KNOTS.);
#104 = CARTESIAN_POINT('',(-8.,-148.1,-13.27591804735));
#105 = CARTESIAN_POINT('',(-6.5,-148.1,-14.17981033993));
#106 = CARTESIAN_POINT('',(-7.,-148.1,-23.));
#107 = CARTESIAN_POINT('',(-7.,-148.1,-32.));
#108 = ORIENTED_EDGE('',*,*,#109,.F.);
#109 = EDGE_CURVE('',#110,#101,#112,.T.);
#110 = VERTEX_POINT('',#111);
#111 = CARTESIAN_POINT('',(-7.,-140.1,-32.));
#112 = LINE('',#113,#114);
#113 = CARTESIAN_POINT('',(-7.,-140.1,-32.));
#114 = VECTOR('',#115,1.);
#115 = DIRECTION('',(-0.,-1.,-0.));
#116 = ORIENTED_EDGE('',*,*,#117,.F.);
#117 = EDGE_CURVE('',#41,#110,#118,.T.);
#118 = B_SPLINE_CURVE_WITH_KNOTS('',3,(#119,#120,#121,#122),
  .UNSPECIFIED.,.F.,.F.,(4,4),(0.,1.),.PIECEWISE_BEZIER_KNOTS.);
#119 = CARTESIAN_POINT('',(-8.,-140.1,-13.27591804735));
#120 = CARTESIAN_POINT('',(-6.5,-140.1,-14.17981033993));
#121 = CARTESIAN_POINT('',(-7.,-140.1,-23.));
#122 = CARTESIAN_POINT('',(-7.,-140.1,-32.));
#123 = SURFACE_OF_LINEAR_EXTRUSION('',#124,#129);
#124 = B_SPLINE_CURVE_WITH_KNOTS('',3,(#125,#126,#127,#128),
  .UNSPECIFIED.,.F.,.F.,(4,4),(0.,1.),.PIECEWISE_BEZIER_KNOTS.);
#125 = CARTESIAN_POINT('',(-8.,-140.1,-13.27591804735));
#126 = CARTESIAN_POINT('',(-6.5,-140.1,-14.17981033993));
#127 = CARTESIAN_POINT('',(-7.,-140.1,-23.));
#128 = CARTESIAN_POINT('',(-7.,-140.1,-32.));
#129 = VECTOR('',#130,1.);
#130 = DIRECTION('',(-0.,1.,-0.));
#131 = ADVANCED_FACE('',(#132,#198,#209),#220,.T.);
#132 = FACE_BOUND('',#133,.F.);
#133 = EDGE_LOOP('',(#134,#135,#136,#145,#154,#163,#172,#181,#190,#197)
  );
#134 = ORIENTED_EDGE('',*,*,#48,.T.);
#135 = ORIENTED_EDGE('',*,*,#117,.T.);
#136 = ORIENTED_EDGE('',*,*,#137,.T.);
#137 = EDGE_CURVE('',#110,#138,#140,.T.);
#138 = VERTEX_POINT('',#139);
#139 = CARTESIAN_POINT('',(-6.2,-140.1,-65.));
#140 = B_SPLINE_CURVE_WITH_KNOTS('',3,(#141,#142,#143,#144),
  .UNSPECIFIED.,.F.,.F.,(4,4),(0.,1.),.PIECEWISE_BEZIER_KNOTS.);
#141 = CARTESIAN_POINT('',(-7.,-140.1,-32.));
#142 = CARTESIAN_POINT('',(-7.,-140.1,-48.));
#143 = CARTESIAN_POINT('',(-6.2,-140.1,-57.));
#144 = CARTESIAN_POINT('',(-6.2,-140.1,-65.));
#145 = ORIENTED_EDGE('',*,*,#146,.T.);
#146 = EDGE_CURVE('',#138,#147,#149,.T.);
#147 = VERTEX_POINT('',#148);
#148 = CARTESIAN_POINT('',(-7.,-140.1,-98.));
#149 = B_SPLINE_CURVE_WITH_KNOTS('',3,(#150,#151,#152,#153),
  .UNSPECIFIED.,.F.,.F.,(4,4),(0.,1.),.PIECEWISE_BEZIER_KNOTS.);
#150 = CARTESIAN_POINT('',(-6.2,-140.1,-65.));
#151 = CARTESIAN_POINT('',(-6.2,-140.1,-73.));
#152 = CARTESIAN_POINT('',(-7.,-140.1,-82.));
#153 = CARTESIAN_POINT('',(-7.,-140.1,-98.));
#154 = ORIENTED_EDGE('',*,*,#155,.T.);
#155 = EDGE_CURVE('',#147,#156,#158,.T.);
#156 = VERTEX_POINT('',#157);
#157 = CARTESIAN_POINT('',(-8.,-140.1,-116.7240819526));
#158 = B_SPLINE_CURVE_WITH_KNOTS('',3,(#159,#160,#161,#162),
  .UNSPECIFIED.,.F.,.F.,(4,4),(0.,1.),.PIECEWISE_BEZIER_KNOTS.);
#159 = CARTESIAN_POINT('',(-7.,-140.1,-98.));
#160 = CARTESIAN_POINT('',(-7.,-140.1,-107.));
#161 = CARTESIAN_POINT('',(-6.5,-140.1,-115.82018966));
#162 = CARTESIAN_POINT('',(-8.,-140.1,-116.7240819526));
#163 = ORIENTED_EDGE('',*,*,#164,.T.);
#164 = EDGE_CURVE('',#156,#165,#167,.T.);
#165 = VERTEX_POINT('',#166);
#166 = CARTESIAN_POINT('',(8.,-140.1,-116.7240819526));
#167 = CIRCLE('',#168,15.5);
#168 = AXIS2_PLACEMENT_3D('',#169,#170,#171);
#169 = CARTESIAN_POINT('',(3.225501528282E-15,-140.1,-130.));
#170 = DIRECTION('',(0.,-1.,-0.));
#171 = DIRECTION('',(-0.516129032258,-0.,0.856510841765));
#172 = ORIENTED_EDGE('',*,*,#173,.T.);
#173 = EDGE_CURVE('',#165,#174,#176,.T.);
#174 = VERTEX_POINT('',#175);
#175 = CARTESIAN_POINT('',(7.,-140.1,-98.));
#176 = B_SPLINE_CURVE_WITH_KNOTS('',3,(#177,#178,#179,#180),
  .UNSPECIFIED.,.F.,.F.,(4,4),(0.,1.),.PIECEWISE_BEZIER_KNOTS.);
#177 = CARTESIAN_POINT('',(8.,-140.1,-116.7240819526));
#178 = CARTESIAN_POINT('',(6.5,-140.1,-115.82018966));
#179 = CARTESIAN_POINT('',(7.,-140.1,-107.));
#180 = CARTESIAN_POINT('',(7.,-140.1,-98.));
#181 = ORIENTED_EDGE('',*,*,#182,.T.);
#182 = EDGE_CURVE('',#174,#183,#185,.T.);
#183 = VERTEX_POINT('',#184);
#184 = CARTESIAN_POINT('',(6.2,-140.1,-65.));
#185 = B_SPLINE_CURVE_WITH_KNOTS('',3,(#186,#187,#188,#189),
  .UNSPECIFIED.,.F.,.F.,(4,4),(0.,1.),.PIECEWISE_BEZIER_KNOTS.);
#186 = CARTESIAN_POINT('',(7.,-140.1,-98.));
#187 = CARTESIAN_POINT('',(7.,-140.1,-82.));
#188 = CARTESIAN_POINT('',(6.2,-140.1,-73.));
#189 = CARTESIAN_POINT('',(6.2,-140.1,-65.));
#190 = ORIENTED_EDGE('',*,*,#191,.T.);
#191 = EDGE_CURVE('',#183,#64,#192,.T.);
#192 = B_SPLINE_CURVE_WITH_KNOTS('',3,(#193,#194,#195,#196),
  .UNSPECIFIED.,.F.,.F.,(4,4),(0.,1.),.PIECEWISE_BEZIER_KNOTS.);
#193 = CARTESIAN_POINT('',(6.2,-140.1,-65.));
#194 = CARTESIAN_POINT('',(6.2,-140.1,-57.));
#195 = CARTESIAN_POINT('',(7.,-140.1,-48.));
#196 = CARTESIAN_POINT('',(7.,-140.1,-32.));
#197 = ORIENTED_EDGE('',*,*,#81,.T.);
#198 = FACE_BOUND('',#199,.F.);
#199 = EDGE_LOOP('',(#200));
#200 = ORIENTED_EDGE('',*,*,#201,.T.);
#201 = EDGE_CURVE('',#202,#202,#204,.T.);
#202 = VERTEX_POINT('',#203);
#203 = CARTESIAN_POINT('',(-2.057406622568E-15,-140.1,8.4));
#204 = CIRCLE('',#205,8.4);
#205 = AXIS2_PLACEMENT_3D('',#206,#207,#208);
#206 = CARTESIAN_POINT('',(0.,-140.1,0.));
#207 = DIRECTION('',(0.,1.,0.));
#208 = DIRECTION('',(-0.,-0.,1.));
#209 = FACE_BOUND('',#210,.F.);
#210 = EDGE_LOOP('',(#211));
#211 = ORIENTED_EDGE('',*,*,#212,.T.);
#212 = EDGE_CURVE('',#213,#213,#215,.T.);
#213 = VERTEX_POINT('',#214);
#214 = CARTESIAN_POINT('',(-2.057406622568E-15,-140.1,-121.6));
#215 = CIRCLE('',#216,8.4);
#216 = AXIS2_PLACEMENT_3D('',#217,#218,#219);
#217 = CARTESIAN_POINT('',(0.,-140.1,-130.));
#218 = DIRECTION('',(0.,1.,0.));
#219 = DIRECTION('',(-0.,-0.,1.));
#220 = PLANE('',#221);
#221 = AXIS2_PLACEMENT_3D('',#222,#223,#224);
#222 = CARTESIAN_POINT('',(1.322602671242E-16,-140.1,-65.));
#223 = DIRECTION('',(-0.,1.,-0.));
#224 = DIRECTION('',(0.,0.,1.));
#225 = ADVANCED_FACE('',(#226,#292,#303),#314,.F.);
#226 = FACE_BOUND('',#227,.T.);
#227 = EDGE_LOOP('',(#228,#229,#230,#239,#248,#257,#266,#275,#284,#291)
  );
#228 = ORIENTED_EDGE('',*,*,#31,.T.);
#229 = ORIENTED_EDGE('',*,*,#100,.T.);
#230 = ORIENTED_EDGE('',*,*,#231,.T.);
#231 = EDGE_CURVE('',#101,#232,#234,.T.);
#232 = VERTEX_POINT('',#233);
#233 = CARTESIAN_POINT('',(-6.2,-148.1,-65.));
#234 = B_SPLINE_CURVE_WITH_KNOTS('',3,(#235,#236,#237,#238),
  .UNSPECIFIED.,.F.,.F.,(4,4),(0.,1.),.PIECEWISE_BEZIER_KNOTS.);
#235 = CARTESIAN_POINT('',(-7.,-148.1,-32.));
#236 = CARTESIAN_POINT('',(-7.,-148.1,-48.));
#237 = CARTESIAN_POINT('',(-6.2,-148.1,-57.));
#238 = CARTESIAN_POINT('',(-6.2,-148.1,-65.));
#239 = ORIENTED_EDGE('',*,*,#240,.T.);
#240 = EDGE_CURVE('',#232,#241,#243,.T.);
#241 = VERTEX_POINT('',#242);
#242 = CARTESIAN_POINT('',(-7.,-148.1,-98.));
#243 = B_SPLINE_CURVE_WITH_KNOTS('',3,(#244,#245,#246,#247),
  .UNSPECIFIED.,.F.,.F.,(4,4),(0.,1.),.PIECEWISE_BEZIER_KNOTS.);
#244 = CARTESIAN_POINT('',(-6.2,-148.1,-65.));
#245 = CARTESIAN_POINT('',(-6.2,-148.1,-73.));
#246 = CARTESIAN_POINT('',(-7.,-148.1,-82.));
#247 = CARTESIAN_POINT('',(-7.,-148.1,-98.));
#248 = ORIENTED_EDGE('',*,*,#249,.T.);
#249 = EDGE_CURVE('',#241,#250,#252,.T.);
#250 = VERTEX_POINT('',#251);
#251 = CARTESIAN_POINT('',(-8.,-148.1,-116.7240819526));
#252 = B_SPLINE_CURVE_WITH_KNOTS('',3,(#253,#254,#255,#256),
  .UNSPECIFIED.,.F.,.F.,(4,4),(0.,1.),.PIECEWISE_BEZIER_KNOTS.);
#253 = CARTESIAN_POINT('',(-7.,-148.1,-98.));
#254 = CARTESIAN_POINT('',(-7.,-148.1,-107.));
#255 = CARTESIAN_POINT('',(-6.5,-148.1,-115.82018966));
#256 = CARTESIAN_POINT('',(-8.,-148.1,-116.7240819526));
#257 = ORIENTED_EDGE('',*,*,#258,.T.);
#258 = EDGE_CURVE('',#250,#259,#261,.T.);
#259 = VERTEX_POINT('',#260);
#260 = CARTESIAN_POINT('',(8.,-148.1,-116.7240819526));
#261 = CIRCLE('',#262,15.5);
#262 = AXIS2_PLACEMENT_3D('',#263,#264,#265);
#263 = CARTESIAN_POINT('',(3.225501528282E-15,-148.1,-130.));
#264 = DIRECTION('',(0.,-1.,-0.));
#265 = DIRECTION('',(-0.516129032258,-0.,0.856510841765));
#266 = ORIENTED_EDGE('',*,*,#267,.T.);
#267 = EDGE_CURVE('',#259,#268,#270,.T.);
#268 = VERTEX_POINT('',#269);
#269 = CARTESIAN_POINT('',(7.,-148.1,-98.));
#270 = B_SPLINE_CURVE_WITH_KNOTS('',3,(#271,#272,#273,#274),
  .UNSPECIFIED.,.F.,.F.,(4,4),(0.,1.),.PIECEWISE_BEZIER_KNOTS.);
#271 = CARTESIAN_POINT('',(8.,-148.1,-116.7240819526));
#272 = CARTESIAN_POINT('',(6.5,-148.1,-115.82018966));
#273 = CARTESIAN_POINT('',(7.,-148.1,-107.));
#274 = CARTESIAN_POINT('',(7.,-148.1,-98.));
#275 = ORIENTED_EDGE('',*,*,#276,.T.);
#276 = EDGE_CURVE('',#268,#277,#279,.T.);
#277 = VERTEX_POINT('',#278);
#278 = CARTESIAN_POINT('',(6.2,-148.1,-65.));
#279 = B_SPLINE_CURVE_WITH_KNOTS('',3,(#280,#281,#282,#283),
  .UNSPECIFIED.,.F.,.F.,(4,4),(0.,1.),.PIECEWISE_BEZIER_KNOTS.);
#280 = CARTESIAN_POINT('',(7.,-148.1,-98.));
#281 = CARTESIAN_POINT('',(7.,-148.1,-82.));
#282 = CARTESIAN_POINT('',(6.2,-148.1,-73.));
#283 = CARTESIAN_POINT('',(6.2,-148.1,-65.));
#284 = ORIENTED_EDGE('',*,*,#285,.T.);
#285 = EDGE_CURVE('',#277,#66,#286,.T.);
#286 = B_SPLINE_CURVE_WITH_KNOTS('',3,(#287,#288,#289,#290),
  .UNSPECIFIED.,.F.,.F.,(4,4),(0.,1.),.PIECEWISE_BEZIER_KNOTS.);
#287 = CARTESIAN_POINT('',(6.2,-148.1,-65.));
#288 = CARTESIAN_POINT('',(6.2,-148.1,-57.));
#289 = CARTESIAN_POINT('',(7.,-148.1,-48.));
#290 = CARTESIAN_POINT('',(7.,-148.1,-32.));
#291 = ORIENTED_EDGE('',*,*,#73,.T.);
#292 = FACE_BOUND('',#293,.T.);
#293 = EDGE_LOOP('',(#294));
#294 = ORIENTED_EDGE('',*,*,#295,.T.);
#295 = EDGE_CURVE('',#296,#296,#298,.T.);
#296 = VERTEX_POINT('',#297);
#297 = CARTESIAN_POINT('',(-3.453503973596E-15,-148.1,14.1));
#298 = CIRCLE('',#299,14.1);
#299 = AXIS2_PLACEMENT_3D('',#300,#301,#302);
#300 = CARTESIAN_POINT('',(0.,-148.1,0.));
#301 = DIRECTION('',(0.,1.,0.));
#302 = DIRECTION('',(-0.,-0.,1.));
#303 = FACE_BOUND('',#304,.T.);
#304 = EDGE_LOOP('',(#305));
#305 = ORIENTED_EDGE('',*,*,#306,.T.);
#306 = EDGE_CURVE('',#307,#307,#309,.T.);
#307 = VERTEX_POINT('',#308);
#308 = CARTESIAN_POINT('',(-3.453503973596E-15,-148.1,-115.9));
#309 = CIRCLE('',#310,14.1);
#310 = AXIS2_PLACEMENT_3D('',#311,#312,#313);
#311 = CARTESIAN_POINT('',(0.,-148.1,-130.));
#312 = DIRECTION('',(0.,1.,0.));
#313 = DIRECTION('',(-0.,-0.,1.));
#314 = PLANE('',#315);
#315 = AXIS2_PLACEMENT_3D('',#316,#317,#318);
#316 = CARTESIAN_POINT('',(1.322602671242E-16,-148.1,-65.));
#317 = DIRECTION('',(-0.,1.,-0.));
#318 = DIRECTION('',(0.,0.,1.));
#319 = ADVANCED_FACE('',(#320),#331,.F.);
#320 = FACE_BOUND('',#321,.F.);
#321 = EDGE_LOOP('',(#322,#328,#329,#330));
#322 = ORIENTED_EDGE('',*,*,#323,.T.);
#323 = EDGE_CURVE('',#183,#277,#324,.T.);
#324 = LINE('',#325,#326);
#325 = CARTESIAN_POINT('',(6.2,-140.1,-65.));
#326 = VECTOR('',#327,1.);
#327 = DIRECTION('',(-0.,-1.,-0.));
#328 = ORIENTED_EDGE('',*,*,#285,.T.);
#329 = ORIENTED_EDGE('',*,*,#63,.F.);
#330 = ORIENTED_EDGE('',*,*,#191,.F.);
#331 = SURFACE_OF_LINEAR_EXTRUSION('',#332,#337);
#332 = B_SPLINE_CURVE_WITH_KNOTS('',3,(#333,#334,#335,#336),
  .UNSPECIFIED.,.F.,.F.,(4,4),(0.,1.),.PIECEWISE_BEZIER_KNOTS.);
#333 = CARTESIAN_POINT('',(6.2,-140.1,-65.));
#334 = CARTESIAN_POINT('',(6.2,-140.1,-57.));
#335 = CARTESIAN_POINT('',(7.,-140.1,-48.));
#336 = CARTESIAN_POINT('',(7.,-140.1,-32.));
#337 = VECTOR('',#338,1.);
#338 = DIRECTION('',(-0.,1.,-0.));
#339 = ADVANCED_FACE('',(#340),#351,.F.);
#340 = FACE_BOUND('',#341,.F.);
#341 = EDGE_LOOP('',(#342,#343,#344,#350));
#342 = ORIENTED_EDGE('',*,*,#109,.T.);
#343 = ORIENTED_EDGE('',*,*,#231,.T.);
#344 = ORIENTED_EDGE('',*,*,#345,.F.);
#345 = EDGE_CURVE('',#138,#232,#346,.T.);
#346 = LINE('',#347,#348);
#347 = CARTESIAN_POINT('',(-6.2,-140.1,-65.));
#348 = VECTOR('',#349,1.);
#349 = DIRECTION('',(-0.,-1.,-0.));
#350 = ORIENTED_EDGE('',*,*,#137,.F.);
#351 = SURFACE_OF_LINEAR_EXTRUSION('',#352,#357);
#352 = B_SPLINE_CURVE_WITH_KNOTS('',3,(#353,#354,#355,#356),
  .UNSPECIFIED.,.F.,.F.,(4,4),(0.,1.),.PIECEWISE_BEZIER_KNOTS.);
#353 = CARTESIAN_POINT('',(-7.,-140.1,-32.));
#354 = CARTESIAN_POINT('',(-7.,-140.1,-48.));
#355 = CARTESIAN_POINT('',(-6.2,-140.1,-57.));
#356 = CARTESIAN_POINT('',(-6.2,-140.1,-65.));
#357 = VECTOR('',#358,1.);
#358 = DIRECTION('',(-0.,1.,-0.));
#359 = ADVANCED_FACE('',(#360),#371,.F.);
#360 = FACE_BOUND('',#361,.F.);
#361 = EDGE_LOOP('',(#362,#368,#369,#370));
#362 = ORIENTED_EDGE('',*,*,#363,.T.);
#363 = EDGE_CURVE('',#174,#268,#364,.T.);
#364 = LINE('',#365,#366);
#365 = CARTESIAN_POINT('',(7.,-140.1,-98.));
#366 = VECTOR('',#367,1.);
#367 = DIRECTION('',(-0.,-1.,-0.));
#368 = ORIENTED_EDGE('',*,*,#276,.T.);
#369 = ORIENTED_EDGE('',*,*,#323,.F.);
#370 = ORIENTED_EDGE('',*,*,#182,.F.);
#371 = SURFACE_OF_LINEAR_EXTRUSION('',#372,#377);
#372 = B_SPLINE_CURVE_WITH_KNOTS('',3,(#373,#374,#375,#376),
  .UNSPECIFIED.,.F.,.F.,(4,4),(0.,1.),.PIECEWISE_BEZIER_KNOTS.);
#373 = CARTESIAN_POINT('',(7.,-140.1,-98.));
#374 = CARTESIAN_POINT('',(7.,-140.1,-82.));
#375 = CARTESIAN_POINT('',(6.2,-140.1,-73.));
#376 = CARTESIAN_POINT('',(6.2,-140.1,-65.));
#377 = VECTOR('',#378,1.);
#378 = DIRECTION('',(-0.,1.,-0.));
#379 = ADVANCED_FACE('',(#380),#391,.F.);
#380 = FACE_BOUND('',#381,.F.);
#381 = EDGE_LOOP('',(#382,#383,#384,#390));
#382 = ORIENTED_EDGE('',*,*,#345,.T.);
#383 = ORIENTED_EDGE('',*,*,#240,.T.);
#384 = ORIENTED_EDGE('',*,*,#385,.F.);
#385 = EDGE_CURVE('',#147,#241,#386,.T.);
#386 = LINE('',#387,#388);
#387 = CARTESIAN_POINT('',(-7.,-140.1,-98.));
#388 = VECTOR('',#389,1.);
#389 = DIRECTION('',(-0.,-1.,-0.));
#390 = ORIENTED_EDGE('',*,*,#146,.F.);
#391 = SURFACE_OF_LINEAR_EXTRUSION('',#392,#397);
#392 = B_SPLINE_CURVE_WITH_KNOTS('',3,(#393,#394,#395,#396),
  .UNSPECIFIED.,.F.,.F.,(4,4),(0.,1.),.PIECEWISE_BEZIER_KNOTS.);
#393 = CARTESIAN_POINT('',(-6.2,-140.1,-65.));
#394 = CARTESIAN_POINT('',(-6.2,-140.1,-73.));
#395 = CARTESIAN_POINT('',(-7.,-140.1,-82.));
#396 = CARTESIAN_POINT('',(-7.,-140.1,-98.));
#397 = VECTOR('',#398,1.);
#398 = DIRECTION('',(-0.,1.,-0.));
#399 = ADVANCED_FACE('',(#400),#411,.F.);
#400 = FACE_BOUND('',#401,.F.);
#401 = EDGE_LOOP('',(#402,#408,#409,#410));
#402 = ORIENTED_EDGE('',*,*,#403,.T.);
#403 = EDGE_CURVE('',#165,#259,#404,.T.);
#404 = LINE('',#405,#406);
#405 = CARTESIAN_POINT('',(8.,-140.1,-116.7240819526));
#406 = VECTOR('',#407,1.);
#407 = DIRECTION('',(-0.,-1.,-0.));
#408 = ORIENTED_EDGE('',*,*,#267,.T.);
#409 = ORIENTED_EDGE('',*,*,#363,.F.);
#410 = ORIENTED_EDGE('',*,*,#173,.F.);
#411 = SURFACE_OF_LINEAR_EXTRUSION('',#412,#417);
#412 = B_SPLINE_CURVE_WITH_KNOTS('',3,(#413,#414,#415,#416),
  .UNSPECIFIED.,.F.,.F.,(4,4),(0.,1.),.PIECEWISE_BEZIER_KNOTS.);
#413 = CARTESIAN_POINT('',(8.,-140.1,-116.7240819526));
#414 = CARTESIAN_POINT('',(6.5,-140.1,-115.82018966));
#415 = CARTESIAN_POINT('',(7.,-140.1,-107.));
#416 = CARTESIAN_POINT('',(7.,-140.1,-98.));
#417 = VECTOR('',#418,1.);
#418 = DIRECTION('',(-0.,1.,-0.));
#419 = ADVANCED_FACE('',(#420),#431,.F.);
#420 = FACE_BOUND('',#421,.F.);
#421 = EDGE_LOOP('',(#422,#423,#424,#430));
#422 = ORIENTED_EDGE('',*,*,#385,.T.);
#423 = ORIENTED_EDGE('',*,*,#249,.T.);
#424 = ORIENTED_EDGE('',*,*,#425,.F.);
#425 = EDGE_CURVE('',#156,#250,#426,.T.);
#426 = LINE('',#427,#428);
#427 = CARTESIAN_POINT('',(-8.,-140.1,-116.7240819526));
#428 = VECTOR('',#429,1.);
#429 = DIRECTION('',(-0.,-1.,-0.));
#430 = ORIENTED_EDGE('',*,*,#155,.F.);
#431 = SURFACE_OF_LINEAR_EXTRUSION('',#432,#437);
#432 = B_SPLINE_CURVE_WITH_KNOTS('',3,(#433,#434,#435,#436),
  .UNSPECIFIED.,.F.,.F.,(4,4),(0.,1.),.PIECEWISE_BEZIER_KNOTS.);
#433 = CARTESIAN_POINT('',(-7.,-140.1,-98.));
#434 = CARTESIAN_POINT('',(-7.,-140.1,-107.));
#435 = CARTESIAN_POINT('',(-6.5,-140.1,-115.82018966));
#436 = CARTESIAN_POINT('',(-8.,-140.1,-116.7240819526));
#437 = VECTOR('',#438,1.);
#438 = DIRECTION('',(-0.,1.,-0.));
#439 = ADVANCED_FACE('',(#440),#446,.T.);
#440 = FACE_BOUND('',#441,.F.);
#441 = EDGE_LOOP('',(#442,#443,#444,#445));
#442 = ORIENTED_EDGE('',*,*,#425,.T.);
#443 = ORIENTED_EDGE('',*,*,#258,.T.);
#444 = ORIENTED_EDGE('',*,*,#403,.F.);
#445 = ORIENTED_EDGE('',*,*,#164,.F.);
#446 = CYLINDRICAL_SURFACE('',#447,15.5);
#447 = AXIS2_PLACEMENT_3D('',#448,#449,#450);
#448 = CARTESIAN_POINT('',(3.225501528282E-15,-140.1,-130.));
#449 = DIRECTION('',(-0.,1.,-0.));
#450 = DIRECTION('',(-0.516129032258,-0.,0.856510841765));
#451 = ADVANCED_FACE('',(#452),#471,.F.);
#452 = FACE_BOUND('',#453,.T.);
#453 = EDGE_LOOP('',(#454,#463,#469,#470));
#454 = ORIENTED_EDGE('',*,*,#455,.F.);
#455 = EDGE_CURVE('',#456,#456,#458,.T.);
#456 = VERTEX_POINT('',#457);
#457 = CARTESIAN_POINT('',(-2.057406622568E-15,-140.85,8.4));
#458 = CIRCLE('',#459,8.4);
#459 = AXIS2_PLACEMENT_3D('',#460,#461,#462);
#460 = CARTESIAN_POINT('',(0.,-140.85,0.));
#461 = DIRECTION('',(0.,1.,0.));
#462 = DIRECTION('',(-0.,-0.,1.));
#463 = ORIENTED_EDGE('',*,*,#464,.F.);
#464 = EDGE_CURVE('',#202,#456,#465,.T.);
#465 = LINE('',#466,#467);
#466 = CARTESIAN_POINT('',(-2.057406622568E-15,-140.,8.4));
#467 = VECTOR('',#468,1.);
#468 = DIRECTION('',(-0.,-1.,-0.));
#469 = ORIENTED_EDGE('',*,*,#201,.T.);
#470 = ORIENTED_EDGE('',*,*,#464,.T.);
#471 = CYLINDRICAL_SURFACE('',#472,8.4);
#472 = AXIS2_PLACEMENT_3D('',#473,#474,#475);
#473 = CARTESIAN_POINT('',(0.,-140.,0.));
#474 = DIRECTION('',(-0.,-1.,-0.));
#475 = DIRECTION('',(-0.,-0.,1.));
#476 = ADVANCED_FACE('',(#477),#496,.F.);
#477 = FACE_BOUND('',#478,.T.);
#478 = EDGE_LOOP('',(#479,#488,#494,#495));
#479 = ORIENTED_EDGE('',*,*,#480,.F.);
#480 = EDGE_CURVE('',#481,#481,#483,.T.);
#481 = VERTEX_POINT('',#482);
#482 = CARTESIAN_POINT('',(-2.057406622568E-15,-140.85,-121.6));
#483 = CIRCLE('',#484,8.4);
#484 = AXIS2_PLACEMENT_3D('',#485,#486,#487);
#485 = CARTESIAN_POINT('',(0.,-140.85,-130.));
#486 = DIRECTION('',(0.,1.,0.));
#487 = DIRECTION('',(-0.,-0.,1.));
#488 = ORIENTED_EDGE('',*,*,#489,.F.);
#489 = EDGE_CURVE('',#213,#481,#490,.T.);
#490 = LINE('',#491,#492);
#491 = CARTESIAN_POINT('',(-2.057406622568E-15,-140.,-121.6));
#492 = VECTOR('',#493,1.);
#493 = DIRECTION('',(-0.,-1.,-0.));
#494 = ORIENTED_EDGE('',*,*,#212,.T.);
#495 = ORIENTED_EDGE('',*,*,#489,.T.);
#496 = CYLINDRICAL_SURFACE('',#497,8.4);
#497 = AXIS2_PLACEMENT_3D('',#498,#499,#500);
#498 = CARTESIAN_POINT('',(0.,-140.,-130.));
#499 = DIRECTION('',(-0.,-1.,-0.));
#500 = DIRECTION('',(-0.,-0.,1.));
#501 = ADVANCED_FACE('',(#502),#521,.F.);
#502 = FACE_BOUND('',#503,.T.);
#503 = EDGE_LOOP('',(#504,#505,#513,#520));
#504 = ORIENTED_EDGE('',*,*,#295,.F.);
#505 = ORIENTED_EDGE('',*,*,#506,.F.);
#506 = EDGE_CURVE('',#507,#296,#509,.T.);
#507 = VERTEX_POINT('',#508);
#508 = CARTESIAN_POINT('',(-3.453503973596E-15,-146.9,14.1));
#509 = LINE('',#510,#511);
#510 = CARTESIAN_POINT('',(-3.453503973596E-15,-146.9,14.1));
#511 = VECTOR('',#512,1.);
#512 = DIRECTION('',(-0.,-1.,-0.));
#513 = ORIENTED_EDGE('',*,*,#514,.T.);
#514 = EDGE_CURVE('',#507,#507,#515,.T.);
#515 = CIRCLE('',#516,14.1);
#516 = AXIS2_PLACEMENT_3D('',#517,#518,#519);
#517 = CARTESIAN_POINT('',(0.,-146.9,0.));
#518 = DIRECTION('',(0.,1.,0.));
#519 = DIRECTION('',(-0.,-0.,1.));
#520 = ORIENTED_EDGE('',*,*,#506,.T.);
#521 = CYLINDRICAL_SURFACE('',#522,14.1);
#522 = AXIS2_PLACEMENT_3D('',#523,#524,#525);
#523 = CARTESIAN_POINT('',(0.,-146.9,0.));
#524 = DIRECTION('',(-0.,-1.,-0.));
#525 = DIRECTION('',(-0.,-0.,1.));
#526 = ADVANCED_FACE('',(#527),#546,.F.);
#527 = FACE_BOUND('',#528,.T.);
#528 = EDGE_LOOP('',(#529,#530,#538,#545));
#529 = ORIENTED_EDGE('',*,*,#306,.F.);
#530 = ORIENTED_EDGE('',*,*,#531,.F.);
#531 = EDGE_CURVE('',#532,#307,#534,.T.);
#532 = VERTEX_POINT('',#533);
#533 = CARTESIAN_POINT('',(-3.453503973596E-15,-146.9,-115.9));
#534 = LINE('',#535,#536);
#535 = CARTESIAN_POINT('',(-3.453503973596E-15,-146.9,-115.9));
#536 = VECTOR('',#537,1.);
#537 = DIRECTION('',(-0.,-1.,-0.));
#538 = ORIENTED_EDGE('',*,*,#539,.T.);
#539 = EDGE_CURVE('',#532,#532,#540,.T.);
#540 = CIRCLE('',#541,14.1);
#541 = AXIS2_PLACEMENT_3D('',#542,#543,#544);
#542 = CARTESIAN_POINT('',(0.,-146.9,-130.));
#543 = DIRECTION('',(0.,1.,0.));
#544 = DIRECTION('',(-0.,-0.,1.));
#545 = ORIENTED_EDGE('',*,*,#531,.T.);
#546 = CYLINDRICAL_SURFACE('',#547,14.1);
#547 = AXIS2_PLACEMENT_3D('',#548,#549,#550);
#548 = CARTESIAN_POINT('',(0.,-146.9,-130.));
#549 = DIRECTION('',(-0.,-1.,-0.));
#550 = DIRECTION('',(-0.,-0.,1.));
#551 = ADVANCED_FACE('',(#552,#563),#566,.T.);
#552 = FACE_BOUND('',#553,.F.);
#553 = EDGE_LOOP('',(#554));
#554 = ORIENTED_EDGE('',*,*,#555,.T.);
#555 = EDGE_CURVE('',#556,#556,#558,.T.);
#556 = VERTEX_POINT('',#557);
#557 = CARTESIAN_POINT('',(-2.32682891838E-15,-140.85,9.5));
#558 = CIRCLE('',#559,9.5);
#559 = AXIS2_PLACEMENT_3D('',#560,#561,#562);
#560 = CARTESIAN_POINT('',(0.,-140.85,0.));
#561 = DIRECTION('',(0.,1.,0.));
#562 = DIRECTION('',(-0.,-0.,1.));
#563 = FACE_BOUND('',#564,.F.);
#564 = EDGE_LOOP('',(#565));
#565 = ORIENTED_EDGE('',*,*,#455,.F.);
#566 = PLANE('',#567);
#567 = AXIS2_PLACEMENT_3D('',#568,#569,#570);
#568 = CARTESIAN_POINT('',(0.,-140.85,0.));
#569 = DIRECTION('',(-0.,-1.,-0.));
#570 = DIRECTION('',(0.,0.,-1.));
#571 = ADVANCED_FACE('',(#572,#583),#586,.T.);
#572 = FACE_BOUND('',#573,.F.);
#573 = EDGE_LOOP('',(#574));
#574 = ORIENTED_EDGE('',*,*,#575,.T.);
#575 = EDGE_CURVE('',#576,#576,#578,.T.);
#576 = VERTEX_POINT('',#577);
#577 = CARTESIAN_POINT('',(-2.32682891838E-15,-140.85,-120.5));
#578 = CIRCLE('',#579,9.5);
#579 = AXIS2_PLACEMENT_3D('',#580,#581,#582);
#580 = CARTESIAN_POINT('',(0.,-140.85,-130.));
#581 = DIRECTION('',(0.,1.,0.));
#582 = DIRECTION('',(-0.,-0.,1.));
#583 = FACE_BOUND('',#584,.F.);
#584 = EDGE_LOOP('',(#585));
#585 = ORIENTED_EDGE('',*,*,#480,.F.);
#586 = PLANE('',#587);
#587 = AXIS2_PLACEMENT_3D('',#588,#589,#590);
#588 = CARTESIAN_POINT('',(0.,-140.85,-130.));
#589 = DIRECTION('',(-0.,-1.,-0.));
#590 = DIRECTION('',(0.,0.,-1.));
#591 = ADVANCED_FACE('',(#592,#595,#606,#617,#628),#639,.T.);
#592 = FACE_BOUND('',#593,.F.);
#593 = EDGE_LOOP('',(#594));
#594 = ORIENTED_EDGE('',*,*,#514,.T.);
#595 = FACE_BOUND('',#596,.F.);
#596 = EDGE_LOOP('',(#597));
#597 = ORIENTED_EDGE('',*,*,#598,.F.);
#598 = EDGE_CURVE('',#599,#599,#601,.T.);
#599 = VERTEX_POINT('',#600);
#600 = CARTESIAN_POINT('',(-6.,-146.9,-9.592304845413));
#601 = CIRCLE('',#602,0.8);
#602 = AXIS2_PLACEMENT_3D('',#603,#604,#605);
#603 = CARTESIAN_POINT('',(-6.,-146.9,-10.39230484541));
#604 = DIRECTION('',(0.,1.,0.));
#605 = DIRECTION('',(-0.,-0.,1.));
#606 = FACE_BOUND('',#607,.F.);
#607 = EDGE_LOOP('',(#608));
#608 = ORIENTED_EDGE('',*,*,#609,.F.);
#609 = EDGE_CURVE('',#610,#610,#612,.T.);
#610 = VERTEX_POINT('',#611);
#611 = CARTESIAN_POINT('',(-2.32682891838E-15,-146.9,9.5));
#612 = CIRCLE('',#613,9.5);
#613 = AXIS2_PLACEMENT_3D('',#614,#615,#616);
#614 = CARTESIAN_POINT('',(0.,-146.9,0.));
#615 = DIRECTION('',(0.,1.,0.));
#616 = DIRECTION('',(-0.,-0.,1.));
#617 = FACE_BOUND('',#618,.F.);
#618 = EDGE_LOOP('',(#619));
#619 = ORIENTED_EDGE('',*,*,#620,.F.);
#620 = EDGE_CURVE('',#621,#621,#623,.T.);
#621 = VERTEX_POINT('',#622);
#622 = CARTESIAN_POINT('',(-6.,-146.9,11.192304845413));
#623 = CIRCLE('',#624,0.8);
#624 = AXIS2_PLACEMENT_3D('',#625,#626,#627);
#625 = CARTESIAN_POINT('',(-6.,-146.9,10.392304845413));
#626 = DIRECTION('',(0.,1.,0.));
#627 = DIRECTION('',(-0.,-0.,1.));
#628 = FACE_BOUND('',#629,.F.);
#629 = EDGE_LOOP('',(#630));
#630 = ORIENTED_EDGE('',*,*,#631,.F.);
#631 = EDGE_CURVE('',#632,#632,#634,.T.);
#632 = VERTEX_POINT('',#633);
#633 = CARTESIAN_POINT('',(12.,-146.9,0.8));
#634 = CIRCLE('',#635,0.8);
#635 = AXIS2_PLACEMENT_3D('',#636,#637,#638);
#636 = CARTESIAN_POINT('',(12.,-146.9,0.));
#637 = DIRECTION('',(0.,1.,0.));
#638 = DIRECTION('',(-0.,-0.,1.));
#639 = PLANE('',#640);
#640 = AXIS2_PLACEMENT_3D('',#641,#642,#643);
#641 = CARTESIAN_POINT('',(0.,-146.9,0.));
#642 = DIRECTION('',(-0.,-1.,-0.));
#643 = DIRECTION('',(0.,0.,-1.));
#644 = ADVANCED_FACE('',(#645,#648,#659,#670,#681),#692,.T.);
#645 = FACE_BOUND('',#646,.F.);
#646 = EDGE_LOOP('',(#647));
#647 = ORIENTED_EDGE('',*,*,#539,.T.);
#648 = FACE_BOUND('',#649,.F.);
#649 = EDGE_LOOP('',(#650));
#650 = ORIENTED_EDGE('',*,*,#651,.F.);
#651 = EDGE_CURVE('',#652,#652,#654,.T.);
#652 = VERTEX_POINT('',#653);
#653 = CARTESIAN_POINT('',(-6.,-146.9,-139.5923048454));
#654 = CIRCLE('',#655,0.8);
#655 = AXIS2_PLACEMENT_3D('',#656,#657,#658);
#656 = CARTESIAN_POINT('',(-6.,-146.9,-140.3923048454));
#657 = DIRECTION('',(0.,1.,0.));
#658 = DIRECTION('',(-0.,-0.,1.));
#659 = FACE_BOUND('',#660,.F.);
#660 = EDGE_LOOP('',(#661));
#661 = ORIENTED_EDGE('',*,*,#662,.F.);
#662 = EDGE_CURVE('',#663,#663,#665,.T.);
#663 = VERTEX_POINT('',#664);
#664 = CARTESIAN_POINT('',(-6.,-146.9,-118.8076951545));
#665 = CIRCLE('',#666,0.8);
#666 = AXIS2_PLACEMENT_3D('',#667,#668,#669);
#667 = CARTESIAN_POINT('',(-6.,-146.9,-119.6076951545));
#668 = DIRECTION('',(0.,1.,0.));
#669 = DIRECTION('',(-0.,-0.,1.));
#670 = FACE_BOUND('',#671,.F.);
#671 = EDGE_LOOP('',(#672));
#672 = ORIENTED_EDGE('',*,*,#673,.F.);
#673 = EDGE_CURVE('',#674,#674,#676,.T.);
#674 = VERTEX_POINT('',#675);
#675 = CARTESIAN_POINT('',(-2.32682891838E-15,-146.9,-120.5));
#676 = CIRCLE('',#677,9.5);
#677 = AXIS2_PLACEMENT_3D('',#678,#679,#680);
#678 = CARTESIAN_POINT('',(0.,-146.9,-130.));
#679 = DIRECTION('',(0.,1.,0.));
#680 = DIRECTION('',(-0.,-0.,1.));
#681 = FACE_BOUND('',#682,.F.);
#682 = EDGE_LOOP('',(#683));
#683 = ORIENTED_EDGE('',*,*,#684,.F.);
#684 = EDGE_CURVE('',#685,#685,#687,.T.);
#685 = VERTEX_POINT('',#686);
#686 = CARTESIAN_POINT('',(12.,-146.9,-129.2));
#687 = CIRCLE('',#688,0.8);
#688 = AXIS2_PLACEMENT_3D('',#689,#690,#691);
#689 = CARTESIAN_POINT('',(12.,-146.9,-130.));
#690 = DIRECTION('',(0.,1.,0.));
#691 = DIRECTION('',(-0.,-0.,1.));
#692 = PLANE('',#693);
#693 = AXIS2_PLACEMENT_3D('',#694,#695,#696);
#694 = CARTESIAN_POINT('',(0.,-146.9,-130.));
#695 = DIRECTION('',(-0.,-1.,-0.));
#696 = DIRECTION('',(0.,0.,-1.));
#697 = ADVANCED_FACE('',(#698),#709,.F.);
#698 = FACE_BOUND('',#699,.T.);
#699 = EDGE_LOOP('',(#700,#701,#707,#708));
#700 = ORIENTED_EDGE('',*,*,#609,.F.);
#701 = ORIENTED_EDGE('',*,*,#702,.F.);
#702 = EDGE_CURVE('',#556,#610,#703,.T.);
#703 = LINE('',#704,#705);
#704 = CARTESIAN_POINT('',(-2.32682891838E-15,-140.85,9.5));
#705 = VECTOR('',#706,1.);
#706 = DIRECTION('',(-0.,-1.,-0.));
#707 = ORIENTED_EDGE('',*,*,#555,.T.);
#708 = ORIENTED_EDGE('',*,*,#702,.T.);
#709 = CYLINDRICAL_SURFACE('',#710,9.5);
#710 = AXIS2_PLACEMENT_3D('',#711,#712,#713);
#711 = CARTESIAN_POINT('',(0.,-140.85,0.));
#712 = DIRECTION('',(-0.,-1.,-0.));
#713 = DIRECTION('',(-0.,-0.,1.));
#714 = ADVANCED_FACE('',(#715),#726,.F.);
#715 = FACE_BOUND('',#716,.T.);
#716 = EDGE_LOOP('',(#717,#718,#724,#725));
#717 = ORIENTED_EDGE('',*,*,#673,.F.);
#718 = ORIENTED_EDGE('',*,*,#719,.F.);
#719 = EDGE_CURVE('',#576,#674,#720,.T.);
#720 = LINE('',#721,#722);
#721 = CARTESIAN_POINT('',(-2.32682891838E-15,-140.85,-120.5));
#722 = VECTOR('',#723,1.);
#723 = DIRECTION('',(-0.,-1.,-0.));
#724 = ORIENTED_EDGE('',*,*,#575,.T.);
#725 = ORIENTED_EDGE('',*,*,#719,.T.);
#726 = CYLINDRICAL_SURFACE('',#727,9.5);
#727 = AXIS2_PLACEMENT_3D('',#728,#729,#730);
#728 = CARTESIAN_POINT('',(0.,-140.85,-130.));
#729 = DIRECTION('',(-0.,-1.,-0.));
#730 = DIRECTION('',(-0.,-0.,1.));
#731 = ADVANCED_FACE('',(#732),#751,.F.);
#732 = FACE_BOUND('',#733,.T.);
#733 = EDGE_LOOP('',(#734,#735,#743,#750));
#734 = ORIENTED_EDGE('',*,*,#598,.F.);
#735 = ORIENTED_EDGE('',*,*,#736,.F.);
#736 = EDGE_CURVE('',#737,#599,#739,.T.);
#737 = VERTEX_POINT('',#738);
#738 = CARTESIAN_POINT('',(-6.,-143.1,-9.592304845413));
#739 = LINE('',#740,#741);
#740 = CARTESIAN_POINT('',(-6.,-143.1,-9.592304845413));
#741 = VECTOR('',#742,1.);
#742 = DIRECTION('',(-0.,-1.,-0.));
#743 = ORIENTED_EDGE('',*,*,#744,.T.);
#744 = EDGE_CURVE('',#737,#737,#745,.T.);
#745 = CIRCLE('',#746,0.8);
#746 = AXIS2_PLACEMENT_3D('',#747,#748,#749);
#747 = CARTESIAN_POINT('',(-6.,-143.1,-10.39230484541));
#748 = DIRECTION('',(0.,1.,0.));
#749 = DIRECTION('',(-0.,-0.,1.));
#750 = ORIENTED_EDGE('',*,*,#736,.T.);
#751 = CYLINDRICAL_SURFACE('',#752,0.8);
#752 = AXIS2_PLACEMENT_3D('',#753,#754,#755);
#753 = CARTESIAN_POINT('',(-6.,-143.1,-10.39230484541));
#754 = DIRECTION('',(-0.,-1.,-0.));
#755 = DIRECTION('',(-0.,-0.,1.));
#756 = ADVANCED_FACE('',(#757),#776,.F.);
#757 = FACE_BOUND('',#758,.T.);
#758 = EDGE_LOOP('',(#759,#760,#768,#775));
#759 = ORIENTED_EDGE('',*,*,#620,.F.);
#760 = ORIENTED_EDGE('',*,*,#761,.F.);
#761 = EDGE_CURVE('',#762,#621,#764,.T.);
#762 = VERTEX_POINT('',#763);
#763 = CARTESIAN_POINT('',(-6.,-143.1,11.192304845413));
#764 = LINE('',#765,#766);
#765 = CARTESIAN_POINT('',(-6.,-143.1,11.192304845413));
#766 = VECTOR('',#767,1.);
#767 = DIRECTION('',(-0.,-1.,-0.));
#768 = ORIENTED_EDGE('',*,*,#769,.T.);
#769 = EDGE_CURVE('',#762,#762,#770,.T.);
#770 = CIRCLE('',#771,0.8);
#771 = AXIS2_PLACEMENT_3D('',#772,#773,#774);
#772 = CARTESIAN_POINT('',(-6.,-143.1,10.392304845413));
#773 = DIRECTION('',(0.,1.,0.));
#774 = DIRECTION('',(-0.,-0.,1.));
#775 = ORIENTED_EDGE('',*,*,#761,.T.);
#776 = CYLINDRICAL_SURFACE('',#777,0.8);
#777 = AXIS2_PLACEMENT_3D('',#778,#779,#780);
#778 = CARTESIAN_POINT('',(-6.,-143.1,10.392304845413));
#779 = DIRECTION('',(-0.,-1.,-0.));
#780 = DIRECTION('',(-0.,-0.,1.));
#781 = ADVANCED_FACE('',(#782),#801,.F.);
#782 = FACE_BOUND('',#783,.T.);
#783 = EDGE_LOOP('',(#784,#785,#793,#800));
#784 = ORIENTED_EDGE('',*,*,#631,.F.);
#785 = ORIENTED_EDGE('',*,*,#786,.F.);
#786 = EDGE_CURVE('',#787,#632,#789,.T.);
#787 = VERTEX_POINT('',#788);
#788 = CARTESIAN_POINT('',(12.,-143.1,0.8));
#789 = LINE('',#790,#791);
#790 = CARTESIAN_POINT('',(12.,-143.1,0.8));
#791 = VECTOR('',#792,1.);
#792 = DIRECTION('',(-0.,-1.,-0.));
#793 = ORIENTED_EDGE('',*,*,#794,.T.);
#794 = EDGE_CURVE('',#787,#787,#795,.T.);
#795 = CIRCLE('',#796,0.8);
#796 = AXIS2_PLACEMENT_3D('',#797,#798,#799);
#797 = CARTESIAN_POINT('',(12.,-143.1,0.));
#798 = DIRECTION('',(0.,1.,0.));
#799 = DIRECTION('',(-0.,-0.,1.));
#800 = ORIENTED_EDGE('',*,*,#786,.T.);
#801 = CYLINDRICAL_SURFACE('',#802,0.8);
#802 = AXIS2_PLACEMENT_3D('',#803,#804,#805);
#803 = CARTESIAN_POINT('',(12.,-143.1,0.));
#804 = DIRECTION('',(-0.,-1.,-0.));
#805 = DIRECTION('',(-0.,-0.,1.));
#806 = ADVANCED_FACE('',(#807),#826,.F.);
#807 = FACE_BOUND('',#808,.T.);
#808 = EDGE_LOOP('',(#809,#810,#818,#825));
#809 = ORIENTED_EDGE('',*,*,#651,.F.);
#810 = ORIENTED_EDGE('',*,*,#811,.F.);
#811 = EDGE_CURVE('',#812,#652,#814,.T.);
#812 = VERTEX_POINT('',#813);
#813 = CARTESIAN_POINT('',(-6.,-143.1,-139.5923048454));
#814 = LINE('',#815,#816);
#815 = CARTESIAN_POINT('',(-6.,-143.1,-139.5923048454));
#816 = VECTOR('',#817,1.);
#817 = DIRECTION('',(-0.,-1.,-0.));
#818 = ORIENTED_EDGE('',*,*,#819,.T.);
#819 = EDGE_CURVE('',#812,#812,#820,.T.);
#820 = CIRCLE('',#821,0.8);
#821 = AXIS2_PLACEMENT_3D('',#822,#823,#824);
#822 = CARTESIAN_POINT('',(-6.,-143.1,-140.3923048454));
#823 = DIRECTION('',(0.,1.,0.));
#824 = DIRECTION('',(-0.,-0.,1.));
#825 = ORIENTED_EDGE('',*,*,#811,.T.);
#826 = CYLINDRICAL_SURFACE('',#827,0.8);
#827 = AXIS2_PLACEMENT_3D('',#828,#829,#830);
#828 = CARTESIAN_POINT('',(-6.,-143.1,-140.3923048454));
#829 = DIRECTION('',(-0.,-1.,-0.));
#830 = DIRECTION('',(-0.,-0.,1.));
#831 = ADVANCED_FACE('',(#832),#851,.F.);
#832 = FACE_BOUND('',#833,.T.);
#833 = EDGE_LOOP('',(#834,#835,#843,#850));
#834 = ORIENTED_EDGE('',*,*,#662,.F.);
#835 = ORIENTED_EDGE('',*,*,#836,.F.);
#836 = EDGE_CURVE('',#837,#663,#839,.T.);
#837 = VERTEX_POINT('',#838);
#838 = CARTESIAN_POINT('',(-6.,-143.1,-118.8076951545));
#839 = LINE('',#840,#841);
#840 = CARTESIAN_POINT('',(-6.,-143.1,-118.8076951545));
#841 = VECTOR('',#842,1.);
#842 = DIRECTION('',(-0.,-1.,-0.));
#843 = ORIENTED_EDGE('',*,*,#844,.T.);
#844 = EDGE_CURVE('',#837,#837,#845,.T.);
#845 = CIRCLE('',#846,0.8);
#846 = AXIS2_PLACEMENT_3D('',#847,#848,#849);
#847 = CARTESIAN_POINT('',(-6.,-143.1,-119.6076951545));
#848 = DIRECTION('',(0.,1.,0.));
#849 = DIRECTION('',(-0.,-0.,1.));
#850 = ORIENTED_EDGE('',*,*,#836,.T.);
#851 = CYLINDRICAL_SURFACE('',#852,0.8);
#852 = AXIS2_PLACEMENT_3D('',#853,#854,#855);
#853 = CARTESIAN_POINT('',(-6.,-143.1,-119.6076951545));
#854 = DIRECTION('',(-0.,-1.,-0.));
#855 = DIRECTION('',(-0.,-0.,1.));
#856 = ADVANCED_FACE('',(#857),#876,.F.);
#857 = FACE_BOUND('',#858,.T.);
#858 = EDGE_LOOP('',(#859,#860,#868,#875));
#859 = ORIENTED_EDGE('',*,*,#684,.F.);
#860 = ORIENTED_EDGE('',*,*,#861,.F.);
#861 = EDGE_CURVE('',#862,#685,#864,.T.);
#862 = VERTEX_POINT('',#863);
#863 = CARTESIAN_POINT('',(12.,-143.1,-129.2));
#864 = LINE('',#865,#866);
#865 = CARTESIAN_POINT('',(12.,-143.1,-129.2));
#866 = VECTOR('',#867,1.);
#867 = DIRECTION('',(-0.,-1.,-0.));
#868 = ORIENTED_EDGE('',*,*,#869,.T.);
#869 = EDGE_CURVE('',#862,#862,#870,.T.);
#870 = CIRCLE('',#871,0.8);
#871 = AXIS2_PLACEMENT_3D('',#872,#873,#874);
#872 = CARTESIAN_POINT('',(12.,-143.1,-130.));
#873 = DIRECTION('',(0.,1.,0.));
#874 = DIRECTION('',(-0.,-0.,1.));
#875 = ORIENTED_EDGE('',*,*,#861,.T.);
#876 = CYLINDRICAL_SURFACE('',#877,0.8);
#877 = AXIS2_PLACEMENT_3D('',#878,#879,#880);
#878 = CARTESIAN_POINT('',(12.,-143.1,-130.));
#879 = DIRECTION('',(-0.,-1.,-0.));
#880 = DIRECTION('',(-0.,-0.,1.));
#881 = ADVANCED_FACE('',(#882),#885,.T.);
#882 = FACE_BOUND('',#883,.T.);
#883 = EDGE_LOOP('',(#884));
#884 = ORIENTED_EDGE('',*,*,#744,.F.);
#885 = PLANE('',#886);
#886 = AXIS2_PLACEMENT_3D('',#887,#888,#889);
#887 = CARTESIAN_POINT('',(-6.,-143.1,-10.39230484541));
#888 = DIRECTION('',(-0.,-1.,-0.));
#889 = DIRECTION('',(0.,0.,-1.));
#890 = ADVANCED_FACE('',(#891),#894,.T.);
#891 = FACE_BOUND('',#892,.T.);
#892 = EDGE_LOOP('',(#893));
#893 = ORIENTED_EDGE('',*,*,#769,.F.);
#894 = PLANE('',#895);
#895 = AXIS2_PLACEMENT_3D('',#896,#897,#898);
#896 = CARTESIAN_POINT('',(-6.,-143.1,10.392304845413));
#897 = DIRECTION('',(-0.,-1.,-0.));
#898 = DIRECTION('',(0.,0.,-1.));
#899 = ADVANCED_FACE('',(#900),#903,.T.);
#900 = FACE_BOUND('',#901,.T.);
#901 = EDGE_LOOP('',(#902));
#902 = ORIENTED_EDGE('',*,*,#794,.F.);
#903 = PLANE('',#904);
#904 = AXIS2_PLACEMENT_3D('',#905,#906,#907);
#905 = CARTESIAN_POINT('',(12.,-143.1,0.));
#906 = DIRECTION('',(-0.,-1.,-0.));
#907 = DIRECTION('',(0.,0.,-1.));
#908 = ADVANCED_FACE('',(#909),#912,.T.);
#909 = FACE_BOUND('',#910,.T.);
#910 = EDGE_LOOP('',(#911));
#911 = ORIENTED_EDGE('',*,*,#819,.F.);
#912 = PLANE('',#913);
#913 = AXIS2_PLACEMENT_3D('',#914,#915,#916);
#914 = CARTESIAN_POINT('',(-6.,-143.1,-140.3923048454));
#915 = DIRECTION('',(-0.,-1.,-0.));
#916 = DIRECTION('',(0.,0.,-1.));
#917 = ADVANCED_FACE('',(#918),#921,.T.);
#918 = FACE_BOUND('',#919,.T.);
#919 = EDGE_LOOP('',(#920));
#920 = ORIENTED_EDGE('',*,*,#844,.F.);
#921 = PLANE('',#922);
#922 = AXIS2_PLACEMENT_3D('',#923,#924,#925);
#923 = CARTESIAN_POINT('',(-6.,-143.1,-119.6076951545));
#924 = DIRECTION('',(-0.,-1.,-0.));
#925 = DIRECTION('',(0.,0.,-1.));
#926 = ADVANCED_FACE('',(#927),#930,.T.);
#927 = FACE_BOUND('',#928,.T.);
#928 = EDGE_LOOP('',(#929));
#929 = ORIENTED_EDGE('',*,*,#869,.F.);
#930 = PLANE('',#931);
#931 = AXIS2_PLACEMENT_3D('',#932,#933,#934);
#932 = CARTESIAN_POINT('',(12.,-143.1,-130.));
#933 = DIRECTION('',(-0.,-1.,-0.));
#934 = DIRECTION('',(0.,0.,-1.));
#935 = ( GEOMETRIC_REPRESENTATION_CONTEXT(3) 
GLOBAL_UNCERTAINTY_ASSIGNED_CONTEXT((#939)) GLOBAL_UNIT_ASSIGNED_CONTEXT
((#936,#937,#938)) REPRESENTATION_CONTEXT('Context #1',
  '3D Context with UNIT and UNCERTAINTY') );
#936 = ( LENGTH_UNIT() NAMED_UNIT(*) SI_UNIT(.MILLI.,.METRE.) );
#937 = ( NAMED_UNIT(*) PLANE_ANGLE_UNIT() SI_UNIT($,.RADIAN.) );
#938 = ( NAMED_UNIT(*) SI_UNIT($,.STERADIAN.) SOLID_ANGLE_UNIT() );
#939 = UNCERTAINTY_MEASURE_WITH_UNIT(LENGTH_MEASURE(1.E-07),#936,
  'distance_accuracy_value','confusion accuracy');
#940 = PRODUCT_RELATED_PRODUCT_CATEGORY('part',$,(#7));
ENDSEC;
END-ISO-10303-21;
