ISO-10303-21;
HEADER;
FILE_DESCRIPTION(('FreeCAD Model'),'2;1');
FILE_NAME('Open CASCADE Shape Model','2026-09-22T19:53:15',('FreeCAD'),(
    'FreeCAD'),'Open CASCADE STEP processor 7.8','FreeCAD','Unknown');
FILE_SCHEMA(('AUTOMOTIVE_DESIGN { 1 0 10303 214 1 1 1 1 }'));
ENDSEC;
DATA;
#1 = APPLICATION_PROTOCOL_DEFINITION('international standard',
  'automotive_design',2000,#2);
#2 = APPLICATION_CONTEXT(
  'core data for automotive mechanical design processes');
#3 = SHAPE_DEFINITION_REPRESENTATION(#4,#10);
#4 = PRODUCT_DEFINITION_SHAPE('','',#5);
#5 = PRODUCT_DEFINITION('design','',#6,#9);
#6 = PRODUCT_DEFINITION_FORMATION('','',#7);
#7 = PRODUCT('Open CASCADE STEP translator 7.8 30',
  'Open CASCADE STEP translator 7.8 30','',(#8));
#8 = PRODUCT_CONTEXT('',#2,'mechanical');
#9 = PRODUCT_DEFINITION_CONTEXT('part definition',#2,'design');
#10 = ADVANCED_BREP_SHAPE_REPRESENTATION('',(#11,#15),#1173);
#11 = AXIS2_PLACEMENT_3D('',#12,#13,#14);
#12 = CARTESIAN_POINT('',(0.,0.,0.));
#13 = DIRECTION('',(0.,0.,1.));
#14 = DIRECTION('',(1.,0.,-0.));
#15 = MANIFOLD_SOLID_BREP('',#16);
#16 = CLOSED_SHELL('',(#17,#50,#70,#90,#319,#344,#419,#444,#469,#494,
    #519,#627,#652,#677,#702,#727,#752,#777,#795,#813,#831,#849,#874,
    #899,#924,#949,#974,#999,#1024,#1049,#1074,#1086,#1098,#1110,#1122,
    #1134,#1146,#1155,#1164));
#17 = ADVANCED_FACE('',(#18),#45,.T.);
#18 = FACE_BOUND('',#19,.F.);
#19 = EDGE_LOOP('',(#20,#29,#37,#44));
#20 = ORIENTED_EDGE('',*,*,#21,.F.);
#21 = EDGE_CURVE('',#22,#22,#24,.T.);
#22 = VERTEX_POINT('',#23);
#23 = CARTESIAN_POINT('',(-4.776122516675E-15,-75.5,19.5));
#24 = CIRCLE('',#25,19.5);
#25 = AXIS2_PLACEMENT_3D('',#26,#27,#28);
#26 = CARTESIAN_POINT('',(0.,-75.5,0.));
#27 = DIRECTION('',(0.,1.,0.));
#28 = DIRECTION('',(-0.,-0.,1.));
#29 = ORIENTED_EDGE('',*,*,#30,.F.);
#30 = EDGE_CURVE('',#31,#22,#33,.T.);
#31 = VERTEX_POINT('',#32);
#32 = CARTESIAN_POINT('',(-4.776122516675E-15,-72.2,19.5));
#33 = LINE('',#34,#35);
#34 = CARTESIAN_POINT('',(-4.776122516675E-15,-72.2,19.5));
#35 = VECTOR('',#36,1.);
#36 = DIRECTION('',(-0.,-1.,-0.));
#37 = ORIENTED_EDGE('',*,*,#38,.T.);
#38 = EDGE_CURVE('',#31,#31,#39,.T.);
#39 = CIRCLE('',#40,19.5);
#40 = AXIS2_PLACEMENT_3D('',#41,#42,#43);
#41 = CARTESIAN_POINT('',(0.,-72.2,0.));
#42 = DIRECTION('',(0.,1.,0.));
#43 = DIRECTION('',(-0.,-0.,1.));
#44 = ORIENTED_EDGE('',*,*,#30,.T.);
#45 = CYLINDRICAL_SURFACE('',#46,19.5);
#46 = AXIS2_PLACEMENT_3D('',#47,#48,#49);
#47 = CARTESIAN_POINT('',(0.,-72.2,0.));
#48 = DIRECTION('',(-0.,-1.,-0.));
#49 = DIRECTION('',(-0.,-0.,1.));
#50 = ADVANCED_FACE('',(#51,#62),#65,.F.);
#51 = FACE_BOUND('',#52,.T.);
#52 = EDGE_LOOP('',(#53));
#53 = ORIENTED_EDGE('',*,*,#54,.T.);
#54 = EDGE_CURVE('',#55,#55,#57,.T.);
#55 = VERTEX_POINT('',#56);
#56 = CARTESIAN_POINT('',(-5.265981236334E-15,-75.5,21.5));
#57 = CIRCLE('',#58,21.5);
#58 = AXIS2_PLACEMENT_3D('',#59,#60,#61);
#59 = CARTESIAN_POINT('',(0.,-75.5,0.));
#60 = DIRECTION('',(0.,1.,0.));
#61 = DIRECTION('',(-0.,-0.,1.));
#62 = FACE_BOUND('',#63,.T.);
#63 = EDGE_LOOP('',(#64));
#64 = ORIENTED_EDGE('',*,*,#21,.F.);
#65 = PLANE('',#66);
#66 = AXIS2_PLACEMENT_3D('',#67,#68,#69);
#67 = CARTESIAN_POINT('',(0.,-75.5,0.));
#68 = DIRECTION('',(-0.,-1.,-0.));
#69 = DIRECTION('',(0.,0.,-1.));
#70 = ADVANCED_FACE('',(#71,#74),#85,.F.);
#71 = FACE_BOUND('',#72,.T.);
#72 = EDGE_LOOP('',(#73));
#73 = ORIENTED_EDGE('',*,*,#38,.T.);
#74 = FACE_BOUND('',#75,.T.);
#75 = EDGE_LOOP('',(#76));
#76 = ORIENTED_EDGE('',*,*,#77,.F.);
#77 = EDGE_CURVE('',#78,#78,#80,.T.);
#78 = VERTEX_POINT('',#79);
#79 = CARTESIAN_POINT('',(-4.292387031011E-15,-72.2,17.525));
#80 = CIRCLE('',#81,17.525);
#81 = AXIS2_PLACEMENT_3D('',#82,#83,#84);
#82 = CARTESIAN_POINT('',(0.,-72.2,0.));
#83 = DIRECTION('',(0.,1.,0.));
#84 = DIRECTION('',(-0.,-0.,1.));
#85 = PLANE('',#86);
#86 = AXIS2_PLACEMENT_3D('',#87,#88,#89);
#87 = CARTESIAN_POINT('',(0.,-72.2,0.));
#88 = DIRECTION('',(-0.,-1.,-0.));
#89 = DIRECTION('',(0.,0.,-1.));
#90 = ADVANCED_FACE('',(#91,#110,#161,#212,#263),#314,.T.);
#91 = FACE_BOUND('',#92,.F.);
#92 = EDGE_LOOP('',(#93,#102,#108,#109));
#93 = ORIENTED_EDGE('',*,*,#94,.F.);
#94 = EDGE_CURVE('',#95,#95,#97,.T.);
#95 = VERTEX_POINT('',#96);
#96 = CARTESIAN_POINT('',(-5.265981236334E-15,-82.5,21.5));
#97 = CIRCLE('',#98,21.5);
#98 = AXIS2_PLACEMENT_3D('',#99,#100,#101);
#99 = CARTESIAN_POINT('',(0.,-82.5,0.));
#100 = DIRECTION('',(0.,1.,0.));
#101 = DIRECTION('',(-0.,-0.,1.));
#102 = ORIENTED_EDGE('',*,*,#103,.F.);
#103 = EDGE_CURVE('',#55,#95,#104,.T.);
#104 = LINE('',#105,#106);
#105 = CARTESIAN_POINT('',(-5.265981236334E-15,-75.5,21.5));
#106 = VECTOR('',#107,1.);
#107 = DIRECTION('',(-0.,-1.,-0.));
#108 = ORIENTED_EDGE('',*,*,#54,.T.);
#109 = ORIENTED_EDGE('',*,*,#103,.T.);
#110 = FACE_BOUND('',#111,.F.);
#111 = EDGE_LOOP('',(#112));
#112 = ORIENTED_EDGE('',*,*,#113,.F.);
#113 = EDGE_CURVE('',#114,#114,#116,.T.);
#114 = VERTEX_POINT('',#115);
#115 = CARTESIAN_POINT('',(20.408752699181,-79.5,6.762604029785));
#116 = B_SPLINE_CURVE_WITH_KNOTS('',7,(#117,#118,#119,#120,#121,#122,
    #123,#124,#125,#126,#127,#128,#129,#130,#131,#132,#133,#134,#135,
    #136,#137,#138,#139,#140,#141,#142,#143,#144,#145,#146,#147,#148,
    #149,#150,#151,#152,#153,#154,#155,#156,#157,#158,#159,#160),
  .UNSPECIFIED.,.T.,.F.,(8,6,6,6,6,6,6,8),(0.,0.151248163154,
    0.287078104036,0.424387326184,0.587290910761,0.713797290527,
    0.839625340412,1.),.UNSPECIFIED.);
#117 = CARTESIAN_POINT('',(20.408752699181,-79.5,6.762604029785));
#118 = CARTESIAN_POINT('',(20.408752699181,-79.3497891109,6.762604029785
    ));
#119 = CARTESIAN_POINT('',(20.415387642683,-79.19950059959,6.74258038072
    ));
#120 = CARTESIAN_POINT('',(20.4286713063,-79.05128283903,6.702492661637)
  );
#121 = CARTESIAN_POINT('',(20.448619773252,-78.90750648461,
    6.641873827789));
#122 = CARTESIAN_POINT('',(20.475181091343,-78.77108496393,6.56005597168
    ));
#123 = CARTESIAN_POINT('',(20.50812521675,-78.64577674733,6.456326988811
    ));
#124 = CARTESIAN_POINT('',(20.581755222795,-78.43904326616,
    6.217342797194));
#125 = CARTESIAN_POINT('',(20.622211957067,-78.35191136658,
    6.083449354101));
#126 = CARTESIAN_POINT('',(20.666966233139,-78.28440303782,
    5.931342716067));
#127 = CARTESIAN_POINT('',(20.71383999708,-78.24266742563,5.766284909359
    ));
#128 = CARTESIAN_POINT('',(20.760461931444,-78.22995238915,
    5.595127627843));
#129 = CARTESIAN_POINT('',(20.804885505314,-78.24648105195,
    5.425358896135));
#130 = CARTESIAN_POINT('',(20.886941883302,-78.33252705765,
    5.100396767607));
#131 = CARTESIAN_POINT('',(20.923320881402,-78.40138752367,4.95003540993
    ));
#132 = CARTESIAN_POINT('',(20.954518597436,-78.49083701471,
    4.815756563252));
#133 = CARTESIAN_POINT('',(20.980649246723,-78.59634800817,
    4.699416029073));
#134 = CARTESIAN_POINT('',(21.001961066385,-78.71365776609,
    4.602044238905));
#135 = CARTESIAN_POINT('',(21.018755796261,-78.83873079059,
    4.523892396568));
#136 = CARTESIAN_POINT('',(21.04636267502,-79.12087491422,4.393839179939
    ));
#137 = CARTESIAN_POINT('',(21.05591652498,-79.28406489879,4.34747191762)
  );
#138 = CARTESIAN_POINT('',(21.060141333907,-79.45299012862,4.32653210316
    ));
#139 = CARTESIAN_POINT('',(21.059132656311,-79.62338184789,
    4.331519627456));
#140 = CARTESIAN_POINT('',(21.052874337512,-79.79110692162,
    4.362356932844));
#141 = CARTESIAN_POINT('',(21.041227487181,-79.95213040259,
    4.418548326993));
#142 = CARTESIAN_POINT('',(21.010516431558,-80.2187258153,4.562051542798
    ));
#143 = CARTESIAN_POINT('',(20.993418760813,-80.3310106696,4.640876571024
    ));
#144 = CARTESIAN_POINT('',(20.972370808271,-80.43579533227,
    4.736104807894));
#145 = CARTESIAN_POINT('',(20.947150999595,-80.5297060281,4.847364060918
    ));
#146 = CARTESIAN_POINT('',(20.917600042328,-80.60926759437,
    4.973645225723));
#147 = CARTESIAN_POINT('',(20.88368652538,-80.67088657761,5.113288733659
    ));
#148 = CARTESIAN_POINT('',(20.807900188215,-80.75035768955,
    5.413420058519));
#149 = CARTESIAN_POINT('',(20.766889560784,-80.7675842782,5.570549447481
    ));
#150 = CARTESIAN_POINT('',(20.723820859342,-80.75971737011,
    5.729566543326));
#151 = CARTESIAN_POINT('',(20.680276703813,-80.72663875114,5.88427390537
    ));
#152 = CARTESIAN_POINT('',(20.638180329484,-80.67068367248,
    6.028872467458));
#153 = CARTESIAN_POINT('',(20.599372147288,-80.59655856747,
    6.158706290727));
#154 = CARTESIAN_POINT('',(20.521447356365,-80.402567932,6.41425053306)
  );
#155 = CARTESIAN_POINT('',(20.484150818977,-80.2731902302,6.532389847882
    ));
#156 = CARTESIAN_POINT('',(20.454004354262,-80.12998098482,
    6.625503896398));
#157 = CARTESIAN_POINT('',(20.431352787608,-79.97772046416,
    6.694400859382));
#158 = CARTESIAN_POINT('',(20.41627697728,-79.82007224452,6.739896329305
    ));
#159 = CARTESIAN_POINT('',(20.408752699181,-79.65996241707,
    6.762604029785));
#160 = CARTESIAN_POINT('',(20.408752699181,-79.5,6.762604029785));
#161 = FACE_BOUND('',#162,.F.);
#162 = EDGE_LOOP('',(#163));
#163 = ORIENTED_EDGE('',*,*,#164,.F.);
#164 = EDGE_CURVE('',#165,#165,#167,.T.);
#165 = VERTEX_POINT('',#166);
#166 = CARTESIAN_POINT('',(-20.40875269918,-79.5,-6.762604029785));
#167 = B_SPLINE_CURVE_WITH_KNOTS('',7,(#168,#169,#170,#171,#172,#173,
    #174,#175,#176,#177,#178,#179,#180,#181,#182,#183,#184,#185,#186,
    #187,#188,#189,#190,#191,#192,#193,#194,#195,#196,#197,#198,#199,
    #200,#201,#202,#203,#204,#205,#206,#207,#208,#209,#210,#211),
  .UNSPECIFIED.,.T.,.F.,(8,6,6,6,6,6,6,8),(0.,0.151248163155,
    0.287078104036,0.424387326186,0.587290910763,0.713797290528,
    0.839625340413,1.),.UNSPECIFIED.);
#168 = CARTESIAN_POINT('',(-20.40875269918,-79.5,-6.762604029785));
#169 = CARTESIAN_POINT('',(-20.40875269918,-79.3497891109,
    -6.762604029785));
#170 = CARTESIAN_POINT('',(-20.41538764268,-79.19950059959,
    -6.742580380721));
#171 = CARTESIAN_POINT('',(-20.4286713063,-79.05128283903,
    -6.702492661636));
#172 = CARTESIAN_POINT('',(-20.44861977325,-78.90750648461,
    -6.64187382779));
#173 = CARTESIAN_POINT('',(-20.47518109134,-78.77108496393,
    -6.56005597168));
#174 = CARTESIAN_POINT('',(-20.50812521675,-78.64577674733,
    -6.456326988811));
#175 = CARTESIAN_POINT('',(-20.58175522279,-78.43904326616,
    -6.217342797194));
#176 = CARTESIAN_POINT('',(-20.62221195706,-78.35191136658,
    -6.083449354101));
#177 = CARTESIAN_POINT('',(-20.66696623313,-78.28440303782,
    -5.931342716067));
#178 = CARTESIAN_POINT('',(-20.71383999708,-78.24266742563,
    -5.766284909359));
#179 = CARTESIAN_POINT('',(-20.76046193144,-78.22995238915,
    -5.595127627843));
#180 = CARTESIAN_POINT('',(-20.80488550531,-78.24648105195,
    -5.425358896135));
#181 = CARTESIAN_POINT('',(-20.8869418833,-78.33252705765,
    -5.100396767607));
#182 = CARTESIAN_POINT('',(-20.9233208814,-78.40138752367,
    -4.950035409931));
#183 = CARTESIAN_POINT('',(-20.95451859743,-78.49083701471,
    -4.815756563251));
#184 = CARTESIAN_POINT('',(-20.98064924672,-78.59634800817,
    -4.699416029074));
#185 = CARTESIAN_POINT('',(-21.00196106638,-78.71365776609,
    -4.602044238904));
#186 = CARTESIAN_POINT('',(-21.01875579626,-78.83873079059,
    -4.523892396568));
#187 = CARTESIAN_POINT('',(-21.04636267502,-79.12087491422,
    -4.393839179939));
#188 = CARTESIAN_POINT('',(-21.05591652498,-79.28406489879,
    -4.34747191762));
#189 = CARTESIAN_POINT('',(-21.0601413339,-79.45299012862,-4.32653210316
    ));
#190 = CARTESIAN_POINT('',(-21.05913265631,-79.62338184789,
    -4.331519627456));
#191 = CARTESIAN_POINT('',(-21.05287433751,-79.79110692162,
    -4.362356932844));
#192 = CARTESIAN_POINT('',(-21.04122748718,-79.95213040258,
    -4.418548326992));
#193 = CARTESIAN_POINT('',(-21.01051643155,-80.2187258153,
    -4.562051542798));
#194 = CARTESIAN_POINT('',(-20.99341876081,-80.3310106696,
    -4.640876571025));
#195 = CARTESIAN_POINT('',(-20.97237080827,-80.43579533226,
    -4.736104807893));
#196 = CARTESIAN_POINT('',(-20.94715099959,-80.5297060281,-4.84736406092
    ));
#197 = CARTESIAN_POINT('',(-20.91760004232,-80.60926759437,
    -4.973645225722));
#198 = CARTESIAN_POINT('',(-20.88368652538,-80.67088657761,
    -5.113288733659));
#199 = CARTESIAN_POINT('',(-20.80790018821,-80.75035768955,
    -5.413420058518));
#200 = CARTESIAN_POINT('',(-20.76688956078,-80.7675842782,
    -5.570549447481));
#201 = CARTESIAN_POINT('',(-20.72382085934,-80.75971737011,
    -5.729566543326));
#202 = CARTESIAN_POINT('',(-20.68027670381,-80.72663875114,
    -5.88427390537));
#203 = CARTESIAN_POINT('',(-20.63818032948,-80.67068367248,
    -6.028872467458));
#204 = CARTESIAN_POINT('',(-20.59937214728,-80.59655856747,
    -6.158706290727));
#205 = CARTESIAN_POINT('',(-20.52144735636,-80.402567932,-6.41425053306)
  );
#206 = CARTESIAN_POINT('',(-20.48415081897,-80.2731902302,
    -6.532389847882));
#207 = CARTESIAN_POINT('',(-20.45400435426,-80.12998098482,
    -6.625503896398));
#208 = CARTESIAN_POINT('',(-20.4313527876,-79.97772046416,
    -6.694400859383));
#209 = CARTESIAN_POINT('',(-20.41627697728,-79.82007224452,
    -6.739896329305));
#210 = CARTESIAN_POINT('',(-20.40875269918,-79.65996241707,
    -6.762604029785));
#211 = CARTESIAN_POINT('',(-20.40875269918,-79.5,-6.762604029785));
#212 = FACE_BOUND('',#213,.F.);
#213 = EDGE_LOOP('',(#214));
#214 = ORIENTED_EDGE('',*,*,#215,.F.);
#215 = EDGE_CURVE('',#216,#216,#218,.T.);
#216 = VERTEX_POINT('',#217);
#217 = CARTESIAN_POINT('',(4.347789464062,-79.5,-21.05580031193));
#218 = B_SPLINE_CURVE_WITH_KNOTS('',7,(#219,#220,#221,#222,#223,#224,
    #225,#226,#227,#228,#229,#230,#231,#232,#233,#234,#235,#236,#237,
    #238,#239,#240,#241,#242,#243,#244,#245,#246,#247,#248,#249,#250,
    #251,#252,#253,#254,#255,#256,#257,#258,#259,#260,#261,#262),
  .UNSPECIFIED.,.T.,.F.,(8,6,6,6,6,6,6,8),(0.,0.151248163155,
    0.287078104037,0.424387326186,0.587290910762,0.713797290528,
    0.839625340413,1.),.UNSPECIFIED.);
#219 = CARTESIAN_POINT('',(4.347789464062,-79.5,-21.05580031193));
#220 = CARTESIAN_POINT('',(4.347789464062,-79.65021088909,
    -21.05580031193));
#221 = CARTESIAN_POINT('',(4.368447924579,-79.8004994004,-21.05153451703
    ));
#222 = CARTESIAN_POINT('',(4.409806739494,-79.94871716097,
    -21.04299464763));
#223 = CARTESIAN_POINT('',(4.472278423029,-80.09249351538,
    -21.02996110986));
#224 = CARTESIAN_POINT('',(4.556415423949,-80.22891503606,
    -21.01205495803));
#225 = CARTESIAN_POINT('',(4.662719420926,-80.35422325266,-20.9887209161
    ));
#226 = CARTESIAN_POINT('',(4.906500804992,-80.56095673383,
    -20.93299427601));
#227 = CARTESIAN_POINT('',(5.042684295246,-80.64808863341,
    -20.90108411409));
#228 = CARTESIAN_POINT('',(5.196789645904,-80.71559696217,
    -20.86378913508));
#229 = CARTESIAN_POINT('',(5.363170781577,-80.75733257436,
    -20.82185410207));
#230 = CARTESIAN_POINT('',(5.534708302594,-80.77004761084,
    -20.77665124085));
#231 = CARTESIAN_POINT('',(5.703944123956,-80.75351894804,
    -20.73023881849));
#232 = CARTESIAN_POINT('',(6.026397771523,-80.66747294234,
    -20.63882066211));
#233 = CARTESIAN_POINT('',(6.174804026069,-80.59861247632,
    -20.59514511979));
#234 = CARTESIAN_POINT('',(6.3066917765,-80.50916298529,-20.55502371107)
  );
#235 = CARTESIAN_POINT('',(6.420510959232,-80.40365199182,
    -20.51948325009));
#236 = CARTESIAN_POINT('',(6.515493312961,-80.28634223391,
    -20.48925393223));
#237 = CARTESIAN_POINT('',(6.591572158715,-80.1612692094,-20.46472267378
    ));
#238 = CARTESIAN_POINT('',(6.718004987539,-79.87912508578,
    -20.42360432379));
#239 = CARTESIAN_POINT('',(6.762937139591,-79.7159351012,-20.4086945694)
  );
#240 = CARTESIAN_POINT('',(6.783183955328,-79.54700987137,
    -20.40188345403));
#241 = CARTESIAN_POINT('',(6.778360293788,-79.3766181521,-20.40350367576
    ));
#242 = CARTESIAN_POINT('',(6.748525244537,-79.20889307837,
    -20.41350246538));
#243 = CARTESIAN_POINT('',(6.694038644566,-79.04786959741,-20.4315116942
    ));
#244 = CARTESIAN_POINT('',(6.554405686342,-78.78127418469,
    -20.47666674775));
#245 = CARTESIAN_POINT('',(6.477592374072,-78.66898933039,
    -20.50127224466));
#246 = CARTESIAN_POINT('',(6.384598325514,-78.56420466773,
    -20.53065830149));
#247 = CARTESIAN_POINT('',(6.275635081651,-78.47029397189,
    -20.56444693301));
#248 = CARTESIAN_POINT('',(6.151496906277,-78.39073240562,
    -20.60199563572));
#249 = CARTESIAN_POINT('',(6.013605322457,-78.32911342238,
    -20.64244742247));
#250 = CARTESIAN_POINT('',(5.715790802074,-78.24964231044,
    -20.72688019166));
#251 = CARTESIAN_POINT('',(5.559207445836,-78.23241572179,
    -20.76992864096));
#252 = CARTESIAN_POINT('',(5.399960250477,-78.24028262988,
    -20.81213859933));
#253 = CARTESIAN_POINT('',(5.24420766703,-78.27336124885,-20.85178193547
    ));
#254 = CARTESIAN_POINT('',(5.097933451747,-78.32931632752,
    -20.88762468694));
#255 = CARTESIAN_POINT('',(4.966089971428,-78.40344143252,
    -20.91893272692));
#256 = CARTESIAN_POINT('',(4.705819770315,-78.59743206799,
    -20.97921999956));
#257 = CARTESIAN_POINT('',(4.584859853799,-78.72680976979,
    -21.00598990812));
#258 = CARTESIAN_POINT('',(4.489147489977,-78.87001901517,-21.0264393281
    ));
#259 = CARTESIAN_POINT('',(4.418155186463,-79.02227953583,
    -21.04127097744));
#260 = CARTESIAN_POINT('',(4.371217048589,-79.17992775548,
    -21.05096267767));
#261 = CARTESIAN_POINT('',(4.347789464062,-79.34003758292,
    -21.05580031193));
#262 = CARTESIAN_POINT('',(4.347789464062,-79.5,-21.05580031193));
#263 = FACE_BOUND('',#264,.F.);
#264 = EDGE_LOOP('',(#265));
#265 = ORIENTED_EDGE('',*,*,#266,.F.);
#266 = EDGE_CURVE('',#267,#267,#269,.T.);
#267 = VERTEX_POINT('',#268);
#268 = CARTESIAN_POINT('',(-4.347789464062,-79.5,21.055800311938));
#269 = B_SPLINE_CURVE_WITH_KNOTS('',7,(#270,#271,#272,#273,#274,#275,
    #276,#277,#278,#279,#280,#281,#282,#283,#284,#285,#286,#287,#288,
    #289,#290,#291,#292,#293,#294,#295,#296,#297,#298,#299,#300,#301,
    #302,#303,#304,#305,#306,#307,#308,#309,#310,#311,#312,#313),
  .UNSPECIFIED.,.T.,.F.,(8,6,6,6,6,6,6,8),(0.,0.151248163153,
    0.287078104034,0.424387326182,0.587290910757,0.713797290524,
    0.83962534041,1.),.UNSPECIFIED.);
#270 = CARTESIAN_POINT('',(-4.347789464062,-79.5,21.055800311938));
#271 = CARTESIAN_POINT('',(-4.347789464062,-79.65021088909,
    21.055800311938));
#272 = CARTESIAN_POINT('',(-4.368447924579,-79.8004994004,
    21.051534517031));
#273 = CARTESIAN_POINT('',(-4.409806739494,-79.94871716096,
    21.042994647637));
#274 = CARTESIAN_POINT('',(-4.472278423029,-80.09249351538,
    21.02996110986));
#275 = CARTESIAN_POINT('',(-4.556415423949,-80.22891503606,
    21.01205495803));
#276 = CARTESIAN_POINT('',(-4.662719420926,-80.35422325266,
    20.988720916104));
#277 = CARTESIAN_POINT('',(-4.906500804992,-80.56095673383,
    20.932994276011));
#278 = CARTESIAN_POINT('',(-5.042684295246,-80.64808863341,
    20.901084114098));
#279 = CARTESIAN_POINT('',(-5.196789645904,-80.71559696217,
    20.863789135087));
#280 = CARTESIAN_POINT('',(-5.363170781577,-80.75733257436,
    20.821854102077));
#281 = CARTESIAN_POINT('',(-5.534708302594,-80.77004761084,
    20.776651240852));
#282 = CARTESIAN_POINT('',(-5.703944123956,-80.75351894804,
    20.730238818496));
#283 = CARTESIAN_POINT('',(-6.026397771523,-80.66747294234,
    20.638820662112));
#284 = CARTESIAN_POINT('',(-6.174804026069,-80.59861247632,
    20.595145119793));
#285 = CARTESIAN_POINT('',(-6.3066917765,-80.50916298529,20.555023711079
    ));
#286 = CARTESIAN_POINT('',(-6.420510959232,-80.40365199182,
    20.51948325009));
#287 = CARTESIAN_POINT('',(-6.515493312962,-80.28634223391,
    20.489253932234));
#288 = CARTESIAN_POINT('',(-6.591572158715,-80.1612692094,
    20.464722673787));
#289 = CARTESIAN_POINT('',(-6.718004987539,-79.87912508578,
    20.423604323798));
#290 = CARTESIAN_POINT('',(-6.76293713959,-79.7159351012,20.408694569407
    ));
#291 = CARTESIAN_POINT('',(-6.783183955329,-79.54700987137,
    20.401883454034));
#292 = CARTESIAN_POINT('',(-6.778360293789,-79.3766181521,20.40350367576
    ));
#293 = CARTESIAN_POINT('',(-6.748525244538,-79.20889307837,
    20.41350246539));
#294 = CARTESIAN_POINT('',(-6.694038644564,-79.0478695974,
    20.431511694203));
#295 = CARTESIAN_POINT('',(-6.554405686342,-78.78127418469,
    20.476666747759));
#296 = CARTESIAN_POINT('',(-6.477592374071,-78.66898933039,
    20.501272244661));
#297 = CARTESIAN_POINT('',(-6.384598325514,-78.56420466773,
    20.530658301497));
#298 = CARTESIAN_POINT('',(-6.27563508165,-78.47029397189,
    20.564446933017));
#299 = CARTESIAN_POINT('',(-6.151496906277,-78.39073240562,
    20.601995635719));
#300 = CARTESIAN_POINT('',(-6.013605322457,-78.32911342238,
    20.642447422479));
#301 = CARTESIAN_POINT('',(-5.715790802074,-78.24964231044,
    20.726880191664));
#302 = CARTESIAN_POINT('',(-5.559207445836,-78.23241572179,
    20.769928640966));
#303 = CARTESIAN_POINT('',(-5.399960250477,-78.24028262988,
    20.812138599331));
#304 = CARTESIAN_POINT('',(-5.24420766703,-78.27336124885,
    20.851781935478));
#305 = CARTESIAN_POINT('',(-5.097933451747,-78.32931632752,
    20.887624686947));
#306 = CARTESIAN_POINT('',(-4.966089971428,-78.40344143252,
    20.918932726925));
#307 = CARTESIAN_POINT('',(-4.705819770315,-78.59743206799,
    20.979219999567));
#308 = CARTESIAN_POINT('',(-4.584859853799,-78.72680976979,
    21.005989908126));
#309 = CARTESIAN_POINT('',(-4.489147489977,-78.87001901517,
    21.026439328107));
#310 = CARTESIAN_POINT('',(-4.418155186463,-79.02227953583,
    21.041270977441));
#311 = CARTESIAN_POINT('',(-4.371217048589,-79.17992775548,
    21.050962677677));
#312 = CARTESIAN_POINT('',(-4.347789464062,-79.34003758292,
    21.055800311938));
#313 = CARTESIAN_POINT('',(-4.347789464062,-79.5,21.055800311938));
#314 = CYLINDRICAL_SURFACE('',#315,21.5);
#315 = AXIS2_PLACEMENT_3D('',#316,#317,#318);
#316 = CARTESIAN_POINT('',(0.,-75.5,0.));
#317 = DIRECTION('',(-0.,-1.,-0.));
#318 = DIRECTION('',(-0.,-0.,1.));
#319 = ADVANCED_FACE('',(#320),#339,.F.);
#320 = FACE_BOUND('',#321,.T.);
#321 = EDGE_LOOP('',(#322,#330,#337,#338));
#322 = ORIENTED_EDGE('',*,*,#323,.T.);
#323 = EDGE_CURVE('',#78,#324,#326,.T.);
#324 = VERTEX_POINT('',#325);
#325 = CARTESIAN_POINT('',(-4.292387031011E-15,-73.,17.525));
#326 = LINE('',#327,#328);
#327 = CARTESIAN_POINT('',(-4.292387031011E-15,-72.1,17.525));
#328 = VECTOR('',#329,1.);
#329 = DIRECTION('',(-0.,-1.,-0.));
#330 = ORIENTED_EDGE('',*,*,#331,.F.);
#331 = EDGE_CURVE('',#324,#324,#332,.T.);
#332 = CIRCLE('',#333,17.525);
#333 = AXIS2_PLACEMENT_3D('',#334,#335,#336);
#334 = CARTESIAN_POINT('',(0.,-73.,0.));
#335 = DIRECTION('',(0.,1.,0.));
#336 = DIRECTION('',(-0.,-0.,1.));
#337 = ORIENTED_EDGE('',*,*,#323,.F.);
#338 = ORIENTED_EDGE('',*,*,#77,.T.);
#339 = CYLINDRICAL_SURFACE('',#340,17.525);
#340 = AXIS2_PLACEMENT_3D('',#341,#342,#343);
#341 = CARTESIAN_POINT('',(0.,-72.1,0.));
#342 = DIRECTION('',(-0.,-1.,-0.));
#343 = DIRECTION('',(-0.,-0.,1.));
#344 = ADVANCED_FACE('',(#345,#348,#359,#370,#381,#392,#403),#414,.T.);
#345 = FACE_BOUND('',#346,.F.);
#346 = EDGE_LOOP('',(#347));
#347 = ORIENTED_EDGE('',*,*,#94,.T.);
#348 = FACE_BOUND('',#349,.F.);
#349 = EDGE_LOOP('',(#350));
#350 = ORIENTED_EDGE('',*,*,#351,.F.);
#351 = EDGE_CURVE('',#352,#352,#354,.T.);
#352 = VERTEX_POINT('',#353);
#353 = CARTESIAN_POINT('',(-6.75,-82.5,-8.79134295109));
#354 = CIRCLE('',#355,2.9);
#355 = AXIS2_PLACEMENT_3D('',#356,#357,#358);
#356 = CARTESIAN_POINT('',(-6.75,-82.5,-11.69134295109));
#357 = DIRECTION('',(0.,1.,0.));
#358 = DIRECTION('',(-0.,-0.,1.));
#359 = FACE_BOUND('',#360,.F.);
#360 = EDGE_LOOP('',(#361));
#361 = ORIENTED_EDGE('',*,*,#362,.F.);
#362 = EDGE_CURVE('',#363,#363,#365,.T.);
#363 = VERTEX_POINT('',#364);
#364 = CARTESIAN_POINT('',(-13.5,-82.5,2.9));
#365 = CIRCLE('',#366,2.9);
#366 = AXIS2_PLACEMENT_3D('',#367,#368,#369);
#367 = CARTESIAN_POINT('',(-13.5,-82.5,1.653273178849E-15));
#368 = DIRECTION('',(0.,1.,0.));
#369 = DIRECTION('',(-0.,-0.,1.));
#370 = FACE_BOUND('',#371,.F.);
#371 = EDGE_LOOP('',(#372));
#372 = ORIENTED_EDGE('',*,*,#373,.F.);
#373 = EDGE_CURVE('',#374,#374,#376,.T.);
#374 = VERTEX_POINT('',#375);
#375 = CARTESIAN_POINT('',(-6.75,-82.5,14.59134295109));
#376 = CIRCLE('',#377,2.9);
#377 = AXIS2_PLACEMENT_3D('',#378,#379,#380);
#378 = CARTESIAN_POINT('',(-6.75,-82.5,11.69134295109));
#379 = DIRECTION('',(0.,1.,0.));
#380 = DIRECTION('',(-0.,-0.,1.));
#381 = FACE_BOUND('',#382,.F.);
#382 = EDGE_LOOP('',(#383));
#383 = ORIENTED_EDGE('',*,*,#384,.F.);
#384 = EDGE_CURVE('',#385,#385,#387,.T.);
#385 = VERTEX_POINT('',#386);
#386 = CARTESIAN_POINT('',(6.75,-82.5,-8.79134295109));
#387 = CIRCLE('',#388,2.9);
#388 = AXIS2_PLACEMENT_3D('',#389,#390,#391);
#389 = CARTESIAN_POINT('',(6.75,-82.5,-11.69134295109));
#390 = DIRECTION('',(0.,1.,0.));
#391 = DIRECTION('',(-0.,-0.,1.));
#392 = FACE_BOUND('',#393,.F.);
#393 = EDGE_LOOP('',(#394));
#394 = ORIENTED_EDGE('',*,*,#395,.F.);
#395 = EDGE_CURVE('',#396,#396,#398,.T.);
#396 = VERTEX_POINT('',#397);
#397 = CARTESIAN_POINT('',(6.75,-82.5,14.59134295109));
#398 = CIRCLE('',#399,2.9);
#399 = AXIS2_PLACEMENT_3D('',#400,#401,#402);
#400 = CARTESIAN_POINT('',(6.75,-82.5,11.69134295109));
#401 = DIRECTION('',(0.,1.,0.));
#402 = DIRECTION('',(-0.,-0.,1.));
#403 = FACE_BOUND('',#404,.F.);
#404 = EDGE_LOOP('',(#405));
#405 = ORIENTED_EDGE('',*,*,#406,.F.);
#406 = EDGE_CURVE('',#407,#407,#409,.T.);
#407 = VERTEX_POINT('',#408);
#408 = CARTESIAN_POINT('',(13.5,-82.5,2.9));
#409 = CIRCLE('',#410,2.9);
#410 = AXIS2_PLACEMENT_3D('',#411,#412,#413);
#411 = CARTESIAN_POINT('',(13.5,-82.5,0.));
#412 = DIRECTION('',(0.,1.,0.));
#413 = DIRECTION('',(-0.,-0.,1.));
#414 = PLANE('',#415);
#415 = AXIS2_PLACEMENT_3D('',#416,#417,#418);
#416 = CARTESIAN_POINT('',(0.,-82.5,0.));
#417 = DIRECTION('',(-0.,-1.,-0.));
#418 = DIRECTION('',(0.,0.,-1.));
#419 = ADVANCED_FACE('',(#420),#439,.F.);
#420 = FACE_BOUND('',#421,.T.);
#421 = EDGE_LOOP('',(#422,#423,#431,#438));
#422 = ORIENTED_EDGE('',*,*,#113,.F.);
#423 = ORIENTED_EDGE('',*,*,#424,.F.);
#424 = EDGE_CURVE('',#425,#114,#427,.T.);
#425 = VERTEX_POINT('',#426);
#426 = CARTESIAN_POINT('',(16.097215240536,-79.5,5.607331049604));
#427 = LINE('',#428,#429);
#428 = CARTESIAN_POINT('',(16.097215240536,-79.5,5.607331049604));
#429 = VECTOR('',#430,1.);
#430 = DIRECTION('',(0.965925826289,2.9722835542E-33,0.258819045103));
#431 = ORIENTED_EDGE('',*,*,#432,.T.);
#432 = EDGE_CURVE('',#425,#425,#433,.T.);
#433 = CIRCLE('',#434,1.25);
#434 = AXIS2_PLACEMENT_3D('',#435,#436,#437);
#435 = CARTESIAN_POINT('',(16.420739046914,-79.5,4.399923766743));
#436 = DIRECTION('',(-0.965925826289,-0.,-0.258819045103));
#437 = DIRECTION('',(-0.258819045103,-0.,0.965925826289));
#438 = ORIENTED_EDGE('',*,*,#424,.T.);
#439 = CYLINDRICAL_SURFACE('',#440,1.25);
#440 = AXIS2_PLACEMENT_3D('',#441,#442,#443);
#441 = CARTESIAN_POINT('',(16.420739046914,-79.5,4.399923766743));
#442 = DIRECTION('',(0.965925826289,-0.,0.258819045103));
#443 = DIRECTION('',(-0.258819045103,-0.,0.965925826289));
#444 = ADVANCED_FACE('',(#445),#464,.F.);
#445 = FACE_BOUND('',#446,.T.);
#446 = EDGE_LOOP('',(#447,#448,#456,#463));
#447 = ORIENTED_EDGE('',*,*,#164,.F.);
#448 = ORIENTED_EDGE('',*,*,#449,.F.);
#449 = EDGE_CURVE('',#450,#165,#452,.T.);
#450 = VERTEX_POINT('',#451);
#451 = CARTESIAN_POINT('',(-16.09721524053,-79.5,-5.607331049604));
#452 = LINE('',#453,#454);
#453 = CARTESIAN_POINT('',(-16.09721524053,-79.5,-5.607331049604));
#454 = VECTOR('',#455,1.);
#455 = DIRECTION('',(-0.965925826289,2.165207517603E-33,-0.258819045103)
  );
#456 = ORIENTED_EDGE('',*,*,#457,.T.);
#457 = EDGE_CURVE('',#450,#450,#458,.T.);
#458 = CIRCLE('',#459,1.25);
#459 = AXIS2_PLACEMENT_3D('',#460,#461,#462);
#460 = CARTESIAN_POINT('',(-16.42073904691,-79.5,-4.399923766743));
#461 = DIRECTION('',(0.965925826289,0.,0.258819045103));
#462 = DIRECTION('',(0.258819045103,-0.,-0.965925826289));
#463 = ORIENTED_EDGE('',*,*,#449,.T.);
#464 = CYLINDRICAL_SURFACE('',#465,1.25);
#465 = AXIS2_PLACEMENT_3D('',#466,#467,#468);
#466 = CARTESIAN_POINT('',(-16.42073904691,-79.5,-4.399923766743));
#467 = DIRECTION('',(-0.965925826289,-0.,-0.258819045103));
#468 = DIRECTION('',(0.258819045103,-0.,-0.965925826289));
#469 = ADVANCED_FACE('',(#470),#489,.F.);
#470 = FACE_BOUND('',#471,.T.);
#471 = EDGE_LOOP('',(#472,#473,#481,#488));
#472 = ORIENTED_EDGE('',*,*,#215,.F.);
#473 = ORIENTED_EDGE('',*,*,#474,.F.);
#474 = EDGE_CURVE('',#475,#216,#477,.T.);
#475 = VERTEX_POINT('',#476);
#476 = CARTESIAN_POINT('',(3.192516483882,-79.5,-16.74426285329));
#477 = LINE('',#478,#479);
#478 = CARTESIAN_POINT('',(3.192516483882,-79.5,-16.74426285329));
#479 = VECTOR('',#480,1.);
#480 = DIRECTION('',(0.258819045103,1.229901607214E-32,-0.965925826289)
  );
#481 = ORIENTED_EDGE('',*,*,#482,.T.);
#482 = EDGE_CURVE('',#475,#475,#483,.T.);
#483 = CIRCLE('',#484,1.25);
#484 = AXIS2_PLACEMENT_3D('',#485,#486,#487);
#485 = CARTESIAN_POINT('',(4.399923766743,-79.5,-16.42073904691));
#486 = DIRECTION('',(-0.258819045103,0.,0.965925826289));
#487 = DIRECTION('',(-0.965925826289,-0.,-0.258819045103));
#488 = ORIENTED_EDGE('',*,*,#474,.T.);
#489 = CYLINDRICAL_SURFACE('',#490,1.25);
#490 = AXIS2_PLACEMENT_3D('',#491,#492,#493);
#491 = CARTESIAN_POINT('',(4.399923766743,-79.5,-16.42073904691));
#492 = DIRECTION('',(0.258819045103,-0.,-0.965925826289));
#493 = DIRECTION('',(-0.965925826289,-0.,-0.258819045103));
#494 = ADVANCED_FACE('',(#495),#514,.F.);
#495 = FACE_BOUND('',#496,.T.);
#496 = EDGE_LOOP('',(#497,#498,#506,#513));
#497 = ORIENTED_EDGE('',*,*,#266,.F.);
#498 = ORIENTED_EDGE('',*,*,#499,.F.);
#499 = EDGE_CURVE('',#500,#267,#502,.T.);
#500 = VERTEX_POINT('',#501);
#501 = CARTESIAN_POINT('',(-3.192516483882,-79.5,16.744262853292));
#502 = LINE('',#503,#504);
#503 = CARTESIAN_POINT('',(-3.192516483882,-79.5,16.744262853292));
#504 = VECTOR('',#505,1.);
#505 = DIRECTION('',(-0.258819045103,6.410849575098E-34,0.965925826289)
  );
#506 = ORIENTED_EDGE('',*,*,#507,.T.);
#507 = EDGE_CURVE('',#500,#500,#508,.T.);
#508 = CIRCLE('',#509,1.25);
#509 = AXIS2_PLACEMENT_3D('',#510,#511,#512);
#510 = CARTESIAN_POINT('',(-4.399923766743,-79.5,16.420739046914));
#511 = DIRECTION('',(0.258819045103,0.,-0.965925826289));
#512 = DIRECTION('',(0.965925826289,-0.,0.258819045103));
#513 = ORIENTED_EDGE('',*,*,#499,.T.);
#514 = CYLINDRICAL_SURFACE('',#515,1.25);
#515 = AXIS2_PLACEMENT_3D('',#516,#517,#518);
#516 = CARTESIAN_POINT('',(-4.399923766743,-79.5,16.420739046914));
#517 = DIRECTION('',(-0.258819045103,-0.,0.965925826289));
#518 = DIRECTION('',(0.965925826289,-0.,0.258819045103));
#519 = ADVANCED_FACE('',(#520,#523,#534,#545,#556,#567,#578,#589,#600,
    #611),#622,.F.);
#520 = FACE_BOUND('',#521,.T.);
#521 = EDGE_LOOP('',(#522));
#522 = ORIENTED_EDGE('',*,*,#331,.T.);
#523 = FACE_BOUND('',#524,.T.);
#524 = EDGE_LOOP('',(#525));
#525 = ORIENTED_EDGE('',*,*,#526,.F.);
#526 = EDGE_CURVE('',#527,#527,#529,.T.);
#527 = VERTEX_POINT('',#528);
#528 = CARTESIAN_POINT('',(-13.5,-73.,1.7));
#529 = CIRCLE('',#530,1.7);
#530 = AXIS2_PLACEMENT_3D('',#531,#532,#533);
#531 = CARTESIAN_POINT('',(-13.5,-73.,1.653273178849E-15));
#532 = DIRECTION('',(0.,1.,0.));
#533 = DIRECTION('',(-0.,-0.,1.));
#534 = FACE_BOUND('',#535,.T.);
#535 = EDGE_LOOP('',(#536));
#536 = ORIENTED_EDGE('',*,*,#537,.F.);
#537 = EDGE_CURVE('',#538,#538,#540,.T.);
#538 = VERTEX_POINT('',#539);
#539 = CARTESIAN_POINT('',(-10.52220865598,-73.,-4.075));
#540 = CIRCLE('',#541,2.);
#541 = AXIS2_PLACEMENT_3D('',#542,#543,#544);
#542 = CARTESIAN_POINT('',(-10.52220865598,-73.,-6.075));
#543 = DIRECTION('',(0.,1.,0.));
#544 = DIRECTION('',(-0.,-0.,1.));
#545 = FACE_BOUND('',#546,.T.);
#546 = EDGE_LOOP('',(#547));
#547 = ORIENTED_EDGE('',*,*,#548,.F.);
#548 = EDGE_CURVE('',#549,#549,#551,.T.);
#549 = VERTEX_POINT('',#550);
#550 = CARTESIAN_POINT('',(-6.75,-73.,-9.99134295109));
#551 = CIRCLE('',#552,1.7);
#552 = AXIS2_PLACEMENT_3D('',#553,#554,#555);
#553 = CARTESIAN_POINT('',(-6.75,-73.,-11.69134295109));
#554 = DIRECTION('',(0.,1.,0.));
#555 = DIRECTION('',(-0.,-0.,1.));
#556 = FACE_BOUND('',#557,.T.);
#557 = EDGE_LOOP('',(#558));
#558 = ORIENTED_EDGE('',*,*,#559,.F.);
#559 = EDGE_CURVE('',#560,#560,#562,.T.);
#560 = VERTEX_POINT('',#561);
#561 = CARTESIAN_POINT('',(-6.75,-73.,13.39134295109));
#562 = CIRCLE('',#563,1.7);
#563 = AXIS2_PLACEMENT_3D('',#564,#565,#566);
#564 = CARTESIAN_POINT('',(-6.75,-73.,11.69134295109));
#565 = DIRECTION('',(0.,1.,0.));
#566 = DIRECTION('',(-0.,-0.,1.));
#567 = FACE_BOUND('',#568,.T.);
#568 = EDGE_LOOP('',(#569));
#569 = ORIENTED_EDGE('',*,*,#570,.F.);
#570 = EDGE_CURVE('',#571,#571,#573,.T.);
#571 = VERTEX_POINT('',#572);
#572 = CARTESIAN_POINT('',(2.541142108231E-16,-73.,14.15));
#573 = CIRCLE('',#574,2.);
#574 = AXIS2_PLACEMENT_3D('',#575,#576,#577);
#575 = CARTESIAN_POINT('',(7.43972930482E-16,-73.,12.15));
#576 = DIRECTION('',(0.,1.,0.));
#577 = DIRECTION('',(-0.,-0.,1.));
#578 = FACE_BOUND('',#579,.T.);
#579 = EDGE_LOOP('',(#580));
#580 = ORIENTED_EDGE('',*,*,#581,.F.);
#581 = EDGE_CURVE('',#582,#582,#584,.T.);
#582 = VERTEX_POINT('',#583);
#583 = CARTESIAN_POINT('',(6.75,-73.,-9.99134295109));
#584 = CIRCLE('',#585,1.7);
#585 = AXIS2_PLACEMENT_3D('',#586,#587,#588);
#586 = CARTESIAN_POINT('',(6.75,-73.,-11.69134295109));
#587 = DIRECTION('',(0.,1.,0.));
#588 = DIRECTION('',(-0.,-0.,1.));
#589 = FACE_BOUND('',#590,.T.);
#590 = EDGE_LOOP('',(#591));
#591 = ORIENTED_EDGE('',*,*,#592,.F.);
#592 = EDGE_CURVE('',#593,#593,#595,.T.);
#593 = VERTEX_POINT('',#594);
#594 = CARTESIAN_POINT('',(10.522208655981,-73.,-4.075));
#595 = CIRCLE('',#596,2.);
#596 = AXIS2_PLACEMENT_3D('',#597,#598,#599);
#597 = CARTESIAN_POINT('',(10.522208655981,-73.,-6.075));
#598 = DIRECTION('',(0.,1.,0.));
#599 = DIRECTION('',(-0.,-0.,1.));
#600 = FACE_BOUND('',#601,.T.);
#601 = EDGE_LOOP('',(#602));
#602 = ORIENTED_EDGE('',*,*,#603,.F.);
#603 = EDGE_CURVE('',#604,#604,#606,.T.);
#604 = VERTEX_POINT('',#605);
#605 = CARTESIAN_POINT('',(13.5,-73.,1.7));
#606 = CIRCLE('',#607,1.7);
#607 = AXIS2_PLACEMENT_3D('',#608,#609,#610);
#608 = CARTESIAN_POINT('',(13.5,-73.,0.));
#609 = DIRECTION('',(0.,1.,0.));
#610 = DIRECTION('',(-0.,-0.,1.));
#611 = FACE_BOUND('',#612,.T.);
#612 = EDGE_LOOP('',(#613));
#613 = ORIENTED_EDGE('',*,*,#614,.F.);
#614 = EDGE_CURVE('',#615,#615,#617,.T.);
#615 = VERTEX_POINT('',#616);
#616 = CARTESIAN_POINT('',(6.75,-73.,13.39134295109));
#617 = CIRCLE('',#618,1.7);
#618 = AXIS2_PLACEMENT_3D('',#619,#620,#621);
#619 = CARTESIAN_POINT('',(6.75,-73.,11.69134295109));
#620 = DIRECTION('',(0.,1.,0.));
#621 = DIRECTION('',(-0.,-0.,1.));
#622 = PLANE('',#623);
#623 = AXIS2_PLACEMENT_3D('',#624,#625,#626);
#624 = CARTESIAN_POINT('',(0.,-73.,0.));
#625 = DIRECTION('',(-0.,-1.,-0.));
#626 = DIRECTION('',(0.,0.,-1.));
#627 = ADVANCED_FACE('',(#628),#647,.F.);
#628 = FACE_BOUND('',#629,.T.);
#629 = EDGE_LOOP('',(#630,#631,#639,#646));
#630 = ORIENTED_EDGE('',*,*,#351,.F.);
#631 = ORIENTED_EDGE('',*,*,#632,.F.);
#632 = EDGE_CURVE('',#633,#352,#635,.T.);
#633 = VERTEX_POINT('',#634);
#634 = CARTESIAN_POINT('',(-6.75,-78.,-8.79134295109));
#635 = LINE('',#636,#637);
#636 = CARTESIAN_POINT('',(-6.75,-78.,-8.79134295109));
#637 = VECTOR('',#638,1.);
#638 = DIRECTION('',(-0.,-1.,-0.));
#639 = ORIENTED_EDGE('',*,*,#640,.T.);
#640 = EDGE_CURVE('',#633,#633,#641,.T.);
#641 = CIRCLE('',#642,2.9);
#642 = AXIS2_PLACEMENT_3D('',#643,#644,#645);
#643 = CARTESIAN_POINT('',(-6.75,-78.,-11.69134295109));
#644 = DIRECTION('',(0.,1.,0.));
#645 = DIRECTION('',(-0.,-0.,1.));
#646 = ORIENTED_EDGE('',*,*,#632,.T.);
#647 = CYLINDRICAL_SURFACE('',#648,2.9);
#648 = AXIS2_PLACEMENT_3D('',#649,#650,#651);
#649 = CARTESIAN_POINT('',(-6.75,-78.,-11.69134295109));
#650 = DIRECTION('',(-0.,-1.,-0.));
#651 = DIRECTION('',(-0.,-0.,1.));
#652 = ADVANCED_FACE('',(#653),#672,.F.);
#653 = FACE_BOUND('',#654,.T.);
#654 = EDGE_LOOP('',(#655,#656,#664,#671));
#655 = ORIENTED_EDGE('',*,*,#362,.F.);
#656 = ORIENTED_EDGE('',*,*,#657,.F.);
#657 = EDGE_CURVE('',#658,#363,#660,.T.);
#658 = VERTEX_POINT('',#659);
#659 = CARTESIAN_POINT('',(-13.5,-78.,2.9));
#660 = LINE('',#661,#662);
#661 = CARTESIAN_POINT('',(-13.5,-78.,2.9));
#662 = VECTOR('',#663,1.);
#663 = DIRECTION('',(-0.,-1.,-0.));
#664 = ORIENTED_EDGE('',*,*,#665,.T.);
#665 = EDGE_CURVE('',#658,#658,#666,.T.);
#666 = CIRCLE('',#667,2.9);
#667 = AXIS2_PLACEMENT_3D('',#668,#669,#670);
#668 = CARTESIAN_POINT('',(-13.5,-78.,1.653273178849E-15));
#669 = DIRECTION('',(0.,1.,0.));
#670 = DIRECTION('',(-0.,-0.,1.));
#671 = ORIENTED_EDGE('',*,*,#657,.T.);
#672 = CYLINDRICAL_SURFACE('',#673,2.9);
#673 = AXIS2_PLACEMENT_3D('',#674,#675,#676);
#674 = CARTESIAN_POINT('',(-13.5,-78.,1.653273178849E-15));
#675 = DIRECTION('',(-0.,-1.,-0.));
#676 = DIRECTION('',(-0.,-0.,1.));
#677 = ADVANCED_FACE('',(#678),#697,.F.);
#678 = FACE_BOUND('',#679,.T.);
#679 = EDGE_LOOP('',(#680,#681,#689,#696));
#680 = ORIENTED_EDGE('',*,*,#373,.F.);
#681 = ORIENTED_EDGE('',*,*,#682,.F.);
#682 = EDGE_CURVE('',#683,#374,#685,.T.);
#683 = VERTEX_POINT('',#684);
#684 = CARTESIAN_POINT('',(-6.75,-78.,14.59134295109));
#685 = LINE('',#686,#687);
#686 = CARTESIAN_POINT('',(-6.75,-78.,14.59134295109));
#687 = VECTOR('',#688,1.);
#688 = DIRECTION('',(-0.,-1.,-0.));
#689 = ORIENTED_EDGE('',*,*,#690,.T.);
#690 = EDGE_CURVE('',#683,#683,#691,.T.);
#691 = CIRCLE('',#692,2.9);
#692 = AXIS2_PLACEMENT_3D('',#693,#694,#695);
#693 = CARTESIAN_POINT('',(-6.75,-78.,11.69134295109));
#694 = DIRECTION('',(0.,1.,0.));
#695 = DIRECTION('',(-0.,-0.,1.));
#696 = ORIENTED_EDGE('',*,*,#682,.T.);
#697 = CYLINDRICAL_SURFACE('',#698,2.9);
#698 = AXIS2_PLACEMENT_3D('',#699,#700,#701);
#699 = CARTESIAN_POINT('',(-6.75,-78.,11.69134295109));
#700 = DIRECTION('',(-0.,-1.,-0.));
#701 = DIRECTION('',(-0.,-0.,1.));
#702 = ADVANCED_FACE('',(#703),#722,.F.);
#703 = FACE_BOUND('',#704,.T.);
#704 = EDGE_LOOP('',(#705,#706,#714,#721));
#705 = ORIENTED_EDGE('',*,*,#384,.F.);
#706 = ORIENTED_EDGE('',*,*,#707,.F.);
#707 = EDGE_CURVE('',#708,#385,#710,.T.);
#708 = VERTEX_POINT('',#709);
#709 = CARTESIAN_POINT('',(6.75,-78.,-8.79134295109));
#710 = LINE('',#711,#712);
#711 = CARTESIAN_POINT('',(6.75,-78.,-8.79134295109));
#712 = VECTOR('',#713,1.);
#713 = DIRECTION('',(-0.,-1.,-0.));
#714 = ORIENTED_EDGE('',*,*,#715,.T.);
#715 = EDGE_CURVE('',#708,#708,#716,.T.);
#716 = CIRCLE('',#717,2.9);
#717 = AXIS2_PLACEMENT_3D('',#718,#719,#720);
#718 = CARTESIAN_POINT('',(6.75,-78.,-11.69134295109));
#719 = DIRECTION('',(0.,1.,0.));
#720 = DIRECTION('',(-0.,-0.,1.));
#721 = ORIENTED_EDGE('',*,*,#707,.T.);
#722 = CYLINDRICAL_SURFACE('',#723,2.9);
#723 = AXIS2_PLACEMENT_3D('',#724,#725,#726);
#724 = CARTESIAN_POINT('',(6.75,-78.,-11.69134295109));
#725 = DIRECTION('',(-0.,-1.,-0.));
#726 = DIRECTION('',(-0.,-0.,1.));
#727 = ADVANCED_FACE('',(#728),#747,.F.);
#728 = FACE_BOUND('',#729,.T.);
#729 = EDGE_LOOP('',(#730,#731,#739,#746));
#730 = ORIENTED_EDGE('',*,*,#395,.F.);
#731 = ORIENTED_EDGE('',*,*,#732,.F.);
#732 = EDGE_CURVE('',#733,#396,#735,.T.);
#733 = VERTEX_POINT('',#734);
#734 = CARTESIAN_POINT('',(6.75,-78.,14.59134295109));
#735 = LINE('',#736,#737);
#736 = CARTESIAN_POINT('',(6.75,-78.,14.59134295109));
#737 = VECTOR('',#738,1.);
#738 = DIRECTION('',(-0.,-1.,-0.));
#739 = ORIENTED_EDGE('',*,*,#740,.T.);
#740 = EDGE_CURVE('',#733,#733,#741,.T.);
#741 = CIRCLE('',#742,2.9);
#742 = AXIS2_PLACEMENT_3D('',#743,#744,#745);
#743 = CARTESIAN_POINT('',(6.75,-78.,11.69134295109));
#744 = DIRECTION('',(0.,1.,0.));
#745 = DIRECTION('',(-0.,-0.,1.));
#746 = ORIENTED_EDGE('',*,*,#732,.T.);
#747 = CYLINDRICAL_SURFACE('',#748,2.9);
#748 = AXIS2_PLACEMENT_3D('',#749,#750,#751);
#749 = CARTESIAN_POINT('',(6.75,-78.,11.69134295109));
#750 = DIRECTION('',(-0.,-1.,-0.));
#751 = DIRECTION('',(-0.,-0.,1.));
#752 = ADVANCED_FACE('',(#753),#772,.F.);
#753 = FACE_BOUND('',#754,.T.);
#754 = EDGE_LOOP('',(#755,#756,#764,#771));
#755 = ORIENTED_EDGE('',*,*,#406,.F.);
#756 = ORIENTED_EDGE('',*,*,#757,.F.);
#757 = EDGE_CURVE('',#758,#407,#760,.T.);
#758 = VERTEX_POINT('',#759);
#759 = CARTESIAN_POINT('',(13.5,-78.,2.9));
#760 = LINE('',#761,#762);
#761 = CARTESIAN_POINT('',(13.5,-78.,2.9));
#762 = VECTOR('',#763,1.);
#763 = DIRECTION('',(-0.,-1.,-0.));
#764 = ORIENTED_EDGE('',*,*,#765,.T.);
#765 = EDGE_CURVE('',#758,#758,#766,.T.);
#766 = CIRCLE('',#767,2.9);
#767 = AXIS2_PLACEMENT_3D('',#768,#769,#770);
#768 = CARTESIAN_POINT('',(13.5,-78.,0.));
#769 = DIRECTION('',(0.,1.,0.));
#770 = DIRECTION('',(-0.,-0.,1.));
#771 = ORIENTED_EDGE('',*,*,#757,.T.);
#772 = CYLINDRICAL_SURFACE('',#773,2.9);
#773 = AXIS2_PLACEMENT_3D('',#774,#775,#776);
#774 = CARTESIAN_POINT('',(13.5,-78.,0.));
#775 = DIRECTION('',(-0.,-1.,-0.));
#776 = DIRECTION('',(-0.,-0.,1.));
#777 = ADVANCED_FACE('',(#778),#790,.F.);
#778 = FACE_BOUND('',#779,.T.);
#779 = EDGE_LOOP('',(#780,#781,#789));
#780 = ORIENTED_EDGE('',*,*,#432,.F.);
#781 = ORIENTED_EDGE('',*,*,#782,.F.);
#782 = EDGE_CURVE('',#783,#425,#785,.T.);
#783 = VERTEX_POINT('',#784);
#784 = CARTESIAN_POINT('',(15.695255559516,-79.5,4.205531052172));
#785 = LINE('',#786,#787);
#786 = CARTESIAN_POINT('',(15.695255559516,-79.5,4.205531052172));
#787 = VECTOR('',#788,1.);
#788 = DIRECTION('',(0.275637355817,-2.099454382277E-16,0.961261695938)
  );
#789 = ORIENTED_EDGE('',*,*,#782,.T.);
#790 = CONICAL_SURFACE('',#791,0.,1.029744258677);
#791 = AXIS2_PLACEMENT_3D('',#792,#793,#794);
#792 = CARTESIAN_POINT('',(15.695255559516,-79.5,4.205531052172));
#793 = DIRECTION('',(0.965925826289,-0.,0.258819045103));
#794 = DIRECTION('',(-0.258819045103,-0.,0.965925826289));
#795 = ADVANCED_FACE('',(#796),#808,.F.);
#796 = FACE_BOUND('',#797,.T.);
#797 = EDGE_LOOP('',(#798,#799,#807));
#798 = ORIENTED_EDGE('',*,*,#457,.F.);
#799 = ORIENTED_EDGE('',*,*,#800,.F.);
#800 = EDGE_CURVE('',#801,#450,#803,.T.);
#801 = VERTEX_POINT('',#802);
#802 = CARTESIAN_POINT('',(-15.69525555951,-79.5,-4.205531052172));
#803 = LINE('',#804,#805);
#804 = CARTESIAN_POINT('',(-15.69525555951,-79.5,-4.205531052172));
#805 = VECTOR('',#806,1.);
#806 = DIRECTION('',(-0.275637355817,-2.099454382277E-16,-0.961261695938
    ));
#807 = ORIENTED_EDGE('',*,*,#800,.T.);
#808 = CONICAL_SURFACE('',#809,0.,1.029744258677);
#809 = AXIS2_PLACEMENT_3D('',#810,#811,#812);
#810 = CARTESIAN_POINT('',(-15.69525555951,-79.5,-4.205531052172));
#811 = DIRECTION('',(-0.965925826289,-0.,-0.258819045103));
#812 = DIRECTION('',(0.258819045103,-0.,-0.965925826289));
#813 = ADVANCED_FACE('',(#814),#826,.F.);
#814 = FACE_BOUND('',#815,.T.);
#815 = EDGE_LOOP('',(#816,#817,#825));
#816 = ORIENTED_EDGE('',*,*,#482,.F.);
#817 = ORIENTED_EDGE('',*,*,#818,.F.);
#818 = EDGE_CURVE('',#819,#475,#821,.T.);
#819 = VERTEX_POINT('',#820);
#820 = CARTESIAN_POINT('',(4.205531052172,-79.5,-15.69525555951));
#821 = LINE('',#822,#823);
#822 = CARTESIAN_POINT('',(4.205531052172,-79.5,-15.69525555951));
#823 = VECTOR('',#824,1.);
#824 = DIRECTION('',(-0.694658370459,2.099454382277E-16,-0.719339800339)
  );
#825 = ORIENTED_EDGE('',*,*,#818,.T.);
#826 = CONICAL_SURFACE('',#827,0.,1.029744258677);
#827 = AXIS2_PLACEMENT_3D('',#828,#829,#830);
#828 = CARTESIAN_POINT('',(4.205531052172,-79.5,-15.69525555951));
#829 = DIRECTION('',(0.258819045103,-0.,-0.965925826289));
#830 = DIRECTION('',(-0.965925826289,-0.,-0.258819045103));
#831 = ADVANCED_FACE('',(#832),#844,.F.);
#832 = FACE_BOUND('',#833,.T.);
#833 = EDGE_LOOP('',(#834,#835,#843));
#834 = ORIENTED_EDGE('',*,*,#507,.F.);
#835 = ORIENTED_EDGE('',*,*,#836,.F.);
#836 = EDGE_CURVE('',#837,#500,#839,.T.);
#837 = VERTEX_POINT('',#838);
#838 = CARTESIAN_POINT('',(-4.205531052172,-79.5,15.695255559516));
#839 = LINE('',#840,#841);
#840 = CARTESIAN_POINT('',(-4.205531052172,-79.5,15.695255559516));
#841 = VECTOR('',#842,1.);
#842 = DIRECTION('',(0.694658370459,2.099454382277E-16,0.719339800339));
#843 = ORIENTED_EDGE('',*,*,#836,.T.);
#844 = CONICAL_SURFACE('',#845,0.,1.029744258677);
#845 = AXIS2_PLACEMENT_3D('',#846,#847,#848);
#846 = CARTESIAN_POINT('',(-4.205531052172,-79.5,15.695255559516));
#847 = DIRECTION('',(-0.258819045103,-0.,0.965925826289));
#848 = DIRECTION('',(0.965925826289,-0.,0.258819045103));
#849 = ADVANCED_FACE('',(#850),#869,.F.);
#850 = FACE_BOUND('',#851,.T.);
#851 = EDGE_LOOP('',(#852,#861,#867,#868));
#852 = ORIENTED_EDGE('',*,*,#853,.F.);
#853 = EDGE_CURVE('',#854,#854,#856,.T.);
#854 = VERTEX_POINT('',#855);
#855 = CARTESIAN_POINT('',(-13.5,-78.,1.7));
#856 = CIRCLE('',#857,1.7);
#857 = AXIS2_PLACEMENT_3D('',#858,#859,#860);
#858 = CARTESIAN_POINT('',(-13.5,-78.,1.653273178849E-15));
#859 = DIRECTION('',(0.,1.,0.));
#860 = DIRECTION('',(-0.,-0.,1.));
#861 = ORIENTED_EDGE('',*,*,#862,.F.);
#862 = EDGE_CURVE('',#527,#854,#863,.T.);
#863 = LINE('',#864,#865);
#864 = CARTESIAN_POINT('',(-13.5,-72.,1.7));
#865 = VECTOR('',#866,1.);
#866 = DIRECTION('',(-0.,-1.,-0.));
#867 = ORIENTED_EDGE('',*,*,#526,.T.);
#868 = ORIENTED_EDGE('',*,*,#862,.T.);
#869 = CYLINDRICAL_SURFACE('',#870,1.7);
#870 = AXIS2_PLACEMENT_3D('',#871,#872,#873);
#871 = CARTESIAN_POINT('',(-13.5,-72.,1.653273178849E-15));
#872 = DIRECTION('',(-0.,-1.,-0.));
#873 = DIRECTION('',(-0.,-0.,1.));
#874 = ADVANCED_FACE('',(#875),#894,.F.);
#875 = FACE_BOUND('',#876,.T.);
#876 = EDGE_LOOP('',(#877,#885,#892,#893));
#877 = ORIENTED_EDGE('',*,*,#878,.T.);
#878 = EDGE_CURVE('',#538,#879,#881,.T.);
#879 = VERTEX_POINT('',#880);
#880 = CARTESIAN_POINT('',(-10.52220865598,-79.,-4.075));
#881 = LINE('',#882,#883);
#882 = CARTESIAN_POINT('',(-10.52220865598,-72.9,-4.075));
#883 = VECTOR('',#884,1.);
#884 = DIRECTION('',(-0.,-1.,-0.));
#885 = ORIENTED_EDGE('',*,*,#886,.F.);
#886 = EDGE_CURVE('',#879,#879,#887,.T.);
#887 = CIRCLE('',#888,2.);
#888 = AXIS2_PLACEMENT_3D('',#889,#890,#891);
#889 = CARTESIAN_POINT('',(-10.52220865598,-79.,-6.075));
#890 = DIRECTION('',(0.,1.,0.));
#891 = DIRECTION('',(-0.,-0.,1.));
#892 = ORIENTED_EDGE('',*,*,#878,.F.);
#893 = ORIENTED_EDGE('',*,*,#537,.T.);
#894 = CYLINDRICAL_SURFACE('',#895,2.);
#895 = AXIS2_PLACEMENT_3D('',#896,#897,#898);
#896 = CARTESIAN_POINT('',(-10.52220865598,-72.9,-6.075));
#897 = DIRECTION('',(-0.,-1.,-0.));
#898 = DIRECTION('',(-0.,-0.,1.));
#899 = ADVANCED_FACE('',(#900),#919,.F.);
#900 = FACE_BOUND('',#901,.T.);
#901 = EDGE_LOOP('',(#902,#911,#917,#918));
#902 = ORIENTED_EDGE('',*,*,#903,.F.);
#903 = EDGE_CURVE('',#904,#904,#906,.T.);
#904 = VERTEX_POINT('',#905);
#905 = CARTESIAN_POINT('',(-6.75,-78.,-9.99134295109));
#906 = CIRCLE('',#907,1.7);
#907 = AXIS2_PLACEMENT_3D('',#908,#909,#910);
#908 = CARTESIAN_POINT('',(-6.75,-78.,-11.69134295109));
#909 = DIRECTION('',(0.,1.,0.));
#910 = DIRECTION('',(-0.,-0.,1.));
#911 = ORIENTED_EDGE('',*,*,#912,.F.);
#912 = EDGE_CURVE('',#549,#904,#913,.T.);
#913 = LINE('',#914,#915);
#914 = CARTESIAN_POINT('',(-6.75,-72.,-9.99134295109));
#915 = VECTOR('',#916,1.);
#916 = DIRECTION('',(-0.,-1.,-0.));
#917 = ORIENTED_EDGE('',*,*,#548,.T.);
#918 = ORIENTED_EDGE('',*,*,#912,.T.);
#919 = CYLINDRICAL_SURFACE('',#920,1.7);
#920 = AXIS2_PLACEMENT_3D('',#921,#922,#923);
#921 = CARTESIAN_POINT('',(-6.75,-72.,-11.69134295109));
#922 = DIRECTION('',(-0.,-1.,-0.));
#923 = DIRECTION('',(-0.,-0.,1.));
#924 = ADVANCED_FACE('',(#925),#944,.F.);
#925 = FACE_BOUND('',#926,.T.);
#926 = EDGE_LOOP('',(#927,#936,#942,#943));
#927 = ORIENTED_EDGE('',*,*,#928,.F.);
#928 = EDGE_CURVE('',#929,#929,#931,.T.);
#929 = VERTEX_POINT('',#930);
#930 = CARTESIAN_POINT('',(-6.75,-78.,13.39134295109));
#931 = CIRCLE('',#932,1.7);
#932 = AXIS2_PLACEMENT_3D('',#933,#934,#935);
#933 = CARTESIAN_POINT('',(-6.75,-78.,11.69134295109));
#934 = DIRECTION('',(0.,1.,0.));
#935 = DIRECTION('',(-0.,-0.,1.));
#936 = ORIENTED_EDGE('',*,*,#937,.F.);
#937 = EDGE_CURVE('',#560,#929,#938,.T.);
#938 = LINE('',#939,#940);
#939 = CARTESIAN_POINT('',(-6.75,-72.,13.39134295109));
#940 = VECTOR('',#941,1.);
#941 = DIRECTION('',(-0.,-1.,-0.));
#942 = ORIENTED_EDGE('',*,*,#559,.T.);
#943 = ORIENTED_EDGE('',*,*,#937,.T.);
#944 = CYLINDRICAL_SURFACE('',#945,1.7);
#945 = AXIS2_PLACEMENT_3D('',#946,#947,#948);
#946 = CARTESIAN_POINT('',(-6.75,-72.,11.69134295109));
#947 = DIRECTION('',(-0.,-1.,-0.));
#948 = DIRECTION('',(-0.,-0.,1.));
#949 = ADVANCED_FACE('',(#950),#969,.F.);
#950 = FACE_BOUND('',#951,.T.);
#951 = EDGE_LOOP('',(#952,#960,#967,#968));
#952 = ORIENTED_EDGE('',*,*,#953,.T.);
#953 = EDGE_CURVE('',#571,#954,#956,.T.);
#954 = VERTEX_POINT('',#955);
#955 = CARTESIAN_POINT('',(2.541142108231E-16,-79.,14.15));
#956 = LINE('',#957,#958);
#957 = CARTESIAN_POINT('',(2.541142108231E-16,-72.9,14.15));
#958 = VECTOR('',#959,1.);
#959 = DIRECTION('',(-0.,-1.,-0.));
#960 = ORIENTED_EDGE('',*,*,#961,.F.);
#961 = EDGE_CURVE('',#954,#954,#962,.T.);
#962 = CIRCLE('',#963,2.);
#963 = AXIS2_PLACEMENT_3D('',#964,#965,#966);
#964 = CARTESIAN_POINT('',(7.43972930482E-16,-79.,12.15));
#965 = DIRECTION('',(0.,1.,0.));
#966 = DIRECTION('',(-0.,-0.,1.));
#967 = ORIENTED_EDGE('',*,*,#953,.F.);
#968 = ORIENTED_EDGE('',*,*,#570,.T.);
#969 = CYLINDRICAL_SURFACE('',#970,2.);
#970 = AXIS2_PLACEMENT_3D('',#971,#972,#973);
#971 = CARTESIAN_POINT('',(7.43972930482E-16,-72.9,12.15));
#972 = DIRECTION('',(-0.,-1.,-0.));
#973 = DIRECTION('',(-0.,-0.,1.));
#974 = ADVANCED_FACE('',(#975),#994,.F.);
#975 = FACE_BOUND('',#976,.T.);
#976 = EDGE_LOOP('',(#977,#986,#992,#993));
#977 = ORIENTED_EDGE('',*,*,#978,.F.);
#978 = EDGE_CURVE('',#979,#979,#981,.T.);
#979 = VERTEX_POINT('',#980);
#980 = CARTESIAN_POINT('',(6.75,-78.,-9.99134295109));
#981 = CIRCLE('',#982,1.7);
#982 = AXIS2_PLACEMENT_3D('',#983,#984,#985);
#983 = CARTESIAN_POINT('',(6.75,-78.,-11.69134295109));
#984 = DIRECTION('',(0.,1.,0.));
#985 = DIRECTION('',(-0.,-0.,1.));
#986 = ORIENTED_EDGE('',*,*,#987,.F.);
#987 = EDGE_CURVE('',#582,#979,#988,.T.);
#988 = LINE('',#989,#990);
#989 = CARTESIAN_POINT('',(6.75,-72.,-9.99134295109));
#990 = VECTOR('',#991,1.);
#991 = DIRECTION('',(-0.,-1.,-0.));
#992 = ORIENTED_EDGE('',*,*,#581,.T.);
#993 = ORIENTED_EDGE('',*,*,#987,.T.);
#994 = CYLINDRICAL_SURFACE('',#995,1.7);
#995 = AXIS2_PLACEMENT_3D('',#996,#997,#998);
#996 = CARTESIAN_POINT('',(6.75,-72.,-11.69134295109));
#997 = DIRECTION('',(-0.,-1.,-0.));
#998 = DIRECTION('',(-0.,-0.,1.));
#999 = ADVANCED_FACE('',(#1000),#1019,.F.);
#1000 = FACE_BOUND('',#1001,.T.);
#1001 = EDGE_LOOP('',(#1002,#1010,#1017,#1018));
#1002 = ORIENTED_EDGE('',*,*,#1003,.T.);
#1003 = EDGE_CURVE('',#593,#1004,#1006,.T.);
#1004 = VERTEX_POINT('',#1005);
#1005 = CARTESIAN_POINT('',(10.522208655981,-79.,-4.075));
#1006 = LINE('',#1007,#1008);
#1007 = CARTESIAN_POINT('',(10.522208655981,-72.9,-4.075));
#1008 = VECTOR('',#1009,1.);
#1009 = DIRECTION('',(-0.,-1.,-0.));
#1010 = ORIENTED_EDGE('',*,*,#1011,.F.);
#1011 = EDGE_CURVE('',#1004,#1004,#1012,.T.);
#1012 = CIRCLE('',#1013,2.);
#1013 = AXIS2_PLACEMENT_3D('',#1014,#1015,#1016);
#1014 = CARTESIAN_POINT('',(10.522208655981,-79.,-6.075));
#1015 = DIRECTION('',(0.,1.,0.));
#1016 = DIRECTION('',(-0.,-0.,1.));
#1017 = ORIENTED_EDGE('',*,*,#1003,.F.);
#1018 = ORIENTED_EDGE('',*,*,#592,.T.);
#1019 = CYLINDRICAL_SURFACE('',#1020,2.);
#1020 = AXIS2_PLACEMENT_3D('',#1021,#1022,#1023);
#1021 = CARTESIAN_POINT('',(10.522208655981,-72.9,-6.075));
#1022 = DIRECTION('',(-0.,-1.,-0.));
#1023 = DIRECTION('',(-0.,-0.,1.));
#1024 = ADVANCED_FACE('',(#1025),#1044,.F.);
#1025 = FACE_BOUND('',#1026,.T.);
#1026 = EDGE_LOOP('',(#1027,#1036,#1042,#1043));
#1027 = ORIENTED_EDGE('',*,*,#1028,.F.);
#1028 = EDGE_CURVE('',#1029,#1029,#1031,.T.);
#1029 = VERTEX_POINT('',#1030);
#1030 = CARTESIAN_POINT('',(13.5,-78.,1.7));
#1031 = CIRCLE('',#1032,1.7);
#1032 = AXIS2_PLACEMENT_3D('',#1033,#1034,#1035);
#1033 = CARTESIAN_POINT('',(13.5,-78.,0.));
#1034 = DIRECTION('',(0.,1.,0.));
#1035 = DIRECTION('',(-0.,-0.,1.));
#1036 = ORIENTED_EDGE('',*,*,#1037,.F.);
#1037 = EDGE_CURVE('',#604,#1029,#1038,.T.);
#1038 = LINE('',#1039,#1040);
#1039 = CARTESIAN_POINT('',(13.5,-72.,1.7));
#1040 = VECTOR('',#1041,1.);
#1041 = DIRECTION('',(-0.,-1.,-0.));
#1042 = ORIENTED_EDGE('',*,*,#603,.T.);
#1043 = ORIENTED_EDGE('',*,*,#1037,.T.);
#1044 = CYLINDRICAL_SURFACE('',#1045,1.7);
#1045 = AXIS2_PLACEMENT_3D('',#1046,#1047,#1048);
#1046 = CARTESIAN_POINT('',(13.5,-72.,0.));
#1047 = DIRECTION('',(-0.,-1.,-0.));
#1048 = DIRECTION('',(-0.,-0.,1.));
#1049 = ADVANCED_FACE('',(#1050),#1069,.F.);
#1050 = FACE_BOUND('',#1051,.T.);
#1051 = EDGE_LOOP('',(#1052,#1061,#1067,#1068));
#1052 = ORIENTED_EDGE('',*,*,#1053,.F.);
#1053 = EDGE_CURVE('',#1054,#1054,#1056,.T.);
#1054 = VERTEX_POINT('',#1055);
#1055 = CARTESIAN_POINT('',(6.75,-78.,13.39134295109));
#1056 = CIRCLE('',#1057,1.7);
#1057 = AXIS2_PLACEMENT_3D('',#1058,#1059,#1060);
#1058 = CARTESIAN_POINT('',(6.75,-78.,11.69134295109));
#1059 = DIRECTION('',(0.,1.,0.));
#1060 = DIRECTION('',(-0.,-0.,1.));
#1061 = ORIENTED_EDGE('',*,*,#1062,.F.);
#1062 = EDGE_CURVE('',#615,#1054,#1063,.T.);
#1063 = LINE('',#1064,#1065);
#1064 = CARTESIAN_POINT('',(6.75,-72.,13.39134295109));
#1065 = VECTOR('',#1066,1.);
#1066 = DIRECTION('',(-0.,-1.,-0.));
#1067 = ORIENTED_EDGE('',*,*,#614,.T.);
#1068 = ORIENTED_EDGE('',*,*,#1062,.T.);
#1069 = CYLINDRICAL_SURFACE('',#1070,1.7);
#1070 = AXIS2_PLACEMENT_3D('',#1071,#1072,#1073);
#1071 = CARTESIAN_POINT('',(6.75,-72.,11.69134295109));
#1072 = DIRECTION('',(-0.,-1.,-0.));
#1073 = DIRECTION('',(-0.,-0.,1.));
#1074 = ADVANCED_FACE('',(#1075,#1078),#1081,.T.);
#1075 = FACE_BOUND('',#1076,.F.);
#1076 = EDGE_LOOP('',(#1077));
#1077 = ORIENTED_EDGE('',*,*,#640,.T.);
#1078 = FACE_BOUND('',#1079,.F.);
#1079 = EDGE_LOOP('',(#1080));
#1080 = ORIENTED_EDGE('',*,*,#903,.F.);
#1081 = PLANE('',#1082);
#1082 = AXIS2_PLACEMENT_3D('',#1083,#1084,#1085);
#1083 = CARTESIAN_POINT('',(-6.75,-78.,-11.69134295109));
#1084 = DIRECTION('',(-0.,-1.,-0.));
#1085 = DIRECTION('',(0.,0.,-1.));
#1086 = ADVANCED_FACE('',(#1087,#1090),#1093,.T.);
#1087 = FACE_BOUND('',#1088,.F.);
#1088 = EDGE_LOOP('',(#1089));
#1089 = ORIENTED_EDGE('',*,*,#665,.T.);
#1090 = FACE_BOUND('',#1091,.F.);
#1091 = EDGE_LOOP('',(#1092));
#1092 = ORIENTED_EDGE('',*,*,#853,.F.);
#1093 = PLANE('',#1094);
#1094 = AXIS2_PLACEMENT_3D('',#1095,#1096,#1097);
#1095 = CARTESIAN_POINT('',(-13.5,-78.,1.653273178849E-15));
#1096 = DIRECTION('',(-0.,-1.,-0.));
#1097 = DIRECTION('',(0.,0.,-1.));
#1098 = ADVANCED_FACE('',(#1099,#1102),#1105,.T.);
#1099 = FACE_BOUND('',#1100,.F.);
#1100 = EDGE_LOOP('',(#1101));
#1101 = ORIENTED_EDGE('',*,*,#690,.T.);
#1102 = FACE_BOUND('',#1103,.F.);
#1103 = EDGE_LOOP('',(#1104));
#1104 = ORIENTED_EDGE('',*,*,#928,.F.);
#1105 = PLANE('',#1106);
#1106 = AXIS2_PLACEMENT_3D('',#1107,#1108,#1109);
#1107 = CARTESIAN_POINT('',(-6.75,-78.,11.69134295109));
#1108 = DIRECTION('',(-0.,-1.,-0.));
#1109 = DIRECTION('',(0.,0.,-1.));
#1110 = ADVANCED_FACE('',(#1111,#1114),#1117,.T.);
#1111 = FACE_BOUND('',#1112,.F.);
#1112 = EDGE_LOOP('',(#1113));
#1113 = ORIENTED_EDGE('',*,*,#715,.T.);
#1114 = FACE_BOUND('',#1115,.F.);
#1115 = EDGE_LOOP('',(#1116));
#1116 = ORIENTED_EDGE('',*,*,#978,.F.);
#1117 = PLANE('',#1118);
#1118 = AXIS2_PLACEMENT_3D('',#1119,#1120,#1121);
#1119 = CARTESIAN_POINT('',(6.75,-78.,-11.69134295109));
#1120 = DIRECTION('',(-0.,-1.,-0.));
#1121 = DIRECTION('',(0.,0.,-1.));
#1122 = ADVANCED_FACE('',(#1123,#1126),#1129,.T.);
#1123 = FACE_BOUND('',#1124,.F.);
#1124 = EDGE_LOOP('',(#1125));
#1125 = ORIENTED_EDGE('',*,*,#740,.T.);
#1126 = FACE_BOUND('',#1127,.F.);
#1127 = EDGE_LOOP('',(#1128));
#1128 = ORIENTED_EDGE('',*,*,#1053,.F.);
#1129 = PLANE('',#1130);
#1130 = AXIS2_PLACEMENT_3D('',#1131,#1132,#1133);
#1131 = CARTESIAN_POINT('',(6.75,-78.,11.69134295109));
#1132 = DIRECTION('',(-0.,-1.,-0.));
#1133 = DIRECTION('',(0.,0.,-1.));
#1134 = ADVANCED_FACE('',(#1135,#1138),#1141,.T.);
#1135 = FACE_BOUND('',#1136,.F.);
#1136 = EDGE_LOOP('',(#1137));
#1137 = ORIENTED_EDGE('',*,*,#765,.T.);
#1138 = FACE_BOUND('',#1139,.F.);
#1139 = EDGE_LOOP('',(#1140));
#1140 = ORIENTED_EDGE('',*,*,#1028,.F.);
#1141 = PLANE('',#1142);
#1142 = AXIS2_PLACEMENT_3D('',#1143,#1144,#1145);
#1143 = CARTESIAN_POINT('',(13.5,-78.,0.));
#1144 = DIRECTION('',(-0.,-1.,-0.));
#1145 = DIRECTION('',(0.,0.,-1.));
#1146 = ADVANCED_FACE('',(#1147),#1150,.F.);
#1147 = FACE_BOUND('',#1148,.T.);
#1148 = EDGE_LOOP('',(#1149));
#1149 = ORIENTED_EDGE('',*,*,#886,.T.);
#1150 = PLANE('',#1151);
#1151 = AXIS2_PLACEMENT_3D('',#1152,#1153,#1154);
#1152 = CARTESIAN_POINT('',(-10.52220865598,-79.,-6.075));
#1153 = DIRECTION('',(-0.,-1.,-0.));
#1154 = DIRECTION('',(0.,0.,-1.));
#1155 = ADVANCED_FACE('',(#1156),#1159,.F.);
#1156 = FACE_BOUND('',#1157,.T.);
#1157 = EDGE_LOOP('',(#1158));
#1158 = ORIENTED_EDGE('',*,*,#961,.T.);
#1159 = PLANE('',#1160);
#1160 = AXIS2_PLACEMENT_3D('',#1161,#1162,#1163);
#1161 = CARTESIAN_POINT('',(7.43972930482E-16,-79.,12.15));
#1162 = DIRECTION('',(-0.,-1.,-0.));
#1163 = DIRECTION('',(0.,0.,-1.));
#1164 = ADVANCED_FACE('',(#1165),#1168,.F.);
#1165 = FACE_BOUND('',#1166,.T.);
#1166 = EDGE_LOOP('',(#1167));
#1167 = ORIENTED_EDGE('',*,*,#1011,.T.);
#1168 = PLANE('',#1169);
#1169 = AXIS2_PLACEMENT_3D('',#1170,#1171,#1172);
#1170 = CARTESIAN_POINT('',(10.522208655981,-79.,-6.075));
#1171 = DIRECTION('',(-0.,-1.,-0.));
#1172 = DIRECTION('',(0.,0.,-1.));
#1173 = ( GEOMETRIC_REPRESENTATION_CONTEXT(3) 
GLOBAL_UNCERTAINTY_ASSIGNED_CONTEXT((#1177)) 
GLOBAL_UNIT_ASSIGNED_CONTEXT((#1174,#1175,#1176)) REPRESENTATION_CONTEXT
('Context #1','3D Context with UNIT and UNCERTAINTY') );
#1174 = ( LENGTH_UNIT() NAMED_UNIT(*) SI_UNIT(.MILLI.,.METRE.) );
#1175 = ( NAMED_UNIT(*) PLANE_ANGLE_UNIT() SI_UNIT($,.RADIAN.) );
#1176 = ( NAMED_UNIT(*) SI_UNIT($,.STERADIAN.) SOLID_ANGLE_UNIT() );
#1177 = UNCERTAINTY_MEASURE_WITH_UNIT(LENGTH_MEASURE(1.E-07),#1174,
  'distance_accuracy_value','confusion accuracy');
#1178 = PRODUCT_RELATED_PRODUCT_CATEGORY('part',$,(#7));
ENDSEC;
END-ISO-10303-21;
