ISO-10303-21;
HEADER;
FILE_DESCRIPTION(('FreeCAD Model'),'2;1');
FILE_NAME('Open CASCADE Shape Model','2026-09-21T20:08:24',('FreeCAD'),(
    'FreeCAD'),'Open CASCADE STEP processor 7.8','FreeCAD','Unknown');
FILE_SCHEMA(('AUTOMOTIVE_DESIGN { 1 0 10303 214 1 1 1 1 }'));
ENDSEC;
DATA;
#1 = APPLICATION_PROTOCOL_DEFINITION('international standard',
  'automotive_design',2000,#2);
#2 = APPLICATION_CONTEXT(
  'core data for automotive mechanical design processes');
#3 = SHAPE_DEFINITION_REPRESENTATION(#4,#10);
#4 = PRODUCT_DEFINITION_SHAPE('','',#5);
#5 = PRODUCT_DEFINITION('design','',#6,#9);
#6 = PRODUCT_DEFINITION_FORMATION('','',#7);
#7 = PRODUCT('Open CASCADE STEP translator 7.8 9',
  'Open CASCADE STEP translator 7.8 9','',(#8));
#8 = PRODUCT_CONTEXT('',#2,'mechanical');
#9 = PRODUCT_DEFINITION_CONTEXT('part definition',#2,'design');
#10 = ADVANCED_BREP_SHAPE_REPRESENTATION('',(#11,#15),#2088);
#11 = AXIS2_PLACEMENT_3D('',#12,#13,#14);
#12 = CARTESIAN_POINT('',(0.,0.,0.));
#13 = DIRECTION('',(0.,0.,1.));
#14 = DIRECTION('',(1.,0.,-0.));
#15 = MANIFOLD_SOLID_BREP('',#16);
#16 = CLOSED_SHELL('',(#17,#57,#461,#486,#511,#821,#840,#857,#874,#891,
    #908,#925,#942,#959,#971,#996,#1021,#1046,#1068,#1085,#1102,#1119,
    #1136,#1148,#1173,#1190,#1215,#1240,#1271,#1295,#1319,#1343,#1367,
    #1384,#1415,#1439,#1463,#1487,#1511,#1528,#1550,#1567,#1584,#1601,
    #1618,#1630,#1655,#1680,#1705,#1730,#1755,#1780,#1805,#1830,#1855,
    #1880,#1892,#1904,#1916,#1928,#1940,#1952,#1977,#2002,#2014,#2034,
    #2054,#2071));
#17 = ADVANCED_FACE('',(#18),#52,.T.);
#18 = FACE_BOUND('',#19,.F.);
#19 = EDGE_LOOP('',(#20,#30,#38,#46));
#20 = ORIENTED_EDGE('',*,*,#21,.F.);
#21 = EDGE_CURVE('',#22,#24,#26,.T.);
#22 = VERTEX_POINT('',#23);
#23 = CARTESIAN_POINT('',(-23.55876700604,-139.,-29.00770621222));
#24 = VERTEX_POINT('',#25);
#25 = CARTESIAN_POINT('',(-21.01373972151,-139.,-44.91412674056));
#26 = LINE('',#27,#28);
#27 = CARTESIAN_POINT('',(-25.,-139.,-20.));
#28 = VECTOR('',#29,1.);
#29 = DIRECTION('',(0.157990501107,-0.,-0.987440631917));
#30 = ORIENTED_EDGE('',*,*,#31,.T.);
#31 = EDGE_CURVE('',#22,#32,#34,.T.);
#32 = VERTEX_POINT('',#33);
#33 = CARTESIAN_POINT('',(-23.55876700604,-147.,-29.00770621222));
#34 = LINE('',#35,#36);
#35 = CARTESIAN_POINT('',(-23.55876700604,-139.,-29.00770621222));
#36 = VECTOR('',#37,1.);
#37 = DIRECTION('',(-0.,-1.,-0.));
#38 = ORIENTED_EDGE('',*,*,#39,.T.);
#39 = EDGE_CURVE('',#32,#40,#42,.T.);
#40 = VERTEX_POINT('',#41);
#41 = CARTESIAN_POINT('',(-21.01373972151,-147.,-44.91412674056));
#42 = LINE('',#43,#44);
#43 = CARTESIAN_POINT('',(-25.,-147.,-20.));
#44 = VECTOR('',#45,1.);
#45 = DIRECTION('',(0.157990501107,-0.,-0.987440631917));
#46 = ORIENTED_EDGE('',*,*,#47,.F.);
#47 = EDGE_CURVE('',#24,#40,#48,.T.);
#48 = LINE('',#49,#50);
#49 = CARTESIAN_POINT('',(-21.01373972151,-139.,-44.91412674056));
#50 = VECTOR('',#51,1.);
#51 = DIRECTION('',(-0.,-1.,-0.));
#52 = PLANE('',#53);
#53 = AXIS2_PLACEMENT_3D('',#54,#55,#56);
#54 = CARTESIAN_POINT('',(-25.,-139.,-20.));
#55 = DIRECTION('',(-0.987440631917,-0.,-0.157990501107));
#56 = DIRECTION('',(-0.157990501107,0.,0.987440631917));
#57 = ADVANCED_FACE('',(#58,#162,#173,#184,#195,#248,#259,#270,#281,#292
    ,#342,#392,#445),#456,.T.);
#58 = FACE_BOUND('',#59,.F.);
#59 = EDGE_LOOP('',(#60,#71,#78,#79,#88,#96,#104,#113,#121,#129,#138,
    #146,#155));
#60 = ORIENTED_EDGE('',*,*,#61,.F.);
#61 = EDGE_CURVE('',#62,#64,#66,.T.);
#62 = VERTEX_POINT('',#63);
#63 = CARTESIAN_POINT('',(-24.06434634532,-139.,-28.10528838087));
#64 = VERTEX_POINT('',#65);
#65 = CARTESIAN_POINT('',(-9.06238631369E-15,-139.,37.));
#66 = CIRCLE('',#67,37.);
#67 = AXIS2_PLACEMENT_3D('',#68,#69,#70);
#68 = CARTESIAN_POINT('',(0.,-139.,0.));
#69 = DIRECTION('',(0.,1.,0.));
#70 = DIRECTION('',(-0.,-0.,1.));
#71 = ORIENTED_EDGE('',*,*,#72,.F.);
#72 = EDGE_CURVE('',#22,#62,#73,.T.);
#73 = CIRCLE('',#74,1.5);
#74 = AXIS2_PLACEMENT_3D('',#75,#76,#77);
#75 = CARTESIAN_POINT('',(-25.03992795391,-139.,-29.24469196388));
#76 = DIRECTION('',(0.,-1.,0.));
#77 = DIRECTION('',(-0.,-0.,1.));
#78 = ORIENTED_EDGE('',*,*,#21,.T.);
#79 = ORIENTED_EDGE('',*,*,#80,.T.);
#80 = EDGE_CURVE('',#24,#81,#83,.T.);
#81 = VERTEX_POINT('',#82);
#82 = CARTESIAN_POINT('',(-20.99627632565,-139.,-45.08688573463));
#83 = CIRCLE('',#84,1.5);
#84 = AXIS2_PLACEMENT_3D('',#85,#86,#87);
#85 = CARTESIAN_POINT('',(-22.49490066938,-139.,-45.15111249222));
#86 = DIRECTION('',(0.,1.,0.));
#87 = DIRECTION('',(-0.,-0.,1.));
#88 = ORIENTED_EDGE('',*,*,#89,.T.);
#89 = EDGE_CURVE('',#81,#90,#92,.T.);
#90 = VERTEX_POINT('',#91);
#91 = CARTESIAN_POINT('',(-18.,-139.,-115.));
#92 = LINE('',#93,#94);
#93 = CARTESIAN_POINT('',(-21.,-139.,-45.));
#94 = VECTOR('',#95,1.);
#95 = DIRECTION('',(4.281783839219E-02,-0.,-0.999082895818));
#96 = ORIENTED_EDGE('',*,*,#97,.F.);
#97 = EDGE_CURVE('',#98,#90,#100,.T.);
#98 = VERTEX_POINT('',#99);
#99 = CARTESIAN_POINT('',(-18.,-139.,-130.));
#100 = LINE('',#101,#102);
#101 = CARTESIAN_POINT('',(-18.,-139.,-130.));
#102 = VECTOR('',#103,1.);
#103 = DIRECTION('',(-0.,-0.,1.));
#104 = ORIENTED_EDGE('',*,*,#105,.F.);
#105 = EDGE_CURVE('',#106,#98,#108,.T.);
#106 = VERTEX_POINT('',#107);
#107 = CARTESIAN_POINT('',(18.,-139.,-130.));
#108 = CIRCLE('',#109,18.);
#109 = AXIS2_PLACEMENT_3D('',#110,#111,#112);
#110 = CARTESIAN_POINT('',(0.,-139.,-130.));
#111 = DIRECTION('',(0.,1.,0.));
#112 = DIRECTION('',(-0.,-0.,1.));
#113 = ORIENTED_EDGE('',*,*,#114,.T.);
#114 = EDGE_CURVE('',#106,#115,#117,.T.);
#115 = VERTEX_POINT('',#116);
#116 = CARTESIAN_POINT('',(18.,-139.,-115.));
#117 = LINE('',#118,#119);
#118 = CARTESIAN_POINT('',(18.,-139.,-130.));
#119 = VECTOR('',#120,1.);
#120 = DIRECTION('',(-0.,-0.,1.));
#121 = ORIENTED_EDGE('',*,*,#122,.T.);
#122 = EDGE_CURVE('',#115,#123,#125,.T.);
#123 = VERTEX_POINT('',#124);
#124 = CARTESIAN_POINT('',(20.996276325659,-139.,-45.08688573463));
#125 = LINE('',#126,#127);
#126 = CARTESIAN_POINT('',(18.,-139.,-115.));
#127 = VECTOR('',#128,1.);
#128 = DIRECTION('',(4.281783839219E-02,-0.,0.999082895818));
#129 = ORIENTED_EDGE('',*,*,#130,.F.);
#130 = EDGE_CURVE('',#131,#123,#133,.T.);
#131 = VERTEX_POINT('',#132);
#132 = CARTESIAN_POINT('',(21.01373972151,-139.,-44.91412674056));
#133 = CIRCLE('',#134,1.5);
#134 = AXIS2_PLACEMENT_3D('',#135,#136,#137);
#135 = CARTESIAN_POINT('',(22.494900669385,-139.,-45.15111249222));
#136 = DIRECTION('',(0.,-1.,0.));
#137 = DIRECTION('',(-0.,-0.,1.));
#138 = ORIENTED_EDGE('',*,*,#139,.T.);
#139 = EDGE_CURVE('',#131,#140,#142,.T.);
#140 = VERTEX_POINT('',#141);
#141 = CARTESIAN_POINT('',(23.558767006044,-139.,-29.00770621222));
#142 = LINE('',#143,#144);
#143 = CARTESIAN_POINT('',(21.,-139.,-45.));
#144 = VECTOR('',#145,1.);
#145 = DIRECTION('',(0.157990501107,-0.,0.987440631917));
#146 = ORIENTED_EDGE('',*,*,#147,.T.);
#147 = EDGE_CURVE('',#140,#148,#150,.T.);
#148 = VERTEX_POINT('',#149);
#149 = CARTESIAN_POINT('',(24.064346345325,-139.,-28.10528838087));
#150 = CIRCLE('',#151,1.5);
#151 = AXIS2_PLACEMENT_3D('',#152,#153,#154);
#152 = CARTESIAN_POINT('',(25.039927953919,-139.,-29.24469196388));
#153 = DIRECTION('',(0.,1.,0.));
#154 = DIRECTION('',(-0.,-0.,1.));
#155 = ORIENTED_EDGE('',*,*,#156,.F.);
#156 = EDGE_CURVE('',#64,#148,#157,.T.);
#157 = CIRCLE('',#158,37.);
#158 = AXIS2_PLACEMENT_3D('',#159,#160,#161);
#159 = CARTESIAN_POINT('',(0.,-139.,0.));
#160 = DIRECTION('',(0.,1.,0.));
#161 = DIRECTION('',(-0.,-0.,1.));
#162 = FACE_BOUND('',#163,.F.);
#163 = EDGE_LOOP('',(#164));
#164 = ORIENTED_EDGE('',*,*,#165,.T.);
#165 = EDGE_CURVE('',#166,#166,#168,.T.);
#166 = VERTEX_POINT('',#167);
#167 = CARTESIAN_POINT('',(-21.65063509461,-139.,14.2));
#168 = CIRCLE('',#169,1.7);
#169 = AXIS2_PLACEMENT_3D('',#170,#171,#172);
#170 = CARTESIAN_POINT('',(-21.65063509461,-139.,12.5));
#171 = DIRECTION('',(0.,1.,0.));
#172 = DIRECTION('',(-0.,-0.,1.));
#173 = FACE_BOUND('',#174,.F.);
#174 = EDGE_LOOP('',(#175));
#175 = ORIENTED_EDGE('',*,*,#176,.T.);
#176 = EDGE_CURVE('',#177,#177,#179,.T.);
#177 = VERTEX_POINT('',#178);
#178 = CARTESIAN_POINT('',(-21.65063509461,-139.,-10.8));
#179 = CIRCLE('',#180,1.7);
#180 = AXIS2_PLACEMENT_3D('',#181,#182,#183);
#181 = CARTESIAN_POINT('',(-21.65063509461,-139.,-12.5));
#182 = DIRECTION('',(0.,1.,0.));
#183 = DIRECTION('',(-0.,-0.,1.));
#184 = FACE_BOUND('',#185,.F.);
#185 = EDGE_LOOP('',(#186));
#186 = ORIENTED_EDGE('',*,*,#187,.T.);
#187 = EDGE_CURVE('',#188,#188,#190,.T.);
#188 = VERTEX_POINT('',#189);
#189 = CARTESIAN_POINT('',(-5.008805408513E-15,-139.,-23.3));
#190 = CIRCLE('',#191,1.7);
#191 = AXIS2_PLACEMENT_3D('',#192,#193,#194);
#192 = CARTESIAN_POINT('',(-4.592425496803E-15,-139.,-25.));
#193 = DIRECTION('',(0.,1.,0.));
#194 = DIRECTION('',(-0.,-0.,1.));
#195 = FACE_BOUND('',#196,.F.);
#196 = EDGE_LOOP('',(#197,#208,#216,#225,#233,#242));
#197 = ORIENTED_EDGE('',*,*,#198,.T.);
#198 = EDGE_CURVE('',#199,#201,#203,.T.);
#199 = VERTEX_POINT('',#200);
#200 = CARTESIAN_POINT('',(-12.,-139.,-41.2));
#201 = VERTEX_POINT('',#202);
#202 = CARTESIAN_POINT('',(-10.8,-139.,-40.));
#203 = CIRCLE('',#204,1.2);
#204 = AXIS2_PLACEMENT_3D('',#205,#206,#207);
#205 = CARTESIAN_POINT('',(-10.8,-139.,-41.2));
#206 = DIRECTION('',(0.,1.,0.));
#207 = DIRECTION('',(-0.,-0.,1.));
#208 = ORIENTED_EDGE('',*,*,#209,.T.);
#209 = EDGE_CURVE('',#201,#210,#212,.T.);
#210 = VERTEX_POINT('',#211);
#211 = CARTESIAN_POINT('',(7.26510571127,-139.,-40.));
#212 = LINE('',#213,#214);
#213 = CARTESIAN_POINT('',(-6.,-139.,-40.));
#214 = VECTOR('',#215,1.);
#215 = DIRECTION('',(1.,-0.,-0.));
#216 = ORIENTED_EDGE('',*,*,#217,.T.);
#217 = EDGE_CURVE('',#210,#218,#220,.T.);
#218 = VERTEX_POINT('',#219);
#219 = CARTESIAN_POINT('',(7.836645489519,-139.,-42.25515035984));
#220 = CIRCLE('',#221,1.2);
#221 = AXIS2_PLACEMENT_3D('',#222,#223,#224);
#222 = CARTESIAN_POINT('',(7.26510571127,-139.,-41.2));
#223 = DIRECTION('',(0.,1.,0.));
#224 = DIRECTION('',(-0.,-0.,1.));
#225 = ORIENTED_EDGE('',*,*,#226,.T.);
#226 = EDGE_CURVE('',#218,#227,#229,.T.);
#227 = VERTEX_POINT('',#228);
#228 = CARTESIAN_POINT('',(-10.22846022175,-139.,-52.04041595344));
#229 = LINE('',#230,#231);
#230 = CARTESIAN_POINT('',(5.074090437869,-139.,-43.75153434615));
#231 = VECTOR('',#232,1.);
#232 = DIRECTION('',(-0.879291966537,-0.,-0.476283148541));
#233 = ORIENTED_EDGE('',*,*,#234,.T.);
#234 = EDGE_CURVE('',#227,#235,#237,.T.);
#235 = VERTEX_POINT('',#236);
#236 = CARTESIAN_POINT('',(-12.,-139.,-50.9852655936));
#237 = CIRCLE('',#238,1.2);
#238 = AXIS2_PLACEMENT_3D('',#239,#240,#241);
#239 = CARTESIAN_POINT('',(-10.8,-139.,-50.9852655936));
#240 = DIRECTION('',(0.,1.,-0.));
#241 = DIRECTION('',(0.476283148541,-0.,-0.879291966537));
#242 = ORIENTED_EDGE('',*,*,#243,.T.);
#243 = EDGE_CURVE('',#235,#199,#244,.T.);
#244 = LINE('',#245,#246);
#245 = CARTESIAN_POINT('',(-12.,-139.,-51.96090584547));
#246 = VECTOR('',#247,1.);
#247 = DIRECTION('',(-0.,-0.,1.));
#248 = FACE_BOUND('',#249,.F.);
#249 = EDGE_LOOP('',(#250));
#250 = ORIENTED_EDGE('',*,*,#251,.T.);
#251 = EDGE_CURVE('',#252,#252,#254,.T.);
#252 = VERTEX_POINT('',#253);
#253 = CARTESIAN_POINT('',(1.114428587224E-15,-139.,26.7));
#254 = CIRCLE('',#255,1.7);
#255 = AXIS2_PLACEMENT_3D('',#256,#257,#258);
#256 = CARTESIAN_POINT('',(1.530808498934E-15,-139.,25.));
#257 = DIRECTION('',(0.,1.,0.));
#258 = DIRECTION('',(-0.,-0.,1.));
#259 = FACE_BOUND('',#260,.F.);
#260 = EDGE_LOOP('',(#261));
#261 = ORIENTED_EDGE('',*,*,#262,.T.);
#262 = EDGE_CURVE('',#263,#263,#265,.T.);
#263 = VERTEX_POINT('',#264);
#264 = CARTESIAN_POINT('',(-4.947573068555E-15,-139.,20.2));
#265 = CIRCLE('',#266,20.2);
#266 = AXIS2_PLACEMENT_3D('',#267,#268,#269);
#267 = CARTESIAN_POINT('',(0.,-139.,0.));
#268 = DIRECTION('',(0.,1.,0.));
#269 = DIRECTION('',(-0.,-0.,1.));
#270 = FACE_BOUND('',#271,.F.);
#271 = EDGE_LOOP('',(#272));
#272 = ORIENTED_EDGE('',*,*,#273,.T.);
#273 = EDGE_CURVE('',#274,#274,#276,.T.);
#274 = VERTEX_POINT('',#275);
#275 = CARTESIAN_POINT('',(21.650635094611,-139.,14.2));
#276 = CIRCLE('',#277,1.7);
#277 = AXIS2_PLACEMENT_3D('',#278,#279,#280);
#278 = CARTESIAN_POINT('',(21.650635094611,-139.,12.5));
#279 = DIRECTION('',(0.,1.,0.));
#280 = DIRECTION('',(-0.,-0.,1.));
#281 = FACE_BOUND('',#282,.F.);
#282 = EDGE_LOOP('',(#283));
#283 = ORIENTED_EDGE('',*,*,#284,.T.);
#284 = EDGE_CURVE('',#285,#285,#287,.T.);
#285 = VERTEX_POINT('',#286);
#286 = CARTESIAN_POINT('',(21.650635094611,-139.,-10.8));
#287 = CIRCLE('',#288,1.7);
#288 = AXIS2_PLACEMENT_3D('',#289,#290,#291);
#289 = CARTESIAN_POINT('',(21.650635094611,-139.,-12.5));
#290 = DIRECTION('',(0.,1.,0.));
#291 = DIRECTION('',(-0.,-0.,1.));
#292 = FACE_BOUND('',#293,.F.);
#293 = EDGE_LOOP('',(#294,#304,#312,#320,#328,#336));
#294 = ORIENTED_EDGE('',*,*,#295,.F.);
#295 = EDGE_CURVE('',#296,#298,#300,.T.);
#296 = VERTEX_POINT('',#297);
#297 = CARTESIAN_POINT('',(3.65,-139.,-62.89267151745));
#298 = VERTEX_POINT('',#299);
#299 = CARTESIAN_POINT('',(2.580733080897E-16,-139.,-60.78534303491));
#300 = LINE('',#301,#302);
#301 = CARTESIAN_POINT('',(-0.310517178725,-139.,-60.60606585819));
#302 = VECTOR('',#303,1.);
#303 = DIRECTION('',(-0.866025403784,-0.,0.5));
#304 = ORIENTED_EDGE('',*,*,#305,.F.);
#305 = EDGE_CURVE('',#306,#296,#308,.T.);
#306 = VERTEX_POINT('',#307);
#307 = CARTESIAN_POINT('',(3.65,-139.,-67.10732848254));
#308 = LINE('',#309,#310);
#309 = CARTESIAN_POINT('',(3.65,-139.,-59.01457008674));
#310 = VECTOR('',#311,1.);
#311 = DIRECTION('',(3.161034552959E-16,-0.,1.));
#312 = ORIENTED_EDGE('',*,*,#313,.F.);
#313 = EDGE_CURVE('',#314,#306,#316,.T.);
#314 = VERTEX_POINT('',#315);
#315 = CARTESIAN_POINT('',(-7.742199242692E-16,-139.,-69.21465696508));
#316 = LINE('',#317,#318);
#317 = CARTESIAN_POINT('',(3.960517178725,-139.,-66.92805130581));
#318 = VECTOR('',#319,1.);
#319 = DIRECTION('',(0.866025403784,-0.,0.5));
#320 = ORIENTED_EDGE('',*,*,#321,.F.);
#321 = EDGE_CURVE('',#322,#314,#324,.T.);
#322 = VERTEX_POINT('',#323);
#323 = CARTESIAN_POINT('',(-3.65,-139.,-67.10732848254));
#324 = LINE('',#325,#326);
#325 = CARTESIAN_POINT('',(-5.785517178725,-139.,-65.87438706454));
#326 = VECTOR('',#327,1.);
#327 = DIRECTION('',(0.866025403784,-0.,-0.5));
#328 = ORIENTED_EDGE('',*,*,#329,.F.);
#329 = EDGE_CURVE('',#330,#322,#332,.T.);
#330 = VERTEX_POINT('',#331);
#331 = CARTESIAN_POINT('',(-3.65,-139.,-62.89267151745));
#332 = LINE('',#333,#334);
#333 = CARTESIAN_POINT('',(-3.65,-139.,-56.9072416042));
#334 = VECTOR('',#335,1.);
#335 = DIRECTION('',(1.05367818432E-16,-0.,-1.));
#336 = ORIENTED_EDGE('',*,*,#337,.F.);
#337 = EDGE_CURVE('',#298,#330,#338,.T.);
#338 = LINE('',#339,#340);
#339 = CARTESIAN_POINT('',(2.135517178725,-139.,-59.55240161692));
#340 = VECTOR('',#341,1.);
#341 = DIRECTION('',(-0.866025403784,-0.,-0.5));
#342 = FACE_BOUND('',#343,.F.);
#343 = EDGE_LOOP('',(#344,#354,#362,#370,#378,#386));
#344 = ORIENTED_EDGE('',*,*,#345,.F.);
#345 = EDGE_CURVE('',#346,#348,#350,.T.);
#346 = VERTEX_POINT('',#347);
#347 = CARTESIAN_POINT('',(3.65,-139.,-84.89267151745));
#348 = VERTEX_POINT('',#349);
#349 = CARTESIAN_POINT('',(2.580733080897E-16,-139.,-82.78534303491));
#350 = LINE('',#351,#352);
#351 = CARTESIAN_POINT('',(-5.07365689954,-139.,-79.85606585819));
#352 = VECTOR('',#353,1.);
#353 = DIRECTION('',(-0.866025403784,-0.,0.5));
#354 = ORIENTED_EDGE('',*,*,#355,.F.);
#355 = EDGE_CURVE('',#356,#346,#358,.T.);
#356 = VERTEX_POINT('',#357);
#357 = CARTESIAN_POINT('',(3.65,-139.,-89.10732848254));
#358 = LINE('',#359,#360);
#359 = CARTESIAN_POINT('',(3.65,-139.,-70.01457008674));
#360 = VECTOR('',#361,1.);
#361 = DIRECTION('',(3.161034552959E-16,-0.,1.));
#362 = ORIENTED_EDGE('',*,*,#363,.F.);
#363 = EDGE_CURVE('',#364,#356,#366,.T.);
#364 = VERTEX_POINT('',#365);
#365 = CARTESIAN_POINT('',(-7.742199242692E-16,-139.,-91.21465696508));
#366 = LINE('',#367,#368);
#367 = CARTESIAN_POINT('',(8.72365689954,-139.,-86.17805130581));
#368 = VECTOR('',#369,1.);
#369 = DIRECTION('',(0.866025403784,-0.,0.5));
#370 = ORIENTED_EDGE('',*,*,#371,.F.);
#371 = EDGE_CURVE('',#372,#364,#374,.T.);
#372 = VERTEX_POINT('',#373);
#373 = CARTESIAN_POINT('',(-3.65,-139.,-89.10732848254));
#374 = LINE('',#375,#376);
#375 = CARTESIAN_POINT('',(-10.54865689954,-139.,-85.12438706454));
#376 = VECTOR('',#377,1.);
#377 = DIRECTION('',(0.866025403784,-0.,-0.5));
#378 = ORIENTED_EDGE('',*,*,#379,.F.);
#379 = EDGE_CURVE('',#380,#372,#382,.T.);
#380 = VERTEX_POINT('',#381);
#381 = CARTESIAN_POINT('',(-3.65,-139.,-84.89267151745));
#382 = LINE('',#383,#384);
#383 = CARTESIAN_POINT('',(-3.65,-139.,-67.9072416042));
#384 = VECTOR('',#385,1.);
#385 = DIRECTION('',(1.05367818432E-16,-0.,-1.));
#386 = ORIENTED_EDGE('',*,*,#387,.F.);
#387 = EDGE_CURVE('',#348,#380,#388,.T.);
#388 = LINE('',#389,#390);
#389 = CARTESIAN_POINT('',(6.89865689954,-139.,-78.80240161692));
#390 = VECTOR('',#391,1.);
#391 = DIRECTION('',(-0.866025403784,-0.,-0.5));
#392 = FACE_BOUND('',#393,.F.);
#393 = EDGE_LOOP('',(#394,#405,#413,#422,#430,#439));
#394 = ORIENTED_EDGE('',*,*,#395,.T.);
#395 = EDGE_CURVE('',#396,#398,#400,.T.);
#396 = VERTEX_POINT('',#397);
#397 = CARTESIAN_POINT('',(-6.60595024683,-139.,-100.2061323395));
#398 = VERTEX_POINT('',#399);
#399 = CARTESIAN_POINT('',(-5.951964226115,-139.,-98.));
#400 = CIRCLE('',#401,1.2);
#401 = AXIS2_PLACEMENT_3D('',#402,#403,#404);
#402 = CARTESIAN_POINT('',(-5.951964226115,-139.,-99.2));
#403 = DIRECTION('',(0.,1.,0.));
#404 = DIRECTION('',(-0.,-0.,1.));
#405 = ORIENTED_EDGE('',*,*,#406,.T.);
#406 = EDGE_CURVE('',#398,#407,#409,.T.);
#407 = VERTEX_POINT('',#408);
#408 = CARTESIAN_POINT('',(8.8,-139.,-98.));
#409 = LINE('',#410,#411);
#410 = CARTESIAN_POINT('',(-5.,-139.,-98.));
#411 = VECTOR('',#412,1.);
#412 = DIRECTION('',(1.,-0.,-0.));
#413 = ORIENTED_EDGE('',*,*,#414,.T.);
#414 = EDGE_CURVE('',#407,#415,#417,.T.);
#415 = VERTEX_POINT('',#416);
#416 = CARTESIAN_POINT('',(10.,-139.,-99.2));
#417 = CIRCLE('',#418,1.2);
#418 = AXIS2_PLACEMENT_3D('',#419,#420,#421);
#419 = CARTESIAN_POINT('',(8.8,-139.,-99.2));
#420 = DIRECTION('',(0.,1.,0.));
#421 = DIRECTION('',(-0.,-0.,1.));
#422 = ORIENTED_EDGE('',*,*,#423,.T.);
#423 = EDGE_CURVE('',#415,#424,#426,.T.);
#424 = VERTEX_POINT('',#425);
#425 = CARTESIAN_POINT('',(10.,-139.,-108.7887767469));
#426 = LINE('',#427,#428);
#427 = CARTESIAN_POINT('',(10.,-139.,-74.46090584547));
#428 = VECTOR('',#429,1.);
#429 = DIRECTION('',(-0.,-0.,-1.));
#430 = ORIENTED_EDGE('',*,*,#431,.T.);
#431 = EDGE_CURVE('',#424,#432,#434,.T.);
#432 = VERTEX_POINT('',#433);
#433 = CARTESIAN_POINT('',(8.146013979286,-139.,-109.7949090865));
#434 = CIRCLE('',#435,1.2);
#435 = AXIS2_PLACEMENT_3D('',#436,#437,#438);
#436 = CARTESIAN_POINT('',(8.8,-139.,-108.7887767469));
#437 = DIRECTION('',(0.,1.,-0.));
#438 = DIRECTION('',(1.,-0.,-0.));
#439 = ORIENTED_EDGE('',*,*,#440,.T.);
#440 = EDGE_CURVE('',#432,#396,#441,.T.);
#441 = LINE('',#442,#443);
#442 = CARTESIAN_POINT('',(-7.24106235532,-139.,-99.79330946904));
#443 = VECTOR('',#444,1.);
#444 = DIRECTION('',(-0.838443616301,-0.,0.544988350595));
#445 = FACE_BOUND('',#446,.F.);
#446 = EDGE_LOOP('',(#447));
#447 = ORIENTED_EDGE('',*,*,#448,.T.);
#448 = EDGE_CURVE('',#449,#449,#451,.T.);
#449 = VERTEX_POINT('',#450);
#450 = CARTESIAN_POINT('',(-1.24913973513E-15,-139.,-124.9));
#451 = CIRCLE('',#452,5.1);
#452 = AXIS2_PLACEMENT_3D('',#453,#454,#455);
#453 = CARTESIAN_POINT('',(0.,-139.,-130.));
#454 = DIRECTION('',(0.,1.,0.));
#455 = DIRECTION('',(-0.,-0.,1.));
#456 = PLANE('',#457);
#457 = AXIS2_PLACEMENT_3D('',#458,#459,#460);
#458 = CARTESIAN_POINT('',(-9.172099700304E-16,-139.,-50.92181169094));
#459 = DIRECTION('',(-0.,1.,-0.));
#460 = DIRECTION('',(0.,0.,1.));
#461 = ADVANCED_FACE('',(#462),#481,.F.);
#462 = FACE_BOUND('',#463,.F.);
#463 = EDGE_LOOP('',(#464,#465,#473,#480));
#464 = ORIENTED_EDGE('',*,*,#72,.T.);
#465 = ORIENTED_EDGE('',*,*,#466,.T.);
#466 = EDGE_CURVE('',#62,#467,#469,.T.);
#467 = VERTEX_POINT('',#468);
#468 = CARTESIAN_POINT('',(-24.06434634532,-147.,-28.10528838087));
#469 = LINE('',#470,#471);
#470 = CARTESIAN_POINT('',(-24.06434634532,-139.,-28.10528838087));
#471 = VECTOR('',#472,1.);
#472 = DIRECTION('',(-0.,-1.,-0.));
#473 = ORIENTED_EDGE('',*,*,#474,.F.);
#474 = EDGE_CURVE('',#32,#467,#475,.T.);
#475 = CIRCLE('',#476,1.5);
#476 = AXIS2_PLACEMENT_3D('',#477,#478,#479);
#477 = CARTESIAN_POINT('',(-25.03992795391,-147.,-29.24469196388));
#478 = DIRECTION('',(0.,-1.,0.));
#479 = DIRECTION('',(-0.,-0.,1.));
#480 = ORIENTED_EDGE('',*,*,#31,.F.);
#481 = CYLINDRICAL_SURFACE('',#482,1.5);
#482 = AXIS2_PLACEMENT_3D('',#483,#484,#485);
#483 = CARTESIAN_POINT('',(-25.03992795391,-139.,-29.24469196388));
#484 = DIRECTION('',(-0.,-1.,-0.));
#485 = DIRECTION('',(0.987440631917,-0.,0.157990501107));
#486 = ADVANCED_FACE('',(#487),#506,.F.);
#487 = FACE_BOUND('',#488,.T.);
#488 = EDGE_LOOP('',(#489,#490,#498,#505));
#489 = ORIENTED_EDGE('',*,*,#80,.T.);
#490 = ORIENTED_EDGE('',*,*,#491,.T.);
#491 = EDGE_CURVE('',#81,#492,#494,.T.);
#492 = VERTEX_POINT('',#493);
#493 = CARTESIAN_POINT('',(-20.99627632565,-147.,-45.08688573463));
#494 = LINE('',#495,#496);
#495 = CARTESIAN_POINT('',(-20.99627632565,-139.,-45.08688573463));
#496 = VECTOR('',#497,1.);
#497 = DIRECTION('',(-0.,-1.,-0.));
#498 = ORIENTED_EDGE('',*,*,#499,.F.);
#499 = EDGE_CURVE('',#40,#492,#500,.T.);
#500 = CIRCLE('',#501,1.5);
#501 = AXIS2_PLACEMENT_3D('',#502,#503,#504);
#502 = CARTESIAN_POINT('',(-22.49490066938,-147.,-45.15111249222));
#503 = DIRECTION('',(0.,1.,0.));
#504 = DIRECTION('',(-0.,-0.,1.));
#505 = ORIENTED_EDGE('',*,*,#47,.F.);
#506 = CYLINDRICAL_SURFACE('',#507,1.5);
#507 = AXIS2_PLACEMENT_3D('',#508,#509,#510);
#508 = CARTESIAN_POINT('',(-22.49490066938,-139.,-45.15111249222));
#509 = DIRECTION('',(-0.,-1.,-0.));
#510 = DIRECTION('',(0.987440631917,-0.,0.157990501107));
#511 = ADVANCED_FACE('',(#512,#600,#611,#622,#675,#686,#697,#750,#761,
    #772,#783,#794,#805),#816,.T.);
#512 = FACE_BOUND('',#513,.F.);
#513 = EDGE_LOOP('',(#514,#523,#532,#541,#549,#558,#566,#574,#583,#591,
    #597,#598,#599));
#514 = ORIENTED_EDGE('',*,*,#515,.T.);
#515 = EDGE_CURVE('',#467,#516,#518,.T.);
#516 = VERTEX_POINT('',#517);
#517 = CARTESIAN_POINT('',(-9.06238631369E-15,-147.,37.));
#518 = CIRCLE('',#519,37.);
#519 = AXIS2_PLACEMENT_3D('',#520,#521,#522);
#520 = CARTESIAN_POINT('',(0.,-147.,0.));
#521 = DIRECTION('',(0.,1.,0.));
#522 = DIRECTION('',(-0.,-0.,1.));
#523 = ORIENTED_EDGE('',*,*,#524,.T.);
#524 = EDGE_CURVE('',#516,#525,#527,.T.);
#525 = VERTEX_POINT('',#526);
#526 = CARTESIAN_POINT('',(24.064346345325,-147.,-28.10528838087));
#527 = CIRCLE('',#528,37.);
#528 = AXIS2_PLACEMENT_3D('',#529,#530,#531);
#529 = CARTESIAN_POINT('',(0.,-147.,0.));
#530 = DIRECTION('',(0.,1.,0.));
#531 = DIRECTION('',(-0.,-0.,1.));
#532 = ORIENTED_EDGE('',*,*,#533,.F.);
#533 = EDGE_CURVE('',#534,#525,#536,.T.);
#534 = VERTEX_POINT('',#535);
#535 = CARTESIAN_POINT('',(23.558767006044,-147.,-29.00770621222));
#536 = CIRCLE('',#537,1.5);
#537 = AXIS2_PLACEMENT_3D('',#538,#539,#540);
#538 = CARTESIAN_POINT('',(25.039927953919,-147.,-29.24469196388));
#539 = DIRECTION('',(0.,1.,0.));
#540 = DIRECTION('',(-0.,-0.,1.));
#541 = ORIENTED_EDGE('',*,*,#542,.F.);
#542 = EDGE_CURVE('',#543,#534,#545,.T.);
#543 = VERTEX_POINT('',#544);
#544 = CARTESIAN_POINT('',(21.01373972151,-147.,-44.91412674056));
#545 = LINE('',#546,#547);
#546 = CARTESIAN_POINT('',(21.,-147.,-45.));
#547 = VECTOR('',#548,1.);
#548 = DIRECTION('',(0.157990501107,-0.,0.987440631917));
#549 = ORIENTED_EDGE('',*,*,#550,.T.);
#550 = EDGE_CURVE('',#543,#551,#553,.T.);
#551 = VERTEX_POINT('',#552);
#552 = CARTESIAN_POINT('',(20.996276325659,-147.,-45.08688573463));
#553 = CIRCLE('',#554,1.5);
#554 = AXIS2_PLACEMENT_3D('',#555,#556,#557);
#555 = CARTESIAN_POINT('',(22.494900669385,-147.,-45.15111249222));
#556 = DIRECTION('',(0.,-1.,0.));
#557 = DIRECTION('',(-0.,-0.,1.));
#558 = ORIENTED_EDGE('',*,*,#559,.F.);
#559 = EDGE_CURVE('',#560,#551,#562,.T.);
#560 = VERTEX_POINT('',#561);
#561 = CARTESIAN_POINT('',(18.,-147.,-115.));
#562 = LINE('',#563,#564);
#563 = CARTESIAN_POINT('',(18.,-147.,-115.));
#564 = VECTOR('',#565,1.);
#565 = DIRECTION('',(4.281783839219E-02,-0.,0.999082895818));
#566 = ORIENTED_EDGE('',*,*,#567,.F.);
#567 = EDGE_CURVE('',#568,#560,#570,.T.);
#568 = VERTEX_POINT('',#569);
#569 = CARTESIAN_POINT('',(18.,-147.,-130.));
#570 = LINE('',#571,#572);
#571 = CARTESIAN_POINT('',(18.,-147.,-130.));
#572 = VECTOR('',#573,1.);
#573 = DIRECTION('',(-0.,-0.,1.));
#574 = ORIENTED_EDGE('',*,*,#575,.T.);
#575 = EDGE_CURVE('',#568,#576,#578,.T.);
#576 = VERTEX_POINT('',#577);
#577 = CARTESIAN_POINT('',(-18.,-147.,-130.));
#578 = CIRCLE('',#579,18.);
#579 = AXIS2_PLACEMENT_3D('',#580,#581,#582);
#580 = CARTESIAN_POINT('',(0.,-147.,-130.));
#581 = DIRECTION('',(0.,1.,0.));
#582 = DIRECTION('',(-0.,-0.,1.));
#583 = ORIENTED_EDGE('',*,*,#584,.T.);
#584 = EDGE_CURVE('',#576,#585,#587,.T.);
#585 = VERTEX_POINT('',#586);
#586 = CARTESIAN_POINT('',(-18.,-147.,-115.));
#587 = LINE('',#588,#589);
#588 = CARTESIAN_POINT('',(-18.,-147.,-130.));
#589 = VECTOR('',#590,1.);
#590 = DIRECTION('',(-0.,-0.,1.));
#591 = ORIENTED_EDGE('',*,*,#592,.F.);
#592 = EDGE_CURVE('',#492,#585,#593,.T.);
#593 = LINE('',#594,#595);
#594 = CARTESIAN_POINT('',(-21.,-147.,-45.));
#595 = VECTOR('',#596,1.);
#596 = DIRECTION('',(4.281783839219E-02,-0.,-0.999082895818));
#597 = ORIENTED_EDGE('',*,*,#499,.F.);
#598 = ORIENTED_EDGE('',*,*,#39,.F.);
#599 = ORIENTED_EDGE('',*,*,#474,.T.);
#600 = FACE_BOUND('',#601,.F.);
#601 = EDGE_LOOP('',(#602));
#602 = ORIENTED_EDGE('',*,*,#603,.F.);
#603 = EDGE_CURVE('',#604,#604,#606,.T.);
#604 = VERTEX_POINT('',#605);
#605 = CARTESIAN_POINT('',(-21.65063509461,-147.,-9.4));
#606 = CIRCLE('',#607,3.1);
#607 = AXIS2_PLACEMENT_3D('',#608,#609,#610);
#608 = CARTESIAN_POINT('',(-21.65063509461,-147.,-12.5));
#609 = DIRECTION('',(0.,1.,0.));
#610 = DIRECTION('',(-0.,-0.,1.));
#611 = FACE_BOUND('',#612,.F.);
#612 = EDGE_LOOP('',(#613));
#613 = ORIENTED_EDGE('',*,*,#614,.F.);
#614 = EDGE_CURVE('',#615,#615,#617,.T.);
#615 = VERTEX_POINT('',#616);
#616 = CARTESIAN_POINT('',(-21.65063509461,-147.,15.6));
#617 = CIRCLE('',#618,3.1);
#618 = AXIS2_PLACEMENT_3D('',#619,#620,#621);
#619 = CARTESIAN_POINT('',(-21.65063509461,-147.,12.5));
#620 = DIRECTION('',(0.,1.,0.));
#621 = DIRECTION('',(-0.,-0.,1.));
#622 = FACE_BOUND('',#623,.F.);
#623 = EDGE_LOOP('',(#624,#635,#643,#652,#660,#669));
#624 = ORIENTED_EDGE('',*,*,#625,.F.);
#625 = EDGE_CURVE('',#626,#628,#630,.T.);
#626 = VERTEX_POINT('',#627);
#627 = CARTESIAN_POINT('',(7.26510571127,-147.,-40.));
#628 = VERTEX_POINT('',#629);
#629 = CARTESIAN_POINT('',(7.836645489519,-147.,-42.25515035984));
#630 = CIRCLE('',#631,1.2);
#631 = AXIS2_PLACEMENT_3D('',#632,#633,#634);
#632 = CARTESIAN_POINT('',(7.26510571127,-147.,-41.2));
#633 = DIRECTION('',(0.,1.,0.));
#634 = DIRECTION('',(-0.,-0.,1.));
#635 = ORIENTED_EDGE('',*,*,#636,.T.);
#636 = EDGE_CURVE('',#626,#637,#639,.T.);
#637 = VERTEX_POINT('',#638);
#638 = CARTESIAN_POINT('',(-10.8,-147.,-40.));
#639 = LINE('',#640,#641);
#640 = CARTESIAN_POINT('',(-6.,-147.,-40.));
#641 = VECTOR('',#642,1.);
#642 = DIRECTION('',(-1.,-0.,-0.));
#643 = ORIENTED_EDGE('',*,*,#644,.F.);
#644 = EDGE_CURVE('',#645,#637,#647,.T.);
#645 = VERTEX_POINT('',#646);
#646 = CARTESIAN_POINT('',(-12.,-147.,-41.2));
#647 = CIRCLE('',#648,1.2);
#648 = AXIS2_PLACEMENT_3D('',#649,#650,#651);
#649 = CARTESIAN_POINT('',(-10.8,-147.,-41.2));
#650 = DIRECTION('',(0.,1.,0.));
#651 = DIRECTION('',(-0.,-0.,1.));
#652 = ORIENTED_EDGE('',*,*,#653,.T.);
#653 = EDGE_CURVE('',#645,#654,#656,.T.);
#654 = VERTEX_POINT('',#655);
#655 = CARTESIAN_POINT('',(-12.,-147.,-50.9852655936));
#656 = LINE('',#657,#658);
#657 = CARTESIAN_POINT('',(-12.,-147.,-51.96090584547));
#658 = VECTOR('',#659,1.);
#659 = DIRECTION('',(-0.,-0.,-1.));
#660 = ORIENTED_EDGE('',*,*,#661,.F.);
#661 = EDGE_CURVE('',#662,#654,#664,.T.);
#662 = VERTEX_POINT('',#663);
#663 = CARTESIAN_POINT('',(-10.22846022175,-147.,-52.04041595344));
#664 = CIRCLE('',#665,1.2);
#665 = AXIS2_PLACEMENT_3D('',#666,#667,#668);
#666 = CARTESIAN_POINT('',(-10.8,-147.,-50.9852655936));
#667 = DIRECTION('',(0.,1.,-0.));
#668 = DIRECTION('',(0.476283148541,-0.,-0.879291966537));
#669 = ORIENTED_EDGE('',*,*,#670,.T.);
#670 = EDGE_CURVE('',#662,#628,#671,.T.);
#671 = LINE('',#672,#673);
#672 = CARTESIAN_POINT('',(5.074090437869,-147.,-43.75153434615));
#673 = VECTOR('',#674,1.);
#674 = DIRECTION('',(0.879291966537,-0.,0.476283148541));
#675 = FACE_BOUND('',#676,.F.);
#676 = EDGE_LOOP('',(#677));
#677 = ORIENTED_EDGE('',*,*,#678,.F.);
#678 = EDGE_CURVE('',#679,#679,#681,.T.);
#679 = VERTEX_POINT('',#680);
#680 = CARTESIAN_POINT('',(-5.351706512274E-15,-147.,-21.9));
#681 = CIRCLE('',#682,3.1);
#682 = AXIS2_PLACEMENT_3D('',#683,#684,#685);
#683 = CARTESIAN_POINT('',(-4.592425496803E-15,-147.,-25.));
#684 = DIRECTION('',(0.,1.,0.));
#685 = DIRECTION('',(-0.,-0.,1.));
#686 = FACE_BOUND('',#687,.F.);
#687 = EDGE_LOOP('',(#688));
#688 = ORIENTED_EDGE('',*,*,#689,.F.);
#689 = EDGE_CURVE('',#690,#690,#692,.T.);
#690 = VERTEX_POINT('',#691);
#691 = CARTESIAN_POINT('',(-7.592810154714E-16,-147.,-126.9));
#692 = CIRCLE('',#693,3.1);
#693 = AXIS2_PLACEMENT_3D('',#694,#695,#696);
#694 = CARTESIAN_POINT('',(0.,-147.,-130.));
#695 = DIRECTION('',(0.,1.,0.));
#696 = DIRECTION('',(-0.,-0.,1.));
#697 = FACE_BOUND('',#698,.F.);
#698 = EDGE_LOOP('',(#699,#710,#718,#727,#735,#744));
#699 = ORIENTED_EDGE('',*,*,#700,.F.);
#700 = EDGE_CURVE('',#701,#703,#705,.T.);
#701 = VERTEX_POINT('',#702);
#702 = CARTESIAN_POINT('',(8.8,-147.,-98.));
#703 = VERTEX_POINT('',#704);
#704 = CARTESIAN_POINT('',(10.,-147.,-99.2));
#705 = CIRCLE('',#706,1.2);
#706 = AXIS2_PLACEMENT_3D('',#707,#708,#709);
#707 = CARTESIAN_POINT('',(8.8,-147.,-99.2));
#708 = DIRECTION('',(0.,1.,0.));
#709 = DIRECTION('',(-0.,-0.,1.));
#710 = ORIENTED_EDGE('',*,*,#711,.T.);
#711 = EDGE_CURVE('',#701,#712,#714,.T.);
#712 = VERTEX_POINT('',#713);
#713 = CARTESIAN_POINT('',(-5.951964226115,-147.,-98.));
#714 = LINE('',#715,#716);
#715 = CARTESIAN_POINT('',(-5.,-147.,-98.));
#716 = VECTOR('',#717,1.);
#717 = DIRECTION('',(-1.,-0.,-0.));
#718 = ORIENTED_EDGE('',*,*,#719,.F.);
#719 = EDGE_CURVE('',#720,#712,#722,.T.);
#720 = VERTEX_POINT('',#721);
#721 = CARTESIAN_POINT('',(-6.60595024683,-147.,-100.2061323395));
#722 = CIRCLE('',#723,1.2);
#723 = AXIS2_PLACEMENT_3D('',#724,#725,#726);
#724 = CARTESIAN_POINT('',(-5.951964226115,-147.,-99.2));
#725 = DIRECTION('',(0.,1.,0.));
#726 = DIRECTION('',(-0.,-0.,1.));
#727 = ORIENTED_EDGE('',*,*,#728,.T.);
#728 = EDGE_CURVE('',#720,#729,#731,.T.);
#729 = VERTEX_POINT('',#730);
#730 = CARTESIAN_POINT('',(8.146013979286,-147.,-109.7949090865));
#731 = LINE('',#732,#733);
#732 = CARTESIAN_POINT('',(-7.24106235532,-147.,-99.79330946904));
#733 = VECTOR('',#734,1.);
#734 = DIRECTION('',(0.838443616301,-0.,-0.544988350595));
#735 = ORIENTED_EDGE('',*,*,#736,.F.);
#736 = EDGE_CURVE('',#737,#729,#739,.T.);
#737 = VERTEX_POINT('',#738);
#738 = CARTESIAN_POINT('',(10.,-147.,-108.7887767469));
#739 = CIRCLE('',#740,1.2);
#740 = AXIS2_PLACEMENT_3D('',#741,#742,#743);
#741 = CARTESIAN_POINT('',(8.8,-147.,-108.7887767469));
#742 = DIRECTION('',(0.,1.,-0.));
#743 = DIRECTION('',(1.,-0.,-0.));
#744 = ORIENTED_EDGE('',*,*,#745,.T.);
#745 = EDGE_CURVE('',#737,#703,#746,.T.);
#746 = LINE('',#747,#748);
#747 = CARTESIAN_POINT('',(10.,-147.,-74.46090584547));
#748 = VECTOR('',#749,1.);
#749 = DIRECTION('',(-0.,-0.,1.));
#750 = FACE_BOUND('',#751,.F.);
#751 = EDGE_LOOP('',(#752));
#752 = ORIENTED_EDGE('',*,*,#753,.F.);
#753 = EDGE_CURVE('',#754,#754,#756,.T.);
#754 = VERTEX_POINT('',#755);
#755 = CARTESIAN_POINT('',(-1.714505518806E-15,-147.,-80.));
#756 = CIRCLE('',#757,7.);
#757 = AXIS2_PLACEMENT_3D('',#758,#759,#760);
#758 = CARTESIAN_POINT('',(0.,-147.,-87.));
#759 = DIRECTION('',(0.,1.,0.));
#760 = DIRECTION('',(-0.,-0.,1.));
#761 = FACE_BOUND('',#762,.F.);
#762 = EDGE_LOOP('',(#763));
#763 = ORIENTED_EDGE('',*,*,#764,.F.);
#764 = EDGE_CURVE('',#765,#765,#767,.T.);
#765 = VERTEX_POINT('',#766);
#766 = CARTESIAN_POINT('',(-1.714505518806E-15,-147.,-58.));
#767 = CIRCLE('',#768,7.);
#768 = AXIS2_PLACEMENT_3D('',#769,#770,#771);
#769 = CARTESIAN_POINT('',(0.,-147.,-65.));
#770 = DIRECTION('',(0.,1.,0.));
#771 = DIRECTION('',(-0.,-0.,1.));
#772 = FACE_BOUND('',#773,.F.);
#773 = EDGE_LOOP('',(#774));
#774 = ORIENTED_EDGE('',*,*,#775,.F.);
#775 = EDGE_CURVE('',#776,#776,#778,.T.);
#776 = VERTEX_POINT('',#777);
#777 = CARTESIAN_POINT('',(-4.947573068555E-15,-147.,20.2));
#778 = CIRCLE('',#779,20.2);
#779 = AXIS2_PLACEMENT_3D('',#780,#781,#782);
#780 = CARTESIAN_POINT('',(0.,-147.,0.));
#781 = DIRECTION('',(0.,1.,0.));
#782 = DIRECTION('',(-0.,-0.,1.));
#783 = FACE_BOUND('',#784,.F.);
#784 = EDGE_LOOP('',(#785));
#785 = ORIENTED_EDGE('',*,*,#786,.F.);
#786 = EDGE_CURVE('',#787,#787,#789,.T.);
#787 = VERTEX_POINT('',#788);
#788 = CARTESIAN_POINT('',(7.715274834628E-16,-147.,28.1));
#789 = CIRCLE('',#790,3.1);
#790 = AXIS2_PLACEMENT_3D('',#791,#792,#793);
#791 = CARTESIAN_POINT('',(1.530808498934E-15,-147.,25.));
#792 = DIRECTION('',(0.,1.,0.));
#793 = DIRECTION('',(-0.,-0.,1.));
#794 = FACE_BOUND('',#795,.F.);
#795 = EDGE_LOOP('',(#796));
#796 = ORIENTED_EDGE('',*,*,#797,.F.);
#797 = EDGE_CURVE('',#798,#798,#800,.T.);
#798 = VERTEX_POINT('',#799);
#799 = CARTESIAN_POINT('',(21.650635094611,-147.,-9.4));
#800 = CIRCLE('',#801,3.1);
#801 = AXIS2_PLACEMENT_3D('',#802,#803,#804);
#802 = CARTESIAN_POINT('',(21.650635094611,-147.,-12.5));
#803 = DIRECTION('',(0.,1.,0.));
#804 = DIRECTION('',(-0.,-0.,1.));
#805 = FACE_BOUND('',#806,.F.);
#806 = EDGE_LOOP('',(#807));
#807 = ORIENTED_EDGE('',*,*,#808,.F.);
#808 = EDGE_CURVE('',#809,#809,#811,.T.);
#809 = VERTEX_POINT('',#810);
#810 = CARTESIAN_POINT('',(21.650635094611,-147.,15.6));
#811 = CIRCLE('',#812,3.1);
#812 = AXIS2_PLACEMENT_3D('',#813,#814,#815);
#813 = CARTESIAN_POINT('',(21.650635094611,-147.,12.5));
#814 = DIRECTION('',(0.,1.,0.));
#815 = DIRECTION('',(-0.,-0.,1.));
#816 = PLANE('',#817);
#817 = AXIS2_PLACEMENT_3D('',#818,#819,#820);
#818 = CARTESIAN_POINT('',(-1.113754963608E-15,-147.,-50.92181169094));
#819 = DIRECTION('',(-0.,-1.,-0.));
#820 = DIRECTION('',(0.,0.,-1.));
#821 = ADVANCED_FACE('',(#822),#835,.T.);
#822 = FACE_BOUND('',#823,.F.);
#823 = EDGE_LOOP('',(#824,#825,#831,#832,#833,#834));
#824 = ORIENTED_EDGE('',*,*,#156,.T.);
#825 = ORIENTED_EDGE('',*,*,#826,.T.);
#826 = EDGE_CURVE('',#148,#525,#827,.T.);
#827 = LINE('',#828,#829);
#828 = CARTESIAN_POINT('',(24.064346345325,-139.,-28.10528838087));
#829 = VECTOR('',#830,1.);
#830 = DIRECTION('',(-0.,-1.,-0.));
#831 = ORIENTED_EDGE('',*,*,#524,.F.);
#832 = ORIENTED_EDGE('',*,*,#515,.F.);
#833 = ORIENTED_EDGE('',*,*,#466,.F.);
#834 = ORIENTED_EDGE('',*,*,#61,.T.);
#835 = CYLINDRICAL_SURFACE('',#836,37.);
#836 = AXIS2_PLACEMENT_3D('',#837,#838,#839);
#837 = CARTESIAN_POINT('',(0.,-139.,0.));
#838 = DIRECTION('',(-0.,-1.,-0.));
#839 = DIRECTION('',(-0.,-0.,1.));
#840 = ADVANCED_FACE('',(#841),#852,.F.);
#841 = FACE_BOUND('',#842,.T.);
#842 = EDGE_LOOP('',(#843,#844,#845,#846));
#843 = ORIENTED_EDGE('',*,*,#147,.T.);
#844 = ORIENTED_EDGE('',*,*,#826,.T.);
#845 = ORIENTED_EDGE('',*,*,#533,.F.);
#846 = ORIENTED_EDGE('',*,*,#847,.F.);
#847 = EDGE_CURVE('',#140,#534,#848,.T.);
#848 = LINE('',#849,#850);
#849 = CARTESIAN_POINT('',(23.558767006044,-139.,-29.00770621222));
#850 = VECTOR('',#851,1.);
#851 = DIRECTION('',(-0.,-1.,-0.));
#852 = CYLINDRICAL_SURFACE('',#853,1.5);
#853 = AXIS2_PLACEMENT_3D('',#854,#855,#856);
#854 = CARTESIAN_POINT('',(25.039927953919,-139.,-29.24469196388));
#855 = DIRECTION('',(-0.,-1.,-0.));
#856 = DIRECTION('',(-0.987440631917,-0.,0.157990501107));
#857 = ADVANCED_FACE('',(#858),#869,.T.);
#858 = FACE_BOUND('',#859,.F.);
#859 = EDGE_LOOP('',(#860,#861,#867,#868));
#860 = ORIENTED_EDGE('',*,*,#139,.F.);
#861 = ORIENTED_EDGE('',*,*,#862,.T.);
#862 = EDGE_CURVE('',#131,#543,#863,.T.);
#863 = LINE('',#864,#865);
#864 = CARTESIAN_POINT('',(21.01373972151,-139.,-44.91412674056));
#865 = VECTOR('',#866,1.);
#866 = DIRECTION('',(-0.,-1.,-0.));
#867 = ORIENTED_EDGE('',*,*,#542,.T.);
#868 = ORIENTED_EDGE('',*,*,#847,.F.);
#869 = PLANE('',#870);
#870 = AXIS2_PLACEMENT_3D('',#871,#872,#873);
#871 = CARTESIAN_POINT('',(21.,-139.,-45.));
#872 = DIRECTION('',(0.987440631917,-0.,-0.157990501107));
#873 = DIRECTION('',(-0.157990501107,0.,-0.987440631917));
#874 = ADVANCED_FACE('',(#875),#886,.T.);
#875 = FACE_BOUND('',#876,.F.);
#876 = EDGE_LOOP('',(#877,#878,#879,#880));
#877 = ORIENTED_EDGE('',*,*,#89,.F.);
#878 = ORIENTED_EDGE('',*,*,#491,.T.);
#879 = ORIENTED_EDGE('',*,*,#592,.T.);
#880 = ORIENTED_EDGE('',*,*,#881,.F.);
#881 = EDGE_CURVE('',#90,#585,#882,.T.);
#882 = LINE('',#883,#884);
#883 = CARTESIAN_POINT('',(-18.,-139.,-115.));
#884 = VECTOR('',#885,1.);
#885 = DIRECTION('',(-0.,-1.,-0.));
#886 = PLANE('',#887);
#887 = AXIS2_PLACEMENT_3D('',#888,#889,#890);
#888 = CARTESIAN_POINT('',(-21.,-139.,-45.));
#889 = DIRECTION('',(-0.999082895818,-0.,-4.281783839219E-02));
#890 = DIRECTION('',(-4.281783839219E-02,0.,0.999082895818));
#891 = ADVANCED_FACE('',(#892),#903,.F.);
#892 = FACE_BOUND('',#893,.F.);
#893 = EDGE_LOOP('',(#894,#895,#901,#902));
#894 = ORIENTED_EDGE('',*,*,#130,.T.);
#895 = ORIENTED_EDGE('',*,*,#896,.T.);
#896 = EDGE_CURVE('',#123,#551,#897,.T.);
#897 = LINE('',#898,#899);
#898 = CARTESIAN_POINT('',(20.996276325659,-139.,-45.08688573463));
#899 = VECTOR('',#900,1.);
#900 = DIRECTION('',(-0.,-1.,-0.));
#901 = ORIENTED_EDGE('',*,*,#550,.F.);
#902 = ORIENTED_EDGE('',*,*,#862,.F.);
#903 = CYLINDRICAL_SURFACE('',#904,1.5);
#904 = AXIS2_PLACEMENT_3D('',#905,#906,#907);
#905 = CARTESIAN_POINT('',(22.494900669385,-139.,-45.15111249222));
#906 = DIRECTION('',(-0.,-1.,-0.));
#907 = DIRECTION('',(-0.987440631917,-0.,0.157990501107));
#908 = ADVANCED_FACE('',(#909),#920,.F.);
#909 = FACE_BOUND('',#910,.T.);
#910 = EDGE_LOOP('',(#911,#912,#918,#919));
#911 = ORIENTED_EDGE('',*,*,#97,.F.);
#912 = ORIENTED_EDGE('',*,*,#913,.T.);
#913 = EDGE_CURVE('',#98,#576,#914,.T.);
#914 = LINE('',#915,#916);
#915 = CARTESIAN_POINT('',(-18.,-139.,-130.));
#916 = VECTOR('',#917,1.);
#917 = DIRECTION('',(-0.,-1.,-0.));
#918 = ORIENTED_EDGE('',*,*,#584,.T.);
#919 = ORIENTED_EDGE('',*,*,#881,.F.);
#920 = PLANE('',#921);
#921 = AXIS2_PLACEMENT_3D('',#922,#923,#924);
#922 = CARTESIAN_POINT('',(-18.,-139.,-130.));
#923 = DIRECTION('',(1.,-0.,-0.));
#924 = DIRECTION('',(0.,0.,-1.));
#925 = ADVANCED_FACE('',(#926),#937,.T.);
#926 = FACE_BOUND('',#927,.F.);
#927 = EDGE_LOOP('',(#928,#929,#935,#936));
#928 = ORIENTED_EDGE('',*,*,#122,.F.);
#929 = ORIENTED_EDGE('',*,*,#930,.T.);
#930 = EDGE_CURVE('',#115,#560,#931,.T.);
#931 = LINE('',#932,#933);
#932 = CARTESIAN_POINT('',(18.,-139.,-115.));
#933 = VECTOR('',#934,1.);
#934 = DIRECTION('',(-0.,-1.,-0.));
#935 = ORIENTED_EDGE('',*,*,#559,.T.);
#936 = ORIENTED_EDGE('',*,*,#896,.F.);
#937 = PLANE('',#938);
#938 = AXIS2_PLACEMENT_3D('',#939,#940,#941);
#939 = CARTESIAN_POINT('',(18.,-139.,-115.));
#940 = DIRECTION('',(0.999082895818,-0.,-4.281783839219E-02));
#941 = DIRECTION('',(-4.281783839219E-02,0.,-0.999082895818));
#942 = ADVANCED_FACE('',(#943),#954,.T.);
#943 = FACE_BOUND('',#944,.F.);
#944 = EDGE_LOOP('',(#945,#946,#952,#953));
#945 = ORIENTED_EDGE('',*,*,#575,.F.);
#946 = ORIENTED_EDGE('',*,*,#947,.F.);
#947 = EDGE_CURVE('',#106,#568,#948,.T.);
#948 = LINE('',#949,#950);
#949 = CARTESIAN_POINT('',(18.,-139.,-130.));
#950 = VECTOR('',#951,1.);
#951 = DIRECTION('',(-0.,-1.,-0.));
#952 = ORIENTED_EDGE('',*,*,#105,.T.);
#953 = ORIENTED_EDGE('',*,*,#913,.T.);
#954 = CYLINDRICAL_SURFACE('',#955,18.);
#955 = AXIS2_PLACEMENT_3D('',#956,#957,#958);
#956 = CARTESIAN_POINT('',(0.,-139.,-130.));
#957 = DIRECTION('',(-0.,-1.,-0.));
#958 = DIRECTION('',(-0.,-0.,1.));
#959 = ADVANCED_FACE('',(#960),#966,.T.);
#960 = FACE_BOUND('',#961,.F.);
#961 = EDGE_LOOP('',(#962,#963,#964,#965));
#962 = ORIENTED_EDGE('',*,*,#114,.F.);
#963 = ORIENTED_EDGE('',*,*,#947,.T.);
#964 = ORIENTED_EDGE('',*,*,#567,.T.);
#965 = ORIENTED_EDGE('',*,*,#930,.F.);
#966 = PLANE('',#967);
#967 = AXIS2_PLACEMENT_3D('',#968,#969,#970);
#968 = CARTESIAN_POINT('',(18.,-139.,-130.));
#969 = DIRECTION('',(1.,-0.,-0.));
#970 = DIRECTION('',(0.,0.,-1.));
#971 = ADVANCED_FACE('',(#972),#991,.F.);
#972 = FACE_BOUND('',#973,.T.);
#973 = EDGE_LOOP('',(#974,#983,#989,#990));
#974 = ORIENTED_EDGE('',*,*,#975,.F.);
#975 = EDGE_CURVE('',#976,#976,#978,.T.);
#976 = VERTEX_POINT('',#977);
#977 = CARTESIAN_POINT('',(-21.65063509461,-144.,14.2));
#978 = CIRCLE('',#979,1.7);
#979 = AXIS2_PLACEMENT_3D('',#980,#981,#982);
#980 = CARTESIAN_POINT('',(-21.65063509461,-144.,12.5));
#981 = DIRECTION('',(0.,1.,0.));
#982 = DIRECTION('',(-0.,-0.,1.));
#983 = ORIENTED_EDGE('',*,*,#984,.F.);
#984 = EDGE_CURVE('',#166,#976,#985,.T.);
#985 = LINE('',#986,#987);
#986 = CARTESIAN_POINT('',(-21.65063509461,-138.,14.2));
#987 = VECTOR('',#988,1.);
#988 = DIRECTION('',(-0.,-1.,-0.));
#989 = ORIENTED_EDGE('',*,*,#165,.T.);
#990 = ORIENTED_EDGE('',*,*,#984,.T.);
#991 = CYLINDRICAL_SURFACE('',#992,1.7);
#992 = AXIS2_PLACEMENT_3D('',#993,#994,#995);
#993 = CARTESIAN_POINT('',(-21.65063509461,-138.,12.5));
#994 = DIRECTION('',(-0.,-1.,-0.));
#995 = DIRECTION('',(-0.,-0.,1.));
#996 = ADVANCED_FACE('',(#997),#1016,.F.);
#997 = FACE_BOUND('',#998,.T.);
#998 = EDGE_LOOP('',(#999,#1008,#1014,#1015));
#999 = ORIENTED_EDGE('',*,*,#1000,.F.);
#1000 = EDGE_CURVE('',#1001,#1001,#1003,.T.);
#1001 = VERTEX_POINT('',#1002);
#1002 = CARTESIAN_POINT('',(-21.65063509461,-144.,-10.8));
#1003 = CIRCLE('',#1004,1.7);
#1004 = AXIS2_PLACEMENT_3D('',#1005,#1006,#1007);
#1005 = CARTESIAN_POINT('',(-21.65063509461,-144.,-12.5));
#1006 = DIRECTION('',(0.,1.,0.));
#1007 = DIRECTION('',(-0.,-0.,1.));
#1008 = ORIENTED_EDGE('',*,*,#1009,.F.);
#1009 = EDGE_CURVE('',#177,#1001,#1010,.T.);
#1010 = LINE('',#1011,#1012);
#1011 = CARTESIAN_POINT('',(-21.65063509461,-138.,-10.8));
#1012 = VECTOR('',#1013,1.);
#1013 = DIRECTION('',(-0.,-1.,-0.));
#1014 = ORIENTED_EDGE('',*,*,#176,.T.);
#1015 = ORIENTED_EDGE('',*,*,#1009,.T.);
#1016 = CYLINDRICAL_SURFACE('',#1017,1.7);
#1017 = AXIS2_PLACEMENT_3D('',#1018,#1019,#1020);
#1018 = CARTESIAN_POINT('',(-21.65063509461,-138.,-12.5));
#1019 = DIRECTION('',(-0.,-1.,-0.));
#1020 = DIRECTION('',(-0.,-0.,1.));
#1021 = ADVANCED_FACE('',(#1022),#1041,.F.);
#1022 = FACE_BOUND('',#1023,.T.);
#1023 = EDGE_LOOP('',(#1024,#1033,#1039,#1040));
#1024 = ORIENTED_EDGE('',*,*,#1025,.F.);
#1025 = EDGE_CURVE('',#1026,#1026,#1028,.T.);
#1026 = VERTEX_POINT('',#1027);
#1027 = CARTESIAN_POINT('',(-5.008805408513E-15,-144.,-23.3));
#1028 = CIRCLE('',#1029,1.7);
#1029 = AXIS2_PLACEMENT_3D('',#1030,#1031,#1032);
#1030 = CARTESIAN_POINT('',(-4.592425496803E-15,-144.,-25.));
#1031 = DIRECTION('',(0.,1.,0.));
#1032 = DIRECTION('',(-0.,-0.,1.));
#1033 = ORIENTED_EDGE('',*,*,#1034,.F.);
#1034 = EDGE_CURVE('',#188,#1026,#1035,.T.);
#1035 = LINE('',#1036,#1037);
#1036 = CARTESIAN_POINT('',(-5.008805408513E-15,-138.,-23.3));
#1037 = VECTOR('',#1038,1.);
#1038 = DIRECTION('',(-0.,-1.,-0.));
#1039 = ORIENTED_EDGE('',*,*,#187,.T.);
#1040 = ORIENTED_EDGE('',*,*,#1034,.T.);
#1041 = CYLINDRICAL_SURFACE('',#1042,1.7);
#1042 = AXIS2_PLACEMENT_3D('',#1043,#1044,#1045);
#1043 = CARTESIAN_POINT('',(-4.592425496803E-15,-138.,-25.));
#1044 = DIRECTION('',(-0.,-1.,-0.));
#1045 = DIRECTION('',(-0.,-0.,1.));
#1046 = ADVANCED_FACE('',(#1047),#1063,.F.);
#1047 = FACE_BOUND('',#1048,.F.);
#1048 = EDGE_LOOP('',(#1049,#1055,#1056,#1062));
#1049 = ORIENTED_EDGE('',*,*,#1050,.F.);
#1050 = EDGE_CURVE('',#201,#637,#1051,.T.);
#1051 = LINE('',#1052,#1053);
#1052 = CARTESIAN_POINT('',(-10.8,-138.,-40.));
#1053 = VECTOR('',#1054,1.);
#1054 = DIRECTION('',(-0.,-1.,-0.));
#1055 = ORIENTED_EDGE('',*,*,#198,.F.);
#1056 = ORIENTED_EDGE('',*,*,#1057,.T.);
#1057 = EDGE_CURVE('',#199,#645,#1058,.T.);
#1058 = LINE('',#1059,#1060);
#1059 = CARTESIAN_POINT('',(-12.,-138.,-41.2));
#1060 = VECTOR('',#1061,1.);
#1061 = DIRECTION('',(-0.,-1.,-0.));
#1062 = ORIENTED_EDGE('',*,*,#644,.T.);
#1063 = CYLINDRICAL_SURFACE('',#1064,1.2);
#1064 = AXIS2_PLACEMENT_3D('',#1065,#1066,#1067);
#1065 = CARTESIAN_POINT('',(-10.8,-138.,-41.2));
#1066 = DIRECTION('',(-0.,-1.,-0.));
#1067 = DIRECTION('',(-0.,-0.,1.));
#1068 = ADVANCED_FACE('',(#1069),#1080,.T.);
#1069 = FACE_BOUND('',#1070,.F.);
#1070 = EDGE_LOOP('',(#1071,#1072,#1078,#1079));
#1071 = ORIENTED_EDGE('',*,*,#243,.F.);
#1072 = ORIENTED_EDGE('',*,*,#1073,.T.);
#1073 = EDGE_CURVE('',#235,#654,#1074,.T.);
#1074 = LINE('',#1075,#1076);
#1075 = CARTESIAN_POINT('',(-12.,-138.,-50.9852655936));
#1076 = VECTOR('',#1077,1.);
#1077 = DIRECTION('',(-0.,-1.,-0.));
#1078 = ORIENTED_EDGE('',*,*,#653,.F.);
#1079 = ORIENTED_EDGE('',*,*,#1057,.F.);
#1080 = PLANE('',#1081);
#1081 = AXIS2_PLACEMENT_3D('',#1082,#1083,#1084);
#1082 = CARTESIAN_POINT('',(-12.,-138.,-53.));
#1083 = DIRECTION('',(1.,-0.,-0.));
#1084 = DIRECTION('',(0.,0.,-1.));
#1085 = ADVANCED_FACE('',(#1086),#1097,.T.);
#1086 = FACE_BOUND('',#1087,.F.);
#1087 = EDGE_LOOP('',(#1088,#1089,#1090,#1091));
#1088 = ORIENTED_EDGE('',*,*,#209,.F.);
#1089 = ORIENTED_EDGE('',*,*,#1050,.T.);
#1090 = ORIENTED_EDGE('',*,*,#636,.F.);
#1091 = ORIENTED_EDGE('',*,*,#1092,.F.);
#1092 = EDGE_CURVE('',#210,#626,#1093,.T.);
#1093 = LINE('',#1094,#1095);
#1094 = CARTESIAN_POINT('',(7.26510571127,-138.,-40.));
#1095 = VECTOR('',#1096,1.);
#1096 = DIRECTION('',(-0.,-1.,-0.));
#1097 = PLANE('',#1098);
#1098 = AXIS2_PLACEMENT_3D('',#1099,#1100,#1101);
#1099 = CARTESIAN_POINT('',(-12.,-138.,-40.));
#1100 = DIRECTION('',(-0.,-0.,-1.));
#1101 = DIRECTION('',(-1.,0.,0.));
#1102 = ADVANCED_FACE('',(#1103),#1114,.F.);
#1103 = FACE_BOUND('',#1104,.T.);
#1104 = EDGE_LOOP('',(#1105,#1111,#1112,#1113));
#1105 = ORIENTED_EDGE('',*,*,#1106,.F.);
#1106 = EDGE_CURVE('',#227,#662,#1107,.T.);
#1107 = LINE('',#1108,#1109);
#1108 = CARTESIAN_POINT('',(-10.22846022175,-138.,-52.04041595344));
#1109 = VECTOR('',#1110,1.);
#1110 = DIRECTION('',(-0.,-1.,-0.));
#1111 = ORIENTED_EDGE('',*,*,#234,.T.);
#1112 = ORIENTED_EDGE('',*,*,#1073,.T.);
#1113 = ORIENTED_EDGE('',*,*,#661,.F.);
#1114 = CYLINDRICAL_SURFACE('',#1115,1.2);
#1115 = AXIS2_PLACEMENT_3D('',#1116,#1117,#1118);
#1116 = CARTESIAN_POINT('',(-10.8,-138.,-50.9852655936));
#1117 = DIRECTION('',(-0.,-1.,-0.));
#1118 = DIRECTION('',(0.476283148541,-0.,-0.879291966537));
#1119 = ADVANCED_FACE('',(#1120),#1131,.F.);
#1120 = FACE_BOUND('',#1121,.T.);
#1121 = EDGE_LOOP('',(#1122,#1123,#1124,#1130));
#1122 = ORIENTED_EDGE('',*,*,#1092,.F.);
#1123 = ORIENTED_EDGE('',*,*,#217,.T.);
#1124 = ORIENTED_EDGE('',*,*,#1125,.T.);
#1125 = EDGE_CURVE('',#218,#628,#1126,.T.);
#1126 = LINE('',#1127,#1128);
#1127 = CARTESIAN_POINT('',(7.836645489519,-138.,-42.25515035984));
#1128 = VECTOR('',#1129,1.);
#1129 = DIRECTION('',(-0.,-1.,-0.));
#1130 = ORIENTED_EDGE('',*,*,#625,.F.);
#1131 = CYLINDRICAL_SURFACE('',#1132,1.2);
#1132 = AXIS2_PLACEMENT_3D('',#1133,#1134,#1135);
#1133 = CARTESIAN_POINT('',(7.26510571127,-138.,-41.2));
#1134 = DIRECTION('',(-0.,-1.,-0.));
#1135 = DIRECTION('',(-0.,-0.,1.));
#1136 = ADVANCED_FACE('',(#1137),#1143,.T.);
#1137 = FACE_BOUND('',#1138,.F.);
#1138 = EDGE_LOOP('',(#1139,#1140,#1141,#1142));
#1139 = ORIENTED_EDGE('',*,*,#226,.F.);
#1140 = ORIENTED_EDGE('',*,*,#1125,.T.);
#1141 = ORIENTED_EDGE('',*,*,#670,.F.);
#1142 = ORIENTED_EDGE('',*,*,#1106,.F.);
#1143 = PLANE('',#1144);
#1144 = AXIS2_PLACEMENT_3D('',#1145,#1146,#1147);
#1145 = CARTESIAN_POINT('',(12.,-138.,-40.));
#1146 = DIRECTION('',(-0.476283148541,-0.,0.879291966537));
#1147 = DIRECTION('',(0.879291966537,0.,0.476283148541));
#1148 = ADVANCED_FACE('',(#1149),#1168,.F.);
#1149 = FACE_BOUND('',#1150,.T.);
#1150 = EDGE_LOOP('',(#1151,#1160,#1166,#1167));
#1151 = ORIENTED_EDGE('',*,*,#1152,.F.);
#1152 = EDGE_CURVE('',#1153,#1153,#1155,.T.);
#1153 = VERTEX_POINT('',#1154);
#1154 = CARTESIAN_POINT('',(1.114428587224E-15,-144.,26.7));
#1155 = CIRCLE('',#1156,1.7);
#1156 = AXIS2_PLACEMENT_3D('',#1157,#1158,#1159);
#1157 = CARTESIAN_POINT('',(1.530808498934E-15,-144.,25.));
#1158 = DIRECTION('',(0.,1.,0.));
#1159 = DIRECTION('',(-0.,-0.,1.));
#1160 = ORIENTED_EDGE('',*,*,#1161,.F.);
#1161 = EDGE_CURVE('',#252,#1153,#1162,.T.);
#1162 = LINE('',#1163,#1164);
#1163 = CARTESIAN_POINT('',(1.114428587224E-15,-138.,26.7));
#1164 = VECTOR('',#1165,1.);
#1165 = DIRECTION('',(-0.,-1.,-0.));
#1166 = ORIENTED_EDGE('',*,*,#251,.T.);
#1167 = ORIENTED_EDGE('',*,*,#1161,.T.);
#1168 = CYLINDRICAL_SURFACE('',#1169,1.7);
#1169 = AXIS2_PLACEMENT_3D('',#1170,#1171,#1172);
#1170 = CARTESIAN_POINT('',(1.530808498934E-15,-138.,25.));
#1171 = DIRECTION('',(-0.,-1.,-0.));
#1172 = DIRECTION('',(-0.,-0.,1.));
#1173 = ADVANCED_FACE('',(#1174),#1185,.F.);
#1174 = FACE_BOUND('',#1175,.T.);
#1175 = EDGE_LOOP('',(#1176,#1177,#1183,#1184));
#1176 = ORIENTED_EDGE('',*,*,#775,.F.);
#1177 = ORIENTED_EDGE('',*,*,#1178,.F.);
#1178 = EDGE_CURVE('',#263,#776,#1179,.T.);
#1179 = LINE('',#1180,#1181);
#1180 = CARTESIAN_POINT('',(-4.947573068555E-15,-138.,20.2));
#1181 = VECTOR('',#1182,1.);
#1182 = DIRECTION('',(-0.,-1.,-0.));
#1183 = ORIENTED_EDGE('',*,*,#262,.T.);
#1184 = ORIENTED_EDGE('',*,*,#1178,.T.);
#1185 = CYLINDRICAL_SURFACE('',#1186,20.2);
#1186 = AXIS2_PLACEMENT_3D('',#1187,#1188,#1189);
#1187 = CARTESIAN_POINT('',(0.,-138.,0.));
#1188 = DIRECTION('',(-0.,-1.,-0.));
#1189 = DIRECTION('',(-0.,-0.,1.));
#1190 = ADVANCED_FACE('',(#1191),#1210,.F.);
#1191 = FACE_BOUND('',#1192,.T.);
#1192 = EDGE_LOOP('',(#1193,#1202,#1208,#1209));
#1193 = ORIENTED_EDGE('',*,*,#1194,.F.);
#1194 = EDGE_CURVE('',#1195,#1195,#1197,.T.);
#1195 = VERTEX_POINT('',#1196);
#1196 = CARTESIAN_POINT('',(21.650635094611,-144.,14.2));
#1197 = CIRCLE('',#1198,1.7);
#1198 = AXIS2_PLACEMENT_3D('',#1199,#1200,#1201);
#1199 = CARTESIAN_POINT('',(21.650635094611,-144.,12.5));
#1200 = DIRECTION('',(0.,1.,0.));
#1201 = DIRECTION('',(-0.,-0.,1.));
#1202 = ORIENTED_EDGE('',*,*,#1203,.F.);
#1203 = EDGE_CURVE('',#274,#1195,#1204,.T.);
#1204 = LINE('',#1205,#1206);
#1205 = CARTESIAN_POINT('',(21.650635094611,-138.,14.2));
#1206 = VECTOR('',#1207,1.);
#1207 = DIRECTION('',(-0.,-1.,-0.));
#1208 = ORIENTED_EDGE('',*,*,#273,.T.);
#1209 = ORIENTED_EDGE('',*,*,#1203,.T.);
#1210 = CYLINDRICAL_SURFACE('',#1211,1.7);
#1211 = AXIS2_PLACEMENT_3D('',#1212,#1213,#1214);
#1212 = CARTESIAN_POINT('',(21.650635094611,-138.,12.5));
#1213 = DIRECTION('',(-0.,-1.,-0.));
#1214 = DIRECTION('',(-0.,-0.,1.));
#1215 = ADVANCED_FACE('',(#1216),#1235,.F.);
#1216 = FACE_BOUND('',#1217,.T.);
#1217 = EDGE_LOOP('',(#1218,#1227,#1233,#1234));
#1218 = ORIENTED_EDGE('',*,*,#1219,.F.);
#1219 = EDGE_CURVE('',#1220,#1220,#1222,.T.);
#1220 = VERTEX_POINT('',#1221);
#1221 = CARTESIAN_POINT('',(21.650635094611,-144.,-10.8));
#1222 = CIRCLE('',#1223,1.7);
#1223 = AXIS2_PLACEMENT_3D('',#1224,#1225,#1226);
#1224 = CARTESIAN_POINT('',(21.650635094611,-144.,-12.5));
#1225 = DIRECTION('',(0.,1.,0.));
#1226 = DIRECTION('',(-0.,-0.,1.));
#1227 = ORIENTED_EDGE('',*,*,#1228,.F.);
#1228 = EDGE_CURVE('',#285,#1220,#1229,.T.);
#1229 = LINE('',#1230,#1231);
#1230 = CARTESIAN_POINT('',(21.650635094611,-138.,-10.8));
#1231 = VECTOR('',#1232,1.);
#1232 = DIRECTION('',(-0.,-1.,-0.));
#1233 = ORIENTED_EDGE('',*,*,#284,.T.);
#1234 = ORIENTED_EDGE('',*,*,#1228,.T.);
#1235 = CYLINDRICAL_SURFACE('',#1236,1.7);
#1236 = AXIS2_PLACEMENT_3D('',#1237,#1238,#1239);
#1237 = CARTESIAN_POINT('',(21.650635094611,-138.,-12.5));
#1238 = DIRECTION('',(-0.,-1.,-0.));
#1239 = DIRECTION('',(-0.,-0.,1.));
#1240 = ADVANCED_FACE('',(#1241),#1266,.F.);
#1241 = FACE_BOUND('',#1242,.T.);
#1242 = EDGE_LOOP('',(#1243,#1244,#1252,#1260));
#1243 = ORIENTED_EDGE('',*,*,#295,.F.);
#1244 = ORIENTED_EDGE('',*,*,#1245,.T.);
#1245 = EDGE_CURVE('',#296,#1246,#1248,.T.);
#1246 = VERTEX_POINT('',#1247);
#1247 = CARTESIAN_POINT('',(3.65,-142.2,-62.89267151745));
#1248 = LINE('',#1249,#1250);
#1249 = CARTESIAN_POINT('',(3.65,-138.9,-62.89267151745));
#1250 = VECTOR('',#1251,1.);
#1251 = DIRECTION('',(-0.,-1.,-0.));
#1252 = ORIENTED_EDGE('',*,*,#1253,.T.);
#1253 = EDGE_CURVE('',#1246,#1254,#1256,.T.);
#1254 = VERTEX_POINT('',#1255);
#1255 = CARTESIAN_POINT('',(2.580733080897E-16,-142.2,-60.78534303491));
#1256 = LINE('',#1257,#1258);
#1257 = CARTESIAN_POINT('',(3.65,-142.2,-62.89267151745));
#1258 = VECTOR('',#1259,1.);
#1259 = DIRECTION('',(-0.866025403784,-0.,0.5));
#1260 = ORIENTED_EDGE('',*,*,#1261,.F.);
#1261 = EDGE_CURVE('',#298,#1254,#1262,.T.);
#1262 = LINE('',#1263,#1264);
#1263 = CARTESIAN_POINT('',(2.580733080897E-16,-138.9,-60.78534303491));
#1264 = VECTOR('',#1265,1.);
#1265 = DIRECTION('',(-0.,-1.,-0.));
#1266 = PLANE('',#1267);
#1267 = AXIS2_PLACEMENT_3D('',#1268,#1269,#1270);
#1268 = CARTESIAN_POINT('',(3.65,-138.9,-62.89267151745));
#1269 = DIRECTION('',(0.5,-0.,0.866025403784));
#1270 = DIRECTION('',(0.866025403784,0.,-0.5));
#1271 = ADVANCED_FACE('',(#1272),#1290,.F.);
#1272 = FACE_BOUND('',#1273,.T.);
#1273 = EDGE_LOOP('',(#1274,#1275,#1283,#1289));
#1274 = ORIENTED_EDGE('',*,*,#305,.F.);
#1275 = ORIENTED_EDGE('',*,*,#1276,.T.);
#1276 = EDGE_CURVE('',#306,#1277,#1279,.T.);
#1277 = VERTEX_POINT('',#1278);
#1278 = CARTESIAN_POINT('',(3.65,-142.2,-67.10732848254));
#1279 = LINE('',#1280,#1281);
#1280 = CARTESIAN_POINT('',(3.65,-138.9,-67.10732848254));
#1281 = VECTOR('',#1282,1.);
#1282 = DIRECTION('',(-0.,-1.,-0.));
#1283 = ORIENTED_EDGE('',*,*,#1284,.T.);
#1284 = EDGE_CURVE('',#1277,#1246,#1285,.T.);
#1285 = LINE('',#1286,#1287);
#1286 = CARTESIAN_POINT('',(3.65,-142.2,-67.10732848254));
#1287 = VECTOR('',#1288,1.);
#1288 = DIRECTION('',(3.161034552959E-16,-0.,1.));
#1289 = ORIENTED_EDGE('',*,*,#1245,.F.);
#1290 = PLANE('',#1291);
#1291 = AXIS2_PLACEMENT_3D('',#1292,#1293,#1294);
#1292 = CARTESIAN_POINT('',(3.65,-138.9,-67.10732848254));
#1293 = DIRECTION('',(1.,-0.,-3.161034552959E-16));
#1294 = DIRECTION('',(-3.161034552959E-16,0.,-1.));
#1295 = ADVANCED_FACE('',(#1296),#1314,.F.);
#1296 = FACE_BOUND('',#1297,.T.);
#1297 = EDGE_LOOP('',(#1298,#1299,#1300,#1308));
#1298 = ORIENTED_EDGE('',*,*,#337,.F.);
#1299 = ORIENTED_EDGE('',*,*,#1261,.T.);
#1300 = ORIENTED_EDGE('',*,*,#1301,.T.);
#1301 = EDGE_CURVE('',#1254,#1302,#1304,.T.);
#1302 = VERTEX_POINT('',#1303);
#1303 = CARTESIAN_POINT('',(-3.65,-142.2,-62.89267151745));
#1304 = LINE('',#1305,#1306);
#1305 = CARTESIAN_POINT('',(2.580733080897E-16,-142.2,-60.78534303491));
#1306 = VECTOR('',#1307,1.);
#1307 = DIRECTION('',(-0.866025403784,-0.,-0.5));
#1308 = ORIENTED_EDGE('',*,*,#1309,.F.);
#1309 = EDGE_CURVE('',#330,#1302,#1310,.T.);
#1310 = LINE('',#1311,#1312);
#1311 = CARTESIAN_POINT('',(-3.65,-138.9,-62.89267151745));
#1312 = VECTOR('',#1313,1.);
#1313 = DIRECTION('',(-0.,-1.,-0.));
#1314 = PLANE('',#1315);
#1315 = AXIS2_PLACEMENT_3D('',#1316,#1317,#1318);
#1316 = CARTESIAN_POINT('',(2.580733080897E-16,-138.9,-60.78534303491));
#1317 = DIRECTION('',(-0.5,-0.,0.866025403784));
#1318 = DIRECTION('',(0.866025403784,0.,0.5));
#1319 = ADVANCED_FACE('',(#1320),#1338,.F.);
#1320 = FACE_BOUND('',#1321,.T.);
#1321 = EDGE_LOOP('',(#1322,#1323,#1331,#1337));
#1322 = ORIENTED_EDGE('',*,*,#313,.F.);
#1323 = ORIENTED_EDGE('',*,*,#1324,.T.);
#1324 = EDGE_CURVE('',#314,#1325,#1327,.T.);
#1325 = VERTEX_POINT('',#1326);
#1326 = CARTESIAN_POINT('',(-7.742199242692E-16,-142.2,-69.21465696508)
  );
#1327 = LINE('',#1328,#1329);
#1328 = CARTESIAN_POINT('',(-7.742199242692E-16,-138.9,-69.21465696508)
  );
#1329 = VECTOR('',#1330,1.);
#1330 = DIRECTION('',(-0.,-1.,-0.));
#1331 = ORIENTED_EDGE('',*,*,#1332,.T.);
#1332 = EDGE_CURVE('',#1325,#1277,#1333,.T.);
#1333 = LINE('',#1334,#1335);
#1334 = CARTESIAN_POINT('',(-7.742199242692E-16,-142.2,-69.21465696508)
  );
#1335 = VECTOR('',#1336,1.);
#1336 = DIRECTION('',(0.866025403784,-0.,0.5));
#1337 = ORIENTED_EDGE('',*,*,#1276,.F.);
#1338 = PLANE('',#1339);
#1339 = AXIS2_PLACEMENT_3D('',#1340,#1341,#1342);
#1340 = CARTESIAN_POINT('',(-7.742199242692E-16,-138.9,-69.21465696508)
  );
#1341 = DIRECTION('',(0.5,-0.,-0.866025403784));
#1342 = DIRECTION('',(-0.866025403784,0.,-0.5));
#1343 = ADVANCED_FACE('',(#1344),#1362,.F.);
#1344 = FACE_BOUND('',#1345,.T.);
#1345 = EDGE_LOOP('',(#1346,#1347,#1348,#1356));
#1346 = ORIENTED_EDGE('',*,*,#329,.F.);
#1347 = ORIENTED_EDGE('',*,*,#1309,.T.);
#1348 = ORIENTED_EDGE('',*,*,#1349,.T.);
#1349 = EDGE_CURVE('',#1302,#1350,#1352,.T.);
#1350 = VERTEX_POINT('',#1351);
#1351 = CARTESIAN_POINT('',(-3.65,-142.2,-67.10732848254));
#1352 = LINE('',#1353,#1354);
#1353 = CARTESIAN_POINT('',(-3.65,-142.2,-62.89267151745));
#1354 = VECTOR('',#1355,1.);
#1355 = DIRECTION('',(1.05367818432E-16,-0.,-1.));
#1356 = ORIENTED_EDGE('',*,*,#1357,.F.);
#1357 = EDGE_CURVE('',#322,#1350,#1358,.T.);
#1358 = LINE('',#1359,#1360);
#1359 = CARTESIAN_POINT('',(-3.65,-138.9,-67.10732848254));
#1360 = VECTOR('',#1361,1.);
#1361 = DIRECTION('',(-0.,-1.,-0.));
#1362 = PLANE('',#1363);
#1363 = AXIS2_PLACEMENT_3D('',#1364,#1365,#1366);
#1364 = CARTESIAN_POINT('',(-3.65,-138.9,-62.89267151745));
#1365 = DIRECTION('',(-1.,-0.,-1.05367818432E-16));
#1366 = DIRECTION('',(-1.05367818432E-16,0.,1.));
#1367 = ADVANCED_FACE('',(#1368),#1379,.F.);
#1368 = FACE_BOUND('',#1369,.T.);
#1369 = EDGE_LOOP('',(#1370,#1371,#1372,#1378));
#1370 = ORIENTED_EDGE('',*,*,#321,.F.);
#1371 = ORIENTED_EDGE('',*,*,#1357,.T.);
#1372 = ORIENTED_EDGE('',*,*,#1373,.T.);
#1373 = EDGE_CURVE('',#1350,#1325,#1374,.T.);
#1374 = LINE('',#1375,#1376);
#1375 = CARTESIAN_POINT('',(-3.65,-142.2,-67.10732848254));
#1376 = VECTOR('',#1377,1.);
#1377 = DIRECTION('',(0.866025403784,-0.,-0.5));
#1378 = ORIENTED_EDGE('',*,*,#1324,.F.);
#1379 = PLANE('',#1380);
#1380 = AXIS2_PLACEMENT_3D('',#1381,#1382,#1383);
#1381 = CARTESIAN_POINT('',(-3.65,-138.9,-67.10732848254));
#1382 = DIRECTION('',(-0.5,-0.,-0.866025403784));
#1383 = DIRECTION('',(-0.866025403784,0.,0.5));
#1384 = ADVANCED_FACE('',(#1385),#1410,.F.);
#1385 = FACE_BOUND('',#1386,.T.);
#1386 = EDGE_LOOP('',(#1387,#1388,#1396,#1404));
#1387 = ORIENTED_EDGE('',*,*,#345,.F.);
#1388 = ORIENTED_EDGE('',*,*,#1389,.T.);
#1389 = EDGE_CURVE('',#346,#1390,#1392,.T.);
#1390 = VERTEX_POINT('',#1391);
#1391 = CARTESIAN_POINT('',(3.65,-142.2,-84.89267151745));
#1392 = LINE('',#1393,#1394);
#1393 = CARTESIAN_POINT('',(3.65,-138.9,-84.89267151745));
#1394 = VECTOR('',#1395,1.);
#1395 = DIRECTION('',(-0.,-1.,-0.));
#1396 = ORIENTED_EDGE('',*,*,#1397,.T.);
#1397 = EDGE_CURVE('',#1390,#1398,#1400,.T.);
#1398 = VERTEX_POINT('',#1399);
#1399 = CARTESIAN_POINT('',(2.580733080897E-16,-142.2,-82.78534303491));
#1400 = LINE('',#1401,#1402);
#1401 = CARTESIAN_POINT('',(3.65,-142.2,-84.89267151745));
#1402 = VECTOR('',#1403,1.);
#1403 = DIRECTION('',(-0.866025403784,-0.,0.5));
#1404 = ORIENTED_EDGE('',*,*,#1405,.F.);
#1405 = EDGE_CURVE('',#348,#1398,#1406,.T.);
#1406 = LINE('',#1407,#1408);
#1407 = CARTESIAN_POINT('',(2.580733080897E-16,-138.9,-82.78534303491));
#1408 = VECTOR('',#1409,1.);
#1409 = DIRECTION('',(-0.,-1.,-0.));
#1410 = PLANE('',#1411);
#1411 = AXIS2_PLACEMENT_3D('',#1412,#1413,#1414);
#1412 = CARTESIAN_POINT('',(3.65,-138.9,-84.89267151745));
#1413 = DIRECTION('',(0.5,-0.,0.866025403784));
#1414 = DIRECTION('',(0.866025403784,0.,-0.5));
#1415 = ADVANCED_FACE('',(#1416),#1434,.F.);
#1416 = FACE_BOUND('',#1417,.T.);
#1417 = EDGE_LOOP('',(#1418,#1419,#1427,#1433));
#1418 = ORIENTED_EDGE('',*,*,#355,.F.);
#1419 = ORIENTED_EDGE('',*,*,#1420,.T.);
#1420 = EDGE_CURVE('',#356,#1421,#1423,.T.);
#1421 = VERTEX_POINT('',#1422);
#1422 = CARTESIAN_POINT('',(3.65,-142.2,-89.10732848254));
#1423 = LINE('',#1424,#1425);
#1424 = CARTESIAN_POINT('',(3.65,-138.9,-89.10732848254));
#1425 = VECTOR('',#1426,1.);
#1426 = DIRECTION('',(-0.,-1.,-0.));
#1427 = ORIENTED_EDGE('',*,*,#1428,.T.);
#1428 = EDGE_CURVE('',#1421,#1390,#1429,.T.);
#1429 = LINE('',#1430,#1431);
#1430 = CARTESIAN_POINT('',(3.65,-142.2,-89.10732848254));
#1431 = VECTOR('',#1432,1.);
#1432 = DIRECTION('',(3.161034552959E-16,-0.,1.));
#1433 = ORIENTED_EDGE('',*,*,#1389,.F.);
#1434 = PLANE('',#1435);
#1435 = AXIS2_PLACEMENT_3D('',#1436,#1437,#1438);
#1436 = CARTESIAN_POINT('',(3.65,-138.9,-89.10732848254));
#1437 = DIRECTION('',(1.,-0.,-3.161034552959E-16));
#1438 = DIRECTION('',(-3.161034552959E-16,0.,-1.));
#1439 = ADVANCED_FACE('',(#1440),#1458,.F.);
#1440 = FACE_BOUND('',#1441,.T.);
#1441 = EDGE_LOOP('',(#1442,#1443,#1444,#1452));
#1442 = ORIENTED_EDGE('',*,*,#387,.F.);
#1443 = ORIENTED_EDGE('',*,*,#1405,.T.);
#1444 = ORIENTED_EDGE('',*,*,#1445,.T.);
#1445 = EDGE_CURVE('',#1398,#1446,#1448,.T.);
#1446 = VERTEX_POINT('',#1447);
#1447 = CARTESIAN_POINT('',(-3.65,-142.2,-84.89267151745));
#1448 = LINE('',#1449,#1450);
#1449 = CARTESIAN_POINT('',(2.580733080897E-16,-142.2,-82.78534303491));
#1450 = VECTOR('',#1451,1.);
#1451 = DIRECTION('',(-0.866025403784,-0.,-0.5));
#1452 = ORIENTED_EDGE('',*,*,#1453,.F.);
#1453 = EDGE_CURVE('',#380,#1446,#1454,.T.);
#1454 = LINE('',#1455,#1456);
#1455 = CARTESIAN_POINT('',(-3.65,-138.9,-84.89267151745));
#1456 = VECTOR('',#1457,1.);
#1457 = DIRECTION('',(-0.,-1.,-0.));
#1458 = PLANE('',#1459);
#1459 = AXIS2_PLACEMENT_3D('',#1460,#1461,#1462);
#1460 = CARTESIAN_POINT('',(2.580733080897E-16,-138.9,-82.78534303491));
#1461 = DIRECTION('',(-0.5,-0.,0.866025403784));
#1462 = DIRECTION('',(0.866025403784,0.,0.5));
#1463 = ADVANCED_FACE('',(#1464),#1482,.F.);
#1464 = FACE_BOUND('',#1465,.T.);
#1465 = EDGE_LOOP('',(#1466,#1467,#1475,#1481));
#1466 = ORIENTED_EDGE('',*,*,#363,.F.);
#1467 = ORIENTED_EDGE('',*,*,#1468,.T.);
#1468 = EDGE_CURVE('',#364,#1469,#1471,.T.);
#1469 = VERTEX_POINT('',#1470);
#1470 = CARTESIAN_POINT('',(-7.742199242692E-16,-142.2,-91.21465696508)
  );
#1471 = LINE('',#1472,#1473);
#1472 = CARTESIAN_POINT('',(-7.742199242692E-16,-138.9,-91.21465696508)
  );
#1473 = VECTOR('',#1474,1.);
#1474 = DIRECTION('',(-0.,-1.,-0.));
#1475 = ORIENTED_EDGE('',*,*,#1476,.T.);
#1476 = EDGE_CURVE('',#1469,#1421,#1477,.T.);
#1477 = LINE('',#1478,#1479);
#1478 = CARTESIAN_POINT('',(-7.742199242692E-16,-142.2,-91.21465696508)
  );
#1479 = VECTOR('',#1480,1.);
#1480 = DIRECTION('',(0.866025403784,-0.,0.5));
#1481 = ORIENTED_EDGE('',*,*,#1420,.F.);
#1482 = PLANE('',#1483);
#1483 = AXIS2_PLACEMENT_3D('',#1484,#1485,#1486);
#1484 = CARTESIAN_POINT('',(-7.742199242692E-16,-138.9,-91.21465696508)
  );
#1485 = DIRECTION('',(0.5,-0.,-0.866025403784));
#1486 = DIRECTION('',(-0.866025403784,0.,-0.5));
#1487 = ADVANCED_FACE('',(#1488),#1506,.F.);
#1488 = FACE_BOUND('',#1489,.T.);
#1489 = EDGE_LOOP('',(#1490,#1491,#1492,#1500));
#1490 = ORIENTED_EDGE('',*,*,#379,.F.);
#1491 = ORIENTED_EDGE('',*,*,#1453,.T.);
#1492 = ORIENTED_EDGE('',*,*,#1493,.T.);
#1493 = EDGE_CURVE('',#1446,#1494,#1496,.T.);
#1494 = VERTEX_POINT('',#1495);
#1495 = CARTESIAN_POINT('',(-3.65,-142.2,-89.10732848254));
#1496 = LINE('',#1497,#1498);
#1497 = CARTESIAN_POINT('',(-3.65,-142.2,-84.89267151745));
#1498 = VECTOR('',#1499,1.);
#1499 = DIRECTION('',(1.05367818432E-16,-0.,-1.));
#1500 = ORIENTED_EDGE('',*,*,#1501,.F.);
#1501 = EDGE_CURVE('',#372,#1494,#1502,.T.);
#1502 = LINE('',#1503,#1504);
#1503 = CARTESIAN_POINT('',(-3.65,-138.9,-89.10732848254));
#1504 = VECTOR('',#1505,1.);
#1505 = DIRECTION('',(-0.,-1.,-0.));
#1506 = PLANE('',#1507);
#1507 = AXIS2_PLACEMENT_3D('',#1508,#1509,#1510);
#1508 = CARTESIAN_POINT('',(-3.65,-138.9,-84.89267151745));
#1509 = DIRECTION('',(-1.,-0.,-1.05367818432E-16));
#1510 = DIRECTION('',(-1.05367818432E-16,0.,1.));
#1511 = ADVANCED_FACE('',(#1512),#1523,.F.);
#1512 = FACE_BOUND('',#1513,.T.);
#1513 = EDGE_LOOP('',(#1514,#1515,#1516,#1522));
#1514 = ORIENTED_EDGE('',*,*,#371,.F.);
#1515 = ORIENTED_EDGE('',*,*,#1501,.T.);
#1516 = ORIENTED_EDGE('',*,*,#1517,.T.);
#1517 = EDGE_CURVE('',#1494,#1469,#1518,.T.);
#1518 = LINE('',#1519,#1520);
#1519 = CARTESIAN_POINT('',(-3.65,-142.2,-89.10732848254));
#1520 = VECTOR('',#1521,1.);
#1521 = DIRECTION('',(0.866025403784,-0.,-0.5));
#1522 = ORIENTED_EDGE('',*,*,#1468,.F.);
#1523 = PLANE('',#1524);
#1524 = AXIS2_PLACEMENT_3D('',#1525,#1526,#1527);
#1525 = CARTESIAN_POINT('',(-3.65,-138.9,-89.10732848254));
#1526 = DIRECTION('',(-0.5,-0.,-0.866025403784));
#1527 = DIRECTION('',(-0.866025403784,0.,0.5));
#1528 = ADVANCED_FACE('',(#1529),#1545,.F.);
#1529 = FACE_BOUND('',#1530,.F.);
#1530 = EDGE_LOOP('',(#1531,#1537,#1538,#1544));
#1531 = ORIENTED_EDGE('',*,*,#1532,.F.);
#1532 = EDGE_CURVE('',#398,#712,#1533,.T.);
#1533 = LINE('',#1534,#1535);
#1534 = CARTESIAN_POINT('',(-5.951964226115,-138.,-98.));
#1535 = VECTOR('',#1536,1.);
#1536 = DIRECTION('',(-0.,-1.,-0.));
#1537 = ORIENTED_EDGE('',*,*,#395,.F.);
#1538 = ORIENTED_EDGE('',*,*,#1539,.T.);
#1539 = EDGE_CURVE('',#396,#720,#1540,.T.);
#1540 = LINE('',#1541,#1542);
#1541 = CARTESIAN_POINT('',(-6.60595024683,-138.,-100.2061323395));
#1542 = VECTOR('',#1543,1.);
#1543 = DIRECTION('',(-0.,-1.,-0.));
#1544 = ORIENTED_EDGE('',*,*,#719,.T.);
#1545 = CYLINDRICAL_SURFACE('',#1546,1.2);
#1546 = AXIS2_PLACEMENT_3D('',#1547,#1548,#1549);
#1547 = CARTESIAN_POINT('',(-5.951964226115,-138.,-99.2));
#1548 = DIRECTION('',(-0.,-1.,-0.));
#1549 = DIRECTION('',(-0.,-0.,1.));
#1550 = ADVANCED_FACE('',(#1551),#1562,.T.);
#1551 = FACE_BOUND('',#1552,.F.);
#1552 = EDGE_LOOP('',(#1553,#1554,#1560,#1561));
#1553 = ORIENTED_EDGE('',*,*,#440,.F.);
#1554 = ORIENTED_EDGE('',*,*,#1555,.T.);
#1555 = EDGE_CURVE('',#432,#729,#1556,.T.);
#1556 = LINE('',#1557,#1558);
#1557 = CARTESIAN_POINT('',(8.146013979286,-138.,-109.7949090865));
#1558 = VECTOR('',#1559,1.);
#1559 = DIRECTION('',(-0.,-1.,-0.));
#1560 = ORIENTED_EDGE('',*,*,#728,.F.);
#1561 = ORIENTED_EDGE('',*,*,#1539,.F.);
#1562 = PLANE('',#1563);
#1563 = AXIS2_PLACEMENT_3D('',#1564,#1565,#1566);
#1564 = CARTESIAN_POINT('',(10.,-138.,-111.));
#1565 = DIRECTION('',(0.544988350595,-0.,0.838443616301));
#1566 = DIRECTION('',(0.838443616301,0.,-0.544988350595));
#1567 = ADVANCED_FACE('',(#1568),#1579,.F.);
#1568 = FACE_BOUND('',#1569,.T.);
#1569 = EDGE_LOOP('',(#1570,#1576,#1577,#1578));
#1570 = ORIENTED_EDGE('',*,*,#1571,.F.);
#1571 = EDGE_CURVE('',#424,#737,#1572,.T.);
#1572 = LINE('',#1573,#1574);
#1573 = CARTESIAN_POINT('',(10.,-138.,-108.7887767469));
#1574 = VECTOR('',#1575,1.);
#1575 = DIRECTION('',(-0.,-1.,-0.));
#1576 = ORIENTED_EDGE('',*,*,#431,.T.);
#1577 = ORIENTED_EDGE('',*,*,#1555,.T.);
#1578 = ORIENTED_EDGE('',*,*,#736,.F.);
#1579 = CYLINDRICAL_SURFACE('',#1580,1.2);
#1580 = AXIS2_PLACEMENT_3D('',#1581,#1582,#1583);
#1581 = CARTESIAN_POINT('',(8.8,-138.,-108.7887767469));
#1582 = DIRECTION('',(-0.,-1.,-0.));
#1583 = DIRECTION('',(1.,-0.,-0.));
#1584 = ADVANCED_FACE('',(#1585),#1596,.T.);
#1585 = FACE_BOUND('',#1586,.F.);
#1586 = EDGE_LOOP('',(#1587,#1588,#1594,#1595));
#1587 = ORIENTED_EDGE('',*,*,#423,.F.);
#1588 = ORIENTED_EDGE('',*,*,#1589,.T.);
#1589 = EDGE_CURVE('',#415,#703,#1590,.T.);
#1590 = LINE('',#1591,#1592);
#1591 = CARTESIAN_POINT('',(10.,-138.,-99.2));
#1592 = VECTOR('',#1593,1.);
#1593 = DIRECTION('',(-0.,-1.,-0.));
#1594 = ORIENTED_EDGE('',*,*,#745,.F.);
#1595 = ORIENTED_EDGE('',*,*,#1571,.F.);
#1596 = PLANE('',#1597);
#1597 = AXIS2_PLACEMENT_3D('',#1598,#1599,#1600);
#1598 = CARTESIAN_POINT('',(10.,-138.,-98.));
#1599 = DIRECTION('',(-1.,-0.,-0.));
#1600 = DIRECTION('',(0.,0.,1.));
#1601 = ADVANCED_FACE('',(#1602),#1613,.F.);
#1602 = FACE_BOUND('',#1603,.T.);
#1603 = EDGE_LOOP('',(#1604,#1610,#1611,#1612));
#1604 = ORIENTED_EDGE('',*,*,#1605,.F.);
#1605 = EDGE_CURVE('',#407,#701,#1606,.T.);
#1606 = LINE('',#1607,#1608);
#1607 = CARTESIAN_POINT('',(8.8,-138.,-98.));
#1608 = VECTOR('',#1609,1.);
#1609 = DIRECTION('',(-0.,-1.,-0.));
#1610 = ORIENTED_EDGE('',*,*,#414,.T.);
#1611 = ORIENTED_EDGE('',*,*,#1589,.T.);
#1612 = ORIENTED_EDGE('',*,*,#700,.F.);
#1613 = CYLINDRICAL_SURFACE('',#1614,1.2);
#1614 = AXIS2_PLACEMENT_3D('',#1615,#1616,#1617);
#1615 = CARTESIAN_POINT('',(8.8,-138.,-99.2));
#1616 = DIRECTION('',(-0.,-1.,-0.));
#1617 = DIRECTION('',(-0.,-0.,1.));
#1618 = ADVANCED_FACE('',(#1619),#1625,.T.);
#1619 = FACE_BOUND('',#1620,.F.);
#1620 = EDGE_LOOP('',(#1621,#1622,#1623,#1624));
#1621 = ORIENTED_EDGE('',*,*,#406,.F.);
#1622 = ORIENTED_EDGE('',*,*,#1532,.T.);
#1623 = ORIENTED_EDGE('',*,*,#711,.F.);
#1624 = ORIENTED_EDGE('',*,*,#1605,.F.);
#1625 = PLANE('',#1626);
#1626 = AXIS2_PLACEMENT_3D('',#1627,#1628,#1629);
#1627 = CARTESIAN_POINT('',(-10.,-138.,-98.));
#1628 = DIRECTION('',(-0.,-0.,-1.));
#1629 = DIRECTION('',(-1.,0.,0.));
#1630 = ADVANCED_FACE('',(#1631),#1650,.F.);
#1631 = FACE_BOUND('',#1632,.T.);
#1632 = EDGE_LOOP('',(#1633,#1641,#1648,#1649));
#1633 = ORIENTED_EDGE('',*,*,#1634,.T.);
#1634 = EDGE_CURVE('',#449,#1635,#1637,.T.);
#1635 = VERTEX_POINT('',#1636);
#1636 = CARTESIAN_POINT('',(-1.24913973513E-15,-140.5,-124.9));
#1637 = LINE('',#1638,#1639);
#1638 = CARTESIAN_POINT('',(-1.24913973513E-15,-138.9,-124.9));
#1639 = VECTOR('',#1640,1.);
#1640 = DIRECTION('',(-0.,-1.,-0.));
#1641 = ORIENTED_EDGE('',*,*,#1642,.F.);
#1642 = EDGE_CURVE('',#1635,#1635,#1643,.T.);
#1643 = CIRCLE('',#1644,5.1);
#1644 = AXIS2_PLACEMENT_3D('',#1645,#1646,#1647);
#1645 = CARTESIAN_POINT('',(0.,-140.5,-130.));
#1646 = DIRECTION('',(0.,1.,0.));
#1647 = DIRECTION('',(-0.,-0.,1.));
#1648 = ORIENTED_EDGE('',*,*,#1634,.F.);
#1649 = ORIENTED_EDGE('',*,*,#448,.T.);
#1650 = CYLINDRICAL_SURFACE('',#1651,5.1);
#1651 = AXIS2_PLACEMENT_3D('',#1652,#1653,#1654);
#1652 = CARTESIAN_POINT('',(0.,-138.9,-130.));
#1653 = DIRECTION('',(-0.,-1.,-0.));
#1654 = DIRECTION('',(-0.,-0.,1.));
#1655 = ADVANCED_FACE('',(#1656),#1675,.F.);
#1656 = FACE_BOUND('',#1657,.T.);
#1657 = EDGE_LOOP('',(#1658,#1659,#1667,#1674));
#1658 = ORIENTED_EDGE('',*,*,#603,.F.);
#1659 = ORIENTED_EDGE('',*,*,#1660,.F.);
#1660 = EDGE_CURVE('',#1661,#604,#1663,.T.);
#1661 = VERTEX_POINT('',#1662);
#1662 = CARTESIAN_POINT('',(-21.65063509461,-144.,-9.4));
#1663 = LINE('',#1664,#1665);
#1664 = CARTESIAN_POINT('',(-21.65063509461,-144.,-9.4));
#1665 = VECTOR('',#1666,1.);
#1666 = DIRECTION('',(-0.,-1.,-0.));
#1667 = ORIENTED_EDGE('',*,*,#1668,.T.);
#1668 = EDGE_CURVE('',#1661,#1661,#1669,.T.);
#1669 = CIRCLE('',#1670,3.1);
#1670 = AXIS2_PLACEMENT_3D('',#1671,#1672,#1673);
#1671 = CARTESIAN_POINT('',(-21.65063509461,-144.,-12.5));
#1672 = DIRECTION('',(0.,1.,0.));
#1673 = DIRECTION('',(-0.,-0.,1.));
#1674 = ORIENTED_EDGE('',*,*,#1660,.T.);
#1675 = CYLINDRICAL_SURFACE('',#1676,3.1);
#1676 = AXIS2_PLACEMENT_3D('',#1677,#1678,#1679);
#1677 = CARTESIAN_POINT('',(-21.65063509461,-144.,-12.5));
#1678 = DIRECTION('',(-0.,-1.,-0.));
#1679 = DIRECTION('',(-0.,-0.,1.));
#1680 = ADVANCED_FACE('',(#1681),#1700,.F.);
#1681 = FACE_BOUND('',#1682,.T.);
#1682 = EDGE_LOOP('',(#1683,#1684,#1692,#1699));
#1683 = ORIENTED_EDGE('',*,*,#614,.F.);
#1684 = ORIENTED_EDGE('',*,*,#1685,.F.);
#1685 = EDGE_CURVE('',#1686,#615,#1688,.T.);
#1686 = VERTEX_POINT('',#1687);
#1687 = CARTESIAN_POINT('',(-21.65063509461,-144.,15.6));
#1688 = LINE('',#1689,#1690);
#1689 = CARTESIAN_POINT('',(-21.65063509461,-144.,15.6));
#1690 = VECTOR('',#1691,1.);
#1691 = DIRECTION('',(-0.,-1.,-0.));
#1692 = ORIENTED_EDGE('',*,*,#1693,.T.);
#1693 = EDGE_CURVE('',#1686,#1686,#1694,.T.);
#1694 = CIRCLE('',#1695,3.1);
#1695 = AXIS2_PLACEMENT_3D('',#1696,#1697,#1698);
#1696 = CARTESIAN_POINT('',(-21.65063509461,-144.,12.5));
#1697 = DIRECTION('',(0.,1.,0.));
#1698 = DIRECTION('',(-0.,-0.,1.));
#1699 = ORIENTED_EDGE('',*,*,#1685,.T.);
#1700 = CYLINDRICAL_SURFACE('',#1701,3.1);
#1701 = AXIS2_PLACEMENT_3D('',#1702,#1703,#1704);
#1702 = CARTESIAN_POINT('',(-21.65063509461,-144.,12.5));
#1703 = DIRECTION('',(-0.,-1.,-0.));
#1704 = DIRECTION('',(-0.,-0.,1.));
#1705 = ADVANCED_FACE('',(#1706),#1725,.F.);
#1706 = FACE_BOUND('',#1707,.T.);
#1707 = EDGE_LOOP('',(#1708,#1709,#1717,#1724));
#1708 = ORIENTED_EDGE('',*,*,#678,.F.);
#1709 = ORIENTED_EDGE('',*,*,#1710,.F.);
#1710 = EDGE_CURVE('',#1711,#679,#1713,.T.);
#1711 = VERTEX_POINT('',#1712);
#1712 = CARTESIAN_POINT('',(-5.351706512274E-15,-144.,-21.9));
#1713 = LINE('',#1714,#1715);
#1714 = CARTESIAN_POINT('',(-5.351706512274E-15,-144.,-21.9));
#1715 = VECTOR('',#1716,1.);
#1716 = DIRECTION('',(-0.,-1.,-0.));
#1717 = ORIENTED_EDGE('',*,*,#1718,.T.);
#1718 = EDGE_CURVE('',#1711,#1711,#1719,.T.);
#1719 = CIRCLE('',#1720,3.1);
#1720 = AXIS2_PLACEMENT_3D('',#1721,#1722,#1723);
#1721 = CARTESIAN_POINT('',(-4.592425496803E-15,-144.,-25.));
#1722 = DIRECTION('',(0.,1.,0.));
#1723 = DIRECTION('',(-0.,-0.,1.));
#1724 = ORIENTED_EDGE('',*,*,#1710,.T.);
#1725 = CYLINDRICAL_SURFACE('',#1726,3.1);
#1726 = AXIS2_PLACEMENT_3D('',#1727,#1728,#1729);
#1727 = CARTESIAN_POINT('',(-4.592425496803E-15,-144.,-25.));
#1728 = DIRECTION('',(-0.,-1.,-0.));
#1729 = DIRECTION('',(-0.,-0.,1.));
#1730 = ADVANCED_FACE('',(#1731),#1750,.F.);
#1731 = FACE_BOUND('',#1732,.T.);
#1732 = EDGE_LOOP('',(#1733,#1734,#1742,#1749));
#1733 = ORIENTED_EDGE('',*,*,#689,.F.);
#1734 = ORIENTED_EDGE('',*,*,#1735,.F.);
#1735 = EDGE_CURVE('',#1736,#690,#1738,.T.);
#1736 = VERTEX_POINT('',#1737);
#1737 = CARTESIAN_POINT('',(-7.592810154714E-16,-140.5,-126.9));
#1738 = LINE('',#1739,#1740);
#1739 = CARTESIAN_POINT('',(-7.592810154714E-16,-138.,-126.9));
#1740 = VECTOR('',#1741,1.);
#1741 = DIRECTION('',(-0.,-1.,-0.));
#1742 = ORIENTED_EDGE('',*,*,#1743,.T.);
#1743 = EDGE_CURVE('',#1736,#1736,#1744,.T.);
#1744 = CIRCLE('',#1745,3.1);
#1745 = AXIS2_PLACEMENT_3D('',#1746,#1747,#1748);
#1746 = CARTESIAN_POINT('',(0.,-140.5,-130.));
#1747 = DIRECTION('',(0.,1.,0.));
#1748 = DIRECTION('',(-0.,-0.,1.));
#1749 = ORIENTED_EDGE('',*,*,#1735,.T.);
#1750 = CYLINDRICAL_SURFACE('',#1751,3.1);
#1751 = AXIS2_PLACEMENT_3D('',#1752,#1753,#1754);
#1752 = CARTESIAN_POINT('',(0.,-138.,-130.));
#1753 = DIRECTION('',(-0.,-1.,-0.));
#1754 = DIRECTION('',(-0.,-0.,1.));
#1755 = ADVANCED_FACE('',(#1756),#1775,.T.);
#1756 = FACE_BOUND('',#1757,.F.);
#1757 = EDGE_LOOP('',(#1758,#1766,#1773,#1774));
#1758 = ORIENTED_EDGE('',*,*,#1759,.T.);
#1759 = EDGE_CURVE('',#754,#1760,#1762,.T.);
#1760 = VERTEX_POINT('',#1761);
#1761 = CARTESIAN_POINT('',(-1.714505518806E-15,-167.,-80.));
#1762 = LINE('',#1763,#1764);
#1763 = CARTESIAN_POINT('',(-1.714505518806E-15,-146.8,-80.));
#1764 = VECTOR('',#1765,1.);
#1765 = DIRECTION('',(-0.,-1.,-0.));
#1766 = ORIENTED_EDGE('',*,*,#1767,.F.);
#1767 = EDGE_CURVE('',#1760,#1760,#1768,.T.);
#1768 = CIRCLE('',#1769,7.);
#1769 = AXIS2_PLACEMENT_3D('',#1770,#1771,#1772);
#1770 = CARTESIAN_POINT('',(0.,-167.,-87.));
#1771 = DIRECTION('',(0.,1.,0.));
#1772 = DIRECTION('',(-0.,-0.,1.));
#1773 = ORIENTED_EDGE('',*,*,#1759,.F.);
#1774 = ORIENTED_EDGE('',*,*,#753,.T.);
#1775 = CYLINDRICAL_SURFACE('',#1776,7.);
#1776 = AXIS2_PLACEMENT_3D('',#1777,#1778,#1779);
#1777 = CARTESIAN_POINT('',(0.,-146.8,-87.));
#1778 = DIRECTION('',(-0.,-1.,-0.));
#1779 = DIRECTION('',(-0.,-0.,1.));
#1780 = ADVANCED_FACE('',(#1781),#1800,.T.);
#1781 = FACE_BOUND('',#1782,.F.);
#1782 = EDGE_LOOP('',(#1783,#1791,#1798,#1799));
#1783 = ORIENTED_EDGE('',*,*,#1784,.T.);
#1784 = EDGE_CURVE('',#765,#1785,#1787,.T.);
#1785 = VERTEX_POINT('',#1786);
#1786 = CARTESIAN_POINT('',(-1.714505518806E-15,-167.,-58.));
#1787 = LINE('',#1788,#1789);
#1788 = CARTESIAN_POINT('',(-1.714505518806E-15,-146.8,-58.));
#1789 = VECTOR('',#1790,1.);
#1790 = DIRECTION('',(-0.,-1.,-0.));
#1791 = ORIENTED_EDGE('',*,*,#1792,.F.);
#1792 = EDGE_CURVE('',#1785,#1785,#1793,.T.);
#1793 = CIRCLE('',#1794,7.);
#1794 = AXIS2_PLACEMENT_3D('',#1795,#1796,#1797);
#1795 = CARTESIAN_POINT('',(0.,-167.,-65.));
#1796 = DIRECTION('',(0.,1.,0.));
#1797 = DIRECTION('',(-0.,-0.,1.));
#1798 = ORIENTED_EDGE('',*,*,#1784,.F.);
#1799 = ORIENTED_EDGE('',*,*,#764,.T.);
#1800 = CYLINDRICAL_SURFACE('',#1801,7.);
#1801 = AXIS2_PLACEMENT_3D('',#1802,#1803,#1804);
#1802 = CARTESIAN_POINT('',(0.,-146.8,-65.));
#1803 = DIRECTION('',(-0.,-1.,-0.));
#1804 = DIRECTION('',(-0.,-0.,1.));
#1805 = ADVANCED_FACE('',(#1806),#1825,.F.);
#1806 = FACE_BOUND('',#1807,.T.);
#1807 = EDGE_LOOP('',(#1808,#1809,#1817,#1824));
#1808 = ORIENTED_EDGE('',*,*,#786,.F.);
#1809 = ORIENTED_EDGE('',*,*,#1810,.F.);
#1810 = EDGE_CURVE('',#1811,#787,#1813,.T.);
#1811 = VERTEX_POINT('',#1812);
#1812 = CARTESIAN_POINT('',(7.715274834628E-16,-144.,28.1));
#1813 = LINE('',#1814,#1815);
#1814 = CARTESIAN_POINT('',(7.715274834628E-16,-144.,28.1));
#1815 = VECTOR('',#1816,1.);
#1816 = DIRECTION('',(-0.,-1.,-0.));
#1817 = ORIENTED_EDGE('',*,*,#1818,.T.);
#1818 = EDGE_CURVE('',#1811,#1811,#1819,.T.);
#1819 = CIRCLE('',#1820,3.1);
#1820 = AXIS2_PLACEMENT_3D('',#1821,#1822,#1823);
#1821 = CARTESIAN_POINT('',(1.530808498934E-15,-144.,25.));
#1822 = DIRECTION('',(0.,1.,0.));
#1823 = DIRECTION('',(-0.,-0.,1.));
#1824 = ORIENTED_EDGE('',*,*,#1810,.T.);
#1825 = CYLINDRICAL_SURFACE('',#1826,3.1);
#1826 = AXIS2_PLACEMENT_3D('',#1827,#1828,#1829);
#1827 = CARTESIAN_POINT('',(1.530808498934E-15,-144.,25.));
#1828 = DIRECTION('',(-0.,-1.,-0.));
#1829 = DIRECTION('',(-0.,-0.,1.));
#1830 = ADVANCED_FACE('',(#1831),#1850,.F.);
#1831 = FACE_BOUND('',#1832,.T.);
#1832 = EDGE_LOOP('',(#1833,#1834,#1842,#1849));
#1833 = ORIENTED_EDGE('',*,*,#797,.F.);
#1834 = ORIENTED_EDGE('',*,*,#1835,.F.);
#1835 = EDGE_CURVE('',#1836,#798,#1838,.T.);
#1836 = VERTEX_POINT('',#1837);
#1837 = CARTESIAN_POINT('',(21.650635094611,-144.,-9.4));
#1838 = LINE('',#1839,#1840);
#1839 = CARTESIAN_POINT('',(21.650635094611,-144.,-9.4));
#1840 = VECTOR('',#1841,1.);
#1841 = DIRECTION('',(-0.,-1.,-0.));
#1842 = ORIENTED_EDGE('',*,*,#1843,.T.);
#1843 = EDGE_CURVE('',#1836,#1836,#1844,.T.);
#1844 = CIRCLE('',#1845,3.1);
#1845 = AXIS2_PLACEMENT_3D('',#1846,#1847,#1848);
#1846 = CARTESIAN_POINT('',(21.650635094611,-144.,-12.5));
#1847 = DIRECTION('',(0.,1.,0.));
#1848 = DIRECTION('',(-0.,-0.,1.));
#1849 = ORIENTED_EDGE('',*,*,#1835,.T.);
#1850 = CYLINDRICAL_SURFACE('',#1851,3.1);
#1851 = AXIS2_PLACEMENT_3D('',#1852,#1853,#1854);
#1852 = CARTESIAN_POINT('',(21.650635094611,-144.,-12.5));
#1853 = DIRECTION('',(-0.,-1.,-0.));
#1854 = DIRECTION('',(-0.,-0.,1.));
#1855 = ADVANCED_FACE('',(#1856),#1875,.F.);
#1856 = FACE_BOUND('',#1857,.T.);
#1857 = EDGE_LOOP('',(#1858,#1859,#1867,#1874));
#1858 = ORIENTED_EDGE('',*,*,#808,.F.);
#1859 = ORIENTED_EDGE('',*,*,#1860,.F.);
#1860 = EDGE_CURVE('',#1861,#809,#1863,.T.);
#1861 = VERTEX_POINT('',#1862);
#1862 = CARTESIAN_POINT('',(21.650635094611,-144.,15.6));
#1863 = LINE('',#1864,#1865);
#1864 = CARTESIAN_POINT('',(21.650635094611,-144.,15.6));
#1865 = VECTOR('',#1866,1.);
#1866 = DIRECTION('',(-0.,-1.,-0.));
#1867 = ORIENTED_EDGE('',*,*,#1868,.T.);
#1868 = EDGE_CURVE('',#1861,#1861,#1869,.T.);
#1869 = CIRCLE('',#1870,3.1);
#1870 = AXIS2_PLACEMENT_3D('',#1871,#1872,#1873);
#1871 = CARTESIAN_POINT('',(21.650635094611,-144.,12.5));
#1872 = DIRECTION('',(0.,1.,0.));
#1873 = DIRECTION('',(-0.,-0.,1.));
#1874 = ORIENTED_EDGE('',*,*,#1860,.T.);
#1875 = CYLINDRICAL_SURFACE('',#1876,3.1);
#1876 = AXIS2_PLACEMENT_3D('',#1877,#1878,#1879);
#1877 = CARTESIAN_POINT('',(21.650635094611,-144.,12.5));
#1878 = DIRECTION('',(-0.,-1.,-0.));
#1879 = DIRECTION('',(-0.,-0.,1.));
#1880 = ADVANCED_FACE('',(#1881,#1884),#1887,.T.);
#1881 = FACE_BOUND('',#1882,.F.);
#1882 = EDGE_LOOP('',(#1883));
#1883 = ORIENTED_EDGE('',*,*,#1693,.T.);
#1884 = FACE_BOUND('',#1885,.F.);
#1885 = EDGE_LOOP('',(#1886));
#1886 = ORIENTED_EDGE('',*,*,#975,.F.);
#1887 = PLANE('',#1888);
#1888 = AXIS2_PLACEMENT_3D('',#1889,#1890,#1891);
#1889 = CARTESIAN_POINT('',(-21.65063509461,-144.,12.5));
#1890 = DIRECTION('',(-0.,-1.,-0.));
#1891 = DIRECTION('',(0.,0.,-1.));
#1892 = ADVANCED_FACE('',(#1893,#1896),#1899,.T.);
#1893 = FACE_BOUND('',#1894,.F.);
#1894 = EDGE_LOOP('',(#1895));
#1895 = ORIENTED_EDGE('',*,*,#1668,.T.);
#1896 = FACE_BOUND('',#1897,.F.);
#1897 = EDGE_LOOP('',(#1898));
#1898 = ORIENTED_EDGE('',*,*,#1000,.F.);
#1899 = PLANE('',#1900);
#1900 = AXIS2_PLACEMENT_3D('',#1901,#1902,#1903);
#1901 = CARTESIAN_POINT('',(-21.65063509461,-144.,-12.5));
#1902 = DIRECTION('',(-0.,-1.,-0.));
#1903 = DIRECTION('',(0.,0.,-1.));
#1904 = ADVANCED_FACE('',(#1905,#1908),#1911,.T.);
#1905 = FACE_BOUND('',#1906,.F.);
#1906 = EDGE_LOOP('',(#1907));
#1907 = ORIENTED_EDGE('',*,*,#1718,.T.);
#1908 = FACE_BOUND('',#1909,.F.);
#1909 = EDGE_LOOP('',(#1910));
#1910 = ORIENTED_EDGE('',*,*,#1025,.F.);
#1911 = PLANE('',#1912);
#1912 = AXIS2_PLACEMENT_3D('',#1913,#1914,#1915);
#1913 = CARTESIAN_POINT('',(-4.592425496803E-15,-144.,-25.));
#1914 = DIRECTION('',(-0.,-1.,-0.));
#1915 = DIRECTION('',(0.,0.,-1.));
#1916 = ADVANCED_FACE('',(#1917,#1920),#1923,.T.);
#1917 = FACE_BOUND('',#1918,.F.);
#1918 = EDGE_LOOP('',(#1919));
#1919 = ORIENTED_EDGE('',*,*,#1818,.T.);
#1920 = FACE_BOUND('',#1921,.F.);
#1921 = EDGE_LOOP('',(#1922));
#1922 = ORIENTED_EDGE('',*,*,#1152,.F.);
#1923 = PLANE('',#1924);
#1924 = AXIS2_PLACEMENT_3D('',#1925,#1926,#1927);
#1925 = CARTESIAN_POINT('',(1.530808498934E-15,-144.,25.));
#1926 = DIRECTION('',(-0.,-1.,-0.));
#1927 = DIRECTION('',(0.,0.,-1.));
#1928 = ADVANCED_FACE('',(#1929,#1932),#1935,.T.);
#1929 = FACE_BOUND('',#1930,.F.);
#1930 = EDGE_LOOP('',(#1931));
#1931 = ORIENTED_EDGE('',*,*,#1868,.T.);
#1932 = FACE_BOUND('',#1933,.F.);
#1933 = EDGE_LOOP('',(#1934));
#1934 = ORIENTED_EDGE('',*,*,#1194,.F.);
#1935 = PLANE('',#1936);
#1936 = AXIS2_PLACEMENT_3D('',#1937,#1938,#1939);
#1937 = CARTESIAN_POINT('',(21.650635094611,-144.,12.5));
#1938 = DIRECTION('',(-0.,-1.,-0.));
#1939 = DIRECTION('',(0.,0.,-1.));
#1940 = ADVANCED_FACE('',(#1941,#1944),#1947,.T.);
#1941 = FACE_BOUND('',#1942,.F.);
#1942 = EDGE_LOOP('',(#1943));
#1943 = ORIENTED_EDGE('',*,*,#1843,.T.);
#1944 = FACE_BOUND('',#1945,.F.);
#1945 = EDGE_LOOP('',(#1946));
#1946 = ORIENTED_EDGE('',*,*,#1219,.F.);
#1947 = PLANE('',#1948);
#1948 = AXIS2_PLACEMENT_3D('',#1949,#1950,#1951);
#1949 = CARTESIAN_POINT('',(21.650635094611,-144.,-12.5));
#1950 = DIRECTION('',(-0.,-1.,-0.));
#1951 = DIRECTION('',(0.,0.,-1.));
#1952 = ADVANCED_FACE('',(#1953,#1961),#1972,.T.);
#1953 = FACE_BOUND('',#1954,.F.);
#1954 = EDGE_LOOP('',(#1955,#1956,#1957,#1958,#1959,#1960));
#1955 = ORIENTED_EDGE('',*,*,#1253,.T.);
#1956 = ORIENTED_EDGE('',*,*,#1301,.T.);
#1957 = ORIENTED_EDGE('',*,*,#1349,.T.);
#1958 = ORIENTED_EDGE('',*,*,#1373,.T.);
#1959 = ORIENTED_EDGE('',*,*,#1332,.T.);
#1960 = ORIENTED_EDGE('',*,*,#1284,.T.);
#1961 = FACE_BOUND('',#1962,.F.);
#1962 = EDGE_LOOP('',(#1963));
#1963 = ORIENTED_EDGE('',*,*,#1964,.T.);
#1964 = EDGE_CURVE('',#1965,#1965,#1967,.T.);
#1965 = VERTEX_POINT('',#1966);
#1966 = CARTESIAN_POINT('',(-5.388445916248E-16,-142.2,-62.8));
#1967 = CIRCLE('',#1968,2.2);
#1968 = AXIS2_PLACEMENT_3D('',#1969,#1970,#1971);
#1969 = CARTESIAN_POINT('',(0.,-142.2,-65.));
#1970 = DIRECTION('',(0.,1.,0.));
#1971 = DIRECTION('',(-0.,-0.,1.));
#1972 = PLANE('',#1973);
#1973 = AXIS2_PLACEMENT_3D('',#1974,#1975,#1976);
#1974 = CARTESIAN_POINT('',(-1.05367818432E-16,-142.2,-65.));
#1975 = DIRECTION('',(-0.,1.,-0.));
#1976 = DIRECTION('',(0.,0.,1.));
#1977 = ADVANCED_FACE('',(#1978,#1986),#1997,.T.);
#1978 = FACE_BOUND('',#1979,.F.);
#1979 = EDGE_LOOP('',(#1980,#1981,#1982,#1983,#1984,#1985));
#1980 = ORIENTED_EDGE('',*,*,#1397,.T.);
#1981 = ORIENTED_EDGE('',*,*,#1445,.T.);
#1982 = ORIENTED_EDGE('',*,*,#1493,.T.);
#1983 = ORIENTED_EDGE('',*,*,#1517,.T.);
#1984 = ORIENTED_EDGE('',*,*,#1476,.T.);
#1985 = ORIENTED_EDGE('',*,*,#1428,.T.);
#1986 = FACE_BOUND('',#1987,.F.);
#1987 = EDGE_LOOP('',(#1988));
#1988 = ORIENTED_EDGE('',*,*,#1989,.T.);
#1989 = EDGE_CURVE('',#1990,#1990,#1992,.T.);
#1990 = VERTEX_POINT('',#1991);
#1991 = CARTESIAN_POINT('',(-5.388445916248E-16,-142.2,-84.8));
#1992 = CIRCLE('',#1993,2.2);
#1993 = AXIS2_PLACEMENT_3D('',#1994,#1995,#1996);
#1994 = CARTESIAN_POINT('',(0.,-142.2,-87.));
#1995 = DIRECTION('',(0.,1.,0.));
#1996 = DIRECTION('',(-0.,-0.,1.));
#1997 = PLANE('',#1998);
#1998 = AXIS2_PLACEMENT_3D('',#1999,#2000,#2001);
#1999 = CARTESIAN_POINT('',(-1.40490424576E-16,-142.2,-87.));
#2000 = DIRECTION('',(-0.,1.,-0.));
#2001 = DIRECTION('',(0.,0.,1.));
#2002 = ADVANCED_FACE('',(#2003,#2006),#2009,.F.);
#2003 = FACE_BOUND('',#2004,.T.);
#2004 = EDGE_LOOP('',(#2005));
#2005 = ORIENTED_EDGE('',*,*,#1642,.T.);
#2006 = FACE_BOUND('',#2007,.T.);
#2007 = EDGE_LOOP('',(#2008));
#2008 = ORIENTED_EDGE('',*,*,#1743,.F.);
#2009 = PLANE('',#2010);
#2010 = AXIS2_PLACEMENT_3D('',#2011,#2012,#2013);
#2011 = CARTESIAN_POINT('',(0.,-140.5,-130.));
#2012 = DIRECTION('',(-0.,-1.,-0.));
#2013 = DIRECTION('',(0.,0.,-1.));
#2014 = ADVANCED_FACE('',(#2015,#2018),#2029,.T.);
#2015 = FACE_BOUND('',#2016,.F.);
#2016 = EDGE_LOOP('',(#2017));
#2017 = ORIENTED_EDGE('',*,*,#1767,.T.);
#2018 = FACE_BOUND('',#2019,.F.);
#2019 = EDGE_LOOP('',(#2020));
#2020 = ORIENTED_EDGE('',*,*,#2021,.F.);
#2021 = EDGE_CURVE('',#2022,#2022,#2024,.T.);
#2022 = VERTEX_POINT('',#2023);
#2023 = CARTESIAN_POINT('',(-5.388445916248E-16,-167.,-84.8));
#2024 = CIRCLE('',#2025,2.2);
#2025 = AXIS2_PLACEMENT_3D('',#2026,#2027,#2028);
#2026 = CARTESIAN_POINT('',(0.,-167.,-87.));
#2027 = DIRECTION('',(0.,1.,0.));
#2028 = DIRECTION('',(-0.,-0.,1.));
#2029 = PLANE('',#2030);
#2030 = AXIS2_PLACEMENT_3D('',#2031,#2032,#2033);
#2031 = CARTESIAN_POINT('',(0.,-167.,-87.));
#2032 = DIRECTION('',(-0.,-1.,-0.));
#2033 = DIRECTION('',(0.,0.,-1.));
#2034 = ADVANCED_FACE('',(#2035,#2038),#2049,.T.);
#2035 = FACE_BOUND('',#2036,.F.);
#2036 = EDGE_LOOP('',(#2037));
#2037 = ORIENTED_EDGE('',*,*,#1792,.T.);
#2038 = FACE_BOUND('',#2039,.F.);
#2039 = EDGE_LOOP('',(#2040));
#2040 = ORIENTED_EDGE('',*,*,#2041,.F.);
#2041 = EDGE_CURVE('',#2042,#2042,#2044,.T.);
#2042 = VERTEX_POINT('',#2043);
#2043 = CARTESIAN_POINT('',(-5.388445916248E-16,-167.,-62.8));
#2044 = CIRCLE('',#2045,2.2);
#2045 = AXIS2_PLACEMENT_3D('',#2046,#2047,#2048);
#2046 = CARTESIAN_POINT('',(0.,-167.,-65.));
#2047 = DIRECTION('',(0.,1.,0.));
#2048 = DIRECTION('',(-0.,-0.,1.));
#2049 = PLANE('',#2050);
#2050 = AXIS2_PLACEMENT_3D('',#2051,#2052,#2053);
#2051 = CARTESIAN_POINT('',(0.,-167.,-65.));
#2052 = DIRECTION('',(-0.,-1.,-0.));
#2053 = DIRECTION('',(0.,0.,-1.));
#2054 = ADVANCED_FACE('',(#2055),#2066,.F.);
#2055 = FACE_BOUND('',#2056,.T.);
#2056 = EDGE_LOOP('',(#2057,#2058,#2064,#2065));
#2057 = ORIENTED_EDGE('',*,*,#2041,.F.);
#2058 = ORIENTED_EDGE('',*,*,#2059,.F.);
#2059 = EDGE_CURVE('',#1965,#2042,#2060,.T.);
#2060 = LINE('',#2061,#2062);
#2061 = CARTESIAN_POINT('',(-5.388445916248E-16,-138.,-62.8));
#2062 = VECTOR('',#2063,1.);
#2063 = DIRECTION('',(-0.,-1.,-0.));
#2064 = ORIENTED_EDGE('',*,*,#1964,.T.);
#2065 = ORIENTED_EDGE('',*,*,#2059,.T.);
#2066 = CYLINDRICAL_SURFACE('',#2067,2.2);
#2067 = AXIS2_PLACEMENT_3D('',#2068,#2069,#2070);
#2068 = CARTESIAN_POINT('',(0.,-138.,-65.));
#2069 = DIRECTION('',(-0.,-1.,-0.));
#2070 = DIRECTION('',(-0.,-0.,1.));
#2071 = ADVANCED_FACE('',(#2072),#2083,.F.);
#2072 = FACE_BOUND('',#2073,.T.);
#2073 = EDGE_LOOP('',(#2074,#2075,#2081,#2082));
#2074 = ORIENTED_EDGE('',*,*,#2021,.F.);
#2075 = ORIENTED_EDGE('',*,*,#2076,.F.);
#2076 = EDGE_CURVE('',#1990,#2022,#2077,.T.);
#2077 = LINE('',#2078,#2079);
#2078 = CARTESIAN_POINT('',(-5.388445916248E-16,-138.,-84.8));
#2079 = VECTOR('',#2080,1.);
#2080 = DIRECTION('',(-0.,-1.,-0.));
#2081 = ORIENTED_EDGE('',*,*,#1989,.T.);
#2082 = ORIENTED_EDGE('',*,*,#2076,.T.);
#2083 = CYLINDRICAL_SURFACE('',#2084,2.2);
#2084 = AXIS2_PLACEMENT_3D('',#2085,#2086,#2087);
#2085 = CARTESIAN_POINT('',(0.,-138.,-87.));
#2086 = DIRECTION('',(-0.,-1.,-0.));
#2087 = DIRECTION('',(-0.,-0.,1.));
#2088 = ( GEOMETRIC_REPRESENTATION_CONTEXT(3) 
GLOBAL_UNCERTAINTY_ASSIGNED_CONTEXT((#2092)) 
GLOBAL_UNIT_ASSIGNED_CONTEXT((#2089,#2090,#2091)) REPRESENTATION_CONTEXT
('Context #1','3D Context with UNIT and UNCERTAINTY') );
#2089 = ( LENGTH_UNIT() NAMED_UNIT(*) SI_UNIT(.MILLI.,.METRE.) );
#2090 = ( NAMED_UNIT(*) PLANE_ANGLE_UNIT() SI_UNIT($,.RADIAN.) );
#2091 = ( NAMED_UNIT(*) SI_UNIT($,.STERADIAN.) SOLID_ANGLE_UNIT() );
#2092 = UNCERTAINTY_MEASURE_WITH_UNIT(LENGTH_MEASURE(1.E-07),#2089,
  'distance_accuracy_value','confusion accuracy');
#2093 = PRODUCT_RELATED_PRODUCT_CATEGORY('part',$,(#7));
ENDSEC;
END-ISO-10303-21;
