ISO-10303-21;
HEADER;
FILE_DESCRIPTION(('FreeCAD Model'),'2;1');
FILE_NAME('Open CASCADE Shape Model','2026-09-22T18:42:07',('FreeCAD'),(
    'FreeCAD'),'Open CASCADE STEP processor 7.8','FreeCAD','Unknown');
FILE_SCHEMA(('AUTOMOTIVE_DESIGN { 1 0 10303 214 1 1 1 1 }'));
ENDSEC;
DATA;
#1 = APPLICATION_PROTOCOL_DEFINITION('international standard',
  'automotive_design',2000,#2);
#2 = APPLICATION_CONTEXT(
  'core data for automotive mechanical design processes');
#3 = SHAPE_DEFINITION_REPRESENTATION(#4,#10);
#4 = PRODUCT_DEFINITION_SHAPE('','',#5);
#5 = PRODUCT_DEFINITION('design','',#6,#9);
#6 = PRODUCT_DEFINITION_FORMATION('','',#7);
#7 = PRODUCT('Open CASCADE STEP translator 7.8 23',
  'Open CASCADE STEP translator 7.8 23','',(#8));
#8 = PRODUCT_CONTEXT('',#2,'mechanical');
#9 = PRODUCT_DEFINITION_CONTEXT('part definition',#2,'design');
#10 = ADVANCED_BREP_SHAPE_REPRESENTATION('',(#11,#15),#1759);
#11 = AXIS2_PLACEMENT_3D('',#12,#13,#14);
#12 = CARTESIAN_POINT('',(0.,0.,0.));
#13 = DIRECTION('',(0.,0.,1.));
#14 = DIRECTION('',(1.,0.,-0.));
#15 = MANIFOLD_SOLID_BREP('',#16);
#16 = CLOSED_SHELL('',(#17,#57,#374,#414,#524,#557,#581,#628,#652,#683,
    #707,#724,#771,#804,#821,#852,#876,#900,#924,#948,#965,#996,#1020,
    #1044,#1068,#1092,#1109,#1126,#1157,#1181,#1205,#1229,#1253,#1270,
    #1287,#1318,#1342,#1366,#1390,#1414,#1431,#1448,#1471,#1488,#1505,
    #1522,#1545,#1568,#1591,#1616,#1641,#1666,#1691,#1708,#1725,#1742));
#17 = ADVANCED_FACE('',(#18),#52,.T.);
#18 = FACE_BOUND('',#19,.T.);
#19 = EDGE_LOOP('',(#20,#30,#38,#46));
#20 = ORIENTED_EDGE('',*,*,#21,.F.);
#21 = EDGE_CURVE('',#22,#24,#26,.T.);
#22 = VERTEX_POINT('',#23);
#23 = CARTESIAN_POINT('',(92.95,-46.,93.));
#24 = VERTEX_POINT('',#25);
#25 = CARTESIAN_POINT('',(92.95,46.,93.));
#26 = LINE('',#27,#28);
#27 = CARTESIAN_POINT('',(92.95,-54.,93.));
#28 = VECTOR('',#29,1.);
#29 = DIRECTION('',(-0.,1.,0.));
#30 = ORIENTED_EDGE('',*,*,#31,.F.);
#31 = EDGE_CURVE('',#32,#22,#34,.T.);
#32 = VERTEX_POINT('',#33);
#33 = CARTESIAN_POINT('',(95.95,-46.,93.));
#34 = LINE('',#35,#36);
#35 = CARTESIAN_POINT('',(92.95,-46.,93.));
#36 = VECTOR('',#37,1.);
#37 = DIRECTION('',(-1.,-0.,0.));
#38 = ORIENTED_EDGE('',*,*,#39,.T.);
#39 = EDGE_CURVE('',#32,#40,#42,.T.);
#40 = VERTEX_POINT('',#41);
#41 = CARTESIAN_POINT('',(95.95,46.,93.));
#42 = LINE('',#43,#44);
#43 = CARTESIAN_POINT('',(95.95,-54.,93.));
#44 = VECTOR('',#45,1.);
#45 = DIRECTION('',(-0.,1.,0.));
#46 = ORIENTED_EDGE('',*,*,#47,.T.);
#47 = EDGE_CURVE('',#40,#24,#48,.T.);
#48 = LINE('',#49,#50);
#49 = CARTESIAN_POINT('',(92.95,46.,93.));
#50 = VECTOR('',#51,1.);
#51 = DIRECTION('',(-1.,-0.,0.));
#52 = PLANE('',#53);
#53 = AXIS2_PLACEMENT_3D('',#54,#55,#56);
#54 = CARTESIAN_POINT('',(92.95,-54.,93.));
#55 = DIRECTION('',(0.,0.,1.));
#56 = DIRECTION('',(1.,0.,-0.));
#57 = ADVANCED_FACE('',(#58,#147,#197,#247,#258,#308,#319),#369,.T.);
#58 = FACE_BOUND('',#59,.T.);
#59 = EDGE_LOOP('',(#60,#70,#76,#77,#85,#93,#101,#109,#117,#125,#133,
    #141));
#60 = ORIENTED_EDGE('',*,*,#61,.T.);
#61 = EDGE_CURVE('',#62,#64,#66,.T.);
#62 = VERTEX_POINT('',#63);
#63 = CARTESIAN_POINT('',(92.95,-54.,100.5));
#64 = VERTEX_POINT('',#65);
#65 = CARTESIAN_POINT('',(92.95,-46.,100.5));
#66 = LINE('',#67,#68);
#67 = CARTESIAN_POINT('',(92.95,-54.,100.5));
#68 = VECTOR('',#69,1.);
#69 = DIRECTION('',(-0.,1.,0.));
#70 = ORIENTED_EDGE('',*,*,#71,.F.);
#71 = EDGE_CURVE('',#22,#64,#72,.T.);
#72 = LINE('',#73,#74);
#73 = CARTESIAN_POINT('',(92.95,-46.,92.5));
#74 = VECTOR('',#75,1.);
#75 = DIRECTION('',(0.,0.,1.));
#76 = ORIENTED_EDGE('',*,*,#21,.T.);
#77 = ORIENTED_EDGE('',*,*,#78,.T.);
#78 = EDGE_CURVE('',#24,#79,#81,.T.);
#79 = VERTEX_POINT('',#80);
#80 = CARTESIAN_POINT('',(92.95,46.,100.5));
#81 = LINE('',#82,#83);
#82 = CARTESIAN_POINT('',(92.95,46.,92.5));
#83 = VECTOR('',#84,1.);
#84 = DIRECTION('',(0.,0.,1.));
#85 = ORIENTED_EDGE('',*,*,#86,.T.);
#86 = EDGE_CURVE('',#79,#87,#89,.T.);
#87 = VERTEX_POINT('',#88);
#88 = CARTESIAN_POINT('',(92.95,54.,100.5));
#89 = LINE('',#90,#91);
#90 = CARTESIAN_POINT('',(92.95,46.,100.5));
#91 = VECTOR('',#92,1.);
#92 = DIRECTION('',(-0.,1.,0.));
#93 = ORIENTED_EDGE('',*,*,#94,.F.);
#94 = EDGE_CURVE('',#95,#87,#97,.T.);
#95 = VERTEX_POINT('',#96);
#96 = CARTESIAN_POINT('',(92.95,54.,76.5));
#97 = LINE('',#98,#99);
#98 = CARTESIAN_POINT('',(92.95,54.,92.5));
#99 = VECTOR('',#100,1.);
#100 = DIRECTION('',(0.,0.,1.));
#101 = ORIENTED_EDGE('',*,*,#102,.F.);
#102 = EDGE_CURVE('',#103,#95,#105,.T.);
#103 = VERTEX_POINT('',#104);
#104 = CARTESIAN_POINT('',(92.95,46.,76.5));
#105 = LINE('',#106,#107);
#106 = CARTESIAN_POINT('',(92.95,46.,76.5));
#107 = VECTOR('',#108,1.);
#108 = DIRECTION('',(-0.,1.,0.));
#109 = ORIENTED_EDGE('',*,*,#110,.T.);
#110 = EDGE_CURVE('',#103,#111,#113,.T.);
#111 = VERTEX_POINT('',#112);
#112 = CARTESIAN_POINT('',(92.95,46.,83.));
#113 = LINE('',#114,#115);
#114 = CARTESIAN_POINT('',(92.95,46.,76.5));
#115 = VECTOR('',#116,1.);
#116 = DIRECTION('',(0.,0.,1.));
#117 = ORIENTED_EDGE('',*,*,#118,.F.);
#118 = EDGE_CURVE('',#119,#111,#121,.T.);
#119 = VERTEX_POINT('',#120);
#120 = CARTESIAN_POINT('',(92.95,-46.,83.));
#121 = LINE('',#122,#123);
#122 = CARTESIAN_POINT('',(92.95,-54.,83.));
#123 = VECTOR('',#124,1.);
#124 = DIRECTION('',(-0.,1.,0.));
#125 = ORIENTED_EDGE('',*,*,#126,.F.);
#126 = EDGE_CURVE('',#127,#119,#129,.T.);
#127 = VERTEX_POINT('',#128);
#128 = CARTESIAN_POINT('',(92.95,-46.,76.5));
#129 = LINE('',#130,#131);
#130 = CARTESIAN_POINT('',(92.95,-46.,76.5));
#131 = VECTOR('',#132,1.);
#132 = DIRECTION('',(0.,0.,1.));
#133 = ORIENTED_EDGE('',*,*,#134,.F.);
#134 = EDGE_CURVE('',#135,#127,#137,.T.);
#135 = VERTEX_POINT('',#136);
#136 = CARTESIAN_POINT('',(92.95,-54.,76.5));
#137 = LINE('',#138,#139);
#138 = CARTESIAN_POINT('',(92.95,-54.,76.5));
#139 = VECTOR('',#140,1.);
#140 = DIRECTION('',(-0.,1.,0.));
#141 = ORIENTED_EDGE('',*,*,#142,.T.);
#142 = EDGE_CURVE('',#135,#62,#143,.T.);
#143 = LINE('',#144,#145);
#144 = CARTESIAN_POINT('',(92.95,-54.,76.5));
#145 = VECTOR('',#146,1.);
#146 = DIRECTION('',(0.,0.,1.));
#147 = FACE_BOUND('',#148,.T.);
#148 = EDGE_LOOP('',(#149,#159,#167,#175,#183,#191));
#149 = ORIENTED_EDGE('',*,*,#150,.T.);
#150 = EDGE_CURVE('',#151,#153,#155,.T.);
#151 = VERTEX_POINT('',#152);
#152 = CARTESIAN_POINT('',(92.95,52.9,94.82568421935));
#153 = VERTEX_POINT('',#154);
#154 = CARTESIAN_POINT('',(92.95,52.9,98.17431578065));
#155 = LINE('',#156,#157);
#156 = CARTESIAN_POINT('',(92.95,52.9,91.522431150771));
#157 = VECTOR('',#158,1.);
#158 = DIRECTION('',(-0.,0.,1.));
#159 = ORIENTED_EDGE('',*,*,#160,.T.);
#160 = EDGE_CURVE('',#153,#161,#163,.T.);
#161 = VERTEX_POINT('',#162);
#162 = CARTESIAN_POINT('',(92.95,50.,99.8486315613));
#163 = LINE('',#164,#165);
#164 = CARTESIAN_POINT('',(92.95,35.217850536259,108.38310953339));
#165 = VECTOR('',#166,1.);
#166 = DIRECTION('',(0.,-0.866025403784,0.5));
#167 = ORIENTED_EDGE('',*,*,#168,.T.);
#168 = EDGE_CURVE('',#161,#169,#171,.T.);
#169 = VERTEX_POINT('',#170);
#170 = CARTESIAN_POINT('',(92.95,47.1,98.17431578065));
#171 = LINE('',#172,#173);
#172 = CARTESIAN_POINT('',(92.95,28.732149463741,87.569632329106));
#173 = VECTOR('',#174,1.);
#174 = DIRECTION('',(0.,-0.866025403784,-0.5));
#175 = ORIENTED_EDGE('',*,*,#176,.T.);
#176 = EDGE_CURVE('',#169,#177,#179,.T.);
#177 = VERTEX_POINT('',#178);
#178 = CARTESIAN_POINT('',(92.95,47.1,94.82568421935));
#179 = LINE('',#180,#181);
#180 = CARTESIAN_POINT('',(92.95,47.1,93.196746931421));
#181 = VECTOR('',#182,1.);
#182 = DIRECTION('',(0.,0.,-1.));
#183 = ORIENTED_EDGE('',*,*,#184,.T.);
#184 = EDGE_CURVE('',#177,#185,#187,.T.);
#185 = VERTEX_POINT('',#186);
#186 = CARTESIAN_POINT('',(92.95,50.,93.1513684387));
#187 = LINE('',#188,#189);
#188 = CARTESIAN_POINT('',(92.95,30.867850536259,104.19732008176));
#189 = VECTOR('',#190,1.);
#190 = DIRECTION('',(0.,0.866025403784,-0.5));
#191 = ORIENTED_EDGE('',*,*,#192,.T.);
#192 = EDGE_CURVE('',#185,#151,#193,.T.);
#193 = LINE('',#194,#195);
#194 = CARTESIAN_POINT('',(92.95,30.182149463741,81.709527096831));
#195 = VECTOR('',#196,1.);
#196 = DIRECTION('',(-0.,0.866025403784,0.5));
#197 = FACE_BOUND('',#198,.T.);
#198 = EDGE_LOOP('',(#199,#209,#217,#225,#233,#241));
#199 = ORIENTED_EDGE('',*,*,#200,.T.);
#200 = EDGE_CURVE('',#201,#203,#205,.T.);
#201 = VERTEX_POINT('',#202);
#202 = CARTESIAN_POINT('',(92.95,52.9,78.82568421935));
#203 = VERTEX_POINT('',#204);
#204 = CARTESIAN_POINT('',(92.95,52.9,82.17431578065));
#205 = LINE('',#206,#207);
#206 = CARTESIAN_POINT('',(92.95,52.9,83.522431150771));
#207 = VECTOR('',#208,1.);
#208 = DIRECTION('',(-0.,0.,1.));
#209 = ORIENTED_EDGE('',*,*,#210,.T.);
#210 = EDGE_CURVE('',#203,#211,#213,.T.);
#211 = VERTEX_POINT('',#212);
#212 = CARTESIAN_POINT('',(92.95,50.,83.8486315613));
#213 = LINE('',#214,#215);
#214 = CARTESIAN_POINT('',(92.95,31.753748921121,94.383109533392));
#215 = VECTOR('',#216,1.);
#216 = DIRECTION('',(0.,-0.866025403784,0.5));
#217 = ORIENTED_EDGE('',*,*,#218,.T.);
#218 = EDGE_CURVE('',#211,#219,#221,.T.);
#219 = VERTEX_POINT('',#220);
#220 = CARTESIAN_POINT('',(92.95,47.1,82.17431578065));
#221 = LINE('',#222,#223);
#222 = CARTESIAN_POINT('',(92.95,32.196251078879,73.569632329106));
#223 = VECTOR('',#224,1.);
#224 = DIRECTION('',(0.,-0.866025403784,-0.5));
#225 = ORIENTED_EDGE('',*,*,#226,.T.);
#226 = EDGE_CURVE('',#219,#227,#229,.T.);
#227 = VERTEX_POINT('',#228);
#228 = CARTESIAN_POINT('',(92.95,47.1,78.82568421935));
#229 = LINE('',#230,#231);
#230 = CARTESIAN_POINT('',(92.95,47.1,85.196746931421));
#231 = VECTOR('',#232,1.);
#232 = DIRECTION('',(0.,0.,-1.));
#233 = ORIENTED_EDGE('',*,*,#234,.T.);
#234 = EDGE_CURVE('',#227,#235,#237,.T.);
#235 = VERTEX_POINT('',#236);
#236 = CARTESIAN_POINT('',(92.95,50.,77.1513684387));
#237 = LINE('',#238,#239);
#238 = CARTESIAN_POINT('',(92.95,27.403748921121,90.197320081767));
#239 = VECTOR('',#240,1.);
#240 = DIRECTION('',(0.,0.866025403784,-0.5));
#241 = ORIENTED_EDGE('',*,*,#242,.T.);
#242 = EDGE_CURVE('',#235,#201,#243,.T.);
#243 = LINE('',#244,#245);
#244 = CARTESIAN_POINT('',(92.95,33.646251078879,67.709527096831));
#245 = VECTOR('',#246,1.);
#246 = DIRECTION('',(-0.,0.866025403784,0.5));
#247 = FACE_BOUND('',#248,.T.);
#248 = EDGE_LOOP('',(#249));
#249 = ORIENTED_EDGE('',*,*,#250,.T.);
#250 = EDGE_CURVE('',#251,#251,#253,.T.);
#251 = VERTEX_POINT('',#252);
#252 = CARTESIAN_POINT('',(92.95,22.5,89.7));
#253 = CIRCLE('',#254,1.7);
#254 = AXIS2_PLACEMENT_3D('',#255,#256,#257);
#255 = CARTESIAN_POINT('',(92.95,22.5,88.));
#256 = DIRECTION('',(1.,0.,0.));
#257 = DIRECTION('',(-0.,0.,1.));
#258 = FACE_BOUND('',#259,.T.);
#259 = EDGE_LOOP('',(#260,#270,#278,#286,#294,#302));
#260 = ORIENTED_EDGE('',*,*,#261,.T.);
#261 = EDGE_CURVE('',#262,#264,#266,.T.);
#262 = VERTEX_POINT('',#263);
#263 = CARTESIAN_POINT('',(92.95,-47.1,94.82568421935));
#264 = VERTEX_POINT('',#265);
#265 = CARTESIAN_POINT('',(92.95,-47.1,98.17431578065));
#266 = LINE('',#267,#268);
#267 = CARTESIAN_POINT('',(92.95,-47.1,91.522431150771));
#268 = VECTOR('',#269,1.);
#269 = DIRECTION('',(-0.,0.,1.));
#270 = ORIENTED_EDGE('',*,*,#271,.T.);
#271 = EDGE_CURVE('',#264,#272,#274,.T.);
#272 = VERTEX_POINT('',#273);
#273 = CARTESIAN_POINT('',(92.95,-50.,99.8486315613));
#274 = LINE('',#275,#276);
#275 = CARTESIAN_POINT('',(92.95,-27.28214946374,86.732474438781));
#276 = VECTOR('',#277,1.);
#277 = DIRECTION('',(0.,-0.866025403784,0.5));
#278 = ORIENTED_EDGE('',*,*,#279,.T.);
#279 = EDGE_CURVE('',#272,#280,#282,.T.);
#280 = VERTEX_POINT('',#281);
#281 = CARTESIAN_POINT('',(92.95,-52.9,98.17431578065));
#282 = LINE('',#283,#284);
#283 = CARTESIAN_POINT('',(92.95,-33.76785053625,109.22026742371));
#284 = VECTOR('',#285,1.);
#285 = DIRECTION('',(0.,-0.866025403784,-0.5));
#286 = ORIENTED_EDGE('',*,*,#287,.T.);
#287 = EDGE_CURVE('',#280,#288,#290,.T.);
#288 = VERTEX_POINT('',#289);
#289 = CARTESIAN_POINT('',(92.95,-52.9,94.82568421935));
#290 = LINE('',#291,#292);
#291 = CARTESIAN_POINT('',(92.95,-52.9,93.196746931421));
#292 = VECTOR('',#293,1.);
#293 = DIRECTION('',(0.,0.,-1.));
#294 = ORIENTED_EDGE('',*,*,#295,.T.);
#295 = EDGE_CURVE('',#288,#296,#298,.T.);
#296 = VERTEX_POINT('',#297);
#297 = CARTESIAN_POINT('',(92.95,-50.,93.1513684387));
#298 = LINE('',#299,#300);
#299 = CARTESIAN_POINT('',(92.95,-31.63214946374,82.546684987156));
#300 = VECTOR('',#301,1.);
#301 = DIRECTION('',(0.,0.866025403784,-0.5));
#302 = ORIENTED_EDGE('',*,*,#303,.T.);
#303 = EDGE_CURVE('',#296,#262,#304,.T.);
#304 = LINE('',#305,#306);
#305 = CARTESIAN_POINT('',(92.95,-32.31785053625,103.36016219144));
#306 = VECTOR('',#307,1.);
#307 = DIRECTION('',(-0.,0.866025403784,0.5));
#308 = FACE_BOUND('',#309,.T.);
#309 = EDGE_LOOP('',(#310));
#310 = ORIENTED_EDGE('',*,*,#311,.T.);
#311 = EDGE_CURVE('',#312,#312,#314,.T.);
#312 = VERTEX_POINT('',#313);
#313 = CARTESIAN_POINT('',(92.95,-22.5,89.7));
#314 = CIRCLE('',#315,1.7);
#315 = AXIS2_PLACEMENT_3D('',#316,#317,#318);
#316 = CARTESIAN_POINT('',(92.95,-22.5,88.));
#317 = DIRECTION('',(1.,0.,0.));
#318 = DIRECTION('',(-0.,0.,1.));
#319 = FACE_BOUND('',#320,.T.);
#320 = EDGE_LOOP('',(#321,#331,#339,#347,#355,#363));
#321 = ORIENTED_EDGE('',*,*,#322,.T.);
#322 = EDGE_CURVE('',#323,#325,#327,.T.);
#323 = VERTEX_POINT('',#324);
#324 = CARTESIAN_POINT('',(92.95,-47.1,78.82568421935));
#325 = VERTEX_POINT('',#326);
#326 = CARTESIAN_POINT('',(92.95,-47.1,82.17431578065));
#327 = LINE('',#328,#329);
#328 = CARTESIAN_POINT('',(92.95,-47.1,83.522431150771));
#329 = VECTOR('',#330,1.);
#330 = DIRECTION('',(-0.,0.,1.));
#331 = ORIENTED_EDGE('',*,*,#332,.T.);
#332 = EDGE_CURVE('',#325,#333,#335,.T.);
#333 = VERTEX_POINT('',#334);
#334 = CARTESIAN_POINT('',(92.95,-50.,83.8486315613));
#335 = LINE('',#336,#337);
#336 = CARTESIAN_POINT('',(92.95,-30.74625107887,72.732474438781));
#337 = VECTOR('',#338,1.);
#338 = DIRECTION('',(0.,-0.866025403784,0.5));
#339 = ORIENTED_EDGE('',*,*,#340,.T.);
#340 = EDGE_CURVE('',#333,#341,#343,.T.);
#341 = VERTEX_POINT('',#342);
#342 = CARTESIAN_POINT('',(92.95,-52.9,82.17431578065));
#343 = LINE('',#344,#345);
#344 = CARTESIAN_POINT('',(92.95,-30.30374892112,95.220267423717));
#345 = VECTOR('',#346,1.);
#346 = DIRECTION('',(0.,-0.866025403784,-0.5));
#347 = ORIENTED_EDGE('',*,*,#348,.T.);
#348 = EDGE_CURVE('',#341,#349,#351,.T.);
#349 = VERTEX_POINT('',#350);
#350 = CARTESIAN_POINT('',(92.95,-52.9,78.82568421935));
#351 = LINE('',#352,#353);
#352 = CARTESIAN_POINT('',(92.95,-52.9,85.196746931421));
#353 = VECTOR('',#354,1.);
#354 = DIRECTION('',(0.,0.,-1.));
#355 = ORIENTED_EDGE('',*,*,#356,.T.);
#356 = EDGE_CURVE('',#349,#357,#359,.T.);
#357 = VERTEX_POINT('',#358);
#358 = CARTESIAN_POINT('',(92.95,-50.,77.1513684387));
#359 = LINE('',#360,#361);
#360 = CARTESIAN_POINT('',(92.95,-35.09625107887,68.546684987156));
#361 = VECTOR('',#362,1.);
#362 = DIRECTION('',(0.,0.866025403784,-0.5));
#363 = ORIENTED_EDGE('',*,*,#364,.T.);
#364 = EDGE_CURVE('',#357,#323,#365,.T.);
#365 = LINE('',#366,#367);
#366 = CARTESIAN_POINT('',(92.95,-28.85374892112,89.360162191442));
#367 = VECTOR('',#368,1.);
#368 = DIRECTION('',(-0.,0.866025403784,0.5));
#369 = PLANE('',#370);
#370 = AXIS2_PLACEMENT_3D('',#371,#372,#373);
#371 = CARTESIAN_POINT('',(92.95,0.,88.219178082192));
#372 = DIRECTION('',(-1.,-0.,-0.));
#373 = DIRECTION('',(0.,0.,-1.));
#374 = ADVANCED_FACE('',(#375),#409,.F.);
#375 = FACE_BOUND('',#376,.F.);
#376 = EDGE_LOOP('',(#377,#387,#393,#394,#395,#403));
#377 = ORIENTED_EDGE('',*,*,#378,.F.);
#378 = EDGE_CURVE('',#379,#381,#383,.T.);
#379 = VERTEX_POINT('',#380);
#380 = CARTESIAN_POINT('',(95.95,46.,92.5));
#381 = VERTEX_POINT('',#382);
#382 = CARTESIAN_POINT('',(119.,46.,92.5));
#383 = LINE('',#384,#385);
#384 = CARTESIAN_POINT('',(92.95,46.,92.5));
#385 = VECTOR('',#386,1.);
#386 = DIRECTION('',(1.,0.,-0.));
#387 = ORIENTED_EDGE('',*,*,#388,.T.);
#388 = EDGE_CURVE('',#379,#40,#389,.T.);
#389 = LINE('',#390,#391);
#390 = CARTESIAN_POINT('',(95.95,46.,87.75));
#391 = VECTOR('',#392,1.);
#392 = DIRECTION('',(0.,0.,1.));
#393 = ORIENTED_EDGE('',*,*,#47,.T.);
#394 = ORIENTED_EDGE('',*,*,#78,.T.);
#395 = ORIENTED_EDGE('',*,*,#396,.T.);
#396 = EDGE_CURVE('',#79,#397,#399,.T.);
#397 = VERTEX_POINT('',#398);
#398 = CARTESIAN_POINT('',(119.,46.,100.5));
#399 = LINE('',#400,#401);
#400 = CARTESIAN_POINT('',(92.95,46.,100.5));
#401 = VECTOR('',#402,1.);
#402 = DIRECTION('',(1.,0.,-0.));
#403 = ORIENTED_EDGE('',*,*,#404,.F.);
#404 = EDGE_CURVE('',#381,#397,#405,.T.);
#405 = LINE('',#406,#407);
#406 = CARTESIAN_POINT('',(119.,46.,92.5));
#407 = VECTOR('',#408,1.);
#408 = DIRECTION('',(0.,0.,1.));
#409 = PLANE('',#410);
#410 = AXIS2_PLACEMENT_3D('',#411,#412,#413);
#411 = CARTESIAN_POINT('',(92.95,46.,92.5));
#412 = DIRECTION('',(-0.,1.,0.));
#413 = DIRECTION('',(0.,0.,1.));
#414 = ADVANCED_FACE('',(#415,#497,#508),#519,.T.);
#415 = FACE_BOUND('',#416,.T.);
#416 = EDGE_LOOP('',(#417,#427,#435,#443,#451,#459,#467,#475,#481,#482,
    #483,#491));
#417 = ORIENTED_EDGE('',*,*,#418,.F.);
#418 = EDGE_CURVE('',#419,#421,#423,.T.);
#419 = VERTEX_POINT('',#420);
#420 = CARTESIAN_POINT('',(95.95,-54.,84.5));
#421 = VERTEX_POINT('',#422);
#422 = CARTESIAN_POINT('',(95.95,-54.,92.5));
#423 = LINE('',#424,#425);
#424 = CARTESIAN_POINT('',(95.95,-54.,83.));
#425 = VECTOR('',#426,1.);
#426 = DIRECTION('',(0.,0.,1.));
#427 = ORIENTED_EDGE('',*,*,#428,.F.);
#428 = EDGE_CURVE('',#429,#419,#431,.T.);
#429 = VERTEX_POINT('',#430);
#430 = CARTESIAN_POINT('',(95.95,-46.,84.5));
#431 = LINE('',#432,#433);
#432 = CARTESIAN_POINT('',(95.95,-54.,84.5));
#433 = VECTOR('',#434,1.);
#434 = DIRECTION('',(0.,-1.,0.));
#435 = ORIENTED_EDGE('',*,*,#436,.F.);
#436 = EDGE_CURVE('',#437,#429,#439,.T.);
#437 = VERTEX_POINT('',#438);
#438 = CARTESIAN_POINT('',(95.95,-46.,83.));
#439 = LINE('',#440,#441);
#440 = CARTESIAN_POINT('',(95.95,-46.,79.75));
#441 = VECTOR('',#442,1.);
#442 = DIRECTION('',(0.,0.,1.));
#443 = ORIENTED_EDGE('',*,*,#444,.T.);
#444 = EDGE_CURVE('',#437,#445,#447,.T.);
#445 = VERTEX_POINT('',#446);
#446 = CARTESIAN_POINT('',(95.95,46.,83.));
#447 = LINE('',#448,#449);
#448 = CARTESIAN_POINT('',(95.95,-54.,83.));
#449 = VECTOR('',#450,1.);
#450 = DIRECTION('',(-0.,1.,0.));
#451 = ORIENTED_EDGE('',*,*,#452,.T.);
#452 = EDGE_CURVE('',#445,#453,#455,.T.);
#453 = VERTEX_POINT('',#454);
#454 = CARTESIAN_POINT('',(95.95,46.,84.5));
#455 = LINE('',#456,#457);
#456 = CARTESIAN_POINT('',(95.95,46.,79.75));
#457 = VECTOR('',#458,1.);
#458 = DIRECTION('',(0.,0.,1.));
#459 = ORIENTED_EDGE('',*,*,#460,.F.);
#460 = EDGE_CURVE('',#461,#453,#463,.T.);
#461 = VERTEX_POINT('',#462);
#462 = CARTESIAN_POINT('',(95.95,54.,84.5));
#463 = LINE('',#464,#465);
#464 = CARTESIAN_POINT('',(95.95,-4.,84.5));
#465 = VECTOR('',#466,1.);
#466 = DIRECTION('',(0.,-1.,0.));
#467 = ORIENTED_EDGE('',*,*,#468,.T.);
#468 = EDGE_CURVE('',#461,#469,#471,.T.);
#469 = VERTEX_POINT('',#470);
#470 = CARTESIAN_POINT('',(95.95,54.,92.5));
#471 = LINE('',#472,#473);
#472 = CARTESIAN_POINT('',(95.95,54.,83.));
#473 = VECTOR('',#474,1.);
#474 = DIRECTION('',(0.,0.,1.));
#475 = ORIENTED_EDGE('',*,*,#476,.T.);
#476 = EDGE_CURVE('',#469,#379,#477,.T.);
#477 = LINE('',#478,#479);
#478 = CARTESIAN_POINT('',(95.95,-4.,92.5));
#479 = VECTOR('',#480,1.);
#480 = DIRECTION('',(0.,-1.,0.));
#481 = ORIENTED_EDGE('',*,*,#388,.T.);
#482 = ORIENTED_EDGE('',*,*,#39,.F.);
#483 = ORIENTED_EDGE('',*,*,#484,.F.);
#484 = EDGE_CURVE('',#485,#32,#487,.T.);
#485 = VERTEX_POINT('',#486);
#486 = CARTESIAN_POINT('',(95.95,-46.,92.5));
#487 = LINE('',#488,#489);
#488 = CARTESIAN_POINT('',(95.95,-46.,87.75));
#489 = VECTOR('',#490,1.);
#490 = DIRECTION('',(0.,0.,1.));
#491 = ORIENTED_EDGE('',*,*,#492,.T.);
#492 = EDGE_CURVE('',#485,#421,#493,.T.);
#493 = LINE('',#494,#495);
#494 = CARTESIAN_POINT('',(95.95,-54.,92.5));
#495 = VECTOR('',#496,1.);
#496 = DIRECTION('',(0.,-1.,0.));
#497 = FACE_BOUND('',#498,.T.);
#498 = EDGE_LOOP('',(#499));
#499 = ORIENTED_EDGE('',*,*,#500,.F.);
#500 = EDGE_CURVE('',#501,#501,#503,.T.);
#501 = VERTEX_POINT('',#502);
#502 = CARTESIAN_POINT('',(95.95,22.5,89.7));
#503 = CIRCLE('',#504,1.7);
#504 = AXIS2_PLACEMENT_3D('',#505,#506,#507);
#505 = CARTESIAN_POINT('',(95.95,22.5,88.));
#506 = DIRECTION('',(1.,0.,0.));
#507 = DIRECTION('',(-0.,0.,1.));
#508 = FACE_BOUND('',#509,.T.);
#509 = EDGE_LOOP('',(#510));
#510 = ORIENTED_EDGE('',*,*,#511,.F.);
#511 = EDGE_CURVE('',#512,#512,#514,.T.);
#512 = VERTEX_POINT('',#513);
#513 = CARTESIAN_POINT('',(95.95,-22.5,89.7));
#514 = CIRCLE('',#515,1.7);
#515 = AXIS2_PLACEMENT_3D('',#516,#517,#518);
#516 = CARTESIAN_POINT('',(95.95,-22.5,88.));
#517 = DIRECTION('',(1.,0.,0.));
#518 = DIRECTION('',(-0.,0.,1.));
#519 = PLANE('',#520);
#520 = AXIS2_PLACEMENT_3D('',#521,#522,#523);
#521 = CARTESIAN_POINT('',(95.95,-54.,83.));
#522 = DIRECTION('',(1.,0.,-0.));
#523 = DIRECTION('',(0.,0.,1.));
#524 = ADVANCED_FACE('',(#525),#552,.T.);
#525 = FACE_BOUND('',#526,.T.);
#526 = EDGE_LOOP('',(#527,#535,#536,#537,#538,#546));
#527 = ORIENTED_EDGE('',*,*,#528,.F.);
#528 = EDGE_CURVE('',#485,#529,#531,.T.);
#529 = VERTEX_POINT('',#530);
#530 = CARTESIAN_POINT('',(119.,-46.,92.5));
#531 = LINE('',#532,#533);
#532 = CARTESIAN_POINT('',(92.95,-46.,92.5));
#533 = VECTOR('',#534,1.);
#534 = DIRECTION('',(1.,0.,-0.));
#535 = ORIENTED_EDGE('',*,*,#484,.T.);
#536 = ORIENTED_EDGE('',*,*,#31,.T.);
#537 = ORIENTED_EDGE('',*,*,#71,.T.);
#538 = ORIENTED_EDGE('',*,*,#539,.T.);
#539 = EDGE_CURVE('',#64,#540,#542,.T.);
#540 = VERTEX_POINT('',#541);
#541 = CARTESIAN_POINT('',(119.,-46.,100.5));
#542 = LINE('',#543,#544);
#543 = CARTESIAN_POINT('',(92.95,-46.,100.5));
#544 = VECTOR('',#545,1.);
#545 = DIRECTION('',(1.,0.,-0.));
#546 = ORIENTED_EDGE('',*,*,#547,.F.);
#547 = EDGE_CURVE('',#529,#540,#548,.T.);
#548 = LINE('',#549,#550);
#549 = CARTESIAN_POINT('',(119.,-46.,92.5));
#550 = VECTOR('',#551,1.);
#551 = DIRECTION('',(0.,0.,1.));
#552 = PLANE('',#553);
#553 = AXIS2_PLACEMENT_3D('',#554,#555,#556);
#554 = CARTESIAN_POINT('',(92.95,-46.,92.5));
#555 = DIRECTION('',(-0.,1.,0.));
#556 = DIRECTION('',(0.,0.,1.));
#557 = ADVANCED_FACE('',(#558),#576,.T.);
#558 = FACE_BOUND('',#559,.T.);
#559 = EDGE_LOOP('',(#560,#561,#569,#575));
#560 = ORIENTED_EDGE('',*,*,#61,.F.);
#561 = ORIENTED_EDGE('',*,*,#562,.T.);
#562 = EDGE_CURVE('',#62,#563,#565,.T.);
#563 = VERTEX_POINT('',#564);
#564 = CARTESIAN_POINT('',(119.,-54.,100.5));
#565 = LINE('',#566,#567);
#566 = CARTESIAN_POINT('',(92.95,-54.,100.5));
#567 = VECTOR('',#568,1.);
#568 = DIRECTION('',(1.,0.,-0.));
#569 = ORIENTED_EDGE('',*,*,#570,.T.);
#570 = EDGE_CURVE('',#563,#540,#571,.T.);
#571 = LINE('',#572,#573);
#572 = CARTESIAN_POINT('',(119.,-54.,100.5));
#573 = VECTOR('',#574,1.);
#574 = DIRECTION('',(-0.,1.,0.));
#575 = ORIENTED_EDGE('',*,*,#539,.F.);
#576 = PLANE('',#577);
#577 = AXIS2_PLACEMENT_3D('',#578,#579,#580);
#578 = CARTESIAN_POINT('',(92.95,-54.,100.5));
#579 = DIRECTION('',(0.,0.,1.));
#580 = DIRECTION('',(1.,0.,-0.));
#581 = ADVANCED_FACE('',(#582),#623,.T.);
#582 = FACE_BOUND('',#583,.T.);
#583 = EDGE_LOOP('',(#584,#585,#593,#601,#607,#608,#616,#622));
#584 = ORIENTED_EDGE('',*,*,#142,.F.);
#585 = ORIENTED_EDGE('',*,*,#586,.T.);
#586 = EDGE_CURVE('',#135,#587,#589,.T.);
#587 = VERTEX_POINT('',#588);
#588 = CARTESIAN_POINT('',(119.,-54.,76.5));
#589 = LINE('',#590,#591);
#590 = CARTESIAN_POINT('',(92.95,-54.,76.5));
#591 = VECTOR('',#592,1.);
#592 = DIRECTION('',(1.,0.,-0.));
#593 = ORIENTED_EDGE('',*,*,#594,.T.);
#594 = EDGE_CURVE('',#587,#595,#597,.T.);
#595 = VERTEX_POINT('',#596);
#596 = CARTESIAN_POINT('',(119.,-54.,84.5));
#597 = LINE('',#598,#599);
#598 = CARTESIAN_POINT('',(119.,-54.,76.5));
#599 = VECTOR('',#600,1.);
#600 = DIRECTION('',(0.,0.,1.));
#601 = ORIENTED_EDGE('',*,*,#602,.F.);
#602 = EDGE_CURVE('',#419,#595,#603,.T.);
#603 = LINE('',#604,#605);
#604 = CARTESIAN_POINT('',(92.95,-54.,84.5));
#605 = VECTOR('',#606,1.);
#606 = DIRECTION('',(1.,0.,-0.));
#607 = ORIENTED_EDGE('',*,*,#418,.T.);
#608 = ORIENTED_EDGE('',*,*,#609,.T.);
#609 = EDGE_CURVE('',#421,#610,#612,.T.);
#610 = VERTEX_POINT('',#611);
#611 = CARTESIAN_POINT('',(119.,-54.,92.5));
#612 = LINE('',#613,#614);
#613 = CARTESIAN_POINT('',(92.95,-54.,92.5));
#614 = VECTOR('',#615,1.);
#615 = DIRECTION('',(1.,0.,-0.));
#616 = ORIENTED_EDGE('',*,*,#617,.T.);
#617 = EDGE_CURVE('',#610,#563,#618,.T.);
#618 = LINE('',#619,#620);
#619 = CARTESIAN_POINT('',(119.,-54.,92.5));
#620 = VECTOR('',#621,1.);
#621 = DIRECTION('',(0.,0.,1.));
#622 = ORIENTED_EDGE('',*,*,#562,.F.);
#623 = PLANE('',#624);
#624 = AXIS2_PLACEMENT_3D('',#625,#626,#627);
#625 = CARTESIAN_POINT('',(105.18669630643,-54.,88.5));
#626 = DIRECTION('',(-0.,-1.,-0.));
#627 = DIRECTION('',(0.,0.,-1.));
#628 = ADVANCED_FACE('',(#629),#647,.F.);
#629 = FACE_BOUND('',#630,.F.);
#630 = EDGE_LOOP('',(#631,#632,#633,#641));
#631 = ORIENTED_EDGE('',*,*,#134,.F.);
#632 = ORIENTED_EDGE('',*,*,#586,.T.);
#633 = ORIENTED_EDGE('',*,*,#634,.T.);
#634 = EDGE_CURVE('',#587,#635,#637,.T.);
#635 = VERTEX_POINT('',#636);
#636 = CARTESIAN_POINT('',(119.,-46.,76.5));
#637 = LINE('',#638,#639);
#638 = CARTESIAN_POINT('',(119.,-54.,76.5));
#639 = VECTOR('',#640,1.);
#640 = DIRECTION('',(-0.,1.,0.));
#641 = ORIENTED_EDGE('',*,*,#642,.F.);
#642 = EDGE_CURVE('',#127,#635,#643,.T.);
#643 = LINE('',#644,#645);
#644 = CARTESIAN_POINT('',(92.95,-46.,76.5));
#645 = VECTOR('',#646,1.);
#646 = DIRECTION('',(1.,0.,-0.));
#647 = PLANE('',#648);
#648 = AXIS2_PLACEMENT_3D('',#649,#650,#651);
#649 = CARTESIAN_POINT('',(92.95,-54.,76.5));
#650 = DIRECTION('',(0.,0.,1.));
#651 = DIRECTION('',(1.,0.,-0.));
#652 = ADVANCED_FACE('',(#653),#678,.T.);
#653 = FACE_BOUND('',#654,.T.);
#654 = EDGE_LOOP('',(#655,#663,#664,#665,#671,#672));
#655 = ORIENTED_EDGE('',*,*,#656,.F.);
#656 = EDGE_CURVE('',#635,#657,#659,.T.);
#657 = VERTEX_POINT('',#658);
#658 = CARTESIAN_POINT('',(119.,-46.,84.5));
#659 = LINE('',#660,#661);
#660 = CARTESIAN_POINT('',(119.,-46.,76.5));
#661 = VECTOR('',#662,1.);
#662 = DIRECTION('',(0.,0.,1.));
#663 = ORIENTED_EDGE('',*,*,#642,.F.);
#664 = ORIENTED_EDGE('',*,*,#126,.T.);
#665 = ORIENTED_EDGE('',*,*,#666,.F.);
#666 = EDGE_CURVE('',#437,#119,#667,.T.);
#667 = LINE('',#668,#669);
#668 = CARTESIAN_POINT('',(92.95,-46.,83.));
#669 = VECTOR('',#670,1.);
#670 = DIRECTION('',(-1.,-0.,0.));
#671 = ORIENTED_EDGE('',*,*,#436,.T.);
#672 = ORIENTED_EDGE('',*,*,#673,.T.);
#673 = EDGE_CURVE('',#429,#657,#674,.T.);
#674 = LINE('',#675,#676);
#675 = CARTESIAN_POINT('',(92.95,-46.,84.5));
#676 = VECTOR('',#677,1.);
#677 = DIRECTION('',(1.,0.,-0.));
#678 = PLANE('',#679);
#679 = AXIS2_PLACEMENT_3D('',#680,#681,#682);
#680 = CARTESIAN_POINT('',(92.95,-46.,76.5));
#681 = DIRECTION('',(-0.,1.,0.));
#682 = DIRECTION('',(0.,0.,1.));
#683 = ADVANCED_FACE('',(#684),#702,.T.);
#684 = FACE_BOUND('',#685,.T.);
#685 = EDGE_LOOP('',(#686,#687,#688,#696));
#686 = ORIENTED_EDGE('',*,*,#86,.F.);
#687 = ORIENTED_EDGE('',*,*,#396,.T.);
#688 = ORIENTED_EDGE('',*,*,#689,.T.);
#689 = EDGE_CURVE('',#397,#690,#692,.T.);
#690 = VERTEX_POINT('',#691);
#691 = CARTESIAN_POINT('',(119.,54.,100.5));
#692 = LINE('',#693,#694);
#693 = CARTESIAN_POINT('',(119.,46.,100.5));
#694 = VECTOR('',#695,1.);
#695 = DIRECTION('',(-0.,1.,0.));
#696 = ORIENTED_EDGE('',*,*,#697,.F.);
#697 = EDGE_CURVE('',#87,#690,#698,.T.);
#698 = LINE('',#699,#700);
#699 = CARTESIAN_POINT('',(92.95,54.,100.5));
#700 = VECTOR('',#701,1.);
#701 = DIRECTION('',(1.,0.,-0.));
#702 = PLANE('',#703);
#703 = AXIS2_PLACEMENT_3D('',#704,#705,#706);
#704 = CARTESIAN_POINT('',(92.95,46.,100.5));
#705 = DIRECTION('',(0.,0.,1.));
#706 = DIRECTION('',(1.,0.,-0.));
#707 = ADVANCED_FACE('',(#708),#719,.F.);
#708 = FACE_BOUND('',#709,.F.);
#709 = EDGE_LOOP('',(#710,#711,#712,#713));
#710 = ORIENTED_EDGE('',*,*,#118,.F.);
#711 = ORIENTED_EDGE('',*,*,#666,.F.);
#712 = ORIENTED_EDGE('',*,*,#444,.T.);
#713 = ORIENTED_EDGE('',*,*,#714,.T.);
#714 = EDGE_CURVE('',#445,#111,#715,.T.);
#715 = LINE('',#716,#717);
#716 = CARTESIAN_POINT('',(92.95,46.,83.));
#717 = VECTOR('',#718,1.);
#718 = DIRECTION('',(-1.,-0.,0.));
#719 = PLANE('',#720);
#720 = AXIS2_PLACEMENT_3D('',#721,#722,#723);
#721 = CARTESIAN_POINT('',(92.95,-54.,83.));
#722 = DIRECTION('',(0.,0.,1.));
#723 = DIRECTION('',(1.,0.,-0.));
#724 = ADVANCED_FACE('',(#725),#766,.T.);
#725 = FACE_BOUND('',#726,.T.);
#726 = EDGE_LOOP('',(#727,#728,#736,#744,#750,#751,#752,#760));
#727 = ORIENTED_EDGE('',*,*,#468,.F.);
#728 = ORIENTED_EDGE('',*,*,#729,.T.);
#729 = EDGE_CURVE('',#461,#730,#732,.T.);
#730 = VERTEX_POINT('',#731);
#731 = CARTESIAN_POINT('',(119.,54.,84.5));
#732 = LINE('',#733,#734);
#733 = CARTESIAN_POINT('',(92.95,54.,84.5));
#734 = VECTOR('',#735,1.);
#735 = DIRECTION('',(1.,0.,-0.));
#736 = ORIENTED_EDGE('',*,*,#737,.F.);
#737 = EDGE_CURVE('',#738,#730,#740,.T.);
#738 = VERTEX_POINT('',#739);
#739 = CARTESIAN_POINT('',(119.,54.,76.5));
#740 = LINE('',#741,#742);
#741 = CARTESIAN_POINT('',(119.,54.,76.5));
#742 = VECTOR('',#743,1.);
#743 = DIRECTION('',(0.,0.,1.));
#744 = ORIENTED_EDGE('',*,*,#745,.F.);
#745 = EDGE_CURVE('',#95,#738,#746,.T.);
#746 = LINE('',#747,#748);
#747 = CARTESIAN_POINT('',(92.95,54.,76.5));
#748 = VECTOR('',#749,1.);
#749 = DIRECTION('',(1.,0.,-0.));
#750 = ORIENTED_EDGE('',*,*,#94,.T.);
#751 = ORIENTED_EDGE('',*,*,#697,.T.);
#752 = ORIENTED_EDGE('',*,*,#753,.F.);
#753 = EDGE_CURVE('',#754,#690,#756,.T.);
#754 = VERTEX_POINT('',#755);
#755 = CARTESIAN_POINT('',(119.,54.,92.5));
#756 = LINE('',#757,#758);
#757 = CARTESIAN_POINT('',(119.,54.,92.5));
#758 = VECTOR('',#759,1.);
#759 = DIRECTION('',(0.,0.,1.));
#760 = ORIENTED_EDGE('',*,*,#761,.F.);
#761 = EDGE_CURVE('',#469,#754,#762,.T.);
#762 = LINE('',#763,#764);
#763 = CARTESIAN_POINT('',(92.95,54.,92.5));
#764 = VECTOR('',#765,1.);
#765 = DIRECTION('',(1.,0.,-0.));
#766 = PLANE('',#767);
#767 = AXIS2_PLACEMENT_3D('',#768,#769,#770);
#768 = CARTESIAN_POINT('',(105.18669630643,54.,88.5));
#769 = DIRECTION('',(0.,1.,0.));
#770 = DIRECTION('',(0.,-0.,1.));
#771 = ADVANCED_FACE('',(#772),#799,.F.);
#772 = FACE_BOUND('',#773,.F.);
#773 = EDGE_LOOP('',(#774,#784,#790,#791,#792,#793));
#774 = ORIENTED_EDGE('',*,*,#775,.F.);
#775 = EDGE_CURVE('',#776,#778,#780,.T.);
#776 = VERTEX_POINT('',#777);
#777 = CARTESIAN_POINT('',(119.,46.,76.5));
#778 = VERTEX_POINT('',#779);
#779 = CARTESIAN_POINT('',(119.,46.,84.5));
#780 = LINE('',#781,#782);
#781 = CARTESIAN_POINT('',(119.,46.,76.5));
#782 = VECTOR('',#783,1.);
#783 = DIRECTION('',(0.,0.,1.));
#784 = ORIENTED_EDGE('',*,*,#785,.F.);
#785 = EDGE_CURVE('',#103,#776,#786,.T.);
#786 = LINE('',#787,#788);
#787 = CARTESIAN_POINT('',(92.95,46.,76.5));
#788 = VECTOR('',#789,1.);
#789 = DIRECTION('',(1.,0.,-0.));
#790 = ORIENTED_EDGE('',*,*,#110,.T.);
#791 = ORIENTED_EDGE('',*,*,#714,.F.);
#792 = ORIENTED_EDGE('',*,*,#452,.T.);
#793 = ORIENTED_EDGE('',*,*,#794,.T.);
#794 = EDGE_CURVE('',#453,#778,#795,.T.);
#795 = LINE('',#796,#797);
#796 = CARTESIAN_POINT('',(92.95,46.,84.5));
#797 = VECTOR('',#798,1.);
#798 = DIRECTION('',(1.,0.,-0.));
#799 = PLANE('',#800);
#800 = AXIS2_PLACEMENT_3D('',#801,#802,#803);
#801 = CARTESIAN_POINT('',(92.95,46.,76.5));
#802 = DIRECTION('',(-0.,1.,0.));
#803 = DIRECTION('',(0.,0.,1.));
#804 = ADVANCED_FACE('',(#805),#816,.F.);
#805 = FACE_BOUND('',#806,.F.);
#806 = EDGE_LOOP('',(#807,#808,#809,#815));
#807 = ORIENTED_EDGE('',*,*,#102,.F.);
#808 = ORIENTED_EDGE('',*,*,#785,.T.);
#809 = ORIENTED_EDGE('',*,*,#810,.T.);
#810 = EDGE_CURVE('',#776,#738,#811,.T.);
#811 = LINE('',#812,#813);
#812 = CARTESIAN_POINT('',(119.,46.,76.5));
#813 = VECTOR('',#814,1.);
#814 = DIRECTION('',(-0.,1.,0.));
#815 = ORIENTED_EDGE('',*,*,#745,.F.);
#816 = PLANE('',#817);
#817 = AXIS2_PLACEMENT_3D('',#818,#819,#820);
#818 = CARTESIAN_POINT('',(92.95,46.,76.5));
#819 = DIRECTION('',(0.,0.,1.));
#820 = DIRECTION('',(1.,0.,-0.));
#821 = ADVANCED_FACE('',(#822),#847,.T.);
#822 = FACE_BOUND('',#823,.T.);
#823 = EDGE_LOOP('',(#824,#825,#833,#841));
#824 = ORIENTED_EDGE('',*,*,#150,.F.);
#825 = ORIENTED_EDGE('',*,*,#826,.T.);
#826 = EDGE_CURVE('',#151,#827,#829,.T.);
#827 = VERTEX_POINT('',#828);
#828 = CARTESIAN_POINT('',(115.,52.9,94.82568421935));
#829 = LINE('',#830,#831);
#830 = CARTESIAN_POINT('',(92.8,52.9,94.82568421935));
#831 = VECTOR('',#832,1.);
#832 = DIRECTION('',(1.,0.,0.));
#833 = ORIENTED_EDGE('',*,*,#834,.T.);
#834 = EDGE_CURVE('',#827,#835,#837,.T.);
#835 = VERTEX_POINT('',#836);
#836 = CARTESIAN_POINT('',(115.,52.9,98.17431578065));
#837 = LINE('',#838,#839);
#838 = CARTESIAN_POINT('',(115.,52.9,94.82568421935));
#839 = VECTOR('',#840,1.);
#840 = DIRECTION('',(0.,0.,1.));
#841 = ORIENTED_EDGE('',*,*,#842,.F.);
#842 = EDGE_CURVE('',#153,#835,#843,.T.);
#843 = LINE('',#844,#845);
#844 = CARTESIAN_POINT('',(92.8,52.9,98.17431578065));
#845 = VECTOR('',#846,1.);
#846 = DIRECTION('',(1.,0.,0.));
#847 = PLANE('',#848);
#848 = AXIS2_PLACEMENT_3D('',#849,#850,#851);
#849 = CARTESIAN_POINT('',(92.8,52.9,94.82568421935));
#850 = DIRECTION('',(0.,-1.,0.));
#851 = DIRECTION('',(0.,0.,1.));
#852 = ADVANCED_FACE('',(#853),#871,.T.);
#853 = FACE_BOUND('',#854,.T.);
#854 = EDGE_LOOP('',(#855,#856,#864,#870));
#855 = ORIENTED_EDGE('',*,*,#192,.F.);
#856 = ORIENTED_EDGE('',*,*,#857,.T.);
#857 = EDGE_CURVE('',#185,#858,#860,.T.);
#858 = VERTEX_POINT('',#859);
#859 = CARTESIAN_POINT('',(115.,50.,93.1513684387));
#860 = LINE('',#861,#862);
#861 = CARTESIAN_POINT('',(92.8,50.,93.1513684387));
#862 = VECTOR('',#863,1.);
#863 = DIRECTION('',(1.,0.,0.));
#864 = ORIENTED_EDGE('',*,*,#865,.T.);
#865 = EDGE_CURVE('',#858,#827,#866,.T.);
#866 = LINE('',#867,#868);
#867 = CARTESIAN_POINT('',(115.,50.,93.1513684387));
#868 = VECTOR('',#869,1.);
#869 = DIRECTION('',(0.,0.866025403784,0.5));
#870 = ORIENTED_EDGE('',*,*,#826,.F.);
#871 = PLANE('',#872);
#872 = AXIS2_PLACEMENT_3D('',#873,#874,#875);
#873 = CARTESIAN_POINT('',(92.8,50.,93.1513684387));
#874 = DIRECTION('',(0.,-0.5,0.866025403784));
#875 = DIRECTION('',(0.,0.866025403784,0.5));
#876 = ADVANCED_FACE('',(#877),#895,.T.);
#877 = FACE_BOUND('',#878,.T.);
#878 = EDGE_LOOP('',(#879,#880,#888,#894));
#879 = ORIENTED_EDGE('',*,*,#184,.F.);
#880 = ORIENTED_EDGE('',*,*,#881,.T.);
#881 = EDGE_CURVE('',#177,#882,#884,.T.);
#882 = VERTEX_POINT('',#883);
#883 = CARTESIAN_POINT('',(115.,47.1,94.82568421935));
#884 = LINE('',#885,#886);
#885 = CARTESIAN_POINT('',(92.8,47.1,94.82568421935));
#886 = VECTOR('',#887,1.);
#887 = DIRECTION('',(1.,0.,0.));
#888 = ORIENTED_EDGE('',*,*,#889,.T.);
#889 = EDGE_CURVE('',#882,#858,#890,.T.);
#890 = LINE('',#891,#892);
#891 = CARTESIAN_POINT('',(115.,47.1,94.82568421935));
#892 = VECTOR('',#893,1.);
#893 = DIRECTION('',(0.,0.866025403784,-0.5));
#894 = ORIENTED_EDGE('',*,*,#857,.F.);
#895 = PLANE('',#896);
#896 = AXIS2_PLACEMENT_3D('',#897,#898,#899);
#897 = CARTESIAN_POINT('',(92.8,47.1,94.82568421935));
#898 = DIRECTION('',(-0.,0.5,0.866025403784));
#899 = DIRECTION('',(0.,0.866025403784,-0.5));
#900 = ADVANCED_FACE('',(#901),#919,.T.);
#901 = FACE_BOUND('',#902,.T.);
#902 = EDGE_LOOP('',(#903,#904,#912,#918));
#903 = ORIENTED_EDGE('',*,*,#176,.F.);
#904 = ORIENTED_EDGE('',*,*,#905,.T.);
#905 = EDGE_CURVE('',#169,#906,#908,.T.);
#906 = VERTEX_POINT('',#907);
#907 = CARTESIAN_POINT('',(115.,47.1,98.17431578065));
#908 = LINE('',#909,#910);
#909 = CARTESIAN_POINT('',(92.8,47.1,98.17431578065));
#910 = VECTOR('',#911,1.);
#911 = DIRECTION('',(1.,0.,0.));
#912 = ORIENTED_EDGE('',*,*,#913,.T.);
#913 = EDGE_CURVE('',#906,#882,#914,.T.);
#914 = LINE('',#915,#916);
#915 = CARTESIAN_POINT('',(115.,47.1,98.17431578065));
#916 = VECTOR('',#917,1.);
#917 = DIRECTION('',(0.,0.,-1.));
#918 = ORIENTED_EDGE('',*,*,#881,.F.);
#919 = PLANE('',#920);
#920 = AXIS2_PLACEMENT_3D('',#921,#922,#923);
#921 = CARTESIAN_POINT('',(92.8,47.1,98.17431578065));
#922 = DIRECTION('',(-0.,1.,0.));
#923 = DIRECTION('',(0.,0.,-1.));
#924 = ADVANCED_FACE('',(#925),#943,.T.);
#925 = FACE_BOUND('',#926,.T.);
#926 = EDGE_LOOP('',(#927,#928,#936,#942));
#927 = ORIENTED_EDGE('',*,*,#168,.F.);
#928 = ORIENTED_EDGE('',*,*,#929,.T.);
#929 = EDGE_CURVE('',#161,#930,#932,.T.);
#930 = VERTEX_POINT('',#931);
#931 = CARTESIAN_POINT('',(115.,50.,99.8486315613));
#932 = LINE('',#933,#934);
#933 = CARTESIAN_POINT('',(92.8,50.,99.8486315613));
#934 = VECTOR('',#935,1.);
#935 = DIRECTION('',(1.,0.,0.));
#936 = ORIENTED_EDGE('',*,*,#937,.T.);
#937 = EDGE_CURVE('',#930,#906,#938,.T.);
#938 = LINE('',#939,#940);
#939 = CARTESIAN_POINT('',(115.,50.,99.8486315613));
#940 = VECTOR('',#941,1.);
#941 = DIRECTION('',(0.,-0.866025403784,-0.5));
#942 = ORIENTED_EDGE('',*,*,#905,.F.);
#943 = PLANE('',#944);
#944 = AXIS2_PLACEMENT_3D('',#945,#946,#947);
#945 = CARTESIAN_POINT('',(92.8,50.,99.8486315613));
#946 = DIRECTION('',(0.,0.5,-0.866025403784));
#947 = DIRECTION('',(0.,-0.866025403784,-0.5));
#948 = ADVANCED_FACE('',(#949),#960,.T.);
#949 = FACE_BOUND('',#950,.T.);
#950 = EDGE_LOOP('',(#951,#952,#953,#959));
#951 = ORIENTED_EDGE('',*,*,#160,.F.);
#952 = ORIENTED_EDGE('',*,*,#842,.T.);
#953 = ORIENTED_EDGE('',*,*,#954,.T.);
#954 = EDGE_CURVE('',#835,#930,#955,.T.);
#955 = LINE('',#956,#957);
#956 = CARTESIAN_POINT('',(115.,52.9,98.17431578065));
#957 = VECTOR('',#958,1.);
#958 = DIRECTION('',(0.,-0.866025403784,0.5));
#959 = ORIENTED_EDGE('',*,*,#929,.F.);
#960 = PLANE('',#961);
#961 = AXIS2_PLACEMENT_3D('',#962,#963,#964);
#962 = CARTESIAN_POINT('',(92.8,52.9,98.17431578065));
#963 = DIRECTION('',(0.,-0.5,-0.866025403784));
#964 = DIRECTION('',(0.,-0.866025403784,0.5));
#965 = ADVANCED_FACE('',(#966),#991,.T.);
#966 = FACE_BOUND('',#967,.T.);
#967 = EDGE_LOOP('',(#968,#969,#977,#985));
#968 = ORIENTED_EDGE('',*,*,#200,.F.);
#969 = ORIENTED_EDGE('',*,*,#970,.T.);
#970 = EDGE_CURVE('',#201,#971,#973,.T.);
#971 = VERTEX_POINT('',#972);
#972 = CARTESIAN_POINT('',(115.,52.9,78.82568421935));
#973 = LINE('',#974,#975);
#974 = CARTESIAN_POINT('',(92.8,52.9,78.82568421935));
#975 = VECTOR('',#976,1.);
#976 = DIRECTION('',(1.,0.,0.));
#977 = ORIENTED_EDGE('',*,*,#978,.T.);
#978 = EDGE_CURVE('',#971,#979,#981,.T.);
#979 = VERTEX_POINT('',#980);
#980 = CARTESIAN_POINT('',(115.,52.9,82.17431578065));
#981 = LINE('',#982,#983);
#982 = CARTESIAN_POINT('',(115.,52.9,78.82568421935));
#983 = VECTOR('',#984,1.);
#984 = DIRECTION('',(0.,0.,1.));
#985 = ORIENTED_EDGE('',*,*,#986,.F.);
#986 = EDGE_CURVE('',#203,#979,#987,.T.);
#987 = LINE('',#988,#989);
#988 = CARTESIAN_POINT('',(92.8,52.9,82.17431578065));
#989 = VECTOR('',#990,1.);
#990 = DIRECTION('',(1.,0.,0.));
#991 = PLANE('',#992);
#992 = AXIS2_PLACEMENT_3D('',#993,#994,#995);
#993 = CARTESIAN_POINT('',(92.8,52.9,78.82568421935));
#994 = DIRECTION('',(0.,-1.,0.));
#995 = DIRECTION('',(0.,0.,1.));
#996 = ADVANCED_FACE('',(#997),#1015,.T.);
#997 = FACE_BOUND('',#998,.T.);
#998 = EDGE_LOOP('',(#999,#1000,#1008,#1014));
#999 = ORIENTED_EDGE('',*,*,#242,.F.);
#1000 = ORIENTED_EDGE('',*,*,#1001,.T.);
#1001 = EDGE_CURVE('',#235,#1002,#1004,.T.);
#1002 = VERTEX_POINT('',#1003);
#1003 = CARTESIAN_POINT('',(115.,50.,77.1513684387));
#1004 = LINE('',#1005,#1006);
#1005 = CARTESIAN_POINT('',(92.8,50.,77.1513684387));
#1006 = VECTOR('',#1007,1.);
#1007 = DIRECTION('',(1.,0.,0.));
#1008 = ORIENTED_EDGE('',*,*,#1009,.T.);
#1009 = EDGE_CURVE('',#1002,#971,#1010,.T.);
#1010 = LINE('',#1011,#1012);
#1011 = CARTESIAN_POINT('',(115.,50.,77.1513684387));
#1012 = VECTOR('',#1013,1.);
#1013 = DIRECTION('',(0.,0.866025403784,0.5));
#1014 = ORIENTED_EDGE('',*,*,#970,.F.);
#1015 = PLANE('',#1016);
#1016 = AXIS2_PLACEMENT_3D('',#1017,#1018,#1019);
#1017 = CARTESIAN_POINT('',(92.8,50.,77.1513684387));
#1018 = DIRECTION('',(0.,-0.5,0.866025403784));
#1019 = DIRECTION('',(0.,0.866025403784,0.5));
#1020 = ADVANCED_FACE('',(#1021),#1039,.T.);
#1021 = FACE_BOUND('',#1022,.T.);
#1022 = EDGE_LOOP('',(#1023,#1024,#1032,#1038));
#1023 = ORIENTED_EDGE('',*,*,#234,.F.);
#1024 = ORIENTED_EDGE('',*,*,#1025,.T.);
#1025 = EDGE_CURVE('',#227,#1026,#1028,.T.);
#1026 = VERTEX_POINT('',#1027);
#1027 = CARTESIAN_POINT('',(115.,47.1,78.82568421935));
#1028 = LINE('',#1029,#1030);
#1029 = CARTESIAN_POINT('',(92.8,47.1,78.82568421935));
#1030 = VECTOR('',#1031,1.);
#1031 = DIRECTION('',(1.,0.,0.));
#1032 = ORIENTED_EDGE('',*,*,#1033,.T.);
#1033 = EDGE_CURVE('',#1026,#1002,#1034,.T.);
#1034 = LINE('',#1035,#1036);
#1035 = CARTESIAN_POINT('',(115.,47.1,78.82568421935));
#1036 = VECTOR('',#1037,1.);
#1037 = DIRECTION('',(0.,0.866025403784,-0.5));
#1038 = ORIENTED_EDGE('',*,*,#1001,.F.);
#1039 = PLANE('',#1040);
#1040 = AXIS2_PLACEMENT_3D('',#1041,#1042,#1043);
#1041 = CARTESIAN_POINT('',(92.8,47.1,78.82568421935));
#1042 = DIRECTION('',(-0.,0.5,0.866025403784));
#1043 = DIRECTION('',(0.,0.866025403784,-0.5));
#1044 = ADVANCED_FACE('',(#1045),#1063,.T.);
#1045 = FACE_BOUND('',#1046,.T.);
#1046 = EDGE_LOOP('',(#1047,#1048,#1056,#1062));
#1047 = ORIENTED_EDGE('',*,*,#226,.F.);
#1048 = ORIENTED_EDGE('',*,*,#1049,.T.);
#1049 = EDGE_CURVE('',#219,#1050,#1052,.T.);
#1050 = VERTEX_POINT('',#1051);
#1051 = CARTESIAN_POINT('',(115.,47.1,82.17431578065));
#1052 = LINE('',#1053,#1054);
#1053 = CARTESIAN_POINT('',(92.8,47.1,82.17431578065));
#1054 = VECTOR('',#1055,1.);
#1055 = DIRECTION('',(1.,0.,0.));
#1056 = ORIENTED_EDGE('',*,*,#1057,.T.);
#1057 = EDGE_CURVE('',#1050,#1026,#1058,.T.);
#1058 = LINE('',#1059,#1060);
#1059 = CARTESIAN_POINT('',(115.,47.1,82.17431578065));
#1060 = VECTOR('',#1061,1.);
#1061 = DIRECTION('',(0.,0.,-1.));
#1062 = ORIENTED_EDGE('',*,*,#1025,.F.);
#1063 = PLANE('',#1064);
#1064 = AXIS2_PLACEMENT_3D('',#1065,#1066,#1067);
#1065 = CARTESIAN_POINT('',(92.8,47.1,82.17431578065));
#1066 = DIRECTION('',(-0.,1.,0.));
#1067 = DIRECTION('',(0.,0.,-1.));
#1068 = ADVANCED_FACE('',(#1069),#1087,.T.);
#1069 = FACE_BOUND('',#1070,.T.);
#1070 = EDGE_LOOP('',(#1071,#1072,#1080,#1086));
#1071 = ORIENTED_EDGE('',*,*,#218,.F.);
#1072 = ORIENTED_EDGE('',*,*,#1073,.T.);
#1073 = EDGE_CURVE('',#211,#1074,#1076,.T.);
#1074 = VERTEX_POINT('',#1075);
#1075 = CARTESIAN_POINT('',(115.,50.,83.8486315613));
#1076 = LINE('',#1077,#1078);
#1077 = CARTESIAN_POINT('',(92.8,50.,83.8486315613));
#1078 = VECTOR('',#1079,1.);
#1079 = DIRECTION('',(1.,0.,0.));
#1080 = ORIENTED_EDGE('',*,*,#1081,.T.);
#1081 = EDGE_CURVE('',#1074,#1050,#1082,.T.);
#1082 = LINE('',#1083,#1084);
#1083 = CARTESIAN_POINT('',(115.,50.,83.8486315613));
#1084 = VECTOR('',#1085,1.);
#1085 = DIRECTION('',(0.,-0.866025403784,-0.5));
#1086 = ORIENTED_EDGE('',*,*,#1049,.F.);
#1087 = PLANE('',#1088);
#1088 = AXIS2_PLACEMENT_3D('',#1089,#1090,#1091);
#1089 = CARTESIAN_POINT('',(92.8,50.,83.8486315613));
#1090 = DIRECTION('',(0.,0.5,-0.866025403784));
#1091 = DIRECTION('',(0.,-0.866025403784,-0.5));
#1092 = ADVANCED_FACE('',(#1093),#1104,.T.);
#1093 = FACE_BOUND('',#1094,.T.);
#1094 = EDGE_LOOP('',(#1095,#1096,#1097,#1103));
#1095 = ORIENTED_EDGE('',*,*,#210,.F.);
#1096 = ORIENTED_EDGE('',*,*,#986,.T.);
#1097 = ORIENTED_EDGE('',*,*,#1098,.T.);
#1098 = EDGE_CURVE('',#979,#1074,#1099,.T.);
#1099 = LINE('',#1100,#1101);
#1100 = CARTESIAN_POINT('',(115.,52.9,82.17431578065));
#1101 = VECTOR('',#1102,1.);
#1102 = DIRECTION('',(0.,-0.866025403784,0.5));
#1103 = ORIENTED_EDGE('',*,*,#1073,.F.);
#1104 = PLANE('',#1105);
#1105 = AXIS2_PLACEMENT_3D('',#1106,#1107,#1108);
#1106 = CARTESIAN_POINT('',(92.8,52.9,82.17431578065));
#1107 = DIRECTION('',(0.,-0.5,-0.866025403784));
#1108 = DIRECTION('',(0.,-0.866025403784,0.5));
#1109 = ADVANCED_FACE('',(#1110),#1121,.F.);
#1110 = FACE_BOUND('',#1111,.F.);
#1111 = EDGE_LOOP('',(#1112,#1113,#1119,#1120));
#1112 = ORIENTED_EDGE('',*,*,#500,.F.);
#1113 = ORIENTED_EDGE('',*,*,#1114,.F.);
#1114 = EDGE_CURVE('',#251,#501,#1115,.T.);
#1115 = LINE('',#1116,#1117);
#1116 = CARTESIAN_POINT('',(92.8,22.5,89.7));
#1117 = VECTOR('',#1118,1.);
#1118 = DIRECTION('',(1.,0.,0.));
#1119 = ORIENTED_EDGE('',*,*,#250,.T.);
#1120 = ORIENTED_EDGE('',*,*,#1114,.T.);
#1121 = CYLINDRICAL_SURFACE('',#1122,1.7);
#1122 = AXIS2_PLACEMENT_3D('',#1123,#1124,#1125);
#1123 = CARTESIAN_POINT('',(92.8,22.5,88.));
#1124 = DIRECTION('',(1.,0.,0.));
#1125 = DIRECTION('',(-0.,0.,1.));
#1126 = ADVANCED_FACE('',(#1127),#1152,.T.);
#1127 = FACE_BOUND('',#1128,.T.);
#1128 = EDGE_LOOP('',(#1129,#1130,#1138,#1146));
#1129 = ORIENTED_EDGE('',*,*,#261,.F.);
#1130 = ORIENTED_EDGE('',*,*,#1131,.T.);
#1131 = EDGE_CURVE('',#262,#1132,#1134,.T.);
#1132 = VERTEX_POINT('',#1133);
#1133 = CARTESIAN_POINT('',(115.,-47.1,94.82568421935));
#1134 = LINE('',#1135,#1136);
#1135 = CARTESIAN_POINT('',(92.8,-47.1,94.82568421935));
#1136 = VECTOR('',#1137,1.);
#1137 = DIRECTION('',(1.,0.,0.));
#1138 = ORIENTED_EDGE('',*,*,#1139,.T.);
#1139 = EDGE_CURVE('',#1132,#1140,#1142,.T.);
#1140 = VERTEX_POINT('',#1141);
#1141 = CARTESIAN_POINT('',(115.,-47.1,98.17431578065));
#1142 = LINE('',#1143,#1144);
#1143 = CARTESIAN_POINT('',(115.,-47.1,94.82568421935));
#1144 = VECTOR('',#1145,1.);
#1145 = DIRECTION('',(0.,0.,1.));
#1146 = ORIENTED_EDGE('',*,*,#1147,.F.);
#1147 = EDGE_CURVE('',#264,#1140,#1148,.T.);
#1148 = LINE('',#1149,#1150);
#1149 = CARTESIAN_POINT('',(92.8,-47.1,98.17431578065));
#1150 = VECTOR('',#1151,1.);
#1151 = DIRECTION('',(1.,0.,0.));
#1152 = PLANE('',#1153);
#1153 = AXIS2_PLACEMENT_3D('',#1154,#1155,#1156);
#1154 = CARTESIAN_POINT('',(92.8,-47.1,94.82568421935));
#1155 = DIRECTION('',(0.,-1.,0.));
#1156 = DIRECTION('',(0.,0.,1.));
#1157 = ADVANCED_FACE('',(#1158),#1176,.T.);
#1158 = FACE_BOUND('',#1159,.T.);
#1159 = EDGE_LOOP('',(#1160,#1161,#1169,#1175));
#1160 = ORIENTED_EDGE('',*,*,#303,.F.);
#1161 = ORIENTED_EDGE('',*,*,#1162,.T.);
#1162 = EDGE_CURVE('',#296,#1163,#1165,.T.);
#1163 = VERTEX_POINT('',#1164);
#1164 = CARTESIAN_POINT('',(115.,-50.,93.1513684387));
#1165 = LINE('',#1166,#1167);
#1166 = CARTESIAN_POINT('',(92.8,-50.,93.1513684387));
#1167 = VECTOR('',#1168,1.);
#1168 = DIRECTION('',(1.,0.,0.));
#1169 = ORIENTED_EDGE('',*,*,#1170,.T.);
#1170 = EDGE_CURVE('',#1163,#1132,#1171,.T.);
#1171 = LINE('',#1172,#1173);
#1172 = CARTESIAN_POINT('',(115.,-50.,93.1513684387));
#1173 = VECTOR('',#1174,1.);
#1174 = DIRECTION('',(0.,0.866025403784,0.5));
#1175 = ORIENTED_EDGE('',*,*,#1131,.F.);
#1176 = PLANE('',#1177);
#1177 = AXIS2_PLACEMENT_3D('',#1178,#1179,#1180);
#1178 = CARTESIAN_POINT('',(92.8,-50.,93.1513684387));
#1179 = DIRECTION('',(0.,-0.5,0.866025403784));
#1180 = DIRECTION('',(0.,0.866025403784,0.5));
#1181 = ADVANCED_FACE('',(#1182),#1200,.T.);
#1182 = FACE_BOUND('',#1183,.T.);
#1183 = EDGE_LOOP('',(#1184,#1185,#1193,#1199));
#1184 = ORIENTED_EDGE('',*,*,#295,.F.);
#1185 = ORIENTED_EDGE('',*,*,#1186,.T.);
#1186 = EDGE_CURVE('',#288,#1187,#1189,.T.);
#1187 = VERTEX_POINT('',#1188);
#1188 = CARTESIAN_POINT('',(115.,-52.9,94.82568421935));
#1189 = LINE('',#1190,#1191);
#1190 = CARTESIAN_POINT('',(92.8,-52.9,94.82568421935));
#1191 = VECTOR('',#1192,1.);
#1192 = DIRECTION('',(1.,0.,0.));
#1193 = ORIENTED_EDGE('',*,*,#1194,.T.);
#1194 = EDGE_CURVE('',#1187,#1163,#1195,.T.);
#1195 = LINE('',#1196,#1197);
#1196 = CARTESIAN_POINT('',(115.,-52.9,94.82568421935));
#1197 = VECTOR('',#1198,1.);
#1198 = DIRECTION('',(0.,0.866025403784,-0.5));
#1199 = ORIENTED_EDGE('',*,*,#1162,.F.);
#1200 = PLANE('',#1201);
#1201 = AXIS2_PLACEMENT_3D('',#1202,#1203,#1204);
#1202 = CARTESIAN_POINT('',(92.8,-52.9,94.82568421935));
#1203 = DIRECTION('',(-0.,0.5,0.866025403784));
#1204 = DIRECTION('',(0.,0.866025403784,-0.5));
#1205 = ADVANCED_FACE('',(#1206),#1224,.T.);
#1206 = FACE_BOUND('',#1207,.T.);
#1207 = EDGE_LOOP('',(#1208,#1209,#1217,#1223));
#1208 = ORIENTED_EDGE('',*,*,#287,.F.);
#1209 = ORIENTED_EDGE('',*,*,#1210,.T.);
#1210 = EDGE_CURVE('',#280,#1211,#1213,.T.);
#1211 = VERTEX_POINT('',#1212);
#1212 = CARTESIAN_POINT('',(115.,-52.9,98.17431578065));
#1213 = LINE('',#1214,#1215);
#1214 = CARTESIAN_POINT('',(92.8,-52.9,98.17431578065));
#1215 = VECTOR('',#1216,1.);
#1216 = DIRECTION('',(1.,0.,0.));
#1217 = ORIENTED_EDGE('',*,*,#1218,.T.);
#1218 = EDGE_CURVE('',#1211,#1187,#1219,.T.);
#1219 = LINE('',#1220,#1221);
#1220 = CARTESIAN_POINT('',(115.,-52.9,98.17431578065));
#1221 = VECTOR('',#1222,1.);
#1222 = DIRECTION('',(0.,0.,-1.));
#1223 = ORIENTED_EDGE('',*,*,#1186,.F.);
#1224 = PLANE('',#1225);
#1225 = AXIS2_PLACEMENT_3D('',#1226,#1227,#1228);
#1226 = CARTESIAN_POINT('',(92.8,-52.9,98.17431578065));
#1227 = DIRECTION('',(-0.,1.,0.));
#1228 = DIRECTION('',(0.,0.,-1.));
#1229 = ADVANCED_FACE('',(#1230),#1248,.T.);
#1230 = FACE_BOUND('',#1231,.T.);
#1231 = EDGE_LOOP('',(#1232,#1233,#1241,#1247));
#1232 = ORIENTED_EDGE('',*,*,#279,.F.);
#1233 = ORIENTED_EDGE('',*,*,#1234,.T.);
#1234 = EDGE_CURVE('',#272,#1235,#1237,.T.);
#1235 = VERTEX_POINT('',#1236);
#1236 = CARTESIAN_POINT('',(115.,-50.,99.8486315613));
#1237 = LINE('',#1238,#1239);
#1238 = CARTESIAN_POINT('',(92.8,-50.,99.8486315613));
#1239 = VECTOR('',#1240,1.);
#1240 = DIRECTION('',(1.,0.,0.));
#1241 = ORIENTED_EDGE('',*,*,#1242,.T.);
#1242 = EDGE_CURVE('',#1235,#1211,#1243,.T.);
#1243 = LINE('',#1244,#1245);
#1244 = CARTESIAN_POINT('',(115.,-50.,99.8486315613));
#1245 = VECTOR('',#1246,1.);
#1246 = DIRECTION('',(0.,-0.866025403784,-0.5));
#1247 = ORIENTED_EDGE('',*,*,#1210,.F.);
#1248 = PLANE('',#1249);
#1249 = AXIS2_PLACEMENT_3D('',#1250,#1251,#1252);
#1250 = CARTESIAN_POINT('',(92.8,-50.,99.8486315613));
#1251 = DIRECTION('',(0.,0.5,-0.866025403784));
#1252 = DIRECTION('',(0.,-0.866025403784,-0.5));
#1253 = ADVANCED_FACE('',(#1254),#1265,.T.);
#1254 = FACE_BOUND('',#1255,.T.);
#1255 = EDGE_LOOP('',(#1256,#1257,#1258,#1264));
#1256 = ORIENTED_EDGE('',*,*,#271,.F.);
#1257 = ORIENTED_EDGE('',*,*,#1147,.T.);
#1258 = ORIENTED_EDGE('',*,*,#1259,.T.);
#1259 = EDGE_CURVE('',#1140,#1235,#1260,.T.);
#1260 = LINE('',#1261,#1262);
#1261 = CARTESIAN_POINT('',(115.,-47.1,98.17431578065));
#1262 = VECTOR('',#1263,1.);
#1263 = DIRECTION('',(0.,-0.866025403784,0.5));
#1264 = ORIENTED_EDGE('',*,*,#1234,.F.);
#1265 = PLANE('',#1266);
#1266 = AXIS2_PLACEMENT_3D('',#1267,#1268,#1269);
#1267 = CARTESIAN_POINT('',(92.8,-47.1,98.17431578065));
#1268 = DIRECTION('',(0.,-0.5,-0.866025403784));
#1269 = DIRECTION('',(0.,-0.866025403784,0.5));
#1270 = ADVANCED_FACE('',(#1271),#1282,.F.);
#1271 = FACE_BOUND('',#1272,.F.);
#1272 = EDGE_LOOP('',(#1273,#1274,#1280,#1281));
#1273 = ORIENTED_EDGE('',*,*,#511,.F.);
#1274 = ORIENTED_EDGE('',*,*,#1275,.F.);
#1275 = EDGE_CURVE('',#312,#512,#1276,.T.);
#1276 = LINE('',#1277,#1278);
#1277 = CARTESIAN_POINT('',(92.8,-22.5,89.7));
#1278 = VECTOR('',#1279,1.);
#1279 = DIRECTION('',(1.,0.,0.));
#1280 = ORIENTED_EDGE('',*,*,#311,.T.);
#1281 = ORIENTED_EDGE('',*,*,#1275,.T.);
#1282 = CYLINDRICAL_SURFACE('',#1283,1.7);
#1283 = AXIS2_PLACEMENT_3D('',#1284,#1285,#1286);
#1284 = CARTESIAN_POINT('',(92.8,-22.5,88.));
#1285 = DIRECTION('',(1.,0.,0.));
#1286 = DIRECTION('',(-0.,0.,1.));
#1287 = ADVANCED_FACE('',(#1288),#1313,.T.);
#1288 = FACE_BOUND('',#1289,.T.);
#1289 = EDGE_LOOP('',(#1290,#1291,#1299,#1307));
#1290 = ORIENTED_EDGE('',*,*,#322,.F.);
#1291 = ORIENTED_EDGE('',*,*,#1292,.T.);
#1292 = EDGE_CURVE('',#323,#1293,#1295,.T.);
#1293 = VERTEX_POINT('',#1294);
#1294 = CARTESIAN_POINT('',(115.,-47.1,78.82568421935));
#1295 = LINE('',#1296,#1297);
#1296 = CARTESIAN_POINT('',(92.8,-47.1,78.82568421935));
#1297 = VECTOR('',#1298,1.);
#1298 = DIRECTION('',(1.,0.,0.));
#1299 = ORIENTED_EDGE('',*,*,#1300,.T.);
#1300 = EDGE_CURVE('',#1293,#1301,#1303,.T.);
#1301 = VERTEX_POINT('',#1302);
#1302 = CARTESIAN_POINT('',(115.,-47.1,82.17431578065));
#1303 = LINE('',#1304,#1305);
#1304 = CARTESIAN_POINT('',(115.,-47.1,78.82568421935));
#1305 = VECTOR('',#1306,1.);
#1306 = DIRECTION('',(0.,0.,1.));
#1307 = ORIENTED_EDGE('',*,*,#1308,.F.);
#1308 = EDGE_CURVE('',#325,#1301,#1309,.T.);
#1309 = LINE('',#1310,#1311);
#1310 = CARTESIAN_POINT('',(92.8,-47.1,82.17431578065));
#1311 = VECTOR('',#1312,1.);
#1312 = DIRECTION('',(1.,0.,0.));
#1313 = PLANE('',#1314);
#1314 = AXIS2_PLACEMENT_3D('',#1315,#1316,#1317);
#1315 = CARTESIAN_POINT('',(92.8,-47.1,78.82568421935));
#1316 = DIRECTION('',(0.,-1.,0.));
#1317 = DIRECTION('',(0.,0.,1.));
#1318 = ADVANCED_FACE('',(#1319),#1337,.T.);
#1319 = FACE_BOUND('',#1320,.T.);
#1320 = EDGE_LOOP('',(#1321,#1322,#1330,#1336));
#1321 = ORIENTED_EDGE('',*,*,#364,.F.);
#1322 = ORIENTED_EDGE('',*,*,#1323,.T.);
#1323 = EDGE_CURVE('',#357,#1324,#1326,.T.);
#1324 = VERTEX_POINT('',#1325);
#1325 = CARTESIAN_POINT('',(115.,-50.,77.1513684387));
#1326 = LINE('',#1327,#1328);
#1327 = CARTESIAN_POINT('',(92.8,-50.,77.1513684387));
#1328 = VECTOR('',#1329,1.);
#1329 = DIRECTION('',(1.,0.,0.));
#1330 = ORIENTED_EDGE('',*,*,#1331,.T.);
#1331 = EDGE_CURVE('',#1324,#1293,#1332,.T.);
#1332 = LINE('',#1333,#1334);
#1333 = CARTESIAN_POINT('',(115.,-50.,77.1513684387));
#1334 = VECTOR('',#1335,1.);
#1335 = DIRECTION('',(0.,0.866025403784,0.5));
#1336 = ORIENTED_EDGE('',*,*,#1292,.F.);
#1337 = PLANE('',#1338);
#1338 = AXIS2_PLACEMENT_3D('',#1339,#1340,#1341);
#1339 = CARTESIAN_POINT('',(92.8,-50.,77.1513684387));
#1340 = DIRECTION('',(0.,-0.5,0.866025403784));
#1341 = DIRECTION('',(0.,0.866025403784,0.5));
#1342 = ADVANCED_FACE('',(#1343),#1361,.T.);
#1343 = FACE_BOUND('',#1344,.T.);
#1344 = EDGE_LOOP('',(#1345,#1346,#1354,#1360));
#1345 = ORIENTED_EDGE('',*,*,#356,.F.);
#1346 = ORIENTED_EDGE('',*,*,#1347,.T.);
#1347 = EDGE_CURVE('',#349,#1348,#1350,.T.);
#1348 = VERTEX_POINT('',#1349);
#1349 = CARTESIAN_POINT('',(115.,-52.9,78.82568421935));
#1350 = LINE('',#1351,#1352);
#1351 = CARTESIAN_POINT('',(92.8,-52.9,78.82568421935));
#1352 = VECTOR('',#1353,1.);
#1353 = DIRECTION('',(1.,0.,0.));
#1354 = ORIENTED_EDGE('',*,*,#1355,.T.);
#1355 = EDGE_CURVE('',#1348,#1324,#1356,.T.);
#1356 = LINE('',#1357,#1358);
#1357 = CARTESIAN_POINT('',(115.,-52.9,78.82568421935));
#1358 = VECTOR('',#1359,1.);
#1359 = DIRECTION('',(0.,0.866025403784,-0.5));
#1360 = ORIENTED_EDGE('',*,*,#1323,.F.);
#1361 = PLANE('',#1362);
#1362 = AXIS2_PLACEMENT_3D('',#1363,#1364,#1365);
#1363 = CARTESIAN_POINT('',(92.8,-52.9,78.82568421935));
#1364 = DIRECTION('',(-0.,0.5,0.866025403784));
#1365 = DIRECTION('',(0.,0.866025403784,-0.5));
#1366 = ADVANCED_FACE('',(#1367),#1385,.T.);
#1367 = FACE_BOUND('',#1368,.T.);
#1368 = EDGE_LOOP('',(#1369,#1370,#1378,#1384));
#1369 = ORIENTED_EDGE('',*,*,#348,.F.);
#1370 = ORIENTED_EDGE('',*,*,#1371,.T.);
#1371 = EDGE_CURVE('',#341,#1372,#1374,.T.);
#1372 = VERTEX_POINT('',#1373);
#1373 = CARTESIAN_POINT('',(115.,-52.9,82.17431578065));
#1374 = LINE('',#1375,#1376);
#1375 = CARTESIAN_POINT('',(92.8,-52.9,82.17431578065));
#1376 = VECTOR('',#1377,1.);
#1377 = DIRECTION('',(1.,0.,0.));
#1378 = ORIENTED_EDGE('',*,*,#1379,.T.);
#1379 = EDGE_CURVE('',#1372,#1348,#1380,.T.);
#1380 = LINE('',#1381,#1382);
#1381 = CARTESIAN_POINT('',(115.,-52.9,82.17431578065));
#1382 = VECTOR('',#1383,1.);
#1383 = DIRECTION('',(0.,0.,-1.));
#1384 = ORIENTED_EDGE('',*,*,#1347,.F.);
#1385 = PLANE('',#1386);
#1386 = AXIS2_PLACEMENT_3D('',#1387,#1388,#1389);
#1387 = CARTESIAN_POINT('',(92.8,-52.9,82.17431578065));
#1388 = DIRECTION('',(-0.,1.,0.));
#1389 = DIRECTION('',(0.,0.,-1.));
#1390 = ADVANCED_FACE('',(#1391),#1409,.T.);
#1391 = FACE_BOUND('',#1392,.T.);
#1392 = EDGE_LOOP('',(#1393,#1394,#1402,#1408));
#1393 = ORIENTED_EDGE('',*,*,#340,.F.);
#1394 = ORIENTED_EDGE('',*,*,#1395,.T.);
#1395 = EDGE_CURVE('',#333,#1396,#1398,.T.);
#1396 = VERTEX_POINT('',#1397);
#1397 = CARTESIAN_POINT('',(115.,-50.,83.8486315613));
#1398 = LINE('',#1399,#1400);
#1399 = CARTESIAN_POINT('',(92.8,-50.,83.8486315613));
#1400 = VECTOR('',#1401,1.);
#1401 = DIRECTION('',(1.,0.,0.));
#1402 = ORIENTED_EDGE('',*,*,#1403,.T.);
#1403 = EDGE_CURVE('',#1396,#1372,#1404,.T.);
#1404 = LINE('',#1405,#1406);
#1405 = CARTESIAN_POINT('',(115.,-50.,83.8486315613));
#1406 = VECTOR('',#1407,1.);
#1407 = DIRECTION('',(0.,-0.866025403784,-0.5));
#1408 = ORIENTED_EDGE('',*,*,#1371,.F.);
#1409 = PLANE('',#1410);
#1410 = AXIS2_PLACEMENT_3D('',#1411,#1412,#1413);
#1411 = CARTESIAN_POINT('',(92.8,-50.,83.8486315613));
#1412 = DIRECTION('',(0.,0.5,-0.866025403784));
#1413 = DIRECTION('',(0.,-0.866025403784,-0.5));
#1414 = ADVANCED_FACE('',(#1415),#1426,.T.);
#1415 = FACE_BOUND('',#1416,.T.);
#1416 = EDGE_LOOP('',(#1417,#1418,#1419,#1425));
#1417 = ORIENTED_EDGE('',*,*,#332,.F.);
#1418 = ORIENTED_EDGE('',*,*,#1308,.T.);
#1419 = ORIENTED_EDGE('',*,*,#1420,.T.);
#1420 = EDGE_CURVE('',#1301,#1396,#1421,.T.);
#1421 = LINE('',#1422,#1423);
#1422 = CARTESIAN_POINT('',(115.,-47.1,82.17431578065));
#1423 = VECTOR('',#1424,1.);
#1424 = DIRECTION('',(0.,-0.866025403784,0.5));
#1425 = ORIENTED_EDGE('',*,*,#1395,.F.);
#1426 = PLANE('',#1427);
#1427 = AXIS2_PLACEMENT_3D('',#1428,#1429,#1430);
#1428 = CARTESIAN_POINT('',(92.8,-47.1,82.17431578065));
#1429 = DIRECTION('',(0.,-0.5,-0.866025403784));
#1430 = DIRECTION('',(0.,-0.866025403784,0.5));
#1431 = ADVANCED_FACE('',(#1432),#1443,.F.);
#1432 = FACE_BOUND('',#1433,.F.);
#1433 = EDGE_LOOP('',(#1434,#1435,#1436,#1442));
#1434 = ORIENTED_EDGE('',*,*,#476,.T.);
#1435 = ORIENTED_EDGE('',*,*,#378,.T.);
#1436 = ORIENTED_EDGE('',*,*,#1437,.T.);
#1437 = EDGE_CURVE('',#381,#754,#1438,.T.);
#1438 = LINE('',#1439,#1440);
#1439 = CARTESIAN_POINT('',(119.,46.,92.5));
#1440 = VECTOR('',#1441,1.);
#1441 = DIRECTION('',(-0.,1.,0.));
#1442 = ORIENTED_EDGE('',*,*,#761,.F.);
#1443 = PLANE('',#1444);
#1444 = AXIS2_PLACEMENT_3D('',#1445,#1446,#1447);
#1445 = CARTESIAN_POINT('',(92.95,46.,92.5));
#1446 = DIRECTION('',(0.,0.,1.));
#1447 = DIRECTION('',(1.,0.,-0.));
#1448 = ADVANCED_FACE('',(#1449,#1455),#1466,.T.);
#1449 = FACE_BOUND('',#1450,.T.);
#1450 = EDGE_LOOP('',(#1451,#1452,#1453,#1454));
#1451 = ORIENTED_EDGE('',*,*,#404,.F.);
#1452 = ORIENTED_EDGE('',*,*,#1437,.T.);
#1453 = ORIENTED_EDGE('',*,*,#753,.T.);
#1454 = ORIENTED_EDGE('',*,*,#689,.F.);
#1455 = FACE_BOUND('',#1456,.T.);
#1456 = EDGE_LOOP('',(#1457));
#1457 = ORIENTED_EDGE('',*,*,#1458,.F.);
#1458 = EDGE_CURVE('',#1459,#1459,#1461,.T.);
#1459 = VERTEX_POINT('',#1460);
#1460 = CARTESIAN_POINT('',(119.,50.,98.2));
#1461 = CIRCLE('',#1462,1.7);
#1462 = AXIS2_PLACEMENT_3D('',#1463,#1464,#1465);
#1463 = CARTESIAN_POINT('',(119.,50.,96.5));
#1464 = DIRECTION('',(1.,0.,0.));
#1465 = DIRECTION('',(-0.,0.,1.));
#1466 = PLANE('',#1467);
#1467 = AXIS2_PLACEMENT_3D('',#1468,#1469,#1470);
#1468 = CARTESIAN_POINT('',(119.,46.,92.5));
#1469 = DIRECTION('',(1.,0.,-0.));
#1470 = DIRECTION('',(0.,0.,1.));
#1471 = ADVANCED_FACE('',(#1472),#1483,.T.);
#1472 = FACE_BOUND('',#1473,.T.);
#1473 = EDGE_LOOP('',(#1474,#1475,#1476,#1482));
#1474 = ORIENTED_EDGE('',*,*,#428,.T.);
#1475 = ORIENTED_EDGE('',*,*,#602,.T.);
#1476 = ORIENTED_EDGE('',*,*,#1477,.T.);
#1477 = EDGE_CURVE('',#595,#657,#1478,.T.);
#1478 = LINE('',#1479,#1480);
#1479 = CARTESIAN_POINT('',(119.,-54.,84.5));
#1480 = VECTOR('',#1481,1.);
#1481 = DIRECTION('',(-0.,1.,0.));
#1482 = ORIENTED_EDGE('',*,*,#673,.F.);
#1483 = PLANE('',#1484);
#1484 = AXIS2_PLACEMENT_3D('',#1485,#1486,#1487);
#1485 = CARTESIAN_POINT('',(92.95,-54.,84.5));
#1486 = DIRECTION('',(0.,0.,1.));
#1487 = DIRECTION('',(1.,0.,-0.));
#1488 = ADVANCED_FACE('',(#1489),#1500,.F.);
#1489 = FACE_BOUND('',#1490,.F.);
#1490 = EDGE_LOOP('',(#1491,#1492,#1493,#1499));
#1491 = ORIENTED_EDGE('',*,*,#492,.T.);
#1492 = ORIENTED_EDGE('',*,*,#609,.T.);
#1493 = ORIENTED_EDGE('',*,*,#1494,.T.);
#1494 = EDGE_CURVE('',#610,#529,#1495,.T.);
#1495 = LINE('',#1496,#1497);
#1496 = CARTESIAN_POINT('',(119.,-54.,92.5));
#1497 = VECTOR('',#1498,1.);
#1498 = DIRECTION('',(-0.,1.,0.));
#1499 = ORIENTED_EDGE('',*,*,#528,.F.);
#1500 = PLANE('',#1501);
#1501 = AXIS2_PLACEMENT_3D('',#1502,#1503,#1504);
#1502 = CARTESIAN_POINT('',(92.95,-54.,92.5));
#1503 = DIRECTION('',(0.,0.,1.));
#1504 = DIRECTION('',(1.,0.,-0.));
#1505 = ADVANCED_FACE('',(#1506),#1517,.T.);
#1506 = FACE_BOUND('',#1507,.T.);
#1507 = EDGE_LOOP('',(#1508,#1509,#1510,#1516));
#1508 = ORIENTED_EDGE('',*,*,#460,.T.);
#1509 = ORIENTED_EDGE('',*,*,#794,.T.);
#1510 = ORIENTED_EDGE('',*,*,#1511,.T.);
#1511 = EDGE_CURVE('',#778,#730,#1512,.T.);
#1512 = LINE('',#1513,#1514);
#1513 = CARTESIAN_POINT('',(119.,46.,84.5));
#1514 = VECTOR('',#1515,1.);
#1515 = DIRECTION('',(-0.,1.,0.));
#1516 = ORIENTED_EDGE('',*,*,#729,.F.);
#1517 = PLANE('',#1518);
#1518 = AXIS2_PLACEMENT_3D('',#1519,#1520,#1521);
#1519 = CARTESIAN_POINT('',(92.95,46.,84.5));
#1520 = DIRECTION('',(0.,0.,1.));
#1521 = DIRECTION('',(1.,0.,-0.));
#1522 = ADVANCED_FACE('',(#1523,#1529),#1540,.T.);
#1523 = FACE_BOUND('',#1524,.T.);
#1524 = EDGE_LOOP('',(#1525,#1526,#1527,#1528));
#1525 = ORIENTED_EDGE('',*,*,#617,.F.);
#1526 = ORIENTED_EDGE('',*,*,#1494,.T.);
#1527 = ORIENTED_EDGE('',*,*,#547,.T.);
#1528 = ORIENTED_EDGE('',*,*,#570,.F.);
#1529 = FACE_BOUND('',#1530,.T.);
#1530 = EDGE_LOOP('',(#1531));
#1531 = ORIENTED_EDGE('',*,*,#1532,.F.);
#1532 = EDGE_CURVE('',#1533,#1533,#1535,.T.);
#1533 = VERTEX_POINT('',#1534);
#1534 = CARTESIAN_POINT('',(119.,-50.,98.2));
#1535 = CIRCLE('',#1536,1.7);
#1536 = AXIS2_PLACEMENT_3D('',#1537,#1538,#1539);
#1537 = CARTESIAN_POINT('',(119.,-50.,96.5));
#1538 = DIRECTION('',(1.,0.,0.));
#1539 = DIRECTION('',(-0.,0.,1.));
#1540 = PLANE('',#1541);
#1541 = AXIS2_PLACEMENT_3D('',#1542,#1543,#1544);
#1542 = CARTESIAN_POINT('',(119.,-54.,92.5));
#1543 = DIRECTION('',(1.,0.,-0.));
#1544 = DIRECTION('',(0.,0.,1.));
#1545 = ADVANCED_FACE('',(#1546,#1552),#1563,.T.);
#1546 = FACE_BOUND('',#1547,.T.);
#1547 = EDGE_LOOP('',(#1548,#1549,#1550,#1551));
#1548 = ORIENTED_EDGE('',*,*,#594,.F.);
#1549 = ORIENTED_EDGE('',*,*,#634,.T.);
#1550 = ORIENTED_EDGE('',*,*,#656,.T.);
#1551 = ORIENTED_EDGE('',*,*,#1477,.F.);
#1552 = FACE_BOUND('',#1553,.T.);
#1553 = EDGE_LOOP('',(#1554));
#1554 = ORIENTED_EDGE('',*,*,#1555,.F.);
#1555 = EDGE_CURVE('',#1556,#1556,#1558,.T.);
#1556 = VERTEX_POINT('',#1557);
#1557 = CARTESIAN_POINT('',(119.,-50.,82.2));
#1558 = CIRCLE('',#1559,1.7);
#1559 = AXIS2_PLACEMENT_3D('',#1560,#1561,#1562);
#1560 = CARTESIAN_POINT('',(119.,-50.,80.5));
#1561 = DIRECTION('',(1.,0.,0.));
#1562 = DIRECTION('',(-0.,0.,1.));
#1563 = PLANE('',#1564);
#1564 = AXIS2_PLACEMENT_3D('',#1565,#1566,#1567);
#1565 = CARTESIAN_POINT('',(119.,-54.,76.5));
#1566 = DIRECTION('',(1.,0.,-0.));
#1567 = DIRECTION('',(0.,0.,1.));
#1568 = ADVANCED_FACE('',(#1569,#1575),#1586,.T.);
#1569 = FACE_BOUND('',#1570,.T.);
#1570 = EDGE_LOOP('',(#1571,#1572,#1573,#1574));
#1571 = ORIENTED_EDGE('',*,*,#775,.F.);
#1572 = ORIENTED_EDGE('',*,*,#810,.T.);
#1573 = ORIENTED_EDGE('',*,*,#737,.T.);
#1574 = ORIENTED_EDGE('',*,*,#1511,.F.);
#1575 = FACE_BOUND('',#1576,.T.);
#1576 = EDGE_LOOP('',(#1577));
#1577 = ORIENTED_EDGE('',*,*,#1578,.F.);
#1578 = EDGE_CURVE('',#1579,#1579,#1581,.T.);
#1579 = VERTEX_POINT('',#1580);
#1580 = CARTESIAN_POINT('',(119.,50.,82.2));
#1581 = CIRCLE('',#1582,1.7);
#1582 = AXIS2_PLACEMENT_3D('',#1583,#1584,#1585);
#1583 = CARTESIAN_POINT('',(119.,50.,80.5));
#1584 = DIRECTION('',(1.,0.,0.));
#1585 = DIRECTION('',(-0.,0.,1.));
#1586 = PLANE('',#1587);
#1587 = AXIS2_PLACEMENT_3D('',#1588,#1589,#1590);
#1588 = CARTESIAN_POINT('',(119.,46.,76.5));
#1589 = DIRECTION('',(1.,0.,-0.));
#1590 = DIRECTION('',(0.,0.,1.));
#1591 = ADVANCED_FACE('',(#1592,#1600),#1611,.F.);
#1592 = FACE_BOUND('',#1593,.F.);
#1593 = EDGE_LOOP('',(#1594,#1595,#1596,#1597,#1598,#1599));
#1594 = ORIENTED_EDGE('',*,*,#954,.T.);
#1595 = ORIENTED_EDGE('',*,*,#937,.T.);
#1596 = ORIENTED_EDGE('',*,*,#913,.T.);
#1597 = ORIENTED_EDGE('',*,*,#889,.T.);
#1598 = ORIENTED_EDGE('',*,*,#865,.T.);
#1599 = ORIENTED_EDGE('',*,*,#834,.T.);
#1600 = FACE_BOUND('',#1601,.F.);
#1601 = EDGE_LOOP('',(#1602));
#1602 = ORIENTED_EDGE('',*,*,#1603,.F.);
#1603 = EDGE_CURVE('',#1604,#1604,#1606,.T.);
#1604 = VERTEX_POINT('',#1605);
#1605 = CARTESIAN_POINT('',(115.,50.,98.2));
#1606 = CIRCLE('',#1607,1.7);
#1607 = AXIS2_PLACEMENT_3D('',#1608,#1609,#1610);
#1608 = CARTESIAN_POINT('',(115.,50.,96.5));
#1609 = DIRECTION('',(1.,0.,0.));
#1610 = DIRECTION('',(-0.,0.,1.));
#1611 = PLANE('',#1612);
#1612 = AXIS2_PLACEMENT_3D('',#1613,#1614,#1615);
#1613 = CARTESIAN_POINT('',(115.,50.,96.5));
#1614 = DIRECTION('',(1.,0.,0.));
#1615 = DIRECTION('',(-0.,0.,1.));
#1616 = ADVANCED_FACE('',(#1617,#1625),#1636,.F.);
#1617 = FACE_BOUND('',#1618,.F.);
#1618 = EDGE_LOOP('',(#1619,#1620,#1621,#1622,#1623,#1624));
#1619 = ORIENTED_EDGE('',*,*,#1098,.T.);
#1620 = ORIENTED_EDGE('',*,*,#1081,.T.);
#1621 = ORIENTED_EDGE('',*,*,#1057,.T.);
#1622 = ORIENTED_EDGE('',*,*,#1033,.T.);
#1623 = ORIENTED_EDGE('',*,*,#1009,.T.);
#1624 = ORIENTED_EDGE('',*,*,#978,.T.);
#1625 = FACE_BOUND('',#1626,.F.);
#1626 = EDGE_LOOP('',(#1627));
#1627 = ORIENTED_EDGE('',*,*,#1628,.F.);
#1628 = EDGE_CURVE('',#1629,#1629,#1631,.T.);
#1629 = VERTEX_POINT('',#1630);
#1630 = CARTESIAN_POINT('',(115.,50.,82.2));
#1631 = CIRCLE('',#1632,1.7);
#1632 = AXIS2_PLACEMENT_3D('',#1633,#1634,#1635);
#1633 = CARTESIAN_POINT('',(115.,50.,80.5));
#1634 = DIRECTION('',(1.,0.,0.));
#1635 = DIRECTION('',(-0.,0.,1.));
#1636 = PLANE('',#1637);
#1637 = AXIS2_PLACEMENT_3D('',#1638,#1639,#1640);
#1638 = CARTESIAN_POINT('',(115.,50.,80.5));
#1639 = DIRECTION('',(1.,0.,0.));
#1640 = DIRECTION('',(-0.,0.,1.));
#1641 = ADVANCED_FACE('',(#1642,#1650),#1661,.F.);
#1642 = FACE_BOUND('',#1643,.F.);
#1643 = EDGE_LOOP('',(#1644,#1645,#1646,#1647,#1648,#1649));
#1644 = ORIENTED_EDGE('',*,*,#1259,.T.);
#1645 = ORIENTED_EDGE('',*,*,#1242,.T.);
#1646 = ORIENTED_EDGE('',*,*,#1218,.T.);
#1647 = ORIENTED_EDGE('',*,*,#1194,.T.);
#1648 = ORIENTED_EDGE('',*,*,#1170,.T.);
#1649 = ORIENTED_EDGE('',*,*,#1139,.T.);
#1650 = FACE_BOUND('',#1651,.F.);
#1651 = EDGE_LOOP('',(#1652));
#1652 = ORIENTED_EDGE('',*,*,#1653,.F.);
#1653 = EDGE_CURVE('',#1654,#1654,#1656,.T.);
#1654 = VERTEX_POINT('',#1655);
#1655 = CARTESIAN_POINT('',(115.,-50.,98.2));
#1656 = CIRCLE('',#1657,1.7);
#1657 = AXIS2_PLACEMENT_3D('',#1658,#1659,#1660);
#1658 = CARTESIAN_POINT('',(115.,-50.,96.5));
#1659 = DIRECTION('',(1.,0.,0.));
#1660 = DIRECTION('',(-0.,0.,1.));
#1661 = PLANE('',#1662);
#1662 = AXIS2_PLACEMENT_3D('',#1663,#1664,#1665);
#1663 = CARTESIAN_POINT('',(115.,-50.,96.5));
#1664 = DIRECTION('',(1.,0.,0.));
#1665 = DIRECTION('',(-0.,0.,1.));
#1666 = ADVANCED_FACE('',(#1667,#1675),#1686,.F.);
#1667 = FACE_BOUND('',#1668,.F.);
#1668 = EDGE_LOOP('',(#1669,#1670,#1671,#1672,#1673,#1674));
#1669 = ORIENTED_EDGE('',*,*,#1420,.T.);
#1670 = ORIENTED_EDGE('',*,*,#1403,.T.);
#1671 = ORIENTED_EDGE('',*,*,#1379,.T.);
#1672 = ORIENTED_EDGE('',*,*,#1355,.T.);
#1673 = ORIENTED_EDGE('',*,*,#1331,.T.);
#1674 = ORIENTED_EDGE('',*,*,#1300,.T.);
#1675 = FACE_BOUND('',#1676,.F.);
#1676 = EDGE_LOOP('',(#1677));
#1677 = ORIENTED_EDGE('',*,*,#1678,.F.);
#1678 = EDGE_CURVE('',#1679,#1679,#1681,.T.);
#1679 = VERTEX_POINT('',#1680);
#1680 = CARTESIAN_POINT('',(115.,-50.,82.2));
#1681 = CIRCLE('',#1682,1.7);
#1682 = AXIS2_PLACEMENT_3D('',#1683,#1684,#1685);
#1683 = CARTESIAN_POINT('',(115.,-50.,80.5));
#1684 = DIRECTION('',(1.,0.,0.));
#1685 = DIRECTION('',(-0.,0.,1.));
#1686 = PLANE('',#1687);
#1687 = AXIS2_PLACEMENT_3D('',#1688,#1689,#1690);
#1688 = CARTESIAN_POINT('',(115.,-50.,80.5));
#1689 = DIRECTION('',(1.,0.,0.));
#1690 = DIRECTION('',(-0.,0.,1.));
#1691 = ADVANCED_FACE('',(#1692),#1703,.F.);
#1692 = FACE_BOUND('',#1693,.F.);
#1693 = EDGE_LOOP('',(#1694,#1695,#1701,#1702));
#1694 = ORIENTED_EDGE('',*,*,#1458,.F.);
#1695 = ORIENTED_EDGE('',*,*,#1696,.F.);
#1696 = EDGE_CURVE('',#1604,#1459,#1697,.T.);
#1697 = LINE('',#1698,#1699);
#1698 = CARTESIAN_POINT('',(92.8,50.,98.2));
#1699 = VECTOR('',#1700,1.);
#1700 = DIRECTION('',(1.,0.,0.));
#1701 = ORIENTED_EDGE('',*,*,#1603,.T.);
#1702 = ORIENTED_EDGE('',*,*,#1696,.T.);
#1703 = CYLINDRICAL_SURFACE('',#1704,1.7);
#1704 = AXIS2_PLACEMENT_3D('',#1705,#1706,#1707);
#1705 = CARTESIAN_POINT('',(92.8,50.,96.5));
#1706 = DIRECTION('',(1.,0.,0.));
#1707 = DIRECTION('',(-0.,0.,1.));
#1708 = ADVANCED_FACE('',(#1709),#1720,.F.);
#1709 = FACE_BOUND('',#1710,.F.);
#1710 = EDGE_LOOP('',(#1711,#1712,#1718,#1719));
#1711 = ORIENTED_EDGE('',*,*,#1532,.F.);
#1712 = ORIENTED_EDGE('',*,*,#1713,.F.);
#1713 = EDGE_CURVE('',#1654,#1533,#1714,.T.);
#1714 = LINE('',#1715,#1716);
#1715 = CARTESIAN_POINT('',(92.8,-50.,98.2));
#1716 = VECTOR('',#1717,1.);
#1717 = DIRECTION('',(1.,0.,0.));
#1718 = ORIENTED_EDGE('',*,*,#1653,.T.);
#1719 = ORIENTED_EDGE('',*,*,#1713,.T.);
#1720 = CYLINDRICAL_SURFACE('',#1721,1.7);
#1721 = AXIS2_PLACEMENT_3D('',#1722,#1723,#1724);
#1722 = CARTESIAN_POINT('',(92.8,-50.,96.5));
#1723 = DIRECTION('',(1.,0.,0.));
#1724 = DIRECTION('',(-0.,0.,1.));
#1725 = ADVANCED_FACE('',(#1726),#1737,.F.);
#1726 = FACE_BOUND('',#1727,.F.);
#1727 = EDGE_LOOP('',(#1728,#1729,#1735,#1736));
#1728 = ORIENTED_EDGE('',*,*,#1555,.F.);
#1729 = ORIENTED_EDGE('',*,*,#1730,.F.);
#1730 = EDGE_CURVE('',#1679,#1556,#1731,.T.);
#1731 = LINE('',#1732,#1733);
#1732 = CARTESIAN_POINT('',(92.8,-50.,82.2));
#1733 = VECTOR('',#1734,1.);
#1734 = DIRECTION('',(1.,0.,0.));
#1735 = ORIENTED_EDGE('',*,*,#1678,.T.);
#1736 = ORIENTED_EDGE('',*,*,#1730,.T.);
#1737 = CYLINDRICAL_SURFACE('',#1738,1.7);
#1738 = AXIS2_PLACEMENT_3D('',#1739,#1740,#1741);
#1739 = CARTESIAN_POINT('',(92.8,-50.,80.5));
#1740 = DIRECTION('',(1.,0.,0.));
#1741 = DIRECTION('',(-0.,0.,1.));
#1742 = ADVANCED_FACE('',(#1743),#1754,.F.);
#1743 = FACE_BOUND('',#1744,.F.);
#1744 = EDGE_LOOP('',(#1745,#1746,#1752,#1753));
#1745 = ORIENTED_EDGE('',*,*,#1578,.F.);
#1746 = ORIENTED_EDGE('',*,*,#1747,.F.);
#1747 = EDGE_CURVE('',#1629,#1579,#1748,.T.);
#1748 = LINE('',#1749,#1750);
#1749 = CARTESIAN_POINT('',(92.8,50.,82.2));
#1750 = VECTOR('',#1751,1.);
#1751 = DIRECTION('',(1.,0.,0.));
#1752 = ORIENTED_EDGE('',*,*,#1628,.T.);
#1753 = ORIENTED_EDGE('',*,*,#1747,.T.);
#1754 = CYLINDRICAL_SURFACE('',#1755,1.7);
#1755 = AXIS2_PLACEMENT_3D('',#1756,#1757,#1758);
#1756 = CARTESIAN_POINT('',(92.8,50.,80.5));
#1757 = DIRECTION('',(1.,0.,0.));
#1758 = DIRECTION('',(-0.,0.,1.));
#1759 = ( GEOMETRIC_REPRESENTATION_CONTEXT(3) 
GLOBAL_UNCERTAINTY_ASSIGNED_CONTEXT((#1763)) 
GLOBAL_UNIT_ASSIGNED_CONTEXT((#1760,#1761,#1762)) REPRESENTATION_CONTEXT
('Context #1','3D Context with UNIT and UNCERTAINTY') );
#1760 = ( LENGTH_UNIT() NAMED_UNIT(*) SI_UNIT(.MILLI.,.METRE.) );
#1761 = ( NAMED_UNIT(*) PLANE_ANGLE_UNIT() SI_UNIT($,.RADIAN.) );
#1762 = ( NAMED_UNIT(*) SI_UNIT($,.STERADIAN.) SOLID_ANGLE_UNIT() );
#1763 = UNCERTAINTY_MEASURE_WITH_UNIT(LENGTH_MEASURE(1.E-07),#1760,
  'distance_accuracy_value','confusion accuracy');
#1764 = PRODUCT_RELATED_PRODUCT_CATEGORY('part',$,(#7));
ENDSEC;
END-ISO-10303-21;
