ISO-10303-21;
HEADER;
FILE_DESCRIPTION(('FreeCAD Model'),'2;1');
FILE_NAME('Open CASCADE Shape Model','2026-09-22T18:42:07',('FreeCAD'),(
    'FreeCAD'),'Open CASCADE STEP processor 7.8','FreeCAD','Unknown');
FILE_SCHEMA(('AUTOMOTIVE_DESIGN { 1 0 10303 214 1 1 1 1 }'));
ENDSEC;
DATA;
#1 = APPLICATION_PROTOCOL_DEFINITION('international standard',
  'automotive_design',2000,#2);
#2 = APPLICATION_CONTEXT(
  'core data for automotive mechanical design processes');
#3 = SHAPE_DEFINITION_REPRESENTATION(#4,#10);
#4 = PRODUCT_DEFINITION_SHAPE('','',#5);
#5 = PRODUCT_DEFINITION('design','',#6,#9);
#6 = PRODUCT_DEFINITION_FORMATION('','',#7);
#7 = PRODUCT('Open CASCADE STEP translator 7.8 26',
  'Open CASCADE STEP translator 7.8 26','',(#8));
#8 = PRODUCT_CONTEXT('',#2,'mechanical');
#9 = PRODUCT_DEFINITION_CONTEXT('part definition',#2,'design');
#10 = ADVANCED_BREP_SHAPE_REPRESENTATION('',(#11,#15),#2022);
#11 = AXIS2_PLACEMENT_3D('',#12,#13,#14);
#12 = CARTESIAN_POINT('',(0.,0.,0.));
#13 = DIRECTION('',(0.,0.,1.));
#14 = DIRECTION('',(1.,0.,-0.));
#15 = MANIFOLD_SOLID_BREP('',#16);
#16 = CLOSED_SHELL('',(#17,#189,#253,#277,#301,#666,#690,#714,#738,#762,
    #779,#796,#827,#851,#875,#892,#923,#947,#971,#988,#1058,#1083,#1108,
    #1133,#1157,#1192,#1204,#1221,#1245,#1280,#1292,#1309,#1340,#1364,
    #1388,#1412,#1436,#1453,#1484,#1508,#1532,#1556,#1580,#1597,#1628,
    #1652,#1676,#1700,#1724,#1741,#1772,#1796,#1820,#1837,#1868,#1892,
    #1916,#1933,#1952,#1971,#1988,#2005));
#17 = ADVANCED_FACE('',(#18,#116,#150),#184,.T.);
#18 = FACE_BOUND('',#19,.F.);
#19 = EDGE_LOOP('',(#20,#30,#38,#46,#54,#62,#70,#78,#86,#94,#102,#110));
#20 = ORIENTED_EDGE('',*,*,#21,.F.);
#21 = EDGE_CURVE('',#22,#24,#26,.T.);
#22 = VERTEX_POINT('',#23);
#23 = CARTESIAN_POINT('',(116.,-93.5,-46.));
#24 = VERTEX_POINT('',#25);
#25 = CARTESIAN_POINT('',(116.,-93.5,62.));
#26 = LINE('',#27,#28);
#27 = CARTESIAN_POINT('',(116.,-93.5,-46.));
#28 = VECTOR('',#29,1.);
#29 = DIRECTION('',(-0.,-0.,1.));
#30 = ORIENTED_EDGE('',*,*,#31,.F.);
#31 = EDGE_CURVE('',#32,#22,#34,.T.);
#32 = VERTEX_POINT('',#33);
#33 = CARTESIAN_POINT('',(94.,-93.5,-46.));
#34 = LINE('',#35,#36);
#35 = CARTESIAN_POINT('',(94.,-93.5,-46.));
#36 = VECTOR('',#37,1.);
#37 = DIRECTION('',(1.,-0.,-0.));
#38 = ORIENTED_EDGE('',*,*,#39,.T.);
#39 = EDGE_CURVE('',#32,#40,#42,.T.);
#40 = VERTEX_POINT('',#41);
#41 = CARTESIAN_POINT('',(94.,-93.5,-42.69225));
#42 = LINE('',#43,#44);
#43 = CARTESIAN_POINT('',(94.,-93.5,-46.));
#44 = VECTOR('',#45,1.);
#45 = DIRECTION('',(-0.,-0.,1.));
#46 = ORIENTED_EDGE('',*,*,#47,.T.);
#47 = EDGE_CURVE('',#40,#48,#50,.T.);
#48 = VERTEX_POINT('',#49);
#49 = CARTESIAN_POINT('',(97.,-93.5,-42.69225));
#50 = LINE('',#51,#52);
#51 = CARTESIAN_POINT('',(94.,-93.5,-42.69225));
#52 = VECTOR('',#53,1.);
#53 = DIRECTION('',(1.,-0.,-0.));
#54 = ORIENTED_EDGE('',*,*,#55,.F.);
#55 = EDGE_CURVE('',#56,#48,#58,.T.);
#56 = VERTEX_POINT('',#57);
#57 = CARTESIAN_POINT('',(97.,-93.5,-34.69225));
#58 = LINE('',#59,#60);
#59 = CARTESIAN_POINT('',(97.,-93.5,-44.346125));
#60 = VECTOR('',#61,1.);
#61 = DIRECTION('',(-0.,-0.,-1.));
#62 = ORIENTED_EDGE('',*,*,#63,.F.);
#63 = EDGE_CURVE('',#64,#56,#66,.T.);
#64 = VERTEX_POINT('',#65);
#65 = CARTESIAN_POINT('',(94.,-93.5,-34.69225));
#66 = LINE('',#67,#68);
#67 = CARTESIAN_POINT('',(94.,-93.5,-34.69225));
#68 = VECTOR('',#69,1.);
#69 = DIRECTION('',(1.,-0.,-0.));
#70 = ORIENTED_EDGE('',*,*,#71,.T.);
#71 = EDGE_CURVE('',#64,#72,#74,.T.);
#72 = VERTEX_POINT('',#73);
#73 = CARTESIAN_POINT('',(94.,-93.5,50.69225));
#74 = LINE('',#75,#76);
#75 = CARTESIAN_POINT('',(94.,-93.5,-46.));
#76 = VECTOR('',#77,1.);
#77 = DIRECTION('',(-0.,-0.,1.));
#78 = ORIENTED_EDGE('',*,*,#79,.T.);
#79 = EDGE_CURVE('',#72,#80,#82,.T.);
#80 = VERTEX_POINT('',#81);
#81 = CARTESIAN_POINT('',(97.,-93.5,50.69225));
#82 = LINE('',#83,#84);
#83 = CARTESIAN_POINT('',(94.,-93.5,50.69225));
#84 = VECTOR('',#85,1.);
#85 = DIRECTION('',(1.,-0.,-0.));
#86 = ORIENTED_EDGE('',*,*,#87,.F.);
#87 = EDGE_CURVE('',#88,#80,#90,.T.);
#88 = VERTEX_POINT('',#89);
#89 = CARTESIAN_POINT('',(97.,-93.5,58.69225));
#90 = LINE('',#91,#92);
#91 = CARTESIAN_POINT('',(97.,-93.5,2.346125));
#92 = VECTOR('',#93,1.);
#93 = DIRECTION('',(-0.,-0.,-1.));
#94 = ORIENTED_EDGE('',*,*,#95,.F.);
#95 = EDGE_CURVE('',#96,#88,#98,.T.);
#96 = VERTEX_POINT('',#97);
#97 = CARTESIAN_POINT('',(94.,-93.5,58.69225));
#98 = LINE('',#99,#100);
#99 = CARTESIAN_POINT('',(94.,-93.5,58.69225));
#100 = VECTOR('',#101,1.);
#101 = DIRECTION('',(1.,-0.,-0.));
#102 = ORIENTED_EDGE('',*,*,#103,.T.);
#103 = EDGE_CURVE('',#96,#104,#106,.T.);
#104 = VERTEX_POINT('',#105);
#105 = CARTESIAN_POINT('',(94.,-93.5,62.));
#106 = LINE('',#107,#108);
#107 = CARTESIAN_POINT('',(94.,-93.5,-46.));
#108 = VECTOR('',#109,1.);
#109 = DIRECTION('',(-0.,-0.,1.));
#110 = ORIENTED_EDGE('',*,*,#111,.T.);
#111 = EDGE_CURVE('',#104,#24,#112,.T.);
#112 = LINE('',#113,#114);
#113 = CARTESIAN_POINT('',(94.,-93.5,62.));
#114 = VECTOR('',#115,1.);
#115 = DIRECTION('',(1.,-0.,-0.));
#116 = FACE_BOUND('',#117,.F.);
#117 = EDGE_LOOP('',(#118,#128,#136,#144));
#118 = ORIENTED_EDGE('',*,*,#119,.F.);
#119 = EDGE_CURVE('',#120,#122,#124,.T.);
#120 = VERTEX_POINT('',#121);
#121 = CARTESIAN_POINT('',(98.,-93.5,0.));
#122 = VERTEX_POINT('',#123);
#123 = CARTESIAN_POINT('',(112.,-93.5,0.));
#124 = LINE('',#125,#126);
#125 = CARTESIAN_POINT('',(96.,-93.5,0.));
#126 = VECTOR('',#127,1.);
#127 = DIRECTION('',(1.,-0.,-0.));
#128 = ORIENTED_EDGE('',*,*,#129,.T.);
#129 = EDGE_CURVE('',#120,#130,#132,.T.);
#130 = VERTEX_POINT('',#131);
#131 = CARTESIAN_POINT('',(98.,-93.5,-30.));
#132 = LINE('',#133,#134);
#133 = CARTESIAN_POINT('',(98.,-93.5,-38.));
#134 = VECTOR('',#135,1.);
#135 = DIRECTION('',(-0.,-0.,-1.));
#136 = ORIENTED_EDGE('',*,*,#137,.T.);
#137 = EDGE_CURVE('',#130,#138,#140,.T.);
#138 = VERTEX_POINT('',#139);
#139 = CARTESIAN_POINT('',(112.,-93.5,-30.));
#140 = LINE('',#141,#142);
#141 = CARTESIAN_POINT('',(96.,-93.5,-30.));
#142 = VECTOR('',#143,1.);
#143 = DIRECTION('',(1.,-0.,-0.));
#144 = ORIENTED_EDGE('',*,*,#145,.F.);
#145 = EDGE_CURVE('',#122,#138,#146,.T.);
#146 = LINE('',#147,#148);
#147 = CARTESIAN_POINT('',(112.,-93.5,-38.));
#148 = VECTOR('',#149,1.);
#149 = DIRECTION('',(-0.,-0.,-1.));
#150 = FACE_BOUND('',#151,.F.);
#151 = EDGE_LOOP('',(#152,#162,#170,#178));
#152 = ORIENTED_EDGE('',*,*,#153,.F.);
#153 = EDGE_CURVE('',#154,#156,#158,.T.);
#154 = VERTEX_POINT('',#155);
#155 = CARTESIAN_POINT('',(98.,-93.5,46.));
#156 = VERTEX_POINT('',#157);
#157 = CARTESIAN_POINT('',(112.,-93.5,46.));
#158 = LINE('',#159,#160);
#159 = CARTESIAN_POINT('',(96.,-93.5,46.));
#160 = VECTOR('',#161,1.);
#161 = DIRECTION('',(1.,-0.,-0.));
#162 = ORIENTED_EDGE('',*,*,#163,.T.);
#163 = EDGE_CURVE('',#154,#164,#166,.T.);
#164 = VERTEX_POINT('',#165);
#165 = CARTESIAN_POINT('',(98.,-93.5,16.));
#166 = LINE('',#167,#168);
#167 = CARTESIAN_POINT('',(98.,-93.5,-15.));
#168 = VECTOR('',#169,1.);
#169 = DIRECTION('',(-0.,-0.,-1.));
#170 = ORIENTED_EDGE('',*,*,#171,.T.);
#171 = EDGE_CURVE('',#164,#172,#174,.T.);
#172 = VERTEX_POINT('',#173);
#173 = CARTESIAN_POINT('',(112.,-93.5,16.));
#174 = LINE('',#175,#176);
#175 = CARTESIAN_POINT('',(96.,-93.5,16.));
#176 = VECTOR('',#177,1.);
#177 = DIRECTION('',(1.,-0.,-0.));
#178 = ORIENTED_EDGE('',*,*,#179,.F.);
#179 = EDGE_CURVE('',#156,#172,#180,.T.);
#180 = LINE('',#181,#182);
#181 = CARTESIAN_POINT('',(112.,-93.5,-15.));
#182 = VECTOR('',#183,1.);
#183 = DIRECTION('',(-0.,-0.,-1.));
#184 = PLANE('',#185);
#185 = AXIS2_PLACEMENT_3D('',#186,#187,#188);
#186 = CARTESIAN_POINT('',(94.,-93.5,-46.));
#187 = DIRECTION('',(-0.,-1.,-0.));
#188 = DIRECTION('',(0.,0.,-1.));
#189 = ADVANCED_FACE('',(#190,#215,#226,#237),#248,.T.);
#190 = FACE_BOUND('',#191,.F.);
#191 = EDGE_LOOP('',(#192,#202,#208,#209));
#192 = ORIENTED_EDGE('',*,*,#193,.F.);
#193 = EDGE_CURVE('',#194,#196,#198,.T.);
#194 = VERTEX_POINT('',#195);
#195 = CARTESIAN_POINT('',(116.,-84.5,-46.));
#196 = VERTEX_POINT('',#197);
#197 = CARTESIAN_POINT('',(116.,-84.5,62.));
#198 = LINE('',#199,#200);
#199 = CARTESIAN_POINT('',(116.,-84.5,-46.));
#200 = VECTOR('',#201,1.);
#201 = DIRECTION('',(-0.,-0.,1.));
#202 = ORIENTED_EDGE('',*,*,#203,.T.);
#203 = EDGE_CURVE('',#194,#22,#204,.T.);
#204 = LINE('',#205,#206);
#205 = CARTESIAN_POINT('',(116.,-84.5,-46.));
#206 = VECTOR('',#207,1.);
#207 = DIRECTION('',(-0.,-1.,-0.));
#208 = ORIENTED_EDGE('',*,*,#21,.T.);
#209 = ORIENTED_EDGE('',*,*,#210,.F.);
#210 = EDGE_CURVE('',#196,#24,#211,.T.);
#211 = LINE('',#212,#213);
#212 = CARTESIAN_POINT('',(116.,-84.5,62.));
#213 = VECTOR('',#214,1.);
#214 = DIRECTION('',(-0.,-1.,-0.));
#215 = FACE_BOUND('',#216,.F.);
#216 = EDGE_LOOP('',(#217));
#217 = ORIENTED_EDGE('',*,*,#218,.F.);
#218 = EDGE_CURVE('',#219,#219,#221,.T.);
#219 = VERTEX_POINT('',#220);
#220 = CARTESIAN_POINT('',(116.,-89.,-36.3));
#221 = CIRCLE('',#222,1.7);
#222 = AXIS2_PLACEMENT_3D('',#223,#224,#225);
#223 = CARTESIAN_POINT('',(116.,-89.,-38.));
#224 = DIRECTION('',(-1.,-0.,-0.));
#225 = DIRECTION('',(-0.,-0.,1.));
#226 = FACE_BOUND('',#227,.F.);
#227 = EDGE_LOOP('',(#228));
#228 = ORIENTED_EDGE('',*,*,#229,.F.);
#229 = EDGE_CURVE('',#230,#230,#232,.T.);
#230 = VERTEX_POINT('',#231);
#231 = CARTESIAN_POINT('',(116.,-89.,9.7));
#232 = CIRCLE('',#233,1.7);
#233 = AXIS2_PLACEMENT_3D('',#234,#235,#236);
#234 = CARTESIAN_POINT('',(116.,-89.,8.));
#235 = DIRECTION('',(-1.,-0.,-0.));
#236 = DIRECTION('',(-0.,-0.,1.));
#237 = FACE_BOUND('',#238,.F.);
#238 = EDGE_LOOP('',(#239));
#239 = ORIENTED_EDGE('',*,*,#240,.F.);
#240 = EDGE_CURVE('',#241,#241,#243,.T.);
#241 = VERTEX_POINT('',#242);
#242 = CARTESIAN_POINT('',(116.,-89.,55.7));
#243 = CIRCLE('',#244,1.7);
#244 = AXIS2_PLACEMENT_3D('',#245,#246,#247);
#245 = CARTESIAN_POINT('',(116.,-89.,54.));
#246 = DIRECTION('',(-1.,-0.,-0.));
#247 = DIRECTION('',(-0.,-0.,1.));
#248 = PLANE('',#249);
#249 = AXIS2_PLACEMENT_3D('',#250,#251,#252);
#250 = CARTESIAN_POINT('',(116.,-84.5,-46.));
#251 = DIRECTION('',(1.,-0.,-0.));
#252 = DIRECTION('',(0.,0.,-1.));
#253 = ADVANCED_FACE('',(#254),#272,.T.);
#254 = FACE_BOUND('',#255,.F.);
#255 = EDGE_LOOP('',(#256,#264,#270,#271));
#256 = ORIENTED_EDGE('',*,*,#257,.F.);
#257 = EDGE_CURVE('',#258,#104,#260,.T.);
#258 = VERTEX_POINT('',#259);
#259 = CARTESIAN_POINT('',(94.,-84.5,62.));
#260 = LINE('',#261,#262);
#261 = CARTESIAN_POINT('',(94.,-84.5,62.));
#262 = VECTOR('',#263,1.);
#263 = DIRECTION('',(-0.,-1.,-0.));
#264 = ORIENTED_EDGE('',*,*,#265,.T.);
#265 = EDGE_CURVE('',#258,#196,#266,.T.);
#266 = LINE('',#267,#268);
#267 = CARTESIAN_POINT('',(94.,-84.5,62.));
#268 = VECTOR('',#269,1.);
#269 = DIRECTION('',(1.,-0.,-0.));
#270 = ORIENTED_EDGE('',*,*,#210,.T.);
#271 = ORIENTED_EDGE('',*,*,#111,.F.);
#272 = PLANE('',#273);
#273 = AXIS2_PLACEMENT_3D('',#274,#275,#276);
#274 = CARTESIAN_POINT('',(94.,-84.5,62.));
#275 = DIRECTION('',(-0.,-0.,1.));
#276 = DIRECTION('',(-1.,0.,0.));
#277 = ADVANCED_FACE('',(#278),#296,.F.);
#278 = FACE_BOUND('',#279,.T.);
#279 = EDGE_LOOP('',(#280,#288,#294,#295));
#280 = ORIENTED_EDGE('',*,*,#281,.F.);
#281 = EDGE_CURVE('',#282,#32,#284,.T.);
#282 = VERTEX_POINT('',#283);
#283 = CARTESIAN_POINT('',(94.,-84.5,-46.));
#284 = LINE('',#285,#286);
#285 = CARTESIAN_POINT('',(94.,-84.5,-46.));
#286 = VECTOR('',#287,1.);
#287 = DIRECTION('',(-0.,-1.,-0.));
#288 = ORIENTED_EDGE('',*,*,#289,.T.);
#289 = EDGE_CURVE('',#282,#194,#290,.T.);
#290 = LINE('',#291,#292);
#291 = CARTESIAN_POINT('',(94.,-84.5,-46.));
#292 = VECTOR('',#293,1.);
#293 = DIRECTION('',(1.,-0.,-0.));
#294 = ORIENTED_EDGE('',*,*,#203,.T.);
#295 = ORIENTED_EDGE('',*,*,#31,.F.);
#296 = PLANE('',#297);
#297 = AXIS2_PLACEMENT_3D('',#298,#299,#300);
#298 = CARTESIAN_POINT('',(94.,-84.5,-46.));
#299 = DIRECTION('',(-0.,-0.,1.));
#300 = DIRECTION('',(-1.,0.,0.));
#301 = ADVANCED_FACE('',(#302,#443,#493,#543,#593,#627),#661,.T.);
#302 = FACE_BOUND('',#303,.F.);
#303 = EDGE_LOOP('',(#304,#312,#320,#329,#338,#346,#354,#362,#371,#380,
    #388,#394,#395,#396,#404,#412,#418,#419,#427,#435,#441,#442));
#304 = ORIENTED_EDGE('',*,*,#305,.T.);
#305 = EDGE_CURVE('',#282,#306,#308,.T.);
#306 = VERTEX_POINT('',#307);
#307 = CARTESIAN_POINT('',(94.,-84.5,-42.69225));
#308 = LINE('',#309,#310);
#309 = CARTESIAN_POINT('',(94.,-84.5,-46.));
#310 = VECTOR('',#311,1.);
#311 = DIRECTION('',(-0.,-0.,1.));
#312 = ORIENTED_EDGE('',*,*,#313,.F.);
#313 = EDGE_CURVE('',#314,#306,#316,.T.);
#314 = VERTEX_POINT('',#315);
#315 = CARTESIAN_POINT('',(94.,-81.06341264653,-42.69225));
#316 = LINE('',#317,#318);
#317 = CARTESIAN_POINT('',(94.,-75.31885,-42.69225));
#318 = VECTOR('',#319,1.);
#319 = DIRECTION('',(-0.,-1.,-0.));
#320 = ORIENTED_EDGE('',*,*,#321,.F.);
#321 = EDGE_CURVE('',#322,#314,#324,.T.);
#322 = VERTEX_POINT('',#323);
#323 = CARTESIAN_POINT('',(94.,-75.31885,-31.69225));
#324 = CIRCLE('',#325,7.);
#325 = AXIS2_PLACEMENT_3D('',#326,#327,#328);
#326 = CARTESIAN_POINT('',(94.,-75.31885,-38.69225));
#327 = DIRECTION('',(-1.,-0.,-0.));
#328 = DIRECTION('',(-0.,-0.,1.));
#329 = ORIENTED_EDGE('',*,*,#330,.F.);
#330 = EDGE_CURVE('',#331,#322,#333,.T.);
#331 = VERTEX_POINT('',#332);
#332 = CARTESIAN_POINT('',(94.,-81.06341264653,-34.69225));
#333 = CIRCLE('',#334,7.);
#334 = AXIS2_PLACEMENT_3D('',#335,#336,#337);
#335 = CARTESIAN_POINT('',(94.,-75.31885,-38.69225));
#336 = DIRECTION('',(-1.,-0.,-0.));
#337 = DIRECTION('',(-0.,-0.,1.));
#338 = ORIENTED_EDGE('',*,*,#339,.T.);
#339 = EDGE_CURVE('',#331,#340,#342,.T.);
#340 = VERTEX_POINT('',#341);
#341 = CARTESIAN_POINT('',(94.,-84.5,-34.69225));
#342 = LINE('',#343,#344);
#343 = CARTESIAN_POINT('',(94.,-75.31885,-34.69225));
#344 = VECTOR('',#345,1.);
#345 = DIRECTION('',(-0.,-1.,-0.));
#346 = ORIENTED_EDGE('',*,*,#347,.T.);
#347 = EDGE_CURVE('',#340,#348,#350,.T.);
#348 = VERTEX_POINT('',#349);
#349 = CARTESIAN_POINT('',(94.,-84.5,50.69225));
#350 = LINE('',#351,#352);
#351 = CARTESIAN_POINT('',(94.,-84.5,-46.));
#352 = VECTOR('',#353,1.);
#353 = DIRECTION('',(-0.,-0.,1.));
#354 = ORIENTED_EDGE('',*,*,#355,.F.);
#355 = EDGE_CURVE('',#356,#348,#358,.T.);
#356 = VERTEX_POINT('',#357);
#357 = CARTESIAN_POINT('',(94.,-81.06341264653,50.69225));
#358 = LINE('',#359,#360);
#359 = CARTESIAN_POINT('',(94.,-75.31885,50.69225));
#360 = VECTOR('',#361,1.);
#361 = DIRECTION('',(-0.,-1.,-0.));
#362 = ORIENTED_EDGE('',*,*,#363,.F.);
#363 = EDGE_CURVE('',#364,#356,#366,.T.);
#364 = VERTEX_POINT('',#365);
#365 = CARTESIAN_POINT('',(94.,-75.31885,61.69225));
#366 = CIRCLE('',#367,7.);
#367 = AXIS2_PLACEMENT_3D('',#368,#369,#370);
#368 = CARTESIAN_POINT('',(94.,-75.31885,54.69225));
#369 = DIRECTION('',(-1.,-0.,-0.));
#370 = DIRECTION('',(-0.,-0.,1.));
#371 = ORIENTED_EDGE('',*,*,#372,.F.);
#372 = EDGE_CURVE('',#373,#364,#375,.T.);
#373 = VERTEX_POINT('',#374);
#374 = CARTESIAN_POINT('',(94.,-81.06341264653,58.69225));
#375 = CIRCLE('',#376,7.);
#376 = AXIS2_PLACEMENT_3D('',#377,#378,#379);
#377 = CARTESIAN_POINT('',(94.,-75.31885,54.69225));
#378 = DIRECTION('',(-1.,-0.,-0.));
#379 = DIRECTION('',(-0.,-0.,1.));
#380 = ORIENTED_EDGE('',*,*,#381,.T.);
#381 = EDGE_CURVE('',#373,#382,#384,.T.);
#382 = VERTEX_POINT('',#383);
#383 = CARTESIAN_POINT('',(94.,-84.5,58.69225));
#384 = LINE('',#385,#386);
#385 = CARTESIAN_POINT('',(94.,-75.31885,58.69225));
#386 = VECTOR('',#387,1.);
#387 = DIRECTION('',(-0.,-1.,-0.));
#388 = ORIENTED_EDGE('',*,*,#389,.T.);
#389 = EDGE_CURVE('',#382,#258,#390,.T.);
#390 = LINE('',#391,#392);
#391 = CARTESIAN_POINT('',(94.,-84.5,-46.));
#392 = VECTOR('',#393,1.);
#393 = DIRECTION('',(-0.,-0.,1.));
#394 = ORIENTED_EDGE('',*,*,#257,.T.);
#395 = ORIENTED_EDGE('',*,*,#103,.F.);
#396 = ORIENTED_EDGE('',*,*,#397,.T.);
#397 = EDGE_CURVE('',#96,#398,#400,.T.);
#398 = VERTEX_POINT('',#399);
#399 = CARTESIAN_POINT('',(94.,-93.51885,58.69225));
#400 = LINE('',#401,#402);
#401 = CARTESIAN_POINT('',(94.,-75.31885,58.69225));
#402 = VECTOR('',#403,1.);
#403 = DIRECTION('',(-0.,-1.,-0.));
#404 = ORIENTED_EDGE('',*,*,#405,.F.);
#405 = EDGE_CURVE('',#406,#398,#408,.T.);
#406 = VERTEX_POINT('',#407);
#407 = CARTESIAN_POINT('',(94.,-93.51885,50.69225));
#408 = LINE('',#409,#410);
#409 = CARTESIAN_POINT('',(94.,-93.51885,50.69225));
#410 = VECTOR('',#411,1.);
#411 = DIRECTION('',(-0.,-0.,1.));
#412 = ORIENTED_EDGE('',*,*,#413,.F.);
#413 = EDGE_CURVE('',#72,#406,#414,.T.);
#414 = LINE('',#415,#416);
#415 = CARTESIAN_POINT('',(94.,-75.31885,50.69225));
#416 = VECTOR('',#417,1.);
#417 = DIRECTION('',(-0.,-1.,-0.));
#418 = ORIENTED_EDGE('',*,*,#71,.F.);
#419 = ORIENTED_EDGE('',*,*,#420,.T.);
#420 = EDGE_CURVE('',#64,#421,#423,.T.);
#421 = VERTEX_POINT('',#422);
#422 = CARTESIAN_POINT('',(94.,-93.51885,-34.69225));
#423 = LINE('',#424,#425);
#424 = CARTESIAN_POINT('',(94.,-75.31885,-34.69225));
#425 = VECTOR('',#426,1.);
#426 = DIRECTION('',(-0.,-1.,-0.));
#427 = ORIENTED_EDGE('',*,*,#428,.F.);
#428 = EDGE_CURVE('',#429,#421,#431,.T.);
#429 = VERTEX_POINT('',#430);
#430 = CARTESIAN_POINT('',(94.,-93.51885,-42.69225));
#431 = LINE('',#432,#433);
#432 = CARTESIAN_POINT('',(94.,-93.51885,-42.69225));
#433 = VECTOR('',#434,1.);
#434 = DIRECTION('',(-0.,-0.,1.));
#435 = ORIENTED_EDGE('',*,*,#436,.F.);
#436 = EDGE_CURVE('',#40,#429,#437,.T.);
#437 = LINE('',#438,#439);
#438 = CARTESIAN_POINT('',(94.,-75.31885,-42.69225));
#439 = VECTOR('',#440,1.);
#440 = DIRECTION('',(-0.,-1.,-0.));
#441 = ORIENTED_EDGE('',*,*,#39,.F.);
#442 = ORIENTED_EDGE('',*,*,#281,.F.);
#443 = FACE_BOUND('',#444,.F.);
#444 = EDGE_LOOP('',(#445,#455,#463,#471,#479,#487));
#445 = ORIENTED_EDGE('',*,*,#446,.T.);
#446 = EDGE_CURVE('',#447,#449,#451,.T.);
#447 = VERTEX_POINT('',#448);
#448 = CARTESIAN_POINT('',(94.,-91.9,52.32568421935));
#449 = VERTEX_POINT('',#450);
#450 = CARTESIAN_POINT('',(94.,-91.9,55.67431578065));
#451 = LINE('',#452,#453);
#452 = CARTESIAN_POINT('',(94.,-91.9,30.191435114498));
#453 = VECTOR('',#454,1.);
#454 = DIRECTION('',(-0.,-0.,1.));
#455 = ORIENTED_EDGE('',*,*,#456,.T.);
#456 = EDGE_CURVE('',#449,#457,#459,.T.);
#457 = VERTEX_POINT('',#458);
#458 = CARTESIAN_POINT('',(94.,-89.,57.3486315613));
#459 = LINE('',#460,#461);
#460 = CARTESIAN_POINT('',(94.,-99.86422757668,51.076166845363));
#461 = VECTOR('',#462,1.);
#462 = DIRECTION('',(-0.,0.866025403784,0.5));
#463 = ORIENTED_EDGE('',*,*,#464,.T.);
#464 = EDGE_CURVE('',#457,#465,#467,.T.);
#465 = VERTEX_POINT('',#466);
#466 = CARTESIAN_POINT('',(94.,-86.1,55.67431578065));
#467 = LINE('',#468,#469);
#468 = CARTESIAN_POINT('',(94.,-77.07040555819,50.461076998998));
#469 = VECTOR('',#470,1.);
#470 = DIRECTION('',(0.,0.866025403784,-0.5));
#471 = ORIENTED_EDGE('',*,*,#472,.T.);
#472 = EDGE_CURVE('',#465,#473,#475,.T.);
#473 = VERTEX_POINT('',#474);
#474 = CARTESIAN_POINT('',(94.,-86.1,52.32568421935));
#475 = LINE('',#476,#477);
#476 = CARTESIAN_POINT('',(94.,-86.1,31.865750895148));
#477 = VECTOR('',#478,1.);
#478 = DIRECTION('',(-0.,-0.,-1.));
#479 = ORIENTED_EDGE('',*,*,#480,.T.);
#480 = EDGE_CURVE('',#473,#481,#483,.T.);
#481 = VERTEX_POINT('',#482);
#482 = CARTESIAN_POINT('',(94.,-89.,50.6513684387));
#483 = LINE('',#484,#485);
#484 = CARTESIAN_POINT('',(94.,-95.51422757668,46.890377393739));
#485 = VECTOR('',#486,1.);
#486 = DIRECTION('',(-0.,-0.866025403784,-0.5));
#487 = ORIENTED_EDGE('',*,*,#488,.T.);
#488 = EDGE_CURVE('',#481,#447,#489,.T.);
#489 = LINE('',#490,#491);
#490 = CARTESIAN_POINT('',(94.,-78.52040555819,44.600971766723));
#491 = VECTOR('',#492,1.);
#492 = DIRECTION('',(-0.,-0.866025403784,0.5));
#493 = FACE_BOUND('',#494,.F.);
#494 = EDGE_LOOP('',(#495,#505,#513,#521,#529,#537));
#495 = ORIENTED_EDGE('',*,*,#496,.T.);
#496 = EDGE_CURVE('',#497,#499,#501,.T.);
#497 = VERTEX_POINT('',#498);
#498 = CARTESIAN_POINT('',(94.,-91.9,6.32568421935));
#499 = VERTEX_POINT('',#500);
#500 = CARTESIAN_POINT('',(94.,-91.9,9.67431578065));
#501 = LINE('',#502,#503);
#502 = CARTESIAN_POINT('',(94.,-91.9,7.191435114498));
#503 = VECTOR('',#504,1.);
#504 = DIRECTION('',(-0.,-0.,1.));
#505 = ORIENTED_EDGE('',*,*,#506,.T.);
#506 = EDGE_CURVE('',#499,#507,#509,.T.);
#507 = VERTEX_POINT('',#508);
#508 = CARTESIAN_POINT('',(94.,-89.,11.3486315613));
#509 = LINE('',#510,#511);
#510 = CARTESIAN_POINT('',(94.,-89.90493543316,10.826166845363));
#511 = VECTOR('',#512,1.);
#512 = DIRECTION('',(-0.,0.866025403784,0.5));
#513 = ORIENTED_EDGE('',*,*,#514,.T.);
#514 = EDGE_CURVE('',#507,#515,#517,.T.);
#515 = VERTEX_POINT('',#516);
#516 = CARTESIAN_POINT('',(94.,-86.1,9.67431578065));
#517 = LINE('',#518,#519);
#518 = CARTESIAN_POINT('',(94.,-87.02969770171,10.211076998998));
#519 = VECTOR('',#520,1.);
#520 = DIRECTION('',(0.,0.866025403784,-0.5));
#521 = ORIENTED_EDGE('',*,*,#522,.T.);
#522 = EDGE_CURVE('',#515,#523,#525,.T.);
#523 = VERTEX_POINT('',#524);
#524 = CARTESIAN_POINT('',(94.,-86.1,6.32568421935));
#525 = LINE('',#526,#527);
#526 = CARTESIAN_POINT('',(94.,-86.1,8.865750895148));
#527 = VECTOR('',#528,1.);
#528 = DIRECTION('',(-0.,-0.,-1.));
#529 = ORIENTED_EDGE('',*,*,#530,.T.);
#530 = EDGE_CURVE('',#523,#531,#533,.T.);
#531 = VERTEX_POINT('',#532);
#532 = CARTESIAN_POINT('',(94.,-89.,4.6513684387));
#533 = LINE('',#534,#535);
#534 = CARTESIAN_POINT('',(94.,-85.55493543316,6.640377393739));
#535 = VECTOR('',#536,1.);
#536 = DIRECTION('',(-0.,-0.866025403784,-0.5));
#537 = ORIENTED_EDGE('',*,*,#538,.T.);
#538 = EDGE_CURVE('',#531,#497,#539,.T.);
#539 = LINE('',#540,#541);
#540 = CARTESIAN_POINT('',(94.,-88.47969770171,4.350971766723));
#541 = VECTOR('',#542,1.);
#542 = DIRECTION('',(-0.,-0.866025403784,0.5));
#543 = FACE_BOUND('',#544,.F.);
#544 = EDGE_LOOP('',(#545,#555,#563,#571,#579,#587));
#545 = ORIENTED_EDGE('',*,*,#546,.T.);
#546 = EDGE_CURVE('',#547,#549,#551,.T.);
#547 = VERTEX_POINT('',#548);
#548 = CARTESIAN_POINT('',(94.,-91.9,-39.67431578065));
#549 = VERTEX_POINT('',#550);
#550 = CARTESIAN_POINT('',(94.,-91.9,-36.32568421935));
#551 = LINE('',#552,#553);
#552 = CARTESIAN_POINT('',(94.,-91.9,-15.8085648855));
#553 = VECTOR('',#554,1.);
#554 = DIRECTION('',(-0.,-0.,1.));
#555 = ORIENTED_EDGE('',*,*,#556,.T.);
#556 = EDGE_CURVE('',#549,#557,#559,.T.);
#557 = VERTEX_POINT('',#558);
#558 = CARTESIAN_POINT('',(94.,-89.,-34.6513684387));
#559 = LINE('',#560,#561);
#560 = CARTESIAN_POINT('',(94.,-79.94564328964,-29.42383315463));
#561 = VECTOR('',#562,1.);
#562 = DIRECTION('',(-0.,0.866025403784,0.5));
#563 = ORIENTED_EDGE('',*,*,#564,.T.);
#564 = EDGE_CURVE('',#557,#565,#567,.T.);
#565 = VERTEX_POINT('',#566);
#566 = CARTESIAN_POINT('',(94.,-86.1,-36.32568421935));
#567 = LINE('',#568,#569);
#568 = CARTESIAN_POINT('',(94.,-96.98898984523,-30.038923001));
#569 = VECTOR('',#570,1.);
#570 = DIRECTION('',(0.,0.866025403784,-0.5));
#571 = ORIENTED_EDGE('',*,*,#572,.T.);
#572 = EDGE_CURVE('',#565,#573,#575,.T.);
#573 = VERTEX_POINT('',#574);
#574 = CARTESIAN_POINT('',(94.,-86.1,-39.67431578065));
#575 = LINE('',#576,#577);
#576 = CARTESIAN_POINT('',(94.,-86.1,-14.13424910485));
#577 = VECTOR('',#578,1.);
#578 = DIRECTION('',(-0.,-0.,-1.));
#579 = ORIENTED_EDGE('',*,*,#580,.T.);
#580 = EDGE_CURVE('',#573,#581,#583,.T.);
#581 = VERTEX_POINT('',#582);
#582 = CARTESIAN_POINT('',(94.,-89.,-41.3486315613));
#583 = LINE('',#584,#585);
#584 = CARTESIAN_POINT('',(94.,-75.59564328964,-33.60962260626));
#585 = VECTOR('',#586,1.);
#586 = DIRECTION('',(-0.,-0.866025403784,-0.5));
#587 = ORIENTED_EDGE('',*,*,#588,.T.);
#588 = EDGE_CURVE('',#581,#547,#589,.T.);
#589 = LINE('',#590,#591);
#590 = CARTESIAN_POINT('',(94.,-98.43898984523,-35.89902823327));
#591 = VECTOR('',#592,1.);
#592 = DIRECTION('',(-0.,-0.866025403784,0.5));
#593 = FACE_BOUND('',#594,.F.);
#594 = EDGE_LOOP('',(#595,#605,#613,#621));
#595 = ORIENTED_EDGE('',*,*,#596,.F.);
#596 = EDGE_CURVE('',#597,#599,#601,.T.);
#597 = VERTEX_POINT('',#598);
#598 = CARTESIAN_POINT('',(94.,-71.91885,58.09225));
#599 = VERTEX_POINT('',#600);
#600 = CARTESIAN_POINT('',(94.,-78.71885,58.09225));
#601 = LINE('',#602,#603);
#602 = CARTESIAN_POINT('',(94.,-78.78251375658,58.09225));
#603 = VECTOR('',#604,1.);
#604 = DIRECTION('',(-0.,-1.,-0.));
#605 = ORIENTED_EDGE('',*,*,#606,.T.);
#606 = EDGE_CURVE('',#597,#607,#609,.T.);
#607 = VERTEX_POINT('',#608);
#608 = CARTESIAN_POINT('',(94.,-71.91885,51.29225));
#609 = LINE('',#610,#611);
#610 = CARTESIAN_POINT('',(94.,-71.91885,29.674718004823));
#611 = VECTOR('',#612,1.);
#612 = DIRECTION('',(-0.,-0.,-1.));
#613 = ORIENTED_EDGE('',*,*,#614,.T.);
#614 = EDGE_CURVE('',#607,#615,#617,.T.);
#615 = VERTEX_POINT('',#616);
#616 = CARTESIAN_POINT('',(94.,-78.71885,51.29225));
#617 = LINE('',#618,#619);
#618 = CARTESIAN_POINT('',(94.,-78.78251375658,51.29225));
#619 = VECTOR('',#620,1.);
#620 = DIRECTION('',(-0.,-1.,-0.));
#621 = ORIENTED_EDGE('',*,*,#622,.F.);
#622 = EDGE_CURVE('',#599,#615,#623,.T.);
#623 = LINE('',#624,#625);
#624 = CARTESIAN_POINT('',(94.,-78.71885,29.674718004823));
#625 = VECTOR('',#626,1.);
#626 = DIRECTION('',(-0.,-0.,-1.));
#627 = FACE_BOUND('',#628,.F.);
#628 = EDGE_LOOP('',(#629,#639,#647,#655));
#629 = ORIENTED_EDGE('',*,*,#630,.F.);
#630 = EDGE_CURVE('',#631,#633,#635,.T.);
#631 = VERTEX_POINT('',#632);
#632 = CARTESIAN_POINT('',(94.,-71.91885,-35.29225));
#633 = VERTEX_POINT('',#634);
#634 = CARTESIAN_POINT('',(94.,-78.71885,-35.29225));
#635 = LINE('',#636,#637);
#636 = CARTESIAN_POINT('',(94.,-78.78251375658,-35.29225));
#637 = VECTOR('',#638,1.);
#638 = DIRECTION('',(-0.,-1.,-0.));
#639 = ORIENTED_EDGE('',*,*,#640,.T.);
#640 = EDGE_CURVE('',#631,#641,#643,.T.);
#641 = VERTEX_POINT('',#642);
#642 = CARTESIAN_POINT('',(94.,-71.91885,-42.09225));
#643 = LINE('',#644,#645);
#644 = CARTESIAN_POINT('',(94.,-71.91885,-17.01753199517));
#645 = VECTOR('',#646,1.);
#646 = DIRECTION('',(-0.,-0.,-1.));
#647 = ORIENTED_EDGE('',*,*,#648,.T.);
#648 = EDGE_CURVE('',#641,#649,#651,.T.);
#649 = VERTEX_POINT('',#650);
#650 = CARTESIAN_POINT('',(94.,-78.71885,-42.09225));
#651 = LINE('',#652,#653);
#652 = CARTESIAN_POINT('',(94.,-78.78251375658,-42.09225));
#653 = VECTOR('',#654,1.);
#654 = DIRECTION('',(-0.,-1.,-0.));
#655 = ORIENTED_EDGE('',*,*,#656,.F.);
#656 = EDGE_CURVE('',#633,#649,#657,.T.);
#657 = LINE('',#658,#659);
#658 = CARTESIAN_POINT('',(94.,-78.71885,-17.01753199517));
#659 = VECTOR('',#660,1.);
#660 = DIRECTION('',(-0.,-0.,-1.));
#661 = PLANE('',#662);
#662 = AXIS2_PLACEMENT_3D('',#663,#664,#665);
#663 = CARTESIAN_POINT('',(94.,-85.64617751316,8.057186009646));
#664 = DIRECTION('',(-1.,0.,-0.));
#665 = DIRECTION('',(0.,0.,1.));
#666 = ADVANCED_FACE('',(#667),#685,.T.);
#667 = FACE_BOUND('',#668,.F.);
#668 = EDGE_LOOP('',(#669,#670,#671,#679));
#669 = ORIENTED_EDGE('',*,*,#397,.F.);
#670 = ORIENTED_EDGE('',*,*,#95,.T.);
#671 = ORIENTED_EDGE('',*,*,#672,.T.);
#672 = EDGE_CURVE('',#88,#673,#675,.T.);
#673 = VERTEX_POINT('',#674);
#674 = CARTESIAN_POINT('',(97.,-93.51885,58.69225));
#675 = LINE('',#676,#677);
#676 = CARTESIAN_POINT('',(97.,-75.31885,58.69225));
#677 = VECTOR('',#678,1.);
#678 = DIRECTION('',(-0.,-1.,-0.));
#679 = ORIENTED_EDGE('',*,*,#680,.F.);
#680 = EDGE_CURVE('',#398,#673,#681,.T.);
#681 = LINE('',#682,#683);
#682 = CARTESIAN_POINT('',(94.,-93.51885,58.69225));
#683 = VECTOR('',#684,1.);
#684 = DIRECTION('',(1.,-0.,-0.));
#685 = PLANE('',#686);
#686 = AXIS2_PLACEMENT_3D('',#687,#688,#689);
#687 = CARTESIAN_POINT('',(94.,-75.31885,58.69225));
#688 = DIRECTION('',(-0.,-0.,1.));
#689 = DIRECTION('',(-1.,0.,0.));
#690 = ADVANCED_FACE('',(#691),#709,.F.);
#691 = FACE_BOUND('',#692,.T.);
#692 = EDGE_LOOP('',(#693,#694,#695,#703));
#693 = ORIENTED_EDGE('',*,*,#436,.F.);
#694 = ORIENTED_EDGE('',*,*,#47,.T.);
#695 = ORIENTED_EDGE('',*,*,#696,.T.);
#696 = EDGE_CURVE('',#48,#697,#699,.T.);
#697 = VERTEX_POINT('',#698);
#698 = CARTESIAN_POINT('',(97.,-93.51885,-42.69225));
#699 = LINE('',#700,#701);
#700 = CARTESIAN_POINT('',(97.,-75.31885,-42.69225));
#701 = VECTOR('',#702,1.);
#702 = DIRECTION('',(-0.,-1.,-0.));
#703 = ORIENTED_EDGE('',*,*,#704,.F.);
#704 = EDGE_CURVE('',#429,#697,#705,.T.);
#705 = LINE('',#706,#707);
#706 = CARTESIAN_POINT('',(94.,-93.51885,-42.69225));
#707 = VECTOR('',#708,1.);
#708 = DIRECTION('',(1.,-0.,-0.));
#709 = PLANE('',#710);
#710 = AXIS2_PLACEMENT_3D('',#711,#712,#713);
#711 = CARTESIAN_POINT('',(94.,-75.31885,-42.69225));
#712 = DIRECTION('',(-0.,-0.,1.));
#713 = DIRECTION('',(-1.,0.,0.));
#714 = ADVANCED_FACE('',(#715),#733,.T.);
#715 = FACE_BOUND('',#716,.F.);
#716 = EDGE_LOOP('',(#717,#718,#726,#732));
#717 = ORIENTED_EDGE('',*,*,#87,.T.);
#718 = ORIENTED_EDGE('',*,*,#719,.T.);
#719 = EDGE_CURVE('',#80,#720,#722,.T.);
#720 = VERTEX_POINT('',#721);
#721 = CARTESIAN_POINT('',(97.,-93.51885,50.69225));
#722 = LINE('',#723,#724);
#723 = CARTESIAN_POINT('',(97.,-75.31885,50.69225));
#724 = VECTOR('',#725,1.);
#725 = DIRECTION('',(-0.,-1.,-0.));
#726 = ORIENTED_EDGE('',*,*,#727,.T.);
#727 = EDGE_CURVE('',#720,#673,#728,.T.);
#728 = LINE('',#729,#730);
#729 = CARTESIAN_POINT('',(97.,-93.51885,50.69225));
#730 = VECTOR('',#731,1.);
#731 = DIRECTION('',(-0.,-0.,1.));
#732 = ORIENTED_EDGE('',*,*,#672,.F.);
#733 = PLANE('',#734);
#734 = AXIS2_PLACEMENT_3D('',#735,#736,#737);
#735 = CARTESIAN_POINT('',(97.,-75.31885,50.69225));
#736 = DIRECTION('',(1.,-0.,-0.));
#737 = DIRECTION('',(0.,0.,-1.));
#738 = ADVANCED_FACE('',(#739),#757,.T.);
#739 = FACE_BOUND('',#740,.F.);
#740 = EDGE_LOOP('',(#741,#742,#743,#751));
#741 = ORIENTED_EDGE('',*,*,#55,.T.);
#742 = ORIENTED_EDGE('',*,*,#696,.T.);
#743 = ORIENTED_EDGE('',*,*,#744,.T.);
#744 = EDGE_CURVE('',#697,#745,#747,.T.);
#745 = VERTEX_POINT('',#746);
#746 = CARTESIAN_POINT('',(97.,-93.51885,-34.69225));
#747 = LINE('',#748,#749);
#748 = CARTESIAN_POINT('',(97.,-93.51885,-42.69225));
#749 = VECTOR('',#750,1.);
#750 = DIRECTION('',(-0.,-0.,1.));
#751 = ORIENTED_EDGE('',*,*,#752,.F.);
#752 = EDGE_CURVE('',#56,#745,#753,.T.);
#753 = LINE('',#754,#755);
#754 = CARTESIAN_POINT('',(97.,-75.31885,-34.69225));
#755 = VECTOR('',#756,1.);
#756 = DIRECTION('',(-0.,-1.,-0.));
#757 = PLANE('',#758);
#758 = AXIS2_PLACEMENT_3D('',#759,#760,#761);
#759 = CARTESIAN_POINT('',(97.,-75.31885,-42.69225));
#760 = DIRECTION('',(1.,-0.,-0.));
#761 = DIRECTION('',(0.,0.,-1.));
#762 = ADVANCED_FACE('',(#763),#774,.F.);
#763 = FACE_BOUND('',#764,.T.);
#764 = EDGE_LOOP('',(#765,#766,#767,#768));
#765 = ORIENTED_EDGE('',*,*,#413,.F.);
#766 = ORIENTED_EDGE('',*,*,#79,.T.);
#767 = ORIENTED_EDGE('',*,*,#719,.T.);
#768 = ORIENTED_EDGE('',*,*,#769,.F.);
#769 = EDGE_CURVE('',#406,#720,#770,.T.);
#770 = LINE('',#771,#772);
#771 = CARTESIAN_POINT('',(94.,-93.51885,50.69225));
#772 = VECTOR('',#773,1.);
#773 = DIRECTION('',(1.,-0.,-0.));
#774 = PLANE('',#775);
#775 = AXIS2_PLACEMENT_3D('',#776,#777,#778);
#776 = CARTESIAN_POINT('',(94.,-75.31885,50.69225));
#777 = DIRECTION('',(-0.,-0.,1.));
#778 = DIRECTION('',(-1.,0.,0.));
#779 = ADVANCED_FACE('',(#780),#791,.T.);
#780 = FACE_BOUND('',#781,.F.);
#781 = EDGE_LOOP('',(#782,#783,#784,#785));
#782 = ORIENTED_EDGE('',*,*,#420,.F.);
#783 = ORIENTED_EDGE('',*,*,#63,.T.);
#784 = ORIENTED_EDGE('',*,*,#752,.T.);
#785 = ORIENTED_EDGE('',*,*,#786,.F.);
#786 = EDGE_CURVE('',#421,#745,#787,.T.);
#787 = LINE('',#788,#789);
#788 = CARTESIAN_POINT('',(94.,-93.51885,-34.69225));
#789 = VECTOR('',#790,1.);
#790 = DIRECTION('',(1.,-0.,-0.));
#791 = PLANE('',#792);
#792 = AXIS2_PLACEMENT_3D('',#793,#794,#795);
#793 = CARTESIAN_POINT('',(94.,-75.31885,-34.69225));
#794 = DIRECTION('',(-0.,-0.,1.));
#795 = DIRECTION('',(-1.,0.,0.));
#796 = ADVANCED_FACE('',(#797),#822,.F.);
#797 = FACE_BOUND('',#798,.T.);
#798 = EDGE_LOOP('',(#799,#807,#815,#821));
#799 = ORIENTED_EDGE('',*,*,#800,.F.);
#800 = EDGE_CURVE('',#801,#120,#803,.T.);
#801 = VERTEX_POINT('',#802);
#802 = CARTESIAN_POINT('',(98.,-84.5,0.));
#803 = LINE('',#804,#805);
#804 = CARTESIAN_POINT('',(98.,-84.3,0.));
#805 = VECTOR('',#806,1.);
#806 = DIRECTION('',(-0.,-1.,-0.));
#807 = ORIENTED_EDGE('',*,*,#808,.T.);
#808 = EDGE_CURVE('',#801,#809,#811,.T.);
#809 = VERTEX_POINT('',#810);
#810 = CARTESIAN_POINT('',(112.,-84.5,0.));
#811 = LINE('',#812,#813);
#812 = CARTESIAN_POINT('',(96.,-84.5,0.));
#813 = VECTOR('',#814,1.);
#814 = DIRECTION('',(1.,-0.,-0.));
#815 = ORIENTED_EDGE('',*,*,#816,.T.);
#816 = EDGE_CURVE('',#809,#122,#817,.T.);
#817 = LINE('',#818,#819);
#818 = CARTESIAN_POINT('',(112.,-84.3,0.));
#819 = VECTOR('',#820,1.);
#820 = DIRECTION('',(-0.,-1.,-0.));
#821 = ORIENTED_EDGE('',*,*,#119,.F.);
#822 = PLANE('',#823);
#823 = AXIS2_PLACEMENT_3D('',#824,#825,#826);
#824 = CARTESIAN_POINT('',(98.,-84.3,0.));
#825 = DIRECTION('',(-0.,-0.,1.));
#826 = DIRECTION('',(-1.,0.,0.));
#827 = ADVANCED_FACE('',(#828),#846,.F.);
#828 = FACE_BOUND('',#829,.T.);
#829 = EDGE_LOOP('',(#830,#831,#839,#845));
#830 = ORIENTED_EDGE('',*,*,#816,.F.);
#831 = ORIENTED_EDGE('',*,*,#832,.T.);
#832 = EDGE_CURVE('',#809,#833,#835,.T.);
#833 = VERTEX_POINT('',#834);
#834 = CARTESIAN_POINT('',(112.,-84.5,-30.));
#835 = LINE('',#836,#837);
#836 = CARTESIAN_POINT('',(112.,-84.5,-38.));
#837 = VECTOR('',#838,1.);
#838 = DIRECTION('',(-0.,-0.,-1.));
#839 = ORIENTED_EDGE('',*,*,#840,.T.);
#840 = EDGE_CURVE('',#833,#138,#841,.T.);
#841 = LINE('',#842,#843);
#842 = CARTESIAN_POINT('',(112.,-84.3,-30.));
#843 = VECTOR('',#844,1.);
#844 = DIRECTION('',(-0.,-1.,-0.));
#845 = ORIENTED_EDGE('',*,*,#145,.F.);
#846 = PLANE('',#847);
#847 = AXIS2_PLACEMENT_3D('',#848,#849,#850);
#848 = CARTESIAN_POINT('',(112.,-84.3,-30.));
#849 = DIRECTION('',(1.,-0.,-0.));
#850 = DIRECTION('',(0.,0.,-1.));
#851 = ADVANCED_FACE('',(#852),#870,.T.);
#852 = FACE_BOUND('',#853,.F.);
#853 = EDGE_LOOP('',(#854,#862,#868,#869));
#854 = ORIENTED_EDGE('',*,*,#855,.F.);
#855 = EDGE_CURVE('',#856,#130,#858,.T.);
#856 = VERTEX_POINT('',#857);
#857 = CARTESIAN_POINT('',(98.,-84.5,-30.));
#858 = LINE('',#859,#860);
#859 = CARTESIAN_POINT('',(98.,-84.3,-30.));
#860 = VECTOR('',#861,1.);
#861 = DIRECTION('',(-0.,-1.,-0.));
#862 = ORIENTED_EDGE('',*,*,#863,.T.);
#863 = EDGE_CURVE('',#856,#833,#864,.T.);
#864 = LINE('',#865,#866);
#865 = CARTESIAN_POINT('',(96.,-84.5,-30.));
#866 = VECTOR('',#867,1.);
#867 = DIRECTION('',(1.,-0.,-0.));
#868 = ORIENTED_EDGE('',*,*,#840,.T.);
#869 = ORIENTED_EDGE('',*,*,#137,.F.);
#870 = PLANE('',#871);
#871 = AXIS2_PLACEMENT_3D('',#872,#873,#874);
#872 = CARTESIAN_POINT('',(98.,-84.3,-30.));
#873 = DIRECTION('',(-0.,-0.,1.));
#874 = DIRECTION('',(-1.,0.,0.));
#875 = ADVANCED_FACE('',(#876),#887,.T.);
#876 = FACE_BOUND('',#877,.F.);
#877 = EDGE_LOOP('',(#878,#879,#885,#886));
#878 = ORIENTED_EDGE('',*,*,#800,.F.);
#879 = ORIENTED_EDGE('',*,*,#880,.T.);
#880 = EDGE_CURVE('',#801,#856,#881,.T.);
#881 = LINE('',#882,#883);
#882 = CARTESIAN_POINT('',(98.,-84.5,-38.));
#883 = VECTOR('',#884,1.);
#884 = DIRECTION('',(-0.,-0.,-1.));
#885 = ORIENTED_EDGE('',*,*,#855,.T.);
#886 = ORIENTED_EDGE('',*,*,#129,.F.);
#887 = PLANE('',#888);
#888 = AXIS2_PLACEMENT_3D('',#889,#890,#891);
#889 = CARTESIAN_POINT('',(98.,-84.3,-30.));
#890 = DIRECTION('',(1.,-0.,-0.));
#891 = DIRECTION('',(0.,0.,-1.));
#892 = ADVANCED_FACE('',(#893),#918,.F.);
#893 = FACE_BOUND('',#894,.T.);
#894 = EDGE_LOOP('',(#895,#903,#911,#917));
#895 = ORIENTED_EDGE('',*,*,#896,.F.);
#896 = EDGE_CURVE('',#897,#154,#899,.T.);
#897 = VERTEX_POINT('',#898);
#898 = CARTESIAN_POINT('',(98.,-84.5,46.));
#899 = LINE('',#900,#901);
#900 = CARTESIAN_POINT('',(98.,-84.3,46.));
#901 = VECTOR('',#902,1.);
#902 = DIRECTION('',(-0.,-1.,-0.));
#903 = ORIENTED_EDGE('',*,*,#904,.T.);
#904 = EDGE_CURVE('',#897,#905,#907,.T.);
#905 = VERTEX_POINT('',#906);
#906 = CARTESIAN_POINT('',(112.,-84.5,46.));
#907 = LINE('',#908,#909);
#908 = CARTESIAN_POINT('',(96.,-84.5,46.));
#909 = VECTOR('',#910,1.);
#910 = DIRECTION('',(1.,-0.,-0.));
#911 = ORIENTED_EDGE('',*,*,#912,.T.);
#912 = EDGE_CURVE('',#905,#156,#913,.T.);
#913 = LINE('',#914,#915);
#914 = CARTESIAN_POINT('',(112.,-84.3,46.));
#915 = VECTOR('',#916,1.);
#916 = DIRECTION('',(-0.,-1.,-0.));
#917 = ORIENTED_EDGE('',*,*,#153,.F.);
#918 = PLANE('',#919);
#919 = AXIS2_PLACEMENT_3D('',#920,#921,#922);
#920 = CARTESIAN_POINT('',(98.,-84.3,46.));
#921 = DIRECTION('',(-0.,-0.,1.));
#922 = DIRECTION('',(-1.,0.,0.));
#923 = ADVANCED_FACE('',(#924),#942,.F.);
#924 = FACE_BOUND('',#925,.T.);
#925 = EDGE_LOOP('',(#926,#927,#935,#941));
#926 = ORIENTED_EDGE('',*,*,#912,.F.);
#927 = ORIENTED_EDGE('',*,*,#928,.T.);
#928 = EDGE_CURVE('',#905,#929,#931,.T.);
#929 = VERTEX_POINT('',#930);
#930 = CARTESIAN_POINT('',(112.,-84.5,16.));
#931 = LINE('',#932,#933);
#932 = CARTESIAN_POINT('',(112.,-84.5,-15.));
#933 = VECTOR('',#934,1.);
#934 = DIRECTION('',(-0.,-0.,-1.));
#935 = ORIENTED_EDGE('',*,*,#936,.T.);
#936 = EDGE_CURVE('',#929,#172,#937,.T.);
#937 = LINE('',#938,#939);
#938 = CARTESIAN_POINT('',(112.,-84.3,16.));
#939 = VECTOR('',#940,1.);
#940 = DIRECTION('',(-0.,-1.,-0.));
#941 = ORIENTED_EDGE('',*,*,#179,.F.);
#942 = PLANE('',#943);
#943 = AXIS2_PLACEMENT_3D('',#944,#945,#946);
#944 = CARTESIAN_POINT('',(112.,-84.3,16.));
#945 = DIRECTION('',(1.,-0.,-0.));
#946 = DIRECTION('',(0.,0.,-1.));
#947 = ADVANCED_FACE('',(#948),#966,.T.);
#948 = FACE_BOUND('',#949,.F.);
#949 = EDGE_LOOP('',(#950,#958,#964,#965));
#950 = ORIENTED_EDGE('',*,*,#951,.F.);
#951 = EDGE_CURVE('',#952,#164,#954,.T.);
#952 = VERTEX_POINT('',#953);
#953 = CARTESIAN_POINT('',(98.,-84.5,16.));
#954 = LINE('',#955,#956);
#955 = CARTESIAN_POINT('',(98.,-84.3,16.));
#956 = VECTOR('',#957,1.);
#957 = DIRECTION('',(-0.,-1.,-0.));
#958 = ORIENTED_EDGE('',*,*,#959,.T.);
#959 = EDGE_CURVE('',#952,#929,#960,.T.);
#960 = LINE('',#961,#962);
#961 = CARTESIAN_POINT('',(96.,-84.5,16.));
#962 = VECTOR('',#963,1.);
#963 = DIRECTION('',(1.,-0.,-0.));
#964 = ORIENTED_EDGE('',*,*,#936,.T.);
#965 = ORIENTED_EDGE('',*,*,#171,.F.);
#966 = PLANE('',#967);
#967 = AXIS2_PLACEMENT_3D('',#968,#969,#970);
#968 = CARTESIAN_POINT('',(98.,-84.3,16.));
#969 = DIRECTION('',(-0.,-0.,1.));
#970 = DIRECTION('',(-1.,0.,0.));
#971 = ADVANCED_FACE('',(#972),#983,.T.);
#972 = FACE_BOUND('',#973,.F.);
#973 = EDGE_LOOP('',(#974,#975,#981,#982));
#974 = ORIENTED_EDGE('',*,*,#896,.F.);
#975 = ORIENTED_EDGE('',*,*,#976,.T.);
#976 = EDGE_CURVE('',#897,#952,#977,.T.);
#977 = LINE('',#978,#979);
#978 = CARTESIAN_POINT('',(98.,-84.5,-15.));
#979 = VECTOR('',#980,1.);
#980 = DIRECTION('',(-0.,-0.,-1.));
#981 = ORIENTED_EDGE('',*,*,#951,.T.);
#982 = ORIENTED_EDGE('',*,*,#163,.F.);
#983 = PLANE('',#984);
#984 = AXIS2_PLACEMENT_3D('',#985,#986,#987);
#985 = CARTESIAN_POINT('',(98.,-84.3,16.));
#986 = DIRECTION('',(1.,-0.,-0.));
#987 = DIRECTION('',(0.,0.,-1.));
#988 = ADVANCED_FACE('',(#989,#1041,#1047),#1053,.F.);
#989 = FACE_BOUND('',#990,.T.);
#990 = EDGE_LOOP('',(#991,#992,#993,#994,#1002,#1010,#1016,#1017,#1025,
    #1033,#1039,#1040));
#991 = ORIENTED_EDGE('',*,*,#193,.F.);
#992 = ORIENTED_EDGE('',*,*,#289,.F.);
#993 = ORIENTED_EDGE('',*,*,#305,.T.);
#994 = ORIENTED_EDGE('',*,*,#995,.T.);
#995 = EDGE_CURVE('',#306,#996,#998,.T.);
#996 = VERTEX_POINT('',#997);
#997 = CARTESIAN_POINT('',(97.,-84.5,-42.69225));
#998 = LINE('',#999,#1000);
#999 = CARTESIAN_POINT('',(94.,-84.5,-42.69225));
#1000 = VECTOR('',#1001,1.);
#1001 = DIRECTION('',(1.,-0.,-0.));
#1002 = ORIENTED_EDGE('',*,*,#1003,.F.);
#1003 = EDGE_CURVE('',#1004,#996,#1006,.T.);
#1004 = VERTEX_POINT('',#1005);
#1005 = CARTESIAN_POINT('',(97.,-84.5,-34.69225));
#1006 = LINE('',#1007,#1008);
#1007 = CARTESIAN_POINT('',(97.,-84.5,-44.346125));
#1008 = VECTOR('',#1009,1.);
#1009 = DIRECTION('',(-0.,-0.,-1.));
#1010 = ORIENTED_EDGE('',*,*,#1011,.F.);
#1011 = EDGE_CURVE('',#340,#1004,#1012,.T.);
#1012 = LINE('',#1013,#1014);
#1013 = CARTESIAN_POINT('',(94.,-84.5,-34.69225));
#1014 = VECTOR('',#1015,1.);
#1015 = DIRECTION('',(1.,-0.,-0.));
#1016 = ORIENTED_EDGE('',*,*,#347,.T.);
#1017 = ORIENTED_EDGE('',*,*,#1018,.T.);
#1018 = EDGE_CURVE('',#348,#1019,#1021,.T.);
#1019 = VERTEX_POINT('',#1020);
#1020 = CARTESIAN_POINT('',(97.,-84.5,50.69225));
#1021 = LINE('',#1022,#1023);
#1022 = CARTESIAN_POINT('',(94.,-84.5,50.69225));
#1023 = VECTOR('',#1024,1.);
#1024 = DIRECTION('',(1.,-0.,-0.));
#1025 = ORIENTED_EDGE('',*,*,#1026,.F.);
#1026 = EDGE_CURVE('',#1027,#1019,#1029,.T.);
#1027 = VERTEX_POINT('',#1028);
#1028 = CARTESIAN_POINT('',(97.,-84.5,58.69225));
#1029 = LINE('',#1030,#1031);
#1030 = CARTESIAN_POINT('',(97.,-84.5,2.346125));
#1031 = VECTOR('',#1032,1.);
#1032 = DIRECTION('',(-0.,-0.,-1.));
#1033 = ORIENTED_EDGE('',*,*,#1034,.F.);
#1034 = EDGE_CURVE('',#382,#1027,#1035,.T.);
#1035 = LINE('',#1036,#1037);
#1036 = CARTESIAN_POINT('',(94.,-84.5,58.69225));
#1037 = VECTOR('',#1038,1.);
#1038 = DIRECTION('',(1.,-0.,-0.));
#1039 = ORIENTED_EDGE('',*,*,#389,.T.);
#1040 = ORIENTED_EDGE('',*,*,#265,.T.);
#1041 = FACE_BOUND('',#1042,.T.);
#1042 = EDGE_LOOP('',(#1043,#1044,#1045,#1046));
#1043 = ORIENTED_EDGE('',*,*,#808,.F.);
#1044 = ORIENTED_EDGE('',*,*,#880,.T.);
#1045 = ORIENTED_EDGE('',*,*,#863,.T.);
#1046 = ORIENTED_EDGE('',*,*,#832,.F.);
#1047 = FACE_BOUND('',#1048,.T.);
#1048 = EDGE_LOOP('',(#1049,#1050,#1051,#1052));
#1049 = ORIENTED_EDGE('',*,*,#904,.F.);
#1050 = ORIENTED_EDGE('',*,*,#976,.T.);
#1051 = ORIENTED_EDGE('',*,*,#959,.T.);
#1052 = ORIENTED_EDGE('',*,*,#928,.F.);
#1053 = PLANE('',#1054);
#1054 = AXIS2_PLACEMENT_3D('',#1055,#1056,#1057);
#1055 = CARTESIAN_POINT('',(94.,-84.5,-46.));
#1056 = DIRECTION('',(-0.,-1.,-0.));
#1057 = DIRECTION('',(0.,0.,-1.));
#1058 = ADVANCED_FACE('',(#1059),#1078,.F.);
#1059 = FACE_BOUND('',#1060,.T.);
#1060 = EDGE_LOOP('',(#1061,#1062,#1070,#1077));
#1061 = ORIENTED_EDGE('',*,*,#218,.F.);
#1062 = ORIENTED_EDGE('',*,*,#1063,.F.);
#1063 = EDGE_CURVE('',#1064,#219,#1066,.T.);
#1064 = VERTEX_POINT('',#1065);
#1065 = CARTESIAN_POINT('',(110.,-89.,-36.3));
#1066 = LINE('',#1067,#1068);
#1067 = CARTESIAN_POINT('',(93.8,-89.,-36.3));
#1068 = VECTOR('',#1069,1.);
#1069 = DIRECTION('',(1.,-0.,-0.));
#1070 = ORIENTED_EDGE('',*,*,#1071,.T.);
#1071 = EDGE_CURVE('',#1064,#1064,#1072,.T.);
#1072 = CIRCLE('',#1073,1.7);
#1073 = AXIS2_PLACEMENT_3D('',#1074,#1075,#1076);
#1074 = CARTESIAN_POINT('',(110.,-89.,-38.));
#1075 = DIRECTION('',(-1.,-0.,-0.));
#1076 = DIRECTION('',(-0.,-0.,1.));
#1077 = ORIENTED_EDGE('',*,*,#1063,.T.);
#1078 = CYLINDRICAL_SURFACE('',#1079,1.7);
#1079 = AXIS2_PLACEMENT_3D('',#1080,#1081,#1082);
#1080 = CARTESIAN_POINT('',(93.8,-89.,-38.));
#1081 = DIRECTION('',(1.,-0.,-0.));
#1082 = DIRECTION('',(-0.,-0.,1.));
#1083 = ADVANCED_FACE('',(#1084),#1103,.F.);
#1084 = FACE_BOUND('',#1085,.T.);
#1085 = EDGE_LOOP('',(#1086,#1087,#1095,#1102));
#1086 = ORIENTED_EDGE('',*,*,#229,.F.);
#1087 = ORIENTED_EDGE('',*,*,#1088,.F.);
#1088 = EDGE_CURVE('',#1089,#230,#1091,.T.);
#1089 = VERTEX_POINT('',#1090);
#1090 = CARTESIAN_POINT('',(110.,-89.,9.7));
#1091 = LINE('',#1092,#1093);
#1092 = CARTESIAN_POINT('',(93.8,-89.,9.7));
#1093 = VECTOR('',#1094,1.);
#1094 = DIRECTION('',(1.,-0.,-0.));
#1095 = ORIENTED_EDGE('',*,*,#1096,.T.);
#1096 = EDGE_CURVE('',#1089,#1089,#1097,.T.);
#1097 = CIRCLE('',#1098,1.7);
#1098 = AXIS2_PLACEMENT_3D('',#1099,#1100,#1101);
#1099 = CARTESIAN_POINT('',(110.,-89.,8.));
#1100 = DIRECTION('',(-1.,-0.,-0.));
#1101 = DIRECTION('',(-0.,-0.,1.));
#1102 = ORIENTED_EDGE('',*,*,#1088,.T.);
#1103 = CYLINDRICAL_SURFACE('',#1104,1.7);
#1104 = AXIS2_PLACEMENT_3D('',#1105,#1106,#1107);
#1105 = CARTESIAN_POINT('',(93.8,-89.,8.));
#1106 = DIRECTION('',(1.,-0.,-0.));
#1107 = DIRECTION('',(-0.,-0.,1.));
#1108 = ADVANCED_FACE('',(#1109),#1128,.F.);
#1109 = FACE_BOUND('',#1110,.T.);
#1110 = EDGE_LOOP('',(#1111,#1112,#1120,#1127));
#1111 = ORIENTED_EDGE('',*,*,#240,.F.);
#1112 = ORIENTED_EDGE('',*,*,#1113,.F.);
#1113 = EDGE_CURVE('',#1114,#241,#1116,.T.);
#1114 = VERTEX_POINT('',#1115);
#1115 = CARTESIAN_POINT('',(110.,-89.,55.7));
#1116 = LINE('',#1117,#1118);
#1117 = CARTESIAN_POINT('',(93.8,-89.,55.7));
#1118 = VECTOR('',#1119,1.);
#1119 = DIRECTION('',(1.,-0.,-0.));
#1120 = ORIENTED_EDGE('',*,*,#1121,.T.);
#1121 = EDGE_CURVE('',#1114,#1114,#1122,.T.);
#1122 = CIRCLE('',#1123,1.7);
#1123 = AXIS2_PLACEMENT_3D('',#1124,#1125,#1126);
#1124 = CARTESIAN_POINT('',(110.,-89.,54.));
#1125 = DIRECTION('',(-1.,-0.,-0.));
#1126 = DIRECTION('',(-0.,-0.,1.));
#1127 = ORIENTED_EDGE('',*,*,#1113,.T.);
#1128 = CYLINDRICAL_SURFACE('',#1129,1.7);
#1129 = AXIS2_PLACEMENT_3D('',#1130,#1131,#1132);
#1130 = CARTESIAN_POINT('',(93.8,-89.,54.));
#1131 = DIRECTION('',(1.,-0.,-0.));
#1132 = DIRECTION('',(-0.,-0.,1.));
#1133 = ADVANCED_FACE('',(#1134),#1152,.F.);
#1134 = FACE_BOUND('',#1135,.T.);
#1135 = EDGE_LOOP('',(#1136,#1137,#1145,#1151));
#1136 = ORIENTED_EDGE('',*,*,#313,.F.);
#1137 = ORIENTED_EDGE('',*,*,#1138,.T.);
#1138 = EDGE_CURVE('',#314,#1139,#1141,.T.);
#1139 = VERTEX_POINT('',#1140);
#1140 = CARTESIAN_POINT('',(97.,-81.06341264653,-42.69225));
#1141 = LINE('',#1142,#1143);
#1142 = CARTESIAN_POINT('',(94.,-81.06341264653,-42.69225));
#1143 = VECTOR('',#1144,1.);
#1144 = DIRECTION('',(1.,-0.,-0.));
#1145 = ORIENTED_EDGE('',*,*,#1146,.T.);
#1146 = EDGE_CURVE('',#1139,#996,#1147,.T.);
#1147 = LINE('',#1148,#1149);
#1148 = CARTESIAN_POINT('',(97.,-75.31885,-42.69225));
#1149 = VECTOR('',#1150,1.);
#1150 = DIRECTION('',(-0.,-1.,-0.));
#1151 = ORIENTED_EDGE('',*,*,#995,.F.);
#1152 = PLANE('',#1153);
#1153 = AXIS2_PLACEMENT_3D('',#1154,#1155,#1156);
#1154 = CARTESIAN_POINT('',(94.,-75.31885,-42.69225));
#1155 = DIRECTION('',(-0.,-0.,1.));
#1156 = DIRECTION('',(-1.,0.,0.));
#1157 = ADVANCED_FACE('',(#1158),#1187,.T.);
#1158 = FACE_BOUND('',#1159,.F.);
#1159 = EDGE_LOOP('',(#1160,#1161,#1162,#1171,#1180,#1186));
#1160 = ORIENTED_EDGE('',*,*,#321,.T.);
#1161 = ORIENTED_EDGE('',*,*,#1138,.T.);
#1162 = ORIENTED_EDGE('',*,*,#1163,.F.);
#1163 = EDGE_CURVE('',#1164,#1139,#1166,.T.);
#1164 = VERTEX_POINT('',#1165);
#1165 = CARTESIAN_POINT('',(97.,-75.31885,-31.69225));
#1166 = CIRCLE('',#1167,7.);
#1167 = AXIS2_PLACEMENT_3D('',#1168,#1169,#1170);
#1168 = CARTESIAN_POINT('',(97.,-75.31885,-38.69225));
#1169 = DIRECTION('',(-1.,-0.,-0.));
#1170 = DIRECTION('',(-0.,-0.,1.));
#1171 = ORIENTED_EDGE('',*,*,#1172,.F.);
#1172 = EDGE_CURVE('',#1173,#1164,#1175,.T.);
#1173 = VERTEX_POINT('',#1174);
#1174 = CARTESIAN_POINT('',(97.,-81.06341264653,-34.69225));
#1175 = CIRCLE('',#1176,7.);
#1176 = AXIS2_PLACEMENT_3D('',#1177,#1178,#1179);
#1177 = CARTESIAN_POINT('',(97.,-75.31885,-38.69225));
#1178 = DIRECTION('',(-1.,-0.,-0.));
#1179 = DIRECTION('',(-0.,-0.,1.));
#1180 = ORIENTED_EDGE('',*,*,#1181,.F.);
#1181 = EDGE_CURVE('',#331,#1173,#1182,.T.);
#1182 = LINE('',#1183,#1184);
#1183 = CARTESIAN_POINT('',(94.,-81.06341264653,-34.69225));
#1184 = VECTOR('',#1185,1.);
#1185 = DIRECTION('',(1.,-0.,-0.));
#1186 = ORIENTED_EDGE('',*,*,#330,.T.);
#1187 = CYLINDRICAL_SURFACE('',#1188,7.);
#1188 = AXIS2_PLACEMENT_3D('',#1189,#1190,#1191);
#1189 = CARTESIAN_POINT('',(94.,-75.31885,-38.69225));
#1190 = DIRECTION('',(1.,-0.,-0.));
#1191 = DIRECTION('',(-0.,-0.,1.));
#1192 = ADVANCED_FACE('',(#1193),#1199,.T.);
#1193 = FACE_BOUND('',#1194,.F.);
#1194 = EDGE_LOOP('',(#1195,#1196,#1197,#1198));
#1195 = ORIENTED_EDGE('',*,*,#704,.F.);
#1196 = ORIENTED_EDGE('',*,*,#428,.T.);
#1197 = ORIENTED_EDGE('',*,*,#786,.T.);
#1198 = ORIENTED_EDGE('',*,*,#744,.F.);
#1199 = PLANE('',#1200);
#1200 = AXIS2_PLACEMENT_3D('',#1201,#1202,#1203);
#1201 = CARTESIAN_POINT('',(94.,-93.51885,-42.69225));
#1202 = DIRECTION('',(-0.,-1.,-0.));
#1203 = DIRECTION('',(0.,0.,-1.));
#1204 = ADVANCED_FACE('',(#1205),#1216,.T.);
#1205 = FACE_BOUND('',#1206,.F.);
#1206 = EDGE_LOOP('',(#1207,#1208,#1209,#1215));
#1207 = ORIENTED_EDGE('',*,*,#339,.F.);
#1208 = ORIENTED_EDGE('',*,*,#1181,.T.);
#1209 = ORIENTED_EDGE('',*,*,#1210,.T.);
#1210 = EDGE_CURVE('',#1173,#1004,#1211,.T.);
#1211 = LINE('',#1212,#1213);
#1212 = CARTESIAN_POINT('',(97.,-75.31885,-34.69225));
#1213 = VECTOR('',#1214,1.);
#1214 = DIRECTION('',(-0.,-1.,-0.));
#1215 = ORIENTED_EDGE('',*,*,#1011,.F.);
#1216 = PLANE('',#1217);
#1217 = AXIS2_PLACEMENT_3D('',#1218,#1219,#1220);
#1218 = CARTESIAN_POINT('',(94.,-75.31885,-34.69225));
#1219 = DIRECTION('',(-0.,-0.,1.));
#1220 = DIRECTION('',(-1.,0.,0.));
#1221 = ADVANCED_FACE('',(#1222),#1240,.F.);
#1222 = FACE_BOUND('',#1223,.T.);
#1223 = EDGE_LOOP('',(#1224,#1225,#1233,#1239));
#1224 = ORIENTED_EDGE('',*,*,#355,.F.);
#1225 = ORIENTED_EDGE('',*,*,#1226,.T.);
#1226 = EDGE_CURVE('',#356,#1227,#1229,.T.);
#1227 = VERTEX_POINT('',#1228);
#1228 = CARTESIAN_POINT('',(97.,-81.06341264653,50.69225));
#1229 = LINE('',#1230,#1231);
#1230 = CARTESIAN_POINT('',(94.,-81.06341264653,50.69225));
#1231 = VECTOR('',#1232,1.);
#1232 = DIRECTION('',(1.,-0.,-0.));
#1233 = ORIENTED_EDGE('',*,*,#1234,.T.);
#1234 = EDGE_CURVE('',#1227,#1019,#1235,.T.);
#1235 = LINE('',#1236,#1237);
#1236 = CARTESIAN_POINT('',(97.,-75.31885,50.69225));
#1237 = VECTOR('',#1238,1.);
#1238 = DIRECTION('',(-0.,-1.,-0.));
#1239 = ORIENTED_EDGE('',*,*,#1018,.F.);
#1240 = PLANE('',#1241);
#1241 = AXIS2_PLACEMENT_3D('',#1242,#1243,#1244);
#1242 = CARTESIAN_POINT('',(94.,-75.31885,50.69225));
#1243 = DIRECTION('',(-0.,-0.,1.));
#1244 = DIRECTION('',(-1.,0.,0.));
#1245 = ADVANCED_FACE('',(#1246),#1275,.T.);
#1246 = FACE_BOUND('',#1247,.F.);
#1247 = EDGE_LOOP('',(#1248,#1249,#1250,#1259,#1268,#1274));
#1248 = ORIENTED_EDGE('',*,*,#363,.T.);
#1249 = ORIENTED_EDGE('',*,*,#1226,.T.);
#1250 = ORIENTED_EDGE('',*,*,#1251,.F.);
#1251 = EDGE_CURVE('',#1252,#1227,#1254,.T.);
#1252 = VERTEX_POINT('',#1253);
#1253 = CARTESIAN_POINT('',(97.,-75.31885,61.69225));
#1254 = CIRCLE('',#1255,7.);
#1255 = AXIS2_PLACEMENT_3D('',#1256,#1257,#1258);
#1256 = CARTESIAN_POINT('',(97.,-75.31885,54.69225));
#1257 = DIRECTION('',(-1.,-0.,-0.));
#1258 = DIRECTION('',(-0.,-0.,1.));
#1259 = ORIENTED_EDGE('',*,*,#1260,.F.);
#1260 = EDGE_CURVE('',#1261,#1252,#1263,.T.);
#1261 = VERTEX_POINT('',#1262);
#1262 = CARTESIAN_POINT('',(97.,-81.06341264653,58.69225));
#1263 = CIRCLE('',#1264,7.);
#1264 = AXIS2_PLACEMENT_3D('',#1265,#1266,#1267);
#1265 = CARTESIAN_POINT('',(97.,-75.31885,54.69225));
#1266 = DIRECTION('',(-1.,-0.,-0.));
#1267 = DIRECTION('',(-0.,-0.,1.));
#1268 = ORIENTED_EDGE('',*,*,#1269,.F.);
#1269 = EDGE_CURVE('',#373,#1261,#1270,.T.);
#1270 = LINE('',#1271,#1272);
#1271 = CARTESIAN_POINT('',(94.,-81.06341264653,58.69225));
#1272 = VECTOR('',#1273,1.);
#1273 = DIRECTION('',(1.,-0.,-0.));
#1274 = ORIENTED_EDGE('',*,*,#372,.T.);
#1275 = CYLINDRICAL_SURFACE('',#1276,7.);
#1276 = AXIS2_PLACEMENT_3D('',#1277,#1278,#1279);
#1277 = CARTESIAN_POINT('',(94.,-75.31885,54.69225));
#1278 = DIRECTION('',(1.,-0.,-0.));
#1279 = DIRECTION('',(-0.,-0.,1.));
#1280 = ADVANCED_FACE('',(#1281),#1287,.T.);
#1281 = FACE_BOUND('',#1282,.F.);
#1282 = EDGE_LOOP('',(#1283,#1284,#1285,#1286));
#1283 = ORIENTED_EDGE('',*,*,#769,.F.);
#1284 = ORIENTED_EDGE('',*,*,#405,.T.);
#1285 = ORIENTED_EDGE('',*,*,#680,.T.);
#1286 = ORIENTED_EDGE('',*,*,#727,.F.);
#1287 = PLANE('',#1288);
#1288 = AXIS2_PLACEMENT_3D('',#1289,#1290,#1291);
#1289 = CARTESIAN_POINT('',(94.,-93.51885,50.69225));
#1290 = DIRECTION('',(-0.,-1.,-0.));
#1291 = DIRECTION('',(0.,0.,-1.));
#1292 = ADVANCED_FACE('',(#1293),#1304,.T.);
#1293 = FACE_BOUND('',#1294,.F.);
#1294 = EDGE_LOOP('',(#1295,#1296,#1297,#1303));
#1295 = ORIENTED_EDGE('',*,*,#381,.F.);
#1296 = ORIENTED_EDGE('',*,*,#1269,.T.);
#1297 = ORIENTED_EDGE('',*,*,#1298,.T.);
#1298 = EDGE_CURVE('',#1261,#1027,#1299,.T.);
#1299 = LINE('',#1300,#1301);
#1300 = CARTESIAN_POINT('',(97.,-75.31885,58.69225));
#1301 = VECTOR('',#1302,1.);
#1302 = DIRECTION('',(-0.,-1.,-0.));
#1303 = ORIENTED_EDGE('',*,*,#1034,.F.);
#1304 = PLANE('',#1305);
#1305 = AXIS2_PLACEMENT_3D('',#1306,#1307,#1308);
#1306 = CARTESIAN_POINT('',(94.,-75.31885,58.69225));
#1307 = DIRECTION('',(-0.,-0.,1.));
#1308 = DIRECTION('',(-1.,0.,0.));
#1309 = ADVANCED_FACE('',(#1310),#1335,.T.);
#1310 = FACE_BOUND('',#1311,.F.);
#1311 = EDGE_LOOP('',(#1312,#1313,#1321,#1329));
#1312 = ORIENTED_EDGE('',*,*,#446,.F.);
#1313 = ORIENTED_EDGE('',*,*,#1314,.T.);
#1314 = EDGE_CURVE('',#447,#1315,#1317,.T.);
#1315 = VERTEX_POINT('',#1316);
#1316 = CARTESIAN_POINT('',(110.,-91.9,52.32568421935));
#1317 = LINE('',#1318,#1319);
#1318 = CARTESIAN_POINT('',(93.8,-91.9,52.32568421935));
#1319 = VECTOR('',#1320,1.);
#1320 = DIRECTION('',(1.,-0.,-0.));
#1321 = ORIENTED_EDGE('',*,*,#1322,.T.);
#1322 = EDGE_CURVE('',#1315,#1323,#1325,.T.);
#1323 = VERTEX_POINT('',#1324);
#1324 = CARTESIAN_POINT('',(110.,-91.9,55.67431578065));
#1325 = LINE('',#1326,#1327);
#1326 = CARTESIAN_POINT('',(110.,-91.9,52.32568421935));
#1327 = VECTOR('',#1328,1.);
#1328 = DIRECTION('',(-0.,-0.,1.));
#1329 = ORIENTED_EDGE('',*,*,#1330,.F.);
#1330 = EDGE_CURVE('',#449,#1323,#1331,.T.);
#1331 = LINE('',#1332,#1333);
#1332 = CARTESIAN_POINT('',(93.8,-91.9,55.67431578065));
#1333 = VECTOR('',#1334,1.);
#1334 = DIRECTION('',(1.,-0.,-0.));
#1335 = PLANE('',#1336);
#1336 = AXIS2_PLACEMENT_3D('',#1337,#1338,#1339);
#1337 = CARTESIAN_POINT('',(93.8,-91.9,52.32568421935));
#1338 = DIRECTION('',(-0.,1.,-0.));
#1339 = DIRECTION('',(0.,0.,-1.));
#1340 = ADVANCED_FACE('',(#1341),#1359,.T.);
#1341 = FACE_BOUND('',#1342,.F.);
#1342 = EDGE_LOOP('',(#1343,#1344,#1352,#1358));
#1343 = ORIENTED_EDGE('',*,*,#488,.F.);
#1344 = ORIENTED_EDGE('',*,*,#1345,.T.);
#1345 = EDGE_CURVE('',#481,#1346,#1348,.T.);
#1346 = VERTEX_POINT('',#1347);
#1347 = CARTESIAN_POINT('',(110.,-89.,50.6513684387));
#1348 = LINE('',#1349,#1350);
#1349 = CARTESIAN_POINT('',(93.8,-89.,50.6513684387));
#1350 = VECTOR('',#1351,1.);
#1351 = DIRECTION('',(1.,-0.,-0.));
#1352 = ORIENTED_EDGE('',*,*,#1353,.T.);
#1353 = EDGE_CURVE('',#1346,#1315,#1354,.T.);
#1354 = LINE('',#1355,#1356);
#1355 = CARTESIAN_POINT('',(110.,-89.,50.6513684387));
#1356 = VECTOR('',#1357,1.);
#1357 = DIRECTION('',(-0.,-0.866025403784,0.5));
#1358 = ORIENTED_EDGE('',*,*,#1314,.F.);
#1359 = PLANE('',#1360);
#1360 = AXIS2_PLACEMENT_3D('',#1361,#1362,#1363);
#1361 = CARTESIAN_POINT('',(93.8,-89.,50.6513684387));
#1362 = DIRECTION('',(-0.,0.5,0.866025403784));
#1363 = DIRECTION('',(0.,0.866025403784,-0.5));
#1364 = ADVANCED_FACE('',(#1365),#1383,.T.);
#1365 = FACE_BOUND('',#1366,.F.);
#1366 = EDGE_LOOP('',(#1367,#1368,#1376,#1382));
#1367 = ORIENTED_EDGE('',*,*,#480,.F.);
#1368 = ORIENTED_EDGE('',*,*,#1369,.T.);
#1369 = EDGE_CURVE('',#473,#1370,#1372,.T.);
#1370 = VERTEX_POINT('',#1371);
#1371 = CARTESIAN_POINT('',(110.,-86.1,52.32568421935));
#1372 = LINE('',#1373,#1374);
#1373 = CARTESIAN_POINT('',(93.8,-86.1,52.32568421935));
#1374 = VECTOR('',#1375,1.);
#1375 = DIRECTION('',(1.,-0.,-0.));
#1376 = ORIENTED_EDGE('',*,*,#1377,.T.);
#1377 = EDGE_CURVE('',#1370,#1346,#1378,.T.);
#1378 = LINE('',#1379,#1380);
#1379 = CARTESIAN_POINT('',(110.,-86.1,52.32568421935));
#1380 = VECTOR('',#1381,1.);
#1381 = DIRECTION('',(-0.,-0.866025403784,-0.5));
#1382 = ORIENTED_EDGE('',*,*,#1345,.F.);
#1383 = PLANE('',#1384);
#1384 = AXIS2_PLACEMENT_3D('',#1385,#1386,#1387);
#1385 = CARTESIAN_POINT('',(93.8,-86.1,52.32568421935));
#1386 = DIRECTION('',(-0.,-0.5,0.866025403784));
#1387 = DIRECTION('',(0.,0.866025403784,0.5));
#1388 = ADVANCED_FACE('',(#1389),#1407,.T.);
#1389 = FACE_BOUND('',#1390,.F.);
#1390 = EDGE_LOOP('',(#1391,#1392,#1400,#1406));
#1391 = ORIENTED_EDGE('',*,*,#472,.F.);
#1392 = ORIENTED_EDGE('',*,*,#1393,.T.);
#1393 = EDGE_CURVE('',#465,#1394,#1396,.T.);
#1394 = VERTEX_POINT('',#1395);
#1395 = CARTESIAN_POINT('',(110.,-86.1,55.67431578065));
#1396 = LINE('',#1397,#1398);
#1397 = CARTESIAN_POINT('',(93.8,-86.1,55.67431578065));
#1398 = VECTOR('',#1399,1.);
#1399 = DIRECTION('',(1.,-0.,-0.));
#1400 = ORIENTED_EDGE('',*,*,#1401,.T.);
#1401 = EDGE_CURVE('',#1394,#1370,#1402,.T.);
#1402 = LINE('',#1403,#1404);
#1403 = CARTESIAN_POINT('',(110.,-86.1,55.67431578065));
#1404 = VECTOR('',#1405,1.);
#1405 = DIRECTION('',(-0.,-0.,-1.));
#1406 = ORIENTED_EDGE('',*,*,#1369,.F.);
#1407 = PLANE('',#1408);
#1408 = AXIS2_PLACEMENT_3D('',#1409,#1410,#1411);
#1409 = CARTESIAN_POINT('',(93.8,-86.1,55.67431578065));
#1410 = DIRECTION('',(-0.,-1.,-0.));
#1411 = DIRECTION('',(0.,0.,1.));
#1412 = ADVANCED_FACE('',(#1413),#1431,.T.);
#1413 = FACE_BOUND('',#1414,.F.);
#1414 = EDGE_LOOP('',(#1415,#1416,#1424,#1430));
#1415 = ORIENTED_EDGE('',*,*,#464,.F.);
#1416 = ORIENTED_EDGE('',*,*,#1417,.T.);
#1417 = EDGE_CURVE('',#457,#1418,#1420,.T.);
#1418 = VERTEX_POINT('',#1419);
#1419 = CARTESIAN_POINT('',(110.,-89.,57.3486315613));
#1420 = LINE('',#1421,#1422);
#1421 = CARTESIAN_POINT('',(93.8,-89.,57.3486315613));
#1422 = VECTOR('',#1423,1.);
#1423 = DIRECTION('',(1.,-0.,-0.));
#1424 = ORIENTED_EDGE('',*,*,#1425,.T.);
#1425 = EDGE_CURVE('',#1418,#1394,#1426,.T.);
#1426 = LINE('',#1427,#1428);
#1427 = CARTESIAN_POINT('',(110.,-89.,57.3486315613));
#1428 = VECTOR('',#1429,1.);
#1429 = DIRECTION('',(0.,0.866025403784,-0.5));
#1430 = ORIENTED_EDGE('',*,*,#1393,.F.);
#1431 = PLANE('',#1432);
#1432 = AXIS2_PLACEMENT_3D('',#1433,#1434,#1435);
#1433 = CARTESIAN_POINT('',(93.8,-89.,57.3486315613));
#1434 = DIRECTION('',(-0.,-0.5,-0.866025403784));
#1435 = DIRECTION('',(-0.,-0.866025403784,0.5));
#1436 = ADVANCED_FACE('',(#1437),#1448,.T.);
#1437 = FACE_BOUND('',#1438,.F.);
#1438 = EDGE_LOOP('',(#1439,#1440,#1441,#1447));
#1439 = ORIENTED_EDGE('',*,*,#456,.F.);
#1440 = ORIENTED_EDGE('',*,*,#1330,.T.);
#1441 = ORIENTED_EDGE('',*,*,#1442,.T.);
#1442 = EDGE_CURVE('',#1323,#1418,#1443,.T.);
#1443 = LINE('',#1444,#1445);
#1444 = CARTESIAN_POINT('',(110.,-91.9,55.67431578065));
#1445 = VECTOR('',#1446,1.);
#1446 = DIRECTION('',(-0.,0.866025403784,0.5));
#1447 = ORIENTED_EDGE('',*,*,#1417,.F.);
#1448 = PLANE('',#1449);
#1449 = AXIS2_PLACEMENT_3D('',#1450,#1451,#1452);
#1450 = CARTESIAN_POINT('',(93.8,-91.9,55.67431578065));
#1451 = DIRECTION('',(0.,0.5,-0.866025403784));
#1452 = DIRECTION('',(0.,-0.866025403784,-0.5));
#1453 = ADVANCED_FACE('',(#1454),#1479,.T.);
#1454 = FACE_BOUND('',#1455,.F.);
#1455 = EDGE_LOOP('',(#1456,#1457,#1465,#1473));
#1456 = ORIENTED_EDGE('',*,*,#496,.F.);
#1457 = ORIENTED_EDGE('',*,*,#1458,.T.);
#1458 = EDGE_CURVE('',#497,#1459,#1461,.T.);
#1459 = VERTEX_POINT('',#1460);
#1460 = CARTESIAN_POINT('',(110.,-91.9,6.32568421935));
#1461 = LINE('',#1462,#1463);
#1462 = CARTESIAN_POINT('',(93.8,-91.9,6.32568421935));
#1463 = VECTOR('',#1464,1.);
#1464 = DIRECTION('',(1.,-0.,-0.));
#1465 = ORIENTED_EDGE('',*,*,#1466,.T.);
#1466 = EDGE_CURVE('',#1459,#1467,#1469,.T.);
#1467 = VERTEX_POINT('',#1468);
#1468 = CARTESIAN_POINT('',(110.,-91.9,9.67431578065));
#1469 = LINE('',#1470,#1471);
#1470 = CARTESIAN_POINT('',(110.,-91.9,6.32568421935));
#1471 = VECTOR('',#1472,1.);
#1472 = DIRECTION('',(-0.,-0.,1.));
#1473 = ORIENTED_EDGE('',*,*,#1474,.F.);
#1474 = EDGE_CURVE('',#499,#1467,#1475,.T.);
#1475 = LINE('',#1476,#1477);
#1476 = CARTESIAN_POINT('',(93.8,-91.9,9.67431578065));
#1477 = VECTOR('',#1478,1.);
#1478 = DIRECTION('',(1.,-0.,-0.));
#1479 = PLANE('',#1480);
#1480 = AXIS2_PLACEMENT_3D('',#1481,#1482,#1483);
#1481 = CARTESIAN_POINT('',(93.8,-91.9,6.32568421935));
#1482 = DIRECTION('',(-0.,1.,-0.));
#1483 = DIRECTION('',(0.,0.,-1.));
#1484 = ADVANCED_FACE('',(#1485),#1503,.T.);
#1485 = FACE_BOUND('',#1486,.F.);
#1486 = EDGE_LOOP('',(#1487,#1488,#1496,#1502));
#1487 = ORIENTED_EDGE('',*,*,#538,.F.);
#1488 = ORIENTED_EDGE('',*,*,#1489,.T.);
#1489 = EDGE_CURVE('',#531,#1490,#1492,.T.);
#1490 = VERTEX_POINT('',#1491);
#1491 = CARTESIAN_POINT('',(110.,-89.,4.6513684387));
#1492 = LINE('',#1493,#1494);
#1493 = CARTESIAN_POINT('',(93.8,-89.,4.6513684387));
#1494 = VECTOR('',#1495,1.);
#1495 = DIRECTION('',(1.,-0.,-0.));
#1496 = ORIENTED_EDGE('',*,*,#1497,.T.);
#1497 = EDGE_CURVE('',#1490,#1459,#1498,.T.);
#1498 = LINE('',#1499,#1500);
#1499 = CARTESIAN_POINT('',(110.,-89.,4.6513684387));
#1500 = VECTOR('',#1501,1.);
#1501 = DIRECTION('',(-0.,-0.866025403784,0.5));
#1502 = ORIENTED_EDGE('',*,*,#1458,.F.);
#1503 = PLANE('',#1504);
#1504 = AXIS2_PLACEMENT_3D('',#1505,#1506,#1507);
#1505 = CARTESIAN_POINT('',(93.8,-89.,4.6513684387));
#1506 = DIRECTION('',(-0.,0.5,0.866025403784));
#1507 = DIRECTION('',(0.,0.866025403784,-0.5));
#1508 = ADVANCED_FACE('',(#1509),#1527,.T.);
#1509 = FACE_BOUND('',#1510,.F.);
#1510 = EDGE_LOOP('',(#1511,#1512,#1520,#1526));
#1511 = ORIENTED_EDGE('',*,*,#530,.F.);
#1512 = ORIENTED_EDGE('',*,*,#1513,.T.);
#1513 = EDGE_CURVE('',#523,#1514,#1516,.T.);
#1514 = VERTEX_POINT('',#1515);
#1515 = CARTESIAN_POINT('',(110.,-86.1,6.32568421935));
#1516 = LINE('',#1517,#1518);
#1517 = CARTESIAN_POINT('',(93.8,-86.1,6.32568421935));
#1518 = VECTOR('',#1519,1.);
#1519 = DIRECTION('',(1.,-0.,-0.));
#1520 = ORIENTED_EDGE('',*,*,#1521,.T.);
#1521 = EDGE_CURVE('',#1514,#1490,#1522,.T.);
#1522 = LINE('',#1523,#1524);
#1523 = CARTESIAN_POINT('',(110.,-86.1,6.32568421935));
#1524 = VECTOR('',#1525,1.);
#1525 = DIRECTION('',(-0.,-0.866025403784,-0.5));
#1526 = ORIENTED_EDGE('',*,*,#1489,.F.);
#1527 = PLANE('',#1528);
#1528 = AXIS2_PLACEMENT_3D('',#1529,#1530,#1531);
#1529 = CARTESIAN_POINT('',(93.8,-86.1,6.32568421935));
#1530 = DIRECTION('',(-0.,-0.5,0.866025403784));
#1531 = DIRECTION('',(0.,0.866025403784,0.5));
#1532 = ADVANCED_FACE('',(#1533),#1551,.T.);
#1533 = FACE_BOUND('',#1534,.F.);
#1534 = EDGE_LOOP('',(#1535,#1536,#1544,#1550));
#1535 = ORIENTED_EDGE('',*,*,#522,.F.);
#1536 = ORIENTED_EDGE('',*,*,#1537,.T.);
#1537 = EDGE_CURVE('',#515,#1538,#1540,.T.);
#1538 = VERTEX_POINT('',#1539);
#1539 = CARTESIAN_POINT('',(110.,-86.1,9.67431578065));
#1540 = LINE('',#1541,#1542);
#1541 = CARTESIAN_POINT('',(93.8,-86.1,9.67431578065));
#1542 = VECTOR('',#1543,1.);
#1543 = DIRECTION('',(1.,-0.,-0.));
#1544 = ORIENTED_EDGE('',*,*,#1545,.T.);
#1545 = EDGE_CURVE('',#1538,#1514,#1546,.T.);
#1546 = LINE('',#1547,#1548);
#1547 = CARTESIAN_POINT('',(110.,-86.1,9.67431578065));
#1548 = VECTOR('',#1549,1.);
#1549 = DIRECTION('',(-0.,-0.,-1.));
#1550 = ORIENTED_EDGE('',*,*,#1513,.F.);
#1551 = PLANE('',#1552);
#1552 = AXIS2_PLACEMENT_3D('',#1553,#1554,#1555);
#1553 = CARTESIAN_POINT('',(93.8,-86.1,9.67431578065));
#1554 = DIRECTION('',(-0.,-1.,-0.));
#1555 = DIRECTION('',(0.,0.,1.));
#1556 = ADVANCED_FACE('',(#1557),#1575,.T.);
#1557 = FACE_BOUND('',#1558,.F.);
#1558 = EDGE_LOOP('',(#1559,#1560,#1568,#1574));
#1559 = ORIENTED_EDGE('',*,*,#514,.F.);
#1560 = ORIENTED_EDGE('',*,*,#1561,.T.);
#1561 = EDGE_CURVE('',#507,#1562,#1564,.T.);
#1562 = VERTEX_POINT('',#1563);
#1563 = CARTESIAN_POINT('',(110.,-89.,11.3486315613));
#1564 = LINE('',#1565,#1566);
#1565 = CARTESIAN_POINT('',(93.8,-89.,11.3486315613));
#1566 = VECTOR('',#1567,1.);
#1567 = DIRECTION('',(1.,-0.,-0.));
#1568 = ORIENTED_EDGE('',*,*,#1569,.T.);
#1569 = EDGE_CURVE('',#1562,#1538,#1570,.T.);
#1570 = LINE('',#1571,#1572);
#1571 = CARTESIAN_POINT('',(110.,-89.,11.3486315613));
#1572 = VECTOR('',#1573,1.);
#1573 = DIRECTION('',(0.,0.866025403784,-0.5));
#1574 = ORIENTED_EDGE('',*,*,#1537,.F.);
#1575 = PLANE('',#1576);
#1576 = AXIS2_PLACEMENT_3D('',#1577,#1578,#1579);
#1577 = CARTESIAN_POINT('',(93.8,-89.,11.3486315613));
#1578 = DIRECTION('',(-0.,-0.5,-0.866025403784));
#1579 = DIRECTION('',(-0.,-0.866025403784,0.5));
#1580 = ADVANCED_FACE('',(#1581),#1592,.T.);
#1581 = FACE_BOUND('',#1582,.F.);
#1582 = EDGE_LOOP('',(#1583,#1584,#1585,#1591));
#1583 = ORIENTED_EDGE('',*,*,#506,.F.);
#1584 = ORIENTED_EDGE('',*,*,#1474,.T.);
#1585 = ORIENTED_EDGE('',*,*,#1586,.T.);
#1586 = EDGE_CURVE('',#1467,#1562,#1587,.T.);
#1587 = LINE('',#1588,#1589);
#1588 = CARTESIAN_POINT('',(110.,-91.9,9.67431578065));
#1589 = VECTOR('',#1590,1.);
#1590 = DIRECTION('',(-0.,0.866025403784,0.5));
#1591 = ORIENTED_EDGE('',*,*,#1561,.F.);
#1592 = PLANE('',#1593);
#1593 = AXIS2_PLACEMENT_3D('',#1594,#1595,#1596);
#1594 = CARTESIAN_POINT('',(93.8,-91.9,9.67431578065));
#1595 = DIRECTION('',(0.,0.5,-0.866025403784));
#1596 = DIRECTION('',(0.,-0.866025403784,-0.5));
#1597 = ADVANCED_FACE('',(#1598),#1623,.T.);
#1598 = FACE_BOUND('',#1599,.F.);
#1599 = EDGE_LOOP('',(#1600,#1601,#1609,#1617));
#1600 = ORIENTED_EDGE('',*,*,#546,.F.);
#1601 = ORIENTED_EDGE('',*,*,#1602,.T.);
#1602 = EDGE_CURVE('',#547,#1603,#1605,.T.);
#1603 = VERTEX_POINT('',#1604);
#1604 = CARTESIAN_POINT('',(110.,-91.9,-39.67431578065));
#1605 = LINE('',#1606,#1607);
#1606 = CARTESIAN_POINT('',(93.8,-91.9,-39.67431578065));
#1607 = VECTOR('',#1608,1.);
#1608 = DIRECTION('',(1.,-0.,-0.));
#1609 = ORIENTED_EDGE('',*,*,#1610,.T.);
#1610 = EDGE_CURVE('',#1603,#1611,#1613,.T.);
#1611 = VERTEX_POINT('',#1612);
#1612 = CARTESIAN_POINT('',(110.,-91.9,-36.32568421935));
#1613 = LINE('',#1614,#1615);
#1614 = CARTESIAN_POINT('',(110.,-91.9,-39.67431578065));
#1615 = VECTOR('',#1616,1.);
#1616 = DIRECTION('',(-0.,-0.,1.));
#1617 = ORIENTED_EDGE('',*,*,#1618,.F.);
#1618 = EDGE_CURVE('',#549,#1611,#1619,.T.);
#1619 = LINE('',#1620,#1621);
#1620 = CARTESIAN_POINT('',(93.8,-91.9,-36.32568421935));
#1621 = VECTOR('',#1622,1.);
#1622 = DIRECTION('',(1.,-0.,-0.));
#1623 = PLANE('',#1624);
#1624 = AXIS2_PLACEMENT_3D('',#1625,#1626,#1627);
#1625 = CARTESIAN_POINT('',(93.8,-91.9,-39.67431578065));
#1626 = DIRECTION('',(-0.,1.,-0.));
#1627 = DIRECTION('',(0.,0.,-1.));
#1628 = ADVANCED_FACE('',(#1629),#1647,.T.);
#1629 = FACE_BOUND('',#1630,.F.);
#1630 = EDGE_LOOP('',(#1631,#1632,#1640,#1646));
#1631 = ORIENTED_EDGE('',*,*,#588,.F.);
#1632 = ORIENTED_EDGE('',*,*,#1633,.T.);
#1633 = EDGE_CURVE('',#581,#1634,#1636,.T.);
#1634 = VERTEX_POINT('',#1635);
#1635 = CARTESIAN_POINT('',(110.,-89.,-41.3486315613));
#1636 = LINE('',#1637,#1638);
#1637 = CARTESIAN_POINT('',(93.8,-89.,-41.3486315613));
#1638 = VECTOR('',#1639,1.);
#1639 = DIRECTION('',(1.,-0.,-0.));
#1640 = ORIENTED_EDGE('',*,*,#1641,.T.);
#1641 = EDGE_CURVE('',#1634,#1603,#1642,.T.);
#1642 = LINE('',#1643,#1644);
#1643 = CARTESIAN_POINT('',(110.,-89.,-41.3486315613));
#1644 = VECTOR('',#1645,1.);
#1645 = DIRECTION('',(-0.,-0.866025403784,0.5));
#1646 = ORIENTED_EDGE('',*,*,#1602,.F.);
#1647 = PLANE('',#1648);
#1648 = AXIS2_PLACEMENT_3D('',#1649,#1650,#1651);
#1649 = CARTESIAN_POINT('',(93.8,-89.,-41.3486315613));
#1650 = DIRECTION('',(-0.,0.5,0.866025403784));
#1651 = DIRECTION('',(0.,0.866025403784,-0.5));
#1652 = ADVANCED_FACE('',(#1653),#1671,.T.);
#1653 = FACE_BOUND('',#1654,.F.);
#1654 = EDGE_LOOP('',(#1655,#1656,#1664,#1670));
#1655 = ORIENTED_EDGE('',*,*,#580,.F.);
#1656 = ORIENTED_EDGE('',*,*,#1657,.T.);
#1657 = EDGE_CURVE('',#573,#1658,#1660,.T.);
#1658 = VERTEX_POINT('',#1659);
#1659 = CARTESIAN_POINT('',(110.,-86.1,-39.67431578065));
#1660 = LINE('',#1661,#1662);
#1661 = CARTESIAN_POINT('',(93.8,-86.1,-39.67431578065));
#1662 = VECTOR('',#1663,1.);
#1663 = DIRECTION('',(1.,-0.,-0.));
#1664 = ORIENTED_EDGE('',*,*,#1665,.T.);
#1665 = EDGE_CURVE('',#1658,#1634,#1666,.T.);
#1666 = LINE('',#1667,#1668);
#1667 = CARTESIAN_POINT('',(110.,-86.1,-39.67431578065));
#1668 = VECTOR('',#1669,1.);
#1669 = DIRECTION('',(-0.,-0.866025403784,-0.5));
#1670 = ORIENTED_EDGE('',*,*,#1633,.F.);
#1671 = PLANE('',#1672);
#1672 = AXIS2_PLACEMENT_3D('',#1673,#1674,#1675);
#1673 = CARTESIAN_POINT('',(93.8,-86.1,-39.67431578065));
#1674 = DIRECTION('',(-0.,-0.5,0.866025403784));
#1675 = DIRECTION('',(0.,0.866025403784,0.5));
#1676 = ADVANCED_FACE('',(#1677),#1695,.T.);
#1677 = FACE_BOUND('',#1678,.F.);
#1678 = EDGE_LOOP('',(#1679,#1680,#1688,#1694));
#1679 = ORIENTED_EDGE('',*,*,#572,.F.);
#1680 = ORIENTED_EDGE('',*,*,#1681,.T.);
#1681 = EDGE_CURVE('',#565,#1682,#1684,.T.);
#1682 = VERTEX_POINT('',#1683);
#1683 = CARTESIAN_POINT('',(110.,-86.1,-36.32568421935));
#1684 = LINE('',#1685,#1686);
#1685 = CARTESIAN_POINT('',(93.8,-86.1,-36.32568421935));
#1686 = VECTOR('',#1687,1.);
#1687 = DIRECTION('',(1.,-0.,-0.));
#1688 = ORIENTED_EDGE('',*,*,#1689,.T.);
#1689 = EDGE_CURVE('',#1682,#1658,#1690,.T.);
#1690 = LINE('',#1691,#1692);
#1691 = CARTESIAN_POINT('',(110.,-86.1,-36.32568421935));
#1692 = VECTOR('',#1693,1.);
#1693 = DIRECTION('',(-0.,-0.,-1.));
#1694 = ORIENTED_EDGE('',*,*,#1657,.F.);
#1695 = PLANE('',#1696);
#1696 = AXIS2_PLACEMENT_3D('',#1697,#1698,#1699);
#1697 = CARTESIAN_POINT('',(93.8,-86.1,-36.32568421935));
#1698 = DIRECTION('',(-0.,-1.,-0.));
#1699 = DIRECTION('',(0.,0.,1.));
#1700 = ADVANCED_FACE('',(#1701),#1719,.T.);
#1701 = FACE_BOUND('',#1702,.F.);
#1702 = EDGE_LOOP('',(#1703,#1704,#1712,#1718));
#1703 = ORIENTED_EDGE('',*,*,#564,.F.);
#1704 = ORIENTED_EDGE('',*,*,#1705,.T.);
#1705 = EDGE_CURVE('',#557,#1706,#1708,.T.);
#1706 = VERTEX_POINT('',#1707);
#1707 = CARTESIAN_POINT('',(110.,-89.,-34.6513684387));
#1708 = LINE('',#1709,#1710);
#1709 = CARTESIAN_POINT('',(93.8,-89.,-34.6513684387));
#1710 = VECTOR('',#1711,1.);
#1711 = DIRECTION('',(1.,-0.,-0.));
#1712 = ORIENTED_EDGE('',*,*,#1713,.T.);
#1713 = EDGE_CURVE('',#1706,#1682,#1714,.T.);
#1714 = LINE('',#1715,#1716);
#1715 = CARTESIAN_POINT('',(110.,-89.,-34.6513684387));
#1716 = VECTOR('',#1717,1.);
#1717 = DIRECTION('',(0.,0.866025403784,-0.5));
#1718 = ORIENTED_EDGE('',*,*,#1681,.F.);
#1719 = PLANE('',#1720);
#1720 = AXIS2_PLACEMENT_3D('',#1721,#1722,#1723);
#1721 = CARTESIAN_POINT('',(93.8,-89.,-34.6513684387));
#1722 = DIRECTION('',(-0.,-0.5,-0.866025403784));
#1723 = DIRECTION('',(-0.,-0.866025403784,0.5));
#1724 = ADVANCED_FACE('',(#1725),#1736,.T.);
#1725 = FACE_BOUND('',#1726,.F.);
#1726 = EDGE_LOOP('',(#1727,#1728,#1729,#1735));
#1727 = ORIENTED_EDGE('',*,*,#556,.F.);
#1728 = ORIENTED_EDGE('',*,*,#1618,.T.);
#1729 = ORIENTED_EDGE('',*,*,#1730,.T.);
#1730 = EDGE_CURVE('',#1611,#1706,#1731,.T.);
#1731 = LINE('',#1732,#1733);
#1732 = CARTESIAN_POINT('',(110.,-91.9,-36.32568421935));
#1733 = VECTOR('',#1734,1.);
#1734 = DIRECTION('',(-0.,0.866025403784,0.5));
#1735 = ORIENTED_EDGE('',*,*,#1705,.F.);
#1736 = PLANE('',#1737);
#1737 = AXIS2_PLACEMENT_3D('',#1738,#1739,#1740);
#1738 = CARTESIAN_POINT('',(93.8,-91.9,-36.32568421935));
#1739 = DIRECTION('',(0.,0.5,-0.866025403784));
#1740 = DIRECTION('',(0.,-0.866025403784,-0.5));
#1741 = ADVANCED_FACE('',(#1742),#1767,.F.);
#1742 = FACE_BOUND('',#1743,.T.);
#1743 = EDGE_LOOP('',(#1744,#1752,#1753,#1761));
#1744 = ORIENTED_EDGE('',*,*,#1745,.F.);
#1745 = EDGE_CURVE('',#599,#1746,#1748,.T.);
#1746 = VERTEX_POINT('',#1747);
#1747 = CARTESIAN_POINT('',(97.,-78.71885,58.09225));
#1748 = LINE('',#1749,#1750);
#1749 = CARTESIAN_POINT('',(93.8,-78.71885,58.09225));
#1750 = VECTOR('',#1751,1.);
#1751 = DIRECTION('',(1.,-0.,-0.));
#1752 = ORIENTED_EDGE('',*,*,#596,.F.);
#1753 = ORIENTED_EDGE('',*,*,#1754,.T.);
#1754 = EDGE_CURVE('',#597,#1755,#1757,.T.);
#1755 = VERTEX_POINT('',#1756);
#1756 = CARTESIAN_POINT('',(97.,-71.91885,58.09225));
#1757 = LINE('',#1758,#1759);
#1758 = CARTESIAN_POINT('',(93.8,-71.91885,58.09225));
#1759 = VECTOR('',#1760,1.);
#1760 = DIRECTION('',(1.,-0.,-0.));
#1761 = ORIENTED_EDGE('',*,*,#1762,.F.);
#1762 = EDGE_CURVE('',#1746,#1755,#1763,.T.);
#1763 = LINE('',#1764,#1765);
#1764 = CARTESIAN_POINT('',(97.,-74.51027260376,58.09225));
#1765 = VECTOR('',#1766,1.);
#1766 = DIRECTION('',(-0.,1.,-0.));
#1767 = PLANE('',#1768);
#1768 = AXIS2_PLACEMENT_3D('',#1769,#1770,#1771);
#1769 = CARTESIAN_POINT('',(93.8,-71.91885,58.09225));
#1770 = DIRECTION('',(-0.,-0.,1.));
#1771 = DIRECTION('',(-1.,0.,0.));
#1772 = ADVANCED_FACE('',(#1773),#1791,.F.);
#1773 = FACE_BOUND('',#1774,.T.);
#1774 = EDGE_LOOP('',(#1775,#1783,#1784,#1785));
#1775 = ORIENTED_EDGE('',*,*,#1776,.F.);
#1776 = EDGE_CURVE('',#615,#1777,#1779,.T.);
#1777 = VERTEX_POINT('',#1778);
#1778 = CARTESIAN_POINT('',(97.,-78.71885,51.29225));
#1779 = LINE('',#1780,#1781);
#1780 = CARTESIAN_POINT('',(93.8,-78.71885,51.29225));
#1781 = VECTOR('',#1782,1.);
#1782 = DIRECTION('',(1.,-0.,-0.));
#1783 = ORIENTED_EDGE('',*,*,#622,.F.);
#1784 = ORIENTED_EDGE('',*,*,#1745,.T.);
#1785 = ORIENTED_EDGE('',*,*,#1786,.F.);
#1786 = EDGE_CURVE('',#1777,#1746,#1787,.T.);
#1787 = LINE('',#1788,#1789);
#1788 = CARTESIAN_POINT('',(97.,-78.71885,53.080876484887));
#1789 = VECTOR('',#1790,1.);
#1790 = DIRECTION('',(-0.,-0.,1.));
#1791 = PLANE('',#1792);
#1792 = AXIS2_PLACEMENT_3D('',#1793,#1794,#1795);
#1793 = CARTESIAN_POINT('',(93.8,-78.71885,51.29225));
#1794 = DIRECTION('',(-0.,-1.,-0.));
#1795 = DIRECTION('',(0.,0.,-1.));
#1796 = ADVANCED_FACE('',(#1797),#1815,.T.);
#1797 = FACE_BOUND('',#1798,.F.);
#1798 = EDGE_LOOP('',(#1799,#1800,#1801,#1809));
#1799 = ORIENTED_EDGE('',*,*,#1776,.F.);
#1800 = ORIENTED_EDGE('',*,*,#614,.F.);
#1801 = ORIENTED_EDGE('',*,*,#1802,.T.);
#1802 = EDGE_CURVE('',#607,#1803,#1805,.T.);
#1803 = VERTEX_POINT('',#1804);
#1804 = CARTESIAN_POINT('',(97.,-71.91885,51.29225));
#1805 = LINE('',#1806,#1807);
#1806 = CARTESIAN_POINT('',(93.8,-71.91885,51.29225));
#1807 = VECTOR('',#1808,1.);
#1808 = DIRECTION('',(1.,-0.,-0.));
#1809 = ORIENTED_EDGE('',*,*,#1810,.F.);
#1810 = EDGE_CURVE('',#1777,#1803,#1811,.T.);
#1811 = LINE('',#1812,#1813);
#1812 = CARTESIAN_POINT('',(97.,-74.51027260376,51.29225));
#1813 = VECTOR('',#1814,1.);
#1814 = DIRECTION('',(-0.,1.,-0.));
#1815 = PLANE('',#1816);
#1816 = AXIS2_PLACEMENT_3D('',#1817,#1818,#1819);
#1817 = CARTESIAN_POINT('',(93.8,-71.91885,51.29225));
#1818 = DIRECTION('',(-0.,-0.,1.));
#1819 = DIRECTION('',(-1.,0.,0.));
#1820 = ADVANCED_FACE('',(#1821),#1832,.T.);
#1821 = FACE_BOUND('',#1822,.F.);
#1822 = EDGE_LOOP('',(#1823,#1824,#1825,#1826));
#1823 = ORIENTED_EDGE('',*,*,#1802,.F.);
#1824 = ORIENTED_EDGE('',*,*,#606,.F.);
#1825 = ORIENTED_EDGE('',*,*,#1754,.T.);
#1826 = ORIENTED_EDGE('',*,*,#1827,.F.);
#1827 = EDGE_CURVE('',#1803,#1755,#1828,.T.);
#1828 = LINE('',#1829,#1830);
#1829 = CARTESIAN_POINT('',(97.,-71.91885,53.080876484887));
#1830 = VECTOR('',#1831,1.);
#1831 = DIRECTION('',(-0.,-0.,1.));
#1832 = PLANE('',#1833);
#1833 = AXIS2_PLACEMENT_3D('',#1834,#1835,#1836);
#1834 = CARTESIAN_POINT('',(93.8,-71.91885,51.29225));
#1835 = DIRECTION('',(-0.,-1.,-0.));
#1836 = DIRECTION('',(0.,0.,-1.));
#1837 = ADVANCED_FACE('',(#1838),#1863,.F.);
#1838 = FACE_BOUND('',#1839,.T.);
#1839 = EDGE_LOOP('',(#1840,#1848,#1849,#1857));
#1840 = ORIENTED_EDGE('',*,*,#1841,.F.);
#1841 = EDGE_CURVE('',#633,#1842,#1844,.T.);
#1842 = VERTEX_POINT('',#1843);
#1843 = CARTESIAN_POINT('',(97.,-78.71885,-35.29225));
#1844 = LINE('',#1845,#1846);
#1845 = CARTESIAN_POINT('',(93.8,-78.71885,-35.29225));
#1846 = VECTOR('',#1847,1.);
#1847 = DIRECTION('',(1.,-0.,-0.));
#1848 = ORIENTED_EDGE('',*,*,#630,.F.);
#1849 = ORIENTED_EDGE('',*,*,#1850,.T.);
#1850 = EDGE_CURVE('',#631,#1851,#1853,.T.);
#1851 = VERTEX_POINT('',#1852);
#1852 = CARTESIAN_POINT('',(97.,-71.91885,-35.29225));
#1853 = LINE('',#1854,#1855);
#1854 = CARTESIAN_POINT('',(93.8,-71.91885,-35.29225));
#1855 = VECTOR('',#1856,1.);
#1856 = DIRECTION('',(1.,-0.,-0.));
#1857 = ORIENTED_EDGE('',*,*,#1858,.F.);
#1858 = EDGE_CURVE('',#1842,#1851,#1859,.T.);
#1859 = LINE('',#1860,#1861);
#1860 = CARTESIAN_POINT('',(97.,-74.51027260376,-35.29225));
#1861 = VECTOR('',#1862,1.);
#1862 = DIRECTION('',(-0.,1.,-0.));
#1863 = PLANE('',#1864);
#1864 = AXIS2_PLACEMENT_3D('',#1865,#1866,#1867);
#1865 = CARTESIAN_POINT('',(93.8,-71.91885,-35.29225));
#1866 = DIRECTION('',(-0.,-0.,1.));
#1867 = DIRECTION('',(-1.,0.,0.));
#1868 = ADVANCED_FACE('',(#1869),#1887,.F.);
#1869 = FACE_BOUND('',#1870,.T.);
#1870 = EDGE_LOOP('',(#1871,#1879,#1880,#1881));
#1871 = ORIENTED_EDGE('',*,*,#1872,.F.);
#1872 = EDGE_CURVE('',#649,#1873,#1875,.T.);
#1873 = VERTEX_POINT('',#1874);
#1874 = CARTESIAN_POINT('',(97.,-78.71885,-42.09225));
#1875 = LINE('',#1876,#1877);
#1876 = CARTESIAN_POINT('',(93.8,-78.71885,-42.09225));
#1877 = VECTOR('',#1878,1.);
#1878 = DIRECTION('',(1.,-0.,-0.));
#1879 = ORIENTED_EDGE('',*,*,#656,.F.);
#1880 = ORIENTED_EDGE('',*,*,#1841,.T.);
#1881 = ORIENTED_EDGE('',*,*,#1882,.F.);
#1882 = EDGE_CURVE('',#1873,#1842,#1883,.T.);
#1883 = LINE('',#1884,#1885);
#1884 = CARTESIAN_POINT('',(97.,-78.71885,-40.30362351511));
#1885 = VECTOR('',#1886,1.);
#1886 = DIRECTION('',(-0.,-0.,1.));
#1887 = PLANE('',#1888);
#1888 = AXIS2_PLACEMENT_3D('',#1889,#1890,#1891);
#1889 = CARTESIAN_POINT('',(93.8,-78.71885,-42.09225));
#1890 = DIRECTION('',(-0.,-1.,-0.));
#1891 = DIRECTION('',(0.,0.,-1.));
#1892 = ADVANCED_FACE('',(#1893),#1911,.T.);
#1893 = FACE_BOUND('',#1894,.F.);
#1894 = EDGE_LOOP('',(#1895,#1896,#1897,#1905));
#1895 = ORIENTED_EDGE('',*,*,#1872,.F.);
#1896 = ORIENTED_EDGE('',*,*,#648,.F.);
#1897 = ORIENTED_EDGE('',*,*,#1898,.T.);
#1898 = EDGE_CURVE('',#641,#1899,#1901,.T.);
#1899 = VERTEX_POINT('',#1900);
#1900 = CARTESIAN_POINT('',(97.,-71.91885,-42.09225));
#1901 = LINE('',#1902,#1903);
#1902 = CARTESIAN_POINT('',(93.8,-71.91885,-42.09225));
#1903 = VECTOR('',#1904,1.);
#1904 = DIRECTION('',(1.,-0.,-0.));
#1905 = ORIENTED_EDGE('',*,*,#1906,.F.);
#1906 = EDGE_CURVE('',#1873,#1899,#1907,.T.);
#1907 = LINE('',#1908,#1909);
#1908 = CARTESIAN_POINT('',(97.,-74.51027260376,-42.09225));
#1909 = VECTOR('',#1910,1.);
#1910 = DIRECTION('',(-0.,1.,-0.));
#1911 = PLANE('',#1912);
#1912 = AXIS2_PLACEMENT_3D('',#1913,#1914,#1915);
#1913 = CARTESIAN_POINT('',(93.8,-71.91885,-42.09225));
#1914 = DIRECTION('',(-0.,-0.,1.));
#1915 = DIRECTION('',(-1.,0.,0.));
#1916 = ADVANCED_FACE('',(#1917),#1928,.T.);
#1917 = FACE_BOUND('',#1918,.F.);
#1918 = EDGE_LOOP('',(#1919,#1920,#1921,#1922));
#1919 = ORIENTED_EDGE('',*,*,#1898,.F.);
#1920 = ORIENTED_EDGE('',*,*,#640,.F.);
#1921 = ORIENTED_EDGE('',*,*,#1850,.T.);
#1922 = ORIENTED_EDGE('',*,*,#1923,.F.);
#1923 = EDGE_CURVE('',#1899,#1851,#1924,.T.);
#1924 = LINE('',#1925,#1926);
#1925 = CARTESIAN_POINT('',(97.,-71.91885,-40.30362351511));
#1926 = VECTOR('',#1927,1.);
#1927 = DIRECTION('',(-0.,-0.,1.));
#1928 = PLANE('',#1929);
#1929 = AXIS2_PLACEMENT_3D('',#1930,#1931,#1932);
#1930 = CARTESIAN_POINT('',(93.8,-71.91885,-42.09225));
#1931 = DIRECTION('',(-0.,-1.,-0.));
#1932 = DIRECTION('',(0.,0.,-1.));
#1933 = ADVANCED_FACE('',(#1934,#1941),#1947,.T.);
#1934 = FACE_BOUND('',#1935,.F.);
#1935 = EDGE_LOOP('',(#1936,#1937,#1938,#1939,#1940));
#1936 = ORIENTED_EDGE('',*,*,#1298,.F.);
#1937 = ORIENTED_EDGE('',*,*,#1260,.T.);
#1938 = ORIENTED_EDGE('',*,*,#1251,.T.);
#1939 = ORIENTED_EDGE('',*,*,#1234,.T.);
#1940 = ORIENTED_EDGE('',*,*,#1026,.F.);
#1941 = FACE_BOUND('',#1942,.F.);
#1942 = EDGE_LOOP('',(#1943,#1944,#1945,#1946));
#1943 = ORIENTED_EDGE('',*,*,#1810,.T.);
#1944 = ORIENTED_EDGE('',*,*,#1827,.T.);
#1945 = ORIENTED_EDGE('',*,*,#1762,.F.);
#1946 = ORIENTED_EDGE('',*,*,#1786,.F.);
#1947 = PLANE('',#1948);
#1948 = AXIS2_PLACEMENT_3D('',#1949,#1950,#1951);
#1949 = CARTESIAN_POINT('',(97.,-77.10169520752,54.869502969775));
#1950 = DIRECTION('',(1.,-0.,-0.));
#1951 = DIRECTION('',(0.,0.,-1.));
#1952 = ADVANCED_FACE('',(#1953,#1960),#1966,.T.);
#1953 = FACE_BOUND('',#1954,.F.);
#1954 = EDGE_LOOP('',(#1955,#1956,#1957,#1958,#1959));
#1955 = ORIENTED_EDGE('',*,*,#1210,.F.);
#1956 = ORIENTED_EDGE('',*,*,#1172,.T.);
#1957 = ORIENTED_EDGE('',*,*,#1163,.T.);
#1958 = ORIENTED_EDGE('',*,*,#1146,.T.);
#1959 = ORIENTED_EDGE('',*,*,#1003,.F.);
#1960 = FACE_BOUND('',#1961,.F.);
#1961 = EDGE_LOOP('',(#1962,#1963,#1964,#1965));
#1962 = ORIENTED_EDGE('',*,*,#1906,.T.);
#1963 = ORIENTED_EDGE('',*,*,#1923,.T.);
#1964 = ORIENTED_EDGE('',*,*,#1858,.F.);
#1965 = ORIENTED_EDGE('',*,*,#1882,.F.);
#1966 = PLANE('',#1967);
#1967 = AXIS2_PLACEMENT_3D('',#1968,#1969,#1970);
#1968 = CARTESIAN_POINT('',(97.,-77.10169520752,-38.51499703022));
#1969 = DIRECTION('',(1.,-0.,-0.));
#1970 = DIRECTION('',(0.,0.,-1.));
#1971 = ADVANCED_FACE('',(#1972,#1980),#1983,.F.);
#1972 = FACE_BOUND('',#1973,.T.);
#1973 = EDGE_LOOP('',(#1974,#1975,#1976,#1977,#1978,#1979));
#1974 = ORIENTED_EDGE('',*,*,#1730,.T.);
#1975 = ORIENTED_EDGE('',*,*,#1713,.T.);
#1976 = ORIENTED_EDGE('',*,*,#1689,.T.);
#1977 = ORIENTED_EDGE('',*,*,#1665,.T.);
#1978 = ORIENTED_EDGE('',*,*,#1641,.T.);
#1979 = ORIENTED_EDGE('',*,*,#1610,.T.);
#1980 = FACE_BOUND('',#1981,.T.);
#1981 = EDGE_LOOP('',(#1982));
#1982 = ORIENTED_EDGE('',*,*,#1071,.F.);
#1983 = PLANE('',#1984);
#1984 = AXIS2_PLACEMENT_3D('',#1985,#1986,#1987);
#1985 = CARTESIAN_POINT('',(110.,-89.,-38.));
#1986 = DIRECTION('',(1.,-0.,-0.));
#1987 = DIRECTION('',(0.,0.,-1.));
#1988 = ADVANCED_FACE('',(#1989,#1997),#2000,.F.);
#1989 = FACE_BOUND('',#1990,.T.);
#1990 = EDGE_LOOP('',(#1991,#1992,#1993,#1994,#1995,#1996));
#1991 = ORIENTED_EDGE('',*,*,#1586,.T.);
#1992 = ORIENTED_EDGE('',*,*,#1569,.T.);
#1993 = ORIENTED_EDGE('',*,*,#1545,.T.);
#1994 = ORIENTED_EDGE('',*,*,#1521,.T.);
#1995 = ORIENTED_EDGE('',*,*,#1497,.T.);
#1996 = ORIENTED_EDGE('',*,*,#1466,.T.);
#1997 = FACE_BOUND('',#1998,.T.);
#1998 = EDGE_LOOP('',(#1999));
#1999 = ORIENTED_EDGE('',*,*,#1096,.F.);
#2000 = PLANE('',#2001);
#2001 = AXIS2_PLACEMENT_3D('',#2002,#2003,#2004);
#2002 = CARTESIAN_POINT('',(110.,-89.,8.));
#2003 = DIRECTION('',(1.,-0.,-0.));
#2004 = DIRECTION('',(0.,0.,-1.));
#2005 = ADVANCED_FACE('',(#2006,#2014),#2017,.F.);
#2006 = FACE_BOUND('',#2007,.T.);
#2007 = EDGE_LOOP('',(#2008,#2009,#2010,#2011,#2012,#2013));
#2008 = ORIENTED_EDGE('',*,*,#1442,.T.);
#2009 = ORIENTED_EDGE('',*,*,#1425,.T.);
#2010 = ORIENTED_EDGE('',*,*,#1401,.T.);
#2011 = ORIENTED_EDGE('',*,*,#1377,.T.);
#2012 = ORIENTED_EDGE('',*,*,#1353,.T.);
#2013 = ORIENTED_EDGE('',*,*,#1322,.T.);
#2014 = FACE_BOUND('',#2015,.T.);
#2015 = EDGE_LOOP('',(#2016));
#2016 = ORIENTED_EDGE('',*,*,#1121,.F.);
#2017 = PLANE('',#2018);
#2018 = AXIS2_PLACEMENT_3D('',#2019,#2020,#2021);
#2019 = CARTESIAN_POINT('',(110.,-89.,54.));
#2020 = DIRECTION('',(1.,-0.,-0.));
#2021 = DIRECTION('',(0.,0.,-1.));
#2022 = ( GEOMETRIC_REPRESENTATION_CONTEXT(3) 
GLOBAL_UNCERTAINTY_ASSIGNED_CONTEXT((#2026)) 
GLOBAL_UNIT_ASSIGNED_CONTEXT((#2023,#2024,#2025)) REPRESENTATION_CONTEXT
('Context #1','3D Context with UNIT and UNCERTAINTY') );
#2023 = ( LENGTH_UNIT() NAMED_UNIT(*) SI_UNIT(.MILLI.,.METRE.) );
#2024 = ( NAMED_UNIT(*) PLANE_ANGLE_UNIT() SI_UNIT($,.RADIAN.) );
#2025 = ( NAMED_UNIT(*) SI_UNIT($,.STERADIAN.) SOLID_ANGLE_UNIT() );
#2026 = UNCERTAINTY_MEASURE_WITH_UNIT(LENGTH_MEASURE(1.E-07),#2023,
  'distance_accuracy_value','confusion accuracy');
#2027 = PRODUCT_RELATED_PRODUCT_CATEGORY('part',$,(#7));
ENDSEC;
END-ISO-10303-21;
