ISO-10303-21;
HEADER;
FILE_DESCRIPTION(('FreeCAD Model'),'2;1');
FILE_NAME('Open CASCADE Shape Model','2026-09-22T18:42:06',('FreeCAD'),(
    'FreeCAD'),'Open CASCADE STEP processor 7.8','FreeCAD','Unknown');
FILE_SCHEMA(('AUTOMOTIVE_DESIGN { 1 0 10303 214 1 1 1 1 }'));
ENDSEC;
DATA;
#1 = APPLICATION_PROTOCOL_DEFINITION('international standard',
  'automotive_design',2000,#2);
#2 = APPLICATION_CONTEXT(
  'core data for automotive mechanical design processes');
#3 = SHAPE_DEFINITION_REPRESENTATION(#4,#10);
#4 = PRODUCT_DEFINITION_SHAPE('','',#5);
#5 = PRODUCT_DEFINITION('design','',#6,#9);
#6 = PRODUCT_DEFINITION_FORMATION('','',#7);
#7 = PRODUCT('Open CASCADE STEP translator 7.8 16',
  'Open CASCADE STEP translator 7.8 16','',(#8));
#8 = PRODUCT_CONTEXT('',#2,'mechanical');
#9 = PRODUCT_DEFINITION_CONTEXT('part definition',#2,'design');
#10 = ADVANCED_BREP_SHAPE_REPRESENTATION('',(#11,#15),#807);
#11 = AXIS2_PLACEMENT_3D('',#12,#13,#14);
#12 = CARTESIAN_POINT('',(0.,0.,0.));
#13 = DIRECTION('',(0.,0.,1.));
#14 = DIRECTION('',(1.,0.,-0.));
#15 = MANIFOLD_SOLID_BREP('',#16);
#16 = CLOSED_SHELL('',(#17,#57,#88,#119,#304,#489,#506,#523,#540,#557,
    #569,#586,#603,#620,#637,#659,#676,#693,#710,#727,#744,#761,#773,
    #790));
#17 = ADVANCED_FACE('',(#18),#52,.F.);
#18 = FACE_BOUND('',#19,.F.);
#19 = EDGE_LOOP('',(#20,#30,#38,#46));
#20 = ORIENTED_EDGE('',*,*,#21,.T.);
#21 = EDGE_CURVE('',#22,#24,#26,.T.);
#22 = VERTEX_POINT('',#23);
#23 = CARTESIAN_POINT('',(119.,-86.,-51.));
#24 = VERTEX_POINT('',#25);
#25 = CARTESIAN_POINT('',(122.,-86.,-51.));
#26 = LINE('',#27,#28);
#27 = CARTESIAN_POINT('',(119.,-86.,-51.));
#28 = VECTOR('',#29,1.);
#29 = DIRECTION('',(1.,0.,0.));
#30 = ORIENTED_EDGE('',*,*,#31,.T.);
#31 = EDGE_CURVE('',#24,#32,#34,.T.);
#32 = VERTEX_POINT('',#33);
#33 = CARTESIAN_POINT('',(122.,86.,-51.));
#34 = LINE('',#35,#36);
#35 = CARTESIAN_POINT('',(122.,-86.,-51.));
#36 = VECTOR('',#37,1.);
#37 = DIRECTION('',(0.,1.,0.));
#38 = ORIENTED_EDGE('',*,*,#39,.F.);
#39 = EDGE_CURVE('',#40,#32,#42,.T.);
#40 = VERTEX_POINT('',#41);
#41 = CARTESIAN_POINT('',(119.,86.,-51.));
#42 = LINE('',#43,#44);
#43 = CARTESIAN_POINT('',(119.,86.,-51.));
#44 = VECTOR('',#45,1.);
#45 = DIRECTION('',(1.,0.,0.));
#46 = ORIENTED_EDGE('',*,*,#47,.F.);
#47 = EDGE_CURVE('',#22,#40,#48,.T.);
#48 = LINE('',#49,#50);
#49 = CARTESIAN_POINT('',(119.,-86.,-51.));
#50 = VECTOR('',#51,1.);
#51 = DIRECTION('',(0.,1.,0.));
#52 = PLANE('',#53);
#53 = AXIS2_PLACEMENT_3D('',#54,#55,#56);
#54 = CARTESIAN_POINT('',(119.,-86.,-51.));
#55 = DIRECTION('',(0.,0.,1.));
#56 = DIRECTION('',(0.,1.,0.));
#57 = ADVANCED_FACE('',(#58),#83,.F.);
#58 = FACE_BOUND('',#59,.F.);
#59 = EDGE_LOOP('',(#60,#70,#76,#77));
#60 = ORIENTED_EDGE('',*,*,#61,.T.);
#61 = EDGE_CURVE('',#62,#64,#66,.T.);
#62 = VERTEX_POINT('',#63);
#63 = CARTESIAN_POINT('',(119.,-94.,-43.));
#64 = VERTEX_POINT('',#65);
#65 = CARTESIAN_POINT('',(122.,-94.,-43.));
#66 = LINE('',#67,#68);
#67 = CARTESIAN_POINT('',(119.,-94.,-43.));
#68 = VECTOR('',#69,1.);
#69 = DIRECTION('',(1.,0.,0.));
#70 = ORIENTED_EDGE('',*,*,#71,.T.);
#71 = EDGE_CURVE('',#64,#24,#72,.T.);
#72 = LINE('',#73,#74);
#73 = CARTESIAN_POINT('',(122.,-94.,-43.));
#74 = VECTOR('',#75,1.);
#75 = DIRECTION('',(0.,0.707106781187,-0.707106781187));
#76 = ORIENTED_EDGE('',*,*,#21,.F.);
#77 = ORIENTED_EDGE('',*,*,#78,.F.);
#78 = EDGE_CURVE('',#62,#22,#79,.T.);
#79 = LINE('',#80,#81);
#80 = CARTESIAN_POINT('',(119.,-94.,-43.));
#81 = VECTOR('',#82,1.);
#82 = DIRECTION('',(0.,0.707106781187,-0.707106781187));
#83 = PLANE('',#84);
#84 = AXIS2_PLACEMENT_3D('',#85,#86,#87);
#85 = CARTESIAN_POINT('',(119.,-94.,-43.));
#86 = DIRECTION('',(-0.,0.707106781187,0.707106781187));
#87 = DIRECTION('',(0.,0.707106781187,-0.707106781187));
#88 = ADVANCED_FACE('',(#89),#114,.F.);
#89 = FACE_BOUND('',#90,.F.);
#90 = EDGE_LOOP('',(#91,#92,#100,#108));
#91 = ORIENTED_EDGE('',*,*,#39,.T.);
#92 = ORIENTED_EDGE('',*,*,#93,.T.);
#93 = EDGE_CURVE('',#32,#94,#96,.T.);
#94 = VERTEX_POINT('',#95);
#95 = CARTESIAN_POINT('',(122.,94.,-43.));
#96 = LINE('',#97,#98);
#97 = CARTESIAN_POINT('',(122.,86.,-51.));
#98 = VECTOR('',#99,1.);
#99 = DIRECTION('',(0.,0.707106781187,0.707106781187));
#100 = ORIENTED_EDGE('',*,*,#101,.F.);
#101 = EDGE_CURVE('',#102,#94,#104,.T.);
#102 = VERTEX_POINT('',#103);
#103 = CARTESIAN_POINT('',(119.,94.,-43.));
#104 = LINE('',#105,#106);
#105 = CARTESIAN_POINT('',(119.,94.,-43.));
#106 = VECTOR('',#107,1.);
#107 = DIRECTION('',(1.,0.,0.));
#108 = ORIENTED_EDGE('',*,*,#109,.F.);
#109 = EDGE_CURVE('',#40,#102,#110,.T.);
#110 = LINE('',#111,#112);
#111 = CARTESIAN_POINT('',(119.,86.,-51.));
#112 = VECTOR('',#113,1.);
#113 = DIRECTION('',(0.,0.707106781187,0.707106781187));
#114 = PLANE('',#115);
#115 = AXIS2_PLACEMENT_3D('',#116,#117,#118);
#116 = CARTESIAN_POINT('',(119.,86.,-51.));
#117 = DIRECTION('',(0.,-0.707106781187,0.707106781187));
#118 = DIRECTION('',(0.,0.707106781187,0.707106781187));
#119 = ADVANCED_FACE('',(#120,#163,#174,#185,#196,#207,#277,#288),#299,
  .F.);
#120 = FACE_BOUND('',#121,.F.);
#121 = EDGE_LOOP('',(#122,#123,#124,#132,#140,#148,#156,#162));
#122 = ORIENTED_EDGE('',*,*,#47,.T.);
#123 = ORIENTED_EDGE('',*,*,#109,.T.);
#124 = ORIENTED_EDGE('',*,*,#125,.T.);
#125 = EDGE_CURVE('',#102,#126,#128,.T.);
#126 = VERTEX_POINT('',#127);
#127 = CARTESIAN_POINT('',(119.,94.,59.));
#128 = LINE('',#129,#130);
#129 = CARTESIAN_POINT('',(119.,94.,-43.));
#130 = VECTOR('',#131,1.);
#131 = DIRECTION('',(0.,0.,1.));
#132 = ORIENTED_EDGE('',*,*,#133,.T.);
#133 = EDGE_CURVE('',#126,#134,#136,.T.);
#134 = VERTEX_POINT('',#135);
#135 = CARTESIAN_POINT('',(119.,86.,67.));
#136 = LINE('',#137,#138);
#137 = CARTESIAN_POINT('',(119.,94.,59.));
#138 = VECTOR('',#139,1.);
#139 = DIRECTION('',(0.,-0.707106781187,0.707106781187));
#140 = ORIENTED_EDGE('',*,*,#141,.T.);
#141 = EDGE_CURVE('',#134,#142,#144,.T.);
#142 = VERTEX_POINT('',#143);
#143 = CARTESIAN_POINT('',(119.,-86.,67.));
#144 = LINE('',#145,#146);
#145 = CARTESIAN_POINT('',(119.,86.,67.));
#146 = VECTOR('',#147,1.);
#147 = DIRECTION('',(0.,-1.,0.));
#148 = ORIENTED_EDGE('',*,*,#149,.T.);
#149 = EDGE_CURVE('',#142,#150,#152,.T.);
#150 = VERTEX_POINT('',#151);
#151 = CARTESIAN_POINT('',(119.,-94.,59.));
#152 = LINE('',#153,#154);
#153 = CARTESIAN_POINT('',(119.,-86.,67.));
#154 = VECTOR('',#155,1.);
#155 = DIRECTION('',(0.,-0.707106781187,-0.707106781187));
#156 = ORIENTED_EDGE('',*,*,#157,.T.);
#157 = EDGE_CURVE('',#150,#62,#158,.T.);
#158 = LINE('',#159,#160);
#159 = CARTESIAN_POINT('',(119.,-94.,59.));
#160 = VECTOR('',#161,1.);
#161 = DIRECTION('',(0.,0.,-1.));
#162 = ORIENTED_EDGE('',*,*,#78,.T.);
#163 = FACE_BOUND('',#164,.F.);
#164 = EDGE_LOOP('',(#165));
#165 = ORIENTED_EDGE('',*,*,#166,.F.);
#166 = EDGE_CURVE('',#167,#167,#169,.T.);
#167 = VERTEX_POINT('',#168);
#168 = CARTESIAN_POINT('',(119.,89.,-36.3));
#169 = CIRCLE('',#170,1.7);
#170 = AXIS2_PLACEMENT_3D('',#171,#172,#173);
#171 = CARTESIAN_POINT('',(119.,89.,-38.));
#172 = DIRECTION('',(1.,0.,0.));
#173 = DIRECTION('',(-0.,0.,1.));
#174 = FACE_BOUND('',#175,.F.);
#175 = EDGE_LOOP('',(#176));
#176 = ORIENTED_EDGE('',*,*,#177,.F.);
#177 = EDGE_CURVE('',#178,#178,#180,.T.);
#178 = VERTEX_POINT('',#179);
#179 = CARTESIAN_POINT('',(119.,89.,9.7));
#180 = CIRCLE('',#181,1.7);
#181 = AXIS2_PLACEMENT_3D('',#182,#183,#184);
#182 = CARTESIAN_POINT('',(119.,89.,8.));
#183 = DIRECTION('',(1.,0.,0.));
#184 = DIRECTION('',(-0.,0.,1.));
#185 = FACE_BOUND('',#186,.F.);
#186 = EDGE_LOOP('',(#187));
#187 = ORIENTED_EDGE('',*,*,#188,.F.);
#188 = EDGE_CURVE('',#189,#189,#191,.T.);
#189 = VERTEX_POINT('',#190);
#190 = CARTESIAN_POINT('',(119.,89.,55.7));
#191 = CIRCLE('',#192,1.7);
#192 = AXIS2_PLACEMENT_3D('',#193,#194,#195);
#193 = CARTESIAN_POINT('',(119.,89.,54.));
#194 = DIRECTION('',(1.,0.,0.));
#195 = DIRECTION('',(-0.,0.,1.));
#196 = FACE_BOUND('',#197,.F.);
#197 = EDGE_LOOP('',(#198));
#198 = ORIENTED_EDGE('',*,*,#199,.F.);
#199 = EDGE_CURVE('',#200,#200,#202,.T.);
#200 = VERTEX_POINT('',#201);
#201 = CARTESIAN_POINT('',(119.,-89.,-36.3));
#202 = CIRCLE('',#203,1.7);
#203 = AXIS2_PLACEMENT_3D('',#204,#205,#206);
#204 = CARTESIAN_POINT('',(119.,-89.,-38.));
#205 = DIRECTION('',(1.,0.,0.));
#206 = DIRECTION('',(-0.,0.,1.));
#207 = FACE_BOUND('',#208,.F.);
#208 = EDGE_LOOP('',(#209,#220,#228,#237,#245,#254,#262,#271));
#209 = ORIENTED_EDGE('',*,*,#210,.F.);
#210 = EDGE_CURVE('',#211,#213,#215,.T.);
#211 = VERTEX_POINT('',#212);
#212 = CARTESIAN_POINT('',(119.,-77.5,52.5));
#213 = VERTEX_POINT('',#214);
#214 = CARTESIAN_POINT('',(119.,-78.5,51.5));
#215 = CIRCLE('',#216,1.);
#216 = AXIS2_PLACEMENT_3D('',#217,#218,#219);
#217 = CARTESIAN_POINT('',(119.,-77.5,51.5));
#218 = DIRECTION('',(1.,0.,1.110223024625E-16));
#219 = DIRECTION('',(1.110223024625E-16,0.,-1.));
#220 = ORIENTED_EDGE('',*,*,#221,.T.);
#221 = EDGE_CURVE('',#211,#222,#224,.T.);
#222 = VERTEX_POINT('',#223);
#223 = CARTESIAN_POINT('',(119.,77.5,52.5));
#224 = LINE('',#225,#226);
#225 = CARTESIAN_POINT('',(119.,-38.75,52.5));
#226 = VECTOR('',#227,1.);
#227 = DIRECTION('',(-0.,1.,0.));
#228 = ORIENTED_EDGE('',*,*,#229,.F.);
#229 = EDGE_CURVE('',#230,#222,#232,.T.);
#230 = VERTEX_POINT('',#231);
#231 = CARTESIAN_POINT('',(119.,78.5,51.5));
#232 = CIRCLE('',#233,1.);
#233 = AXIS2_PLACEMENT_3D('',#234,#235,#236);
#234 = CARTESIAN_POINT('',(119.,77.5,51.5));
#235 = DIRECTION('',(1.,0.,1.110223024625E-16));
#236 = DIRECTION('',(1.110223024625E-16,0.,-1.));
#237 = ORIENTED_EDGE('',*,*,#238,.F.);
#238 = EDGE_CURVE('',#239,#230,#241,.T.);
#239 = VERTEX_POINT('',#240);
#240 = CARTESIAN_POINT('',(119.,78.5,-35.5));
#241 = LINE('',#242,#243);
#242 = CARTESIAN_POINT('',(119.,78.5,29.75));
#243 = VECTOR('',#244,1.);
#244 = DIRECTION('',(0.,0.,1.));
#245 = ORIENTED_EDGE('',*,*,#246,.F.);
#246 = EDGE_CURVE('',#247,#239,#249,.T.);
#247 = VERTEX_POINT('',#248);
#248 = CARTESIAN_POINT('',(119.,77.5,-36.5));
#249 = CIRCLE('',#250,1.);
#250 = AXIS2_PLACEMENT_3D('',#251,#252,#253);
#251 = CARTESIAN_POINT('',(119.,77.5,-35.5));
#252 = DIRECTION('',(1.,0.,1.110223024625E-16));
#253 = DIRECTION('',(1.110223024625E-16,0.,-1.));
#254 = ORIENTED_EDGE('',*,*,#255,.F.);
#255 = EDGE_CURVE('',#256,#247,#258,.T.);
#256 = VERTEX_POINT('',#257);
#257 = CARTESIAN_POINT('',(119.,-77.5,-36.5));
#258 = LINE('',#259,#260);
#259 = CARTESIAN_POINT('',(119.,-38.75,-36.5));
#260 = VECTOR('',#261,1.);
#261 = DIRECTION('',(-0.,1.,0.));
#262 = ORIENTED_EDGE('',*,*,#263,.F.);
#263 = EDGE_CURVE('',#264,#256,#266,.T.);
#264 = VERTEX_POINT('',#265);
#265 = CARTESIAN_POINT('',(119.,-78.5,-35.5));
#266 = CIRCLE('',#267,1.);
#267 = AXIS2_PLACEMENT_3D('',#268,#269,#270);
#268 = CARTESIAN_POINT('',(119.,-77.5,-35.5));
#269 = DIRECTION('',(1.,0.,1.110223024625E-16));
#270 = DIRECTION('',(1.110223024625E-16,0.,-1.));
#271 = ORIENTED_EDGE('',*,*,#272,.T.);
#272 = EDGE_CURVE('',#264,#213,#273,.T.);
#273 = LINE('',#274,#275);
#274 = CARTESIAN_POINT('',(119.,-78.5,29.75));
#275 = VECTOR('',#276,1.);
#276 = DIRECTION('',(0.,0.,1.));
#277 = FACE_BOUND('',#278,.F.);
#278 = EDGE_LOOP('',(#279));
#279 = ORIENTED_EDGE('',*,*,#280,.F.);
#280 = EDGE_CURVE('',#281,#281,#283,.T.);
#281 = VERTEX_POINT('',#282);
#282 = CARTESIAN_POINT('',(119.,-89.,9.7));
#283 = CIRCLE('',#284,1.7);
#284 = AXIS2_PLACEMENT_3D('',#285,#286,#287);
#285 = CARTESIAN_POINT('',(119.,-89.,8.));
#286 = DIRECTION('',(1.,0.,0.));
#287 = DIRECTION('',(-0.,0.,1.));
#288 = FACE_BOUND('',#289,.F.);
#289 = EDGE_LOOP('',(#290));
#290 = ORIENTED_EDGE('',*,*,#291,.F.);
#291 = EDGE_CURVE('',#292,#292,#294,.T.);
#292 = VERTEX_POINT('',#293);
#293 = CARTESIAN_POINT('',(119.,-89.,55.7));
#294 = CIRCLE('',#295,1.7);
#295 = AXIS2_PLACEMENT_3D('',#296,#297,#298);
#296 = CARTESIAN_POINT('',(119.,-89.,54.));
#297 = DIRECTION('',(1.,0.,0.));
#298 = DIRECTION('',(-0.,0.,1.));
#299 = PLANE('',#300);
#300 = AXIS2_PLACEMENT_3D('',#301,#302,#303);
#301 = CARTESIAN_POINT('',(119.,1.437242874481E-15,8.));
#302 = DIRECTION('',(1.,0.,0.));
#303 = DIRECTION('',(-0.,0.,1.));
#304 = ADVANCED_FACE('',(#305,#348,#359,#370,#381,#392,#462,#473),#484,
  .T.);
#305 = FACE_BOUND('',#306,.T.);
#306 = EDGE_LOOP('',(#307,#308,#309,#317,#325,#333,#341,#347));
#307 = ORIENTED_EDGE('',*,*,#31,.T.);
#308 = ORIENTED_EDGE('',*,*,#93,.T.);
#309 = ORIENTED_EDGE('',*,*,#310,.T.);
#310 = EDGE_CURVE('',#94,#311,#313,.T.);
#311 = VERTEX_POINT('',#312);
#312 = CARTESIAN_POINT('',(122.,94.,59.));
#313 = LINE('',#314,#315);
#314 = CARTESIAN_POINT('',(122.,94.,-43.));
#315 = VECTOR('',#316,1.);
#316 = DIRECTION('',(0.,0.,1.));
#317 = ORIENTED_EDGE('',*,*,#318,.T.);
#318 = EDGE_CURVE('',#311,#319,#321,.T.);
#319 = VERTEX_POINT('',#320);
#320 = CARTESIAN_POINT('',(122.,86.,67.));
#321 = LINE('',#322,#323);
#322 = CARTESIAN_POINT('',(122.,94.,59.));
#323 = VECTOR('',#324,1.);
#324 = DIRECTION('',(0.,-0.707106781187,0.707106781187));
#325 = ORIENTED_EDGE('',*,*,#326,.T.);
#326 = EDGE_CURVE('',#319,#327,#329,.T.);
#327 = VERTEX_POINT('',#328);
#328 = CARTESIAN_POINT('',(122.,-86.,67.));
#329 = LINE('',#330,#331);
#330 = CARTESIAN_POINT('',(122.,86.,67.));
#331 = VECTOR('',#332,1.);
#332 = DIRECTION('',(0.,-1.,0.));
#333 = ORIENTED_EDGE('',*,*,#334,.T.);
#334 = EDGE_CURVE('',#327,#335,#337,.T.);
#335 = VERTEX_POINT('',#336);
#336 = CARTESIAN_POINT('',(122.,-94.,59.));
#337 = LINE('',#338,#339);
#338 = CARTESIAN_POINT('',(122.,-86.,67.));
#339 = VECTOR('',#340,1.);
#340 = DIRECTION('',(0.,-0.707106781187,-0.707106781187));
#341 = ORIENTED_EDGE('',*,*,#342,.T.);
#342 = EDGE_CURVE('',#335,#64,#343,.T.);
#343 = LINE('',#344,#345);
#344 = CARTESIAN_POINT('',(122.,-94.,59.));
#345 = VECTOR('',#346,1.);
#346 = DIRECTION('',(0.,0.,-1.));
#347 = ORIENTED_EDGE('',*,*,#71,.T.);
#348 = FACE_BOUND('',#349,.T.);
#349 = EDGE_LOOP('',(#350));
#350 = ORIENTED_EDGE('',*,*,#351,.F.);
#351 = EDGE_CURVE('',#352,#352,#354,.T.);
#352 = VERTEX_POINT('',#353);
#353 = CARTESIAN_POINT('',(122.,89.,-36.3));
#354 = CIRCLE('',#355,1.7);
#355 = AXIS2_PLACEMENT_3D('',#356,#357,#358);
#356 = CARTESIAN_POINT('',(122.,89.,-38.));
#357 = DIRECTION('',(1.,0.,0.));
#358 = DIRECTION('',(-0.,0.,1.));
#359 = FACE_BOUND('',#360,.T.);
#360 = EDGE_LOOP('',(#361));
#361 = ORIENTED_EDGE('',*,*,#362,.F.);
#362 = EDGE_CURVE('',#363,#363,#365,.T.);
#363 = VERTEX_POINT('',#364);
#364 = CARTESIAN_POINT('',(122.,89.,9.7));
#365 = CIRCLE('',#366,1.7);
#366 = AXIS2_PLACEMENT_3D('',#367,#368,#369);
#367 = CARTESIAN_POINT('',(122.,89.,8.));
#368 = DIRECTION('',(1.,0.,0.));
#369 = DIRECTION('',(-0.,0.,1.));
#370 = FACE_BOUND('',#371,.T.);
#371 = EDGE_LOOP('',(#372));
#372 = ORIENTED_EDGE('',*,*,#373,.F.);
#373 = EDGE_CURVE('',#374,#374,#376,.T.);
#374 = VERTEX_POINT('',#375);
#375 = CARTESIAN_POINT('',(122.,89.,55.7));
#376 = CIRCLE('',#377,1.7);
#377 = AXIS2_PLACEMENT_3D('',#378,#379,#380);
#378 = CARTESIAN_POINT('',(122.,89.,54.));
#379 = DIRECTION('',(1.,0.,0.));
#380 = DIRECTION('',(-0.,0.,1.));
#381 = FACE_BOUND('',#382,.T.);
#382 = EDGE_LOOP('',(#383));
#383 = ORIENTED_EDGE('',*,*,#384,.F.);
#384 = EDGE_CURVE('',#385,#385,#387,.T.);
#385 = VERTEX_POINT('',#386);
#386 = CARTESIAN_POINT('',(122.,-89.,-36.3));
#387 = CIRCLE('',#388,1.7);
#388 = AXIS2_PLACEMENT_3D('',#389,#390,#391);
#389 = CARTESIAN_POINT('',(122.,-89.,-38.));
#390 = DIRECTION('',(1.,0.,0.));
#391 = DIRECTION('',(-0.,0.,1.));
#392 = FACE_BOUND('',#393,.T.);
#393 = EDGE_LOOP('',(#394,#405,#413,#422,#430,#439,#447,#456));
#394 = ORIENTED_EDGE('',*,*,#395,.F.);
#395 = EDGE_CURVE('',#396,#398,#400,.T.);
#396 = VERTEX_POINT('',#397);
#397 = CARTESIAN_POINT('',(122.,-77.5,52.5));
#398 = VERTEX_POINT('',#399);
#399 = CARTESIAN_POINT('',(122.,-78.5,51.5));
#400 = CIRCLE('',#401,1.);
#401 = AXIS2_PLACEMENT_3D('',#402,#403,#404);
#402 = CARTESIAN_POINT('',(122.,-77.5,51.5));
#403 = DIRECTION('',(1.,0.,1.110223024625E-16));
#404 = DIRECTION('',(1.110223024625E-16,0.,-1.));
#405 = ORIENTED_EDGE('',*,*,#406,.T.);
#406 = EDGE_CURVE('',#396,#407,#409,.T.);
#407 = VERTEX_POINT('',#408);
#408 = CARTESIAN_POINT('',(122.,77.5,52.5));
#409 = LINE('',#410,#411);
#410 = CARTESIAN_POINT('',(122.,-38.75,52.5));
#411 = VECTOR('',#412,1.);
#412 = DIRECTION('',(-0.,1.,0.));
#413 = ORIENTED_EDGE('',*,*,#414,.F.);
#414 = EDGE_CURVE('',#415,#407,#417,.T.);
#415 = VERTEX_POINT('',#416);
#416 = CARTESIAN_POINT('',(122.,78.5,51.5));
#417 = CIRCLE('',#418,1.);
#418 = AXIS2_PLACEMENT_3D('',#419,#420,#421);
#419 = CARTESIAN_POINT('',(122.,77.5,51.5));
#420 = DIRECTION('',(1.,0.,1.110223024625E-16));
#421 = DIRECTION('',(1.110223024625E-16,0.,-1.));
#422 = ORIENTED_EDGE('',*,*,#423,.F.);
#423 = EDGE_CURVE('',#424,#415,#426,.T.);
#424 = VERTEX_POINT('',#425);
#425 = CARTESIAN_POINT('',(122.,78.5,-35.5));
#426 = LINE('',#427,#428);
#427 = CARTESIAN_POINT('',(122.,78.5,29.75));
#428 = VECTOR('',#429,1.);
#429 = DIRECTION('',(0.,0.,1.));
#430 = ORIENTED_EDGE('',*,*,#431,.F.);
#431 = EDGE_CURVE('',#432,#424,#434,.T.);
#432 = VERTEX_POINT('',#433);
#433 = CARTESIAN_POINT('',(122.,77.5,-36.5));
#434 = CIRCLE('',#435,1.);
#435 = AXIS2_PLACEMENT_3D('',#436,#437,#438);
#436 = CARTESIAN_POINT('',(122.,77.5,-35.5));
#437 = DIRECTION('',(1.,0.,1.110223024625E-16));
#438 = DIRECTION('',(1.110223024625E-16,0.,-1.));
#439 = ORIENTED_EDGE('',*,*,#440,.F.);
#440 = EDGE_CURVE('',#441,#432,#443,.T.);
#441 = VERTEX_POINT('',#442);
#442 = CARTESIAN_POINT('',(122.,-77.5,-36.5));
#443 = LINE('',#444,#445);
#444 = CARTESIAN_POINT('',(122.,-38.75,-36.5));
#445 = VECTOR('',#446,1.);
#446 = DIRECTION('',(-0.,1.,0.));
#447 = ORIENTED_EDGE('',*,*,#448,.F.);
#448 = EDGE_CURVE('',#449,#441,#451,.T.);
#449 = VERTEX_POINT('',#450);
#450 = CARTESIAN_POINT('',(122.,-78.5,-35.5));
#451 = CIRCLE('',#452,1.);
#452 = AXIS2_PLACEMENT_3D('',#453,#454,#455);
#453 = CARTESIAN_POINT('',(122.,-77.5,-35.5));
#454 = DIRECTION('',(1.,0.,1.110223024625E-16));
#455 = DIRECTION('',(1.110223024625E-16,0.,-1.));
#456 = ORIENTED_EDGE('',*,*,#457,.T.);
#457 = EDGE_CURVE('',#449,#398,#458,.T.);
#458 = LINE('',#459,#460);
#459 = CARTESIAN_POINT('',(122.,-78.5,29.75));
#460 = VECTOR('',#461,1.);
#461 = DIRECTION('',(0.,0.,1.));
#462 = FACE_BOUND('',#463,.T.);
#463 = EDGE_LOOP('',(#464));
#464 = ORIENTED_EDGE('',*,*,#465,.F.);
#465 = EDGE_CURVE('',#466,#466,#468,.T.);
#466 = VERTEX_POINT('',#467);
#467 = CARTESIAN_POINT('',(122.,-89.,9.7));
#468 = CIRCLE('',#469,1.7);
#469 = AXIS2_PLACEMENT_3D('',#470,#471,#472);
#470 = CARTESIAN_POINT('',(122.,-89.,8.));
#471 = DIRECTION('',(1.,0.,0.));
#472 = DIRECTION('',(-0.,0.,1.));
#473 = FACE_BOUND('',#474,.T.);
#474 = EDGE_LOOP('',(#475));
#475 = ORIENTED_EDGE('',*,*,#476,.F.);
#476 = EDGE_CURVE('',#477,#477,#479,.T.);
#477 = VERTEX_POINT('',#478);
#478 = CARTESIAN_POINT('',(122.,-89.,55.7));
#479 = CIRCLE('',#480,1.7);
#480 = AXIS2_PLACEMENT_3D('',#481,#482,#483);
#481 = CARTESIAN_POINT('',(122.,-89.,54.));
#482 = DIRECTION('',(1.,0.,0.));
#483 = DIRECTION('',(-0.,0.,1.));
#484 = PLANE('',#485);
#485 = AXIS2_PLACEMENT_3D('',#486,#487,#488);
#486 = CARTESIAN_POINT('',(122.,1.437242874481E-15,8.));
#487 = DIRECTION('',(1.,0.,0.));
#488 = DIRECTION('',(-0.,0.,1.));
#489 = ADVANCED_FACE('',(#490),#501,.F.);
#490 = FACE_BOUND('',#491,.F.);
#491 = EDGE_LOOP('',(#492,#498,#499,#500));
#492 = ORIENTED_EDGE('',*,*,#493,.T.);
#493 = EDGE_CURVE('',#150,#335,#494,.T.);
#494 = LINE('',#495,#496);
#495 = CARTESIAN_POINT('',(119.,-94.,59.));
#496 = VECTOR('',#497,1.);
#497 = DIRECTION('',(1.,0.,0.));
#498 = ORIENTED_EDGE('',*,*,#342,.T.);
#499 = ORIENTED_EDGE('',*,*,#61,.F.);
#500 = ORIENTED_EDGE('',*,*,#157,.F.);
#501 = PLANE('',#502);
#502 = AXIS2_PLACEMENT_3D('',#503,#504,#505);
#503 = CARTESIAN_POINT('',(119.,-94.,59.));
#504 = DIRECTION('',(-0.,1.,0.));
#505 = DIRECTION('',(0.,0.,-1.));
#506 = ADVANCED_FACE('',(#507),#518,.F.);
#507 = FACE_BOUND('',#508,.F.);
#508 = EDGE_LOOP('',(#509,#510,#511,#517));
#509 = ORIENTED_EDGE('',*,*,#101,.T.);
#510 = ORIENTED_EDGE('',*,*,#310,.T.);
#511 = ORIENTED_EDGE('',*,*,#512,.F.);
#512 = EDGE_CURVE('',#126,#311,#513,.T.);
#513 = LINE('',#514,#515);
#514 = CARTESIAN_POINT('',(119.,94.,59.));
#515 = VECTOR('',#516,1.);
#516 = DIRECTION('',(1.,0.,0.));
#517 = ORIENTED_EDGE('',*,*,#125,.F.);
#518 = PLANE('',#519);
#519 = AXIS2_PLACEMENT_3D('',#520,#521,#522);
#520 = CARTESIAN_POINT('',(119.,94.,-43.));
#521 = DIRECTION('',(0.,-1.,0.));
#522 = DIRECTION('',(0.,0.,1.));
#523 = ADVANCED_FACE('',(#524),#535,.F.);
#524 = FACE_BOUND('',#525,.F.);
#525 = EDGE_LOOP('',(#526,#532,#533,#534));
#526 = ORIENTED_EDGE('',*,*,#527,.T.);
#527 = EDGE_CURVE('',#142,#327,#528,.T.);
#528 = LINE('',#529,#530);
#529 = CARTESIAN_POINT('',(119.,-86.,67.));
#530 = VECTOR('',#531,1.);
#531 = DIRECTION('',(1.,0.,0.));
#532 = ORIENTED_EDGE('',*,*,#334,.T.);
#533 = ORIENTED_EDGE('',*,*,#493,.F.);
#534 = ORIENTED_EDGE('',*,*,#149,.F.);
#535 = PLANE('',#536);
#536 = AXIS2_PLACEMENT_3D('',#537,#538,#539);
#537 = CARTESIAN_POINT('',(119.,-86.,67.));
#538 = DIRECTION('',(0.,0.707106781187,-0.707106781187));
#539 = DIRECTION('',(0.,-0.707106781187,-0.707106781187));
#540 = ADVANCED_FACE('',(#541),#552,.F.);
#541 = FACE_BOUND('',#542,.F.);
#542 = EDGE_LOOP('',(#543,#544,#545,#551));
#543 = ORIENTED_EDGE('',*,*,#512,.T.);
#544 = ORIENTED_EDGE('',*,*,#318,.T.);
#545 = ORIENTED_EDGE('',*,*,#546,.F.);
#546 = EDGE_CURVE('',#134,#319,#547,.T.);
#547 = LINE('',#548,#549);
#548 = CARTESIAN_POINT('',(119.,86.,67.));
#549 = VECTOR('',#550,1.);
#550 = DIRECTION('',(1.,0.,0.));
#551 = ORIENTED_EDGE('',*,*,#133,.F.);
#552 = PLANE('',#553);
#553 = AXIS2_PLACEMENT_3D('',#554,#555,#556);
#554 = CARTESIAN_POINT('',(119.,94.,59.));
#555 = DIRECTION('',(0.,-0.707106781187,-0.707106781187));
#556 = DIRECTION('',(0.,-0.707106781187,0.707106781187));
#557 = ADVANCED_FACE('',(#558),#564,.F.);
#558 = FACE_BOUND('',#559,.F.);
#559 = EDGE_LOOP('',(#560,#561,#562,#563));
#560 = ORIENTED_EDGE('',*,*,#546,.T.);
#561 = ORIENTED_EDGE('',*,*,#326,.T.);
#562 = ORIENTED_EDGE('',*,*,#527,.F.);
#563 = ORIENTED_EDGE('',*,*,#141,.F.);
#564 = PLANE('',#565);
#565 = AXIS2_PLACEMENT_3D('',#566,#567,#568);
#566 = CARTESIAN_POINT('',(119.,86.,67.));
#567 = DIRECTION('',(0.,0.,-1.));
#568 = DIRECTION('',(0.,-1.,0.));
#569 = ADVANCED_FACE('',(#570),#581,.F.);
#570 = FACE_BOUND('',#571,.F.);
#571 = EDGE_LOOP('',(#572,#573,#579,#580));
#572 = ORIENTED_EDGE('',*,*,#351,.F.);
#573 = ORIENTED_EDGE('',*,*,#574,.F.);
#574 = EDGE_CURVE('',#167,#352,#575,.T.);
#575 = LINE('',#576,#577);
#576 = CARTESIAN_POINT('',(118.8,89.,-36.3));
#577 = VECTOR('',#578,1.);
#578 = DIRECTION('',(1.,0.,0.));
#579 = ORIENTED_EDGE('',*,*,#166,.T.);
#580 = ORIENTED_EDGE('',*,*,#574,.T.);
#581 = CYLINDRICAL_SURFACE('',#582,1.7);
#582 = AXIS2_PLACEMENT_3D('',#583,#584,#585);
#583 = CARTESIAN_POINT('',(118.8,89.,-38.));
#584 = DIRECTION('',(1.,0.,0.));
#585 = DIRECTION('',(-0.,0.,1.));
#586 = ADVANCED_FACE('',(#587),#598,.F.);
#587 = FACE_BOUND('',#588,.F.);
#588 = EDGE_LOOP('',(#589,#590,#596,#597));
#589 = ORIENTED_EDGE('',*,*,#362,.F.);
#590 = ORIENTED_EDGE('',*,*,#591,.F.);
#591 = EDGE_CURVE('',#178,#363,#592,.T.);
#592 = LINE('',#593,#594);
#593 = CARTESIAN_POINT('',(118.8,89.,9.7));
#594 = VECTOR('',#595,1.);
#595 = DIRECTION('',(1.,0.,0.));
#596 = ORIENTED_EDGE('',*,*,#177,.T.);
#597 = ORIENTED_EDGE('',*,*,#591,.T.);
#598 = CYLINDRICAL_SURFACE('',#599,1.7);
#599 = AXIS2_PLACEMENT_3D('',#600,#601,#602);
#600 = CARTESIAN_POINT('',(118.8,89.,8.));
#601 = DIRECTION('',(1.,0.,0.));
#602 = DIRECTION('',(-0.,0.,1.));
#603 = ADVANCED_FACE('',(#604),#615,.F.);
#604 = FACE_BOUND('',#605,.F.);
#605 = EDGE_LOOP('',(#606,#607,#613,#614));
#606 = ORIENTED_EDGE('',*,*,#373,.F.);
#607 = ORIENTED_EDGE('',*,*,#608,.F.);
#608 = EDGE_CURVE('',#189,#374,#609,.T.);
#609 = LINE('',#610,#611);
#610 = CARTESIAN_POINT('',(118.8,89.,55.7));
#611 = VECTOR('',#612,1.);
#612 = DIRECTION('',(1.,0.,0.));
#613 = ORIENTED_EDGE('',*,*,#188,.T.);
#614 = ORIENTED_EDGE('',*,*,#608,.T.);
#615 = CYLINDRICAL_SURFACE('',#616,1.7);
#616 = AXIS2_PLACEMENT_3D('',#617,#618,#619);
#617 = CARTESIAN_POINT('',(118.8,89.,54.));
#618 = DIRECTION('',(1.,0.,0.));
#619 = DIRECTION('',(-0.,0.,1.));
#620 = ADVANCED_FACE('',(#621),#632,.F.);
#621 = FACE_BOUND('',#622,.F.);
#622 = EDGE_LOOP('',(#623,#624,#630,#631));
#623 = ORIENTED_EDGE('',*,*,#384,.F.);
#624 = ORIENTED_EDGE('',*,*,#625,.F.);
#625 = EDGE_CURVE('',#200,#385,#626,.T.);
#626 = LINE('',#627,#628);
#627 = CARTESIAN_POINT('',(118.8,-89.,-36.3));
#628 = VECTOR('',#629,1.);
#629 = DIRECTION('',(1.,0.,0.));
#630 = ORIENTED_EDGE('',*,*,#199,.T.);
#631 = ORIENTED_EDGE('',*,*,#625,.T.);
#632 = CYLINDRICAL_SURFACE('',#633,1.7);
#633 = AXIS2_PLACEMENT_3D('',#634,#635,#636);
#634 = CARTESIAN_POINT('',(118.8,-89.,-38.));
#635 = DIRECTION('',(1.,0.,0.));
#636 = DIRECTION('',(-0.,0.,1.));
#637 = ADVANCED_FACE('',(#638),#654,.F.);
#638 = FACE_BOUND('',#639,.F.);
#639 = EDGE_LOOP('',(#640,#641,#647,#648));
#640 = ORIENTED_EDGE('',*,*,#395,.F.);
#641 = ORIENTED_EDGE('',*,*,#642,.F.);
#642 = EDGE_CURVE('',#211,#396,#643,.T.);
#643 = LINE('',#644,#645);
#644 = CARTESIAN_POINT('',(118.8,-77.5,52.5));
#645 = VECTOR('',#646,1.);
#646 = DIRECTION('',(1.,0.,1.110223024625E-16));
#647 = ORIENTED_EDGE('',*,*,#210,.T.);
#648 = ORIENTED_EDGE('',*,*,#649,.T.);
#649 = EDGE_CURVE('',#213,#398,#650,.T.);
#650 = LINE('',#651,#652);
#651 = CARTESIAN_POINT('',(118.8,-78.5,51.5));
#652 = VECTOR('',#653,1.);
#653 = DIRECTION('',(1.,0.,1.110223024625E-16));
#654 = CYLINDRICAL_SURFACE('',#655,1.);
#655 = AXIS2_PLACEMENT_3D('',#656,#657,#658);
#656 = CARTESIAN_POINT('',(118.8,-77.5,51.5));
#657 = DIRECTION('',(1.,0.,1.110223024625E-16));
#658 = DIRECTION('',(1.110223024625E-16,0.,-1.));
#659 = ADVANCED_FACE('',(#660),#671,.T.);
#660 = FACE_BOUND('',#661,.T.);
#661 = EDGE_LOOP('',(#662,#663,#664,#670));
#662 = ORIENTED_EDGE('',*,*,#642,.F.);
#663 = ORIENTED_EDGE('',*,*,#221,.T.);
#664 = ORIENTED_EDGE('',*,*,#665,.T.);
#665 = EDGE_CURVE('',#222,#407,#666,.T.);
#666 = LINE('',#667,#668);
#667 = CARTESIAN_POINT('',(118.8,77.5,52.5));
#668 = VECTOR('',#669,1.);
#669 = DIRECTION('',(1.,0.,1.110223024625E-16));
#670 = ORIENTED_EDGE('',*,*,#406,.F.);
#671 = PLANE('',#672);
#672 = AXIS2_PLACEMENT_3D('',#673,#674,#675);
#673 = CARTESIAN_POINT('',(118.8,-77.5,52.5));
#674 = DIRECTION('',(1.110223024625E-16,0.,-1.));
#675 = DIRECTION('',(1.,0.,1.110223024625E-16));
#676 = ADVANCED_FACE('',(#677),#688,.T.);
#677 = FACE_BOUND('',#678,.T.);
#678 = EDGE_LOOP('',(#679,#680,#681,#682));
#679 = ORIENTED_EDGE('',*,*,#272,.T.);
#680 = ORIENTED_EDGE('',*,*,#649,.T.);
#681 = ORIENTED_EDGE('',*,*,#457,.F.);
#682 = ORIENTED_EDGE('',*,*,#683,.F.);
#683 = EDGE_CURVE('',#264,#449,#684,.T.);
#684 = LINE('',#685,#686);
#685 = CARTESIAN_POINT('',(118.8,-78.5,-35.5));
#686 = VECTOR('',#687,1.);
#687 = DIRECTION('',(1.,0.,1.110223024625E-16));
#688 = PLANE('',#689);
#689 = AXIS2_PLACEMENT_3D('',#690,#691,#692);
#690 = CARTESIAN_POINT('',(118.8,-78.5,51.5));
#691 = DIRECTION('',(0.,1.,0.));
#692 = DIRECTION('',(1.,0.,1.110223024625E-16));
#693 = ADVANCED_FACE('',(#694),#705,.F.);
#694 = FACE_BOUND('',#695,.F.);
#695 = EDGE_LOOP('',(#696,#697,#703,#704));
#696 = ORIENTED_EDGE('',*,*,#414,.F.);
#697 = ORIENTED_EDGE('',*,*,#698,.F.);
#698 = EDGE_CURVE('',#230,#415,#699,.T.);
#699 = LINE('',#700,#701);
#700 = CARTESIAN_POINT('',(118.8,78.5,51.5));
#701 = VECTOR('',#702,1.);
#702 = DIRECTION('',(1.,0.,1.110223024625E-16));
#703 = ORIENTED_EDGE('',*,*,#229,.T.);
#704 = ORIENTED_EDGE('',*,*,#665,.T.);
#705 = CYLINDRICAL_SURFACE('',#706,1.);
#706 = AXIS2_PLACEMENT_3D('',#707,#708,#709);
#707 = CARTESIAN_POINT('',(118.8,77.5,51.5));
#708 = DIRECTION('',(1.,0.,1.110223024625E-16));
#709 = DIRECTION('',(1.110223024625E-16,0.,-1.));
#710 = ADVANCED_FACE('',(#711),#722,.F.);
#711 = FACE_BOUND('',#712,.F.);
#712 = EDGE_LOOP('',(#713,#714,#715,#716));
#713 = ORIENTED_EDGE('',*,*,#448,.F.);
#714 = ORIENTED_EDGE('',*,*,#683,.F.);
#715 = ORIENTED_EDGE('',*,*,#263,.T.);
#716 = ORIENTED_EDGE('',*,*,#717,.T.);
#717 = EDGE_CURVE('',#256,#441,#718,.T.);
#718 = LINE('',#719,#720);
#719 = CARTESIAN_POINT('',(118.8,-77.5,-36.5));
#720 = VECTOR('',#721,1.);
#721 = DIRECTION('',(1.,0.,1.110223024625E-16));
#722 = CYLINDRICAL_SURFACE('',#723,1.);
#723 = AXIS2_PLACEMENT_3D('',#724,#725,#726);
#724 = CARTESIAN_POINT('',(118.8,-77.5,-35.5));
#725 = DIRECTION('',(1.,0.,1.110223024625E-16));
#726 = DIRECTION('',(1.110223024625E-16,0.,-1.));
#727 = ADVANCED_FACE('',(#728),#739,.F.);
#728 = FACE_BOUND('',#729,.F.);
#729 = EDGE_LOOP('',(#730,#731,#732,#733));
#730 = ORIENTED_EDGE('',*,*,#238,.T.);
#731 = ORIENTED_EDGE('',*,*,#698,.T.);
#732 = ORIENTED_EDGE('',*,*,#423,.F.);
#733 = ORIENTED_EDGE('',*,*,#734,.F.);
#734 = EDGE_CURVE('',#239,#424,#735,.T.);
#735 = LINE('',#736,#737);
#736 = CARTESIAN_POINT('',(118.8,78.5,-35.5));
#737 = VECTOR('',#738,1.);
#738 = DIRECTION('',(1.,0.,1.110223024625E-16));
#739 = PLANE('',#740);
#740 = AXIS2_PLACEMENT_3D('',#741,#742,#743);
#741 = CARTESIAN_POINT('',(118.8,78.5,51.5));
#742 = DIRECTION('',(0.,1.,0.));
#743 = DIRECTION('',(1.,0.,1.110223024625E-16));
#744 = ADVANCED_FACE('',(#745),#756,.F.);
#745 = FACE_BOUND('',#746,.F.);
#746 = EDGE_LOOP('',(#747,#748,#749,#755));
#747 = ORIENTED_EDGE('',*,*,#717,.F.);
#748 = ORIENTED_EDGE('',*,*,#255,.T.);
#749 = ORIENTED_EDGE('',*,*,#750,.T.);
#750 = EDGE_CURVE('',#247,#432,#751,.T.);
#751 = LINE('',#752,#753);
#752 = CARTESIAN_POINT('',(118.8,77.5,-36.5));
#753 = VECTOR('',#754,1.);
#754 = DIRECTION('',(1.,0.,1.110223024625E-16));
#755 = ORIENTED_EDGE('',*,*,#440,.F.);
#756 = PLANE('',#757);
#757 = AXIS2_PLACEMENT_3D('',#758,#759,#760);
#758 = CARTESIAN_POINT('',(118.8,-77.5,-36.5));
#759 = DIRECTION('',(1.110223024625E-16,0.,-1.));
#760 = DIRECTION('',(1.,0.,1.110223024625E-16));
#761 = ADVANCED_FACE('',(#762),#768,.F.);
#762 = FACE_BOUND('',#763,.F.);
#763 = EDGE_LOOP('',(#764,#765,#766,#767));
#764 = ORIENTED_EDGE('',*,*,#431,.F.);
#765 = ORIENTED_EDGE('',*,*,#750,.F.);
#766 = ORIENTED_EDGE('',*,*,#246,.T.);
#767 = ORIENTED_EDGE('',*,*,#734,.T.);
#768 = CYLINDRICAL_SURFACE('',#769,1.);
#769 = AXIS2_PLACEMENT_3D('',#770,#771,#772);
#770 = CARTESIAN_POINT('',(118.8,77.5,-35.5));
#771 = DIRECTION('',(1.,0.,1.110223024625E-16));
#772 = DIRECTION('',(1.110223024625E-16,0.,-1.));
#773 = ADVANCED_FACE('',(#774),#785,.F.);
#774 = FACE_BOUND('',#775,.F.);
#775 = EDGE_LOOP('',(#776,#777,#783,#784));
#776 = ORIENTED_EDGE('',*,*,#465,.F.);
#777 = ORIENTED_EDGE('',*,*,#778,.F.);
#778 = EDGE_CURVE('',#281,#466,#779,.T.);
#779 = LINE('',#780,#781);
#780 = CARTESIAN_POINT('',(118.8,-89.,9.7));
#781 = VECTOR('',#782,1.);
#782 = DIRECTION('',(1.,0.,0.));
#783 = ORIENTED_EDGE('',*,*,#280,.T.);
#784 = ORIENTED_EDGE('',*,*,#778,.T.);
#785 = CYLINDRICAL_SURFACE('',#786,1.7);
#786 = AXIS2_PLACEMENT_3D('',#787,#788,#789);
#787 = CARTESIAN_POINT('',(118.8,-89.,8.));
#788 = DIRECTION('',(1.,0.,0.));
#789 = DIRECTION('',(-0.,0.,1.));
#790 = ADVANCED_FACE('',(#791),#802,.F.);
#791 = FACE_BOUND('',#792,.F.);
#792 = EDGE_LOOP('',(#793,#794,#800,#801));
#793 = ORIENTED_EDGE('',*,*,#476,.F.);
#794 = ORIENTED_EDGE('',*,*,#795,.F.);
#795 = EDGE_CURVE('',#292,#477,#796,.T.);
#796 = LINE('',#797,#798);
#797 = CARTESIAN_POINT('',(118.8,-89.,55.7));
#798 = VECTOR('',#799,1.);
#799 = DIRECTION('',(1.,0.,0.));
#800 = ORIENTED_EDGE('',*,*,#291,.T.);
#801 = ORIENTED_EDGE('',*,*,#795,.T.);
#802 = CYLINDRICAL_SURFACE('',#803,1.7);
#803 = AXIS2_PLACEMENT_3D('',#804,#805,#806);
#804 = CARTESIAN_POINT('',(118.8,-89.,54.));
#805 = DIRECTION('',(1.,0.,0.));
#806 = DIRECTION('',(-0.,0.,1.));
#807 = ( GEOMETRIC_REPRESENTATION_CONTEXT(3) 
GLOBAL_UNCERTAINTY_ASSIGNED_CONTEXT((#811)) GLOBAL_UNIT_ASSIGNED_CONTEXT
((#808,#809,#810)) REPRESENTATION_CONTEXT('Context #1',
  '3D Context with UNIT and UNCERTAINTY') );
#808 = ( LENGTH_UNIT() NAMED_UNIT(*) SI_UNIT(.MILLI.,.METRE.) );
#809 = ( NAMED_UNIT(*) PLANE_ANGLE_UNIT() SI_UNIT($,.RADIAN.) );
#810 = ( NAMED_UNIT(*) SI_UNIT($,.STERADIAN.) SOLID_ANGLE_UNIT() );
#811 = UNCERTAINTY_MEASURE_WITH_UNIT(LENGTH_MEASURE(1.E-07),#808,
  'distance_accuracy_value','confusion accuracy');
#812 = PRODUCT_RELATED_PRODUCT_CATEGORY('part',$,(#7));
ENDSEC;
END-ISO-10303-21;
