ISO-10303-21;
HEADER;
FILE_DESCRIPTION(('FreeCAD Model'),'2;1');
FILE_NAME('Open CASCADE Shape Model','2026-09-22T18:42:06',('FreeCAD'),(
    'FreeCAD'),'Open CASCADE STEP processor 7.8','FreeCAD','Unknown');
FILE_SCHEMA(('AUTOMOTIVE_DESIGN { 1 0 10303 214 1 1 1 1 }'));
ENDSEC;
DATA;
#1 = APPLICATION_PROTOCOL_DEFINITION('international standard',
  'automotive_design',2000,#2);
#2 = APPLICATION_CONTEXT(
  'core data for automotive mechanical design processes');
#3 = SHAPE_DEFINITION_REPRESENTATION(#4,#10);
#4 = PRODUCT_DEFINITION_SHAPE('','',#5);
#5 = PRODUCT_DEFINITION('design','',#6,#9);
#6 = PRODUCT_DEFINITION_FORMATION('','',#7);
#7 = PRODUCT('Open CASCADE STEP translator 7.8 18',
  'Open CASCADE STEP translator 7.8 18','',(#8));
#8 = PRODUCT_CONTEXT('',#2,'mechanical');
#9 = PRODUCT_DEFINITION_CONTEXT('part definition',#2,'design');
#10 = ADVANCED_BREP_SHAPE_REPRESENTATION('',(#11,#15),#1253);
#11 = AXIS2_PLACEMENT_3D('',#12,#13,#14);
#12 = CARTESIAN_POINT('',(0.,0.,0.));
#13 = DIRECTION('',(0.,0.,1.));
#14 = DIRECTION('',(1.,0.,-0.));
#15 = MANIFOLD_SOLID_BREP('',#16);
#16 = CLOSED_SHELL('',(#17,#57,#88,#153,#220,#287,#306,#419,#471,#495,
    #540,#557,#574,#591,#642,#723,#755,#779,#804,#836,#860,#885,#917,
    #941,#966,#980,#997,#1049,#1073,#1118,#1135,#1152,#1169,#1186,#1198,
    #1210,#1222,#1236));
#17 = ADVANCED_FACE('',(#18),#52,.T.);
#18 = FACE_BOUND('',#19,.F.);
#19 = EDGE_LOOP('',(#20,#30,#38,#46));
#20 = ORIENTED_EDGE('',*,*,#21,.T.);
#21 = EDGE_CURVE('',#22,#24,#26,.T.);
#22 = VERTEX_POINT('',#23);
#23 = CARTESIAN_POINT('',(35.8,-78.2,5.));
#24 = VERTEX_POINT('',#25);
#25 = CARTESIAN_POINT('',(35.8,-130.,5.));
#26 = LINE('',#27,#28);
#27 = CARTESIAN_POINT('',(35.8,-78.2,5.));
#28 = VECTOR('',#29,1.);
#29 = DIRECTION('',(-0.,-1.,-0.));
#30 = ORIENTED_EDGE('',*,*,#31,.T.);
#31 = EDGE_CURVE('',#24,#32,#34,.T.);
#32 = VERTEX_POINT('',#33);
#33 = CARTESIAN_POINT('',(35.8,-130.,17.));
#34 = LINE('',#35,#36);
#35 = CARTESIAN_POINT('',(35.8,-130.,5.));
#36 = VECTOR('',#37,1.);
#37 = DIRECTION('',(-0.,-0.,1.));
#38 = ORIENTED_EDGE('',*,*,#39,.F.);
#39 = EDGE_CURVE('',#40,#32,#42,.T.);
#40 = VERTEX_POINT('',#41);
#41 = CARTESIAN_POINT('',(35.8,-78.2,17.));
#42 = LINE('',#43,#44);
#43 = CARTESIAN_POINT('',(35.8,-78.2,17.));
#44 = VECTOR('',#45,1.);
#45 = DIRECTION('',(-0.,-1.,-0.));
#46 = ORIENTED_EDGE('',*,*,#47,.F.);
#47 = EDGE_CURVE('',#22,#40,#48,.T.);
#48 = LINE('',#49,#50);
#49 = CARTESIAN_POINT('',(35.8,-78.2,5.));
#50 = VECTOR('',#51,1.);
#51 = DIRECTION('',(-0.,-0.,1.));
#52 = PLANE('',#53);
#53 = AXIS2_PLACEMENT_3D('',#54,#55,#56);
#54 = CARTESIAN_POINT('',(35.8,-78.2,5.));
#55 = DIRECTION('',(1.,-0.,-0.));
#56 = DIRECTION('',(0.,0.,-1.));
#57 = ADVANCED_FACE('',(#58),#83,.T.);
#58 = FACE_BOUND('',#59,.F.);
#59 = EDGE_LOOP('',(#60,#68,#76,#82));
#60 = ORIENTED_EDGE('',*,*,#61,.F.);
#61 = EDGE_CURVE('',#62,#22,#64,.T.);
#62 = VERTEX_POINT('',#63);
#63 = CARTESIAN_POINT('',(32.6190128606,-78.2,5.));
#64 = LINE('',#65,#66);
#65 = CARTESIAN_POINT('',(-35.8,-78.2,5.));
#66 = VECTOR('',#67,1.);
#67 = DIRECTION('',(1.,-0.,-0.));
#68 = ORIENTED_EDGE('',*,*,#69,.T.);
#69 = EDGE_CURVE('',#62,#70,#72,.T.);
#70 = VERTEX_POINT('',#71);
#71 = CARTESIAN_POINT('',(32.6190128606,-130.,5.));
#72 = LINE('',#73,#74);
#73 = CARTESIAN_POINT('',(32.6190128606,-77.,5.));
#74 = VECTOR('',#75,1.);
#75 = DIRECTION('',(-0.,-1.,-0.));
#76 = ORIENTED_EDGE('',*,*,#77,.T.);
#77 = EDGE_CURVE('',#70,#24,#78,.T.);
#78 = LINE('',#79,#80);
#79 = CARTESIAN_POINT('',(-35.8,-130.,5.));
#80 = VECTOR('',#81,1.);
#81 = DIRECTION('',(1.,-0.,-0.));
#82 = ORIENTED_EDGE('',*,*,#21,.F.);
#83 = PLANE('',#84);
#84 = AXIS2_PLACEMENT_3D('',#85,#86,#87);
#85 = CARTESIAN_POINT('',(-35.8,-78.2,5.));
#86 = DIRECTION('',(-0.,-0.,-1.));
#87 = DIRECTION('',(-1.,0.,0.));
#88 = ADVANCED_FACE('',(#89,#114),#148,.T.);
#89 = FACE_BOUND('',#90,.F.);
#90 = EDGE_LOOP('',(#91,#92,#100,#108));
#91 = ORIENTED_EDGE('',*,*,#39,.T.);
#92 = ORIENTED_EDGE('',*,*,#93,.T.);
#93 = EDGE_CURVE('',#32,#94,#96,.T.);
#94 = VERTEX_POINT('',#95);
#95 = CARTESIAN_POINT('',(24.,-130.,35.));
#96 = LINE('',#97,#98);
#97 = CARTESIAN_POINT('',(35.8,-130.,17.));
#98 = VECTOR('',#99,1.);
#99 = DIRECTION('',(-0.548250429827,-0.,0.83631421499));
#100 = ORIENTED_EDGE('',*,*,#101,.F.);
#101 = EDGE_CURVE('',#102,#94,#104,.T.);
#102 = VERTEX_POINT('',#103);
#103 = CARTESIAN_POINT('',(24.,-78.2,35.));
#104 = LINE('',#105,#106);
#105 = CARTESIAN_POINT('',(24.,-78.2,35.));
#106 = VECTOR('',#107,1.);
#107 = DIRECTION('',(-0.,-1.,-0.));
#108 = ORIENTED_EDGE('',*,*,#109,.F.);
#109 = EDGE_CURVE('',#40,#102,#110,.T.);
#110 = LINE('',#111,#112);
#111 = CARTESIAN_POINT('',(35.8,-78.2,17.));
#112 = VECTOR('',#113,1.);
#113 = DIRECTION('',(-0.548250429827,-0.,0.83631421499));
#114 = FACE_BOUND('',#115,.F.);
#115 = EDGE_LOOP('',(#116,#126,#134,#142));
#116 = ORIENTED_EDGE('',*,*,#117,.T.);
#117 = EDGE_CURVE('',#118,#120,#122,.T.);
#118 = VERTEX_POINT('',#119);
#119 = CARTESIAN_POINT('',(33.686619456288,-86.,20.223800829392));
#120 = VERTEX_POINT('',#121);
#121 = CARTESIAN_POINT('',(26.002059788996,-86.,31.946010491363));
#122 = LINE('',#123,#124);
#123 = CARTESIAN_POINT('',(32.92488990588,-86.,21.385761160522));
#124 = VECTOR('',#125,1.);
#125 = DIRECTION('',(-0.548250429827,-0.,0.83631421499));
#126 = ORIENTED_EDGE('',*,*,#127,.T.);
#127 = EDGE_CURVE('',#120,#128,#130,.T.);
#128 = VERTEX_POINT('',#129);
#129 = CARTESIAN_POINT('',(26.002059788996,-89.,31.946010491363));
#130 = LINE('',#131,#132);
#131 = CARTESIAN_POINT('',(26.002059788996,-82.1,31.946010491363));
#132 = VECTOR('',#133,1.);
#133 = DIRECTION('',(-0.,-1.,-0.));
#134 = ORIENTED_EDGE('',*,*,#135,.F.);
#135 = EDGE_CURVE('',#136,#128,#138,.T.);
#136 = VERTEX_POINT('',#137);
#137 = CARTESIAN_POINT('',(33.686619456288,-89.,20.223800829392));
#138 = LINE('',#139,#140);
#139 = CARTESIAN_POINT('',(32.92488990588,-89.,21.385761160522));
#140 = VECTOR('',#141,1.);
#141 = DIRECTION('',(-0.548250429827,-0.,0.83631421499));
#142 = ORIENTED_EDGE('',*,*,#143,.T.);
#143 = EDGE_CURVE('',#136,#118,#144,.T.);
#144 = LINE('',#145,#146);
#145 = CARTESIAN_POINT('',(33.686619456288,-82.1,20.223800829392));
#146 = VECTOR('',#147,1.);
#147 = DIRECTION('',(-0.,1.,0.));
#148 = PLANE('',#149);
#149 = AXIS2_PLACEMENT_3D('',#150,#151,#152);
#150 = CARTESIAN_POINT('',(35.8,-78.2,17.));
#151 = DIRECTION('',(0.83631421499,-0.,0.548250429827));
#152 = DIRECTION('',(0.548250429827,0.,-0.83631421499));
#153 = ADVANCED_FACE('',(#154),#215,.T.);
#154 = FACE_BOUND('',#155,.F.);
#155 = EDGE_LOOP('',(#156,#157,#158,#159,#167,#175,#183,#191,#199,#208)
  );
#156 = ORIENTED_EDGE('',*,*,#61,.T.);
#157 = ORIENTED_EDGE('',*,*,#47,.T.);
#158 = ORIENTED_EDGE('',*,*,#109,.T.);
#159 = ORIENTED_EDGE('',*,*,#160,.T.);
#160 = EDGE_CURVE('',#102,#161,#163,.T.);
#161 = VERTEX_POINT('',#162);
#162 = CARTESIAN_POINT('',(0.,-78.2,40.));
#163 = LINE('',#164,#165);
#164 = CARTESIAN_POINT('',(24.,-78.2,35.));
#165 = VECTOR('',#166,1.);
#166 = DIRECTION('',(-0.978980419738,-0.,0.203954254112));
#167 = ORIENTED_EDGE('',*,*,#168,.T.);
#168 = EDGE_CURVE('',#161,#169,#171,.T.);
#169 = VERTEX_POINT('',#170);
#170 = CARTESIAN_POINT('',(-24.,-78.2,35.));
#171 = LINE('',#172,#173);
#172 = CARTESIAN_POINT('',(0.,-78.2,40.));
#173 = VECTOR('',#174,1.);
#174 = DIRECTION('',(-0.978980419738,-0.,-0.203954254112));
#175 = ORIENTED_EDGE('',*,*,#176,.T.);
#176 = EDGE_CURVE('',#169,#177,#179,.T.);
#177 = VERTEX_POINT('',#178);
#178 = CARTESIAN_POINT('',(-35.8,-78.2,17.));
#179 = LINE('',#180,#181);
#180 = CARTESIAN_POINT('',(-24.,-78.2,35.));
#181 = VECTOR('',#182,1.);
#182 = DIRECTION('',(-0.548250429827,-0.,-0.83631421499));
#183 = ORIENTED_EDGE('',*,*,#184,.T.);
#184 = EDGE_CURVE('',#177,#185,#187,.T.);
#185 = VERTEX_POINT('',#186);
#186 = CARTESIAN_POINT('',(-35.8,-78.2,5.));
#187 = LINE('',#188,#189);
#188 = CARTESIAN_POINT('',(-35.8,-78.2,17.));
#189 = VECTOR('',#190,1.);
#190 = DIRECTION('',(-0.,-0.,-1.));
#191 = ORIENTED_EDGE('',*,*,#192,.T.);
#192 = EDGE_CURVE('',#185,#193,#195,.T.);
#193 = VERTEX_POINT('',#194);
#194 = CARTESIAN_POINT('',(-32.6190128606,-78.2,5.));
#195 = LINE('',#196,#197);
#196 = CARTESIAN_POINT('',(-35.8,-78.2,5.));
#197 = VECTOR('',#198,1.);
#198 = DIRECTION('',(1.,-0.,-0.));
#199 = ORIENTED_EDGE('',*,*,#200,.T.);
#200 = EDGE_CURVE('',#193,#201,#203,.T.);
#201 = VERTEX_POINT('',#202);
#202 = CARTESIAN_POINT('',(-8.082668874373E-15,-78.2,33.));
#203 = CIRCLE('',#204,33.);
#204 = AXIS2_PLACEMENT_3D('',#205,#206,#207);
#205 = CARTESIAN_POINT('',(0.,-78.2,0.));
#206 = DIRECTION('',(0.,1.,0.));
#207 = DIRECTION('',(-0.,-0.,1.));
#208 = ORIENTED_EDGE('',*,*,#209,.T.);
#209 = EDGE_CURVE('',#201,#62,#210,.T.);
#210 = CIRCLE('',#211,33.);
#211 = AXIS2_PLACEMENT_3D('',#212,#213,#214);
#212 = CARTESIAN_POINT('',(0.,-78.2,0.));
#213 = DIRECTION('',(0.,1.,0.));
#214 = DIRECTION('',(-0.,-0.,1.));
#215 = PLANE('',#216);
#216 = AXIS2_PLACEMENT_3D('',#217,#218,#219);
#217 = CARTESIAN_POINT('',(0.,-78.2,19.074534071329));
#218 = DIRECTION('',(-0.,1.,-0.));
#219 = DIRECTION('',(0.,0.,1.));
#220 = ADVANCED_FACE('',(#221),#282,.F.);
#221 = FACE_BOUND('',#222,.T.);
#222 = EDGE_LOOP('',(#223,#224,#225,#226,#234,#242,#250,#258,#266,#275)
  );
#223 = ORIENTED_EDGE('',*,*,#77,.T.);
#224 = ORIENTED_EDGE('',*,*,#31,.T.);
#225 = ORIENTED_EDGE('',*,*,#93,.T.);
#226 = ORIENTED_EDGE('',*,*,#227,.T.);
#227 = EDGE_CURVE('',#94,#228,#230,.T.);
#228 = VERTEX_POINT('',#229);
#229 = CARTESIAN_POINT('',(0.,-130.,40.));
#230 = LINE('',#231,#232);
#231 = CARTESIAN_POINT('',(24.,-130.,35.));
#232 = VECTOR('',#233,1.);
#233 = DIRECTION('',(-0.978980419738,-0.,0.203954254112));
#234 = ORIENTED_EDGE('',*,*,#235,.T.);
#235 = EDGE_CURVE('',#228,#236,#238,.T.);
#236 = VERTEX_POINT('',#237);
#237 = CARTESIAN_POINT('',(-24.,-130.,35.));
#238 = LINE('',#239,#240);
#239 = CARTESIAN_POINT('',(0.,-130.,40.));
#240 = VECTOR('',#241,1.);
#241 = DIRECTION('',(-0.978980419738,-0.,-0.203954254112));
#242 = ORIENTED_EDGE('',*,*,#243,.T.);
#243 = EDGE_CURVE('',#236,#244,#246,.T.);
#244 = VERTEX_POINT('',#245);
#245 = CARTESIAN_POINT('',(-35.8,-130.,17.));
#246 = LINE('',#247,#248);
#247 = CARTESIAN_POINT('',(-24.,-130.,35.));
#248 = VECTOR('',#249,1.);
#249 = DIRECTION('',(-0.548250429827,-0.,-0.83631421499));
#250 = ORIENTED_EDGE('',*,*,#251,.T.);
#251 = EDGE_CURVE('',#244,#252,#254,.T.);
#252 = VERTEX_POINT('',#253);
#253 = CARTESIAN_POINT('',(-35.8,-130.,5.));
#254 = LINE('',#255,#256);
#255 = CARTESIAN_POINT('',(-35.8,-130.,17.));
#256 = VECTOR('',#257,1.);
#257 = DIRECTION('',(-0.,-0.,-1.));
#258 = ORIENTED_EDGE('',*,*,#259,.T.);
#259 = EDGE_CURVE('',#252,#260,#262,.T.);
#260 = VERTEX_POINT('',#261);
#261 = CARTESIAN_POINT('',(-32.6190128606,-130.,5.));
#262 = LINE('',#263,#264);
#263 = CARTESIAN_POINT('',(-35.8,-130.,5.));
#264 = VECTOR('',#265,1.);
#265 = DIRECTION('',(1.,-0.,-0.));
#266 = ORIENTED_EDGE('',*,*,#267,.T.);
#267 = EDGE_CURVE('',#260,#268,#270,.T.);
#268 = VERTEX_POINT('',#269);
#269 = CARTESIAN_POINT('',(-8.082668874373E-15,-130.,33.));
#270 = CIRCLE('',#271,33.);
#271 = AXIS2_PLACEMENT_3D('',#272,#273,#274);
#272 = CARTESIAN_POINT('',(0.,-130.,0.));
#273 = DIRECTION('',(0.,1.,0.));
#274 = DIRECTION('',(-0.,-0.,1.));
#275 = ORIENTED_EDGE('',*,*,#276,.T.);
#276 = EDGE_CURVE('',#268,#70,#277,.T.);
#277 = CIRCLE('',#278,33.);
#278 = AXIS2_PLACEMENT_3D('',#279,#280,#281);
#279 = CARTESIAN_POINT('',(0.,-130.,0.));
#280 = DIRECTION('',(0.,1.,0.));
#281 = DIRECTION('',(-0.,-0.,1.));
#282 = PLANE('',#283);
#283 = AXIS2_PLACEMENT_3D('',#284,#285,#286);
#284 = CARTESIAN_POINT('',(0.,-130.,19.074534071329));
#285 = DIRECTION('',(-0.,1.,-0.));
#286 = DIRECTION('',(0.,0.,1.));
#287 = ADVANCED_FACE('',(#288),#301,.F.);
#288 = FACE_BOUND('',#289,.F.);
#289 = EDGE_LOOP('',(#290,#291,#297,#298,#299,#300));
#290 = ORIENTED_EDGE('',*,*,#200,.F.);
#291 = ORIENTED_EDGE('',*,*,#292,.T.);
#292 = EDGE_CURVE('',#193,#260,#293,.T.);
#293 = LINE('',#294,#295);
#294 = CARTESIAN_POINT('',(-32.6190128606,-77.,5.));
#295 = VECTOR('',#296,1.);
#296 = DIRECTION('',(-0.,-1.,-0.));
#297 = ORIENTED_EDGE('',*,*,#267,.T.);
#298 = ORIENTED_EDGE('',*,*,#276,.T.);
#299 = ORIENTED_EDGE('',*,*,#69,.F.);
#300 = ORIENTED_EDGE('',*,*,#209,.F.);
#301 = CYLINDRICAL_SURFACE('',#302,33.);
#302 = AXIS2_PLACEMENT_3D('',#303,#304,#305);
#303 = CARTESIAN_POINT('',(0.,-77.,0.));
#304 = DIRECTION('',(-0.,-1.,-0.));
#305 = DIRECTION('',(-0.,-0.,1.));
#306 = ADVANCED_FACE('',(#307),#414,.T.);
#307 = FACE_BOUND('',#308,.F.);
#308 = EDGE_LOOP('',(#309,#310,#311,#312,#320,#328,#336,#344,#352,#360,
    #368,#376,#384,#392,#400,#408));
#309 = ORIENTED_EDGE('',*,*,#160,.F.);
#310 = ORIENTED_EDGE('',*,*,#101,.T.);
#311 = ORIENTED_EDGE('',*,*,#227,.T.);
#312 = ORIENTED_EDGE('',*,*,#313,.F.);
#313 = EDGE_CURVE('',#314,#228,#316,.T.);
#314 = VERTEX_POINT('',#315);
#315 = CARTESIAN_POINT('',(0.,-125.,40.));
#316 = LINE('',#317,#318);
#317 = CARTESIAN_POINT('',(0.,-78.2,40.));
#318 = VECTOR('',#319,1.);
#319 = DIRECTION('',(-0.,-1.,-0.));
#320 = ORIENTED_EDGE('',*,*,#321,.F.);
#321 = EDGE_CURVE('',#322,#314,#324,.T.);
#322 = VERTEX_POINT('',#323);
#323 = CARTESIAN_POINT('',(15.,-125.,36.875));
#324 = LINE('',#325,#326);
#325 = CARTESIAN_POINT('',(5.460898502496,-125.,38.86231281198));
#326 = VECTOR('',#327,1.);
#327 = DIRECTION('',(-0.978980419738,-0.,0.203954254112));
#328 = ORIENTED_EDGE('',*,*,#329,.F.);
#329 = EDGE_CURVE('',#330,#322,#332,.T.);
#330 = VERTEX_POINT('',#331);
#331 = CARTESIAN_POINT('',(15.,-121.,36.875));
#332 = LINE('',#333,#334);
#333 = CARTESIAN_POINT('',(15.,-99.6,36.875));
#334 = VECTOR('',#335,1.);
#335 = DIRECTION('',(-0.,-1.,-0.));
#336 = ORIENTED_EDGE('',*,*,#337,.T.);
#337 = EDGE_CURVE('',#330,#338,#340,.T.);
#338 = VERTEX_POINT('',#339);
#339 = CARTESIAN_POINT('',(0.,-121.,40.));
#340 = LINE('',#341,#342);
#341 = CARTESIAN_POINT('',(5.460898502496,-121.,38.86231281198));
#342 = VECTOR('',#343,1.);
#343 = DIRECTION('',(-0.978980419738,-0.,0.203954254112));
#344 = ORIENTED_EDGE('',*,*,#345,.F.);
#345 = EDGE_CURVE('',#346,#338,#348,.T.);
#346 = VERTEX_POINT('',#347);
#347 = CARTESIAN_POINT('',(0.,-112.,40.));
#348 = LINE('',#349,#350);
#349 = CARTESIAN_POINT('',(0.,-78.2,40.));
#350 = VECTOR('',#351,1.);
#351 = DIRECTION('',(-0.,-1.,-0.));
#352 = ORIENTED_EDGE('',*,*,#353,.F.);
#353 = EDGE_CURVE('',#354,#346,#356,.T.);
#354 = VERTEX_POINT('',#355);
#355 = CARTESIAN_POINT('',(15.,-112.,36.875));
#356 = LINE('',#357,#358);
#357 = CARTESIAN_POINT('',(5.460898502496,-112.,38.86231281198));
#358 = VECTOR('',#359,1.);
#359 = DIRECTION('',(-0.978980419738,-0.,0.203954254112));
#360 = ORIENTED_EDGE('',*,*,#361,.F.);
#361 = EDGE_CURVE('',#362,#354,#364,.T.);
#362 = VERTEX_POINT('',#363);
#363 = CARTESIAN_POINT('',(15.,-108.,36.875));
#364 = LINE('',#365,#366);
#365 = CARTESIAN_POINT('',(15.,-93.1,36.875));
#366 = VECTOR('',#367,1.);
#367 = DIRECTION('',(-0.,-1.,-0.));
#368 = ORIENTED_EDGE('',*,*,#369,.T.);
#369 = EDGE_CURVE('',#362,#370,#372,.T.);
#370 = VERTEX_POINT('',#371);
#371 = CARTESIAN_POINT('',(0.,-108.,40.));
#372 = LINE('',#373,#374);
#373 = CARTESIAN_POINT('',(5.460898502496,-108.,38.86231281198));
#374 = VECTOR('',#375,1.);
#375 = DIRECTION('',(-0.978980419738,-0.,0.203954254112));
#376 = ORIENTED_EDGE('',*,*,#377,.F.);
#377 = EDGE_CURVE('',#378,#370,#380,.T.);
#378 = VERTEX_POINT('',#379);
#379 = CARTESIAN_POINT('',(0.,-99.,40.));
#380 = LINE('',#381,#382);
#381 = CARTESIAN_POINT('',(0.,-78.2,40.));
#382 = VECTOR('',#383,1.);
#383 = DIRECTION('',(-0.,-1.,-0.));
#384 = ORIENTED_EDGE('',*,*,#385,.F.);
#385 = EDGE_CURVE('',#386,#378,#388,.T.);
#386 = VERTEX_POINT('',#387);
#387 = CARTESIAN_POINT('',(15.,-99.,36.875));
#388 = LINE('',#389,#390);
#389 = CARTESIAN_POINT('',(5.460898502496,-99.,38.86231281198));
#390 = VECTOR('',#391,1.);
#391 = DIRECTION('',(-0.978980419738,-0.,0.203954254112));
#392 = ORIENTED_EDGE('',*,*,#393,.F.);
#393 = EDGE_CURVE('',#394,#386,#396,.T.);
#394 = VERTEX_POINT('',#395);
#395 = CARTESIAN_POINT('',(15.,-95.,36.875));
#396 = LINE('',#397,#398);
#397 = CARTESIAN_POINT('',(15.,-86.6,36.875));
#398 = VECTOR('',#399,1.);
#399 = DIRECTION('',(-0.,-1.,-0.));
#400 = ORIENTED_EDGE('',*,*,#401,.T.);
#401 = EDGE_CURVE('',#394,#402,#404,.T.);
#402 = VERTEX_POINT('',#403);
#403 = CARTESIAN_POINT('',(0.,-95.,40.));
#404 = LINE('',#405,#406);
#405 = CARTESIAN_POINT('',(5.460898502496,-95.,38.86231281198));
#406 = VECTOR('',#407,1.);
#407 = DIRECTION('',(-0.978980419738,-0.,0.203954254112));
#408 = ORIENTED_EDGE('',*,*,#409,.F.);
#409 = EDGE_CURVE('',#161,#402,#410,.T.);
#410 = LINE('',#411,#412);
#411 = CARTESIAN_POINT('',(0.,-78.2,40.));
#412 = VECTOR('',#413,1.);
#413 = DIRECTION('',(-0.,-1.,-0.));
#414 = PLANE('',#415);
#415 = AXIS2_PLACEMENT_3D('',#416,#417,#418);
#416 = CARTESIAN_POINT('',(24.,-78.2,35.));
#417 = DIRECTION('',(0.203954254112,-0.,0.978980419738));
#418 = DIRECTION('',(0.978980419738,0.,-0.203954254112));
#419 = ADVANCED_FACE('',(#420,#455),#466,.T.);
#420 = FACE_BOUND('',#421,.F.);
#421 = EDGE_LOOP('',(#422,#430,#431,#439,#448));
#422 = ORIENTED_EDGE('',*,*,#423,.F.);
#423 = EDGE_CURVE('',#120,#424,#426,.T.);
#424 = VERTEX_POINT('',#425);
#425 = CARTESIAN_POINT('',(37.294762839091,-86.,38.588776991419));
#426 = LINE('',#427,#428);
#427 = CARTESIAN_POINT('',(24.450859114056,-86.,31.033539506104));
#428 = VECTOR('',#429,1.);
#429 = DIRECTION('',(0.861934215158,-0.,0.507020126563));
#430 = ORIENTED_EDGE('',*,*,#117,.F.);
#431 = ORIENTED_EDGE('',*,*,#432,.F.);
#432 = EDGE_CURVE('',#433,#118,#435,.T.);
#433 = VERTEX_POINT('',#434);
#434 = CARTESIAN_POINT('',(44.393044610978,-86.,26.52169797921));
#435 = LINE('',#436,#437);
#436 = CARTESIAN_POINT('',(48.549140885944,-86.,28.966460493896));
#437 = VECTOR('',#438,1.);
#438 = DIRECTION('',(-0.861934215158,-0.,-0.507020126563));
#439 = ORIENTED_EDGE('',*,*,#440,.F.);
#440 = EDGE_CURVE('',#441,#433,#443,.T.);
#441 = VERTEX_POINT('',#442);
#442 = CARTESIAN_POINT('',(45.,-86.,43.5));
#443 = CIRCLE('',#444,8.5);
#444 = AXIS2_PLACEMENT_3D('',#445,#446,#447);
#445 = CARTESIAN_POINT('',(45.,-86.,35.));
#446 = DIRECTION('',(0.,1.,0.));
#447 = DIRECTION('',(-0.,-0.,1.));
#448 = ORIENTED_EDGE('',*,*,#449,.F.);
#449 = EDGE_CURVE('',#424,#441,#450,.T.);
#450 = CIRCLE('',#451,8.5);
#451 = AXIS2_PLACEMENT_3D('',#452,#453,#454);
#452 = CARTESIAN_POINT('',(45.,-86.,35.));
#453 = DIRECTION('',(0.,1.,0.));
#454 = DIRECTION('',(-0.,-0.,1.));
#455 = FACE_BOUND('',#456,.F.);
#456 = EDGE_LOOP('',(#457));
#457 = ORIENTED_EDGE('',*,*,#458,.T.);
#458 = EDGE_CURVE('',#459,#459,#461,.T.);
#459 = VERTEX_POINT('',#460);
#460 = CARTESIAN_POINT('',(45.,-86.,36.7));
#461 = CIRCLE('',#462,1.7);
#462 = AXIS2_PLACEMENT_3D('',#463,#464,#465);
#463 = CARTESIAN_POINT('',(45.,-86.,35.));
#464 = DIRECTION('',(0.,1.,0.));
#465 = DIRECTION('',(-0.,-0.,1.));
#466 = PLANE('',#467);
#467 = AXIS2_PLACEMENT_3D('',#468,#469,#470);
#468 = CARTESIAN_POINT('',(39.96656561019,-86.,32.259029607886));
#469 = DIRECTION('',(-0.,1.,-0.));
#470 = DIRECTION('',(0.,0.,1.));
#471 = ADVANCED_FACE('',(#472),#490,.F.);
#472 = FACE_BOUND('',#473,.T.);
#473 = EDGE_LOOP('',(#474,#475,#483,#489));
#474 = ORIENTED_EDGE('',*,*,#432,.F.);
#475 = ORIENTED_EDGE('',*,*,#476,.T.);
#476 = EDGE_CURVE('',#433,#477,#479,.T.);
#477 = VERTEX_POINT('',#478);
#478 = CARTESIAN_POINT('',(44.393044610978,-89.,26.52169797921));
#479 = LINE('',#480,#481);
#480 = CARTESIAN_POINT('',(44.393044610978,-86.,26.52169797921));
#481 = VECTOR('',#482,1.);
#482 = DIRECTION('',(-0.,-1.,-0.));
#483 = ORIENTED_EDGE('',*,*,#484,.T.);
#484 = EDGE_CURVE('',#477,#136,#485,.T.);
#485 = LINE('',#486,#487);
#486 = CARTESIAN_POINT('',(48.549140885944,-89.,28.966460493896));
#487 = VECTOR('',#488,1.);
#488 = DIRECTION('',(-0.861934215158,-0.,-0.507020126563));
#489 = ORIENTED_EDGE('',*,*,#143,.T.);
#490 = PLANE('',#491);
#491 = AXIS2_PLACEMENT_3D('',#492,#493,#494);
#492 = CARTESIAN_POINT('',(48.549140885944,-86.,28.966460493896));
#493 = DIRECTION('',(-0.507020126563,-0.,0.861934215158));
#494 = DIRECTION('',(0.861934215158,0.,0.507020126563));
#495 = ADVANCED_FACE('',(#496,#524),#535,.T.);
#496 = FACE_BOUND('',#497,.F.);
#497 = EDGE_LOOP('',(#498,#506,#515,#522,#523));
#498 = ORIENTED_EDGE('',*,*,#499,.T.);
#499 = EDGE_CURVE('',#128,#500,#502,.T.);
#500 = VERTEX_POINT('',#501);
#501 = CARTESIAN_POINT('',(37.294762839091,-89.,38.588776991419));
#502 = LINE('',#503,#504);
#503 = CARTESIAN_POINT('',(24.450859114056,-89.,31.033539506104));
#504 = VECTOR('',#505,1.);
#505 = DIRECTION('',(0.861934215158,-0.,0.507020126563));
#506 = ORIENTED_EDGE('',*,*,#507,.T.);
#507 = EDGE_CURVE('',#500,#508,#510,.T.);
#508 = VERTEX_POINT('',#509);
#509 = CARTESIAN_POINT('',(45.,-89.,43.5));
#510 = CIRCLE('',#511,8.5);
#511 = AXIS2_PLACEMENT_3D('',#512,#513,#514);
#512 = CARTESIAN_POINT('',(45.,-89.,35.));
#513 = DIRECTION('',(0.,1.,0.));
#514 = DIRECTION('',(-0.,-0.,1.));
#515 = ORIENTED_EDGE('',*,*,#516,.T.);
#516 = EDGE_CURVE('',#508,#477,#517,.T.);
#517 = CIRCLE('',#518,8.5);
#518 = AXIS2_PLACEMENT_3D('',#519,#520,#521);
#519 = CARTESIAN_POINT('',(45.,-89.,35.));
#520 = DIRECTION('',(0.,1.,0.));
#521 = DIRECTION('',(-0.,-0.,1.));
#522 = ORIENTED_EDGE('',*,*,#484,.T.);
#523 = ORIENTED_EDGE('',*,*,#135,.T.);
#524 = FACE_BOUND('',#525,.F.);
#525 = EDGE_LOOP('',(#526));
#526 = ORIENTED_EDGE('',*,*,#527,.F.);
#527 = EDGE_CURVE('',#528,#528,#530,.T.);
#528 = VERTEX_POINT('',#529);
#529 = CARTESIAN_POINT('',(45.,-89.,36.7));
#530 = CIRCLE('',#531,1.7);
#531 = AXIS2_PLACEMENT_3D('',#532,#533,#534);
#532 = CARTESIAN_POINT('',(45.,-89.,35.));
#533 = DIRECTION('',(0.,1.,0.));
#534 = DIRECTION('',(-0.,-0.,1.));
#535 = PLANE('',#536);
#536 = AXIS2_PLACEMENT_3D('',#537,#538,#539);
#537 = CARTESIAN_POINT('',(39.96656561019,-89.,32.259029607886));
#538 = DIRECTION('',(-0.,-1.,-0.));
#539 = DIRECTION('',(0.,0.,-1.));
#540 = ADVANCED_FACE('',(#541),#552,.F.);
#541 = FACE_BOUND('',#542,.T.);
#542 = EDGE_LOOP('',(#543,#544,#545,#546));
#543 = ORIENTED_EDGE('',*,*,#423,.F.);
#544 = ORIENTED_EDGE('',*,*,#127,.T.);
#545 = ORIENTED_EDGE('',*,*,#499,.T.);
#546 = ORIENTED_EDGE('',*,*,#547,.F.);
#547 = EDGE_CURVE('',#424,#500,#548,.T.);
#548 = LINE('',#549,#550);
#549 = CARTESIAN_POINT('',(37.29476283909,-86.,38.588776991418));
#550 = VECTOR('',#551,1.);
#551 = DIRECTION('',(-0.,-1.,-0.));
#552 = PLANE('',#553);
#553 = AXIS2_PLACEMENT_3D('',#554,#555,#556);
#554 = CARTESIAN_POINT('',(24.450859114056,-86.,31.033539506104));
#555 = DIRECTION('',(0.507020126563,-0.,-0.861934215158));
#556 = DIRECTION('',(-0.861934215158,0.,-0.507020126563));
#557 = ADVANCED_FACE('',(#558),#569,.T.);
#558 = FACE_BOUND('',#559,.F.);
#559 = EDGE_LOOP('',(#560,#561,#567,#568));
#560 = ORIENTED_EDGE('',*,*,#192,.F.);
#561 = ORIENTED_EDGE('',*,*,#562,.T.);
#562 = EDGE_CURVE('',#185,#252,#563,.T.);
#563 = LINE('',#564,#565);
#564 = CARTESIAN_POINT('',(-35.8,-78.2,5.));
#565 = VECTOR('',#566,1.);
#566 = DIRECTION('',(-0.,-1.,-0.));
#567 = ORIENTED_EDGE('',*,*,#259,.T.);
#568 = ORIENTED_EDGE('',*,*,#292,.F.);
#569 = PLANE('',#570);
#570 = AXIS2_PLACEMENT_3D('',#571,#572,#573);
#571 = CARTESIAN_POINT('',(-35.8,-78.2,5.));
#572 = DIRECTION('',(-0.,-0.,-1.));
#573 = DIRECTION('',(-1.,0.,0.));
#574 = ADVANCED_FACE('',(#575),#586,.T.);
#575 = FACE_BOUND('',#576,.F.);
#576 = EDGE_LOOP('',(#577,#583,#584,#585));
#577 = ORIENTED_EDGE('',*,*,#578,.T.);
#578 = EDGE_CURVE('',#177,#244,#579,.T.);
#579 = LINE('',#580,#581);
#580 = CARTESIAN_POINT('',(-35.8,-78.2,17.));
#581 = VECTOR('',#582,1.);
#582 = DIRECTION('',(-0.,-1.,-0.));
#583 = ORIENTED_EDGE('',*,*,#251,.T.);
#584 = ORIENTED_EDGE('',*,*,#562,.F.);
#585 = ORIENTED_EDGE('',*,*,#184,.F.);
#586 = PLANE('',#587);
#587 = AXIS2_PLACEMENT_3D('',#588,#589,#590);
#588 = CARTESIAN_POINT('',(-35.8,-78.2,17.));
#589 = DIRECTION('',(-1.,-0.,-0.));
#590 = DIRECTION('',(0.,0.,1.));
#591 = ADVANCED_FACE('',(#592,#603),#637,.T.);
#592 = FACE_BOUND('',#593,.F.);
#593 = EDGE_LOOP('',(#594,#600,#601,#602));
#594 = ORIENTED_EDGE('',*,*,#595,.T.);
#595 = EDGE_CURVE('',#169,#236,#596,.T.);
#596 = LINE('',#597,#598);
#597 = CARTESIAN_POINT('',(-24.,-78.2,35.));
#598 = VECTOR('',#599,1.);
#599 = DIRECTION('',(-0.,-1.,-0.));
#600 = ORIENTED_EDGE('',*,*,#243,.T.);
#601 = ORIENTED_EDGE('',*,*,#578,.F.);
#602 = ORIENTED_EDGE('',*,*,#176,.F.);
#603 = FACE_BOUND('',#604,.F.);
#604 = EDGE_LOOP('',(#605,#615,#623,#631));
#605 = ORIENTED_EDGE('',*,*,#606,.T.);
#606 = EDGE_CURVE('',#607,#609,#611,.T.);
#607 = VERTEX_POINT('',#608);
#608 = CARTESIAN_POINT('',(-26.00205978899,-86.,31.946010491363));
#609 = VERTEX_POINT('',#610);
#610 = CARTESIAN_POINT('',(-33.68661945628,-86.,20.223800829392));
#611 = LINE('',#612,#613);
#612 = CARTESIAN_POINT('',(-27.02488990588,-86.,30.385761160522));
#613 = VECTOR('',#614,1.);
#614 = DIRECTION('',(-0.548250429827,-0.,-0.83631421499));
#615 = ORIENTED_EDGE('',*,*,#616,.T.);
#616 = EDGE_CURVE('',#609,#617,#619,.T.);
#617 = VERTEX_POINT('',#618);
#618 = CARTESIAN_POINT('',(-33.68661945628,-89.,20.223800829392));
#619 = LINE('',#620,#621);
#620 = CARTESIAN_POINT('',(-33.68661945628,-82.1,20.223800829392));
#621 = VECTOR('',#622,1.);
#622 = DIRECTION('',(-0.,-1.,-0.));
#623 = ORIENTED_EDGE('',*,*,#624,.F.);
#624 = EDGE_CURVE('',#625,#617,#627,.T.);
#625 = VERTEX_POINT('',#626);
#626 = CARTESIAN_POINT('',(-26.00205978899,-89.,31.946010491363));
#627 = LINE('',#628,#629);
#628 = CARTESIAN_POINT('',(-27.02488990588,-89.,30.385761160522));
#629 = VECTOR('',#630,1.);
#630 = DIRECTION('',(-0.548250429827,-0.,-0.83631421499));
#631 = ORIENTED_EDGE('',*,*,#632,.T.);
#632 = EDGE_CURVE('',#625,#607,#633,.T.);
#633 = LINE('',#634,#635);
#634 = CARTESIAN_POINT('',(-26.00205978899,-82.1,31.946010491363));
#635 = VECTOR('',#636,1.);
#636 = DIRECTION('',(-0.,1.,0.));
#637 = PLANE('',#638);
#638 = AXIS2_PLACEMENT_3D('',#639,#640,#641);
#639 = CARTESIAN_POINT('',(-24.,-78.2,35.));
#640 = DIRECTION('',(-0.83631421499,-0.,0.548250429827));
#641 = DIRECTION('',(0.548250429827,0.,0.83631421499));
#642 = ADVANCED_FACE('',(#643),#718,.T.);
#643 = FACE_BOUND('',#644,.F.);
#644 = EDGE_LOOP('',(#645,#646,#647,#655,#663,#669,#670,#678,#686,#692,
    #693,#701,#709,#715,#716,#717));
#645 = ORIENTED_EDGE('',*,*,#168,.F.);
#646 = ORIENTED_EDGE('',*,*,#409,.T.);
#647 = ORIENTED_EDGE('',*,*,#648,.T.);
#648 = EDGE_CURVE('',#402,#649,#651,.T.);
#649 = VERTEX_POINT('',#650);
#650 = CARTESIAN_POINT('',(-15.,-95.,36.875));
#651 = LINE('',#652,#653);
#652 = CARTESIAN_POINT('',(-7.83693843594,-95.,38.367304492512));
#653 = VECTOR('',#654,1.);
#654 = DIRECTION('',(-0.978980419738,-0.,-0.203954254112));
#655 = ORIENTED_EDGE('',*,*,#656,.T.);
#656 = EDGE_CURVE('',#649,#657,#659,.T.);
#657 = VERTEX_POINT('',#658);
#658 = CARTESIAN_POINT('',(-15.,-99.,36.875));
#659 = LINE('',#660,#661);
#660 = CARTESIAN_POINT('',(-15.,-86.6,36.875));
#661 = VECTOR('',#662,1.);
#662 = DIRECTION('',(-0.,-1.,-0.));
#663 = ORIENTED_EDGE('',*,*,#664,.F.);
#664 = EDGE_CURVE('',#378,#657,#665,.T.);
#665 = LINE('',#666,#667);
#666 = CARTESIAN_POINT('',(-7.83693843594,-99.,38.367304492512));
#667 = VECTOR('',#668,1.);
#668 = DIRECTION('',(-0.978980419738,-0.,-0.203954254112));
#669 = ORIENTED_EDGE('',*,*,#377,.T.);
#670 = ORIENTED_EDGE('',*,*,#671,.T.);
#671 = EDGE_CURVE('',#370,#672,#674,.T.);
#672 = VERTEX_POINT('',#673);
#673 = CARTESIAN_POINT('',(-15.,-108.,36.875));
#674 = LINE('',#675,#676);
#675 = CARTESIAN_POINT('',(-7.83693843594,-108.,38.367304492512));
#676 = VECTOR('',#677,1.);
#677 = DIRECTION('',(-0.978980419738,-0.,-0.203954254112));
#678 = ORIENTED_EDGE('',*,*,#679,.T.);
#679 = EDGE_CURVE('',#672,#680,#682,.T.);
#680 = VERTEX_POINT('',#681);
#681 = CARTESIAN_POINT('',(-15.,-112.,36.875));
#682 = LINE('',#683,#684);
#683 = CARTESIAN_POINT('',(-15.,-93.1,36.875));
#684 = VECTOR('',#685,1.);
#685 = DIRECTION('',(-0.,-1.,-0.));
#686 = ORIENTED_EDGE('',*,*,#687,.F.);
#687 = EDGE_CURVE('',#346,#680,#688,.T.);
#688 = LINE('',#689,#690);
#689 = CARTESIAN_POINT('',(-7.83693843594,-112.,38.367304492512));
#690 = VECTOR('',#691,1.);
#691 = DIRECTION('',(-0.978980419738,-0.,-0.203954254112));
#692 = ORIENTED_EDGE('',*,*,#345,.T.);
#693 = ORIENTED_EDGE('',*,*,#694,.T.);
#694 = EDGE_CURVE('',#338,#695,#697,.T.);
#695 = VERTEX_POINT('',#696);
#696 = CARTESIAN_POINT('',(-15.,-121.,36.875));
#697 = LINE('',#698,#699);
#698 = CARTESIAN_POINT('',(-7.83693843594,-121.,38.367304492512));
#699 = VECTOR('',#700,1.);
#700 = DIRECTION('',(-0.978980419738,-0.,-0.203954254112));
#701 = ORIENTED_EDGE('',*,*,#702,.T.);
#702 = EDGE_CURVE('',#695,#703,#705,.T.);
#703 = VERTEX_POINT('',#704);
#704 = CARTESIAN_POINT('',(-15.,-125.,36.875));
#705 = LINE('',#706,#707);
#706 = CARTESIAN_POINT('',(-15.,-99.6,36.875));
#707 = VECTOR('',#708,1.);
#708 = DIRECTION('',(-0.,-1.,-0.));
#709 = ORIENTED_EDGE('',*,*,#710,.F.);
#710 = EDGE_CURVE('',#314,#703,#711,.T.);
#711 = LINE('',#712,#713);
#712 = CARTESIAN_POINT('',(-7.83693843594,-125.,38.367304492512));
#713 = VECTOR('',#714,1.);
#714 = DIRECTION('',(-0.978980419738,-0.,-0.203954254112));
#715 = ORIENTED_EDGE('',*,*,#313,.T.);
#716 = ORIENTED_EDGE('',*,*,#235,.T.);
#717 = ORIENTED_EDGE('',*,*,#595,.F.);
#718 = PLANE('',#719);
#719 = AXIS2_PLACEMENT_3D('',#720,#721,#722);
#720 = CARTESIAN_POINT('',(0.,-78.2,40.));
#721 = DIRECTION('',(-0.203954254112,-0.,0.978980419738));
#722 = DIRECTION('',(0.978980419738,0.,0.203954254112));
#723 = ADVANCED_FACE('',(#724),#750,.T.);
#724 = FACE_BOUND('',#725,.F.);
#725 = EDGE_LOOP('',(#726,#734,#742,#748,#749));
#726 = ORIENTED_EDGE('',*,*,#727,.F.);
#727 = EDGE_CURVE('',#728,#394,#730,.T.);
#728 = VERTEX_POINT('',#729);
#729 = CARTESIAN_POINT('',(15.,-95.,33.5));
#730 = LINE('',#731,#732);
#731 = CARTESIAN_POINT('',(15.,-95.,33.5));
#732 = VECTOR('',#733,1.);
#733 = DIRECTION('',(-0.,-0.,1.));
#734 = ORIENTED_EDGE('',*,*,#735,.F.);
#735 = EDGE_CURVE('',#736,#728,#738,.T.);
#736 = VERTEX_POINT('',#737);
#737 = CARTESIAN_POINT('',(-15.,-95.,33.5));
#738 = LINE('',#739,#740);
#739 = CARTESIAN_POINT('',(-15.,-95.,33.5));
#740 = VECTOR('',#741,1.);
#741 = DIRECTION('',(1.,-0.,-0.));
#742 = ORIENTED_EDGE('',*,*,#743,.T.);
#743 = EDGE_CURVE('',#736,#649,#744,.T.);
#744 = LINE('',#745,#746);
#745 = CARTESIAN_POINT('',(-15.,-95.,33.5));
#746 = VECTOR('',#747,1.);
#747 = DIRECTION('',(-0.,-0.,1.));
#748 = ORIENTED_EDGE('',*,*,#648,.F.);
#749 = ORIENTED_EDGE('',*,*,#401,.F.);
#750 = PLANE('',#751);
#751 = AXIS2_PLACEMENT_3D('',#752,#753,#754);
#752 = CARTESIAN_POINT('',(-15.,-95.,33.5));
#753 = DIRECTION('',(-0.,-1.,-0.));
#754 = DIRECTION('',(0.,0.,-1.));
#755 = ADVANCED_FACE('',(#756),#774,.F.);
#756 = FACE_BOUND('',#757,.T.);
#757 = EDGE_LOOP('',(#758,#759,#767,#773));
#758 = ORIENTED_EDGE('',*,*,#727,.F.);
#759 = ORIENTED_EDGE('',*,*,#760,.T.);
#760 = EDGE_CURVE('',#728,#761,#763,.T.);
#761 = VERTEX_POINT('',#762);
#762 = CARTESIAN_POINT('',(15.,-99.,33.5));
#763 = LINE('',#764,#765);
#764 = CARTESIAN_POINT('',(15.,-95.,33.5));
#765 = VECTOR('',#766,1.);
#766 = DIRECTION('',(-0.,-1.,-0.));
#767 = ORIENTED_EDGE('',*,*,#768,.T.);
#768 = EDGE_CURVE('',#761,#386,#769,.T.);
#769 = LINE('',#770,#771);
#770 = CARTESIAN_POINT('',(15.,-99.,33.5));
#771 = VECTOR('',#772,1.);
#772 = DIRECTION('',(-0.,-0.,1.));
#773 = ORIENTED_EDGE('',*,*,#393,.F.);
#774 = PLANE('',#775);
#775 = AXIS2_PLACEMENT_3D('',#776,#777,#778);
#776 = CARTESIAN_POINT('',(15.,-95.,33.5));
#777 = DIRECTION('',(1.,-0.,-0.));
#778 = DIRECTION('',(0.,0.,-1.));
#779 = ADVANCED_FACE('',(#780),#799,.F.);
#780 = FACE_BOUND('',#781,.T.);
#781 = EDGE_LOOP('',(#782,#783,#791,#797,#798));
#782 = ORIENTED_EDGE('',*,*,#768,.F.);
#783 = ORIENTED_EDGE('',*,*,#784,.F.);
#784 = EDGE_CURVE('',#785,#761,#787,.T.);
#785 = VERTEX_POINT('',#786);
#786 = CARTESIAN_POINT('',(-15.,-99.,33.5));
#787 = LINE('',#788,#789);
#788 = CARTESIAN_POINT('',(-15.,-99.,33.5));
#789 = VECTOR('',#790,1.);
#790 = DIRECTION('',(1.,-0.,-0.));
#791 = ORIENTED_EDGE('',*,*,#792,.T.);
#792 = EDGE_CURVE('',#785,#657,#793,.T.);
#793 = LINE('',#794,#795);
#794 = CARTESIAN_POINT('',(-15.,-99.,33.5));
#795 = VECTOR('',#796,1.);
#796 = DIRECTION('',(-0.,-0.,1.));
#797 = ORIENTED_EDGE('',*,*,#664,.F.);
#798 = ORIENTED_EDGE('',*,*,#385,.F.);
#799 = PLANE('',#800);
#800 = AXIS2_PLACEMENT_3D('',#801,#802,#803);
#801 = CARTESIAN_POINT('',(-15.,-99.,33.5));
#802 = DIRECTION('',(-0.,-1.,-0.));
#803 = DIRECTION('',(0.,0.,-1.));
#804 = ADVANCED_FACE('',(#805),#831,.T.);
#805 = FACE_BOUND('',#806,.F.);
#806 = EDGE_LOOP('',(#807,#815,#823,#829,#830));
#807 = ORIENTED_EDGE('',*,*,#808,.F.);
#808 = EDGE_CURVE('',#809,#362,#811,.T.);
#809 = VERTEX_POINT('',#810);
#810 = CARTESIAN_POINT('',(15.,-108.,33.5));
#811 = LINE('',#812,#813);
#812 = CARTESIAN_POINT('',(15.,-108.,33.5));
#813 = VECTOR('',#814,1.);
#814 = DIRECTION('',(-0.,-0.,1.));
#815 = ORIENTED_EDGE('',*,*,#816,.F.);
#816 = EDGE_CURVE('',#817,#809,#819,.T.);
#817 = VERTEX_POINT('',#818);
#818 = CARTESIAN_POINT('',(-15.,-108.,33.5));
#819 = LINE('',#820,#821);
#820 = CARTESIAN_POINT('',(-15.,-108.,33.5));
#821 = VECTOR('',#822,1.);
#822 = DIRECTION('',(1.,-0.,-0.));
#823 = ORIENTED_EDGE('',*,*,#824,.T.);
#824 = EDGE_CURVE('',#817,#672,#825,.T.);
#825 = LINE('',#826,#827);
#826 = CARTESIAN_POINT('',(-15.,-108.,33.5));
#827 = VECTOR('',#828,1.);
#828 = DIRECTION('',(-0.,-0.,1.));
#829 = ORIENTED_EDGE('',*,*,#671,.F.);
#830 = ORIENTED_EDGE('',*,*,#369,.F.);
#831 = PLANE('',#832);
#832 = AXIS2_PLACEMENT_3D('',#833,#834,#835);
#833 = CARTESIAN_POINT('',(-15.,-108.,33.5));
#834 = DIRECTION('',(-0.,-1.,-0.));
#835 = DIRECTION('',(0.,0.,-1.));
#836 = ADVANCED_FACE('',(#837),#855,.F.);
#837 = FACE_BOUND('',#838,.T.);
#838 = EDGE_LOOP('',(#839,#840,#848,#854));
#839 = ORIENTED_EDGE('',*,*,#808,.F.);
#840 = ORIENTED_EDGE('',*,*,#841,.T.);
#841 = EDGE_CURVE('',#809,#842,#844,.T.);
#842 = VERTEX_POINT('',#843);
#843 = CARTESIAN_POINT('',(15.,-112.,33.5));
#844 = LINE('',#845,#846);
#845 = CARTESIAN_POINT('',(15.,-108.,33.5));
#846 = VECTOR('',#847,1.);
#847 = DIRECTION('',(-0.,-1.,-0.));
#848 = ORIENTED_EDGE('',*,*,#849,.T.);
#849 = EDGE_CURVE('',#842,#354,#850,.T.);
#850 = LINE('',#851,#852);
#851 = CARTESIAN_POINT('',(15.,-112.,33.5));
#852 = VECTOR('',#853,1.);
#853 = DIRECTION('',(-0.,-0.,1.));
#854 = ORIENTED_EDGE('',*,*,#361,.F.);
#855 = PLANE('',#856);
#856 = AXIS2_PLACEMENT_3D('',#857,#858,#859);
#857 = CARTESIAN_POINT('',(15.,-108.,33.5));
#858 = DIRECTION('',(1.,-0.,-0.));
#859 = DIRECTION('',(0.,0.,-1.));
#860 = ADVANCED_FACE('',(#861),#880,.F.);
#861 = FACE_BOUND('',#862,.T.);
#862 = EDGE_LOOP('',(#863,#864,#872,#878,#879));
#863 = ORIENTED_EDGE('',*,*,#849,.F.);
#864 = ORIENTED_EDGE('',*,*,#865,.F.);
#865 = EDGE_CURVE('',#866,#842,#868,.T.);
#866 = VERTEX_POINT('',#867);
#867 = CARTESIAN_POINT('',(-15.,-112.,33.5));
#868 = LINE('',#869,#870);
#869 = CARTESIAN_POINT('',(-15.,-112.,33.5));
#870 = VECTOR('',#871,1.);
#871 = DIRECTION('',(1.,-0.,-0.));
#872 = ORIENTED_EDGE('',*,*,#873,.T.);
#873 = EDGE_CURVE('',#866,#680,#874,.T.);
#874 = LINE('',#875,#876);
#875 = CARTESIAN_POINT('',(-15.,-112.,33.5));
#876 = VECTOR('',#877,1.);
#877 = DIRECTION('',(-0.,-0.,1.));
#878 = ORIENTED_EDGE('',*,*,#687,.F.);
#879 = ORIENTED_EDGE('',*,*,#353,.F.);
#880 = PLANE('',#881);
#881 = AXIS2_PLACEMENT_3D('',#882,#883,#884);
#882 = CARTESIAN_POINT('',(-15.,-112.,33.5));
#883 = DIRECTION('',(-0.,-1.,-0.));
#884 = DIRECTION('',(0.,0.,-1.));
#885 = ADVANCED_FACE('',(#886),#912,.T.);
#886 = FACE_BOUND('',#887,.F.);
#887 = EDGE_LOOP('',(#888,#896,#904,#910,#911));
#888 = ORIENTED_EDGE('',*,*,#889,.F.);
#889 = EDGE_CURVE('',#890,#330,#892,.T.);
#890 = VERTEX_POINT('',#891);
#891 = CARTESIAN_POINT('',(15.,-121.,33.5));
#892 = LINE('',#893,#894);
#893 = CARTESIAN_POINT('',(15.,-121.,33.5));
#894 = VECTOR('',#895,1.);
#895 = DIRECTION('',(-0.,-0.,1.));
#896 = ORIENTED_EDGE('',*,*,#897,.F.);
#897 = EDGE_CURVE('',#898,#890,#900,.T.);
#898 = VERTEX_POINT('',#899);
#899 = CARTESIAN_POINT('',(-15.,-121.,33.5));
#900 = LINE('',#901,#902);
#901 = CARTESIAN_POINT('',(-15.,-121.,33.5));
#902 = VECTOR('',#903,1.);
#903 = DIRECTION('',(1.,-0.,-0.));
#904 = ORIENTED_EDGE('',*,*,#905,.T.);
#905 = EDGE_CURVE('',#898,#695,#906,.T.);
#906 = LINE('',#907,#908);
#907 = CARTESIAN_POINT('',(-15.,-121.,33.5));
#908 = VECTOR('',#909,1.);
#909 = DIRECTION('',(-0.,-0.,1.));
#910 = ORIENTED_EDGE('',*,*,#694,.F.);
#911 = ORIENTED_EDGE('',*,*,#337,.F.);
#912 = PLANE('',#913);
#913 = AXIS2_PLACEMENT_3D('',#914,#915,#916);
#914 = CARTESIAN_POINT('',(-15.,-121.,33.5));
#915 = DIRECTION('',(-0.,-1.,-0.));
#916 = DIRECTION('',(0.,0.,-1.));
#917 = ADVANCED_FACE('',(#918),#936,.F.);
#918 = FACE_BOUND('',#919,.T.);
#919 = EDGE_LOOP('',(#920,#921,#929,#935));
#920 = ORIENTED_EDGE('',*,*,#889,.F.);
#921 = ORIENTED_EDGE('',*,*,#922,.T.);
#922 = EDGE_CURVE('',#890,#923,#925,.T.);
#923 = VERTEX_POINT('',#924);
#924 = CARTESIAN_POINT('',(15.,-125.,33.5));
#925 = LINE('',#926,#927);
#926 = CARTESIAN_POINT('',(15.,-121.,33.5));
#927 = VECTOR('',#928,1.);
#928 = DIRECTION('',(-0.,-1.,-0.));
#929 = ORIENTED_EDGE('',*,*,#930,.T.);
#930 = EDGE_CURVE('',#923,#322,#931,.T.);
#931 = LINE('',#932,#933);
#932 = CARTESIAN_POINT('',(15.,-125.,33.5));
#933 = VECTOR('',#934,1.);
#934 = DIRECTION('',(-0.,-0.,1.));
#935 = ORIENTED_EDGE('',*,*,#329,.F.);
#936 = PLANE('',#937);
#937 = AXIS2_PLACEMENT_3D('',#938,#939,#940);
#938 = CARTESIAN_POINT('',(15.,-121.,33.5));
#939 = DIRECTION('',(1.,-0.,-0.));
#940 = DIRECTION('',(0.,0.,-1.));
#941 = ADVANCED_FACE('',(#942),#961,.F.);
#942 = FACE_BOUND('',#943,.T.);
#943 = EDGE_LOOP('',(#944,#945,#953,#959,#960));
#944 = ORIENTED_EDGE('',*,*,#930,.F.);
#945 = ORIENTED_EDGE('',*,*,#946,.F.);
#946 = EDGE_CURVE('',#947,#923,#949,.T.);
#947 = VERTEX_POINT('',#948);
#948 = CARTESIAN_POINT('',(-15.,-125.,33.5));
#949 = LINE('',#950,#951);
#950 = CARTESIAN_POINT('',(-15.,-125.,33.5));
#951 = VECTOR('',#952,1.);
#952 = DIRECTION('',(1.,-0.,-0.));
#953 = ORIENTED_EDGE('',*,*,#954,.T.);
#954 = EDGE_CURVE('',#947,#703,#955,.T.);
#955 = LINE('',#956,#957);
#956 = CARTESIAN_POINT('',(-15.,-125.,33.5));
#957 = VECTOR('',#958,1.);
#958 = DIRECTION('',(-0.,-0.,1.));
#959 = ORIENTED_EDGE('',*,*,#710,.F.);
#960 = ORIENTED_EDGE('',*,*,#321,.F.);
#961 = PLANE('',#962);
#962 = AXIS2_PLACEMENT_3D('',#963,#964,#965);
#963 = CARTESIAN_POINT('',(-15.,-125.,33.5));
#964 = DIRECTION('',(-0.,-1.,-0.));
#965 = DIRECTION('',(0.,0.,-1.));
#966 = ADVANCED_FACE('',(#967),#975,.T.);
#967 = FACE_BOUND('',#968,.F.);
#968 = EDGE_LOOP('',(#969,#970,#971,#972,#973,#974));
#969 = ORIENTED_EDGE('',*,*,#507,.F.);
#970 = ORIENTED_EDGE('',*,*,#547,.F.);
#971 = ORIENTED_EDGE('',*,*,#449,.T.);
#972 = ORIENTED_EDGE('',*,*,#440,.T.);
#973 = ORIENTED_EDGE('',*,*,#476,.T.);
#974 = ORIENTED_EDGE('',*,*,#516,.F.);
#975 = CYLINDRICAL_SURFACE('',#976,8.5);
#976 = AXIS2_PLACEMENT_3D('',#977,#978,#979);
#977 = CARTESIAN_POINT('',(45.,-86.,35.));
#978 = DIRECTION('',(-0.,-1.,-0.));
#979 = DIRECTION('',(-0.,-0.,1.));
#980 = ADVANCED_FACE('',(#981),#992,.F.);
#981 = FACE_BOUND('',#982,.T.);
#982 = EDGE_LOOP('',(#983,#984,#990,#991));
#983 = ORIENTED_EDGE('',*,*,#527,.F.);
#984 = ORIENTED_EDGE('',*,*,#985,.F.);
#985 = EDGE_CURVE('',#459,#528,#986,.T.);
#986 = LINE('',#987,#988);
#987 = CARTESIAN_POINT('',(45.,-85.5,36.7));
#988 = VECTOR('',#989,1.);
#989 = DIRECTION('',(-0.,-1.,-0.));
#990 = ORIENTED_EDGE('',*,*,#458,.T.);
#991 = ORIENTED_EDGE('',*,*,#985,.T.);
#992 = CYLINDRICAL_SURFACE('',#993,1.7);
#993 = AXIS2_PLACEMENT_3D('',#994,#995,#996);
#994 = CARTESIAN_POINT('',(45.,-85.5,35.));
#995 = DIRECTION('',(-0.,-1.,-0.));
#996 = DIRECTION('',(-0.,-0.,1.));
#997 = ADVANCED_FACE('',(#998,#1033),#1044,.T.);
#998 = FACE_BOUND('',#999,.F.);
#999 = EDGE_LOOP('',(#1000,#1008,#1009,#1017,#1026));
#1000 = ORIENTED_EDGE('',*,*,#1001,.F.);
#1001 = EDGE_CURVE('',#609,#1002,#1004,.T.);
#1002 = VERTEX_POINT('',#1003);
#1003 = CARTESIAN_POINT('',(-44.39304461097,-86.,26.52169797921));
#1004 = LINE('',#1005,#1006);
#1005 = CARTESIAN_POINT('',(-31.54914088594,-86.,18.966460493896));
#1006 = VECTOR('',#1007,1.);
#1007 = DIRECTION('',(-0.861934215158,-0.,0.507020126563));
#1008 = ORIENTED_EDGE('',*,*,#606,.F.);
#1009 = ORIENTED_EDGE('',*,*,#1010,.F.);
#1010 = EDGE_CURVE('',#1011,#607,#1013,.T.);
#1011 = VERTEX_POINT('',#1012);
#1012 = CARTESIAN_POINT('',(-37.29476283909,-86.,38.588776991419));
#1013 = LINE('',#1014,#1015);
#1014 = CARTESIAN_POINT('',(-41.45085911405,-86.,41.033539506104));
#1015 = VECTOR('',#1016,1.);
#1016 = DIRECTION('',(0.861934215158,-0.,-0.507020126563));
#1017 = ORIENTED_EDGE('',*,*,#1018,.F.);
#1018 = EDGE_CURVE('',#1019,#1011,#1021,.T.);
#1019 = VERTEX_POINT('',#1020);
#1020 = CARTESIAN_POINT('',(-45.,-86.,43.5));
#1021 = CIRCLE('',#1022,8.5);
#1022 = AXIS2_PLACEMENT_3D('',#1023,#1024,#1025);
#1023 = CARTESIAN_POINT('',(-45.,-86.,35.));
#1024 = DIRECTION('',(0.,1.,0.));
#1025 = DIRECTION('',(-0.,-0.,1.));
#1026 = ORIENTED_EDGE('',*,*,#1027,.F.);
#1027 = EDGE_CURVE('',#1002,#1019,#1028,.T.);
#1028 = CIRCLE('',#1029,8.5);
#1029 = AXIS2_PLACEMENT_3D('',#1030,#1031,#1032);
#1030 = CARTESIAN_POINT('',(-45.,-86.,35.));
#1031 = DIRECTION('',(0.,1.,0.));
#1032 = DIRECTION('',(-0.,-0.,1.));
#1033 = FACE_BOUND('',#1034,.F.);
#1034 = EDGE_LOOP('',(#1035));
#1035 = ORIENTED_EDGE('',*,*,#1036,.T.);
#1036 = EDGE_CURVE('',#1037,#1037,#1039,.T.);
#1037 = VERTEX_POINT('',#1038);
#1038 = CARTESIAN_POINT('',(-45.,-86.,36.7));
#1039 = CIRCLE('',#1040,1.7);
#1040 = AXIS2_PLACEMENT_3D('',#1041,#1042,#1043);
#1041 = CARTESIAN_POINT('',(-45.,-86.,35.));
#1042 = DIRECTION('',(0.,1.,0.));
#1043 = DIRECTION('',(-0.,-0.,1.));
#1044 = PLANE('',#1045);
#1045 = AXIS2_PLACEMENT_3D('',#1046,#1047,#1048);
#1046 = CARTESIAN_POINT('',(-39.96656561019,-86.,32.259029607886));
#1047 = DIRECTION('',(-0.,1.,-0.));
#1048 = DIRECTION('',(0.,0.,1.));
#1049 = ADVANCED_FACE('',(#1050),#1068,.F.);
#1050 = FACE_BOUND('',#1051,.T.);
#1051 = EDGE_LOOP('',(#1052,#1053,#1061,#1067));
#1052 = ORIENTED_EDGE('',*,*,#1010,.F.);
#1053 = ORIENTED_EDGE('',*,*,#1054,.T.);
#1054 = EDGE_CURVE('',#1011,#1055,#1057,.T.);
#1055 = VERTEX_POINT('',#1056);
#1056 = CARTESIAN_POINT('',(-37.29476283909,-89.,38.588776991419));
#1057 = LINE('',#1058,#1059);
#1058 = CARTESIAN_POINT('',(-37.29476283909,-86.,38.588776991418));
#1059 = VECTOR('',#1060,1.);
#1060 = DIRECTION('',(-0.,-1.,-0.));
#1061 = ORIENTED_EDGE('',*,*,#1062,.T.);
#1062 = EDGE_CURVE('',#1055,#625,#1063,.T.);
#1063 = LINE('',#1064,#1065);
#1064 = CARTESIAN_POINT('',(-41.45085911405,-89.,41.033539506104));
#1065 = VECTOR('',#1066,1.);
#1066 = DIRECTION('',(0.861934215158,-0.,-0.507020126563));
#1067 = ORIENTED_EDGE('',*,*,#632,.T.);
#1068 = PLANE('',#1069);
#1069 = AXIS2_PLACEMENT_3D('',#1070,#1071,#1072);
#1070 = CARTESIAN_POINT('',(-41.45085911405,-86.,41.033539506104));
#1071 = DIRECTION('',(-0.507020126563,-0.,-0.861934215158));
#1072 = DIRECTION('',(-0.861934215158,0.,0.507020126563));
#1073 = ADVANCED_FACE('',(#1074,#1102),#1113,.T.);
#1074 = FACE_BOUND('',#1075,.F.);
#1075 = EDGE_LOOP('',(#1076,#1084,#1093,#1100,#1101));
#1076 = ORIENTED_EDGE('',*,*,#1077,.T.);
#1077 = EDGE_CURVE('',#617,#1078,#1080,.T.);
#1078 = VERTEX_POINT('',#1079);
#1079 = CARTESIAN_POINT('',(-44.39304461097,-89.,26.52169797921));
#1080 = LINE('',#1081,#1082);
#1081 = CARTESIAN_POINT('',(-31.54914088594,-89.,18.966460493896));
#1082 = VECTOR('',#1083,1.);
#1083 = DIRECTION('',(-0.861934215158,-0.,0.507020126563));
#1084 = ORIENTED_EDGE('',*,*,#1085,.T.);
#1085 = EDGE_CURVE('',#1078,#1086,#1088,.T.);
#1086 = VERTEX_POINT('',#1087);
#1087 = CARTESIAN_POINT('',(-45.,-89.,43.5));
#1088 = CIRCLE('',#1089,8.5);
#1089 = AXIS2_PLACEMENT_3D('',#1090,#1091,#1092);
#1090 = CARTESIAN_POINT('',(-45.,-89.,35.));
#1091 = DIRECTION('',(0.,1.,0.));
#1092 = DIRECTION('',(-0.,-0.,1.));
#1093 = ORIENTED_EDGE('',*,*,#1094,.T.);
#1094 = EDGE_CURVE('',#1086,#1055,#1095,.T.);
#1095 = CIRCLE('',#1096,8.5);
#1096 = AXIS2_PLACEMENT_3D('',#1097,#1098,#1099);
#1097 = CARTESIAN_POINT('',(-45.,-89.,35.));
#1098 = DIRECTION('',(0.,1.,0.));
#1099 = DIRECTION('',(-0.,-0.,1.));
#1100 = ORIENTED_EDGE('',*,*,#1062,.T.);
#1101 = ORIENTED_EDGE('',*,*,#624,.T.);
#1102 = FACE_BOUND('',#1103,.F.);
#1103 = EDGE_LOOP('',(#1104));
#1104 = ORIENTED_EDGE('',*,*,#1105,.F.);
#1105 = EDGE_CURVE('',#1106,#1106,#1108,.T.);
#1106 = VERTEX_POINT('',#1107);
#1107 = CARTESIAN_POINT('',(-45.,-89.,36.7));
#1108 = CIRCLE('',#1109,1.7);
#1109 = AXIS2_PLACEMENT_3D('',#1110,#1111,#1112);
#1110 = CARTESIAN_POINT('',(-45.,-89.,35.));
#1111 = DIRECTION('',(0.,1.,0.));
#1112 = DIRECTION('',(-0.,-0.,1.));
#1113 = PLANE('',#1114);
#1114 = AXIS2_PLACEMENT_3D('',#1115,#1116,#1117);
#1115 = CARTESIAN_POINT('',(-39.96656561019,-89.,32.259029607886));
#1116 = DIRECTION('',(-0.,-1.,-0.));
#1117 = DIRECTION('',(0.,0.,-1.));
#1118 = ADVANCED_FACE('',(#1119),#1130,.F.);
#1119 = FACE_BOUND('',#1120,.T.);
#1120 = EDGE_LOOP('',(#1121,#1122,#1123,#1124));
#1121 = ORIENTED_EDGE('',*,*,#1001,.F.);
#1122 = ORIENTED_EDGE('',*,*,#616,.T.);
#1123 = ORIENTED_EDGE('',*,*,#1077,.T.);
#1124 = ORIENTED_EDGE('',*,*,#1125,.F.);
#1125 = EDGE_CURVE('',#1002,#1078,#1126,.T.);
#1126 = LINE('',#1127,#1128);
#1127 = CARTESIAN_POINT('',(-44.39304461097,-86.,26.52169797921));
#1128 = VECTOR('',#1129,1.);
#1129 = DIRECTION('',(-0.,-1.,-0.));
#1130 = PLANE('',#1131);
#1131 = AXIS2_PLACEMENT_3D('',#1132,#1133,#1134);
#1132 = CARTESIAN_POINT('',(-31.54914088594,-86.,18.966460493896));
#1133 = DIRECTION('',(0.507020126563,-0.,0.861934215158));
#1134 = DIRECTION('',(0.861934215158,0.,-0.507020126563));
#1135 = ADVANCED_FACE('',(#1136),#1147,.T.);
#1136 = FACE_BOUND('',#1137,.F.);
#1137 = EDGE_LOOP('',(#1138,#1139,#1145,#1146));
#1138 = ORIENTED_EDGE('',*,*,#905,.F.);
#1139 = ORIENTED_EDGE('',*,*,#1140,.T.);
#1140 = EDGE_CURVE('',#898,#947,#1141,.T.);
#1141 = LINE('',#1142,#1143);
#1142 = CARTESIAN_POINT('',(-15.,-121.,33.5));
#1143 = VECTOR('',#1144,1.);
#1144 = DIRECTION('',(-0.,-1.,-0.));
#1145 = ORIENTED_EDGE('',*,*,#954,.T.);
#1146 = ORIENTED_EDGE('',*,*,#702,.F.);
#1147 = PLANE('',#1148);
#1148 = AXIS2_PLACEMENT_3D('',#1149,#1150,#1151);
#1149 = CARTESIAN_POINT('',(-15.,-121.,33.5));
#1150 = DIRECTION('',(1.,-0.,-0.));
#1151 = DIRECTION('',(0.,0.,-1.));
#1152 = ADVANCED_FACE('',(#1153),#1164,.T.);
#1153 = FACE_BOUND('',#1154,.F.);
#1154 = EDGE_LOOP('',(#1155,#1156,#1162,#1163));
#1155 = ORIENTED_EDGE('',*,*,#824,.F.);
#1156 = ORIENTED_EDGE('',*,*,#1157,.T.);
#1157 = EDGE_CURVE('',#817,#866,#1158,.T.);
#1158 = LINE('',#1159,#1160);
#1159 = CARTESIAN_POINT('',(-15.,-108.,33.5));
#1160 = VECTOR('',#1161,1.);
#1161 = DIRECTION('',(-0.,-1.,-0.));
#1162 = ORIENTED_EDGE('',*,*,#873,.T.);
#1163 = ORIENTED_EDGE('',*,*,#679,.F.);
#1164 = PLANE('',#1165);
#1165 = AXIS2_PLACEMENT_3D('',#1166,#1167,#1168);
#1166 = CARTESIAN_POINT('',(-15.,-108.,33.5));
#1167 = DIRECTION('',(1.,-0.,-0.));
#1168 = DIRECTION('',(0.,0.,-1.));
#1169 = ADVANCED_FACE('',(#1170),#1181,.T.);
#1170 = FACE_BOUND('',#1171,.F.);
#1171 = EDGE_LOOP('',(#1172,#1173,#1179,#1180));
#1172 = ORIENTED_EDGE('',*,*,#743,.F.);
#1173 = ORIENTED_EDGE('',*,*,#1174,.T.);
#1174 = EDGE_CURVE('',#736,#785,#1175,.T.);
#1175 = LINE('',#1176,#1177);
#1176 = CARTESIAN_POINT('',(-15.,-95.,33.5));
#1177 = VECTOR('',#1178,1.);
#1178 = DIRECTION('',(-0.,-1.,-0.));
#1179 = ORIENTED_EDGE('',*,*,#792,.T.);
#1180 = ORIENTED_EDGE('',*,*,#656,.F.);
#1181 = PLANE('',#1182);
#1182 = AXIS2_PLACEMENT_3D('',#1183,#1184,#1185);
#1183 = CARTESIAN_POINT('',(-15.,-95.,33.5));
#1184 = DIRECTION('',(1.,-0.,-0.));
#1185 = DIRECTION('',(0.,0.,-1.));
#1186 = ADVANCED_FACE('',(#1187),#1193,.T.);
#1187 = FACE_BOUND('',#1188,.F.);
#1188 = EDGE_LOOP('',(#1189,#1190,#1191,#1192));
#1189 = ORIENTED_EDGE('',*,*,#1174,.F.);
#1190 = ORIENTED_EDGE('',*,*,#735,.T.);
#1191 = ORIENTED_EDGE('',*,*,#760,.T.);
#1192 = ORIENTED_EDGE('',*,*,#784,.F.);
#1193 = PLANE('',#1194);
#1194 = AXIS2_PLACEMENT_3D('',#1195,#1196,#1197);
#1195 = CARTESIAN_POINT('',(-15.,-95.,33.5));
#1196 = DIRECTION('',(-0.,-0.,1.));
#1197 = DIRECTION('',(-1.,0.,0.));
#1198 = ADVANCED_FACE('',(#1199),#1205,.T.);
#1199 = FACE_BOUND('',#1200,.F.);
#1200 = EDGE_LOOP('',(#1201,#1202,#1203,#1204));
#1201 = ORIENTED_EDGE('',*,*,#1157,.F.);
#1202 = ORIENTED_EDGE('',*,*,#816,.T.);
#1203 = ORIENTED_EDGE('',*,*,#841,.T.);
#1204 = ORIENTED_EDGE('',*,*,#865,.F.);
#1205 = PLANE('',#1206);
#1206 = AXIS2_PLACEMENT_3D('',#1207,#1208,#1209);
#1207 = CARTESIAN_POINT('',(-15.,-108.,33.5));
#1208 = DIRECTION('',(-0.,-0.,1.));
#1209 = DIRECTION('',(-1.,0.,0.));
#1210 = ADVANCED_FACE('',(#1211),#1217,.T.);
#1211 = FACE_BOUND('',#1212,.F.);
#1212 = EDGE_LOOP('',(#1213,#1214,#1215,#1216));
#1213 = ORIENTED_EDGE('',*,*,#1140,.F.);
#1214 = ORIENTED_EDGE('',*,*,#897,.T.);
#1215 = ORIENTED_EDGE('',*,*,#922,.T.);
#1216 = ORIENTED_EDGE('',*,*,#946,.F.);
#1217 = PLANE('',#1218);
#1218 = AXIS2_PLACEMENT_3D('',#1219,#1220,#1221);
#1219 = CARTESIAN_POINT('',(-15.,-121.,33.5));
#1220 = DIRECTION('',(-0.,-0.,1.));
#1221 = DIRECTION('',(-1.,0.,0.));
#1222 = ADVANCED_FACE('',(#1223),#1231,.T.);
#1223 = FACE_BOUND('',#1224,.F.);
#1224 = EDGE_LOOP('',(#1225,#1226,#1227,#1228,#1229,#1230));
#1225 = ORIENTED_EDGE('',*,*,#1085,.F.);
#1226 = ORIENTED_EDGE('',*,*,#1125,.F.);
#1227 = ORIENTED_EDGE('',*,*,#1027,.T.);
#1228 = ORIENTED_EDGE('',*,*,#1018,.T.);
#1229 = ORIENTED_EDGE('',*,*,#1054,.T.);
#1230 = ORIENTED_EDGE('',*,*,#1094,.F.);
#1231 = CYLINDRICAL_SURFACE('',#1232,8.5);
#1232 = AXIS2_PLACEMENT_3D('',#1233,#1234,#1235);
#1233 = CARTESIAN_POINT('',(-45.,-86.,35.));
#1234 = DIRECTION('',(-0.,-1.,-0.));
#1235 = DIRECTION('',(-0.,-0.,1.));
#1236 = ADVANCED_FACE('',(#1237),#1248,.F.);
#1237 = FACE_BOUND('',#1238,.T.);
#1238 = EDGE_LOOP('',(#1239,#1240,#1246,#1247));
#1239 = ORIENTED_EDGE('',*,*,#1105,.F.);
#1240 = ORIENTED_EDGE('',*,*,#1241,.F.);
#1241 = EDGE_CURVE('',#1037,#1106,#1242,.T.);
#1242 = LINE('',#1243,#1244);
#1243 = CARTESIAN_POINT('',(-45.,-85.5,36.7));
#1244 = VECTOR('',#1245,1.);
#1245 = DIRECTION('',(-0.,-1.,-0.));
#1246 = ORIENTED_EDGE('',*,*,#1036,.T.);
#1247 = ORIENTED_EDGE('',*,*,#1241,.T.);
#1248 = CYLINDRICAL_SURFACE('',#1249,1.7);
#1249 = AXIS2_PLACEMENT_3D('',#1250,#1251,#1252);
#1250 = CARTESIAN_POINT('',(-45.,-85.5,35.));
#1251 = DIRECTION('',(-0.,-1.,-0.));
#1252 = DIRECTION('',(-0.,-0.,1.));
#1253 = ( GEOMETRIC_REPRESENTATION_CONTEXT(3) 
GLOBAL_UNCERTAINTY_ASSIGNED_CONTEXT((#1257)) 
GLOBAL_UNIT_ASSIGNED_CONTEXT((#1254,#1255,#1256)) REPRESENTATION_CONTEXT
('Context #1','3D Context with UNIT and UNCERTAINTY') );
#1254 = ( LENGTH_UNIT() NAMED_UNIT(*) SI_UNIT(.MILLI.,.METRE.) );
#1255 = ( NAMED_UNIT(*) PLANE_ANGLE_UNIT() SI_UNIT($,.RADIAN.) );
#1256 = ( NAMED_UNIT(*) SI_UNIT($,.STERADIAN.) SOLID_ANGLE_UNIT() );
#1257 = UNCERTAINTY_MEASURE_WITH_UNIT(LENGTH_MEASURE(1.E-07),#1254,
  'distance_accuracy_value','confusion accuracy');
#1258 = PRODUCT_RELATED_PRODUCT_CATEGORY('part',$,(#7));
ENDSEC;
END-ISO-10303-21;
